<svg width="18" height="18" viewBox="0 0 18 18" fill="none" xmlns="http://www.w3.org/2000/svg">
<circle cx="9" cy="9" r="9" fill="#5552FF"/>
<path d="M12.2266 10.7505C11.9537 10.7505 11.701 10.83 11.4814 10.9597L10.7317 10.21L10.2098 10.7319L10.9596 11.4816C10.8299 11.7012 10.7504 11.9538 10.7504 12.2267C10.7504 13.0407 11.4126 13.703 12.2266 13.703C12.3579 13.703 12.4829 13.6803 12.6041 13.6479L11.7048 12.7486C11.5711 12.6149 11.4885 12.4302 11.4885 12.2267C11.4885 11.8196 11.8195 11.4885 12.2266 11.4885C12.4302 11.4885 12.6147 11.5713 12.7483 11.705L13.6478 12.6041C13.6801 12.4829 13.7028 12.3579 13.7028 12.2267C13.7028 11.4127 13.0406 10.7505 12.2266 10.7505Z" fill="#E5E7F3"/>
<path d="M10.7317 7.59993L12.121 6.21059C12.2654 6.27953 12.425 6.32131 12.5957 6.32131C13.2072 6.32131 13.7029 5.82562 13.7029 5.21412C13.7029 4.60262 13.2072 4.10693 12.5957 4.10693C11.9842 4.10693 11.4885 4.60262 11.4885 5.21412C11.4885 5.3847 11.5303 5.54436 11.5992 5.6887L10.2098 7.07803L10.7317 7.59993ZM12.5956 4.8451C12.7991 4.8451 12.9647 5.01066 12.9647 5.21416C12.9647 5.41766 12.7991 5.58322 12.5956 5.58322C12.3921 5.58322 12.2266 5.41766 12.2266 5.21416C12.2266 5.01066 12.3921 4.8451 12.5956 4.8451Z" fill="#E5E7F3"/>
<path d="M8.90495 7.42871C8.08962 7.42871 7.4287 8.08963 7.4287 8.90496C7.4287 9.17825 7.50805 9.43102 7.63748 9.6505L5.68902 11.5991C5.54468 11.5302 5.38498 11.4884 5.21437 11.4884C4.60287 11.4884 4.10718 11.9841 4.10718 12.5956C4.10718 13.2071 4.60287 13.7028 5.21437 13.7028C5.82587 13.7028 6.32155 13.2071 6.32155 12.5956C6.32155 12.425 6.27977 12.2653 6.21087 12.121L8.15948 10.1724C8.379 10.3019 8.6317 10.3812 8.90499 10.3812C9.72029 10.3812 10.3812 9.72026 10.3812 8.90496C10.3812 8.08966 9.72025 7.42871 8.90495 7.42871ZM5.21433 12.9646C5.01083 12.9646 4.84527 12.7991 4.84527 12.5956C4.84527 12.3921 5.01083 12.2265 5.21433 12.2265C5.41783 12.2265 5.58339 12.3921 5.58339 12.5956C5.58339 12.7991 5.41783 12.9646 5.21433 12.9646ZM8.90495 9.64309C8.49795 9.64309 8.16683 9.31196 8.16683 8.90496C8.16683 8.49796 8.49795 8.16684 8.90495 8.16684C9.31196 8.16684 9.64308 8.49796 9.64308 8.90496C9.64308 9.31196 9.31196 9.64309 8.90495 9.64309Z" fill="#E5E7F3"/>
<path d="M5.58339 7.05992C5.85635 7.05992 6.10897 6.98039 6.32857 6.8507L7.07817 7.6003L7.60006 7.07841L6.85046 6.32881C6.98014 6.10922 7.05964 5.85659 7.05964 5.58367C7.05964 4.76967 6.3974 4.10742 5.58339 4.10742C5.45212 4.10742 5.32715 4.13012 5.20591 4.16249L6.10525 5.06182C6.23888 5.19546 6.32152 5.38017 6.32152 5.58371C6.32152 5.99078 5.99047 6.32183 5.58339 6.32183C5.37985 6.32183 5.19532 6.23909 5.06168 6.10542L4.1622 5.20627C4.12991 5.32747 4.10718 5.45243 4.10718 5.58371C4.10718 6.39771 4.76939 7.05992 5.58339 7.05992Z" fill="#E5E7F3"/>
</svg>
