<svg width="18" height="18" viewBox="0 0 18 18" fill="none" xmlns="http://www.w3.org/2000/svg">
<circle cx="9" cy="9" r="9" fill="#1C8881"/>
<path d="M10.7578 11.8125H7.24219V12.5156H10.7578V11.8125Z" fill="white"/>
<path d="M10.0547 13.2188H7.94531V13.9219H10.0547V13.2188Z" fill="white"/>
<path d="M9 4.07812C7.06289 4.07812 5.48438 5.65664 5.48438 7.59375C5.48438 9.14062 6.1875 9.79805 6.70078 10.2727C7.05586 10.5996 7.24219 10.7895 7.24219 11.1094H7.94531C7.94531 10.4625 7.55508 10.1004 7.17539 9.75234C6.69023 9.30234 6.1875 8.83125 6.1875 7.59375C6.1875 6.04336 7.44961 4.78125 9 4.78125C10.5504 4.78125 11.8125 6.04336 11.8125 7.59375C11.8125 8.83125 11.3063 9.30234 10.8211 9.75234C10.4449 10.1004 10.0547 10.4625 10.0547 11.1094H10.7578C10.7578 10.7859 10.9441 10.5996 11.2992 10.2691C11.809 9.79453 12.5156 9.14062 12.5156 7.59375C12.5156 5.65664 10.9371 4.07812 9 4.07812Z" fill="white"/>
</svg>
