<svg width="12" height="13" viewBox="0 0 12 13" fill="none" xmlns="http://www.w3.org/2000/svg">
<path d="M11 5.5C11.55 5.5 12 5.05 12 4.5V1.5C12 0.95 11.55 0.5 11 0.5H8C7.45 0.5 7 0.95 7 1.5V4.5C7 5.05 7.45 5.5 8 5.5H9V7.55C8.02 7.75 7.25 8.52 7.05 9.5H5V8.5C5 7.95 4.55 7.5 4 7.5H3V5.45C4.14 5.22 5 4.21 5 3C5 1.62 3.88 0.5 2.5 0.5C1.12 0.5 0 1.62 0 3C0 4.21 0.86 5.22 2 5.45V7.5H1C0.45 7.5 0 7.95 0 8.5V11.5C0 12.05 0.45 12.5 1 12.5H4C4.55 12.5 5 12.05 5 11.5V10.5H7.05C7.28 11.64 8.29 12.5 9.5 12.5C10.88 12.5 12 11.38 12 10C12 8.79 11.14 7.78 10 7.55V5.5H11ZM1 3C1 2.175 1.675 1.5 2.5 1.5C3.325 1.5 4 2.175 4 3C4 3.825 3.325 4.5 2.5 4.5C1.675 4.5 1 3.825 1 3ZM4 11.5H1V8.5H4V11.5ZM11 10C11 10.825 10.325 11.5 9.5 11.5C8.675 11.5 8 10.825 8 10C8 9.175 8.675 8.5 9.5 8.5C10.325 8.5 11 9.175 11 10ZM8 1.5H11V4.5H8V1.5Z" fill="#E5E7F3"/>
</svg>
