<svg width="16" height="17" viewBox="0 0 16 17" fill="none" xmlns="http://www.w3.org/2000/svg">
<g opacity="0.6" clip-path="url(#clip0_367_1137)">
<path d="M5.66667 5.92857H12.0833C12.5875 5.92857 13 5.54286 13 5.07143V3.35714C13 2.88571 12.5875 2.5 12.0833 2.5H5.66667C5.1625 2.5 4.75 2.88571 4.75 3.35714V3.78571H2.91667V2.5H2V12.3571C2 12.8286 2.4125 13.2143 2.91667 13.2143H4.75V13.6429C4.75 14.1143 5.1625 14.5 5.66667 14.5H12.0833C12.5875 14.5 13 14.1143 13 13.6429V11.9286C13 11.4571 12.5875 11.0714 12.0833 11.0714H5.66667C5.1625 11.0714 4.75 11.4571 4.75 11.9286V12.3571H2.91667V8.92857H4.75V9.35714C4.75 9.82857 5.1625 10.2143 5.66667 10.2143H12.0833C12.5875 10.2143 13 9.82857 13 9.35714V7.64286C13 7.17143 12.5875 6.78571 12.0833 6.78571H5.66667C5.1625 6.78571 4.75 7.17143 4.75 7.64286V8.07143H2.91667V4.64286H4.75V5.07143C4.75 5.54286 5.1625 5.92857 5.66667 5.92857ZM5.66667 3.35714H12.0833V5.07143H5.66667V3.35714ZM5.66667 11.9286H12.0833V13.6429H5.66667V11.9286ZM5.66667 7.64286H12.0833V9.35714H5.66667V7.64286Z" fill="#E5E7F3"/>
</g>
<defs>
<clipPath id="clip0_367_1137">
<rect width="16" height="16" fill="white" transform="translate(0 0.5)"/>
</clipPath>
</defs>
</svg>
