<svg width="18" height="18" viewBox="0 0 18 18" fill="none" xmlns="http://www.w3.org/2000/svg">
<circle cx="9" cy="9" r="9" fill="#5552FF"/>
<g clip-path="url(#clip0_346_831)">
<path d="M14.9555 8.62446L5.67425 3.98384C5.52659 3.9079 5.34519 3.92899 5.21862 4.03446C5.08784 4.13993 5.03722 4.3129 5.0794 4.47321L6.20159 8.58228H10.973V9.42603H6.19737L5.07519 13.5351C5.033 13.6954 5.08784 13.8684 5.2144 13.9738C5.29034 14.0371 5.38737 14.0709 5.48019 14.0709C5.54347 14.0709 5.61097 14.054 5.67003 14.0245L14.9513 9.38384C15.0947 9.31212 15.1833 9.16446 15.1833 9.00837C15.1833 8.85228 15.0947 8.7004 14.9513 8.6329L14.9555 8.62446Z" fill="#E5E7F3"/>
</g>
<defs>
<clipPath id="clip0_346_831">
<rect width="13.5" height="13.5" fill="white" transform="translate(3.375 2.25)"/>
</clipPath>
</defs>
</svg>
