<svg width="12" height="11" viewBox="0 0 12 11" fill="none" xmlns="http://www.w3.org/2000/svg">
<path d="M1.875 8.625V5.18625L0.52875 6.5325L0 6L2.25 3.75L4.5 6L3.97125 6.52875L2.625 5.1825V8.62125H7.125V9.37125H2.625C2.2125 9.37125 1.875 9.03375 1.875 8.62125V8.625Z" fill="#8F91A4"/>
<path d="M9 7.5H10.5C10.9125 7.5 11.25 7.8375 11.25 8.25V9.75C11.25 10.1625 10.9125 10.5 10.5 10.5H9C8.5875 10.5 8.25 10.1625 8.25 9.75V8.25C8.25 7.8375 8.5875 7.5 9 7.5ZM10.5 9.75V8.25H9V9.75H10.5Z" fill="#8F91A4"/>
<path d="M10.125 1.5V4.93875L11.4713 3.5925L12 4.12125L9.75 6.37125L7.5 4.12125L8.02875 3.5925L9.375 4.93875V1.5H4.875V0.75H9.375C9.7875 0.75 10.125 1.0875 10.125 1.5Z" fill="#8F91A4"/>
<path d="M3 1.5H0.75V2.25H3V1.5Z" fill="#8F91A4"/>
<path d="M3.75 0H0.75V0.75H3.75V0Z" fill="#8F91A4"/>
</svg>
