<svg width="18" height="18" viewBox="0 0 18 18" fill="none" xmlns="http://www.w3.org/2000/svg">
<circle cx="9" cy="9" r="9" fill="#1C8881"/>
<g clip-path="url(#clip0_367_728)">
<path d="M8.90504 4.47641C9.78096 4.47641 10.6372 4.73615 11.3655 5.22279C12.0938 5.70942 12.6615 6.4011 12.9967 7.21035C13.3319 8.0196 13.4196 8.91007 13.2487 9.76916C13.0778 10.6283 12.656 11.4174 12.0366 12.0368C11.4173 12.6561 10.6281 13.0779 9.76904 13.2488C8.90995 13.4197 8.01948 13.332 7.21023 12.9968C6.40098 12.6616 5.7093 12.0939 5.22267 11.3656C4.73603 10.6373 4.47629 9.78108 4.47629 8.90516C4.47629 7.73058 4.94289 6.60411 5.77344 5.77356C6.60399 4.94301 7.73046 4.47641 8.90504 4.47641ZM8.90504 3.73828C7.88313 3.73828 6.88416 4.04131 6.03447 4.60906C5.18479 5.1768 4.52253 5.98376 4.13147 6.92788C3.7404 7.872 3.63808 8.91089 3.83744 9.91316C4.03681 10.9154 4.5289 11.8361 5.2515 12.5587C5.9741 13.2813 6.89475 13.7734 7.89703 13.9728C8.89931 14.1721 9.93819 14.0698 10.8823 13.6787C11.8264 13.2877 12.6334 12.6254 13.2011 11.7757C13.7689 10.926 14.0719 9.92707 14.0719 8.90516C14.0719 7.53482 13.5275 6.2206 12.5586 5.25162C11.5896 4.28265 10.2754 3.73828 8.90504 3.73828Z" fill="#E5E7F3"/>
<path d="M11.4884 6.84216L10.968 6.32178L9.38106 7.90875C9.17446 7.81007 8.94234 7.77788 8.71668 7.8166C8.49101 7.85531 8.2829 7.96304 8.121 8.12494C7.9591 8.28684 7.85138 8.49495 7.81266 8.72061C7.77394 8.94627 7.80614 9.17839 7.90481 9.385L6.32153 10.9683L6.84191 11.4887L8.42888 9.90168C8.63549 10.0004 8.8676 10.0326 9.09327 9.99383C9.31893 9.95512 9.52704 9.84739 9.68894 9.68549C9.85084 9.52359 9.95856 9.31548 9.99728 9.08982C10.036 8.86416 10.0038 8.63204 9.90513 8.42543L11.4884 6.84216ZM9.27403 8.90522C9.27403 8.97821 9.25239 9.04956 9.21184 9.11026C9.17128 9.17095 9.11364 9.21825 9.0462 9.24618C8.97877 9.27412 8.90456 9.28143 8.83297 9.26719C8.76138 9.25295 8.69562 9.2178 8.644 9.16618C8.59239 9.11457 8.55724 9.04881 8.543 8.97722C8.52876 8.90562 8.53607 8.83142 8.564 8.76398C8.59193 8.69654 8.63924 8.6389 8.69993 8.59835C8.76062 8.5578 8.83198 8.53615 8.90497 8.53615C9.00285 8.53615 9.09672 8.57504 9.16594 8.64425C9.23515 8.71346 9.27403 8.80733 9.27403 8.90522Z" fill="#E5E7F3"/>
<path d="M8.90503 6.32154C9.21078 6.32154 9.45863 6.07369 9.45863 5.76795C9.45863 5.46221 9.21078 5.21436 8.90503 5.21436C8.59929 5.21436 8.35144 5.46221 8.35144 5.76795C8.35144 6.07369 8.59929 6.32154 8.90503 6.32154Z" fill="#E5E7F3"/>
</g>
<defs>
<clipPath id="clip0_367_728">
<rect width="11.81" height="11.81" fill="white" transform="translate(3 3)"/>
</clipPath>
</defs>
</svg>
