<svg width="18" height="19" viewBox="0 0 18 19" fill="none" xmlns="http://www.w3.org/2000/svg">
<circle cx="9" cy="9.5" r="9" fill="#8C31FF"/>
<path d="M8.99799 10.3035C8.93373 10.3035 8.86545 10.2874 8.80922 10.2553L3.58787 7.44281C3.45934 7.37451 3.375 7.23791 3.375 7.08925C3.375 6.94059 3.45533 6.80398 3.58787 6.73568L8.80922 3.92321C8.92971 3.85893 9.07029 3.85893 9.19078 3.92321L14.4121 6.73568C14.5407 6.80398 14.625 6.94059 14.625 7.08925C14.625 7.23791 14.5447 7.37451 14.4121 7.44281L9.19078 10.2553C9.13053 10.2874 9.06627 10.3035 9.00201 10.3035H8.99799ZM4.62411 7.08925L8.99799 9.44368L13.3719 7.08925L8.99799 4.73481L4.62411 7.08925Z" fill="white"/>
<path d="M8.99725 12.7143C8.93299 12.7143 8.86471 12.6982 8.80848 12.6661L3.58713 9.85362L3.96869 9.14648L9.00126 11.8545L14.0338 9.14648L14.4154 9.85362L9.19405 12.6661C9.13381 12.6982 9.06954 12.7143 9.00528 12.7143H8.99725Z" fill="white"/>
<path d="M8.99725 15.1249C8.93299 15.1249 8.86471 15.1089 8.80848 15.0767L3.58713 12.2643L3.96869 11.5571L9.00126 14.2651L14.0338 11.5571L14.4154 12.2643L9.19405 15.0767C9.13381 15.1089 9.06954 15.1249 9.00528 15.1249H8.99725Z" fill="white"/>
</svg>
