<svg width="18" height="18" viewBox="0 0 18 18" fill="none" xmlns="http://www.w3.org/2000/svg">
<circle cx="9" cy="9" r="9" fill="#5552FF"/>
<path d="M11.5062 5.53071H11.0844V3H10.2406V5.53071H7.70935V3H6.8656V5.53071H6.44373C6.21995 5.53071 6.00534 5.61959 5.8471 5.77779C5.68887 5.93599 5.59998 6.15056 5.59998 6.37429V8.905C5.60131 9.72621 5.90186 10.5188 6.44541 11.1345C6.98895 11.7502 7.73825 12.1468 8.5531 12.2501V14.81H9.39685V12.2501C10.2117 12.1468 10.961 11.7502 11.5045 11.1345C12.0481 10.5188 12.3486 9.72621 12.35 8.905V6.37429C12.35 6.15056 12.2611 5.93599 12.1028 5.77779C11.9446 5.61959 11.73 5.53071 11.5062 5.53071ZM11.5062 8.905C11.5062 9.57619 11.2395 10.2199 10.7648 10.6945C10.2901 11.1691 9.6463 11.4357 8.97498 11.4357C8.30365 11.4357 7.65981 11.1691 7.18511 10.6945C6.71041 10.2199 6.44373 9.57619 6.44373 8.905V6.37429H11.5062V8.905Z" fill="#E5E7F3"/>
</svg>
