<svg width="18" height="15" viewBox="0 0 18 15" fill="none" xmlns="http://www.w3.org/2000/svg">
<g clip-path="url(#clip0_406_72)">
<path d="M15.0975 6.90859C15.0192 6.50573 14.8844 6.1243 14.7017 5.77287C14.1057 4.61145 12.9877 3.75859 11.6436 3.50573C11.3826 3.45859 11.1129 3.43287 10.8519 3.42859H10.8214C10.4299 3.42859 10.0428 3.48002 9.67735 3.58287C8.12873 3.99859 6.87156 5.25002 6.54531 6.90859C4.99669 7.18288 3.86568 8.51145 3.86133 10.0629C3.86133 10.44 3.92658 10.8043 4.05708 11.1429C4.16148 11.4514 4.32243 11.7429 4.52254 12C5.11414 12.78 6.0581 13.2814 7.12387 13.2857H14.5233C14.5842 13.2857 14.6451 13.2857 14.7017 13.2772C16.2024 13.1957 17.4596 12.1114 17.7293 10.6414C17.7641 10.4486 17.7815 10.2557 17.7815 10.0672C17.7815 8.54145 16.6766 7.18716 15.0975 6.90859ZM16.8723 10.4914C16.6766 11.55 15.7805 12.3386 14.7017 12.42C14.6451 12.4243 14.5842 12.4286 14.5233 12.4286H7.12387C6.61056 12.4286 6.1364 12.27 5.74925 12C5.4317 11.7772 5.17504 11.4857 5.00104 11.1429C4.82704 10.8172 4.73134 10.4529 4.73134 10.0672C4.73569 8.92716 5.5622 7.9543 6.70191 7.74859L7.28917 7.64573L7.40227 7.06716C7.69372 5.57145 8.95959 4.45287 10.4734 4.30287C10.5865 4.29002 10.704 4.28573 10.8214 4.28573C11.0433 4.28573 11.2608 4.30716 11.4826 4.35002C11.5087 4.3543 11.5305 4.35859 11.5566 4.36716C12.9268 4.6543 13.9795 5.70859 14.2449 7.06716L14.2667 7.18716L14.271 7.19145L14.358 7.64573L14.5016 7.67145L14.7017 7.70573L14.9453 7.74859C15.5717 7.8643 16.1198 8.20716 16.4852 8.72573C16.8506 9.2443 16.9898 9.87002 16.8723 10.4914Z" fill="black"/>
<path d="M14.271 7.19146L14.358 7.64574L14.5016 7.67145C14.4363 7.50431 14.3624 7.34574 14.271 7.19146ZM8.56373 2.22003C8.28533 2.1686 8.01563 2.14288 7.74158 2.14288C6.09726 2.14288 4.59214 3.06431 3.86133 4.49145C3.67863 4.8386 3.54378 5.22003 3.46548 5.62288C1.91251 5.89717 0.785844 7.22574 0.781494 8.77717V8.78574C0.781494 10.4957 2.14306 11.9015 3.86133 11.9915C3.92223 12 3.97878 12 4.03968 12H5.74925C5.4317 11.7772 5.17505 11.4857 5.00104 11.1429H4.04403C3.98313 11.1429 3.92223 11.1386 3.86133 11.1343C2.62157 11.04 1.64715 10.02 1.6515 8.78146C1.65585 7.64146 2.48236 6.6686 3.62208 6.46288L3.86133 6.42003L4.20498 6.36003L4.31809 5.78145C4.63564 4.17003 6.07551 3.00003 7.74158 3.00003C7.96343 3.00003 8.18093 3.02145 8.39843 3.06431C8.86824 3.15431 9.29889 3.33003 9.67735 3.58288C9.98185 3.77574 10.2516 4.02431 10.4734 4.30288C10.5865 4.29003 10.704 4.28574 10.8214 4.28574C11.0433 4.28574 11.2608 4.30717 11.4826 4.35003C11.5087 4.35431 11.5305 4.3586 11.5566 4.36717C11.3652 4.02431 11.1259 3.70717 10.8519 3.4286C10.2429 2.82003 9.45115 2.38717 8.56373 2.22003Z" fill="black"/>
</g>
<defs>
<clipPath id="clip0_406_72">
<rect width="17" height="15" fill="white" transform="translate(0.781494)"/>
</clipPath>
</defs>
</svg>

