<svg width="18" height="18" viewBox="0 0 18 18" fill="none" xmlns="http://www.w3.org/2000/svg">
<path d="M7.39367 9.19796C7.32311 9.19796 7.27541 9.17809 7.25122 9.13834C7.22671 9.09858 7.21479 9.03233 7.21479 8.93958V7.17727C7.21479 6.9964 7.17503 6.8427 7.09553 6.71682C7.01615 6.59094 6.90837 6.48543 6.78083 6.40874C6.64469 6.32699 6.49575 6.26876 6.34026 6.23649C6.17699 6.20114 6.01041 6.18337 5.84336 6.18349C5.65322 6.18349 5.46771 6.20137 5.28685 6.23649C5.11465 6.26837 4.94966 6.33123 4.79989 6.42199C4.65646 6.51044 4.53819 6.62738 4.44544 6.77313C4.35269 6.91889 4.29969 7.10207 4.28644 7.32302H5.04171C5.05927 7.13752 5.13678 7.00071 5.27359 6.91226C5.41041 6.82381 5.58498 6.77976 5.79699 6.77976C5.87218 6.77976 5.95136 6.78539 6.0355 6.79632C6.1193 6.80758 6.19549 6.82944 6.2644 6.86257C6.33297 6.8957 6.39028 6.94307 6.43665 7.00501C6.48303 7.06696 6.50622 7.14646 6.50622 7.24352C6.50622 7.35383 6.47872 7.43665 6.4234 7.49197C6.36808 7.54729 6.29322 7.58803 6.19815 7.61453C6.10307 7.64104 5.99376 7.65992 5.8702 7.67085C5.74664 7.68178 5.61612 7.70066 5.47931 7.72716C5.3203 7.74472 5.16229 7.77023 5.0056 7.80335C4.84892 7.83648 4.70747 7.89047 4.58159 7.96567C4.45571 8.04087 4.35401 8.14455 4.27683 8.27706C4.19931 8.40956 4.16089 8.58182 4.16089 8.79382C4.16089 8.96177 4.19269 9.10852 4.25695 9.2344C4.32089 9.36028 4.40702 9.46397 4.51534 9.54579C4.62366 9.62761 4.74821 9.68956 4.88966 9.73129C5.03111 9.77336 5.17885 9.79423 5.33355 9.79423C5.53662 9.79423 5.74763 9.76111 5.96626 9.69486C6.17366 9.63513 6.36348 9.52601 6.51947 9.37684C6.55028 9.53154 6.61653 9.63953 6.71823 9.70148C6.81992 9.76343 6.94779 9.79423 7.10249 9.79423C7.18485 9.79315 7.26693 9.78428 7.34762 9.76773C7.42584 9.75163 7.50322 9.73174 7.5795 9.70811V9.18471C7.53975 9.19366 7.50431 9.19796 7.4735 9.19796H7.39367ZM6.45951 8.54869C6.45951 8.66794 6.43069 8.76865 6.37338 8.85014C6.31607 8.93196 6.24419 8.99921 6.15806 9.05221C6.07322 9.1046 5.98033 9.14265 5.88312 9.16484C5.78606 9.18703 5.69529 9.19796 5.61148 9.19796C5.54523 9.19796 5.47136 9.19134 5.38954 9.17809C5.31146 9.16601 5.23557 9.14258 5.16428 9.10852C5.09677 9.07624 5.03692 9.02994 4.98871 8.97271C4.9393 8.91333 4.91337 8.8379 4.91583 8.7607C4.91583 8.66364 4.9324 8.58082 4.96552 8.51225C4.99865 8.44368 5.04403 8.38869 5.10134 8.34662C5.15865 8.30455 5.2249 8.27143 5.3001 8.24724C5.37529 8.22306 5.45248 8.20418 5.53198 8.19093C5.6987 8.16028 5.86671 8.13706 6.0355 8.12136C6.20344 8.10613 6.34456 8.06074 6.45951 7.98555V8.54869ZM11.0442 6.71715C10.9099 6.54996 10.7387 6.41616 10.544 6.32626C10.3429 6.23119 10.1077 6.18382 9.83838 6.18382C9.61742 6.18382 9.41204 6.22688 9.22223 6.31301C9.03242 6.39914 8.88434 6.54158 8.77834 6.74034H8.76509V6.27657H8.04956V10.9672H8.80484V9.25792H8.81809C8.8754 9.35067 8.94728 9.43117 9.03341 9.49974C9.11954 9.56798 9.21328 9.62463 9.31498 9.66868C9.41668 9.71274 9.52268 9.74488 9.63299 9.76475C9.7433 9.78463 9.85394 9.79456 9.96425 9.79456C10.216 9.79456 10.4346 9.74487 10.6202 9.6455C10.8057 9.54612 10.959 9.41361 11.0806 9.24798C11.2018 9.08235 11.2926 8.89122 11.3522 8.6749C11.4121 8.4569 11.4422 8.23181 11.4417 8.00575C11.4417 7.754 11.4086 7.51781 11.3423 7.29685C11.276 7.07557 11.1767 6.88278 11.0442 6.71715ZM10.6367 8.43275C10.6036 8.57652 10.5483 8.70438 10.4711 8.81701C10.3939 8.92964 10.2955 9.0214 10.1763 9.09196C10.057 9.16252 9.91125 9.19796 9.739 9.19796C9.5843 9.19796 9.44848 9.16716 9.33154 9.10521C9.21447 9.04343 9.11175 8.95764 9.0301 8.85345C8.9425 8.74026 8.87831 8.61076 8.84128 8.4725C8.79815 8.31608 8.77696 8.15442 8.77834 7.99217C8.77834 7.62547 8.85884 7.33197 9.02016 7.11102C9.18148 6.89007 9.42099 6.77976 9.739 6.77976C9.8937 6.77976 10.0305 6.81388 10.1498 6.88245C10.269 6.95069 10.3684 7.04145 10.4479 7.15408C10.5274 7.26671 10.587 7.3959 10.6268 7.54166C10.6665 7.68741 10.6864 7.8378 10.6864 7.99217C10.6864 8.14256 10.6698 8.28931 10.6367 8.43275ZM12.0972 4.97107H12.8525V5.68659H12.0972V4.97107ZM12.0972 6.27624H12.8525V9.70148H12.0972V6.27624Z" fill="#5552FF"/>
<path d="M0 0.774414V18H17.2256V0.774414H0ZM0.662523 1.43694H16.5631V14.6874H0.662523V1.43694Z" fill="#5552FF"/>
</svg>
