<svg width="20" height="20" viewBox="0 0 20 20" fill="none" xmlns="http://www.w3.org/2000/svg">
<g clip-path="url(#clip0_206_436)">
<path d="M10 11.25C9.9 11.25 9.79375 11.225 9.70625 11.175L1.58125 6.8C1.38125 6.69375 1.25 6.48125 1.25 6.25C1.25 6.01875 1.375 5.80625 1.58125 5.7L9.70625 1.325C9.89375 1.225 10.1125 1.225 10.3 1.325L18.425 5.7C18.625 5.80625 18.7563 6.01875 18.7563 6.25C18.7563 6.48125 18.6313 6.69375 18.425 6.8L10.3 11.175C10.2062 11.225 10.1062 11.25 10.0063 11.25H10ZM3.19375 6.25L10 9.9125L16.8062 6.25L10 2.5875L3.19375 6.25Z" fill="#5552FF"/>
<path d="M10 15C9.90005 15 9.7938 14.975 9.7063 14.925L1.5813 10.55L2.17505 9.44995L10.0063 13.6625L17.8375 9.44995L18.4313 10.55L10.3063 14.925C10.2125 14.975 10.1125 15 10.0125 15H10Z" fill="#5552FF"/>
<path d="M10 18.75C9.90005 18.75 9.7938 18.725 9.7063 18.675L1.5813 14.3L2.17505 13.2L10.0063 17.4125L17.8375 13.2L18.4313 14.3L10.3063 18.675C10.2125 18.725 10.1125 18.75 10.0125 18.75H10Z" fill="#5552FF"/>
</g>
<defs>
<clipPath id="clip0_206_436">
<rect width="20" height="20" fill="white"/>
</clipPath>
</defs>
</svg>
