<svg width="14" height="14" viewBox="0 0 14 14" fill="none" xmlns="http://www.w3.org/2000/svg">
<path d="M7 14C3.14 14 0 10.86 0 7C0 3.14 3.14 0 7 0C10.86 0 14 3.14 14 7C14 10.86 10.86 14 7 14ZM7 1C3.69 1 1 3.69 1 7C1 10.31 3.69 13 7 13C10.31 13 13 10.31 13 7C13 3.69 10.31 1 7 1Z" fill="#5552FF"/>
<path d="M10.355 3.64498C10.22 3.50998 10.025 3.46498 9.84498 3.52498L5.34498 5.02498C5.19498 5.07498 5.07998 5.18998 5.02998 5.33998L3.52998 9.83998C3.46998 10.02 3.51498 10.22 3.64998 10.35C3.74498 10.445 3.87498 10.495 4.00498 10.495C4.05998 10.495 4.10998 10.485 4.16498 10.47L8.66498 8.96998C8.81498 8.91998 8.92998 8.80498 8.97998 8.65498L10.48 4.15498C10.54 3.97498 10.495 3.77498 10.36 3.64498H10.355ZM4.78998 9.20998L5.89498 5.89498L8.10498 8.10498L4.78998 9.20998Z" fill="#5552FF"/>
</svg>

