<svg width="16" height="16" viewBox="0 0 16 16" fill="none" xmlns="http://www.w3.org/2000/svg">
<g opacity="0.6" clip-path="url(#clip0_313_9)">
<path d="M8 15C4.14 15 1 11.86 1 8C1 4.14 4.14 1 8 1C11.86 1 15 4.14 15 8C15 11.86 11.86 15 8 15ZM8 2C4.69 2 2 4.69 2 8C2 11.31 4.69 14 8 14C11.31 14 14 11.31 14 8C14 4.69 11.31 2 8 2Z" fill="#DAC3FF"/>
<path d="M11.355 4.64498C11.22 4.50998 11.025 4.46498 10.845 4.52498L6.34498 6.02498C6.19498 6.07498 6.07998 6.18998 6.02998 6.33998L4.52998 10.84C4.46998 11.02 4.51498 11.22 4.64998 11.35C4.74498 11.445 4.87498 11.495 5.00498 11.495C5.05998 11.495 5.10998 11.485 5.16498 11.47L9.66498 9.96998C9.81498 9.91998 9.92998 9.80498 9.97998 9.65498L11.48 5.15498C11.54 4.97498 11.495 4.77498 11.36 4.64498H11.355ZM5.78998 10.21L6.89498 6.89498L9.10498 9.10498L5.78998 10.21Z" fill="#DAC3FF"/>
</g>
<defs>
<clipPath id="clip0_313_9">
<rect width="16" height="16" fill="white"/>
</clipPath>
</defs>
</svg>

