<svg width="16" height="7" viewBox="0 0 16 7" fill="none" xmlns="http://www.w3.org/2000/svg">
<g opacity="0.6">
<path d="M16 3.08H15.4187C15.164 1.49156 13.8501 0.28 12.2667 0.28C11.5432 0.28 10.8773 0.53564 10.3411 0.9618L10.3115 0.93296C9.67698 0.333199 8.85372 0.00091224 8 0C7.14495 0.00110608 6.32053 0.334433 5.6856 0.93576L5.65867 0.9618C5.10521 0.519477 4.42887 0.279969 3.73333 0.28C2.1496 0.28 0.836 1.49156 0.581333 3.08H0V4.2H0.581333C0.836 5.78844 2.14987 7 3.73333 7C5.49893 7 6.93333 5.49556 6.93333 3.64C6.93333 2.7482 6.59947 1.93928 6.05893 1.33756C6.5976 0.83636 7.2856 0.56 8 0.56C8.71573 0.56 9.40507 0.8372 9.94107 1.33728C9.37947 1.95893 9.06648 2.78316 9.06667 3.64C9.06667 5.49556 10.5011 7 12.2667 7C13.8501 7 15.164 5.78844 15.4187 4.2H16V3.08ZM3.73333 5.88C2.55707 5.88 1.6 4.87508 1.6 3.64C1.6 2.40492 2.55707 1.4 3.73333 1.4C4.9096 1.4 5.86667 2.40492 5.86667 3.64C5.86667 4.87508 4.9096 5.88 3.73333 5.88ZM12.2667 5.88C11.0904 5.88 10.1333 4.87508 10.1333 3.64C10.1333 2.40492 11.0904 1.4 12.2667 1.4C13.4429 1.4 14.4 2.40492 14.4 3.64C14.4 4.87508 13.4429 5.88 12.2667 5.88Z" fill="#DAC3FF"/>
</g>
</svg>

