<svg width="16" height="17" viewBox="0 0 16 17" fill="none" xmlns="http://www.w3.org/2000/svg">
<g opacity="0.6">
<path d="M6.86751 8.59864C6.80198 8.59864 6.75767 8.58018 6.73521 8.54325C6.71244 8.50633 6.70136 8.44479 6.70136 8.35864V6.72172C6.70136 6.55372 6.66444 6.41095 6.59059 6.29402C6.51686 6.1771 6.41675 6.0791 6.29828 6.00787C6.17182 5.93194 6.03348 5.87785 5.88905 5.84787C5.7374 5.81504 5.58268 5.79853 5.42751 5.79864C5.2509 5.79864 5.07859 5.81525 4.91059 5.84787C4.75064 5.87749 4.5974 5.93587 4.45828 6.02018C4.32505 6.10233 4.21521 6.21095 4.12905 6.34633C4.0429 6.48172 3.99367 6.65187 3.98136 6.8571H4.6829C4.69921 6.68479 4.77121 6.55772 4.89828 6.47556C5.02536 6.39341 5.18752 6.35249 5.38444 6.35249C5.45428 6.35249 5.52782 6.35772 5.60598 6.36787C5.68382 6.37833 5.75459 6.39864 5.81859 6.42941C5.88228 6.46018 5.93551 6.50418 5.97859 6.56172C6.02167 6.61925 6.04321 6.6931 6.04321 6.78325C6.04321 6.88572 6.01767 6.96264 5.96628 7.01402C5.9149 7.06541 5.84536 7.10325 5.75705 7.12787C5.66875 7.15249 5.56721 7.17002 5.45244 7.18018C5.33767 7.19033 5.21644 7.20787 5.08936 7.23249C4.94167 7.24879 4.7949 7.27249 4.64936 7.30325C4.50382 7.33402 4.37244 7.38418 4.25551 7.45402C4.13859 7.52387 4.04413 7.62018 3.97244 7.74325C3.90044 7.86633 3.86475 8.02633 3.86475 8.22325C3.86475 8.37925 3.89428 8.51556 3.95398 8.63249C4.01336 8.74941 4.09336 8.84572 4.19398 8.92172C4.29459 8.99772 4.41028 9.05525 4.54167 9.09402C4.67305 9.1331 4.81028 9.15249 4.95398 9.15249C5.14259 9.15249 5.33859 9.12172 5.54167 9.06018C5.73431 9.0047 5.91063 8.90334 6.05551 8.76479C6.08413 8.90849 6.14567 9.00879 6.24013 9.06633C6.33459 9.12387 6.45336 9.15249 6.59705 9.15249C6.67356 9.15148 6.74979 9.14324 6.82475 9.12787C6.8974 9.11292 6.96928 9.09443 7.04013 9.07249V8.58633C7.00321 8.59464 6.97028 8.59864 6.94167 8.59864H6.86751ZM5.99982 7.99556C5.99982 8.10633 5.97305 8.19987 5.91982 8.27556C5.86659 8.35156 5.79982 8.41402 5.71982 8.46325C5.64102 8.51192 5.55473 8.54726 5.46444 8.56787C5.37428 8.58849 5.28998 8.59864 5.21213 8.59864C5.15059 8.59864 5.08198 8.59249 5.00598 8.58018C4.93345 8.56896 4.86296 8.54719 4.79675 8.51556C4.73404 8.48557 4.67845 8.44257 4.63367 8.38941C4.58777 8.33426 4.56369 8.2642 4.56598 8.19249C4.56598 8.10233 4.58136 8.02541 4.61213 7.96172C4.6429 7.89802 4.68505 7.84695 4.73828 7.80787C4.79151 7.76879 4.85305 7.73802 4.9229 7.71556C4.99275 7.6931 5.06444 7.67556 5.13828 7.66325C5.29315 7.63478 5.4492 7.61322 5.60598 7.59864C5.76198 7.58449 5.89305 7.54233 5.99982 7.47249V7.99556ZM10.2583 6.29433C10.1335 6.13904 9.97451 6.01476 9.79367 5.93125C9.6069 5.84295 9.38844 5.79895 9.13828 5.79895C8.93305 5.79895 8.74228 5.83895 8.56598 5.91895C8.38967 5.99895 8.25213 6.13125 8.15367 6.31587H8.14136V5.8851H7.47675V10.242H8.17828V8.65433H8.19059C8.24382 8.74049 8.31059 8.81525 8.39059 8.87895C8.47059 8.94233 8.55767 8.99495 8.65213 9.03587C8.74659 9.07679 8.84505 9.10664 8.94752 9.1251C9.04998 9.14356 9.15275 9.15279 9.25521 9.15279C9.48905 9.15279 9.69213 9.10664 9.86444 9.01433C10.0367 8.92202 10.1792 8.79895 10.2921 8.6451C10.4047 8.49125 10.4891 8.31372 10.5444 8.11279C10.6 7.91031 10.628 7.70123 10.6275 7.49125C10.6275 7.25741 10.5967 7.03802 10.5352 6.83279C10.4737 6.62725 10.3814 6.44818 10.2583 6.29433ZM9.87982 7.88787C9.84905 8.02141 9.79767 8.14018 9.72598 8.24479C9.65428 8.34941 9.5629 8.43464 9.45213 8.50018C9.34136 8.56572 9.20598 8.59864 9.04598 8.59864C8.90228 8.59864 8.77613 8.57002 8.66751 8.51249C8.55877 8.4551 8.46336 8.37542 8.38751 8.27864C8.30615 8.1735 8.24653 8.05321 8.21213 7.92479C8.17207 7.7795 8.15239 7.62935 8.15367 7.47864C8.15367 7.13802 8.22844 6.86541 8.37828 6.66018C8.52813 6.45495 8.75059 6.35249 9.04598 6.35249C9.18967 6.35249 9.31675 6.38418 9.42751 6.44787C9.53828 6.51125 9.63059 6.59556 9.70444 6.70018C9.77828 6.80479 9.83367 6.92479 9.87059 7.06018C9.90752 7.19556 9.92598 7.33525 9.92598 7.47864C9.92598 7.61833 9.91059 7.75464 9.87982 7.88787ZM11.2364 4.67249H11.938V5.3371H11.2364V4.67249ZM11.2364 5.88479H11.938V9.06633H11.2364V5.88479Z" fill="#DAC3FF"/>
<path d="M0 0.774414V16.7744H16V0.774414H0ZM0.615385 1.3898H15.3846V13.6975H0.615385V1.3898Z" fill="#DAC3FF"/>
</g>
</svg>

