<svg width="9" height="9" viewBox="0 0 9 9" fill="none" xmlns="http://www.w3.org/2000/svg">
<path d="M8.25 3.75C8.6625 3.75 9 3.4125 9 3V0.75C9 0.3375 8.6625 0 8.25 0H6C5.5875 0 5.25 0.3375 5.25 0.75V3C5.25 3.4125 5.5875 3.75 6 3.75H6.75V5.2875C6.015 5.4375 5.4375 6.015 5.2875 6.75H3.75V6C3.75 5.5875 3.4125 5.25 3 5.25H2.25V3.7125C3.105 3.54 3.75 2.7825 3.75 1.875C3.75 0.84 2.91 0 1.875 0C0.84 0 0 0.84 0 1.875C0 2.7825 0.645 3.54 1.5 3.7125V5.25H0.75C0.3375 5.25 0 5.5875 0 6V8.25C0 8.6625 0.3375 9 0.75 9H3C3.4125 9 3.75 8.6625 3.75 8.25V7.5H5.2875C5.46 8.355 6.2175 9 7.125 9C8.16 9 9 8.16 9 7.125C9 6.2175 8.355 5.46 7.5 5.2875V3.75H8.25ZM0.75 1.875C0.75 1.25625 1.25625 0.75 1.875 0.75C2.49375 0.75 3 1.25625 3 1.875C3 2.49375 2.49375 3 1.875 3C1.25625 3 0.75 2.49375 0.75 1.875ZM3 8.25H0.75V6H3V8.25ZM8.25 7.125C8.25 7.74375 7.74375 8.25 7.125 8.25C6.50625 8.25 6 7.74375 6 7.125C6 6.50625 6.50625 6 7.125 6C7.74375 6 8.25 6.50625 8.25 7.125ZM6 0.75H8.25V3H6V0.75Z" fill="#DAC3FF"/>
</svg>
