<svg width="14" height="14" viewBox="0 0 14 14" fill="none" xmlns="http://www.w3.org/2000/svg">
<path d="M9 7C9 8.38 10.12 9.5 11.5 9.5C12.88 9.5 14 8.38 14 7C14 6.92 13.98 6.845 13.945 6.775L11.945 2.775C11.945 2.775 11.93 2.745 11.92 2.735C11.83 2.59 11.67 2.5 11.495 2.5H8.405C8.255 2.08 7.92 1.745 7.495 1.59V0H6.495V1.59C6.07 1.74 5.735 2.075 5.585 2.5H2.495C2.305 2.5 2.13 2.605 2.05 2.775L0.0549999 6.775C0.0199999 6.845 0 6.92 0 7C0 8.38 1.12 9.5 2.5 9.5C3.88 9.5 5 8.38 5 7C5 6.92 4.98 6.845 4.945 6.775L3.305 3.5H5.585C5.735 3.92 6.07 4.255 6.495 4.41V13H2V14H12V13H7.5V4.41C7.925 4.26 8.26 3.925 8.41 3.5H10.69L9.05 6.775C9.015 6.845 8.995 6.92 8.995 7H9ZM2.5 8.5C1.85 8.5 1.3 8.08 1.09 7.5H3.905C3.7 8.08 3.15 8.5 2.495 8.5H2.5ZM3.69 6.5H1.31L2.5 4.12L3.69 6.5ZM7 3.5C6.725 3.5 6.5 3.275 6.5 3C6.5 2.725 6.725 2.5 7 2.5C7.275 2.5 7.5 2.725 7.5 3C7.5 3.275 7.275 3.5 7 3.5ZM11.5 8.5C10.85 8.5 10.3 8.08 10.09 7.5H12.905C12.7 8.08 12.15 8.5 11.495 8.5H11.5ZM11.5 4.12L12.69 6.5H10.31L11.5 4.12Z" fill="#5552FF"/>
</svg>

