<svg width="12" height="15" viewBox="0 0 12 15" fill="none" xmlns="http://www.w3.org/2000/svg">
<path d="M10.695 12C10.885 11.525 11 11.02 11 10.5C11 9.45 10.58 8.455 9.86 7.715C9.945 7.49 10 7.25 10 7C10 6.405 9.735 5.875 9.32 5.51L10.71 4.12C11.1 3.73 11.1 3.095 10.71 2.705L9.295 1.29C8.905 0.899998 8.27 0.899998 7.88 1.29L1.295 7.88C0.905 8.27 0.905 8.905 1.295 9.295L2.71 10.71C2.905 10.905 3.16 11 3.415 11C3.67 11 3.925 10.9 4.12 10.71L6.505 8.32C6.87 8.735 7.4 9 7.995 9C8.48 9 8.915 8.82 9.26 8.535C9.73 9.075 9.995 9.77 9.995 10.5C9.995 11.035 9.85 11.545 9.585 12H5.995V14H0V15H12V12H10.695ZM3.41 10L1.995 8.585L2.935 7.645L4.35 9.06L3.41 10ZM5.995 7C5.995 7.13 6.01 7.255 6.035 7.375L5.055 8.35L3.64 6.935L8.585 2L10 3.415L8.375 5.04C8.255 5.015 8.13 5 8 5C6.895 5 6 5.895 6 7H5.995ZM7.995 8C7.445 8 6.995 7.55 6.995 7C6.995 6.45 7.445 6 7.995 6C8.545 6 8.995 6.45 8.995 7C8.995 7.55 8.545 8 7.995 8ZM10.995 14H6.995V13H10.995V14Z" fill="#5552FF"/>
</svg>

