<svg width="16" height="16" viewBox="0 0 16 16" fill="none" xmlns="http://www.w3.org/2000/svg">
<g opacity="0.6" clip-path="url(#clip0_316_25)">
<path d="M10 8C10 9.38 11.12 10.5 12.5 10.5C13.88 10.5 15 9.38 15 8C15 7.92 14.98 7.845 14.945 7.775L12.945 3.775C12.945 3.775 12.93 3.745 12.92 3.735C12.83 3.59 12.67 3.5 12.495 3.5H9.405C9.255 3.08 8.92 2.745 8.495 2.59V1H7.495V2.59C7.07 2.74 6.735 3.075 6.585 3.5H3.495C3.305 3.5 3.13 3.605 3.05 3.775L1.055 7.775C1.02 7.845 1 7.92 1 8C1 9.38 2.12 10.5 3.5 10.5C4.88 10.5 6 9.38 6 8C6 7.92 5.98 7.845 5.945 7.775L4.305 4.5H6.585C6.735 4.92 7.07 5.255 7.495 5.41V14H3V15H13V14H8.5V5.41C8.925 5.26 9.26 4.925 9.41 4.5H11.69L10.05 7.775C10.015 7.845 9.995 7.92 9.995 8H10ZM3.5 9.5C2.85 9.5 2.3 9.08 2.09 8.5H4.905C4.7 9.08 4.15 9.5 3.495 9.5H3.5ZM4.69 7.5H2.31L3.5 5.12L4.69 7.5ZM8 4.5C7.725 4.5 7.5 4.275 7.5 4C7.5 3.725 7.725 3.5 8 3.5C8.275 3.5 8.5 3.725 8.5 4C8.5 4.275 8.275 4.5 8 4.5ZM12.5 9.5C11.85 9.5 11.3 9.08 11.09 8.5H13.905C13.7 9.08 13.15 9.5 12.495 9.5H12.5ZM12.5 5.12L13.69 7.5H11.31L12.5 5.12Z" fill="#DAC3FF"/>
</g>
<defs>
<clipPath id="clip0_316_25">
<rect width="16" height="16" fill="white"/>
</clipPath>
</defs>
</svg>
