<?xml version="1.0" encoding="UTF-8"?>
<svg xmlns="http://www.w3.org/2000/svg" xmlns:xlink="http://www.w3.org/1999/xlink" width="12px" height="14px" viewBox="0 0 12 13" version="1.1">
<g id="surface1">
<path style=" stroke:none;fill-rule:nonzero;fill:rgb(33.333333%,32.156863%,100%);fill-opacity:1;" d="M 3.820312 10.035156 L 8.554688 10.035156 L 8.554688 10.9375 L 3.820312 10.9375 Z M 3.820312 10.035156 "/>
<path style=" stroke:none;fill-rule:nonzero;fill:rgb(33.333333%,32.156863%,100%);fill-opacity:1;" d="M 4.765625 11.839844 L 7.609375 11.839844 L 7.609375 12.742188 L 4.765625 12.742188 Z M 4.765625 11.839844 "/>
<path style=" stroke:none;fill-rule:nonzero;fill:rgb(33.333333%,32.156863%,100%);fill-opacity:1;" d="M 6.1875 0.117188 C 3.574219 0.117188 1.453125 2.136719 1.453125 4.625 C 1.386719 5.953125 1.996094 7.234375 3.089844 8.0625 C 3.566406 8.480469 3.820312 8.71875 3.820312 9.132812 L 4.765625 9.132812 C 4.765625 8.304688 4.242188 7.839844 3.730469 7.394531 C 2.832031 6.738281 2.332031 5.699219 2.398438 4.625 C 2.398438 2.632812 4.097656 1.019531 6.1875 1.019531 C 8.277344 1.019531 9.976562 2.632812 9.976562 4.625 C 10.039062 5.703125 9.539062 6.738281 8.640625 7.394531 C 8.132812 7.84375 7.609375 8.296875 7.609375 9.132812 L 8.554688 9.132812 C 8.554688 8.71875 8.804688 8.480469 9.285156 8.054688 C 10.375 7.230469 10.984375 5.953125 10.921875 4.625 C 10.921875 2.136719 8.800781 0.117188 6.1875 0.117188 Z M 6.1875 0.117188 "/>
</g>
</svg>
