<svg width="17" height="16" viewBox="0 0 17 16" fill="none" xmlns="http://www.w3.org/2000/svg">
<g opacity="0.6">
<path d="M16.2256 3.64833L12.6132 0L9.0009 3.64833L9.76247 4.41749L12.0747 2.08227V9.4725C12.0747 12.4719 9.65852 14.9121 6.68872 14.9121C3.71892 14.9121 1.3028 12.4719 1.3028 9.4725C1.30086 8.75787 1.43929 8.04996 1.71007 7.38973C1.98086 6.72951 2.37862 6.13008 2.88033 5.62616L2.11876 4.85701C1.51668 5.46167 1.03934 6.18095 0.71438 6.97321C0.389417 7.76546 0.223288 8.61495 0.22561 9.4725C0.22561 13.0719 3.12486 16 6.68872 16C10.2526 16 13.1518 13.0719 13.1518 9.4725V2.08227L15.464 4.41749L16.2256 3.64833Z" fill="#DAC3FF"/>
<path d="M6.68878 11.1045C7.58115 11.1045 8.30455 10.3738 8.30455 9.47257C8.30455 8.57131 7.58115 7.8407 6.68878 7.8407C5.79641 7.8407 5.073 8.57131 5.073 9.47257C5.073 10.3738 5.79641 11.1045 6.68878 11.1045Z" fill="#DAC3FF"/>
</g>
</svg>

