<svg width="12" height="13" viewBox="0 0 12 13" fill="none" xmlns="http://www.w3.org/2000/svg">
<path d="M4 4.85714H9.25C9.6625 4.85714 10 4.53571 10 4.14286V2.71429C10 2.32143 9.6625 2 9.25 2H4C3.5875 2 3.25 2.32143 3.25 2.71429V3.07143H1.75V2H1V10.2143C1 10.6071 1.3375 10.9286 1.75 10.9286H3.25V11.2857C3.25 11.6786 3.5875 12 4 12H9.25C9.6625 12 10 11.6786 10 11.2857V9.85714C10 9.46429 9.6625 9.14286 9.25 9.14286H4C3.5875 9.14286 3.25 9.46429 3.25 9.85714V10.2143H1.75V7.35714H3.25V7.71429C3.25 8.10714 3.5875 8.42857 4 8.42857H9.25C9.6625 8.42857 10 8.10714 10 7.71429V6.28571C10 5.89286 9.6625 5.57143 9.25 5.57143H4C3.5875 5.57143 3.25 5.89286 3.25 6.28571V6.64286H1.75V3.78571H3.25V4.14286C3.25 4.53571 3.5875 4.85714 4 4.85714ZM4 2.71429H9.25V4.14286H4V2.71429ZM4 9.85714H9.25V11.2857H4V9.85714ZM4 6.28571H9.25V7.71429H4V6.28571Z" fill="#5552FF"/>
</svg>
