<svg width="16" height="7" viewBox="0 0 16 7" fill="none" xmlns="http://www.w3.org/2000/svg">
<path d="M16 2.93333H15.4187C15.164 1.42053 13.8501 0.266667 12.2667 0.266667C11.5432 0.266667 10.8773 0.510133 10.3411 0.916L10.3115 0.888534C9.67698 0.317332 8.85372 0.0008688 8 0C7.14495 0.00105341 6.32053 0.318508 5.6856 0.8912L5.65867 0.916C5.10521 0.49474 4.42887 0.266637 3.73333 0.266667C2.1496 0.266667 0.836 1.42053 0.581333 2.93333H0V4H0.581333C0.836 5.5128 2.14987 6.66667 3.73333 6.66667C5.49893 6.66667 6.93333 5.23387 6.93333 3.46667C6.93333 2.61733 6.59947 1.84693 6.05893 1.27387C6.5976 0.796534 7.2856 0.533333 8 0.533333C8.71573 0.533333 9.40507 0.797333 9.94107 1.2736C9.37947 1.86564 9.06648 2.65063 9.06667 3.46667C9.06667 5.23387 10.5011 6.66667 12.2667 6.66667C13.8501 6.66667 15.164 5.5128 15.4187 4H16V2.93333ZM3.73333 5.6C2.55707 5.6 1.6 4.64293 1.6 3.46667C1.6 2.2904 2.55707 1.33333 3.73333 1.33333C4.9096 1.33333 5.86667 2.2904 5.86667 3.46667C5.86667 4.64293 4.9096 5.6 3.73333 5.6ZM12.2667 5.6C11.0904 5.6 10.1333 4.64293 10.1333 3.46667C10.1333 2.2904 11.0904 1.33333 12.2667 1.33333C13.4429 1.33333 14.4 2.2904 14.4 3.46667C14.4 4.64293 13.4429 5.6 12.2667 5.6Z" fill="#5552FF"/>
</svg>
