<svg width="12" height="16" viewBox="0 0 12 16" fill="none" xmlns="http://www.w3.org/2000/svg">
<g clip-path="url(#clip0_406_56)">
<path d="M2.625 14C2.5575 14 2.49375 13.975 2.43375 13.93C2.32125 13.84 2.25 13.675 2.25 13.5V2.50001C2.25 2.32501 2.32125 2.16001 2.43375 2.07001C2.54625 1.98001 2.68875 1.97501 2.805 2.06001L10.305 7.56001C10.425 7.65001 10.5 7.81501 10.5 8.00001C10.5 8.18501 10.425 8.35001 10.305 8.44001L2.805 13.94C2.74875 13.98 2.685 14 2.625 14ZM3 3.34501V12.655L9.345 8.00001L3 3.34501Z" fill="black"/>
</g>
<defs>
<clipPath id="clip0_406_56">
<rect width="12" height="16" fill="white"/>
</clipPath>
</defs>
</svg>

