<svg width="64" height="36" viewBox="0 0 34 29" fill="none" xmlns="http://www.w3.org/2000/svg">
<g clip-path="url(#clip0_934_1873)">
<g clip-path="url(#clip1_934_1873)">
<path d="M15.5298 23.6125C19.8424 22.8506 23.4044 22.2202 23.4453 22.2115L23.5197 22.1958L19.4482 17.3528C17.2088 14.6891 15.3766 12.4994 15.3766 12.4868C15.3766 12.4629 19.5808 0.885346 19.6045 0.844157C19.6124 0.830386 22.4735 5.77002 26.54 12.8182C30.3471 19.4167 33.4859 24.8573 33.5151 24.9083L33.5681 25.001L20.6284 24.9993L7.68861 24.9976L15.5298 23.6125ZM65.1523 22.4412C63.1826 22.3149 62.037 21.1934 61.7335 19.094C61.6527 18.5355 61.6524 18.521 61.6441 14.8955L61.6361 11.3866H62.5079H63.3796L63.3865 14.7806C63.3927 17.8396 63.3965 18.1982 63.4258 18.4134C63.5445 19.2867 63.7808 19.874 64.183 20.2956C64.505 20.6329 64.8819 20.8305 65.4036 20.9353C65.6498 20.9847 66.35 20.9848 66.5744 20.9355C67.1033 20.8191 67.5273 20.5889 67.9012 20.2151C68.3275 19.789 68.6428 19.1844 68.7954 18.5008L68.8468 18.2704L68.8526 14.8477L68.8583 11.4249H69.7483H70.6383V16.8056V22.1862H69.7574H68.8766V21.3325C68.8766 20.7525 68.8703 20.481 68.8568 20.4855C68.8459 20.4891 68.8007 20.5583 68.7563 20.6393C68.4527 21.1928 67.947 21.6991 67.3929 22.004C66.7286 22.3696 66.0625 22.4996 65.1523 22.4412ZM85.1448 22.4325C84.4495 22.3803 83.7174 22.1412 83.119 21.7711C81.8578 20.9909 81.1115 19.705 80.893 17.9353C80.8174 17.3229 80.8083 16.5003 80.8714 15.98C81.0124 14.8173 81.4693 13.6759 82.1199 12.861C82.2867 12.6521 82.6651 12.2738 82.8739 12.107C83.438 11.6566 84.0978 11.3417 84.7983 11.1884C85.2065 11.0991 85.9253 11.0572 86.3589 11.0974C87.4483 11.1984 88.4467 11.7113 89.1253 12.5185C89.8147 13.3387 90.1936 14.4848 90.242 15.896C90.2496 16.1172 90.2514 16.5049 90.2461 16.7577L90.2364 17.2172L86.4211 17.2221L82.6059 17.2269V17.3972C82.6059 17.9155 82.7319 18.5058 82.9497 19.008C83.1376 19.4412 83.4609 19.9141 83.7257 20.143C84.2686 20.6123 84.933 20.8932 85.66 20.9608C85.9296 20.9859 86.6166 20.9595 86.9238 20.9123C87.8002 20.7776 88.6335 20.4338 89.3064 19.9293C89.3856 19.87 89.4614 19.8145 89.4748 19.8061C89.4944 19.7937 89.4991 19.9488 89.4986 20.6007L89.498 21.4107L89.3177 21.5222C88.5564 21.993 87.6844 22.2953 86.761 22.4085C86.4855 22.4423 85.4743 22.4573 85.1448 22.4325ZM88.4652 15.6012C88.4652 14.7331 88.0993 13.7686 87.5816 13.272C87.2121 12.9176 86.7654 12.701 86.2344 12.6187C85.9832 12.5798 85.4538 12.5948 85.1889 12.6483C84.629 12.7615 84.1659 13.0076 83.762 13.4067C83.3369 13.8268 83.0181 14.337 82.8177 14.9183C82.7456 15.1274 82.6613 15.4706 82.6351 15.6614L82.6227 15.7524H85.5439H88.4652V15.6012ZM36.7117 22.1623C36.7162 22.1491 38.0117 18.7455 39.5908 14.5988L42.4617 7.05925L43.3841 7.05919L44.3066 7.05913L44.3831 7.2554C44.617 7.85519 50.1306 22.1698 50.1306 22.1773C50.1306 22.1822 49.6889 22.1861 49.1492 22.1861L48.1679 22.1858L47.3732 20.0702L46.5786 17.9545L43.3789 17.9544L40.1793 17.9544L40.1515 18.0262C40.1362 18.0657 39.7967 19.0177 39.397 20.1417L38.6704 22.1855L37.687 22.1858C36.9086 22.1861 36.7053 22.1812 36.7117 22.1623ZM45.9945 16.3399C45.9945 16.3365 45.4598 14.8868 44.8062 13.1182C43.5834 9.80952 43.515 9.61044 43.4184 9.07925C43.3731 8.83017 43.3501 8.82325 43.3233 9.05053C43.304 9.21299 43.2207 9.57652 43.1564 9.77816C43.1246 9.87821 42.5739 11.3895 41.9328 13.1367C41.2916 14.8838 40.7671 16.3206 40.7671 16.3296C40.7671 16.3386 41.9433 16.346 43.3808 16.346C44.8184 16.346 45.9945 16.3433 45.9945 16.3399ZM50.7241 21.9106V21.6351L53.9119 17.2528L57.0998 12.8706L54.2135 12.861L51.3273 12.8514L51.3223 12.119L51.3173 11.3866H55.4918H59.6663V11.634V11.8814L56.4782 16.2875C54.7247 18.7109 53.29 20.6977 53.29 20.7027C53.29 20.7077 54.7074 20.7118 56.4399 20.7118H59.5898V21.449V22.1862H55.1569H50.7241V21.9106ZM74.1168 22.1734C74.1098 22.1664 74.1041 19.7365 74.1041 16.7736V11.3866H74.9753H75.8465V12.4972C75.8465 13.108 75.854 13.6078 75.8631 13.6078C75.8721 13.6078 75.9146 13.5078 75.9573 13.3856C76.1532 12.8256 76.4929 12.3024 76.9305 11.8865C77.3248 11.5119 77.7754 11.2878 78.3071 11.2021C78.4565 11.178 78.5828 11.1734 78.8815 11.1812C79.2567 11.191 79.4528 11.2184 79.681 11.293L79.7528 11.3164V12.2208V13.1251L79.5469 13.0221C79.1833 12.8401 78.8246 12.768 78.3933 12.7905C78.1126 12.8051 77.9283 12.8411 77.7039 12.9253C77.2422 13.0986 76.8677 13.4045 76.606 13.822C76.2272 14.4264 75.957 15.2033 75.8773 15.9173C75.863 16.0455 75.8545 17.0891 75.8512 19.1464L75.8462 22.1862H74.9879C74.5158 22.1862 74.1239 22.1804 74.1168 22.1734ZM0.000610352 22.1356C0.000610352 22.1288 1.91911 18.7984 4.26395 14.7348L8.52729 7.34634L13.4957 3.17682C16.2283 0.883584 18.4715 -0.995502 18.4805 -0.998929C18.4895 -1.00236 18.4535 -0.911881 18.4006 -0.797873C18.3477 -0.683866 15.9199 4.52342 13.0056 10.7739L7.70682 22.1383L3.85372 22.1432C1.73451 22.1458 0.000610352 22.1424 0.000610352 22.1356Z" fill="#CBCBD7"/>
</g>
</g>
<defs>
<clipPath id="clip0_934_1873">
<rect width="34" height="29" fill="white"/>
</clipPath>
<clipPath id="clip1_934_1873">
<rect width="90.2486" height="26" fill="white"/>
</clipPath>
</defs>
</svg>
