<svg width="25" height="26" viewBox="0 0 25 26" fill="none" xmlns="http://www.w3.org/2000/svg">
<ellipse cx="12.5" cy="13" rx="12.5" ry="13" fill="#FFBF00"/>
<path d="M19.3196 10.8319C19.231 10.3284 19.0785 9.85157 18.8718 9.41228C18.1976 7.9605 16.933 6.89443 15.4124 6.57836C15.1172 6.51943 14.8121 6.48729 14.5168 6.48193H14.4824C14.0395 6.48193 13.6015 6.54622 13.1882 6.67479C11.4364 7.19443 10.0142 8.75871 9.64518 10.8319C7.89335 11.1748 6.61393 12.8355 6.60901 14.7748C6.60901 15.2462 6.68282 15.7016 6.83045 16.1248C6.94855 16.5105 7.13062 16.8748 7.35698 17.1962C8.02622 18.1712 9.09404 18.798 10.2997 18.8033H18.67C18.7389 18.8033 18.8078 18.8033 18.8718 18.7926C20.5695 18.6908 21.9916 17.3355 22.2967 15.498C22.3361 15.2569 22.3558 15.0158 22.3558 14.7801C22.3558 12.873 21.1059 11.1801 19.3196 10.8319ZM21.3273 15.3105C21.1059 16.6337 20.0922 17.6194 18.8718 17.7212C18.8078 17.7265 18.7389 17.7319 18.67 17.7319H10.2997C9.71899 17.7319 9.18262 17.5337 8.74466 17.1962C8.38544 16.9176 8.09511 16.5533 7.89827 16.1248C7.70144 15.7176 7.59318 15.2623 7.59318 14.7801C7.5981 13.3551 8.53306 12.1391 9.82233 11.8819L10.4866 11.7533L10.6146 11.0301C10.9443 9.1605 12.3763 7.76229 14.0887 7.57479C14.2167 7.55872 14.3495 7.55336 14.4824 7.55336C14.7333 7.55336 14.9794 7.58014 15.2304 7.63372C15.2599 7.63907 15.2845 7.64443 15.314 7.65514C16.8641 8.01407 18.0549 9.33193 18.3551 11.0301L18.3797 11.1801L18.3846 11.1855L18.483 11.7533L18.6454 11.7855L18.8718 11.8283L19.1474 11.8819C19.856 12.0266 20.476 12.4551 20.8893 13.1033C21.3027 13.7516 21.4602 14.5337 21.3273 15.3105Z" fill="#1C1C46"/>
<path d="M18.3846 11.1857L18.483 11.7536L18.6454 11.7857C18.5716 11.5768 18.4879 11.3786 18.3846 11.1857ZM11.9284 4.97143C11.6135 4.90714 11.3084 4.875 10.9984 4.875C9.13829 4.875 7.43567 6.02678 6.60897 7.81071C6.40229 8.24463 6.24975 8.72142 6.16117 9.22499C4.40442 9.56784 3.12992 11.2286 3.125 13.1678V13.1785C3.125 15.316 4.66523 17.0732 6.60897 17.1857C6.67786 17.1964 6.74183 17.1964 6.81072 17.1964H8.74462C8.3854 16.9178 8.09507 16.5535 7.89823 16.125H6.81564C6.74675 16.125 6.67786 16.1196 6.60897 16.1143C5.20652 15.9964 4.10425 14.7214 4.10917 13.1732C4.11409 11.7482 5.04906 10.5321 6.33832 10.275L6.60897 10.2214L6.99772 10.1464L7.12566 9.4232C7.48488 7.40892 9.11368 5.94643 10.9984 5.94643C11.2493 5.94643 11.4954 5.97321 11.7414 6.02678C12.2729 6.13928 12.76 6.35892 13.1882 6.67499C13.5326 6.91607 13.8377 7.22678 14.0887 7.57499C14.2166 7.55892 14.3495 7.55356 14.4823 7.55356C14.7333 7.55356 14.9793 7.58035 15.2303 7.63392C15.2598 7.63928 15.2844 7.64463 15.314 7.65535C15.0974 7.22678 14.8268 6.83035 14.5168 6.48214C13.8279 5.72143 12.9323 5.18036 11.9284 4.97143Z" fill="#1C1C46"/>
</svg>
