<svg width="64" height="36" viewBox="0 0 32 25" fill="none" xmlns="http://www.w3.org/2000/svg">
<path d="M19.8556 6.81823H20.7937L23.4679 4.1441L23.599 3.00833C18.6219 -1.38515 11.0262 -0.910526 6.63269 4.06654C5.41198 5.44793 4.52737 7.0934 4.04352 8.8737C4.34085 8.75181 4.67142 8.7315 4.98168 8.81829L10.3299 7.93553C10.3299 7.93553 10.6014 7.48492 10.7436 7.51262C13.1222 4.89943 17.126 4.59472 19.874 6.81823H19.8556Z" fill="#CBCBD7"/>
<path d="M27.2776 8.87332C26.6626 6.60918 25.4013 4.57403 23.6469 3.01904L19.8942 6.77169C21.4788 8.06628 22.3818 10.0183 22.3431 12.0646V12.7312C24.188 12.7312 25.6839 14.2271 25.6839 16.0721C25.6839 17.917 24.188 19.4129 22.3431 19.4129H15.6614L14.9948 20.0888V24.0963L15.6614 24.763H22.3431C27.141 24.7999 31.0617 20.9402 31.0986 16.1422C31.1208 13.228 29.6858 10.5022 27.2776 8.87332Z" fill="#CBCBD7"/>
<path d="M8.97072 24.7216H15.6523V19.3733H8.97072C8.49425 19.3733 8.02517 19.2699 7.59118 19.0723L6.65302 19.3641L3.96043 22.0382L3.72589 22.9764C5.2347 24.1177 7.07778 24.7308 8.97072 24.7216Z" fill="#CBCBD7"/>
<path d="M8.97081 7.37165C4.17105 7.39936 0.305759 11.3127 0.333461 16.1124C0.350082 18.7921 1.60035 21.3148 3.72598 22.9474L7.6005 19.0728C5.91994 18.3138 5.172 16.3341 5.93102 14.6535C6.69005 12.9729 8.66978 12.225 10.3503 12.984C11.0909 13.3183 11.6837 13.9129 12.0198 14.6535L15.8944 10.779C14.247 8.62192 11.6837 7.36057 8.97081 7.37165Z" fill="#CBCBD7"/>
</svg>
