<svg width="72" height="26" viewBox="0 0 72 26" fill="none" xmlns="http://www.w3.org/2000/svg">
<g clip-path="url(#clip0_218_5223)">
<path d="M6.13845 11.6099L11.7997 8.35286C11.8557 8.32055 11.8901 8.2613 11.8901 8.19667L11.8908 6.24364C11.8908 5.95483 11.772 5.66803 11.5404 5.49367C11.2413 5.26814 10.8571 5.24592 10.5412 5.42769L2.62222 9.98342C2.34406 10.1436 2.17189 10.4399 2.17189 10.7603L2.16919 21.0499C2.16919 21.3387 2.28802 21.6248 2.51892 21.7999C2.81802 22.0261 3.20286 22.0483 3.51883 21.8665L5.19593 20.9018C5.25197 20.8695 5.2864 20.8102 5.2864 20.7456L5.28842 13.0769C5.28842 12.4717 5.6125 11.9122 6.13845 11.6099Z" fill="white"/>
<path d="M19.7092 10.1336C19.568 10.0521 19.4134 10.0117 19.2588 10.0117C19.1042 10.0117 18.9496 10.0521 18.8092 10.1336L10.8902 14.69C10.6127 14.8495 10.4399 15.1471 10.4399 15.4669L10.4372 25.7955C10.4372 26.12 10.6053 26.4108 10.8869 26.5731C11.1684 26.7353 11.5053 26.7353 11.7868 26.5731L19.7058 22.0167C19.9833 21.8571 20.1561 21.5596 20.1561 21.2398L20.1595 10.9111C20.1588 10.586 19.9907 10.2958 19.7092 10.1336Z" fill="white"/>
<path d="M10.4905 13.9977L15.7162 10.9911C15.7723 10.9588 15.8067 10.8995 15.8067 10.8349L15.8074 8.56005C15.8074 8.27056 15.6879 7.98444 15.457 7.81007C15.1579 7.58454 14.7737 7.56233 14.4577 7.7441L12.2898 8.99159L6.53811 12.3005C6.25995 12.4607 6.08778 12.7569 6.08778 13.0774L6.08576 20.8498L6.08508 23.367C6.08508 23.6558 6.20391 23.9426 6.43482 24.117C6.73391 24.3432 7.11875 24.3654 7.43473 24.1836L9.5473 22.9684C9.60334 22.9361 9.63777 22.8769 9.63777 22.8123L9.6398 15.466C9.6398 14.8601 9.96387 14.3007 10.4905 13.9977Z" fill="white"/>
<path d="M26.0408 18.1114V14.985C26.0408 12.3021 27.6294 10.4649 30.0235 10.4649C31.7391 10.4649 32.8835 11.3522 33.3494 12.1756V6.51442C33.3494 6.36631 33.4344 6.23975 33.6248 6.23975H35.7009C35.8704 6.23975 35.9764 6.36631 35.9764 6.51442V22.0612C35.9764 22.2302 35.8704 22.3359 35.68 22.3359H33.7099C33.5404 22.3359 33.4344 22.2302 33.4344 22.0612V20.8784C32.947 21.7024 31.7816 22.5682 30.1295 22.5682C27.6085 22.5682 26.0408 20.7936 26.0408 18.1114ZM33.3487 17.731V15.3653C33.3487 13.7179 32.2684 12.7673 30.9336 12.7673C29.451 12.7673 28.6671 13.7388 28.6671 15.3653V17.731C28.6671 19.3784 29.451 20.2657 30.9336 20.2657C32.2691 20.2657 33.3487 19.3784 33.3487 17.731Z" fill="white"/>
<path d="M47.4569 14.2878V22.04C47.4569 22.2305 47.3509 22.3355 47.1598 22.3355H45.2957C45.1053 22.3355 44.9993 22.2298 44.9993 22.04V20.6673C44.2789 21.8293 43.0926 22.5685 41.6518 22.5685C39.4488 22.5685 38.0505 21.1318 38.0505 19.0408C38.0505 16.9282 39.4488 15.7029 42.4992 15.4922C43.3256 15.4289 44.1094 15.4289 44.8933 15.4713V14.3942C44.8933 13.0847 44.1729 12.5562 42.9657 12.5562C41.7578 12.5562 41.3129 12.9999 41.0165 13.8239C40.9321 14.0562 40.847 14.0986 40.6141 14.0353L38.7716 13.5708C38.5805 13.5075 38.5171 13.4018 38.5805 13.2328C38.9195 11.5855 40.4237 10.4443 43.0717 10.4443C45.8047 10.443 47.4569 11.7315 47.4569 14.2878ZM44.894 18.5756V17.1389C44.1526 17.118 43.4322 17.118 42.7118 17.1813C41.3352 17.3294 40.5507 17.7939 40.5507 18.892C40.5507 19.8426 41.2076 20.4552 42.3304 20.4552C43.5166 20.4552 44.4274 19.7584 44.894 18.5756Z" fill="white"/>
<path d="M58.5146 13.1895C58.578 13.3793 58.5146 13.5274 58.3026 13.5907L56.7558 14.14C56.5229 14.2033 56.4169 14.14 56.3534 13.9287C56.0145 12.9781 55.2515 12.5135 54.1078 12.5135C52.9216 12.5135 52.2221 12.9996 52.2221 13.7597C52.2221 14.478 52.7089 14.7736 54.9551 15.4071C57.6031 16.1463 58.6624 17.1817 58.6624 19.0189C58.6624 21.1739 56.8834 22.589 54.1503 22.589C51.6928 22.589 49.913 21.5752 49.3628 19.8429C49.2777 19.6107 49.3628 19.4841 49.6167 19.3784L50.9933 18.7025C51.2472 18.6183 51.3748 18.6601 51.4592 18.9563C51.7765 19.9278 52.7723 20.5195 54.0646 20.5195C55.3778 20.5195 56.1407 20.0126 56.1407 19.1886C56.1407 18.4278 55.5054 18.0266 53.3017 17.4139C50.7597 16.6956 49.7004 15.7033 49.7004 13.9287C49.7004 11.8376 51.4166 10.4434 54.0221 10.4434C56.3115 10.4434 57.9636 11.4572 58.5146 13.1895Z" fill="white"/>
<path d="M70.2502 22.3358H68.0256C67.8136 22.3358 67.7292 22.2516 67.6448 22.082L64.9968 17.2233L63.4075 19.0821V22.0396C63.4075 22.2301 63.3015 22.3351 63.1111 22.3351H61.0775C60.8871 22.3351 60.7811 22.2294 60.7811 22.0396V6.5143C60.7811 6.34532 60.8871 6.21875 61.0775 6.21875H63.1111C63.3015 6.21875 63.4075 6.34532 63.4075 6.5143V15.8721L67.3903 10.9717C67.5813 10.7603 67.7292 10.6762 67.9837 10.6762H70.1233C70.3778 10.6762 70.4413 10.93 70.3144 11.0774L66.7549 15.1962L70.4622 21.9345C70.5885 22.1459 70.4616 22.3358 70.2502 22.3358Z" fill="white"/>
</g>
<defs>
<clipPath id="clip0_218_5223">
<rect width="71.2759" height="26" fill="white" transform="translate(0.702759)"/>
</clipPath>
</defs>
</svg>
