<svg width="167" height="26" viewBox="0 0 167 26" fill="none" xmlns="http://www.w3.org/2000/svg">
<path d="M19.8556 6.81823H20.7937L23.4679 4.1441L23.599 3.00833C18.6219 -1.38515 11.0262 -0.910526 6.63269 4.06654C5.41198 5.44793 4.52737 7.0934 4.04352 8.8737C4.34085 8.75181 4.67142 8.7315 4.98168 8.81829L10.3299 7.93553C10.3299 7.93553 10.6014 7.48492 10.7436 7.51262C13.1222 4.89943 17.126 4.59472 19.874 6.81823H19.8556Z" fill="#CBCBD7"/>
<path d="M27.2776 8.87332C26.6626 6.60918 25.4013 4.57403 23.6469 3.01904L19.8942 6.77169C21.4788 8.06628 22.3818 10.0183 22.3431 12.0646V12.7312C24.188 12.7312 25.6839 14.2271 25.6839 16.0721C25.6839 17.917 24.188 19.4129 22.3431 19.4129H15.6614L14.9948 20.0888V24.0963L15.6614 24.763H22.3431C27.141 24.7999 31.0617 20.9402 31.0986 16.1422C31.1208 13.228 29.6858 10.5022 27.2776 8.87332Z" fill="#CBCBD7"/>
<path d="M8.97072 24.7216H15.6523V19.3733H8.97072C8.49425 19.3733 8.02517 19.2699 7.59118 19.0723L6.65302 19.3641L3.96043 22.0382L3.72589 22.9764C5.2347 24.1177 7.07778 24.7308 8.97072 24.7216Z" fill="#CBCBD7"/>
<path d="M8.97081 7.37165C4.17105 7.39936 0.305759 11.3127 0.333461 16.1124C0.350082 18.7921 1.60035 21.3148 3.72598 22.9474L7.6005 19.0728C5.91994 18.3138 5.172 16.3341 5.93102 14.6535C6.69005 12.9729 8.66978 12.225 10.3503 12.984C11.0909 13.3183 11.6837 13.9129 12.0198 14.6535L15.8944 10.779C14.247 8.62192 11.6837 7.36057 8.97081 7.37165Z" fill="#CBCBD7"/>
<path d="M48.8879 20.9859C46.5628 21.0154 44.3282 20.0976 42.6956 18.4429C41.0095 16.8583 40.0677 14.6385 40.0972 12.3245C40.0695 10.0105 41.0114 7.79251 42.6956 6.20613C44.3208 4.53479 46.5572 3.59848 48.8879 3.61695C51.1077 3.5874 53.2481 4.44984 54.8271 6.01037L53.1576 7.7094C52.0144 6.60318 50.4779 5.99744 48.8879 6.0196C47.2202 5.99929 45.6191 6.68075 44.4778 7.89593C43.2921 9.07232 42.6384 10.6827 42.6661 12.3522C42.6513 14.0032 43.3051 15.5896 44.4778 16.7531C46.8933 19.1613 50.7882 19.2074 53.261 16.8565C53.9979 16.0513 54.4485 15.0245 54.5464 13.9386H48.9156V11.5378H56.8825C56.9601 12.0216 56.9915 12.511 56.9767 13.0023C57.0764 15.0503 56.334 17.0504 54.9213 18.5389C53.3497 20.1733 51.1557 21.0634 48.8879 20.9859ZM67.411 19.3903C65.1893 21.5196 61.6841 21.5196 59.4625 19.3903C58.3858 18.3468 57.7985 16.9008 57.8392 15.4031C57.7985 13.9053 58.3876 12.4593 59.4625 11.4159C61.686 9.29209 65.1875 9.29209 67.411 11.4159C68.4858 12.4593 69.0749 13.9053 69.0343 15.4031C69.0731 16.9027 68.4803 18.3487 67.4017 19.3903H67.411ZM61.2169 17.8242C62.3637 19.0505 64.2881 19.1132 65.5143 17.9646C65.5623 17.9184 65.6104 17.8722 65.6547 17.8242C66.2807 17.176 66.6187 16.3043 66.5929 15.4031C66.6206 14.5 66.2826 13.6228 65.6547 12.9727C64.4746 11.7428 62.5207 11.7003 61.2889 12.8804C61.2575 12.9099 61.2261 12.9413 61.1966 12.9727C60.5687 13.6228 60.2307 14.5 60.2584 15.4031C60.2344 16.3043 60.5761 17.1778 61.2058 17.8242H61.2169ZM79.6274 19.3903C77.4057 21.5196 73.9005 21.5196 71.6789 19.3903C70.6022 18.3468 70.0149 16.9008 70.0555 15.4031C70.0149 13.9053 70.604 12.4593 71.6789 11.4159C73.9005 9.28655 77.4057 9.28655 79.6274 11.4159C80.7022 12.4593 81.2913 13.9053 81.2507 15.4031C81.2931 16.9008 80.704 18.3468 79.6274 19.3903ZM73.4351 17.8242C74.582 19.0505 76.5063 19.1132 77.7326 17.9646C77.7806 17.9184 77.8286 17.8722 77.8729 17.8242C78.499 17.176 78.8369 16.3043 78.8111 15.4031C78.8388 14.5 78.5008 13.6228 77.8729 12.9727C76.6928 11.7428 74.739 11.7003 73.509 12.8804C73.4776 12.9099 73.4462 12.9413 73.4167 12.9727C72.7888 13.6228 72.4508 14.5 72.4785 15.4031C72.4545 16.3043 72.7962 17.1778 73.4259 17.8242H73.4351ZM87.659 25.9962C86.5343 26.0313 85.4318 25.6804 84.5342 25.0008C83.7377 24.4018 83.1103 23.6064 82.7133 22.6923L84.8519 21.8003C85.0846 22.347 85.4484 22.8271 85.9119 23.1983C86.4069 23.5972 87.0292 23.8078 87.6664 23.7893C88.4826 23.8391 89.2804 23.5307 89.8529 22.9453C90.418 22.2638 90.6969 21.3885 90.6323 20.5057V19.6987H90.5473C89.8215 20.5593 88.7338 21.0284 87.6109 20.9656C86.1871 20.9693 84.826 20.3783 83.8583 19.333C82.8093 18.297 82.2295 16.8768 82.2535 15.4012C82.2276 13.9183 82.8075 12.4889 83.8583 11.4417C84.8242 10.3928 86.1852 9.79626 87.6109 9.79995C88.2075 9.79811 88.7984 9.93108 89.3377 10.1841C89.8049 10.3872 90.2204 10.6919 90.5584 11.0761H90.6433V10.1841H92.9703V20.177C93.094 21.7745 92.5548 23.3534 91.4781 24.5409C90.4531 25.5216 89.0773 26.046 87.659 25.9962ZM87.8289 18.7901C88.6396 18.8085 89.4171 18.4632 89.949 17.8519C90.527 17.1889 90.8336 16.3302 90.8022 15.4492C90.8373 14.5536 90.5325 13.68 89.949 13.0004C89.4171 12.3873 88.6396 12.0438 87.8289 12.0623C86.996 12.0456 86.1963 12.3873 85.6331 13.0004C85.0125 13.656 84.6746 14.5295 84.6949 15.4308C84.6764 16.3246 85.0125 17.1889 85.6331 17.8334C86.1926 18.4521 86.9923 18.8011 87.8289 18.7901ZM97.1089 4.2467V20.6479H94.6601V4.2467H97.1089ZM103.827 20.9859C102.344 21.0247 100.913 20.4429 99.8772 19.381C98.8264 18.3284 98.252 16.8897 98.2908 15.4031C98.2354 13.9127 98.7876 12.463 99.82 11.3863C100.795 10.3595 102.158 9.79072 103.573 9.81842C104.217 9.81103 104.854 9.93662 105.449 10.1841C105.984 10.4002 106.472 10.7196 106.884 11.1222C107.238 11.4639 107.552 11.8443 107.822 12.258C108.04 12.6071 108.225 12.9746 108.376 13.355L108.629 13.994L101.124 17.0818C101.589 18.1492 102.662 18.8215 103.826 18.7716C104.95 18.7753 105.994 18.1862 106.575 17.224L108.452 18.4909C107.973 19.1767 107.36 19.7579 106.649 20.1992C105.807 20.731 104.825 21.0043 103.827 20.9859ZM100.693 15.2332L105.685 13.1592C105.532 12.7936 105.257 12.4926 104.906 12.306C104.514 12.0844 104.071 11.9718 103.621 11.9773C102.858 11.9976 102.132 12.3171 101.604 12.8693C100.963 13.4824 100.629 14.3486 100.693 15.2332Z" fill="#CBCBD7"/>
<path d="M121.458 20.9859C117.188 21.0597 113.668 17.658 113.594 13.3882C113.593 13.2848 113.593 13.1795 113.596 13.0761C113.497 8.80637 116.878 5.2661 121.146 5.16638C121.249 5.16453 121.355 5.16453 121.458 5.16453C123.593 5.09805 125.643 6.01035 127.022 7.64106L125.671 8.95412C124.657 7.67799 123.094 6.96329 121.467 7.02977C119.907 6.99469 118.398 7.59858 117.292 8.69926C116.141 9.85719 115.526 11.4417 115.593 13.0724C115.524 14.7031 116.141 16.2877 117.292 17.4456C118.398 18.5481 119.907 19.1502 121.467 19.1151C123.284 19.1354 125.011 18.3265 126.158 16.9193L127.51 18.2711C126.803 19.1169 125.914 19.7928 124.911 20.2508C123.829 20.7532 122.649 21.0043 121.458 20.9859Z" fill="#CBCBD7"/>
<path d="M131.141 20.6483H129.198V5.49365H131.141V20.6483Z" fill="#CBCBD7"/>
<path d="M134.314 11.5263C136.432 9.42286 139.852 9.42286 141.97 11.5263C142.975 12.5882 143.516 14.0066 143.472 15.4674C143.516 16.9282 142.975 18.3465 141.97 19.4084C139.852 21.5119 136.432 21.5119 134.314 19.4084C133.309 18.3465 132.768 16.9282 132.812 15.4674C132.768 14.0066 133.307 12.5882 134.314 11.5263ZM135.758 18.1895C137.001 19.5026 139.073 19.5598 140.388 18.3169C140.432 18.2763 140.474 18.232 140.515 18.1895C141.2 17.4545 141.562 16.4739 141.52 15.4692C141.564 14.4646 141.202 13.4839 140.515 12.7489C139.272 11.4358 137.2 11.3786 135.885 12.6215C135.841 12.6621 135.798 12.7064 135.758 12.7489C135.073 13.4839 134.711 14.4646 134.753 15.4692C134.714 16.472 135.08 17.449 135.767 18.1803L135.758 18.1895Z" fill="#CBCBD7"/>
<path d="M154.233 20.6481H152.356V19.2132H152.301C151.967 19.758 151.494 20.2049 150.931 20.5078C150.347 20.8457 149.682 21.0249 149.006 21.023C147.895 21.0987 146.811 20.6629 146.061 19.8411C145.35 18.9417 144.993 17.8133 145.056 16.6702V10.2896H146.999V16.3137C146.999 18.2473 147.852 19.2132 149.56 19.2132C150.331 19.2372 151.064 18.8881 151.531 18.275C152.035 17.6379 152.303 16.8456 152.292 16.033V10.2896H154.235V20.6481H154.233Z" fill="#CBCBD7"/>
<path d="M160.829 20.9863C159.496 20.99 158.227 20.4119 157.357 19.3999C156.384 18.3251 155.863 16.9178 155.902 15.4681C155.863 14.0184 156.384 12.6111 157.357 11.5363C158.227 10.5261 159.496 9.94623 160.829 9.94992C161.568 9.93884 162.298 10.1124 162.949 10.4559C163.524 10.744 164.009 11.1817 164.357 11.7228H164.442L164.357 10.2879V5.49365H166.299V20.6483H164.423V19.2134H164.338C163.991 19.7545 163.505 20.1921 162.931 20.4802C162.285 20.8201 161.563 20.9955 160.829 20.9863ZM161.149 19.2134C162.037 19.2263 162.889 18.8569 163.485 18.1995C164.144 17.4478 164.482 16.4672 164.423 15.4681C164.482 14.4708 164.144 13.4883 163.485 12.7367C162.307 11.4403 160.301 11.3461 159.005 12.5262C158.931 12.5927 158.861 12.6647 158.794 12.7367C158.133 13.4828 157.795 14.4616 157.856 15.457C157.795 16.4524 158.133 17.4312 158.794 18.1773C159.393 18.8495 160.251 19.2263 161.149 19.2134Z" fill="#CBCBD7"/>
</svg>
