<svg width="64" height="36" viewBox="0 0 52 25" fill="none" xmlns="http://www.w3.org/2000/svg">
<path d="M24.1764 -0.869629C23.2262 -0.869629 22.4562 -0.0919179 22.4562 0.867737V4.21173C22.4562 5.17071 23.2262 5.94935 24.1764 5.94935H27.5931C28.5433 5.94935 29.3146 5.17071 29.3146 4.21173V0.867737C29.3146 -0.0919179 28.5433 -0.869629 27.5931 -0.869629H24.1764ZM32.5746 4.42151C31.8609 4.42151 31.282 5.01626 31.282 5.74794V8.29966C31.282 9.0321 31.8609 9.62642 32.5746 9.62642H35.1417C35.8555 9.62642 36.4338 9.0321 36.4338 8.29966V5.74794C36.4338 5.01626 35.8555 4.42151 35.1417 4.42151H32.5746ZM16.6278 4.42151C15.9143 4.42151 15.3354 5.01626 15.3354 5.74794V8.29966C15.3354 9.0321 15.9143 9.62642 16.6278 9.62642H19.1947C19.9081 9.62642 20.4873 9.0321 20.4873 8.29966V5.74794C20.4873 5.01626 19.9081 4.42151 19.1947 4.42151H16.6278ZM24.1764 7.34838C23.2262 7.34838 22.4562 8.12567 22.4562 9.08592V12.4297C22.4562 13.3891 23.2262 14.1675 24.1764 14.1675H27.5931C28.5433 14.1675 29.3146 13.3891 29.3146 12.4297V9.08592C29.3146 8.12567 28.5433 7.34838 27.5931 7.34838H24.1764ZM39.1783 8.91599C38.6475 8.91599 38.2172 9.35757 38.2172 9.9029V11.8011C38.2172 12.3453 38.6475 12.7872 39.1783 12.7872H41.0881C41.6186 12.7872 42.0492 12.3453 42.0492 11.8011V9.9029C42.0492 9.35757 41.6186 8.91599 41.0881 8.91599H39.1783ZM10.7658 8.91599C10.2351 8.91599 9.80434 9.35757 9.80434 9.9029V11.8011C9.80434 12.3453 10.2351 12.7872 10.7658 12.7872H12.6749C13.2062 12.7872 13.6365 12.3453 13.6365 11.8011V9.9029C13.6365 9.35757 13.2062 8.91599 12.6749 8.91599H10.7658ZM32.5746 10.9138C31.8609 10.9138 31.282 11.5077 31.282 12.2394V14.792C31.282 15.5238 31.8609 16.1179 32.5746 16.1179H35.1417C35.8555 16.1179 36.4338 15.5238 36.4338 14.792V12.2394C36.4338 11.5077 35.8555 10.9138 35.1417 10.9138H32.5746ZM16.6278 10.9138C15.9143 10.9138 15.3354 11.5077 15.3354 12.2394V14.792C15.3354 15.5238 15.9143 16.1179 16.6278 16.1179H19.1947C19.9081 16.1179 20.4873 15.5238 20.4873 14.792V12.2394C20.4873 11.5077 19.9081 10.9138 19.1947 10.9138H16.6278ZM39.1783 14.1294C38.6475 14.1294 38.2172 14.5707 38.2172 15.1153V17.0137C38.2172 17.5579 38.6475 17.9999 39.1783 17.9999H41.0881C41.6186 17.9999 42.0492 17.5579 42.0492 17.0137V15.1153C42.0492 14.5707 41.6186 14.1294 41.0881 14.1294H39.1783ZM10.7658 14.1294C10.2351 14.1294 9.80434 14.5707 9.80434 15.1153V17.0137C9.80434 17.5579 10.2351 17.9999 10.7658 17.9999H12.6749C13.2062 17.9999 13.6365 17.5579 13.6365 17.0137V15.1153C13.6365 14.5707 13.2062 14.1294 12.6749 14.1294H10.7658ZM24.1764 15.4949C23.2262 15.4949 22.4562 16.2729 22.4562 17.2327V20.5767C22.4562 21.5362 23.2262 22.3137 24.1764 22.3137H27.5931C28.5433 22.3137 29.3146 21.5362 29.3146 20.5767V17.2327C29.3146 16.2729 28.5433 15.4949 27.5931 15.4949H24.1764ZM44.8221 16.9235C44.4274 16.9235 44.1081 17.2517 44.1081 17.656V19.0651C44.1081 19.4693 44.4274 19.7969 44.8221 19.7969H46.2396C46.6332 19.7969 46.9523 19.4693 46.9523 19.0651V17.656C46.9523 17.2517 46.6332 16.9235 46.2396 16.9235H44.8221ZM5.61454 16.9235C5.22039 16.9235 4.90106 17.2517 4.90106 17.656V19.0651C4.90106 19.4693 5.22039 19.7969 5.61454 19.7969H7.03144C7.42585 19.7969 7.74509 19.4693 7.74509 19.0651V17.656C7.74509 17.2517 7.42585 16.9235 7.03144 16.9235H5.61454ZM32.5746 17.4073C31.8609 17.4073 31.282 18.0007 31.282 18.7327V21.2847C31.282 22.0172 31.8609 22.6111 32.5746 22.6111H35.1417C35.8555 22.6111 36.4338 22.0172 36.4338 21.2847V18.7327C36.4338 18.0007 35.8555 17.4073 35.1417 17.4073H32.5746ZM16.6278 17.4073C15.9143 17.4073 15.3354 18.0007 15.3354 18.7327V21.2847C15.3354 22.0172 15.9143 22.6111 16.6278 22.6111H19.1947C19.9081 22.6111 20.4873 22.0172 20.4873 21.2847V18.7327C20.4873 18.0007 19.9081 17.4073 19.1947 17.4073H16.6278ZM39.1783 19.3817C38.6475 19.3817 38.2172 19.8242 38.2172 20.3693V22.2671C38.2172 22.8124 38.6475 23.2532 39.1783 23.2532H41.0881C41.6186 23.2532 42.0492 22.8124 42.0492 22.2671V20.3693C42.0492 19.8242 41.6186 19.3817 41.0881 19.3817H39.1783ZM10.7658 19.3817C10.2351 19.3817 9.80434 19.8242 9.80434 20.3693V22.2671C9.80434 22.8124 10.2351 23.2532 10.7658 23.2532H12.6749C13.2062 23.2532 13.6365 22.8124 13.6365 22.2671V20.3693C13.6365 19.8242 13.2062 19.3817 12.6749 19.3817H10.7658ZM44.8221 21.2153C44.4274 21.2153 44.1081 21.5431 44.1081 21.9473V23.3565C44.1081 23.7599 44.4274 24.0889 44.8221 24.0889H46.2396C46.6332 24.0889 46.9523 23.7599 46.9523 23.3565V21.9473C46.9523 21.5431 46.6332 21.2153 46.2396 21.2153H44.8221ZM5.61454 21.2153C5.22039 21.2153 4.90106 21.5431 4.90106 21.9473V23.3565C4.90106 23.7599 5.22039 24.0889 5.61454 24.0889H7.03144C7.42585 24.0889 7.74509 23.7599 7.74509 23.3565V21.9473C7.74509 21.5431 7.42585 21.2153 7.03144 21.2153H5.61454ZM49.5019 22.6233C49.2043 22.6233 48.9626 22.8705 48.9626 23.1757V24.2388C48.9626 24.543 49.2043 24.7908 49.5019 24.7908H50.571C50.8674 24.7908 51.109 24.543 51.109 24.2388V23.1757C51.109 22.8705 50.8674 22.6233 50.571 22.6233H49.5019ZM1.28322 22.6233C0.985847 22.6233 0.744446 22.8705 0.744446 23.1757V24.2388C0.744446 24.543 0.985847 24.7908 1.28322 24.7908H2.35172C2.64918 24.7908 2.88991 24.543 2.88991 24.2388V23.1757C2.88991 22.8705 2.64918 22.6233 2.35172 22.6233H1.28322Z" fill="white"/>
</svg>
