<svg width="118" height="26" viewBox="0 0 118 26" fill="none" xmlns="http://www.w3.org/2000/svg">
<g clip-path="url(#clip0_225_1481)">
<path d="M26.1764 -0.869629C25.2262 -0.869629 24.4562 -0.0919179 24.4562 0.867737V4.21173C24.4562 5.17071 25.2262 5.94935 26.1764 5.94935H29.5931C30.5433 5.94935 31.3146 5.17071 31.3146 4.21173V0.867737C31.3146 -0.0919179 30.5433 -0.869629 29.5931 -0.869629H26.1764ZM34.5746 4.42151C33.8609 4.42151 33.282 5.01626 33.282 5.74794V8.29966C33.282 9.0321 33.8609 9.62642 34.5746 9.62642H37.1417C37.8555 9.62642 38.4338 9.0321 38.4338 8.29966V5.74794C38.4338 5.01626 37.8555 4.42151 37.1417 4.42151H34.5746ZM18.6278 4.42151C17.9143 4.42151 17.3354 5.01626 17.3354 5.74794V8.29966C17.3354 9.0321 17.9143 9.62642 18.6278 9.62642H21.1947C21.9081 9.62642 22.4873 9.0321 22.4873 8.29966V5.74794C22.4873 5.01626 21.9081 4.42151 21.1947 4.42151H18.6278ZM26.1764 7.34838C25.2262 7.34838 24.4562 8.12567 24.4562 9.08592V12.4297C24.4562 13.3891 25.2262 14.1675 26.1764 14.1675H29.5931C30.5433 14.1675 31.3146 13.3891 31.3146 12.4297V9.08592C31.3146 8.12567 30.5433 7.34838 29.5931 7.34838H26.1764ZM41.1783 8.91599C40.6475 8.91599 40.2172 9.35757 40.2172 9.9029V11.8011C40.2172 12.3453 40.6475 12.7872 41.1783 12.7872H43.0881C43.6186 12.7872 44.0492 12.3453 44.0492 11.8011V9.9029C44.0492 9.35757 43.6186 8.91599 43.0881 8.91599H41.1783ZM12.7658 8.91599C12.2351 8.91599 11.8043 9.35757 11.8043 9.9029V11.8011C11.8043 12.3453 12.2351 12.7872 12.7658 12.7872H14.6749C15.2062 12.7872 15.6365 12.3453 15.6365 11.8011V9.9029C15.6365 9.35757 15.2062 8.91599 14.6749 8.91599H12.7658ZM34.5746 10.9138C33.8609 10.9138 33.282 11.5077 33.282 12.2394V14.792C33.282 15.5238 33.8609 16.1179 34.5746 16.1179H37.1417C37.8555 16.1179 38.4338 15.5238 38.4338 14.792V12.2394C38.4338 11.5077 37.8555 10.9138 37.1417 10.9138H34.5746ZM18.6278 10.9138C17.9143 10.9138 17.3354 11.5077 17.3354 12.2394V14.792C17.3354 15.5238 17.9143 16.1179 18.6278 16.1179H21.1947C21.9081 16.1179 22.4873 15.5238 22.4873 14.792V12.2394C22.4873 11.5077 21.9081 10.9138 21.1947 10.9138H18.6278ZM41.1783 14.1294C40.6475 14.1294 40.2172 14.5707 40.2172 15.1153V17.0137C40.2172 17.5579 40.6475 17.9999 41.1783 17.9999H43.0881C43.6186 17.9999 44.0492 17.5579 44.0492 17.0137V15.1153C44.0492 14.5707 43.6186 14.1294 43.0881 14.1294H41.1783ZM12.7658 14.1294C12.2351 14.1294 11.8043 14.5707 11.8043 15.1153V17.0137C11.8043 17.5579 12.2351 17.9999 12.7658 17.9999H14.6749C15.2062 17.9999 15.6365 17.5579 15.6365 17.0137V15.1153C15.6365 14.5707 15.2062 14.1294 14.6749 14.1294H12.7658ZM26.1764 15.4949C25.2262 15.4949 24.4562 16.2729 24.4562 17.2327V20.5767C24.4562 21.5362 25.2262 22.3137 26.1764 22.3137H29.5931C30.5433 22.3137 31.3146 21.5362 31.3146 20.5767V17.2327C31.3146 16.2729 30.5433 15.4949 29.5931 15.4949H26.1764ZM46.8221 16.9235C46.4274 16.9235 46.1081 17.2517 46.1081 17.656V19.0651C46.1081 19.4693 46.4274 19.7969 46.8221 19.7969H48.2396C48.6332 19.7969 48.9523 19.4693 48.9523 19.0651V17.656C48.9523 17.2517 48.6332 16.9235 48.2396 16.9235H46.8221ZM7.61454 16.9235C7.22039 16.9235 6.90106 17.2517 6.90106 17.656V19.0651C6.90106 19.4693 7.22039 19.7969 7.61454 19.7969H9.03144C9.42585 19.7969 9.74509 19.4693 9.74509 19.0651V17.656C9.74509 17.2517 9.42585 16.9235 9.03144 16.9235H7.61454ZM34.5746 17.4073C33.8609 17.4073 33.282 18.0007 33.282 18.7327V21.2847C33.282 22.0172 33.8609 22.6111 34.5746 22.6111H37.1417C37.8555 22.6111 38.4338 22.0172 38.4338 21.2847V18.7327C38.4338 18.0007 37.8555 17.4073 37.1417 17.4073H34.5746ZM18.6278 17.4073C17.9143 17.4073 17.3354 18.0007 17.3354 18.7327V21.2847C17.3354 22.0172 17.9143 22.6111 18.6278 22.6111H21.1947C21.9081 22.6111 22.4873 22.0172 22.4873 21.2847V18.7327C22.4873 18.0007 21.9081 17.4073 21.1947 17.4073H18.6278ZM41.1783 19.3817C40.6475 19.3817 40.2172 19.8242 40.2172 20.3693V22.2671C40.2172 22.8124 40.6475 23.2532 41.1783 23.2532H43.0881C43.6186 23.2532 44.0492 22.8124 44.0492 22.2671V20.3693C44.0492 19.8242 43.6186 19.3817 43.0881 19.3817H41.1783ZM12.7658 19.3817C12.2351 19.3817 11.8043 19.8242 11.8043 20.3693V22.2671C11.8043 22.8124 12.2351 23.2532 12.7658 23.2532H14.6749C15.2062 23.2532 15.6365 22.8124 15.6365 22.2671V20.3693C15.6365 19.8242 15.2062 19.3817 14.6749 19.3817H12.7658ZM46.8221 21.2153C46.4274 21.2153 46.1081 21.5431 46.1081 21.9473V23.3565C46.1081 23.7599 46.4274 24.0889 46.8221 24.0889H48.2396C48.6332 24.0889 48.9523 23.7599 48.9523 23.3565V21.9473C48.9523 21.5431 48.6332 21.2153 48.2396 21.2153H46.8221ZM7.61454 21.2153C7.22039 21.2153 6.90106 21.5431 6.90106 21.9473V23.3565C6.90106 23.7599 7.22039 24.0889 7.61454 24.0889H9.03144C9.42585 24.0889 9.74509 23.7599 9.74509 23.3565V21.9473C9.74509 21.5431 9.42585 21.2153 9.03144 21.2153H7.61454ZM51.5019 22.6233C51.2043 22.6233 50.9626 22.8705 50.9626 23.1757V24.2388C50.9626 24.543 51.2043 24.7908 51.5019 24.7908H52.571C52.8674 24.7908 53.109 24.543 53.109 24.2388V23.1757C53.109 22.8705 52.8674 22.6233 52.571 22.6233H51.5019ZM3.28322 22.6233C2.98585 22.6233 2.74445 22.8705 2.74445 23.1757V24.2388C2.74445 24.543 2.98585 24.7908 3.28322 24.7908H4.35172C4.64918 24.7908 4.88991 24.543 4.88991 24.2388V23.1757C4.88991 22.8705 4.64918 22.6233 4.35172 22.6233H3.28322Z" fill="white"/>
<path d="M72.9181 20.0273V24.8558H73.3022V23.1998C73.5309 23.3676 74.4579 24.0416 75.0125 24.4371C75.4313 24.7151 75.4185 24.8201 75.424 24.8558H75.9362C75.9362 24.605 75.6567 24.4799 75.3417 24.2604C75.1504 24.126 73.7321 23.1161 73.7321 23.1161C73.7321 23.1161 75.1131 22.1891 75.3051 22.0555C75.6194 21.8355 75.8721 21.7112 75.8721 21.4601H75.3783C75.3739 21.4947 75.3955 21.6004 74.9759 21.8787C74.4513 22.2549 73.5857 22.8824 73.3022 23.0881V20.0273H72.9181ZM76.5215 20.0273V24.8558H76.9056V20.0273H76.5215ZM87.9901 20.0273V24.0836V24.0929V24.1394C87.9904 24.1997 87.9803 24.3091 87.9444 24.3813C87.9016 24.4531 87.8848 24.4874 87.7706 24.493H85.8866C85.7732 24.4874 85.756 24.4531 85.7129 24.3813C85.6862 24.3274 85.6715 24.2559 85.6671 24.1953V22.2136V22.2043V22.1671C85.666 22.105 85.6767 21.9881 85.7129 21.9159C85.756 21.8437 85.7721 21.8121 85.8866 21.8043H87.7706V21.4135H85.8866C85.6269 21.4069 85.4334 21.5825 85.3653 21.7485C85.2896 21.9129 85.2841 22.0737 85.283 22.1671V22.2322V24.065V24.1394V24.2045V24.2697H85.2922C85.3009 24.3527 85.3192 24.4572 85.3653 24.5581C85.4334 24.7229 85.6269 24.8904 85.8866 24.8837H87.7706H87.7889C88.0402 24.8837 88.2239 24.7196 88.2919 24.5581C88.3669 24.3932 88.3739 24.2317 88.3742 24.1394V24.065V20.0273H87.9901ZM70.7597 21.4322C70.5484 21.4631 70.3992 21.6132 70.339 21.7578C70.2633 21.9222 70.2585 22.0834 70.2567 22.1764V22.2508V24.8558H70.6408V22.2322V22.2229V22.1764C70.6403 22.1139 70.6507 21.997 70.6866 21.9252C70.729 21.853 70.7374 21.8299 70.8512 21.8229H72.2779V21.4321H70.8512C70.8187 21.4312 70.7899 21.4277 70.7597 21.4322ZM91.6301 21.4322C91.3711 21.4255 91.1787 21.6018 91.1088 21.7671C91.0334 21.9319 91.0276 22.0931 91.0265 22.1857V22.2508V24.8651H91.4198V22.2322L91.4106 22.2229V22.1857C91.4106 22.1239 91.4205 22.0075 91.4564 21.9345C91.4981 21.8623 91.5167 21.8385 91.6301 21.8322H93.1117V24.8651H93.4958V21.8322H94.9957C95.1095 21.8385 95.1179 21.8619 95.1603 21.9345C95.1958 22.0075 95.2072 22.1239 95.2061 22.1857V22.2229V22.2322V24.8651H95.5902V22.2508V22.1857C95.589 22.0931 95.5836 21.9315 95.5079 21.7671C95.4398 21.6018 95.2558 21.4255 94.9957 21.4322H91.6301ZM100.849 21.4322C100.589 21.4258 100.397 21.6022 100.328 21.7671C100.252 21.9319 100.246 22.0931 100.245 22.1857V22.2508V24.8651H100.639V22.2322L100.629 22.2229V22.1857C100.627 22.1239 100.64 22.0075 100.675 21.9345C100.718 21.8627 100.734 21.8296 100.849 21.8229L102.669 21.8322C102.784 21.8386 102.801 21.862 102.843 21.9345C102.879 22.0075 102.89 22.124 102.888 22.1857V22.2229V22.2323V24.8651H103.273V22.2509V22.1857C103.271 22.0931 103.266 21.9316 103.19 21.7671C103.123 21.6022 102.928 21.4258 102.669 21.4322L100.849 21.4322ZM115.976 21.4322C115.765 21.4629 115.614 21.6129 115.555 21.7578C115.478 21.9222 115.474 22.083 115.473 22.1764V22.2508V24.8558H115.857V22.2322V22.2229V22.1764C115.855 22.1135 115.866 21.997 115.903 21.9252C115.943 21.8526 115.962 21.8296 116.076 21.8229H117.503V21.4321H116.076C116.044 21.4312 116.006 21.4277 115.976 21.4322ZM61.1751 21.46V24.065C61.1739 24.0769 61.1751 24.1055 61.1751 24.1394C61.1757 24.2317 61.181 24.3932 61.2574 24.5581C61.3247 24.7196 61.5091 24.8837 61.7604 24.8837H61.7787H65.1351C65.3953 24.8903 65.5877 24.7229 65.6565 24.5581C65.7318 24.3932 65.738 24.2317 65.7388 24.1394V24.065V21.46H65.3546V24.0836V24.0929V24.1394C65.3558 24.1997 65.3441 24.3091 65.3089 24.3813C65.2661 24.4535 65.2497 24.4874 65.1351 24.493H63.6627V21.4601H63.2786V24.493H61.7787C61.6646 24.4874 61.6481 24.4535 61.6049 24.3813C61.5691 24.3091 61.5581 24.1997 61.5592 24.1394V24.0929V24.0836V21.46H61.1751ZM66.9186 21.46C66.7074 21.4899 66.5577 21.6401 66.4979 21.7857C66.4214 21.9501 66.4159 22.1117 66.4155 22.2043V22.2694V24.065V24.1394C66.4158 24.2317 66.4214 24.3932 66.4979 24.5581C66.5644 24.7196 66.7492 24.8837 67.0009 24.8837H67.0192H68.9215C69.1812 24.8903 69.374 24.7229 69.4428 24.5581C69.5188 24.3932 69.5243 24.2317 69.5251 24.1394L69.5159 24.0743V22.2694L69.5251 22.2043C69.5245 22.1117 69.5188 21.9501 69.4428 21.7857C69.374 21.6193 69.1812 21.4526 68.9215 21.46H67.0192C66.9867 21.4591 66.9487 21.4558 66.9186 21.46ZM78.1128 21.46C77.9016 21.4899 77.752 21.6401 77.6921 21.7857C77.616 21.9501 77.6021 22.1117 77.6007 22.2043L77.6098 22.2694V24.065L77.6007 24.1394C77.6021 24.2317 77.616 24.3932 77.6921 24.5581C77.7598 24.7196 77.9427 24.8837 78.1951 24.8837H78.2043H80.1157C80.3736 24.8903 80.5591 24.7229 80.6279 24.5581C80.7036 24.3932 80.7091 24.2317 80.7102 24.1394V24.0743V22.2694V22.2043C80.709 22.1117 80.7036 21.9501 80.6279 21.7857C80.5591 21.6193 80.3736 21.4526 80.1157 21.46H78.2043C78.1719 21.4591 78.143 21.4558 78.1128 21.46ZM81.4419 21.46V21.8508H84.0026C84.1168 21.8572 84.1343 21.8809 84.1764 21.9531C84.2119 22.0253 84.224 22.1437 84.2221 22.2043V22.2508V22.2602V24.0836V24.0929V24.1394C84.2233 24.1997 84.2119 24.3091 84.1764 24.3813C84.1343 24.4535 84.1168 24.487 84.0026 24.493H81.954C81.8241 24.4874 81.8146 24.4561 81.7802 24.4092C81.7506 24.3594 81.7345 24.2693 81.7345 24.2232V24.1953V24.186V23.4696V23.4603V23.4138C81.7345 23.3531 81.744 23.2351 81.7802 23.1626C81.8219 23.0904 81.8395 23.0669 81.954 23.0602H84.0026V22.6695H81.954C81.6939 22.6628 81.5026 22.8303 81.4327 22.9951C81.357 23.1603 81.3511 23.3207 81.3504 23.4138V23.4882V24.1673V24.2232C81.351 24.3058 81.3603 24.4546 81.4419 24.6046C81.5194 24.7568 81.7096 24.89 81.954 24.8837H84.0026H84.0209C84.2733 24.8837 84.457 24.7192 84.5239 24.5581C84.5997 24.3928 84.6055 24.2317 84.6062 24.1394V24.065V22.2695V22.2043C84.6057 22.1117 84.5997 21.9502 84.5239 21.7857C84.4552 21.6197 84.262 21.453 84.0026 21.4601L81.4419 21.46ZM96.3676 21.46V21.8508H98.9375C99.0502 21.8572 99.0597 21.8809 99.1021 21.9531C99.138 22.0253 99.1478 22.144 99.1478 22.2043V22.2508V22.2602V24.0836V24.0929V24.1394C99.1478 24.1997 99.138 24.3091 99.1021 24.3813C99.0597 24.4535 99.0502 24.487 98.9375 24.493H96.8797C96.7652 24.487 96.7488 24.4535 96.706 24.3813C96.6708 24.3088 96.6602 24.1997 96.6602 24.1394V24.0929V24.0836V23.4696V23.4603V23.4509V23.4137C96.6591 23.3531 96.6708 23.2351 96.706 23.1626C96.7488 23.0904 96.7652 23.0669 96.8797 23.0602H98.9375V22.6695H96.8797C96.6207 22.6628 96.4272 22.8302 96.3584 22.9951C96.2838 23.1603 96.2761 23.3207 96.2761 23.4137V23.4882V24.065V24.1394C96.2767 24.2317 96.2838 24.3928 96.3584 24.5581C96.4272 24.7225 96.6207 24.8904 96.8797 24.8837H98.9375H98.9466C99.1979 24.8837 99.3827 24.7192 99.4496 24.5581C99.5254 24.3928 99.5312 24.2317 99.5319 24.1394V24.0743V22.2694V22.2043C99.5314 22.1113 99.5254 21.9505 99.4496 21.7857C99.382 21.6197 99.1965 21.453 98.9375 21.46H96.3676ZM104.077 21.46V21.8508H106.638C106.752 21.8572 106.769 21.8809 106.812 21.9531C106.848 22.0253 106.859 22.144 106.858 22.2043V22.2508V22.2602V24.0836V24.0929V24.1394C106.859 24.1997 106.848 24.3091 106.812 24.3813C106.769 24.4535 106.752 24.487 106.638 24.493H104.58C104.452 24.4874 104.44 24.4561 104.407 24.4092C104.376 24.3594 104.37 24.2693 104.37 24.2232V24.1953V24.186V23.4696V23.4603V23.451V23.4137C104.37 23.3531 104.378 23.2351 104.416 23.1626C104.457 23.0904 104.466 23.0669 104.58 23.0602H106.638V22.6695H104.58C104.32 22.6628 104.137 22.8302 104.068 22.9951C103.992 23.1603 103.987 23.3207 103.986 23.4137V23.4882V24.1673V24.2231C103.986 24.3057 103.996 24.4542 104.077 24.6046C104.155 24.756 104.345 24.89 104.59 24.8837H106.638H106.656C106.907 24.8837 107.092 24.7192 107.159 24.5581C107.235 24.3928 107.241 24.2317 107.242 24.1394V24.0743V22.2694V22.2043C107.241 22.1113 107.235 21.9505 107.159 21.7857C107.09 21.6197 106.897 21.453 106.638 21.46H104.077ZM108.266 21.46C108.055 21.4906 107.905 21.6404 107.845 21.7857C107.799 21.8869 107.781 21.9818 107.772 22.0648H107.763V22.1392V22.2043V22.2694V23.851V23.9161C107.765 24.0092 107.77 24.161 107.845 24.3255C107.913 24.4877 108.097 24.6604 108.348 24.6604H108.367H110.351V24.2697H108.367C108.253 24.2633 108.236 24.2302 108.193 24.158C108.157 24.0858 108.146 23.9783 108.147 23.9161V23.8696V23.8603V22.1485C108.152 22.0874 108.168 22.0078 108.193 21.9531C108.236 21.8813 108.253 21.8575 108.367 21.8508H110.415C110.53 21.8574 110.546 21.8813 110.589 21.9531C110.625 22.026 110.636 22.1436 110.635 22.2043V22.2508V22.2601V25.2V25.2093V25.2558C110.635 25.3172 110.625 25.4348 110.589 25.507C110.546 25.5788 110.53 25.603 110.415 25.6094H108.577V26.0001H110.415H110.434C110.685 26.0001 110.869 25.8356 110.937 25.6745C111.012 25.5089 111.017 25.3485 111.019 25.2558V25.1907V22.2695V22.2043C111.019 22.1117 111.012 21.9505 110.937 21.7857C110.867 21.6197 110.675 21.453 110.415 21.4601H108.367C108.334 21.4591 108.296 21.4556 108.266 21.46ZM112.153 21.46C111.942 21.4901 111.793 21.6404 111.732 21.7857C111.658 21.9501 111.651 22.1117 111.65 22.2043V22.2694V24.065V24.1394C111.65 24.2317 111.658 24.3928 111.732 24.5581C111.801 24.7225 111.995 24.8904 112.254 24.8837H114.814V24.4929H112.254C112.139 24.4869 112.123 24.4535 112.08 24.3813C112.045 24.3091 112.033 24.1997 112.034 24.1394V24.0929V24.0836V22.2601V22.2508V22.2415V22.2043C112.033 22.1443 112.045 22.026 112.08 21.9531C112.123 21.8809 112.139 21.8571 112.254 21.8507H114.302C114.416 21.8571 114.433 21.8809 114.476 21.9531C114.507 22.0171 114.519 22.112 114.522 22.1763V22.8741V22.8834V22.8927V22.9113C114.522 22.9493 114.511 23.0204 114.485 23.0602C114.457 23.097 114.438 23.1294 114.302 23.1346H112.254V23.5347H114.302H114.32C114.552 23.5347 114.733 23.416 114.814 23.2742C114.898 23.1316 114.905 22.9891 114.906 22.9113V22.8555V22.2694V22.2043C114.905 22.1113 114.899 21.9505 114.823 21.7856C114.755 21.6197 114.561 21.453 114.302 21.46H112.254C112.221 21.459 112.183 21.4557 112.153 21.46ZM67.0192 21.8508H68.9215C69.0345 21.8571 69.0531 21.8806 69.0952 21.9531C69.13 22.0253 69.1417 22.1437 69.1409 22.2043L69.1318 22.2508V22.2602V24.0836V24.0929L69.1409 24.1394C69.1415 24.1997 69.13 24.3091 69.0952 24.3813C69.0531 24.4535 69.0345 24.4874 68.9215 24.493H67.0192C66.9054 24.4874 66.8878 24.4535 66.8454 24.3813C66.8103 24.3091 66.7986 24.1997 66.7997 24.1394V24.0929V24.0836V22.2602V22.2508V22.2043C66.7985 22.1437 66.8103 22.0253 66.8454 21.9531C66.8878 21.8806 66.9047 21.8571 67.0192 21.8508ZM78.2043 21.8508H80.1157C80.2288 21.8571 80.2379 21.8806 80.2804 21.9531C80.3162 22.0253 80.3268 22.1437 80.3261 22.2043V22.2508V22.2602V24.0836V24.0929V24.1394C80.3267 24.1997 80.3162 24.3091 80.2804 24.3813C80.2379 24.4535 80.2288 24.4874 80.1157 24.493H78.2043C78.0902 24.4874 78.0825 24.4535 78.0397 24.3813C78.0049 24.3091 77.9928 24.1997 77.9939 24.1394V24.0929V24.0836V22.2602V22.2508V22.2043C77.9928 22.1437 78.0049 22.0253 78.0397 21.9531C78.0825 21.8806 78.0902 21.8571 78.2043 21.8508Z" fill="white"/>
<path d="M116.945 5.51316C116.519 5.1641 115.711 5.08632 115.244 5.07106C115.029 5.06511 114.884 5.07106 114.884 5.07106H103.916C103.916 5.07106 103.584 5.04502 103.177 5.07106C102.781 5.09711 102.314 5.17266 102.022 5.37435C101.28 5.88306 101.187 6.71404 101.187 7.46798V17.0463H103.916V8.63685C103.916 7.43002 104.932 7.56213 104.932 7.56213H108.1V17.0348H110.702V7.56213H113.943C114.816 7.56213 114.881 8.33431 114.884 8.50735V8.54344V17.0463H117.615V7.56213V7.49477C117.611 7.1993 117.559 6.0148 116.945 5.51316ZM93.8684 5.07106C93.4715 5.09711 93.005 5.17266 92.7124 5.37435C91.9705 5.88306 91.8783 6.71404 91.8783 7.46798V17.0463H94.607V8.63685C94.607 7.43002 95.6236 7.56213 95.6236 7.56213H99.2438V5.07106H94.607C94.607 5.07106 94.2745 5.04502 93.8684 5.07106ZM86.9137 13.4697C86.9137 14.6762 85.8978 14.5448 85.8978 14.5448H82.1707C81.2993 14.5448 81.2335 13.7716 81.2306 13.5978V13.5632V5.05841H78.5004V14.5448V14.6122C78.5037 14.9054 78.5567 16.0914 79.1702 16.5934C79.596 16.9421 80.4034 17.0203 80.8706 17.0348C81.0864 17.0418 81.2306 17.0348 81.2306 17.0348H86.9137C86.9137 17.0348 87.2466 17.0616 87.6523 17.0348C88.0492 17.0091 88.5153 16.9325 88.8079 16.7315C89.5491 16.2217 89.6431 15.3929 89.6431 14.6382V5.05841H86.9137V13.4697ZM73.3949 17.0348H76.124V0H73.3949V17.0348ZM70.9721 11.5689C70.9721 11.5689 70.9969 10.6888 70.4566 10.3088C69.9591 9.96202 69.2439 9.96202 69.2439 9.96202H64.2741C64.2741 9.96202 63.526 10.013 63.526 9.201V8.34807C63.526 8.34807 63.4602 7.44714 64.4113 7.44714H70.8561V5.05841H63.8834C63.8834 5.05841 62.7282 5.0424 62.2694 5.15294C61.6621 5.29918 61 5.6155 61 7.02067V10.4104C61 12.2514 62.7252 12.0582 62.7252 12.0582H67.3577C68.4555 12.0582 68.3776 12.8829 68.3776 12.8829V13.6979C68.3776 14.7752 67.1773 14.6036 67.1773 14.6036H61V17.0348H69.0017C69.0017 17.0348 70.0494 17.0713 70.5312 16.5052C71.0138 15.9392 70.9721 15.01 70.9721 15.01V11.5689Z" fill="white"/>
</g>
<defs>
<clipPath id="clip0_225_1481">
<rect width="118" height="26" fill="white"/>
</clipPath>
</defs>
</svg>
