<svg width="18" height="16" viewBox="0 0 18 16" fill="none" xmlns="http://www.w3.org/2000/svg">
<path d="M7.39367 7.82243C7.32311 7.82243 7.27541 7.80397 7.25122 7.76706C7.22671 7.73015 7.21479 7.66862 7.21479 7.58249V5.94596C7.21479 5.778 7.17503 5.63526 7.09553 5.51837C7.01615 5.40148 6.90837 5.30349 6.78083 5.23228C6.64469 5.15637 6.49575 5.10229 6.34026 5.07232C6.17699 5.03949 6.01041 5.02299 5.84336 5.0231C5.65322 5.0231 5.46771 5.03971 5.28685 5.07232C5.11465 5.10193 4.94966 5.1603 4.79989 5.24459C4.65646 5.32672 4.53819 5.43531 4.44544 5.57066C4.35269 5.70601 4.29969 5.87613 4.28644 6.08131H5.04171C5.05927 5.90904 5.13678 5.782 5.27359 5.69986C5.41041 5.61773 5.58498 5.57681 5.79699 5.57681C5.87218 5.57681 5.95136 5.58204 6.0355 5.5922C6.1193 5.60266 6.19549 5.62296 6.2644 5.65372C6.33297 5.68448 6.39028 5.72847 6.43665 5.786C6.48303 5.84352 6.50622 5.91735 6.50622 6.00748C6.50622 6.10992 6.47872 6.18682 6.4234 6.23819C6.36808 6.28957 6.29322 6.3274 6.19815 6.35201C6.10307 6.37662 5.99376 6.39416 5.8702 6.40431C5.74664 6.41446 5.61612 6.432 5.47931 6.4566C5.3203 6.47291 5.16229 6.49659 5.0056 6.52736C4.84892 6.55812 4.70747 6.60826 4.58159 6.67809C4.45571 6.74792 4.35401 6.8442 4.27683 6.96725C4.19931 7.0903 4.16089 7.25026 4.16089 7.44714C4.16089 7.6031 4.19269 7.73937 4.25695 7.85627C4.32089 7.97316 4.40702 8.06945 4.51534 8.14543C4.62366 8.22141 4.74821 8.27894 4.88966 8.3177C5.03111 8.35677 5.17885 8.37615 5.33355 8.37615C5.53662 8.37615 5.74763 8.34538 5.96626 8.28386C6.17366 8.2284 6.36348 8.12706 6.51947 7.98855C6.55028 8.1322 6.61653 8.23249 6.71823 8.29001C6.81992 8.34754 6.94779 8.37615 7.10249 8.37615C7.18485 8.37514 7.26693 8.3669 7.34762 8.35154C7.42584 8.33659 7.50322 8.31811 7.5795 8.29616V7.81013C7.53975 7.81843 7.50431 7.82243 7.4735 7.82243H7.39367ZM6.45951 7.2195C6.45951 7.33024 6.43069 7.42376 6.37338 7.49943C6.31607 7.57541 6.24419 7.63786 6.15806 7.68708C6.07322 7.73573 5.98033 7.77107 5.88312 7.79167C5.78606 7.81228 5.69529 7.82243 5.61148 7.82243C5.54523 7.82243 5.47136 7.81628 5.38954 7.80397C5.31146 7.79276 5.23557 7.771 5.16428 7.73937C5.09677 7.70939 5.03692 7.6664 4.98871 7.61325C4.9393 7.55812 4.91337 7.48807 4.91583 7.41637C4.91583 7.32624 4.9324 7.24934 4.96552 7.18566C4.99865 7.12198 5.04403 7.07092 5.10134 7.03185C5.15865 6.99278 5.2249 6.96202 5.3001 6.93957C5.37529 6.91711 5.45248 6.89958 5.53198 6.88727C5.6987 6.85881 5.86671 6.83725 6.0355 6.82267C6.20344 6.80852 6.34456 6.76638 6.45951 6.69655V7.2195ZM11.0442 5.51868C10.9099 5.36342 10.7387 5.23917 10.544 5.15568C10.3429 5.0674 10.1077 5.02341 9.83838 5.02341C9.61742 5.02341 9.41204 5.0634 9.22223 5.14338C9.03242 5.22336 8.88434 5.35564 8.77834 5.54021H8.76509V5.10954H8.04956V9.46542H8.80484V7.87811H8.81809C8.8754 7.96424 8.94728 8.039 9.03341 8.10267C9.11954 8.16604 9.21328 8.21864 9.31498 8.25956C9.41668 8.30047 9.52268 8.33031 9.63299 8.34877C9.7433 8.36722 9.85394 8.37645 9.96425 8.37645C10.216 8.37645 10.4346 8.33031 10.6202 8.23802C10.8057 8.14574 10.959 8.02269 11.0806 7.86888C11.2018 7.71507 11.2926 7.53758 11.3522 7.3367C11.4121 7.13426 11.4422 6.92524 11.4417 6.71531C11.4417 6.48152 11.4086 6.26219 11.3423 6.05701C11.276 5.85152 11.1767 5.67248 11.0442 5.51868ZM10.6367 7.11183C10.6036 7.24534 10.5483 7.36408 10.4711 7.46867C10.3939 7.57326 10.2955 7.65847 10.1763 7.72399C10.057 7.78952 9.91125 7.82243 9.739 7.82243C9.5843 7.82243 9.44848 7.79382 9.33154 7.7363C9.21447 7.67893 9.11175 7.59926 9.0301 7.50251C8.9425 7.39739 8.87831 7.27714 8.84128 7.14875C8.79815 7.00349 8.77696 6.85337 8.77834 6.7027C8.77834 6.36217 8.85884 6.08962 9.02016 5.88443C9.18148 5.67925 9.42099 5.57681 9.739 5.57681C9.8937 5.57681 10.0305 5.6085 10.1498 5.67218C10.269 5.73555 10.3684 5.81983 10.4479 5.92442C10.5274 6.02901 10.587 6.14899 10.6268 6.28434C10.6665 6.41969 10.6864 6.55935 10.6864 6.7027C10.6864 6.84236 10.6698 6.97863 10.6367 7.11183ZM12.0972 3.89722H12.8525V4.56167H12.0972V3.89722ZM12.0972 5.10923H12.8525V8.29001H12.0972V5.10923Z" fill="#AEB6FF"/>
<path d="M0 0V15.9962H17.2256V0H0ZM0.662523 0.615237H16.5631V12.92H0.662523V0.615237Z" fill="#AEB6FF"/>
</svg>
