<svg width="16" height="16" viewBox="0 0 16 16" fill="none" xmlns="http://www.w3.org/2000/svg">
<g opacity="0.6" clip-path="url(#clip0_313_13)">
<path d="M4 6.80519H9.25C9.6625 6.80519 10 6.48961 10 6.1039V4.7013C10 4.31558 9.6625 4 9.25 4H4C3.5875 4 3.25 4.31558 3.25 4.7013V5.05195H1.75V4H1V12.0649C1 12.4506 1.3375 12.7662 1.75 12.7662H3.25V13.1169C3.25 13.5026 3.5875 13.8182 4 13.8182H9.25C9.6625 13.8182 10 13.5026 10 13.1169V11.7143C10 11.3286 9.6625 11.013 9.25 11.013H4C3.5875 11.013 3.25 11.3286 3.25 11.7143V12.0649H1.75V9.25974H3.25V9.61039C3.25 9.9961 3.5875 10.3117 4 10.3117H9.25C9.6625 10.3117 10 9.9961 10 9.61039V8.20779C10 7.82208 9.6625 7.50649 9.25 7.50649H4C3.5875 7.50649 3.25 7.82208 3.25 8.20779V8.55844H1.75V5.75325H3.25V6.1039C3.25 6.48961 3.5875 6.80519 4 6.80519ZM4 4.7013H9.25V6.1039H4V4.7013ZM4 11.7143H9.25V13.1169H4V11.7143ZM4 8.20779H9.25V9.61039H4V8.20779Z" fill="#DAC3FF"/>
</g>
<defs>
<clipPath id="clip0_313_13">
<rect width="16" height="16" fill="white"/>
</clipPath>
</defs>
</svg>
