<svg width="16" height="16" viewBox="0 0 16 16" fill="none" xmlns="http://www.w3.org/2000/svg">
<g opacity="0.6" clip-path="url(#clip0_320_40)">
<path d="M12.695 12.0001C12.885 11.5251 13 11.0201 13 10.5001C13 9.45006 12.58 8.45506 11.86 7.71506C11.945 7.49006 12 7.25006 12 7.00006C12 6.40506 11.735 5.87506 11.32 5.51006L12.71 4.12006C13.1 3.73006 13.1 3.09506 12.71 2.70506L11.295 1.29006C10.905 0.900059 10.27 0.900059 9.88 1.29006L3.295 7.88006C2.905 8.27006 2.905 8.90506 3.295 9.29506L4.71 10.7101C4.905 10.9051 5.16 11.0001 5.415 11.0001C5.67 11.0001 5.925 10.9001 6.12 10.7101L8.505 8.32006C8.87 8.73506 9.4 9.00006 9.995 9.00006C10.48 9.00006 10.915 8.82006 11.26 8.53506C11.73 9.07506 11.995 9.77006 11.995 10.5001C11.995 11.0351 11.85 11.5451 11.585 12.0001H7.995V14.0001H2V15.0001H14V12.0001H12.695ZM5.41 10.0001L3.995 8.58506L4.935 7.64506L6.35 9.06006L5.41 10.0001ZM7.995 7.00006C7.995 7.13006 8.01 7.25506 8.035 7.37506L7.055 8.35006L5.64 6.93506L10.585 2.00006L12 3.41506L10.375 5.04006C10.255 5.01506 10.13 5.00006 10 5.00006C8.895 5.00006 8 5.89506 8 7.00006H7.995ZM9.995 8.00006C9.445 8.00006 8.995 7.55006 8.995 7.00006C8.995 6.45006 9.445 6.00006 9.995 6.00006C10.545 6.00006 10.995 6.45006 10.995 7.00006C10.995 7.55006 10.545 8.00006 9.995 8.00006ZM12.995 14.0001H8.995V13.0001H12.995V14.0001Z" fill="#DAC3FF"/>
</g>
<defs>
<clipPath id="clip0_320_40">
<rect width="16" height="16" fill="white"/>
</clipPath>
</defs>
</svg>

