<svg width="48" height="18" viewBox="0 0 48 18" fill="none" xmlns="http://www.w3.org/2000/svg">
<rect x="0.5" y="0.5" width="47" height="17" rx="8.5" fill="#CC9900" fill-opacity="0.04"/>
<rect x="0.5" y="0.5" width="47" height="17" rx="8.5" fill="#FFEDB9"/>
<path d="M13.97 12.12C13.4967 12.12 13.07 12.0133 12.69 11.8C12.3167 11.58 12.02 11.2767 11.8 10.89C11.5867 10.4967 11.48 10.04 11.48 9.52C11.48 9 11.5867 8.54667 11.8 8.16C12.02 7.76667 12.3167 7.46333 12.69 7.25C13.07 7.03 13.4967 6.92 13.97 6.92C14.5567 6.92 15.05 7.07333 15.45 7.38C15.8567 7.68667 16.1133 8.09667 16.22 8.61H15.36C15.2933 8.30333 15.13 8.06667 14.87 7.9C14.61 7.72667 14.3067 7.64 13.96 7.64C13.68 7.64 13.4167 7.71 13.17 7.85C12.9233 7.99 12.7233 8.2 12.57 8.48C12.4167 8.76 12.34 9.10667 12.34 9.52C12.34 9.93333 12.4167 10.28 12.57 10.56C12.7233 10.84 12.9233 11.0533 13.17 11.2C13.4167 11.34 13.68 11.41 13.96 11.41C14.3067 11.41 14.61 11.3267 14.87 11.16C15.13 10.9867 15.2933 10.7433 15.36 10.43H16.22C16.12 10.93 15.8667 11.3367 15.46 11.65C15.0533 11.9633 14.5567 12.12 13.97 12.12ZM17.3931 12V4.8H18.2331V12H17.3931ZM21.8699 12.12C21.4033 12.12 20.9833 12.0133 20.6099 11.8C20.2366 11.5867 19.9399 11.2867 19.7199 10.9C19.5066 10.5067 19.3999 10.0467 19.3999 9.52C19.3999 8.99333 19.5099 8.53667 19.7299 8.15C19.9499 7.75667 20.2466 7.45333 20.6199 7.24C20.9999 7.02667 21.4233 6.92 21.8899 6.92C22.3566 6.92 22.7766 7.02667 23.1499 7.24C23.5233 7.45333 23.8166 7.75667 24.0299 8.15C24.2499 8.53667 24.3599 8.99333 24.3599 9.52C24.3599 10.0467 24.2499 10.5067 24.0299 10.9C23.8099 11.2867 23.5099 11.5867 23.1299 11.8C22.7566 12.0133 22.3366 12.12 21.8699 12.12ZM21.8699 11.4C22.1566 11.4 22.4233 11.33 22.6699 11.19C22.9166 11.05 23.1166 10.84 23.2699 10.56C23.4233 10.28 23.4999 9.93333 23.4999 9.52C23.4999 9.10667 23.4233 8.76 23.2699 8.48C23.1233 8.2 22.9266 7.99 22.6799 7.85C22.4333 7.71 22.1699 7.64 21.8899 7.64C21.6033 7.64 21.3366 7.71 21.0899 7.85C20.8433 7.99 20.6433 8.2 20.4899 8.48C20.3366 8.76 20.2599 9.10667 20.2599 9.52C20.2599 9.93333 20.3366 10.28 20.4899 10.56C20.6433 10.84 20.8399 11.05 21.0799 11.19C21.3266 11.33 21.5899 11.4 21.8699 11.4ZM27.3379 12.12C26.7512 12.12 26.2846 11.9433 25.9379 11.59C25.5912 11.23 25.4179 10.68 25.4179 9.94V7.04H26.2579V9.85C26.2579 10.8833 26.6812 11.4 27.5279 11.4C27.9612 11.4 28.3179 11.2467 28.5979 10.94C28.8846 10.6267 29.0279 10.1833 29.0279 9.61V7.04H29.8679V12H29.1079L29.0479 11.11C28.8946 11.4233 28.6646 11.67 28.3579 11.85C28.0579 12.03 27.7179 12.12 27.3379 12.12ZM33.5005 12.12C33.0072 12.12 32.5739 12.0067 32.2005 11.78C31.8339 11.5533 31.5472 11.2433 31.3405 10.85C31.1405 10.4567 31.0405 10.01 31.0405 9.51C31.0405 9.01 31.1439 8.56667 31.3505 8.18C31.5572 7.78667 31.8439 7.48 32.2105 7.26C32.5772 7.03333 33.0105 6.92 33.5105 6.92C33.9172 6.92 34.2772 7.00333 34.5905 7.17C34.9039 7.33667 35.1472 7.57 35.3205 7.87V4.8H36.1605V12H35.4005L35.3205 11.18C35.1605 11.42 34.9305 11.6367 34.6305 11.83C34.3305 12.0233 33.9539 12.12 33.5005 12.12ZM33.5905 11.39C33.9239 11.39 34.2172 11.3133 34.4705 11.16C34.7305 11 34.9305 10.78 35.0705 10.5C35.2172 10.22 35.2905 9.89333 35.2905 9.52C35.2905 9.14667 35.2172 8.82 35.0705 8.54C34.9305 8.26 34.7305 8.04333 34.4705 7.89C34.2172 7.73 33.9239 7.65 33.5905 7.65C33.2639 7.65 32.9705 7.73 32.7105 7.89C32.4572 8.04333 32.2572 8.26 32.1105 8.54C31.9705 8.82 31.9005 9.14667 31.9005 9.52C31.9005 9.89333 31.9705 10.22 32.1105 10.5C32.2572 10.78 32.4572 11 32.7105 11.16C32.9705 11.3133 33.2639 11.39 33.5905 11.39Z" fill="black"/>
<rect x="0.5" y="0.5" width="47" height="17" rx="8.5" stroke="black"/>
</svg>

