<svg width="16" height="17" viewBox="0 0 16 17" fill="none" xmlns="http://www.w3.org/2000/svg">
<g clip-path="url(#clip0_367_1169)">
<path d="M11.375 10.3749C11.0977 10.3749 10.841 10.4557 10.6178 10.5875L9.85606 9.82568L9.32578 10.356L10.0875 11.1177C9.95577 11.3409 9.875 11.5976 9.875 11.8749C9.875 12.702 10.5479 13.3749 11.375 13.3749C11.5084 13.3749 11.6354 13.3518 11.7586 13.3189L10.8448 12.4051C10.709 12.2693 10.625 12.0816 10.625 11.8748C10.625 11.4612 10.9614 11.1248 11.375 11.1248C11.5818 11.1248 11.7693 11.2089 11.9051 11.3447L12.819 12.2583C12.8519 12.1352 12.875 12.0082 12.875 11.8748C12.875 11.0477 12.2021 10.3749 11.375 10.3749Z" fill="#8F91A4"/>
<path d="M9.85606 7.17419L11.2677 5.7625C11.4144 5.83255 11.5766 5.875 11.75 5.875C12.3714 5.875 12.875 5.37134 12.875 4.75C12.875 4.12866 12.3714 3.625 11.75 3.625C11.1287 3.625 10.625 4.12866 10.625 4.75C10.625 4.92332 10.6675 5.08555 10.7375 5.23221L9.32581 6.6439L9.85606 7.17419ZM11.75 4.37504C11.9568 4.37504 12.125 4.54326 12.125 4.75004C12.125 4.95681 11.9568 5.12504 11.75 5.12504C11.5432 5.12504 11.375 4.95681 11.375 4.75004C11.375 4.54326 11.5432 4.37504 11.75 4.37504Z" fill="#8F91A4"/>
<path d="M7.99999 7C7.17154 7 6.49999 7.67155 6.49999 8.5C6.49999 8.77769 6.58062 9.03452 6.71213 9.25754L4.73232 11.2375C4.58566 11.1674 4.42339 11.125 4.25003 11.125C3.62869 11.125 3.12503 11.6287 3.12503 12.25C3.12503 12.8713 3.62869 13.375 4.25003 13.375C4.87137 13.375 5.37503 12.8713 5.37503 12.25C5.37503 12.0767 5.33258 11.9144 5.26257 11.7678L7.24253 9.78786C7.46558 9.91937 7.72234 10 8.00003 10C8.82844 10 9.50003 9.32841 9.50003 8.5C9.50003 7.67159 8.82841 7 7.99999 7ZM4.24999 12.625C4.04322 12.625 3.87499 12.4568 3.87499 12.25C3.87499 12.0432 4.04322 11.875 4.24999 11.875C4.45677 11.875 4.62499 12.0432 4.62499 12.25C4.62499 12.4568 4.45677 12.625 4.24999 12.625ZM7.99999 9.25C7.58644 9.25 7.24999 8.91355 7.24999 8.5C7.24999 8.08645 7.58644 7.75 7.99999 7.75C8.41354 7.75 8.74999 8.08645 8.74999 8.5C8.74999 8.91355 8.41354 9.25 7.99999 9.25Z" fill="#8F91A4"/>
<path d="M4.62499 6.625C4.90234 6.625 5.15903 6.54419 5.38216 6.41241L6.14382 7.17408L6.67411 6.64379L5.91244 5.88212C6.04422 5.659 6.12499 5.40231 6.12499 5.125C6.12499 4.2979 5.45209 3.625 4.62499 3.625C4.49161 3.625 4.36463 3.64806 4.24144 3.68095L5.15524 4.59475C5.29103 4.73054 5.37499 4.91823 5.37499 5.12504C5.37499 5.53866 5.03862 5.87504 4.62499 5.87504C4.41818 5.87504 4.23068 5.79096 4.09489 5.65514L3.18094 4.74152C3.14813 4.86467 3.12503 4.99165 3.12503 5.12504C3.12503 5.95214 3.79789 6.625 4.62499 6.625Z" fill="#8F91A4"/>
</g>
<defs>
<clipPath id="clip0_367_1169">
<rect width="12" height="12" fill="white" transform="translate(2 2.5)"/>
</clipPath>
</defs>
</svg>
