<svg width="18" height="18" viewBox="0 0 18 18" fill="none" xmlns="http://www.w3.org/2000/svg">
<circle cx="9" cy="9" r="9" fill="#FFBF00"/>
<path d="M13.91 7.49932C13.8463 7.1507 13.7364 6.82062 13.5876 6.5165C13.1022 5.51142 12.1917 4.77337 11.0969 4.55455C10.8843 4.51375 10.6646 4.4915 10.4521 4.48779H10.4273C10.1084 4.48779 9.79305 4.5323 9.49544 4.62131C8.23412 4.98106 7.21019 6.06403 6.94447 7.49932C5.68315 7.73669 4.76197 8.88641 4.75842 10.229C4.75842 10.5554 4.81157 10.8706 4.91786 11.1636C5.00289 11.4306 5.13398 11.6828 5.29696 11.9054C5.77881 12.5804 6.54765 13.0143 7.41569 13.018H13.4424C13.492 13.018 13.5416 13.018 13.5876 13.0106C14.81 12.9401 15.8339 12.0018 16.0536 10.7297C16.0819 10.5628 16.0961 10.3959 16.0961 10.2327C16.0961 8.91237 15.1962 7.74039 13.91 7.49932ZM15.3556 10.5999C15.1962 11.5159 14.4663 12.1983 13.5876 12.2688C13.5416 12.2725 13.492 12.2762 13.4424 12.2762H7.41569C6.99761 12.2762 6.61142 12.139 6.29609 11.9054C6.03745 11.7125 5.82841 11.4603 5.68669 11.1636C5.54497 10.8817 5.46703 10.5665 5.46703 10.2327C5.47057 9.24616 6.14374 8.40427 7.07201 8.22624L7.55032 8.13723L7.64244 7.63655C7.87982 6.34218 8.91084 5.37419 10.1438 5.24438C10.2359 5.23326 10.3316 5.22955 10.4273 5.22955C10.6079 5.22955 10.7851 5.24809 10.9658 5.28518C10.987 5.28889 11.0048 5.2926 11.026 5.30002C12.1421 5.5485 12.9995 6.46086 13.2156 7.63655L13.2333 7.74039L13.2369 7.7441L13.3077 8.13723L13.4246 8.15949L13.5876 8.18916L13.786 8.22624C14.2962 8.32638 14.7426 8.62308 15.0403 9.07185C15.3379 9.52061 15.4513 10.0621 15.3556 10.5999Z" fill="#1C1C46"/>
<path d="M13.2369 7.74394L13.3078 8.13707L13.4247 8.15933C13.3715 8.01468 13.3113 7.87746 13.2369 7.74394ZM8.58846 3.44176C8.36171 3.39725 8.14204 3.375 7.91883 3.375C6.57957 3.375 5.35368 4.17239 4.75846 5.40741C4.60965 5.70782 4.49982 6.0379 4.43604 6.38653C3.17118 6.62389 2.25354 7.77361 2.25 9.11619V9.12361C2.25 10.6034 3.35896 11.8199 4.75846 11.8978C4.80806 11.9052 4.85412 11.9052 4.90372 11.9052H6.29613C6.03749 11.7123 5.82845 11.4601 5.68673 11.1634H4.90726C4.85766 11.1634 4.80806 11.1597 4.75846 11.156C3.7487 11.0744 2.95506 10.1917 2.9586 9.1199C2.96215 8.13337 3.63532 7.29147 4.56359 7.11345L4.75846 7.07636L5.03835 7.02444L5.13047 6.52376C5.38911 5.12925 6.56185 4.11676 7.91883 4.11676C8.09952 4.11676 8.27667 4.1353 8.45382 4.17239C8.83647 4.25027 9.18723 4.40233 9.49547 4.62115C9.74348 4.78805 9.96315 5.00315 10.1438 5.24423C10.236 5.2331 10.3316 5.22939 10.4273 5.22939C10.608 5.22939 10.7851 5.24793 10.9658 5.28502C10.9871 5.28873 11.0048 5.29244 11.0261 5.29986C10.8702 5.00315 10.6753 4.72871 10.4521 4.48763C9.95606 3.96099 9.31123 3.5864 8.58846 3.44176Z" fill="#1C1C46"/>
</svg>
