<svg width="18" height="18" viewBox="0 0 18 18" fill="none" xmlns="http://www.w3.org/2000/svg">
<circle cx="9" cy="9" r="9" fill="#5552FF"/>
<path d="M5.13281 12.5859V9.36211L3.8707 10.6242L3.375 10.125L5.48438 8.01562L7.59375 10.125L7.09805 10.6207L5.83594 9.35859V12.5824H10.0547V13.2855H5.83594C5.44922 13.2855 5.13281 12.9691 5.13281 12.5824V12.5859Z" fill="white"/>
<path d="M11.8125 11.5312H13.2188C13.6055 11.5312 13.9219 11.8477 13.9219 12.2344V13.6406C13.9219 14.0273 13.6055 14.3438 13.2188 14.3438H11.8125C11.4258 14.3438 11.1094 14.0273 11.1094 13.6406V12.2344C11.1094 11.8477 11.4258 11.5312 11.8125 11.5312ZM13.2188 13.6406V12.2344H11.8125V13.6406H13.2188Z" fill="white"/>
<path d="M12.8672 5.90625V9.13008L14.1293 7.86797L14.625 8.36367L12.5156 10.473L10.4062 8.36367L10.902 7.86797L12.1641 9.13008V5.90625H7.94531V5.20312H12.1641C12.5508 5.20312 12.8672 5.51953 12.8672 5.90625Z" fill="white"/>
<path d="M6.1875 5.90625H4.07812V6.60938H6.1875V5.90625Z" fill="white"/>
<path d="M6.89062 4.5H4.07812V5.20312H6.89062V4.5Z" fill="white"/>
</svg>
