<svg width="18" height="18" viewBox="0 0 18 18" fill="none" xmlns="http://www.w3.org/2000/svg">
<circle cx="9" cy="9" r="9" fill="#8C31FF"/>
<g clip-path="url(#clip0_101_1439)">
<path d="M11.4885 2.73828L9.27413 4.95266L9.79621 5.47019L11.1194 4.14751V12.3339H5.21444V6.42891H4.47632V12.3339C4.47656 12.5296 4.55441 12.7172 4.69278 12.8556C4.83115 12.9939 5.01876 13.0718 5.21444 13.072H11.1194C11.3151 13.0718 11.5027 12.9939 11.6411 12.8556C11.7795 12.7172 11.8573 12.5296 11.8576 12.3339V4.1464L13.181 5.47019L13.7029 4.95266L11.4885 2.73828Z" fill="#E5E7F3"/>
<path d="M8.90505 10.8573H7.4288C7.2331 10.8571 7.04549 10.7792 6.90711 10.6408C6.76874 10.5025 6.6909 10.3149 6.69067 10.1192V8.64291C6.6909 8.44722 6.76874 8.2596 6.90711 8.12122C7.04549 7.98285 7.2331 7.90501 7.4288 7.90479H8.90505C9.10074 7.90501 9.28836 7.98285 9.42673 8.12122C9.56511 8.2596 9.64295 8.44722 9.64317 8.64291V10.1192C9.64295 10.3149 9.56511 10.5025 9.42673 10.6408C9.28836 10.7792 9.10074 10.8571 8.90505 10.8573ZM7.4288 8.64291V10.1192H8.90505V8.64291H7.4288Z" fill="#E5E7F3"/>
</g>
<defs>
<clipPath id="clip0_101_1439">
<rect width="11.81" height="11.81" fill="white" transform="translate(3 2)"/>
</clipPath>
</defs>
</svg>
