<svg width="14" height="15" viewBox="0 0 14 15" fill="none" xmlns="http://www.w3.org/2000/svg">
<g clip-path="url(#clip0_367_1124)">
<path d="M9.92595 1.36328L7.33657 3.95266L7.94706 4.55784L9.49438 3.01116V12.5839H2.58938V5.67891H1.72626V12.5839C1.72654 12.8127 1.81757 13.0321 1.97938 13.1939C2.14118 13.3557 2.36055 13.4467 2.58938 13.447H9.49438C9.72321 13.4467 9.94258 13.3557 10.1044 13.1939C10.2662 13.0321 10.3572 12.8127 10.3575 12.5839V3.00986L11.905 4.55784L12.5153 3.95266L9.92595 1.36328Z" fill="#8F91A4"/>
<path d="M6.90499 10.8573H5.17874C4.9499 10.857 4.73052 10.766 4.56871 10.6042C4.4069 10.4424 4.31588 10.223 4.31561 9.99416V8.26791C4.31588 8.03908 4.4069 7.81969 4.56871 7.65788C4.73052 7.49607 4.9499 7.40505 5.17874 7.40479H6.90499C7.13382 7.40505 7.35321 7.49607 7.51502 7.65788C7.67683 7.81969 7.76785 8.03908 7.76811 8.26791V9.99416C7.76785 10.223 7.67683 10.4424 7.51502 10.6042C7.35321 10.766 7.13382 10.857 6.90499 10.8573ZM5.17874 8.26791V9.99416H6.90499V8.26791H5.17874Z" fill="#8F91A4"/>
</g>
<defs>
<clipPath id="clip0_367_1124">
<rect width="13.81" height="13.81" fill="white" transform="translate(0 0.5)"/>
</clipPath>
</defs>
</svg>
