<svg width="15" height="15" viewBox="0 0 15 15" fill="none" xmlns="http://www.w3.org/2000/svg">
<path fill-rule="evenodd" clip-rule="evenodd" d="M7.50005 0.500042C5.83819 0.500265 4.23062 1.09173 2.9649 2.16864C1.69918 3.24555 0.857882 4.73764 0.591503 6.37801C0.325123 8.01838 0.651037 9.70002 1.51095 11.1221C2.37085 12.5442 3.70866 13.614 5.28505 14.14C5.63505 14.205 5.78505 13.99 5.78505 13.805C5.78505 13.62 5.78505 13.2 5.78505 12.615C3.84005 13.035 3.43005 11.675 3.43005 11.675C3.29328 11.2465 3.00541 10.8822 2.62005 10.65C1.98505 10.22 2.67005 10.225 2.67005 10.225C2.89185 10.2564 3.10356 10.338 3.28901 10.4636C3.47445 10.5893 3.62873 10.7557 3.74005 10.95C3.93372 11.2974 4.25742 11.5536 4.63997 11.6624C5.02251 11.7712 5.4326 11.7236 5.78005 11.53C5.80828 11.1753 5.96468 10.8429 6.22005 10.595C4.67005 10.415 3.03505 9.81504 3.03505 7.13504C3.02371 6.43899 3.28166 5.76546 3.75505 5.25504C3.54078 4.65214 3.56583 3.99003 3.82505 3.40504C3.82505 3.40504 4.41005 3.21504 5.75005 4.12004C6.89579 3.80752 8.10431 3.80752 9.25005 4.12004C10.585 3.21504 11.17 3.40504 11.17 3.40504C11.4293 3.99003 11.4543 4.65214 11.24 5.25504C11.7134 5.76546 11.9714 6.43899 11.96 7.13504C11.96 9.82504 10.3251 10.415 8.76505 10.59C8.93216 10.7594 9.06102 10.9627 9.14296 11.186C9.2249 11.4094 9.258 11.6478 9.24005 11.885C9.24005 12.82 9.24005 13.575 9.24005 13.805C9.24005 14.035 9.36505 14.21 9.74005 14.14C11.3185 13.6133 12.6577 12.5415 13.5175 11.1168C14.3772 9.69207 14.7014 8.00767 14.4317 6.36564C14.162 4.7236 13.3162 3.23133 12.046 2.15643C10.7757 1.08152 9.16407 0.494293 7.50005 0.500042Z" fill="white"/>
</svg>
