<svg width="14" height="15" viewBox="0 0 14 15" fill="none" xmlns="http://www.w3.org/2000/svg">
<g clip-path="url(#clip0_367_1077)">
<path d="M7 2.25C8.03835 2.25 9.05339 2.55791 9.91675 3.13478C10.7801 3.71166 11.453 4.5316 11.8504 5.49091C12.2477 6.45022 12.3517 7.50582 12.1491 8.52422C11.9466 9.54262 11.4465 10.4781 10.7123 11.2123C9.97809 11.9465 9.04263 12.4466 8.02423 12.6491C7.00583 12.8517 5.95023 12.7477 4.99091 12.3504C4.0316 11.953 3.21166 11.2801 2.63479 10.4167C2.05791 9.55339 1.75 8.53835 1.75 7.5C1.75 6.10761 2.30313 4.77226 3.28769 3.78769C4.27226 2.80312 5.60762 2.25 7 2.25ZM7 1.375C5.78859 1.375 4.60439 1.73423 3.59713 2.40725C2.58988 3.08027 1.80483 4.03687 1.34124 5.15606C0.877654 6.27526 0.756358 7.50679 0.992693 8.69493C1.22903 9.88306 1.81238 10.9744 2.66897 11.831C3.52557 12.6876 4.61694 13.271 5.80507 13.5073C6.99321 13.7436 8.22474 13.6223 9.34394 13.1588C10.4631 12.6952 11.4197 11.9101 12.0928 10.9029C12.7658 9.89562 13.125 8.71141 13.125 7.5C13.125 5.87555 12.4797 4.31763 11.331 3.16897C10.1824 2.02031 8.62445 1.375 7 1.375Z" fill="#8F91A4"/>
<path d="M10.0625 5.05437L9.44563 4.4375L7.56438 6.31875C7.31946 6.20178 7.0443 6.16361 6.77679 6.20951C6.50928 6.25541 6.26258 6.38311 6.07066 6.57503C5.87874 6.76695 5.75103 7.01365 5.70514 7.28116C5.65924 7.54867 5.6974 7.82383 5.81437 8.06875L3.9375 9.94563L4.55437 10.5625L6.43563 8.68125C6.68054 8.79822 6.9557 8.83639 7.22321 8.79049C7.49072 8.74459 7.73742 8.61689 7.92934 8.42497C8.12126 8.23305 8.24897 7.98635 8.29486 7.71884C8.34076 7.45133 8.3026 7.17617 8.18562 6.93125L10.0625 5.05437ZM7.4375 7.5C7.4375 7.58653 7.41184 7.67112 7.36377 7.74306C7.3157 7.81501 7.24737 7.87108 7.16742 7.9042C7.08748 7.93731 6.99951 7.94597 6.91465 7.92909C6.82978 7.91221 6.75183 7.87054 6.69064 7.80936C6.62946 7.74817 6.58779 7.67022 6.57091 7.58535C6.55403 7.50049 6.56269 7.41252 6.5958 7.33258C6.62892 7.25263 6.68499 7.18431 6.75694 7.13623C6.82888 7.08816 6.91347 7.0625 7 7.0625C7.11603 7.0625 7.22731 7.10859 7.30936 7.19064C7.39141 7.27269 7.4375 7.38397 7.4375 7.5Z" fill="#8F91A4"/>
<path d="M7 4.4375C7.36244 4.4375 7.65625 4.14369 7.65625 3.78125C7.65625 3.41881 7.36244 3.125 7 3.125C6.63756 3.125 6.34375 3.41881 6.34375 3.78125C6.34375 4.14369 6.63756 4.4375 7 4.4375Z" fill="#86869A"/>
</g>
<defs>
<clipPath id="clip0_367_1077">
<rect width="14" height="14" fill="white" transform="translate(0 0.5)"/>
</clipPath>
</defs>
</svg>
