<svg width="18" height="19" viewBox="0 0 18 19" fill="none" xmlns="http://www.w3.org/2000/svg">
<circle cx="9" cy="9.5" r="9" fill="#5552FF"/>
<g clip-path="url(#clip0_307_755)">
<path d="M9.25734 3.68551C9.10547 3.56316 8.88609 3.56316 8.73422 3.68551L2.67188 8.41473L3.195 9.07707L3.9375 8.4991V13.7219C3.9375 14.186 4.31719 14.5657 4.78125 14.5657H13.2188C13.6828 14.5657 14.0625 14.186 14.0625 13.7219V8.50332L14.805 9.08129L15.3281 8.41895L9.25734 3.68551ZM9.84375 13.7219H8.15625V10.3469H9.84375V13.7219ZM10.6875 13.7219V10.3469C10.6875 9.88285 10.3078 9.50316 9.84375 9.50316H8.15625C7.69219 9.50316 7.3125 9.88285 7.3125 10.3469V13.7219H4.78125V7.84098L9 4.55457L13.2188 7.84519V13.7219H10.6875Z" fill="white"/>
</g>
<defs>
<clipPath id="clip0_307_755">
<rect x="2.25" y="2.75" width="13.5" height="13.5" rx="6.75" fill="white"/>
</clipPath>
</defs>
</svg>
