<svg width="16" height="17" viewBox="0 0 16 17" fill="none" xmlns="http://www.w3.org/2000/svg">
<path d="M13.6949 7.40998H8.10492V9.72499H11.3249C11.0249 11.2 9.76992 12.045 8.10492 12.045C7.16473 12.045 6.26304 11.6715 5.59823 11.0067C4.93341 10.3419 4.55992 9.44018 4.55992 8.49998C4.55992 7.55979 4.93341 6.65811 5.59823 5.99329C6.26304 5.32847 7.16473 4.95498 8.10492 4.95498C8.91055 4.95612 9.69113 5.23515 10.3149 5.74498L12.0599 3.99998C11.3314 3.35748 10.4577 2.90147 9.51407 2.67113C8.57039 2.44079 7.5849 2.44301 6.64227 2.6776C5.69965 2.9122 4.82807 3.37215 4.10244 4.01793C3.37681 4.66372 2.81882 5.47603 2.47642 6.38506C2.13402 7.29409 2.01744 8.27266 2.13671 9.23669C2.25598 10.2007 2.60752 11.1214 3.16114 11.9196C3.71475 12.7177 4.45388 13.3696 5.31502 13.819C6.17615 14.2685 7.13354 14.5022 8.10492 14.5C11.1049 14.5 13.8299 12.32 13.8299 8.49998C13.827 8.13267 13.7817 7.76692 13.6949 7.40998Z" fill="white"/>
</svg>
