<svg width="18" height="18" viewBox="0 0 18 18" fill="none" xmlns="http://www.w3.org/2000/svg">
<circle cx="9" cy="9" r="9" fill="#8C31FF"/>
<path d="M7.5974 14.7815C7.52572 14.7512 7.46615 14.6979 7.42809 14.6301C7.39004 14.5622 7.37566 14.4836 7.38723 14.4066L8.02476 10.2549H6.33286C6.27922 10.2564 6.22596 10.2455 6.17721 10.2231C6.12845 10.2007 6.08549 10.1674 6.05164 10.1257C6.01779 10.0841 5.99396 10.0352 5.98198 9.9829C5.97 9.93058 5.9702 9.87622 5.98257 9.82399L7.03344 5.26941C7.05193 5.19102 7.09686 5.1214 7.16066 5.07227C7.22446 5.02313 7.30323 4.99748 7.38373 4.99964H10.8866C10.939 4.99946 10.9907 5.01101 11.038 5.03344C11.0852 5.05588 11.1269 5.08862 11.1599 5.12927C11.1933 5.17037 11.217 5.21853 11.2291 5.27012C11.2412 5.3217 11.2415 5.37536 11.2299 5.42707L10.6239 8.15281H12.2878C12.3534 8.15268 12.4178 8.171 12.4736 8.20569C12.5293 8.24038 12.5742 8.29004 12.6031 8.34901C12.6282 8.4056 12.6378 8.46784 12.631 8.52938C12.6243 8.59093 12.6013 8.64958 12.5645 8.69936L8.01075 14.6554C7.97997 14.701 7.93888 14.7387 7.8908 14.7655C7.84272 14.7923 7.78901 14.8074 7.73402 14.8095C7.68715 14.8086 7.64084 14.7991 7.5974 14.7815ZM9.74819 8.85352L10.4488 5.70034H7.66396L6.77422 9.55422H8.84444L8.28748 13.1558L11.5872 8.85352H9.74819Z" fill="#E5E7F3"/>
</svg>
