<svg width="18" height="19" viewBox="0 0 18 19" fill="none" xmlns="http://www.w3.org/2000/svg">
<circle cx="9" cy="9.5" r="9" fill="#1C8881"/>
<g clip-path="url(#clip0_307_869)">
<path d="M8.88753 4.40928C11.6379 4.40928 13.8657 6.63699 13.8657 9.3874C13.8657 12.1378 11.6379 14.3655 8.88753 14.3655C6.13711 14.3655 3.9094 12.1378 3.9094 9.3874C3.9094 6.64114 6.14126 4.41343 8.88753 4.40928ZM8.88753 3.57959C5.68078 3.57959 3.07971 6.18066 3.07971 9.3874C3.07971 12.5941 5.68078 15.1952 8.88753 15.1952C12.0943 15.1952 14.6953 12.5941 14.6953 9.3874C14.6953 6.18066 12.0943 3.57959 8.88753 3.57959Z" fill="white"/>
<path d="M6.81328 12.2916C6.73861 12.2916 6.65979 12.2708 6.59341 12.2293C6.47311 12.1547 6.39844 12.0219 6.39844 11.8767V6.89859C6.39844 6.7534 6.47311 6.62065 6.59341 6.54598C6.71787 6.4713 6.86721 6.46301 6.99581 6.52938L11.9739 9.01845C12.115 9.08897 12.2021 9.23416 12.2021 9.38766C12.2021 9.54115 12.115 9.69049 11.9739 9.75687L6.99581 12.2459C6.93773 12.275 6.87551 12.2916 6.80913 12.2916H6.81328ZM7.22813 7.57064V11.2047L10.8622 9.38766L7.22813 7.57064Z" fill="white"/>
</g>
<defs>
<clipPath id="clip0_307_869">
<rect width="13.275" height="13.275" fill="white" transform="translate(2.25 2.75)"/>
</clipPath>
</defs>
</svg>
