<svg id="Layer_1" data-name="Layer 1" xmlns="http://www.w3.org/2000/svg" xmlns:xlink="http://www.w3.org/1999/xlink" viewBox="0 0 82.73 51.57"><defs><linearGradient id="linear-gradient" x1="1.36" y1="49.73" x2="80.69" y2="2.26" gradientUnits="userSpaceOnUse"><stop offset="0" stop-color="#47479d"/><stop offset="1" stop-color="#323267"/></linearGradient><clipPath id="clip-path"><path d="M67.7,12.78c0-.06,0-.11,0-.17a5.53,5.53,0,0,0-.56-2.8l-.31-.62-.15.68a5,5,0,0,1-2.95,3.57l-.21.1.08.22A4.88,4.88,0,0,1,63.9,16a5.26,5.26,0,0,1-.26,1.19l-.17.47.47-.15A5.51,5.51,0,0,0,67.7,12.78Zm-3.2,3.93-.25.13,0-.27a5.57,5.57,0,0,0-.13-2.66l0-.11.1-.05A5.57,5.57,0,0,0,66.83,11l.16-.37.09.39a5,5,0,0,1-2.58,5.66Z" fill="none"/></clipPath><clipPath id="clip-path-2"><path d="M66.53,13.05a7.06,7.06,0,0,0,.37-1.54,5.45,5.45,0,0,1-.69,1l-.13.31h0a4.85,4.85,0,0,1-1.45,1.85,3.66,3.66,0,0,1,.05.57A5.47,5.47,0,0,0,66.53,13.05Z" fill="none"/></clipPath><clipPath id="clip-path-3"><path d="M63.64,15.31a4.89,4.89,0,0,1-1.41.42l-.28,0,.14-.24c.09-.16.18-.33.25-.49A5.46,5.46,0,0,0,62.83,13v-.12H63a5.53,5.53,0,0,0,2.48-1,4.52,4.52,0,0,0,.85-1.53,5,5,0,0,1-3.71,2.06l-.23,0v.23a5,5,0,0,1-.45,2.19,4.41,4.41,0,0,1-.64,1l-.3.39h.49a5.43,5.43,0,0,0,2.18-.42A3.25,3.25,0,0,0,63.64,15.31Z" fill="none"/></clipPath></defs><title>Covalent Executors</title><rect width="82.73" height="51.57" rx="2.7" fill="url(#linear-gradient)"/><path d="M41.38,31v-.75a4.63,4.63,0,0,0,1.38-.22l.23.71A5.17,5.17,0,0,1,41.38,31Zm-1.62-.25A5.43,5.43,0,0,1,38.3,30l.44-.61a4.32,4.32,0,0,0,1.25.63ZM44.44,30l-.44-.6a4.43,4.43,0,0,0,1-1l.61.44A5.07,5.07,0,0,1,44.44,30Zm-7.3-1.13a5.23,5.23,0,0,1-.74-1.45l.71-.24a4.23,4.23,0,0,0,.64,1.25Zm9.2-1.48-.71-.23a4.62,4.62,0,0,0,.21-1.38l.54,0,.21,0A5.19,5.19,0,0,1,46.34,27.4ZM36.13,25.81v0a5,5,0,0,1,.25-1.59l.71.23a4.44,4.44,0,0,0-.21,1.36Zm9.48-1.46A4.6,4.6,0,0,0,45,23.11l.6-.44a5.11,5.11,0,0,1,.76,1.44Zm-7.89-1.17-.61-.44a5.07,5.07,0,0,1,1.15-1.16l.44.6A4.89,4.89,0,0,0,37.72,23.18ZM44,22.13a4.43,4.43,0,0,0-1.25-.62l.22-.71a5,5,0,0,1,1.47.72Zm-4-.6-.23-.71a5.49,5.49,0,0,1,1.61-.27v.75A4.64,4.64,0,0,0,39.94,21.53Z" fill="#dac3ff"/><circle cx="38.61" cy="17.44" r="1.16" fill="#dac3ff"/><circle cx="44.12" cy="17.44" r="1.16" fill="#dac3ff"/><circle cx="49.71" cy="23.03" r="1.16" fill="#dac3ff"/><circle cx="49.71" cy="28.55" r="1.16" fill="#dac3ff"/><circle cx="33.02" cy="23.03" r="1.16" fill="#dac3ff"/><circle cx="33.02" cy="28.55" r="1.16" fill="#dac3ff"/><circle cx="38.61" cy="34.13" r="1.16" fill="#dac3ff"/><circle cx="44.12" cy="34.13" r="1.16" fill="#dac3ff"/><polygon points="60.01 13.41 58.34 12.45 58.34 14.37 60.01 13.41" fill="#dac3ff"/><polygon points="68.24 28.55 66.58 27.58 66.58 29.51 68.24 28.55" fill="#dac3ff"/><polygon points="60.21 36.88 61.17 35.21 59.25 35.21 60.21 36.88" fill="#dac3ff"/><polygon points="24.8 43.33 26.46 44.29 26.46 42.37 24.8 43.33" fill="#dac3ff"/><polygon points="25.9 19.41 24.94 21.08 26.86 21.08 25.9 19.41" fill="#dac3ff"/><polygon points="6.44 15.48 7.4 13.81 5.48 13.81 6.44 15.48" fill="#dac3ff"/><path d="M69,23.2H49.71v-.35H69a1.23,1.23,0,0,0,1.23-1.23V18.28a1.59,1.59,0,0,1,1.59-1.58h11v.35h-11a1.24,1.24,0,0,0-1.24,1.23v3.34A1.58,1.58,0,0,1,69,23.2Z" fill="#dac3ff"/><rect x="49.71" y="28.37" width="17.83" height="0.35" fill="#dac3ff"/><path d="M60.39,35.86H60V30a1.23,1.23,0,0,0-1.23-1.23H56.74v-.35h2.07A1.58,1.58,0,0,1,60.39,30Z" fill="#dac3ff"/><path d="M49.88,51.57h-.35V40.38a1.23,1.23,0,0,0-1.23-1.23H45.53a1.59,1.59,0,0,1-1.59-1.58V34.13h.35v3.44a1.24,1.24,0,0,0,1.24,1.23H48.3a1.58,1.58,0,0,1,1.58,1.58Z" fill="#dac3ff"/><path d="M37.19,43.51H25.8v-.35H37.19a1.25,1.25,0,0,0,1.24-1.24V34.13h.35v7.79A1.59,1.59,0,0,1,37.19,43.51Z" fill="#dac3ff"/><path d="M31.13,51.57h-.35V44.74a1.59,1.59,0,0,1,1.59-1.58h2.18v.35H32.37a1.24,1.24,0,0,0-1.24,1.23Z" fill="#dac3ff"/><path d="M19.61,34.61H0v-.35H19.61A1.23,1.23,0,0,0,20.84,33V30a1.58,1.58,0,0,1,1.58-1.58H33v.35H22.42A1.24,1.24,0,0,0,21.19,30V33A1.58,1.58,0,0,1,19.61,34.61Z" fill="#dac3ff"/><path d="M33,23.2h-5.7a1.58,1.58,0,0,1-1.58-1.58v-.9h.35v.9a1.23,1.23,0,0,0,1.23,1.23H33Z" fill="#dac3ff"/><path d="M38.78,17.44h-.35V9.16a1.24,1.24,0,0,0-1.24-1.23H7.85A1.23,1.23,0,0,0,6.62,9.16v5.06H6.27V9.16A1.58,1.58,0,0,1,7.85,7.58H37.19a1.59,1.59,0,0,1,1.59,1.58Z" fill="#dac3ff"/><path d="M16.44,7.93h-5.8A1.59,1.59,0,0,1,9.06,6.34V0h.35V6.34a1.24,1.24,0,0,0,1.23,1.24h5.8Z" fill="#dac3ff"/><path d="M44.29,17.44h-.35V14.8a1.58,1.58,0,0,1,1.57-1.57H59.19v.35H45.51a1.22,1.22,0,0,0-1.22,1.22Z" fill="#dac3ff"/><path d="M48.46,13.58H46.22v-.35h2.24A1.22,1.22,0,0,0,49.68,12V0H50V12A1.57,1.57,0,0,1,48.46,13.58Z" fill="#dac3ff"/><g clip-path="url(#clip-path)"><polygon points="64.17 10.66 64.14 10.87 64.14 10.66 64.17 10.66" fill="#c94731"/><polygon points="64.2 10.66 64.14 11.11 64.14 10.87 64.17 10.66 64.2 10.66" fill="#c94832"/><polygon points="64.23 10.66 64.14 11.35 64.14 11.11 64.2 10.66 64.23 10.66" fill="#c94932"/><polygon points="64.27 10.66 64.14 11.59 64.14 11.35 64.23 10.66 64.27 10.66" fill="#c94a33"/><polygon points="64.3 10.66 64.14 11.83 64.14 11.59 64.27 10.66 64.3 10.66" fill="#ca4b33"/><polygon points="64.33 10.66 64.14 12.07 64.14 11.83 64.3 10.66 64.33 10.66" fill="#ca4c34"/><polygon points="64.37 10.66 64.14 12.31 64.14 12.07 64.33 10.66 64.37 10.66" fill="#ca4d34"/><polygon points="64.4 10.66 64.14 12.55 64.14 12.31 64.37 10.66 64.4 10.66" fill="#cb4e35"/><polygon points="64.44 10.66 64.14 12.79 64.14 12.55 64.4 10.66 64.44 10.66" fill="#cb4f35"/><polygon points="64.47 10.66 64.14 13.03 64.14 12.79 64.44 10.66 64.47 10.66" fill="#cb5036"/><polygon points="64.5 10.66 64.14 13.27 64.14 13.03 64.47 10.66 64.5 10.66" fill="#cc5136"/><polygon points="64.53 10.66 64.14 13.51 64.14 13.27 64.5 10.66 64.53 10.66" fill="#cc5236"/><polygon points="64.57 10.66 64.14 13.74 64.14 13.51 64.53 10.66 64.57 10.66" fill="#cc5337"/><polygon points="64.6 10.66 64.14 13.98 64.14 13.74 64.57 10.66 64.6 10.66" fill="#cc5437"/><polygon points="64.64 10.66 64.14 14.22 64.14 13.98 64.6 10.66 64.64 10.66" fill="#cd5538"/><polygon points="64.67 10.66 64.14 14.46 64.14 14.22 64.64 10.66 64.67 10.66" fill="#cd5638"/><polygon points="64.7 10.66 64.14 14.7 64.14 14.46 64.67 10.66 64.7 10.66" fill="#cd5739"/><polygon points="64.73 10.66 64.14 14.94 64.14 14.7 64.7 10.66 64.73 10.66" fill="#ce5939"/><polygon points="64.77 10.66 64.14 15.18 64.14 14.94 64.73 10.66 64.77 10.66" fill="#ce5a3a"/><polygon points="64.8 10.66 64.14 15.42 64.14 15.18 64.77 10.66 64.8 10.66" fill="#ce5b3a"/><polygon points="64.83 10.66 64.14 15.66 64.14 15.42 64.8 10.66 64.83 10.66" fill="#cf5c3b"/><polygon points="64.87 10.66 64.14 15.9 64.14 15.66 64.83 10.66 64.87 10.66" fill="#cf5d3b"/><polygon points="64.9 10.66 64.14 16.14 64.14 15.9 64.87 10.66 64.9 10.66" fill="#cf5e3c"/><polygon points="64.93 10.66 64.14 16.38 64.14 16.14 64.9 10.66 64.93 10.66" fill="#cf5f3c"/><polygon points="64.97 10.66 64.14 16.62 64.14 16.38 64.93 10.66 64.97 10.66" fill="#d0603c"/><polygon points="65 10.66 64.14 16.84 64.14 16.84 64.14 16.62 64.97 10.66 65 10.66" fill="#d0613d"/><polygon points="65.03 10.66 64.18 16.84 64.14 16.84 65 10.66 65.03 10.66" fill="#d0623d"/><polygon points="65.07 10.66 64.21 16.84 64.18 16.84 65.03 10.66 65.07 10.66" fill="#d1633e"/><polygon points="65.1 10.66 64.24 16.84 64.21 16.84 65.07 10.66 65.1 10.66" fill="#d1643e"/><polygon points="65.13 10.66 64.28 16.84 64.24 16.84 65.1 10.66 65.13 10.66" fill="#d1653f"/><polygon points="65.17 10.66 64.31 16.84 64.28 16.84 65.13 10.66 65.17 10.66" fill="#d2663f"/><polygon points="65.2 10.66 64.34 16.84 64.31 16.84 65.17 10.66 65.2 10.66" fill="#d26740"/><polygon points="65.23 10.66 64.38 16.84 64.34 16.84 65.2 10.66 65.23 10.66" fill="#d26840"/><polygon points="65.27 10.66 64.41 16.84 64.38 16.84 65.23 10.66 65.27 10.66" fill="#d26941"/><polygon points="65.3 10.66 64.44 16.84 64.41 16.84 65.27 10.66 65.3 10.66" fill="#d36a41"/><polygon points="65.33 10.66 64.48 16.84 64.44 16.84 65.3 10.66 65.33 10.66" fill="#d36b42"/><polygon points="65.37 10.66 64.51 16.84 64.48 16.84 65.33 10.66 65.37 10.66" fill="#d36c42"/><polygon points="65.4 10.66 64.54 16.84 64.51 16.84 65.37 10.66 65.4 10.66" fill="#d46d43"/><polygon points="65.43 10.66 64.58 16.84 64.54 16.84 65.4 10.66 65.43 10.66" fill="#d46e43"/><polygon points="65.47 10.66 64.61 16.84 64.58 16.84 65.43 10.66 65.47 10.66" fill="#d46e43"/><polygon points="65.51 10.66 64.65 16.84 64.61 16.84 65.47 10.66 65.51 10.66" fill="#d46f44"/><polygon points="65.54 10.66 64.68 16.84 64.65 16.84 65.51 10.66 65.54 10.66" fill="#d57044"/><polygon points="65.58 10.66 64.72 16.84 64.68 16.84 65.54 10.66 65.58 10.66" fill="#d57145"/><polygon points="65.61 10.66 64.76 16.84 64.72 16.84 65.58 10.66 65.61 10.66" fill="#d57246"/><polygon points="65.65 10.66 64.79 16.84 64.76 16.84 65.61 10.66 65.65 10.66" fill="#d67347"/><polygon points="65.69 10.66 64.83 16.84 64.79 16.84 65.65 10.66 65.69 10.66" fill="#d67447"/><polygon points="65.72 10.66 64.86 16.84 64.83 16.84 65.69 10.66 65.72 10.66" fill="#d77548"/><polygon points="65.76 10.66 64.9 16.84 64.86 16.84 65.72 10.66 65.76 10.66" fill="#d77649"/><polygon points="65.8 10.66 64.94 16.84 64.9 16.84 65.76 10.66 65.8 10.66" fill="#d77749"/><polygon points="65.83 10.66 64.97 16.84 64.94 16.84 65.8 10.66 65.83 10.66" fill="#d8784a"/><polygon points="65.87 10.66 65.01 16.84 64.97 16.84 65.83 10.66 65.87 10.66" fill="#d8794b"/><polygon points="65.9 10.66 65.05 16.84 65.01 16.84 65.87 10.66 65.9 10.66" fill="#d87a4c"/><polygon points="65.94 10.66 65.08 16.84 65.05 16.84 65.9 10.66 65.94 10.66" fill="#d97b4c"/><polygon points="65.97 10.66 65.12 16.84 65.08 16.84 65.94 10.66 65.97 10.66" fill="#d97c4d"/><polygon points="66.01 10.66 65.15 16.84 65.12 16.84 65.97 10.66 66.01 10.66" fill="#da7d4e"/><polygon points="66.05 10.66 65.19 16.84 65.15 16.84 66.01 10.66 66.05 10.66" fill="#da7e4e"/><polygon points="66.08 10.66 65.22 16.84 65.19 16.84 66.05 10.66 66.08 10.66" fill="#da7f4f"/><polygon points="66.12 10.66 65.26 16.84 65.22 16.84 66.08 10.66 66.12 10.66" fill="#db8050"/><polygon points="66.16 10.66 65.3 16.84 65.26 16.84 66.12 10.66 66.16 10.66" fill="#db8151"/><polygon points="66.19 10.66 65.33 16.84 65.3 16.84 66.16 10.66 66.19 10.66" fill="#db8251"/><polygon points="66.23 10.66 65.37 16.84 65.33 16.84 66.19 10.66 66.23 10.66" fill="#dc8352"/><polygon points="66.26 10.66 65.41 16.84 65.37 16.84 66.23 10.66 66.26 10.66" fill="#dc8453"/><polygon points="66.3 10.66 65.44 16.84 65.41 16.84 66.26 10.66 66.3 10.66" fill="#dd8553"/><polygon points="66.34 10.66 65.48 16.84 65.44 16.84 66.3 10.66 66.34 10.66" fill="#dd8654"/><polygon points="66.37 10.66 65.51 16.84 65.48 16.84 66.34 10.66 66.37 10.66" fill="#dd8755"/><polygon points="66.41 10.66 65.55 16.84 65.51 16.84 66.37 10.66 66.41 10.66" fill="#de8856"/><polygon points="66.44 10.66 65.59 16.84 65.55 16.84 66.41 10.66 66.44 10.66" fill="#de8956"/><polygon points="66.48 10.66 65.62 16.84 65.59 16.84 66.44 10.66 66.48 10.66" fill="#de8a57"/><polygon points="66.52 10.66 65.66 16.84 65.62 16.84 66.48 10.66 66.52 10.66" fill="#df8b58"/><polygon points="66.55 10.66 65.69 16.84 65.66 16.84 66.52 10.66 66.55 10.66" fill="#df8c58"/><polygon points="66.59 10.66 65.73 16.84 65.69 16.84 66.55 10.66 66.59 10.66" fill="#e08d59"/><polygon points="66.63 10.66 65.77 16.84 65.73 16.84 66.59 10.66 66.63 10.66" fill="#e08e5a"/><polygon points="66.66 10.66 65.8 16.84 65.77 16.84 66.63 10.66 66.66 10.66" fill="#e08f5b"/><polygon points="66.7 10.66 65.84 16.84 65.8 16.84 66.66 10.66 66.7 10.66" fill="#e1905b"/><polygon points="66.73 10.66 65.88 16.84 65.84 16.84 66.7 10.66 66.73 10.66" fill="#e1925c"/><polygon points="66.77 10.66 65.91 16.84 65.88 16.84 66.73 10.66 66.77 10.66" fill="#e1935d"/><polygon points="66.81 10.66 65.95 16.84 65.91 16.84 66.77 10.66 66.81 10.66" fill="#e2945d"/><polygon points="66.84 10.66 65.98 16.84 65.95 16.84 66.81 10.66 66.84 10.66" fill="#e2955e"/><polygon points="66.88 10.66 66.02 16.84 65.98 16.84 66.84 10.66 66.88 10.66" fill="#e2965f"/><polygon points="66.91 10.66 66.06 16.84 66.02 16.84 66.88 10.66 66.91 10.66" fill="#e39760"/><polygon points="66.95 10.66 66.09 16.84 66.06 16.84 66.91 10.66 66.95 10.66" fill="#e39860"/><polygon points="66.99 10.66 66.13 16.84 66.09 16.84 66.95 10.66 66.99 10.66" fill="#e49961"/><polygon points="67.02 10.66 66.16 16.84 66.13 16.84 66.99 10.66 67.02 10.66" fill="#e49a62"/><polygon points="67.06 10.66 66.2 16.84 66.16 16.84 67.02 10.66 67.06 10.66" fill="#e49b62"/><polygon points="67.09 10.66 66.24 16.84 66.2 16.84 67.06 10.66 67.09 10.66" fill="#e59c63"/><polygon points="67.13 10.66 66.27 16.84 66.24 16.84 67.09 10.66 67.13 10.66" fill="#e59d64"/><polygon points="67.17 10.66 66.31 16.84 66.27 16.84 67.13 10.66 67.17 10.66" fill="#e59e65"/><polygon points="67.2 10.66 66.34 16.84 66.31 16.84 67.17 10.66 67.2 10.66" fill="#e69f65"/><polygon points="67.24 10.66 66.38 16.84 66.34 16.84 67.2 10.66 67.24 10.66" fill="#e6a066"/><polygon points="67.26 10.76 66.42 16.84 66.38 16.84 67.24 10.66 67.26 10.66 67.26 10.76" fill="#e7a167"/><polygon points="67.26 11.02 66.45 16.84 66.42 16.84 67.26 10.76 67.26 11.02" fill="#e7a267"/><polygon points="67.26 11.28 66.49 16.84 66.45 16.84 67.26 11.02 67.26 11.28" fill="#e7a368"/><polygon points="67.26 11.54 66.53 16.84 66.49 16.84 67.26 11.28 67.26 11.54" fill="#e8a469"/><polygon points="67.26 11.8 66.56 16.84 66.53 16.84 67.26 11.54 67.26 11.8" fill="#e8a56a"/><polygon points="67.26 12.06 66.6 16.84 66.56 16.84 67.26 11.8 67.26 12.06" fill="#e8a66a"/><polygon points="67.26 12.32 66.63 16.84 66.6 16.84 67.26 12.06 67.26 12.32" fill="#e9a76b"/><polygon points="67.26 12.58 66.67 16.84 66.63 16.84 67.26 12.32 67.26 12.58" fill="#e9a86c"/><polygon points="67.26 12.84 66.7 16.84 66.67 16.84 67.26 12.58 67.26 12.84" fill="#eaa96c"/><polygon points="67.26 13.1 66.74 16.84 66.7 16.84 67.26 12.84 67.26 13.1" fill="#eaaa6d"/><polygon points="67.26 13.36 66.78 16.84 66.74 16.84 67.26 13.1 67.26 13.36" fill="#eaab6e"/><polygon points="67.26 13.62 66.81 16.84 66.78 16.84 67.26 13.36 67.26 13.62" fill="#ebac6f"/><polygon points="67.26 13.88 66.85 16.84 66.81 16.84 67.26 13.62 67.26 13.88" fill="#ebad6f"/><polygon points="67.26 14.14 66.89 16.84 66.85 16.84 67.26 13.88 67.26 14.14" fill="#ebae70"/><polygon points="67.26 14.4 66.92 16.84 66.89 16.84 67.26 14.14 67.26 14.4" fill="#ecaf71"/><polygon points="67.26 14.66 66.96 16.84 66.92 16.84 67.26 14.4 67.26 14.66" fill="#ecb071"/><polygon points="67.26 14.92 66.99 16.84 66.96 16.84 67.26 14.66 67.26 14.92" fill="#edb172"/><polygon points="67.26 15.18 67.03 16.84 66.99 16.84 67.26 14.92 67.26 15.18" fill="#edb273"/><polygon points="67.26 15.44 67.07 16.84 67.03 16.84 67.26 15.18 67.26 15.44" fill="#edb374"/><polygon points="67.26 15.7 67.1 16.84 67.07 16.84 67.26 15.44 67.26 15.7" fill="#eeb474"/><polygon points="67.26 15.96 67.14 16.84 67.1 16.84 67.26 15.7 67.26 15.96" fill="#eeb575"/><polygon points="67.14 16.84 67.26 15.96 67.26 16.84 67.14 16.84" fill="#eeb575"/><polygon points="64.17 9.19 63.47 14.23 63.47 9.19 64.17 9.19" fill="#c7422f"/><polygon points="64.21 9.19 63.47 14.47 63.47 14.23 64.17 9.19 64.21 9.19" fill="#c7422f"/><polygon points="64.24 9.19 63.47 14.71 63.47 14.47 64.21 9.19 64.24 9.19" fill="#c7432f"/><polygon points="64.28 9.19 63.47 14.95 63.47 14.71 64.24 9.19 64.28 9.19" fill="#c84430"/><polygon points="64.31 9.19 63.47 15.19 63.47 14.95 64.28 9.19 64.31 9.19" fill="#c84530"/><polygon points="64.34 9.19 63.47 15.43 63.47 15.19 64.31 9.19 64.34 9.19" fill="#c84631"/><polygon points="64.37 9.19 63.47 15.67 63.47 15.43 64.34 9.19 64.37 9.19" fill="#c94731"/><polygon points="64.41 9.19 63.47 15.91 63.47 15.67 64.37 9.19 64.41 9.19" fill="#c94832"/><polygon points="64.44 9.19 63.47 16.15 63.47 15.91 64.41 9.19 64.44 9.19" fill="#c94932"/><polygon points="64.47 9.19 63.47 16.39 63.47 16.15 64.44 9.19 64.47 9.19" fill="#c94a33"/><polygon points="64.51 9.19 63.47 16.63 63.47 16.39 64.47 9.19 64.51 9.19" fill="#ca4b33"/><polygon points="64.54 9.19 63.47 16.87 63.47 16.63 64.51 9.19 64.54 9.19" fill="#ca4c34"/><polygon points="64.57 9.19 63.47 17.11 63.47 16.87 64.54 9.19 64.57 9.19" fill="#ca4d34"/><polygon points="64.61 9.19 63.47 17.35 63.47 17.11 64.57 9.19 64.61 9.19" fill="#cb4e35"/><polygon points="64.64 9.19 63.47 17.59 63.47 17.35 64.61 9.19 64.64 9.19" fill="#cb4f35"/><polygon points="64.67 9.19 63.5 17.63 63.47 17.63 63.47 17.59 64.64 9.19 64.67 9.19" fill="#cb5036"/><polygon points="64.71 9.19 63.53 17.63 63.5 17.63 64.67 9.19 64.71 9.19" fill="#cc5136"/><polygon points="64.74 9.19 63.57 17.63 63.53 17.63 64.71 9.19 64.74 9.19" fill="#cc5236"/><polygon points="64.77 9.19 63.6 17.63 63.57 17.63 64.74 9.19 64.77 9.19" fill="#cc5337"/><polygon points="64.81 9.19 63.63 17.63 63.6 17.63 64.77 9.19 64.81 9.19" fill="#cc5437"/><polygon points="64.84 9.19 63.67 17.63 63.63 17.63 64.81 9.19 64.84 9.19" fill="#cd5538"/><polygon points="64.87 9.19 63.7 17.63 63.67 17.63 64.84 9.19 64.87 9.19" fill="#cd5638"/><polygon points="64.91 9.19 63.73 17.63 63.7 17.63 64.87 9.19 64.91 9.19" fill="#cd5739"/><polygon points="64.94 9.19 63.77 17.63 63.73 17.63 64.91 9.19 64.94 9.19" fill="#ce5939"/><polygon points="64.97 9.19 63.8 17.63 63.77 17.63 64.94 9.19 64.97 9.19" fill="#ce5a3a"/><polygon points="65.01 9.19 63.83 17.63 63.8 17.63 64.97 9.19 65.01 9.19" fill="#ce5b3a"/><polygon points="65.04 9.19 63.87 17.63 63.83 17.63 65.01 9.19 65.04 9.19" fill="#cf5c3b"/><polygon points="65.07 9.19 63.9 17.63 63.87 17.63 65.04 9.19 65.07 9.19" fill="#cf5d3b"/><polygon points="65.11 9.19 63.93 17.63 63.9 17.63 65.07 9.19 65.11 9.19" fill="#cf5e3c"/><polygon points="65.14 9.19 63.97 17.63 63.93 17.63 65.11 9.19 65.14 9.19" fill="#cf5f3c"/><polygon points="65.17 9.19 64 17.63 63.97 17.63 65.14 9.19 65.17 9.19" fill="#d0603c"/><polygon points="65.21 9.19 64.03 17.63 64 17.63 65.17 9.19 65.21 9.19" fill="#d0613d"/><polygon points="65.24 9.19 64.07 17.63 64.03 17.63 65.21 9.19 65.24 9.19" fill="#d0623d"/><polygon points="65.27 9.19 64.1 17.63 64.07 17.63 65.24 9.19 65.27 9.19" fill="#d1633e"/><polygon points="65.31 9.19 64.13 17.63 64.1 17.63 65.27 9.19 65.31 9.19" fill="#d1643e"/><polygon points="65.34 9.19 64.17 17.63 64.13 17.63 65.31 9.19 65.34 9.19" fill="#d1653f"/><polygon points="65.37 9.19 64.2 17.63 64.17 17.63 65.34 9.19 65.37 9.19" fill="#d2663f"/><polygon points="65.41 9.19 64.23 17.63 64.2 17.63 65.37 9.19 65.41 9.19" fill="#d26740"/><polygon points="65.44 9.19 64.27 17.63 64.23 17.63 65.41 9.19 65.44 9.19" fill="#d26840"/><polygon points="65.47 9.19 64.3 17.63 64.27 17.63 65.44 9.19 65.47 9.19" fill="#d26941"/><polygon points="65.51 9.19 64.33 17.63 64.3 17.63 65.47 9.19 65.51 9.19" fill="#d36a41"/><polygon points="65.54 9.19 64.37 17.63 64.33 17.63 65.51 9.19 65.54 9.19" fill="#d36b42"/><polygon points="65.57 9.19 64.4 17.63 64.37 17.63 65.54 9.19 65.57 9.19" fill="#d36c42"/><polygon points="65.61 9.19 64.43 17.63 64.4 17.63 65.57 9.19 65.61 9.19" fill="#d46d43"/><polygon points="65.64 9.19 64.47 17.63 64.43 17.63 65.61 9.19 65.64 9.19" fill="#d46e43"/><polygon points="65.67 9.19 64.5 17.63 64.47 17.63 65.64 9.19 65.67 9.19" fill="#d46e43"/><polygon points="65.71 9.19 64.54 17.63 64.5 17.63 65.67 9.19 65.71 9.19" fill="#d46f44"/><polygon points="65.75 9.19 64.57 17.63 64.54 17.63 65.71 9.19 65.75 9.19" fill="#d57044"/><polygon points="65.78 9.19 64.61 17.63 64.57 17.63 65.75 9.19 65.78 9.19" fill="#d57145"/><polygon points="65.82 9.19 64.65 17.63 64.61 17.63 65.78 9.19 65.82 9.19" fill="#d57246"/><polygon points="65.86 9.19 64.68 17.63 64.65 17.63 65.82 9.19 65.86 9.19" fill="#d67347"/><polygon points="65.89 9.19 64.72 17.63 64.68 17.63 65.86 9.19 65.89 9.19" fill="#d67447"/><polygon points="65.93 9.19 64.75 17.63 64.72 17.63 65.89 9.19 65.93 9.19" fill="#d77548"/><polygon points="65.96 9.19 64.79 17.63 64.75 17.63 65.93 9.19 65.96 9.19" fill="#d77649"/><polygon points="66 9.19 64.83 17.63 64.79 17.63 65.96 9.19 66 9.19" fill="#d77749"/><polygon points="66.04 9.19 64.86 17.63 64.83 17.63 66 9.19 66.04 9.19" fill="#d8784a"/><polygon points="66.07 9.19 64.9 17.63 64.86 17.63 66.04 9.19 66.07 9.19" fill="#d8794b"/><polygon points="66.11 9.19 64.94 17.63 64.9 17.63 66.07 9.19 66.11 9.19" fill="#d87a4c"/><polygon points="66.14 9.19 64.97 17.63 64.94 17.63 66.11 9.19 66.14 9.19" fill="#d97b4c"/><polygon points="66.18 9.19 65.01 17.63 64.97 17.63 66.14 9.19 66.18 9.19" fill="#d97c4d"/><polygon points="66.22 9.19 65.04 17.63 65.01 17.63 66.18 9.19 66.22 9.19" fill="#da7d4e"/><polygon points="66.25 9.19 65.08 17.63 65.04 17.63 66.22 9.19 66.25 9.19" fill="#da7e4e"/><polygon points="66.29 9.19 65.11 17.63 65.08 17.63 66.25 9.19 66.29 9.19" fill="#da7f4f"/><polygon points="66.33 9.19 65.15 17.63 65.11 17.63 66.29 9.19 66.33 9.19" fill="#db8050"/><polygon points="66.36 9.19 65.19 17.63 65.15 17.63 66.33 9.19 66.36 9.19" fill="#db8151"/><polygon points="66.4 9.19 65.22 17.63 65.19 17.63 66.36 9.19 66.4 9.19" fill="#db8251"/><polygon points="66.43 9.19 65.26 17.63 65.22 17.63 66.4 9.19 66.43 9.19" fill="#dc8352"/><polygon points="66.47 9.19 65.3 17.63 65.26 17.63 66.43 9.19 66.47 9.19" fill="#dc8453"/><polygon points="66.5 9.19 65.33 17.63 65.3 17.63 66.47 9.19 66.5 9.19" fill="#dd8553"/><polygon points="66.54 9.19 65.37 17.63 65.33 17.63 66.5 9.19 66.54 9.19" fill="#dd8654"/><polygon points="66.58 9.19 65.4 17.63 65.37 17.63 66.54 9.19 66.58 9.19" fill="#dd8755"/><polygon points="66.61 9.19 65.44 17.63 65.4 17.63 66.58 9.19 66.61 9.19" fill="#de8856"/><polygon points="66.65 9.19 65.48 17.63 65.44 17.63 66.61 9.19 66.65 9.19" fill="#de8956"/><polygon points="66.69 9.19 65.51 17.63 65.48 17.63 66.65 9.19 66.69 9.19" fill="#de8a57"/><polygon points="66.72 9.19 65.55 17.63 65.51 17.63 66.69 9.19 66.72 9.19" fill="#df8b58"/><polygon points="66.76 9.19 65.58 17.63 65.55 17.63 66.72 9.19 66.76 9.19" fill="#df8c58"/><polygon points="66.79 9.19 65.62 17.63 65.58 17.63 66.76 9.19 66.79 9.19" fill="#e08d59"/><polygon points="66.83 9.19 65.66 17.63 65.62 17.63 66.79 9.19 66.83 9.19" fill="#e08e5a"/><polygon points="66.87 9.19 65.69 17.63 65.66 17.63 66.83 9.19 66.87 9.19" fill="#e08f5b"/><polygon points="66.9 9.19 65.73 17.63 65.69 17.63 66.87 9.19 66.9 9.19" fill="#e1905b"/><polygon points="66.94 9.19 65.77 17.63 65.73 17.63 66.9 9.19 66.94 9.19" fill="#e1925c"/><polygon points="66.97 9.19 65.8 17.63 65.77 17.63 66.94 9.19 66.97 9.19" fill="#e1935d"/><polygon points="67.01 9.19 65.84 17.63 65.8 17.63 66.97 9.19 67.01 9.19" fill="#e2945d"/><polygon points="67.05 9.19 65.87 17.63 65.84 17.63 67.01 9.19 67.05 9.19" fill="#e2955e"/><polygon points="67.08 9.19 65.91 17.63 65.87 17.63 67.05 9.19 67.08 9.19" fill="#e2965f"/><polygon points="67.12 9.19 65.95 17.63 65.91 17.63 67.08 9.19 67.12 9.19" fill="#e39760"/><polygon points="67.16 9.19 65.98 17.63 65.95 17.63 67.12 9.19 67.16 9.19" fill="#e39860"/><polygon points="67.19 9.19 66.02 17.63 65.98 17.63 67.16 9.19 67.19 9.19" fill="#e49961"/><polygon points="67.23 9.19 66.05 17.63 66.02 17.63 67.19 9.19 67.23 9.19" fill="#e49a62"/><polygon points="67.26 9.19 66.09 17.63 66.05 17.63 67.23 9.19 67.26 9.19" fill="#e49b62"/><polygon points="67.3 9.19 66.13 17.63 66.09 17.63 67.26 9.19 67.3 9.19" fill="#e59c63"/><polygon points="67.33 9.19 66.16 17.63 66.13 17.63 67.3 9.19 67.33 9.19" fill="#e59d64"/><polygon points="67.37 9.19 66.2 17.63 66.16 17.63 67.33 9.19 67.37 9.19" fill="#e59e65"/><polygon points="67.41 9.19 66.23 17.63 66.2 17.63 67.37 9.19 67.41 9.19" fill="#e69f65"/><polygon points="67.44 9.19 66.27 17.63 66.23 17.63 67.41 9.19 67.44 9.19" fill="#e6a066"/><polygon points="67.48 9.19 66.31 17.63 66.27 17.63 67.44 9.19 67.48 9.19" fill="#e7a167"/><polygon points="67.52 9.19 66.34 17.63 66.31 17.63 67.48 9.19 67.52 9.19" fill="#e7a267"/><polygon points="67.55 9.19 66.38 17.63 66.34 17.63 67.52 9.19 67.55 9.19" fill="#e7a368"/><polygon points="67.59 9.19 66.42 17.63 66.38 17.63 67.55 9.19 67.59 9.19" fill="#e8a469"/><polygon points="67.62 9.19 66.45 17.63 66.42 17.63 67.59 9.19 67.62 9.19" fill="#e8a56a"/><polygon points="67.66 9.19 66.49 17.63 66.45 17.63 67.62 9.19 67.66 9.19" fill="#e8a66a"/><polygon points="67.7 9.19 66.52 17.63 66.49 17.63 67.66 9.19 67.7 9.19" fill="#e9a76b"/><polygon points="67.73 9.19 66.56 17.63 66.52 17.63 67.7 9.19 67.73 9.19" fill="#e9a86c"/><polygon points="67.77 9.19 66.59 17.63 66.56 17.63 67.73 9.19 67.77 9.19" fill="#eaa96c"/><polygon points="67.77 9.41 66.63 17.63 66.59 17.63 67.77 9.19 67.77 9.19 67.77 9.41" fill="#eaaa6d"/><polygon points="67.77 9.67 66.67 17.63 66.63 17.63 67.77 9.41 67.77 9.67" fill="#eaab6e"/><polygon points="67.77 9.93 66.7 17.63 66.67 17.63 67.77 9.67 67.77 9.93" fill="#ebac6f"/><polygon points="67.77 10.19 66.74 17.63 66.7 17.63 67.77 9.93 67.77 10.19" fill="#ebad6f"/><polygon points="67.77 10.45 66.78 17.63 66.74 17.63 67.77 10.19 67.77 10.45" fill="#ebae70"/><polygon points="67.77 10.71 66.81 17.63 66.78 17.63 67.77 10.45 67.77 10.71" fill="#ecaf71"/><polygon points="67.77 10.97 66.85 17.63 66.81 17.63 67.77 10.71 67.77 10.97" fill="#ecb071"/><polygon points="67.77 11.23 66.88 17.63 66.85 17.63 67.77 10.97 67.77 11.23" fill="#edb172"/><polygon points="67.77 11.49 66.92 17.63 66.88 17.63 67.77 11.23 67.77 11.49" fill="#edb273"/><polygon points="67.77 11.75 66.96 17.63 66.92 17.63 67.77 11.49 67.77 11.75" fill="#edb374"/><polygon points="67.77 12.01 66.99 17.63 66.96 17.63 67.77 11.75 67.77 12.01" fill="#eeb474"/><polygon points="67.77 12.27 67.03 17.63 66.99 17.63 67.77 12.01 67.77 12.27" fill="#eeb575"/><polygon points="67.03 17.63 67.77 12.27 67.77 17.63 67.03 17.63" fill="#eeb575"/></g><g clip-path="url(#clip-path-2)"><polygon points="65.46 11.51 64.94 15.27 64.63 15.27 64.63 11.51 65.46 11.51" fill="#cf603b"/><polygon points="65.47 11.51 64.95 15.27 64.94 15.27 65.46 11.51 65.47 11.51" fill="#cf603b"/><polygon points="65.49 11.51 64.97 15.27 64.95 15.27 65.47 11.51 65.49 11.51" fill="#cf613c"/><polygon points="65.51 11.51 64.99 15.27 64.97 15.27 65.49 11.51 65.51 11.51" fill="#d0623c"/><polygon points="65.53 11.51 65 15.27 64.99 15.27 65.51 11.51 65.53 11.51" fill="#d0633d"/><polygon points="65.54 11.51 65.02 15.27 65 15.27 65.53 11.51 65.54 11.51" fill="#d0643e"/><polygon points="65.56 11.51 65.04 15.27 65.02 15.27 65.54 11.51 65.56 11.51" fill="#d1653e"/><polygon points="65.58 11.51 65.06 15.27 65.04 15.27 65.56 11.51 65.58 11.51" fill="#d1663f"/><polygon points="65.59 11.51 65.07 15.27 65.06 15.27 65.58 11.51 65.59 11.51" fill="#d26740"/><polygon points="65.61 11.51 65.09 15.27 65.07 15.27 65.59 11.51 65.61 11.51" fill="#d26841"/><polygon points="65.63 11.51 65.11 15.27 65.09 15.27 65.61 11.51 65.63 11.51" fill="#d26941"/><polygon points="65.64 11.51 65.12 15.27 65.11 15.27 65.63 11.51 65.64 11.51" fill="#d36a42"/><polygon points="65.66 11.51 65.14 15.27 65.12 15.27 65.64 11.51 65.66 11.51" fill="#d36b43"/><polygon points="65.68 11.51 65.16 15.27 65.14 15.27 65.66 11.51 65.68 11.51" fill="#d36c43"/><polygon points="65.7 11.51 65.17 15.27 65.16 15.27 65.68 11.51 65.7 11.51" fill="#d46d44"/><polygon points="65.71 11.51 65.19 15.27 65.17 15.27 65.7 11.51 65.71 11.51" fill="#d46e45"/><polygon points="65.73 11.51 65.21 15.27 65.19 15.27 65.71 11.51 65.73 11.51" fill="#d56f45"/><polygon points="65.75 11.51 65.23 15.27 65.21 15.27 65.73 11.51 65.75 11.51" fill="#d57046"/><polygon points="65.77 11.51 65.24 15.27 65.23 15.27 65.75 11.51 65.77 11.51" fill="#d57147"/><polygon points="65.78 11.51 65.26 15.27 65.24 15.27 65.77 11.51 65.78 11.51" fill="#d67247"/><polygon points="65.8 11.51 65.28 15.27 65.26 15.27 65.78 11.51 65.8 11.51" fill="#d67348"/><polygon points="65.82 11.51 65.29 15.27 65.28 15.27 65.8 11.51 65.82 11.51" fill="#d67449"/><polygon points="65.83 11.51 65.31 15.27 65.29 15.27 65.82 11.51 65.83 11.51" fill="#d7754a"/><polygon points="65.85 11.51 65.33 15.27 65.31 15.27 65.83 11.51 65.85 11.51" fill="#d7764a"/><polygon points="65.87 11.51 65.34 15.27 65.33 15.27 65.85 11.51 65.87 11.51" fill="#d7774b"/><polygon points="65.88 11.51 65.36 15.27 65.34 15.27 65.87 11.51 65.88 11.51" fill="#d8784c"/><polygon points="65.9 11.51 65.38 15.27 65.36 15.27 65.88 11.51 65.9 11.51" fill="#d8794c"/><polygon points="65.92 11.51 65.4 15.27 65.38 15.27 65.9 11.51 65.92 11.51" fill="#d97a4d"/><polygon points="65.94 11.51 65.41 15.27 65.4 15.27 65.92 11.51 65.94 11.51" fill="#d97b4e"/><polygon points="65.95 11.51 65.43 15.27 65.41 15.27 65.94 11.51 65.95 11.51" fill="#d97c4e"/><polygon points="65.97 11.51 65.45 15.27 65.43 15.27 65.95 11.51 65.97 11.51" fill="#da7d4f"/><polygon points="65.99 11.51 65.46 15.27 65.45 15.27 65.97 11.51 65.99 11.51" fill="#da7e50"/><polygon points="66 11.51 65.48 15.27 65.46 15.27 65.99 11.51 66 11.51" fill="#da7f50"/><polygon points="66.02 11.51 65.5 15.27 65.48 15.27 66 11.51 66.02 11.51" fill="#db8051"/><polygon points="66.04 11.51 65.52 15.27 65.5 15.27 66.02 11.51 66.04 11.51" fill="#db8152"/><polygon points="66.05 11.51 65.53 15.27 65.52 15.27 66.04 11.51 66.05 11.51" fill="#dc8252"/><polygon points="66.07 11.51 65.55 15.27 65.53 15.27 66.05 11.51 66.07 11.51" fill="#dc8353"/><polygon points="66.09 11.51 65.57 15.27 65.55 15.27 66.07 11.51 66.09 11.51" fill="#dc8454"/><polygon points="66.11 11.51 65.58 15.27 65.57 15.27 66.09 11.51 66.11 11.51" fill="#dd8555"/><polygon points="66.12 11.51 65.6 15.27 65.58 15.27 66.11 11.51 66.12 11.51" fill="#dd8655"/><polygon points="66.14 11.51 65.62 15.27 65.6 15.27 66.12 11.51 66.14 11.51" fill="#dd8756"/><polygon points="66.16 11.51 65.63 15.27 65.62 15.27 66.14 11.51 66.16 11.51" fill="#de8857"/><polygon points="66.17 11.51 65.65 15.27 65.63 15.27 66.16 11.51 66.17 11.51" fill="#de8957"/><polygon points="66.19 11.51 65.67 15.27 65.65 15.27 66.17 11.51 66.19 11.51" fill="#df8b58"/><polygon points="66.21 11.51 65.69 15.27 65.67 15.27 66.19 11.51 66.21 11.51" fill="#df8c59"/><polygon points="66.22 11.51 65.7 15.27 65.69 15.27 66.21 11.51 66.22 11.51" fill="#df8d59"/><polygon points="66.24 11.51 65.72 15.27 65.7 15.27 66.22 11.51 66.24 11.51" fill="#e08e5a"/><polygon points="66.26 11.51 65.74 15.27 65.72 15.27 66.24 11.51 66.26 11.51" fill="#e08f5b"/><polygon points="66.28 11.51 65.75 15.27 65.74 15.27 66.26 11.51 66.28 11.51" fill="#e0905b"/><polygon points="66.29 11.51 65.77 15.27 65.75 15.27 66.28 11.51 66.29 11.51" fill="#e1915c"/><polygon points="66.31 11.51 65.79 15.27 65.77 15.27 66.29 11.51 66.31 11.51" fill="#e1925d"/><polygon points="66.33 11.51 65.81 15.27 65.79 15.27 66.31 11.51 66.33 11.51" fill="#e1935e"/><polygon points="66.34 11.51 65.82 15.27 65.81 15.27 66.33 11.51 66.34 11.51" fill="#e2945e"/><polygon points="66.36 11.51 65.84 15.27 65.82 15.27 66.34 11.51 66.36 11.51" fill="#e2955f"/><polygon points="66.38 11.51 65.86 15.27 65.84 15.27 66.36 11.51 66.38 11.51" fill="#e39660"/><polygon points="66.39 11.51 65.87 15.27 65.86 15.27 66.38 11.51 66.39 11.51" fill="#e39760"/><polygon points="66.41 11.51 65.89 15.27 65.87 15.27 66.39 11.51 66.41 11.51" fill="#e39861"/><polygon points="66.43 11.51 65.91 15.27 65.89 15.27 66.41 11.51 66.43 11.51" fill="#e49962"/><polygon points="66.45 11.51 65.92 15.27 65.91 15.27 66.43 11.51 66.45 11.51" fill="#e49a62"/><polygon points="66.46 11.51 65.94 15.27 65.92 15.27 66.45 11.51 66.46 11.51" fill="#e49b63"/><polygon points="66.48 11.51 65.96 15.27 65.94 15.27 66.46 11.51 66.48 11.51" fill="#e59c64"/><polygon points="66.5 11.51 65.97 15.27 65.96 15.27 66.48 11.51 66.5 11.51" fill="#e59d64"/><polygon points="66.51 11.51 65.99 15.27 65.97 15.27 66.5 11.51 66.51 11.51" fill="#e69e65"/><polygon points="66.53 11.51 66.01 15.27 65.99 15.27 66.51 11.51 66.53 11.51" fill="#e69f66"/><polygon points="66.55 11.51 66.03 15.27 66.01 15.27 66.53 11.51 66.55 11.51" fill="#e6a067"/><polygon points="66.56 11.51 66.04 15.27 66.03 15.27 66.55 11.51 66.56 11.51" fill="#e7a167"/><polygon points="66.58 11.51 66.06 15.27 66.04 15.27 66.56 11.51 66.58 11.51" fill="#e7a268"/><polygon points="66.6 11.51 66.08 15.27 66.06 15.27 66.58 11.51 66.6 11.51" fill="#e7a369"/><polygon points="66.62 11.51 66.09 15.27 66.08 15.27 66.6 11.51 66.62 11.51" fill="#e8a469"/><polygon points="66.63 11.51 66.11 15.27 66.09 15.27 66.62 11.51 66.63 11.51" fill="#e8a56a"/><polygon points="66.65 11.51 66.13 15.27 66.11 15.27 66.63 11.51 66.65 11.51" fill="#e8a66b"/><polygon points="66.67 11.51 66.14 15.27 66.13 15.27 66.65 11.51 66.67 11.51" fill="#e9a76b"/><polygon points="66.69 11.51 66.16 15.27 66.14 15.27 66.67 11.51 66.69 11.51" fill="#e9a86c"/><polygon points="66.7 11.51 66.18 15.27 66.16 15.27 66.69 11.51 66.7 11.51" fill="#eaa96d"/><polygon points="66.72 11.51 66.2 15.27 66.18 15.27 66.7 11.51 66.72 11.51" fill="#eaaa6d"/><polygon points="66.74 11.51 66.21 15.27 66.2 15.27 66.72 11.51 66.74 11.51" fill="#eaab6e"/><polygon points="66.75 11.51 66.23 15.27 66.21 15.27 66.74 11.51 66.75 11.51" fill="#ebac6f"/><polygon points="66.77 11.51 66.25 15.27 66.23 15.27 66.75 11.51 66.77 11.51" fill="#ebad6f"/><polygon points="66.79 11.51 66.27 15.27 66.25 15.27 66.77 11.51 66.79 11.51" fill="#ebae70"/><polygon points="66.8 11.51 66.28 15.27 66.27 15.27 66.79 11.51 66.8 11.51" fill="#ecaf71"/><polygon points="66.82 11.51 66.3 15.27 66.28 15.27 66.8 11.51 66.82 11.51" fill="#ecb072"/><polygon points="66.84 11.51 66.32 15.27 66.3 15.27 66.82 11.51 66.84 11.51" fill="#edb172"/><polygon points="66.86 11.51 66.33 15.27 66.32 15.27 66.84 11.51 66.86 11.51" fill="#edb273"/><polygon points="66.87 11.51 66.35 15.27 66.33 15.27 66.86 11.51 66.87 11.51" fill="#edb374"/><polygon points="66.89 11.51 66.37 15.27 66.35 15.27 66.87 11.51 66.89 11.51" fill="#eeb474"/><polygon points="66.91 11.51 66.38 15.27 66.37 15.27 66.89 11.51 66.91 11.51" fill="#eeb575"/><polygon points="66.38 15.27 66.91 11.51 66.91 11.51 66.91 15.27 66.38 15.27" fill="#eeb575"/></g><g clip-path="url(#clip-path-3)"><polygon points="62.73 10.33 61.9 16.28 60.96 16.28 60.96 10.33 62.73 10.33" fill="#cf603b"/><polygon points="62.77 10.33 61.94 16.28 61.9 16.28 62.73 10.33 62.77 10.33" fill="#cf603b"/><polygon points="62.81 10.33 61.98 16.28 61.94 16.28 62.77 10.33 62.81 10.33" fill="#cf613c"/><polygon points="62.85 10.33 62.02 16.28 61.98 16.28 62.81 10.33 62.85 10.33" fill="#d0623c"/><polygon points="62.89 10.33 62.07 16.28 62.02 16.28 62.85 10.33 62.89 10.33" fill="#d0633d"/><polygon points="62.94 10.33 62.11 16.28 62.07 16.28 62.89 10.33 62.94 10.33" fill="#d0643e"/><polygon points="62.98 10.33 62.15 16.28 62.11 16.28 62.94 10.33 62.98 10.33" fill="#d1653e"/><polygon points="63.02 10.33 62.19 16.28 62.15 16.28 62.98 10.33 63.02 10.33" fill="#d1663f"/><polygon points="63.06 10.33 62.23 16.28 62.19 16.28 63.02 10.33 63.06 10.33" fill="#d26740"/><polygon points="63.1 10.33 62.28 16.28 62.23 16.28 63.06 10.33 63.1 10.33" fill="#d26841"/><polygon points="63.15 10.33 62.32 16.28 62.28 16.28 63.1 10.33 63.15 10.33" fill="#d26941"/><polygon points="63.19 10.33 62.36 16.28 62.32 16.28 63.15 10.33 63.19 10.33" fill="#d36a42"/><polygon points="63.23 10.33 62.4 16.28 62.36 16.28 63.19 10.33 63.23 10.33" fill="#d36b43"/><polygon points="63.27 10.33 62.44 16.28 62.4 16.28 63.23 10.33 63.27 10.33" fill="#d36c43"/><polygon points="63.31 10.33 62.48 16.28 62.44 16.28 63.27 10.33 63.31 10.33" fill="#d46d44"/><polygon points="63.35 10.33 62.53 16.28 62.48 16.28 63.31 10.33 63.35 10.33" fill="#d46e45"/><polygon points="63.4 10.33 62.57 16.28 62.53 16.28 63.35 10.33 63.4 10.33" fill="#d56f45"/><polygon points="63.44 10.33 62.61 16.28 62.57 16.28 63.4 10.33 63.44 10.33" fill="#d57046"/><polygon points="63.48 10.33 62.65 16.28 62.61 16.28 63.44 10.33 63.48 10.33" fill="#d57147"/><polygon points="63.52 10.33 62.69 16.28 62.65 16.28 63.48 10.33 63.52 10.33" fill="#d67247"/><polygon points="63.56 10.33 62.74 16.28 62.69 16.28 63.52 10.33 63.56 10.33" fill="#d67348"/><polygon points="63.6 10.33 62.78 16.28 62.74 16.28 63.56 10.33 63.6 10.33" fill="#d67449"/><polygon points="63.65 10.33 62.82 16.28 62.78 16.28 63.6 10.33 63.65 10.33" fill="#d7754a"/><polygon points="63.69 10.33 62.86 16.28 62.82 16.28 63.65 10.33 63.69 10.33" fill="#d7764a"/><polygon points="63.73 10.33 62.9 16.28 62.86 16.28 63.69 10.33 63.73 10.33" fill="#d7774b"/><polygon points="63.77 10.33 62.95 16.28 62.9 16.28 63.73 10.33 63.77 10.33" fill="#d8784c"/><polygon points="63.81 10.33 62.99 16.28 62.95 16.28 63.77 10.33 63.81 10.33" fill="#d8794c"/><polygon points="63.86 10.33 63.03 16.28 62.99 16.28 63.81 10.33 63.86 10.33" fill="#d97a4d"/><polygon points="63.9 10.33 63.07 16.28 63.03 16.28 63.86 10.33 63.9 10.33" fill="#d97b4e"/><polygon points="63.94 10.33 63.11 16.28 63.07 16.28 63.9 10.33 63.94 10.33" fill="#d97c4e"/><polygon points="63.98 10.33 63.16 16.28 63.11 16.28 63.94 10.33 63.98 10.33" fill="#da7d4f"/><polygon points="64.02 10.33 63.2 16.28 63.16 16.28 63.98 10.33 64.02 10.33" fill="#da7e50"/><polygon points="64.06 10.33 63.24 16.28 63.2 16.28 64.02 10.33 64.06 10.33" fill="#da7f50"/><polygon points="64.11 10.33 63.28 16.28 63.24 16.28 64.06 10.33 64.11 10.33" fill="#db8051"/><polygon points="64.15 10.33 63.32 16.28 63.28 16.28 64.11 10.33 64.15 10.33" fill="#db8152"/><polygon points="64.19 10.33 63.36 16.28 63.32 16.28 64.15 10.33 64.19 10.33" fill="#dc8252"/><polygon points="64.23 10.33 63.41 16.28 63.36 16.28 64.19 10.33 64.23 10.33" fill="#dc8353"/><polygon points="64.27 10.33 63.45 16.28 63.41 16.28 64.23 10.33 64.27 10.33" fill="#dc8454"/><polygon points="64.32 10.33 63.49 16.28 63.45 16.28 64.27 10.33 64.32 10.33" fill="#dd8555"/><polygon points="64.36 10.33 63.53 16.28 63.49 16.28 64.32 10.33 64.36 10.33" fill="#dd8655"/><polygon points="64.4 10.33 63.57 16.28 63.53 16.28 64.36 10.33 64.4 10.33" fill="#dd8756"/><polygon points="64.44 10.33 63.62 16.28 63.57 16.28 64.4 10.33 64.44 10.33" fill="#de8857"/><polygon points="64.48 10.33 63.66 16.28 63.62 16.28 64.44 10.33 64.48 10.33" fill="#de8957"/><polygon points="64.53 10.33 63.7 16.28 63.66 16.28 64.48 10.33 64.53 10.33" fill="#df8b58"/><polygon points="64.57 10.33 63.74 16.28 63.7 16.28 64.53 10.33 64.57 10.33" fill="#df8c59"/><polygon points="64.61 10.33 63.78 16.28 63.74 16.28 64.57 10.33 64.61 10.33" fill="#df8d59"/><polygon points="64.65 10.33 63.82 16.28 63.78 16.28 64.61 10.33 64.65 10.33" fill="#e08e5a"/><polygon points="64.69 10.33 63.87 16.28 63.82 16.28 64.65 10.33 64.69 10.33" fill="#e08f5b"/><polygon points="64.73 10.33 63.91 16.28 63.87 16.28 64.69 10.33 64.73 10.33" fill="#e0905b"/><polygon points="64.78 10.33 63.95 16.28 63.91 16.28 64.73 10.33 64.78 10.33" fill="#e1915c"/><polygon points="64.82 10.33 63.99 16.28 63.95 16.28 64.78 10.33 64.82 10.33" fill="#e1925d"/><polygon points="64.86 10.33 64.03 16.28 63.99 16.28 64.82 10.33 64.86 10.33" fill="#e1935e"/><polygon points="64.9 10.33 64.08 16.28 64.03 16.28 64.86 10.33 64.9 10.33" fill="#e2945e"/><polygon points="64.94 10.33 64.12 16.28 64.08 16.28 64.9 10.33 64.94 10.33" fill="#e2955f"/><polygon points="64.98 10.33 64.16 16.28 64.12 16.28 64.94 10.33 64.98 10.33" fill="#e39660"/><polygon points="65.03 10.33 64.2 16.28 64.16 16.28 64.98 10.33 65.03 10.33" fill="#e39760"/><polygon points="65.07 10.33 64.24 16.28 64.2 16.28 65.03 10.33 65.07 10.33" fill="#e39861"/><polygon points="65.11 10.33 64.28 16.28 64.24 16.28 65.07 10.33 65.11 10.33" fill="#e49962"/><polygon points="65.15 10.33 64.33 16.28 64.28 16.28 65.11 10.33 65.15 10.33" fill="#e49a62"/><polygon points="65.19 10.33 64.37 16.28 64.33 16.28 65.15 10.33 65.19 10.33" fill="#e49b63"/><polygon points="65.24 10.33 64.41 16.28 64.37 16.28 65.19 10.33 65.24 10.33" fill="#e59c64"/><polygon points="65.28 10.33 64.45 16.28 64.41 16.28 65.24 10.33 65.28 10.33" fill="#e59d64"/><polygon points="65.32 10.33 64.49 16.28 64.45 16.28 65.28 10.33 65.32 10.33" fill="#e69e65"/><polygon points="65.36 10.33 64.53 16.28 64.49 16.28 65.32 10.33 65.36 10.33" fill="#e69f66"/><polygon points="65.4 10.33 64.58 16.28 64.53 16.28 65.36 10.33 65.4 10.33" fill="#e6a067"/><polygon points="65.45 10.33 64.62 16.28 64.58 16.28 65.4 10.33 65.45 10.33" fill="#e7a167"/><polygon points="65.49 10.33 64.66 16.28 64.62 16.28 65.45 10.33 65.49 10.33" fill="#e7a268"/><polygon points="65.53 10.33 64.7 16.28 64.66 16.28 65.49 10.33 65.53 10.33" fill="#e7a369"/><polygon points="65.57 10.33 64.74 16.28 64.7 16.28 65.53 10.33 65.57 10.33" fill="#e8a469"/><polygon points="65.61 10.33 64.79 16.28 64.74 16.28 65.57 10.33 65.61 10.33" fill="#e8a56a"/><polygon points="65.66 10.33 64.83 16.28 64.79 16.28 65.61 10.33 65.66 10.33" fill="#e8a66b"/><polygon points="65.7 10.33 64.87 16.28 64.83 16.28 65.66 10.33 65.7 10.33" fill="#e9a76b"/><polygon points="65.74 10.33 64.91 16.28 64.87 16.28 65.7 10.33 65.74 10.33" fill="#e9a86c"/><polygon points="65.78 10.33 64.95 16.28 64.91 16.28 65.74 10.33 65.78 10.33" fill="#eaa96d"/><polygon points="65.82 10.33 65 16.28 64.95 16.28 65.78 10.33 65.82 10.33" fill="#eaaa6d"/><polygon points="65.86 10.33 65.04 16.28 65 16.28 65.82 10.33 65.86 10.33" fill="#eaab6e"/><polygon points="65.91 10.33 65.08 16.28 65.04 16.28 65.86 10.33 65.91 10.33" fill="#ebac6f"/><polygon points="65.95 10.33 65.12 16.28 65.08 16.28 65.91 10.33 65.95 10.33" fill="#ebad6f"/><polygon points="65.99 10.33 65.16 16.28 65.12 16.28 65.95 10.33 65.99 10.33" fill="#ebae70"/><polygon points="66.03 10.33 65.2 16.28 65.16 16.28 65.99 10.33 66.03 10.33" fill="#ecaf71"/><polygon points="66.07 10.33 65.25 16.28 65.2 16.28 66.03 10.33 66.07 10.33" fill="#ecb072"/><polygon points="66.11 10.33 65.29 16.28 65.25 16.28 66.07 10.33 66.11 10.33" fill="#edb172"/><polygon points="66.16 10.33 65.33 16.28 65.29 16.28 66.11 10.33 66.16 10.33" fill="#edb273"/><polygon points="66.2 10.33 65.37 16.28 65.33 16.28 66.16 10.33 66.2 10.33" fill="#edb374"/><polygon points="66.24 10.33 65.41 16.28 65.37 16.28 66.2 10.33 66.24 10.33" fill="#eeb474"/><polygon points="66.28 10.33 65.45 16.28 65.41 16.28 66.24 10.33 66.28 10.33" fill="#eeb575"/><polygon points="65.45 16.28 66.28 10.33 66.28 16.28 65.45 16.28" fill="#eeb575"/></g><rect x="56.92" y="39.24" width="6.56" height="5.9" rx="0.63" fill="#08081a"/><rect x="61.71" y="38.79" width="1.79" height="1.35" fill="#08081a"/><g id="SSH"><path d="M63.21,38.6h-6a.35.35,0,0,0-.35.35V44.8a.35.35,0,0,0,.35.35h6a.35.35,0,0,0,.34-.35V39A.35.35,0,0,0,63.21,38.6Zm-.05.39a.15.15,0,1,1-.15-.15A.15.15,0,0,1,63.16,39Zm-.52,0a.15.15,0,0,1-.15.15.15.15,0,0,1,0-.3A.15.15,0,0,1,62.64,39Zm-.53,0a.15.15,0,0,1-.15.15.15.15,0,0,1,0-.3A.15.15,0,0,1,62.11,39Zm1.1,6h-6A.21.21,0,0,1,57,44.8V39.31h6.41V44.8A.21.21,0,0,1,63.21,45Z" fill="#fff"/><polygon points="58.27 41.31 59.37 41.7 58.27 42.09 58.27 42.48 59.87 41.89 59.87 41.51 58.27 40.92 58.27 41.31" fill="#fff"/><rect x="60.01" y="43.47" width="2.45" height="0.39" fill="#fff"/></g><g id="EC2"><path d="M73.45,32.34a.43.43,0,0,0,.43.43h3.89a.42.42,0,0,0,.42-.43v-4a.42.42,0,0,0-.42-.43H73.88a.43.43,0,0,0-.43.43Z" fill="#f7981f"/><path d="M73.08,28a.42.42,0,0,1,.42-.43h2.92v-1a.43.43,0,0,0-.43-.43H72.1a.42.42,0,0,0-.42.43h0v4a.42.42,0,0,0,.42.43h1Z" fill="#f7981f"/><path d="M71.32,26.19a.43.43,0,0,1,.43-.43h2.91v-1a.42.42,0,0,0-.42-.43H70.35a.43.43,0,0,0-.43.43v4a.43.43,0,0,0,.43.43h1Z" fill="#f7981f"/></g><g id="lambda"><g id="layer1"><g id="path1212"><path d="M23.29,46.94h-2a.11.11,0,0,1-.11-.07L18.33,41H17.16a.13.13,0,0,1-.12-.12V39.1a.12.12,0,0,1,.12-.12h2.46a.13.13,0,0,1,.11.06L22.59,45h.7a.12.12,0,0,1,.12.12v1.75A.12.12,0,0,1,23.29,46.94Zm-1.92-.24h1.8V45.19h-.65a.12.12,0,0,1-.11-.07l-2.87-5.9H17.28v1.52h1.13a.1.1,0,0,1,.1.07Z" fill="#f7981f"/></g><g id="path1214"><path d="M18,46.93H15.89a.11.11,0,0,1-.1-.06.09.09,0,0,1,0-.11l2.16-4.59a.14.14,0,0,1,.11-.07h0a.12.12,0,0,1,.11.07l1,2.13a.21.21,0,0,1,0,.11l-1.13,2.45A.12.12,0,0,1,18,46.93Zm-1.88-.24h1.81L19,44.36l-.91-1.86Z" fill="#f7981f"/></g></g></g><g id="AWS_Batch" data-name="AWS Batch"><path d="M25.94,16.88a.32.32,0,0,1,.33.32.33.33,0,1,1-.66,0,.32.32,0,0,1,.33-.32m-2.76-2.64a.33.33,0,0,1-.66,0,.33.33,0,0,1,.66,0M29,17.91a.65.65,0,0,1-.68-.64A.68.68,0,0,1,29,16.6a.67.67,0,0,1,.67.67.65.65,0,0,1-.67.64m-.68-3.65A.67.67,0,0,1,29,13.6a.66.66,0,0,1,.67.66.67.67,0,0,1-.67.67.68.68,0,0,1-.68-.67m-2.41.67a.67.67,0,0,1-.67-.67.67.67,0,0,1,1.34,0,.67.67,0,0,1-.67.67m.73,2.25a.71.71,0,0,1-.73.73.73.73,0,1,1,.73-.73m-1.61-5.84a.88.88,0,1,1,.88.88.91.91,0,0,1-.88-.88M22.85,15a.72.72,0,0,1-.74-.73.74.74,0,1,1,1.47,0,.71.71,0,0,1-.73.73m.67,2.27a.68.68,0,0,1-1.35,0,.68.68,0,0,1,1.35,0m5.65-.94V15.21A1,1,0,0,0,29,13.3a1,1,0,0,0-1,.82H26.89a.94.94,0,0,0-.8-.8V12.5a1.18,1.18,0,1,0-.3,0v.82a1,1,0,0,0-.81.8H23.87a1,1,0,0,0-2.05.14,1,1,0,0,0,.88,1v1.05a1,1,0,0,0-.82.94,1,1,0,0,0,1.93,0,1,1,0,0,0-.82-.94V15.27a1,1,0,0,0,.88-.86H25a1,1,0,0,0,.81.8v1a1,1,0,1,0,.3,0v-1a1,1,0,0,0,.8-.8h1.18a1,1,0,0,0,.81.8v1.11a1,1,0,0,0-.82.95,1,1,0,0,0,1.93,0,1,1,0,0,0-.82-.95" fill="#f7981f"/></g><g id="ECS"><path d="M6.41,24.51a.12.12,0,0,1-.08,0L3.08,22.61A.13.13,0,0,1,3,22.48v-3.8a.16.16,0,0,1,.08-.14l3-1.72a.14.14,0,0,1,.2,0,.17.17,0,0,1,0,.1V18.6a.14.14,0,0,1-.07.12l-1.5.86v2l1.68,1,1.48-.86a.17.17,0,0,1,.14,0l1.42.82a.16.16,0,0,1,.08.13.13.13,0,0,1-.08.13l-3,1.72-.07,0ZM3.29,22.38l3.2,1.84,2.74-1.58L8.09,22l-1.52.88a.22.22,0,0,1-.16,0l-1.9-1.1a.16.16,0,0,1-.08-.13V19.5a.16.16,0,0,1,.08-.13L6,18.51V17.2L3.29,18.78Z" fill="#f7981f"/><path d="M9.73,22.3l-.08,0-1.42-.82a.13.13,0,0,1-.08-.13V19.6l-1.49-.87a.13.13,0,0,1-.08-.13V17a.14.14,0,0,1,.14-.14.12.12,0,0,1,.08,0l3,1.72a.17.17,0,0,1,.07.13v3.46a.17.17,0,0,1-.07.14ZM8.45,21.24l1.14.65V18.78L6.87,17.2v1.31l1.5.87a.16.16,0,0,1,.08.13Z" fill="#f7981f"/></g></svg>