<svg width="105" height="117" viewBox="0 0 105 117" fill="none" xmlns="http://www.w3.org/2000/svg">
<rect width="105" height="117" rx="10" fill="#2F0E89"/>
<path d="M37.3334 37.495C37.3334 31.9721 41.8105 27.495 47.3334 27.495H105V89.505H47.3334C41.8105 89.505 37.3334 85.0278 37.3334 79.505V37.495Z" fill="#4A1DCA"/>
<rect x="56.9334" y="43.64" width="32.55" height="22.7" rx="1.65" fill="#0F0F32" stroke="#6D7CFF" stroke-width="0.7"/>
<path d="M89.1041 69.03H58.4791C57.6672 69.0291 56.8888 68.7069 56.3146 68.1342C55.7405 67.5615 55.4176 66.785 55.4166 65.975V44.59C55.4174 43.78 55.7404 43.0035 56.3145 42.4307C56.8887 41.858 57.6671 41.5358 58.4791 41.535H89.1041C89.9161 41.536 90.6945 41.8581 91.2686 42.4308C91.8427 43.0036 92.1657 43.7801 92.1666 44.59V65.975C92.1655 66.7849 91.8425 67.5614 91.2684 68.134C90.6943 68.7067 89.916 69.0289 89.1041 69.03ZM58.4791 44.59V65.975H89.1041V44.59H58.4791Z" fill="#0F0F32"/>
<path d="M95.0833 71.9551H52.5V74.8801H95.0833V71.9551Z" fill="#0F0F32"/>
<path d="M69.4166 54.405H67.0833C66.7739 54.405 66.4771 54.5283 66.2583 54.7477C66.0395 54.9671 65.9166 55.2647 65.9166 55.575V62.595H67.0833V59.67H69.4166V62.595H70.5833V55.575C70.5833 55.2647 70.4604 54.9671 70.2416 54.7477C70.0228 54.5283 69.726 54.405 69.4166 54.405ZM67.0833 58.5V55.575H69.4166V58.5H67.0833Z" fill="#AEB6FF"/>
<path d="M77.5833 55.575H79.3333V61.425H77.5833V62.595H82.2499V61.425H80.4999V55.575H82.2499V54.405H77.5833V55.575Z" fill="#AEB6FF"/>
<path d="M72.9167 62.595H71.75V54.405H75.25C75.5594 54.405 75.8562 54.5283 76.075 54.7477C76.2937 54.9671 76.4167 55.2647 76.4167 55.575V58.5C76.4167 58.8103 76.2937 59.1079 76.075 59.3273C75.8562 59.5468 75.5594 59.67 75.25 59.67H72.9167V62.595ZM72.9167 58.5H75.25V55.575H72.9167V58.5Z" fill="#AEB6FF"/>
<path d="M72.519 46.08C73.0148 46.08 73.4205 46.485 73.4205 46.98C73.4205 47.475 73.0148 47.88 72.519 47.88C72.0231 47.88 71.6174 47.475 71.6174 46.98C71.6174 46.485 72.0231 46.08 72.519 46.08ZM72.519 45.63C71.7727 45.63 71.1666 46.235 71.1666 46.98C71.1666 47.725 71.7727 48.33 72.519 48.33C73.2652 48.33 73.8713 47.725 73.8713 46.98C73.8713 46.235 73.2652 45.63 72.519 45.63Z" fill="#AEB6FF"/>
<path d="M75.7273 49.2302C76.2232 49.2302 76.6289 49.6352 76.6289 50.1302C76.6289 50.6252 76.2232 51.0302 75.7273 51.0302C75.2315 51.0302 74.8258 50.6252 74.8258 50.1302C74.8258 49.6352 75.2315 49.2302 75.7273 49.2302ZM75.7273 48.7802C74.981 48.7802 74.375 49.3852 74.375 50.1302C74.375 50.8752 74.981 51.4802 75.7273 51.4802C76.4736 51.4802 77.0796 50.8752 77.0796 50.1302C77.0796 49.3852 76.4736 48.7802 75.7273 48.7802Z" fill="#AEB6FF"/>
<path d="M74.375 45.3375L77.2917 48.2625H74.375V45.3375Z" fill="#AEB6FF"/>
<path d="M74.0833 48.5551H71.1666V51.4801H74.0833V48.5551Z" fill="#AEB6FF"/>
<path d="M51.3334 19.89H50.8334V20.39H51.3334V19.89ZM78.75 19.89H79.25V19.39H78.75V19.89ZM78.25 25.155C78.25 25.4312 78.4739 25.655 78.75 25.655C79.0262 25.655 79.25 25.4312 79.25 25.155H78.25ZM50.8334 15.795V19.89H51.8334V15.795H50.8334ZM51.3334 20.39H78.75V19.39H51.3334V20.39ZM78.25 19.89V25.155H79.25V19.89H78.25Z" fill="#6D7CFF"/>
<path d="M51.3334 96.8176H50.8334V96.3176H51.3334V96.8176ZM78.75 96.8176H79.25V97.3176H78.75V96.8176ZM78.25 91.5526C78.25 91.2765 78.4739 91.0526 78.75 91.0526C79.0262 91.0526 79.25 91.2765 79.25 91.5526H78.25ZM50.8334 100.913V96.8176H51.8334V100.913H50.8334ZM51.3334 96.3176H78.75V97.3176H51.3334V96.3176ZM78.25 96.8176V91.5526H79.25V96.8176H78.25Z" fill="#6D7CFF"/>
<path d="M29.75 26.325L29.75 25.825L30.25 25.825L30.25 26.325L29.75 26.325ZM29.75 53.82L29.75 54.32L29.25 54.32L29.25 53.82L29.75 53.82ZM35 53.32C35.2761 53.32 35.5 53.5438 35.5 53.82C35.5 54.0961 35.2761 54.32 35 54.32L35 53.32ZM25.6666 25.825L29.75 25.825L29.75 26.825L25.6666 26.825L25.6666 25.825ZM30.25 26.325L30.25 53.82L29.25 53.82L29.25 26.325L30.25 26.325ZM29.75 53.32L35 53.32L35 54.32L29.75 54.32L29.75 53.32Z" fill="#6D7CFF"/>
<path d="M29.75 90.9675L29.75 91.4675L30.25 91.4675L30.25 90.9675L29.75 90.9675ZM29.75 63.4725L29.75 62.9725L29.25 62.9725L29.25 63.4725L29.75 63.4725ZM35 63.9725C35.2761 63.9725 35.5 63.7487 35.5 63.4725C35.5 63.1964 35.2761 62.9725 35 62.9725L35 63.9725ZM25.6666 91.4675L29.75 91.4675L29.75 90.4675L25.6666 90.4675L25.6666 91.4675ZM30.25 90.9675L30.25 63.4725L29.25 63.4725L29.25 90.9675L30.25 90.9675ZM29.75 63.9725L35 63.9725L35 62.9725L29.75 62.9725L29.75 63.9725Z" fill="#6D7CFF"/>
<path d="M77.2916 26.3209C77.2916 25.5155 77.9445 24.8625 78.75 24.8625C79.5554 24.8625 80.2083 25.5155 80.2083 26.3209V26.6175H77.2916V26.3209Z" fill="#6D7CFF"/>
<path d="M77.2916 90.3866C77.2916 91.1921 77.9445 91.845 78.75 91.845C79.5554 91.845 80.2083 91.1921 80.2083 90.3866V90.09H77.2916V90.3866Z" fill="#6D7CFF"/>
<path d="M36.1709 54.99C35.3632 54.99 34.7084 54.3352 34.7084 53.5275C34.7084 52.7198 35.3632 52.065 36.1709 52.065L36.4584 52.065L36.4584 54.99L36.1709 54.99Z" fill="#6D7CFF"/>
<path d="M36.1709 62.01C35.3632 62.01 34.7084 62.6648 34.7084 63.4725C34.7084 64.2802 35.3632 64.935 36.1709 64.935L36.4584 64.935L36.4584 62.01L36.1709 62.01Z" fill="#6D7CFF"/>
<g clip-path="url(#clip0_1246_2181)">
<path d="M20.3984 27.7039H18.5677V25.8654H17.6523V30.0022H10.3295V22.6479H14.4486V21.7286H12.6178V19.89H11.7025V21.7286H10.3295C9.826 21.7286 9.41409 22.1423 9.41409 22.6479V24.0268H7.58337V24.9461H9.41409V27.7039H7.58337V28.6232H9.41409V30.0022C9.41409 30.5078 9.826 30.9214 10.3295 30.9214H11.7025V32.76H12.6178V30.9214H15.3639V32.76H16.2793V30.9214H17.6523C18.1558 30.9214 18.5677 30.5078 18.5677 30.0022V28.6232H20.3984V27.7039Z" fill="#AEB6FF"/>
<path d="M7.60168 27.7039H9.4324V25.8654H10.3478V30.0022H17.6706V22.6479H13.5515V21.7286H15.3822V19.89H16.2976V21.7286H17.6706C18.1741 21.7286 18.586 22.1423 18.586 22.6479V24.0268H20.4167V24.9461H18.586V27.7039H20.4167V28.6232H18.586V30.0022C18.586 30.5078 18.1741 30.9214 17.6706 30.9214H16.2976V32.76H15.3822V30.9214H12.6362V32.76H11.7208V30.9214H10.3478C9.84431 30.9214 9.4324 30.5078 9.4324 30.0022V28.6232H7.60168V27.7039Z" fill="#AEB6FF"/>
<path d="M16.2793 28.6233H11.7025V24.0269H16.2793V28.6233ZM12.6179 27.704H15.364V24.9461H12.6179V27.704Z" fill="#AEB6FF"/>
</g>
<path d="M17.6175 88.9094C17.4971 88.8692 17.3768 88.829 17.2565 88.7968C17.2766 88.7163 17.2966 88.6319 17.3127 88.5474C17.5854 87.2122 17.4089 86.1383 16.7953 85.7844C16.2098 85.4425 15.2513 85.7965 14.2848 86.6451C14.1886 86.7295 14.0963 86.814 14.0041 86.9025C13.9439 86.8422 13.8798 86.7858 13.8156 86.7295C12.8009 85.8246 11.7863 85.4425 11.1727 85.7965C10.5872 86.1383 10.4148 87.1478 10.6594 88.4147C10.6834 88.5394 10.7115 88.6641 10.7436 88.7887C10.6032 88.829 10.4629 88.8732 10.3265 88.9215C9.13944 89.3397 8.38147 89.9913 8.38147 90.667C8.38147 91.3426 9.19558 92.0666 10.4348 92.4929C10.5351 92.5291 10.6353 92.5572 10.7396 92.5894C10.7075 92.7221 10.6754 92.8549 10.6514 92.9916C10.4188 94.2344 10.5992 95.2237 11.1848 95.5616C11.7863 95.9115 12.7969 95.5535 13.7835 94.6848C13.8597 94.6164 13.9399 94.544 14.0161 94.4676C14.1164 94.5642 14.2166 94.6567 14.3209 94.7451C15.2754 95.5696 16.2178 95.9034 16.7993 95.5656C17.4009 95.2157 17.5974 94.1539 17.3448 92.8669C17.3247 92.7664 17.3006 92.6658 17.2766 92.5653C17.3488 92.5452 17.4169 92.521 17.4851 92.5009C18.7725 92.0706 19.6106 91.3788 19.6106 90.671C19.6106 89.9913 18.8246 89.3317 17.6134 88.9134L17.6175 88.9094ZM14.5976 87.0071C15.4278 86.2831 16.2018 85.9976 16.5547 86.1987C16.9317 86.4158 17.0761 87.2966 16.8394 88.4469C16.8234 88.5233 16.8074 88.5957 16.7873 88.6721C16.294 88.5595 15.7887 88.4791 15.2874 88.4348C14.9987 88.0165 14.6818 87.6184 14.3369 87.2443C14.4212 87.1639 14.5054 87.0835 14.5936 87.0071H14.5976ZM11.6981 91.2461C11.7983 91.4432 11.9066 91.6362 12.0149 91.8293C12.1272 92.0264 12.2435 92.2194 12.3678 92.4084C12.0189 92.3722 11.674 92.3159 11.3331 92.2435C11.4334 91.9218 11.5537 91.588 11.6981 91.2461ZM11.6981 90.1119C11.5577 89.7781 11.4374 89.4524 11.3412 89.1346C11.662 89.0622 12.0029 89.0019 12.3598 88.9577C12.2395 89.1427 12.1272 89.3357 12.0149 89.5247C11.9026 89.7178 11.7983 89.9108 11.6981 90.1079V90.1119ZM11.9507 90.679C12.0991 90.3693 12.2595 90.0677 12.428 89.7701C12.5964 89.4725 12.7809 89.1829 12.9734 88.8973C13.3063 88.8732 13.6512 88.8571 13.9961 88.8571C14.3409 88.8571 14.6858 88.8692 15.0187 88.8973C15.2072 89.1789 15.3877 89.4684 15.5601 89.7661C15.7326 90.0637 15.893 90.3653 16.0454 90.671C15.897 90.9807 15.7326 91.2863 15.5641 91.5839C15.3957 91.8816 15.2152 92.1711 15.0267 92.4567C14.6939 92.4808 14.349 92.4929 13.9961 92.4929C13.6431 92.4929 13.3063 92.4808 12.9814 92.4607C12.7889 92.1752 12.6044 91.8856 12.432 91.5839C12.2595 91.2863 12.0991 90.9807 11.9507 90.675V90.679ZM15.9772 91.8253C16.0895 91.6282 16.1978 91.4311 16.302 91.226C16.4464 91.5477 16.5707 91.8816 16.679 92.2194C16.3341 92.2958 15.9852 92.3561 15.6323 92.4004C15.7526 92.2114 15.8649 92.0183 15.9772 91.8253ZM16.298 90.1119C16.1938 89.9149 16.0855 89.7178 15.9732 89.5247C15.8649 89.3357 15.7526 89.1467 15.6323 88.9617C15.9892 89.0059 16.3341 89.0663 16.655 89.1427C16.5507 89.4725 16.4304 89.7942 16.294 90.1119H16.298ZM14.0001 87.5902C14.2327 87.8476 14.4532 88.1131 14.6618 88.3906C14.2206 88.3705 13.7795 88.3705 13.3343 88.3906C13.5509 88.101 13.7755 87.8315 14.0001 87.5902ZM11.4133 86.2147C11.7903 85.9976 12.6205 86.3072 13.4948 87.0875C13.5509 87.1358 13.607 87.188 13.6632 87.2443C13.3183 87.6184 12.9975 88.0165 12.7087 88.4348C12.2034 88.4791 11.7061 88.5595 11.2088 88.6681C11.1807 88.5515 11.1567 88.4388 11.1326 88.3222C10.9201 87.2363 11.0604 86.4199 11.4133 86.2147ZM10.8639 92.1229C10.7717 92.0947 10.6794 92.0666 10.5872 92.0344C10.0378 91.8454 9.58861 91.6041 9.27579 91.3346C8.99907 91.0973 8.8547 90.856 8.8547 90.6629C8.8547 90.2527 9.46428 89.7258 10.4829 89.3719C10.6113 89.3277 10.7396 89.2875 10.8679 89.2513C11.0203 89.7379 11.2008 90.2125 11.4174 90.675C11.2008 91.1456 11.0163 91.6282 10.8639 92.1189V92.1229ZM13.4627 94.3188C13.0255 94.7009 12.5924 94.9744 12.2074 95.1111C11.8625 95.2318 11.5858 95.2358 11.4214 95.1393C11.0684 94.9342 10.9201 94.1419 11.1206 93.0761C11.1446 92.9514 11.1727 92.8267 11.2048 92.702C11.7021 92.8106 12.2074 92.883 12.7167 92.9232C13.0095 93.3415 13.3343 93.7437 13.6792 94.1217C13.6111 94.1901 13.5389 94.2545 13.4667 94.3188H13.4627ZM14.0121 93.7718C13.7835 93.5265 13.5589 93.253 13.3383 92.9594C13.5549 92.9675 13.7715 92.9715 13.9961 92.9715C14.2206 92.9715 14.4492 92.9675 14.6738 92.9554C14.4653 93.2369 14.2487 93.5104 14.0121 93.7718ZM16.9237 94.4435C16.8555 94.8055 16.7231 95.0468 16.5547 95.1433C16.2018 95.3484 15.4438 95.083 14.6297 94.3751C14.5334 94.2947 14.4412 94.2062 14.349 94.1177C14.6899 93.7397 15.0027 93.3375 15.2914 92.9152C15.8048 92.8709 16.3101 92.7905 16.8114 92.6779C16.8314 92.7704 16.8555 92.8629 16.8715 92.9514C16.9838 93.5225 16.9999 94.0373 16.9237 94.4395V94.4435ZM17.3327 92.0344C17.2726 92.0545 17.2084 92.0746 17.1442 92.0947C16.9878 91.6041 16.7953 91.1295 16.5748 90.667C16.7873 90.2085 16.9718 89.7379 17.1202 89.2593C17.2325 89.2915 17.3448 89.3277 17.453 89.3639C18.4917 89.7218 19.1254 90.2567 19.1254 90.6629C19.1254 91.1013 18.4396 91.6644 17.3287 92.0344H17.3327Z" fill="#AEB6FF"/>
<path d="M14.0001 91.6725C14.2006 91.6725 14.3931 91.6161 14.5615 91.5035C14.726 91.3909 14.8583 91.2341 14.9345 91.0531C15.0107 90.8681 15.0308 90.667 14.9947 90.4699C14.9546 90.2728 14.8583 90.0919 14.722 89.9511C14.5816 89.8103 14.4011 89.7138 14.2086 89.6736C14.0121 89.6334 13.8116 89.6535 13.6271 89.7299C13.4426 89.8063 13.2862 89.935 13.1739 90.0999C13.0616 90.2648 13.0055 90.4619 13.0055 90.6589C13.0055 90.7917 13.0296 90.9244 13.0817 91.045C13.1298 91.1697 13.206 91.2783 13.2983 91.3708C13.3905 91.4633 13.5028 91.5397 13.6231 91.588C13.7434 91.6403 13.8758 91.6644 14.0081 91.6644L14.0001 91.6725Z" fill="#AEB6FF"/>
<g clip-path="url(#clip1_1246_2181)">
<path d="M56.1458 102.139H46.5208C46.0797 102.139 45.7188 102.481 45.7188 102.899V108.977C45.7188 109.394 46.0797 109.736 46.5208 109.736H49.7292V111.256H48.125V112.015H54.5417V111.256H52.9375V109.736H56.1458C56.587 109.736 56.9479 109.394 56.9479 108.977V102.899C56.9479 102.481 56.587 102.139 56.1458 102.139ZM52.1354 111.256H50.5312V109.736H52.1354V111.256ZM56.1458 108.977H46.5208V102.899H56.1458V108.977Z" fill="#AEB6FF"/>
</g>
<path d="M53.74 8.51941H48.9271V9.32384H53.74V8.51941Z" fill="#AEB6FF"/>
<path d="M52.1359 10.1282H48.9274V10.9326H52.1359V10.1282Z" fill="#AEB6FF"/>
<path d="M51.3335 4.8994C52.0797 4.90045 52.8024 5.16153 53.3778 5.63797C53.9532 6.11441 54.3456 6.77659 54.4879 7.5112L54.5918 8.05258L55.1328 8.15072C55.6749 8.24873 56.1608 8.54653 56.4951 8.98558C56.8294 9.42464 56.9879 9.9732 56.9393 10.5235C56.8908 11.0737 56.6388 11.5859 56.2329 11.9593C55.827 12.3327 55.2965 12.5404 54.7457 12.5415H47.9226C47.3716 12.5408 46.8408 12.3335 46.4345 11.9602C46.0283 11.5869 45.776 11.0747 45.7273 10.5243C45.6785 9.97393 45.8369 9.42517 46.1711 8.98593C46.5054 8.54669 46.9915 8.24876 47.5337 8.15072L48.0747 8.05258L48.1786 7.5112C48.3211 6.77659 48.7136 6.11444 49.2891 5.63802C49.8646 5.1616 50.5873 4.9005 51.3335 4.8994ZM51.3335 4.09497C50.4008 4.09599 49.4975 4.42219 48.7783 5.01768C48.059 5.61317 47.5686 6.44092 47.391 7.35916C46.6518 7.49296 45.9892 7.8992 45.5335 8.49804C45.0779 9.09688 44.862 9.84499 44.9284 10.5953C44.9948 11.3457 45.3387 12.044 45.8924 12.5529C46.4462 13.0619 47.1697 13.3448 47.9208 13.3459H54.7457C55.4968 13.3448 56.2204 13.062 56.7741 12.553C57.3279 12.044 57.6717 11.3457 57.7382 10.5954C57.8046 9.84502 57.5887 9.0969 57.133 8.49806C56.6774 7.89921 56.0148 7.49296 55.2756 7.35916C55.098 6.44015 54.6069 5.61178 53.8868 5.01619C53.1666 4.42059 52.2623 4.09489 51.3288 4.09497H51.3335Z" fill="#AEB6FF"/>
<defs>
<clipPath id="clip0_1246_2181">
<rect width="12.8333" height="12.87" fill="white" transform="translate(7.58337 19.89)"/>
</clipPath>
<clipPath id="clip1_1246_2181">
<rect width="12.8333" height="12.155" fill="white" transform="translate(44.9166 100.62)"/>
</clipPath>
</defs>
</svg>
