<svg width="37" height="22" viewBox="0 0 37 22" fill="none" xmlns="http://www.w3.org/2000/svg">
<g clip-path="url(#clip0_1246_2347)">
<path d="M10.3323 7.95652C10.3206 8.32341 10.3677 8.68981 10.4716 9.04186C10.5788 9.3434 10.7112 9.63533 10.8676 9.91452C10.9209 9.99808 10.9513 10.0942 10.9556 10.1932C10.9479 10.2674 10.9226 10.3388 10.8818 10.4012C10.841 10.4637 10.7858 10.5156 10.721 10.5525L9.98763 11.0659C9.89275 11.1325 9.7808 11.1707 9.66496 11.1759C9.59679 11.1734 9.52982 11.1572 9.46807 11.1282C9.40631 11.0992 9.35106 11.0581 9.30563 11.0072C9.13529 10.8387 8.98741 10.6489 8.86563 10.4425C8.74341 10.2372 8.61874 9.99274 8.49163 9.70919C8.06214 10.2452 7.51571 10.6759 6.89416 10.9682C6.27261 11.2606 5.59241 11.4069 4.90563 11.3959C4.46212 11.4202 4.01822 11.3555 3.60009 11.2056C3.18196 11.0557 2.79805 10.8237 2.47096 10.5232C2.16795 10.215 1.93204 9.84735 1.77806 9.44348C1.62409 9.03961 1.55539 8.60824 1.5763 8.17652C1.55686 7.7073 1.64296 7.2397 1.82826 6.80817C2.01356 6.37665 2.29334 5.99221 2.64696 5.68319C3.49608 5.01451 4.55978 4.6782 5.63896 4.73719C6.0709 4.73845 6.5022 4.7703 6.92963 4.83252C7.37941 4.89608 7.84629 4.98408 8.3303 5.09652V4.20186C8.40151 3.50072 8.19334 2.79979 7.75096 2.25119C7.18499 1.81597 6.47389 1.61392 5.76363 1.68652C5.32127 1.68876 4.8807 1.74291 4.45096 1.84786C4.00375 1.9548 3.56501 2.09451 3.1383 2.26586C3.00035 2.32925 2.85825 2.38315 2.71296 2.42719H2.5223C2.35119 2.42719 2.26563 2.30008 2.26563 2.04586V1.46652C2.25514 1.31934 2.2856 1.17213 2.35363 1.04119C2.44554 0.928466 2.56396 0.840281 2.6983 0.784523C3.18909 0.5494 3.70265 0.365107 4.23096 0.234523C4.8514 0.0752184 5.48974 -0.00365046 6.1303 -0.000143329C7.28242 -0.102252 8.42842 0.253402 9.32029 0.989856C9.68289 1.39548 9.9595 1.87038 10.1334 2.38589C10.3074 2.9014 10.375 3.44681 10.3323 3.98919V7.95652ZM5.3823 9.81186C5.81235 9.8056 6.23845 9.7288 6.64363 9.58452C7.09026 9.42982 7.48765 9.15899 7.79496 8.79986C7.98429 8.58872 8.12454 8.33828 8.20563 8.06652C8.29006 7.72105 8.3295 7.36611 8.32296 7.01052V6.49719C7.95295 6.40851 7.5784 6.33997 7.20096 6.29186C6.82156 6.24332 6.43946 6.21882 6.05696 6.21852C5.41477 6.17036 4.77546 6.34378 4.24563 6.70986C4.05426 6.87868 3.90296 7.08807 3.80274 7.32276C3.70252 7.55745 3.65591 7.81154 3.6663 8.06652C3.64896 8.30079 3.6797 8.53612 3.75662 8.75807C3.83355 8.98002 3.95504 9.1839 4.11363 9.35719C4.28486 9.5126 4.48504 9.63275 4.70272 9.71076C4.9204 9.78878 5.15133 9.82313 5.3823 9.81186ZM15.1723 11.1319C15.0071 11.147 14.8416 11.1056 14.703 11.0145C14.5731 10.8838 14.484 10.7182 14.4463 10.5379L11.5936 1.10719C11.5383 0.948161 11.5014 0.783304 11.4836 0.615857C11.4774 0.574944 11.4809 0.533143 11.4938 0.493826C11.5067 0.45451 11.5287 0.418779 11.558 0.389517C11.5872 0.360256 11.6229 0.338283 11.6623 0.325372C11.7016 0.31246 11.7434 0.308973 11.7843 0.31519H12.9796C13.1473 0.29838 13.3156 0.339814 13.4563 0.432523C13.5776 0.567255 13.6611 0.731719 13.6983 0.90919L15.7443 8.97586L17.6436 0.90919C17.6729 0.731195 17.7576 0.566971 17.8856 0.439857C18.0326 0.349151 18.2048 0.308023 18.377 0.322523H19.3596C19.5317 0.308023 19.704 0.349151 19.851 0.439857C19.9776 0.569915 20.0598 0.736808 20.0856 0.916523L21.9996 9.08586L24.1116 0.916523C24.1506 0.738175 24.2367 0.573553 24.361 0.439857C24.5016 0.347147 24.67 0.305714 24.8376 0.322523H25.967C26.0079 0.316306 26.0497 0.319794 26.089 0.332705C26.1283 0.345616 26.164 0.367589 26.1933 0.396851C26.2226 0.426112 26.2445 0.461843 26.2574 0.50116C26.2704 0.540476 26.2738 0.582277 26.2676 0.62319C26.2737 0.6866 26.2737 0.750447 26.2676 0.813857C26.2442 0.915715 26.2148 1.01611 26.1796 1.11452L23.2463 10.5452C23.2086 10.7255 23.1194 10.8911 22.9896 11.0219C22.851 11.1129 22.6855 11.1543 22.5203 11.1392H21.4496C21.2762 11.1574 21.102 11.1132 20.9583 11.0145C20.8325 10.878 20.7507 10.7068 20.7236 10.5232L18.8243 2.66919L16.947 10.5159C16.9199 10.6995 16.8381 10.8707 16.7123 11.0072C16.5685 11.1058 16.3944 11.15 16.221 11.1319H15.1723ZM30.8363 11.4545C30.2044 11.4556 29.5746 11.3842 28.959 11.2419C28.4694 11.1433 27.9956 10.978 27.551 10.7505C27.4173 10.6939 27.3034 10.5989 27.2237 10.4774C27.1441 10.356 27.1023 10.2137 27.1036 10.0685V9.45252C27.1036 9.1983 27.1965 9.07119 27.3823 9.07119C27.4601 9.07234 27.537 9.08724 27.6096 9.11519L27.9176 9.23986C28.348 9.43031 28.7981 9.57295 29.2596 9.66519C29.7422 9.76432 30.2337 9.81347 30.7263 9.81186C31.3465 9.84861 31.9644 9.70876 32.5083 9.40852C32.7068 9.29057 32.87 9.12153 32.9809 8.91903C33.0919 8.71652 33.1464 8.48796 33.139 8.25719C33.1431 8.1006 33.1161 7.94474 33.0595 7.79869C33.0028 7.65264 32.9176 7.51933 32.809 7.40652C32.4388 7.09632 32.0022 6.87551 31.533 6.76119L29.7656 6.20386C29.0214 5.99707 28.3585 5.56708 27.8663 4.97186C27.4732 4.46646 27.2591 3.8448 27.2576 3.20452C27.2474 2.73126 27.3612 2.26355 27.5876 1.84786C27.8068 1.45682 28.1038 1.11489 28.4603 0.84319C28.8341 0.558976 29.2565 0.345263 29.707 0.212523C30.2051 0.0687874 30.7212 -0.0028293 31.2396 -0.000143329C31.5142 -0.000385186 31.7885 0.0167602 32.061 0.05119C32.3396 0.0854122 32.6036 0.131857 32.853 0.190523C33.1023 0.24919 33.3345 0.312745 33.5496 0.38119C33.7267 0.436727 33.8985 0.507896 34.063 0.593857C34.2018 0.668734 34.3241 0.77102 34.4223 0.894523C34.4998 1.01434 34.5383 1.15527 34.5323 1.29786V1.87719C34.5323 2.13141 34.4394 2.25852 34.2536 2.25852C34.0892 2.24016 33.9299 2.19037 33.7843 2.11186C33.0443 1.79041 32.2443 1.63041 31.4376 1.64252C30.8765 1.61336 30.3176 1.73222 29.817 1.98719C29.6294 2.09674 29.4759 2.25621 29.3736 2.44784C29.2714 2.63946 29.2243 2.85572 29.2376 3.07252C29.234 3.23383 29.264 3.39412 29.3259 3.54313C29.3878 3.69214 29.4801 3.82659 29.597 3.93786C29.9922 4.25403 30.4494 4.48386 30.939 4.61252L32.6696 5.13319C33.4025 5.32367 34.0599 5.73296 34.5543 6.30652C34.942 6.80978 35.1441 7.43148 35.1263 8.06652C35.1328 8.55724 35.0221 9.04243 34.8036 9.48186C34.5901 9.90164 34.2872 10.2696 33.9163 10.5599C33.512 10.8721 33.0514 11.1036 32.5596 11.2419C31.9984 11.3952 31.418 11.4669 30.8363 11.4545Z" fill="#E5E7F3"/>
<path fill-rule="evenodd" clip-rule="evenodd" d="M33.1393 17.461C29.128 20.4236 23.3053 22.0003 18.3333 22.0003C11.6251 22.0445 5.14301 19.5777 0.161327 15.085C-0.212673 14.7476 0.117327 14.2856 0.571994 14.5423C6.09835 17.7035 12.3554 19.3645 18.722 19.3603C23.4765 19.3347 28.1792 18.3703 32.56 16.5223C33.2347 16.2363 33.8067 16.9696 33.1393 17.461Z" fill="#E5E7F3"/>
<path fill-rule="evenodd" clip-rule="evenodd" d="M34.811 15.5539C34.2977 14.8939 31.4157 15.2459 30.125 15.3999C29.7364 15.4439 29.6704 15.1065 30.0224 14.8572C32.3177 13.2439 36.087 13.7059 36.5197 14.2485C36.9524 14.7912 36.4024 18.5679 34.2537 20.3719C33.9237 20.6505 33.6084 20.5039 33.755 20.1372C34.239 18.9199 35.3244 16.2139 34.811 15.5539Z" fill="#E5E7F3"/>
<path fill-rule="evenodd" clip-rule="evenodd" d="M33.1393 17.461C29.128 20.4236 23.3053 22.0003 18.3333 22.0003C11.6251 22.0445 5.14301 19.5777 0.161327 15.085C-0.212673 14.7476 0.117327 14.2856 0.571994 14.5423C6.09835 17.7035 12.3554 19.3645 18.722 19.3603C23.4765 19.3347 28.1792 18.3703 32.56 16.5223C33.2347 16.2363 33.8067 16.9696 33.1393 17.461Z" fill="#E5E7F3"/>
<path fill-rule="evenodd" clip-rule="evenodd" d="M34.811 15.5539C34.2977 14.8939 31.4157 15.2459 30.125 15.3999C29.7364 15.4439 29.6704 15.1065 30.0224 14.8572C32.3177 13.2439 36.087 13.7059 36.5197 14.2485C36.9524 14.7912 36.4024 18.5679 34.2537 20.3719C33.9237 20.6505 33.6084 20.5039 33.755 20.1372C34.239 18.9199 35.3244 16.2139 34.811 15.5539Z" fill="#E5E7F3"/>
</g>
<defs>
<clipPath id="clip0_1246_2347">
<rect width="36.6667" height="22" fill="white"/>
</clipPath>
</defs>
</svg>
