<svg width="60" height="22" viewBox="0 0 60 22" fill="none" xmlns="http://www.w3.org/2000/svg">
<g clip-path="url(#clip0_1246_2728)">
<path d="M4.57582 9.82383L9.34142 7.06785C9.3886 7.04051 9.41758 6.99038 9.41758 6.93569L9.41815 5.28313C9.41815 5.03875 9.31812 4.79608 9.12318 4.64854C8.8714 4.4577 8.54801 4.4389 8.28202 4.59271L1.61586 8.44755C1.3817 8.58313 1.23677 8.83378 1.23677 9.10493L1.2345 17.8115C1.2345 18.0559 1.33453 18.298 1.5289 18.4461C1.78068 18.6375 2.10464 18.6563 2.37063 18.5025L3.7824 17.6862C3.82958 17.6588 3.85856 17.6087 3.85856 17.554L3.86027 11.0651C3.86027 10.553 4.13308 10.0796 4.57582 9.82383Z" fill="white"/>
<path d="M15.9996 8.57454C15.8808 8.50561 15.7507 8.47144 15.6205 8.47144C15.4904 8.47144 15.3602 8.50561 15.242 8.57454L8.57582 12.43C8.34223 12.565 8.19673 12.8167 8.19673 13.0873L8.19446 21.827C8.19446 22.1015 8.33598 22.3476 8.57298 22.4849C8.80998 22.6222 9.09359 22.6222 9.33059 22.4849L15.9967 18.6295C16.2303 18.4945 16.3758 18.2427 16.3758 17.9721L16.3787 9.23249C16.3781 8.95735 16.2366 8.71183 15.9996 8.57454Z" fill="white"/>
<path d="M8.23936 11.8444L12.6384 9.30035C12.6856 9.27301 12.7145 9.22288 12.7145 9.16819L12.7151 7.24333C12.7151 6.99838 12.6145 6.75628 12.4201 6.60874C12.1684 6.41791 11.845 6.39911 11.579 6.55292L9.75401 7.60848L4.91225 10.4083C4.67809 10.5439 4.53316 10.7946 4.53316 11.0657L4.53145 17.6424L4.53088 19.7723C4.53088 20.0167 4.63091 20.2593 4.82529 20.4069C5.07707 20.5983 5.40103 20.6171 5.66701 20.4633L7.44538 19.435C7.49255 19.4077 7.52153 19.3576 7.52153 19.3029L7.52324 13.0868C7.52324 12.5741 7.79605 12.1008 8.23936 11.8444Z" fill="white"/>
<path d="M21.3296 15.3249V12.6795C21.3296 10.4094 22.6669 8.8548 24.6823 8.8548C26.1265 8.8548 27.0898 9.60561 27.482 10.3023V5.51208C27.482 5.38676 27.5536 5.27966 27.7138 5.27966H29.4615C29.6042 5.27966 29.6934 5.38676 29.6934 5.51208V18.6671C29.6934 18.8101 29.6042 18.8995 29.4439 18.8995H27.7855C27.6428 18.8995 27.5536 18.8101 27.5536 18.6671V17.6662C27.1432 18.3635 26.1623 19.096 24.7715 19.096C22.6493 19.096 21.3296 17.5944 21.3296 15.3249ZM27.4814 15.0031V13.0013C27.4814 11.6074 26.572 10.803 25.4484 10.803C24.2003 10.803 23.5405 11.625 23.5405 13.0013V15.0031C23.5405 16.397 24.2003 17.1478 25.4484 17.1478C26.5726 17.1478 27.4814 16.397 27.4814 15.0031Z" fill="white"/>
<path d="M39.3576 12.0899V18.6495C39.3576 18.8107 39.2683 18.8995 39.1075 18.8995H37.5383C37.378 18.8995 37.2888 18.8101 37.2888 18.6495V17.4879C36.6824 18.4712 35.6838 19.0967 34.4709 19.0967C32.6164 19.0967 31.4393 17.881 31.4393 16.1117C31.4393 14.3241 32.6164 13.2873 35.1842 13.109C35.8798 13.0555 36.5397 13.0555 37.1995 13.0914V12.1799C37.1995 11.0719 36.5931 10.6248 35.5769 10.6248C34.5601 10.6248 34.1856 11.0002 33.9361 11.6974C33.865 11.894 33.7934 11.9298 33.5974 11.8763L32.0463 11.4832C31.8855 11.4297 31.8321 11.3403 31.8855 11.1973C32.1708 9.80333 33.4371 8.83777 35.6661 8.83777C37.9668 8.83663 39.3576 9.92695 39.3576 12.0899ZM37.2001 15.718V14.5024C36.5761 14.4847 35.9696 14.4847 35.3632 14.5383C34.2043 14.6636 33.5439 15.0567 33.5439 15.9858C33.5439 16.7901 34.0969 17.3085 35.0421 17.3085C36.0407 17.3085 36.8074 16.7189 37.2001 15.718Z" fill="white"/>
<path d="M48.666 11.1603C48.7194 11.3209 48.666 11.4463 48.4876 11.4998L47.1855 11.9646C46.9894 12.0182 46.9002 11.9646 46.8467 11.7858C46.5614 10.9814 45.9192 10.5884 44.9564 10.5884C43.9578 10.5884 43.369 10.9996 43.369 11.6428C43.369 12.2506 43.7788 12.5007 45.6697 13.0367C47.8987 13.6622 48.7905 14.5383 48.7905 16.0929C48.7905 17.9164 47.2929 19.1138 44.9922 19.1138C42.9234 19.1138 41.4253 18.2559 40.9621 16.7902C40.8904 16.5936 40.9621 16.4865 41.1758 16.3971L42.3346 15.8252C42.5483 15.754 42.6557 15.7893 42.7268 16.0399C42.9939 16.8619 43.8322 17.3627 44.92 17.3627C46.0255 17.3627 46.6677 16.9337 46.6677 16.2365C46.6677 15.5928 46.1329 15.2532 44.2778 14.7349C42.138 14.127 41.2462 13.2874 41.2462 11.7858C41.2462 10.0164 42.691 8.83667 44.8842 8.83667C46.8115 8.83667 48.2022 9.69457 48.666 11.1603Z" fill="white"/>
<path d="M58.5451 18.8996H56.6724C56.4939 18.8996 56.4228 18.8284 56.3518 18.6848L54.1227 14.5736L52.7848 16.1464V18.6489C52.7848 18.8101 52.6956 18.899 52.5353 18.899H50.8235C50.6632 18.899 50.574 18.8096 50.574 18.6489V5.51216C50.574 5.36918 50.6632 5.26208 50.8235 5.26208H52.5353C52.6956 5.26208 52.7848 5.36918 52.7848 5.51216V13.4303L56.1375 9.28383C56.2984 9.10496 56.4229 9.03376 56.6371 9.03376H58.4382C58.6525 9.03376 58.7059 9.24852 58.5991 9.37327L55.6027 12.8584L58.7235 18.5601C58.8298 18.7389 58.723 18.8996 58.5451 18.8996Z" fill="white"/>
</g>
<defs>
<clipPath id="clip0_1246_2728">
<rect width="60" height="22" fill="white"/>
</clipPath>
</defs>
</svg>
