<svg width="76" height="24" viewBox="0 0 769 240" fill="none" xmlns="http://www.w3.org/2000/svg">
<path d="M376.946 215.482H357.186C341.626 215.482 334.436 206.935 334.436 193.262V182.664C303.306 178.682 283.546 153.898 283.546 111.151C283.546 64.2158 307.296 39.0388 343.626 39.0388C379.956 39.0388 403.696 64.2158 403.696 111.151C403.696 152.702 385.146 177.28 355.596 182.271V196.646H376.506L376.946 215.482ZM379.546 122.192V100.263C379.546 74.8978 365.186 59.2418 343.676 59.2418C322.176 59.2418 307.816 74.8298 307.816 100.263V122.192C307.816 147.557 322.176 163.214 343.676 163.214C365.186 163.214 379.546 147.557 379.546 122.192Z" fill="white"/>
<path d="M419.736 51.1398V47.7218C419.736 41.1238 423.736 36.3378 432.716 36.3378C441.696 36.3378 445.486 41.1238 445.486 47.7218V51.1398C445.486 57.7208 441.696 62.5228 432.716 62.5228C423.736 62.5228 419.736 57.7208 419.736 51.1398Z" fill="white"/>
<path d="M443.496 77.0518H421.736V180.921H443.496V77.0518Z" fill="white"/>
<path d="M461.646 163.743L475.566 150.958C483.156 160.154 492.527 165.743 504.917 165.743C517.297 165.743 523.866 160.616 523.866 151.762C523.866 145.164 519.876 140.173 509.096 138.772L499.516 137.575C478.356 134.977 465.356 125.782 465.356 106.604C465.356 86.4347 481.116 74.6417 503.866 74.6417C522.656 74.6417 533.216 80.8457 542.606 91.2207L529.236 104.006C526.116 100.308 522.236 97.3377 517.856 95.3027C513.476 93.2687 508.696 92.2187 503.866 92.2297C491.916 92.2297 486.316 97.3567 486.316 105.203C486.316 113.048 491.296 116.791 502.276 118.603L511.866 119.799C534.616 123.218 544.796 133.183 544.796 149.95C544.796 169.931 528.636 183.314 503.686 183.314C484.196 183.314 471.416 175.93 461.646 163.743Z" fill="white"/>
<path d="M559.636 33.0908H581.466V123.782H582.456L596.836 105.203L621.786 77.0518H647.136L610.736 117.201L651.486 180.921H625.506L595.756 131.354L581.466 146.959V180.921H559.636V33.0908Z" fill="white"/>
<path d="M666.586 51.1398V47.7218C666.586 41.1238 670.586 36.3378 679.566 36.3378C688.556 36.3378 692.326 41.1238 692.326 47.7218V51.1398C692.326 57.7208 688.536 62.5228 679.566 62.5228C670.596 62.5228 666.586 57.7208 666.586 51.1398Z" fill="white"/>
<path d="M690.346 77.0518H668.586V180.921H690.346V77.0518Z" fill="white"/>
<path d="M747.616 180.921C732.636 180.921 724.656 172.529 724.656 158.342V94.8278H708.486V77.0518H717.276C724.456 77.0518 726.846 74.0438 726.846 66.7958V48.6788H746.417V77.0518H768.176V94.8278H746.417V163.197H766.576V180.972L747.616 180.921Z" fill="white"/>
<path d="M223.026 175.708C222.786 153.574 170.886 141.079 122.016 140.532C70.1864 140.532 16.5565 153.659 16.3865 175.64V175.776C16.5865 197.859 68.5265 210.337 117.386 210.884C169.226 210.884 222.856 197.757 223.026 175.776V175.708ZM117.376 202.816C62.7165 202.201 24.5763 188.066 24.4463 175.725C24.6663 162.906 66.2764 148.617 122.016 148.617C176.676 149.232 214.816 163.367 214.946 175.708C214.796 188.51 173.106 202.816 117.376 202.816Z" fill="white"/>
<path d="M119.917 239.291C98.7466 239.356 77.9466 233.794 59.6266 223.176C41.3166 212.559 26.1366 197.265 15.6666 178.858C5.18662 160.45 -0.213537 139.59 0.00646295 118.407C0.226463 97.2248 6.05662 76.4808 16.9166 58.2938C27.7666 40.1077 43.2565 25.1317 61.7865 14.8957C80.3165 4.65974 101.237 -0.469261 122.397 0.0337395C143.557 0.53774 164.206 6.65375 182.226 17.7587C200.256 28.8637 215.016 44.5597 224.996 63.2407C234.746 81.4397 239.617 101.856 239.137 122.5C238.657 143.143 232.846 163.311 222.266 181.039C211.686 198.767 196.696 213.449 178.766 223.658C160.826 233.868 140.557 239.253 119.917 239.291ZM119.547 8.23876C95.1865 8.28976 71.5166 16.3317 52.1566 31.1327C32.8066 45.9327 18.8266 66.6747 12.3766 90.1817C5.92658 113.689 7.3564 138.664 16.4464 161.281C25.5364 183.897 41.7764 202.908 62.6964 215.403C83.6164 227.897 108.046 233.184 132.256 230.454C156.456 227.725 179.106 217.127 196.716 200.288C214.326 183.449 225.936 161.296 229.766 137.223C233.596 113.149 229.436 88.4818 217.926 67.0018C208.366 49.2178 194.177 34.3597 176.847 24.0117C159.527 13.6637 139.717 8.21176 119.547 8.23876Z" fill="white"/>
<path d="M150.526 223.207C150.406 214.063 137.206 207.158 119.786 207.158C102.356 207.158 89.0364 213.994 89.0364 223.207V223.327C89.1564 232.471 102.356 239.376 119.786 239.376C137.206 239.376 150.526 232.539 150.526 223.327V223.207ZM119.786 231.753C105.966 231.753 97.1564 226.762 97.0464 223.207C96.9464 219.652 105.966 214.661 119.786 214.661C133.596 214.661 142.396 219.669 142.496 223.207C142.596 226.745 133.536 231.685 119.726 231.685L119.786 231.753Z" fill="url(#paint0_radial_8_97)"/>
<path d="M150.526 223.207C150.406 214.063 137.206 207.158 119.786 207.158C102.356 207.158 89.0364 213.994 89.0364 223.207V223.327C89.1564 232.471 102.356 239.376 119.786 239.376C137.206 239.376 150.526 232.539 150.526 223.327V223.207ZM119.786 231.753C105.966 231.753 97.1564 226.762 97.0464 223.207C96.9464 219.652 105.966 214.661 119.786 214.661C133.596 214.661 142.396 219.669 142.496 223.207C142.596 226.745 133.536 231.685 119.726 231.685L119.786 231.753Z" fill="white"/>
<path d="M239.216 119.765C238.876 96.0918 178.896 82.5898 122.466 82.0078C62.6863 82.0078 0.566318 96.1948 0.226318 119.765C0.226318 119.765 0.226318 119.765 0.226318 119.868C0.566318 143.54 60.5363 157.043 116.986 157.624C176.756 157.624 238.876 143.438 239.216 119.868C239.216 119.868 239.216 119.799 239.216 119.765ZM117.016 149.54C53.1064 148.873 8.5264 133.336 8.3064 119.782C8.5264 105.715 57.2663 90.0078 122.426 90.0078C186.346 90.6738 230.916 106.211 231.146 119.765C230.916 133.832 182.176 149.54 117.016 149.54Z" fill="url(#paint1_radial_8_97)"/>
<path d="M239.216 119.765C238.876 96.0918 178.896 82.5898 122.466 82.0078C62.6863 82.0078 0.566318 96.1948 0.226318 119.765C0.226318 119.765 0.226318 119.765 0.226318 119.868C0.566318 143.54 60.5363 157.043 116.986 157.624C176.756 157.624 238.876 143.438 239.216 119.868C239.216 119.868 239.216 119.799 239.216 119.765ZM117.016 149.54C53.1064 148.873 8.5264 133.336 8.3064 119.782C8.5264 105.715 57.2663 90.0078 122.426 90.0078C186.346 90.6738 230.916 106.211 231.146 119.765C230.916 133.832 182.176 149.54 117.016 149.54Z" fill="white"/>
<path d="M122.016 28.2708C70.1664 28.2708 16.5364 41.4488 16.5364 63.4628C16.5364 85.4778 68.4364 98.1258 117.306 98.6728C169.156 98.6728 222.786 85.4948 222.786 63.4628C222.786 41.4318 170.956 28.8178 122.016 28.2708ZM117.426 90.5888C62.7663 90.0078 24.6665 75.8038 24.6665 63.4628C24.6665 50.6958 66.3364 36.3548 122.016 36.3548C176.676 36.9698 214.746 51.1398 214.746 63.4628C214.776 76.3338 173.126 90.5888 117.426 90.5888Z" fill="url(#paint2_radial_8_97)"/>
<path d="M122.016 28.2708C70.1664 28.2708 16.5364 41.4488 16.5364 63.4628C16.5364 85.4778 68.4364 98.1258 117.306 98.6728C169.156 98.6728 222.786 85.4948 222.786 63.4628C222.786 41.4318 170.956 28.8178 122.016 28.2708ZM117.426 90.5888C62.7663 90.0078 24.6665 75.8038 24.6665 63.4628C24.6665 50.6958 66.3364 36.3548 122.016 36.3548C176.676 36.9698 214.746 51.1398 214.746 63.4628C214.776 76.3338 173.126 90.5888 117.426 90.5888Z" fill="white"/>
<path d="M119.316 0.0507812C110.626 0.0507812 90.4263 1.3678 90.4263 13.5368C90.4263 25.7068 110.626 27.0228 119.316 27.0228C128.016 27.0228 148.216 25.7068 148.216 13.5368C148.216 1.3678 128.016 0.0507812 119.316 0.0507812ZM119.316 8.2388C131.536 8.2388 140.036 11.0418 140.036 13.5368C140.036 16.0328 131.496 18.8358 119.316 18.8358C107.146 18.8358 98.6064 16.0498 98.6064 13.5368C98.6064 11.0248 107.106 8.2388 119.316 8.2388Z" fill="white"/>
<path d="M169.846 192.236C169.346 192.241 168.856 192.281 168.376 192.356L123.436 114.706L82.5364 43.9608C83.9864 42.1378 84.7764 39.8718 84.7764 37.5378C84.7764 35.2028 83.9763 32.9398 82.5063 31.1218C81.0463 29.3038 79.0063 28.0388 76.7263 27.5378C74.4463 27.0368 72.0663 27.3288 69.9763 28.3658C67.8863 29.4028 66.2163 31.1218 65.2363 33.2398C64.2563 35.3578 64.0264 37.7468 64.5764 40.0138C65.1364 42.2798 66.4564 44.2878 68.3064 45.7048C70.1664 47.1218 72.4464 47.8628 74.7764 47.8068C75.2264 47.7888 75.6764 47.7428 76.1264 47.6698L117.036 118.415L135.516 150.394L161.886 195.979C160.406 197.779 159.586 200.03 159.556 202.36C159.526 204.689 160.286 206.961 161.716 208.798C163.146 210.636 165.166 211.93 167.426 212.468C169.696 213.008 172.076 212.759 174.186 211.762C176.286 210.766 177.986 209.082 179.006 206.987C180.026 204.893 180.306 202.514 179.796 200.24C179.286 197.967 178.016 195.935 176.196 194.48C174.376 193.026 172.116 192.234 169.796 192.236H169.846Z" fill="url(#paint3_radial_8_97)"/>
<path d="M169.846 192.236C169.346 192.241 168.856 192.281 168.376 192.356L123.436 114.706L82.5364 43.9608C83.9864 42.1378 84.7764 39.8718 84.7764 37.5378C84.7764 35.2028 83.9763 32.9398 82.5063 31.1218C81.0463 29.3038 79.0063 28.0388 76.7263 27.5378C74.4463 27.0368 72.0663 27.3288 69.9763 28.3658C67.8863 29.4028 66.2163 31.1218 65.2363 33.2398C64.2563 35.3578 64.0264 37.7468 64.5764 40.0138C65.1364 42.2798 66.4564 44.2878 68.3064 45.7048C70.1664 47.1218 72.4464 47.8628 74.7764 47.8068C75.2264 47.7888 75.6764 47.7428 76.1264 47.6698L117.036 118.415L135.516 150.394L161.886 195.979C160.406 197.779 159.586 200.03 159.556 202.36C159.526 204.689 160.286 206.961 161.716 208.798C163.146 210.636 165.166 211.93 167.426 212.468C169.696 213.008 172.076 212.759 174.186 211.762C176.286 210.766 177.986 209.082 179.006 206.987C180.026 204.893 180.306 202.514 179.796 200.24C179.286 197.967 178.016 195.935 176.196 194.48C174.376 193.026 172.116 192.234 169.796 192.236H169.846Z" fill="white"/>
<defs>
<radialGradient id="paint0_radial_8_97" cx="0" cy="0" r="1" gradientUnits="userSpaceOnUse" gradientTransform="translate(120.246 193.901) scale(58.6167 35.9141)">
<stop stop-color="#010101" stop-opacity="0"/>
<stop offset="1" stop-color="#010101"/>
</radialGradient>
<radialGradient id="paint1_radial_8_97" cx="0" cy="0" r="1" gradientUnits="userSpaceOnUse" gradientTransform="translate(120.806 53.9087) scale(100.897 77.2738)">
<stop offset="0.2" stop-color="#010101" stop-opacity="0"/>
<stop offset="1" stop-color="#010101"/>
</radialGradient>
<radialGradient id="paint2_radial_8_97" cx="0" cy="0" r="1" gradientUnits="userSpaceOnUse" gradientTransform="translate(58.3664 3.06975) rotate(65.8147) scale(67.8371 96.0977)">
<stop offset="0.36" stop-color="#010101" stop-opacity="0"/>
<stop offset="1" stop-color="#010101"/>
</radialGradient>
<radialGradient id="paint3_radial_8_97" cx="0" cy="0" r="1" gradientUnits="userSpaceOnUse" gradientTransform="translate(-636.953 -2011.94) scale(1789.2 1790.51)">
<stop stop-color="#010101" stop-opacity="0"/>
<stop offset="0.37" stop-color="#010101"/>
</radialGradient>
</defs>
</svg>
