<svg width="22" height="22" viewBox="0 0 22 22" fill="none" xmlns="http://www.w3.org/2000/svg">
<path fill-rule="evenodd" clip-rule="evenodd" d="M6.64586 3.09759C6.30669 2.87096 5.90792 2.75 5.5 2.75C4.95299 2.75 4.42839 2.9673 4.04159 3.35409C3.6548 3.74089 3.4375 4.26549 3.4375 4.8125C3.4375 5.22042 3.55846 5.61919 3.78509 5.95836C4.01172 6.29754 4.33384 6.5619 4.71071 6.718C5.08759 6.87411 5.50229 6.91495 5.90237 6.83537C6.30246 6.75579 6.66996 6.55935 6.95841 6.27091C7.24685 5.98246 7.44329 5.61496 7.52287 5.21487C7.60245 4.81479 7.56161 4.40009 7.4055 4.02322C7.2494 3.64634 6.98504 3.32422 6.64586 3.09759ZM3.59023 1.95432C4.15552 1.57661 4.82013 1.375 5.5 1.375C6.41168 1.375 7.28602 1.73716 7.93068 2.38182C8.57534 3.02648 8.9375 3.90082 8.9375 4.8125C8.9375 5.49237 8.73589 6.15698 8.35818 6.72227C7.98046 7.28757 7.44359 7.72816 6.81547 7.98834C6.18735 8.24851 5.49619 8.31659 4.82938 8.18395C4.16257 8.05131 3.55006 7.72392 3.06932 7.24318C2.58858 6.76244 2.26119 6.14993 2.12855 5.48312C1.99591 4.81631 2.06399 4.12515 2.32416 3.49703C2.58434 2.8689 3.02493 2.33204 3.59023 1.95432ZM17.6459 8.59759C17.3067 8.37096 16.9079 8.25 16.5 8.25C15.953 8.25 15.4284 8.4673 15.0416 8.85409C14.6548 9.24089 14.4375 9.76549 14.4375 10.3125C14.4375 10.7204 14.5585 11.1192 14.7851 11.4584C15.0117 11.7975 15.3338 12.0619 15.7107 12.218C16.0876 12.3741 16.5023 12.415 16.9024 12.3354C17.3025 12.2558 17.67 12.0594 17.9584 11.7709C18.2469 11.4825 18.4433 11.115 18.5229 10.7149C18.6025 10.3148 18.5616 9.90009 18.4055 9.52322C18.2494 9.14634 17.985 8.82422 17.6459 8.59759ZM14.5902 7.45432C15.1555 7.07661 15.8201 6.875 16.5 6.875C17.4117 6.875 18.286 7.23716 18.9307 7.88182C19.5753 8.52648 19.9375 9.40082 19.9375 10.3125C19.9375 10.9924 19.7359 11.657 19.3582 12.2223C18.9805 12.7876 18.4436 13.2282 17.8155 13.4883C17.1874 13.7485 16.4962 13.8166 15.8294 13.684C15.1626 13.5513 14.5501 13.2239 14.0693 12.7432C13.5886 12.2624 13.2612 11.6499 13.1286 10.9831C12.9959 10.3163 13.064 9.62515 13.3242 8.99703C13.5843 8.36891 14.0249 7.83204 14.5902 7.45432ZM19.9375 20.625H21.3125V18.5625C21.3125 17.6508 20.9503 16.7765 20.3057 16.1318C19.661 15.4872 18.7867 15.125 17.875 15.125H15.125C14.2133 15.125 13.339 15.4872 12.6943 16.1318C12.0497 16.7765 11.6875 17.6508 11.6875 18.5625V20.625H13.0625V18.5625C13.0625 18.0155 13.2798 17.4909 13.6666 17.1041C14.0534 16.7173 14.578 16.5 15.125 16.5H17.875C18.422 16.5 18.9466 16.7173 19.3334 17.1041C19.7202 17.4909 19.9375 18.0155 19.9375 18.5625V20.625ZM10.3125 15.125H8.9375V13.0625C8.9375 12.5155 8.7202 11.9909 8.33341 11.6041C7.94661 11.2173 7.42201 11 6.875 11H4.125C3.57799 11 3.05339 11.2173 2.66659 11.6041C2.2798 11.9909 2.0625 12.5155 2.0625 13.0625V15.125H0.6875V13.0625C0.6875 12.1508 1.04966 11.2765 1.69432 10.6318C2.33898 9.98716 3.21332 9.625 4.125 9.625H6.875C7.78668 9.625 8.66102 9.98716 9.30568 10.6318C9.95034 11.2765 10.3125 12.1508 10.3125 13.0625V15.125Z" fill="#CBCBD7"/>
</svg>
