<svg width="220" height="125" viewBox="0 0 220 125" fill="none" xmlns="http://www.w3.org/2000/svg">
<g clip-path="url(#clip0_386_154)">
<path d="M89.1517 3.88435C97.1601 3.88435 103.712 10.4451 103.712 18.4637C103.712 26.4824 97.1601 33.0431 89.1517 33.0431C81.1432 33.0431 74.5909 26.4824 74.5909 18.4637C74.5909 10.4451 81.1432 3.88435 89.1517 3.88435ZM89.1517 0.570862C79.29 0.570862 71.2816 8.58951 71.2816 18.4637C71.2816 28.3379 79.29 36.3566 89.1517 36.3566C99.0133 36.3566 107.022 28.3379 107.022 18.4637C107.022 8.58951 99.0133 0.570862 89.1517 0.570862Z" fill="#6D7CFF"/>
<path d="M130.848 45.6344C138.857 45.6344 145.409 52.1951 145.409 60.2137C145.409 68.2324 138.857 74.7931 130.848 74.7931C122.84 74.7931 116.288 68.2324 116.288 60.2137C116.288 52.1951 122.84 45.6344 130.848 45.6344ZM130.848 42.3209C120.987 42.3209 112.978 50.3395 112.978 60.2137C112.978 70.0879 120.987 78.1066 130.848 78.1066C140.71 78.1066 148.718 70.0879 148.718 60.2137C148.718 50.3395 140.71 42.3209 130.848 42.3209Z" fill="#6D7CFF"/>
<path d="M112.978 0.570862L148.718 36.3566H112.978V0.570862Z" fill="#6D7CFF"/>
<path d="M107.022 42.3209H71.2816V78.1066H107.022V42.3209Z" fill="#6D7CFF"/>
<path d="M213.58 114.886C215.301 114.886 216.691 116.278 216.691 118.001C216.691 119.724 215.301 121.116 213.58 121.116C211.859 121.116 210.469 119.724 210.469 118.001C210.469 116.278 211.859 114.886 213.58 114.886ZM213.58 111.573C210.006 111.573 207.16 114.422 207.16 118.001C207.16 121.58 210.006 124.429 213.58 124.429C217.154 124.429 220 121.58 220 118.001C220 114.422 217.088 111.573 213.58 111.573Z" fill="#6D7CFF"/>
<path d="M0 106.072C0 95.8006 7.41276 87.8482 18.1348 87.8482C26.5403 87.8482 32.4308 92.4208 34.2178 98.6502L27.4007 101.301C25.8785 97.0597 23.0325 94.1438 18.0024 94.1438C11.7148 94.1438 7.87605 98.5176 7.87605 106.072C7.87605 113.627 11.6486 118.067 18.0024 118.067C22.9663 118.067 26.077 115.085 27.5993 110.844L34.284 113.561C31.769 120.32 26.4741 124.429 18.0686 124.429C7.14801 124.429 0 116.742 0 106.072Z" fill="white"/>
<path d="M36.9976 111.175C36.9976 103.157 42.4909 97.9212 50.1022 97.9212C57.7136 97.9212 63.2069 103.157 63.2069 111.175C63.2069 119.326 57.7136 124.429 50.1022 124.429C42.4909 124.429 36.9976 118.862 36.9976 111.175ZM55.8604 111.241C55.8604 106.072 53.5439 103.488 50.1022 103.488C46.7268 103.488 44.3441 106.072 44.3441 111.241C44.3441 116.41 46.6606 118.796 50.1022 118.796C53.5439 118.796 55.8604 116.41 55.8604 111.241Z" fill="white"/>
<path d="M72.2082 123.634L62.6113 98.6501H70.0241L73.4657 108.856C74.7894 112.898 74.988 114.82 75.1203 119.26H77.7678C77.9001 114.82 77.9663 112.633 79.2238 108.856L82.5331 98.6501H89.7473L80.6799 123.634H72.2082Z" fill="white"/>
<path d="M90.5415 117.206C90.5415 110.247 97.9542 108.193 106.227 107.398V106.47C106.227 104.349 104.97 103.024 102.124 103.024C98.8808 103.024 97.2262 104.614 96.6305 107L90.2767 105.609C90.6738 101.699 94.8435 97.9875 102.124 97.9875C109.14 97.9875 113.243 101.102 113.243 107.663V116.808C113.243 118.067 113.375 118.332 114.765 118.332H116.949V123.7H114.037C109.669 123.7 108.676 122.176 108.61 118.531H106.294C105.301 121.778 102.984 124.495 98.6823 124.495C93.9169 124.429 90.5415 121.646 90.5415 117.206ZM106.227 113.362V111.772C101.661 112.302 97.7557 113.23 97.7557 116.543C97.7557 118.2 98.8808 119.26 100.999 119.26C103.712 119.26 106.227 117.405 106.227 113.362Z" fill="white"/>
<path d="M120.06 123.634V87.8482H127.142V123.634H120.06Z" fill="white"/>
<path d="M130.253 111.109C130.253 103.289 135.614 97.9212 142.894 97.9212C151.3 97.9212 155.668 104.482 154.94 112.832H137.335C137.533 117.206 139.85 118.995 142.894 118.995C146.071 118.995 147.659 117.007 148.652 114.621L155.006 117.073C153.616 120.254 150.439 124.363 142.894 124.363C135.217 124.429 130.253 119.26 130.253 111.109ZM147.924 107.862C147.593 104.747 145.806 103.024 142.828 103.024C139.982 103.024 138.063 104.747 137.533 107.862H147.924Z" fill="white"/>
<path d="M157.984 123.634V98.6502H164.338C164.272 100.307 163.213 102.428 161.889 104.416H165C166.125 100.837 168.64 97.9212 172.611 97.9212C178.105 97.9212 181.083 101.566 181.083 107.133V123.634H174.067V108.458C174.067 105.145 172.545 103.753 170.096 103.753C165.132 103.753 165.132 109.121 165.132 111.772V123.634H157.984Z" fill="white"/>
<path d="M195.776 123.634C191.739 123.634 189.422 120.983 189.422 117.073V104.018H184.194V98.6502H189.422V90.8303H196.504V98.6502H202.99V104.018H196.504V115.748C196.504 117.272 197.166 117.935 198.688 117.935H204.049V123.568H195.776V123.634Z" fill="white"/>
</g>
<defs>
<clipPath id="clip0_386_154">
<rect width="220" height="123.858" fill="white" transform="translate(0 0.570862)"/>
</clipPath>
</defs>
</svg>
