<svg width="101" height="38" viewBox="0 0 101 38" fill="none" xmlns="http://www.w3.org/2000/svg">
<path fill-rule="evenodd" clip-rule="evenodd" d="M19.0068 0.0139124C8.51233 0.0139124 0 8.737 0 19.4913C0 28.0892 5.4441 35.3932 12.9925 37.967C13.9429 38.1479 14.2959 37.5496 14.2959 37.0349C14.2959 36.5758 14.2823 35.3515 14.2687 33.7237C8.98751 34.9063 7.86064 31.1082 7.86064 31.1082C6.99176 28.8544 5.75633 28.2561 5.75633 28.2561C4.03214 27.0458 5.89214 27.0736 5.89214 27.0736C7.79282 27.2127 8.7974 29.077 8.7974 29.077C10.4944 32.0542 13.2504 31.1917 14.323 30.6908C14.4995 29.4387 14.9882 28.5761 15.5313 28.0892C11.309 27.6023 6.8696 25.9328 6.8696 18.4618C6.8696 16.3332 7.61629 14.5941 8.82458 13.2307C8.63451 12.7438 7.98287 10.7543 9.01467 8.06921C9.01467 8.06921 10.6166 7.54053 14.2415 10.0726C15.7621 9.64131 17.3776 9.41871 18.9932 9.41871C20.6088 9.41871 22.2379 9.64131 23.7449 10.0726C27.3698 7.55445 28.9718 8.06921 28.9718 8.06921C30.0036 10.7543 29.3519 12.7299 29.1618 13.2307C30.3837 14.5941 31.1168 16.3332 31.1168 18.4618C31.1168 25.9467 26.6774 27.5883 22.4416 28.0753C23.1204 28.6735 23.7313 29.87 23.7313 31.6786C23.7313 34.2802 23.7042 36.381 23.7042 37.021C23.7042 37.5357 24.0436 38.1479 25.0075 37.9531C32.5559 35.3793 38 28.0753 38 19.4774C38 8.72309 29.4877 0 18.9932 0L19.0068 0.0139124Z" fill="#08081A"/>
<path d="M74.063 22.7416C74.063 24.5505 72.4794 26.0211 70.5315 26.0211C68.5836 26.0211 67 24.5505 67 22.7416C67 20.9327 68.5836 19.4622 70.5315 19.4622H74.063V22.7416Z" fill="#08081A"/>
<path d="M75.8428 22.7416C75.8428 20.9327 77.4263 19.4622 79.3743 19.4622C81.3222 19.4622 82.9058 20.9327 82.9058 22.7416V30.9533C82.9058 32.7622 81.3222 34.2327 79.3743 34.2327C77.4263 34.2327 75.8428 32.7622 75.8428 30.9533V22.7416Z" fill="#08081A"/>
<path d="M79.3743 9.55892C77.4263 9.55892 75.8428 8.08837 75.8428 6.27946C75.8428 4.47055 77.4263 3 79.3743 3C81.3222 3 82.9058 4.47055 82.9058 6.27946V9.55892H79.3743Z" fill="#08081A"/>
<path d="M79.3743 11.2117C81.3222 11.2117 82.9058 12.6822 82.9058 14.4911C82.9058 16.3 81.3222 17.7706 79.3743 17.7706H70.5315C68.5836 17.7706 67 16.3 67 14.4911C67 12.6822 68.5836 11.2117 70.5315 11.2117H79.3743Z" fill="#08081A"/>
<path d="M93.5703 14.4911C93.5703 12.6822 95.1539 11.2117 97.1018 11.2117C99.0498 11.2117 100.633 12.6822 100.633 14.4911C100.633 16.3 99.0498 17.7706 97.1018 17.7706H93.5703V14.4911Z" fill="#08081A"/>
<path d="M91.7906 14.4911C91.7906 16.3 90.207 17.7706 88.259 17.7706C86.3111 17.7706 84.7275 16.3 84.7275 14.4911V6.27946C84.7275 4.47055 86.3111 3 88.259 3C90.207 3 91.7906 4.47055 91.7906 6.27946V14.4911Z" fill="#08081A"/>
<path d="M88.259 27.6741C90.207 27.6741 91.7906 29.1446 91.7906 30.9535C91.7906 32.7624 90.207 34.233 88.259 34.233C86.3111 34.233 84.7275 32.7624 84.7275 30.9535V27.6741H88.259Z" fill="#08081A"/>
<path d="M88.259 26.0211C86.3111 26.0211 84.7275 24.5505 84.7275 22.7416C84.7275 20.9327 86.3111 19.4622 88.259 19.4622H97.1018C99.0498 19.4622 100.633 20.9327 100.633 22.7416C100.633 24.5505 99.0498 26.0211 97.1018 26.0211H88.259Z" fill="#08081A"/>
</svg>
