<svg width="190" height="26" viewBox="0 0 190 26" fill="none" xmlns="http://www.w3.org/2000/svg">
<g clip-path="url(#clip0_411_119)">
<path d="M6.02749 2C8.23757 2 10.0458 3.8 10.0458 6C10.0458 8.2 8.23757 10 6.02749 10C3.81741 10 2.00916 8.2 2.00916 6C2.00916 3.8 3.81741 2 6.02749 2ZM6.02749 0C2.70121 0 0 2.68889 0 6C0 9.31111 2.70121 12 6.02749 12C9.35378 12 12.055 9.31111 12.055 6C12.055 2.68889 9.35378 0 6.02749 0Z" fill="#6D7CFF"/>
<path d="M20.0917 16C22.3018 16 24.11 17.8 24.11 20C24.11 22.2 22.3018 24 20.0917 24C17.8816 24 16.0734 22.2 16.0734 20C16.0734 17.8 17.8816 16 20.0917 16ZM20.0917 14C16.7654 14 14.0642 16.6889 14.0642 20C14.0642 23.3111 16.7654 26 20.0917 26C23.418 26 26.1192 23.3111 26.1192 20C26.1192 16.6889 23.418 14 20.0917 14Z" fill="#6D7CFF"/>
<path d="M14.0642 0L26.1192 12H14.0642V0Z" fill="#6D7CFF"/>
<path d="M12.055 14H0V26H12.055V14Z" fill="#6D7CFF"/>
<path d="M185.446 18.8667C186.852 18.8667 187.991 20 187.991 21.4C187.991 22.8 186.852 23.9334 185.446 23.9334C184.04 23.9334 182.901 22.8 182.901 21.4C182.901 20 184.04 18.8667 185.446 18.8667ZM185.446 16.8667C182.923 16.8667 180.892 18.9111 180.892 21.4C180.892 23.9111 182.946 25.9334 185.446 25.9334C187.969 25.9334 190 23.8889 190 21.4C190 18.9111 187.969 16.8667 185.446 16.8667Z" fill="#6D7CFF"/>
<path d="M33.4414 13C33.4414 5.71108 38.6876 0.111084 46.367 0.111084C52.3276 0.111084 56.5245 3.35553 57.8416 7.73331L52.975 9.59997C51.9034 6.59997 49.8496 4.55553 46.3001 4.55553C41.8352 4.55553 39.0894 7.6222 39.0894 13C39.0894 18.3778 41.746 21.4889 46.3001 21.4889C49.8496 21.4889 52.0597 19.3778 53.1089 16.4L57.8639 18.3111C56.0557 23.0889 52.2829 25.9778 46.3001 25.9778C38.509 25.9555 33.4414 20.5111 33.4414 13Z" fill="#08081A"/>
<path d="M59.7837 16.5555C59.7837 10.9111 63.6904 7.19995 69.1151 7.19995C74.5399 7.19995 78.4466 10.9111 78.4466 16.5555C78.4466 22.3111 74.5399 25.9555 69.1151 25.9555C63.6904 25.9555 59.7837 22 59.7837 16.5555ZM73.2004 16.6222C73.2004 12.9777 71.5261 11.1555 69.1151 11.1555C66.7042 11.1555 65.0298 13 65.0298 16.6222C65.0298 20.2444 66.7042 21.9555 69.1151 21.9555C71.5261 21.9555 73.2004 20.2666 73.2004 16.6222Z" fill="#08081A"/>
<path d="M84.8091 25.3999L78.0002 7.73328H83.291L85.7467 14.9777C86.7066 17.8444 86.8406 19.2222 86.9075 22.3555H88.7828C88.8497 19.1999 88.9167 17.6666 89.8097 14.9777L92.1537 7.73328H97.3105L90.8589 25.3999H84.8091Z" fill="#08081A"/>
<path d="M97.891 20.8666C97.891 15.9111 103.137 14.4666 109.031 13.9111V13.2444C109.031 11.7333 108.138 10.8 106.129 10.8C103.829 10.8 102.646 11.9333 102.222 13.6L97.6677 12.6C97.9579 9.8444 100.905 7.19995 106.084 7.19995C111.062 7.19995 114.009 9.39995 114.009 14.0444V20.5111C114.009 21.4 114.121 21.5777 115.08 21.5777H116.643V25.4H114.522C111.397 25.4 110.727 24.3333 110.66 21.7333H108.986C108.272 24.0222 106.597 25.9777 103.561 25.9777C100.302 25.9555 97.891 23.9777 97.891 20.8666ZM109.031 18.1555V17.0222C105.771 17.4 103.003 18.0444 103.003 20.3777C103.003 21.5333 103.785 22.2888 105.303 22.2888C107.267 22.2888 109.031 21 109.031 18.1555Z" fill="#08081A"/>
<path d="M118.875 25.4V0.0888672H123.921V25.4H118.875Z" fill="#08081A"/>
<path d="M126.131 16.5333C126.131 10.9777 129.971 7.19995 135.105 7.19995C141.066 7.19995 144.191 11.8666 143.7 17.7555H131.176C131.31 20.8666 132.984 22.1333 135.15 22.1333C137.427 22.1333 138.521 20.7111 139.257 19.0666L143.767 20.7999C142.762 23.0666 140.53 25.9555 135.15 25.9555C129.68 25.9555 126.131 22.3111 126.131 16.5333ZM138.722 14.2222C138.498 12.0222 137.226 10.8 135.105 10.8C133.074 10.8 131.69 12 131.332 14.2222H138.722Z" fill="#08081A"/>
<path d="M145.865 25.4V7.73328H150.419C150.375 8.88884 149.638 10.4222 148.678 11.8H150.888C151.714 9.28884 153.478 7.19995 156.313 7.19995C160.22 7.19995 162.34 9.77773 162.34 13.7111V25.4H157.295V14.6444C157.295 12.3111 156.201 11.3333 154.46 11.3333C150.955 11.3333 150.91 15.1555 150.91 17.0222V25.4H145.865Z" fill="#08081A"/>
<path d="M172.766 25.4C169.886 25.4 168.256 23.5333 168.256 20.7777V11.5333H164.528V7.73329H168.256V2.17773H173.302V7.73329H177.923V11.5555H173.302V19.8666C173.302 20.9333 173.77 21.4222 174.864 21.4222H178.704V25.4222H172.766V25.4Z" fill="#08081A"/>
</g>
<defs>
<clipPath id="clip0_411_119">
<rect width="190" height="26" fill="white"/>
</clipPath>
</defs>
</svg>

