<svg width="190" height="26" viewBox="0 0 190 26" fill="none" xmlns="http://www.w3.org/2000/svg">
<g clip-path="url(#clip0_175_56)">
<path d="M6.02749 2C8.23757 2 10.0458 3.8 10.0458 6C10.0458 8.2 8.23757 10 6.02749 10C3.81741 10 2.00916 8.2 2.00916 6C2.00916 3.8 3.81741 2 6.02749 2ZM6.02749 0C2.70121 0 0 2.68889 0 6C0 9.31111 2.70121 12 6.02749 12C9.35378 12 12.055 9.31111 12.055 6C12.055 2.68889 9.35378 0 6.02749 0Z" fill="#5552FF"/>
<path d="M20.0915 16C22.3015 16 24.1098 17.8 24.1098 20C24.1098 22.2 22.3015 24 20.0915 24C17.8814 24 16.0731 22.2 16.0731 20C16.0731 17.8 17.8814 16 20.0915 16ZM20.0915 14C16.7652 14 14.064 16.6889 14.064 20C14.064 23.3111 16.7652 26 20.0915 26C23.4177 26 26.119 23.3111 26.119 20C26.119 16.6889 23.4177 14 20.0915 14Z" fill="#5552FF"/>
<path d="M14.064 0L26.119 12H14.064V0Z" fill="#5552FF"/>
<path d="M12.055 14H0V26H12.055V14Z" fill="#5552FF"/>
<path d="M185.446 18.8667C186.852 18.8667 187.991 20 187.991 21.4C187.991 22.8 186.852 23.9333 185.446 23.9333C184.039 23.9333 182.901 22.8 182.901 21.4C182.901 20 184.039 18.8667 185.446 18.8667ZM185.446 16.8667C182.923 16.8667 180.892 18.9111 180.892 21.4C180.892 23.9111 182.945 25.9333 185.446 25.9333C187.968 25.9333 190 23.8889 190 21.4C190 18.9111 187.968 16.8667 185.446 16.8667Z" fill="#5552FF"/>
<path d="M33.4414 13C33.4414 5.71111 38.6876 0.111115 46.367 0.111115C52.3276 0.111115 56.5245 3.35556 57.8416 7.73334L52.975 9.6C51.9034 6.6 49.8496 4.55556 46.3001 4.55556C41.8352 4.55556 39.0894 7.62223 39.0894 13C39.0894 18.3778 41.746 21.4889 46.3001 21.4889C49.8496 21.4889 52.0597 19.3778 53.1089 16.4L57.8639 18.3111C56.0557 23.0889 52.2829 25.9778 46.3001 25.9778C38.509 25.9556 33.4414 20.5111 33.4414 13Z" fill="#08081A"/>
<path d="M59.7837 16.5556C59.7837 10.9111 63.6904 7.20001 69.1151 7.20001C74.5399 7.20001 78.4466 10.9111 78.4466 16.5556C78.4466 22.3111 74.5399 25.9556 69.1151 25.9556C63.6904 25.9556 59.7837 22 59.7837 16.5556ZM73.2004 16.6222C73.2004 12.9778 71.5261 11.1556 69.1151 11.1556C66.7042 11.1556 65.0298 13 65.0298 16.6222C65.0298 20.2445 66.7042 21.9556 69.1151 21.9556C71.5261 21.9556 73.2004 20.2667 73.2004 16.6222Z" fill="#08081A"/>
<path d="M84.8088 25.4L78 7.73334H83.2908L85.7464 14.9778C86.7064 17.8444 86.8403 19.2222 86.9073 22.3556H88.7825C88.8495 19.2 88.9165 17.6667 89.8094 14.9778L92.1534 7.73334H97.3103L90.8587 25.4H84.8088Z" fill="#08081A"/>
<path d="M97.8907 20.8667C97.8907 15.9111 103.137 14.4667 109.03 13.9111V13.2445C109.03 11.7333 108.137 10.8 106.128 10.8C103.829 10.8 102.646 11.9333 102.222 13.6L97.6675 12.6C97.9577 9.84446 100.904 7.20001 106.084 7.20001C111.062 7.20001 114.009 9.40001 114.009 14.0445V20.5111C114.009 21.4 114.12 21.5778 115.08 21.5778H116.643V25.4H114.522C111.397 25.4 110.727 24.3333 110.66 21.7333H108.986C108.271 24.0222 106.597 25.9778 103.561 25.9778C100.302 25.9556 97.8907 23.9778 97.8907 20.8667ZM109.03 18.1556V17.0222C105.771 17.4 103.003 18.0445 103.003 20.3778C103.003 21.5333 103.784 22.2889 105.302 22.2889C107.267 22.2889 109.03 21 109.03 18.1556Z" fill="#08081A"/>
<path d="M118.875 25.4V0.0888977H123.921V25.4H118.875Z" fill="#08081A"/>
<path d="M126.131 16.5333C126.131 10.9778 129.971 7.20001 135.105 7.20001C141.066 7.20001 144.191 11.8667 143.7 17.7556H131.176C131.31 20.8667 132.984 22.1333 135.15 22.1333C137.427 22.1333 138.521 20.7111 139.257 19.0667L143.767 20.8C142.762 23.0667 140.53 25.9556 135.15 25.9556C129.68 25.9556 126.131 22.3111 126.131 16.5333ZM138.722 14.2222C138.498 12.0222 137.226 10.8 135.105 10.8C133.074 10.8 131.69 12 131.332 14.2222H138.722Z" fill="#08081A"/>
<path d="M145.865 25.4V7.73335H150.419C150.375 8.8889 149.638 10.4222 148.678 11.8H150.888C151.714 9.2889 153.478 7.20001 156.313 7.20001C160.22 7.20001 162.34 9.77779 162.34 13.7111V25.4H157.295V14.6445C157.295 12.3111 156.201 11.3333 154.46 11.3333C150.955 11.3333 150.91 15.1556 150.91 17.0222V25.4H145.865Z" fill="#08081A"/>
<path d="M172.766 25.4C169.886 25.4 168.256 23.5333 168.256 20.7778V11.5333H164.528V7.73332H168.256V2.17776H173.302V7.73332H177.923V11.5555H173.302V19.8667C173.302 20.9333 173.77 21.4222 174.864 21.4222H178.704V25.4222H172.766V25.4Z" fill="#08081A"/>
</g>
<defs>
<clipPath id="clip0_175_56">
<rect width="190" height="26" fill="white"/>
</clipPath>
</defs>
</svg>
