<svg width="82" height="84" viewBox="0 0 82 84" fill="none" xmlns="http://www.w3.org/2000/svg">
<path d="M19.1563 4.40592C27.4984 4.40592 34.3237 11.4283 34.3237 20.0112C34.3237 28.5942 27.4984 35.6165 19.1563 35.6165C10.8142 35.6165 3.98889 28.5942 3.98889 20.0112C3.98889 11.4283 10.8142 4.40592 19.1563 4.40592ZM19.1563 0.859253C8.88383 0.859253 0.541748 9.44218 0.541748 20.0112C0.541748 30.5803 8.88383 39.1632 19.1563 39.1632C29.4288 39.1632 37.7709 30.5803 37.7709 20.0112C37.7709 9.44218 29.4288 0.859253 19.1563 0.859253Z" fill="#6D7CFF"/>
<path d="M62.5904 49.0939C70.9325 49.0939 77.7579 56.1163 77.7579 64.6992C77.7579 73.2822 70.9325 80.3046 62.5904 80.3046C54.2483 80.3046 47.423 73.2822 47.423 64.6992C47.423 56.1163 54.2483 49.0939 62.5904 49.0939ZM62.5904 45.5472C52.3179 45.5472 43.9758 54.1302 43.9758 64.6992C43.9758 75.2683 52.3179 83.8512 62.5904 83.8512C72.8629 83.8512 81.205 75.2683 81.205 64.6992C81.205 54.1302 72.8629 45.5472 62.5904 45.5472Z" fill="#6D7CFF"/>
<path d="M43.9758 0.859253L81.205 39.1632H43.9758V0.859253Z" fill="#6D7CFF"/>
<path d="M37.7709 45.5472H0.541748V83.8512H37.7709V45.5472Z" fill="#6D7CFF"/>
</svg>
