<svg width="4097" height="965" viewBox="0 0 4097 965" fill="none" xmlns="http://www.w3.org/2000/svg">
<g clip-path="url(#clip0_1152_3906)">
<rect width="4097" height="965" fill="#EAEBF3"/>
<path d="M726.743 554.279L1742.23 1569.93H726.743V554.279Z" fill="#4541F4"/>
<path d="M1214.49 -104.304C1214.49 165.116 996.112 383.519 726.743 383.519C457.373 383.519 239 165.116 239 -104.304C239 -373.724 457.373 -592.127 726.743 -592.127C996.112 -592.127 1214.49 -373.724 1214.49 -104.304Z" stroke="#8965EE" stroke-width="40"/>
<path d="M3727.2 1061.82C3727.2 792.403 3945.57 574 4214.94 574C4484.31 574 4702.69 792.403 4702.69 1061.82C4702.69 1331.24 4484.31 1549.65 4214.94 1549.65C3945.57 1549.65 3727.2 1331.24 3727.2 1061.82Z" stroke="#9CCDE2" stroke-width="40"/>
<g clip-path="url(#clip1_1152_3906)">
<path d="M1483.17 269.985C1512.18 269.985 1535.92 293.715 1535.92 322.719C1535.92 351.723 1512.18 375.453 1483.17 375.453C1454.16 375.453 1430.42 351.723 1430.42 322.719C1430.42 293.715 1454.16 269.985 1483.17 269.985ZM1483.17 258C1447.45 258 1418.43 287.004 1418.43 322.719C1418.43 358.435 1447.45 387.438 1483.17 387.438C1518.9 387.438 1547.91 358.435 1547.91 322.719C1547.91 287.004 1518.9 258 1483.17 258Z" fill="#5552FF"/>
<path d="M1634.23 420.996C1663.24 420.996 1686.98 444.727 1686.98 473.731C1686.98 502.734 1663.24 526.465 1634.23 526.465C1605.22 526.465 1581.48 502.734 1581.48 473.731C1581.48 444.727 1605.22 420.996 1634.23 420.996ZM1634.23 409.011C1598.5 409.011 1569.49 438.015 1569.49 473.731C1569.49 509.446 1598.5 538.45 1634.23 538.45C1669.95 538.45 1698.97 509.446 1698.97 473.731C1698.97 438.015 1669.95 409.011 1634.23 409.011Z" fill="#5552FF"/>
<path d="M1569.49 258L1698.97 387.438H1569.49V258Z" fill="#5552FF"/>
<path d="M1547.91 409.011H1418.43V538.45H1547.91V409.011Z" fill="#5552FF"/>
<path d="M1933.94 671.483C1940.18 671.483 1945.21 676.516 1945.21 682.749C1945.21 688.981 1940.18 694.014 1933.94 694.014C1927.71 694.014 1922.67 688.981 1922.67 682.749C1922.67 676.516 1927.71 671.483 1933.94 671.483ZM1933.94 659.498C1920.99 659.498 1910.68 669.805 1910.68 682.749C1910.68 695.692 1920.99 705.999 1933.94 705.999C1946.89 705.999 1957.2 695.692 1957.2 682.749C1957.2 669.805 1946.65 659.498 1933.94 659.498Z" fill="#5552FF"/>
<path d="M1160.2 639.603C1160.2 602.449 1187.05 573.685 1225.9 573.685C1256.35 573.685 1277.69 590.225 1284.16 612.756L1259.46 622.344C1253.95 607.004 1243.64 596.457 1225.42 596.457C1202.64 596.457 1188.73 612.277 1188.73 639.603C1188.73 666.929 1202.4 682.989 1225.42 682.989C1243.4 682.989 1254.67 672.202 1260.18 656.861L1284.4 666.689C1275.29 691.138 1256.11 706 1225.66 706C1186.09 706 1160.2 678.195 1160.2 639.603Z" fill="#08081A"/>
<path d="M1294.23 658.06C1294.23 629.056 1314.13 610.12 1341.71 610.12C1369.28 610.12 1389.18 629.056 1389.18 658.06C1389.18 687.543 1369.28 706 1341.71 706C1314.13 706 1294.23 685.865 1294.23 658.06ZM1362.57 658.3C1362.57 639.603 1354.17 630.255 1341.71 630.255C1329.48 630.255 1320.85 639.603 1320.85 658.3C1320.85 676.996 1329.24 685.626 1341.71 685.626C1354.17 685.626 1362.57 676.996 1362.57 658.3Z" fill="#08081A"/>
<path d="M1421.79 703.123L1387.02 612.756H1413.88L1426.35 649.67C1431.14 664.292 1431.86 671.243 1432.34 687.303H1441.93C1442.41 671.243 1442.65 663.333 1447.21 649.67L1459.19 612.756H1485.33L1452.48 703.123H1421.79Z" fill="#08081A"/>
<path d="M1488.21 679.873C1488.21 654.704 1515.06 647.273 1545.03 644.397V641.041C1545.03 633.371 1540.48 628.577 1530.17 628.577C1518.42 628.577 1512.42 634.329 1510.27 642.959L1487.25 637.925C1488.69 623.783 1503.79 610.359 1530.17 610.359C1555.58 610.359 1570.45 621.625 1570.45 645.356V678.434C1570.45 682.989 1570.93 683.947 1575.96 683.947H1583.88V703.363H1573.33C1557.5 703.363 1553.9 697.85 1553.66 684.667H1545.27C1541.68 696.412 1533.28 706.24 1517.7 706.24C1500.43 706 1488.21 695.932 1488.21 679.873ZM1545.03 665.97V660.217C1528.49 662.135 1514.34 665.491 1514.34 677.476C1514.34 683.468 1518.42 687.303 1526.09 687.303C1535.92 687.303 1545.03 680.592 1545.03 665.97Z" fill="#08081A"/>
<path d="M1595.14 703.123V573.685H1620.8V703.123H1595.14Z" fill="#08081A"/>
<path d="M1632.07 657.82C1632.07 629.536 1651.49 610.12 1677.87 610.12C1708.32 610.12 1724.14 633.85 1721.5 664.052H1657.72C1658.44 679.873 1666.84 686.345 1677.87 686.345C1689.37 686.345 1695.13 679.154 1698.73 670.524L1721.74 679.393C1716.71 690.899 1705.2 705.76 1677.87 705.76C1650.05 706 1632.07 687.303 1632.07 657.82ZM1696.09 646.075C1694.89 634.809 1688.42 628.577 1677.63 628.577C1667.32 628.577 1660.36 634.809 1658.44 646.075H1696.09Z" fill="#08081A"/>
<path d="M1732.53 703.124V612.757H1755.55C1755.31 618.749 1751.48 626.42 1746.68 633.611H1757.95C1762.03 620.667 1771.14 610.12 1785.52 610.12C1805.42 610.12 1816.21 623.303 1816.21 643.438V703.124H1790.8V648.232C1790.8 636.247 1785.28 631.214 1776.41 631.214C1758.43 631.214 1758.43 650.629 1758.43 660.217V703.124H1732.53Z" fill="#08081A"/>
<path d="M1869.44 703.123C1854.82 703.123 1846.42 693.535 1846.42 679.393V632.172H1827.48V612.756H1846.42V584.472H1872.08V612.756H1895.58V632.172H1872.08V674.599C1872.08 680.112 1874.48 682.509 1879.99 682.509H1899.41V702.884H1869.44V703.123Z" fill="#08081A"/>
</g>
<g clip-path="url(#clip2_1152_3906)">
<path d="M2274.2 563.685C2228.46 563.685 2191.47 526.52 2192.2 481.056C2192.93 436.675 2230.65 401.314 2275.48 401.314H2355.65C2355.84 401.314 2356.2 401.495 2356.2 401.855V433.788V563.144C2356.2 563.325 2356.02 563.685 2355.65 563.685H2274.2Z" stroke="#222326" stroke-width="12" stroke-miterlimit="10"/>
<path d="M2438.2 433.788H2356.2" stroke="#222326" stroke-width="12" stroke-miterlimit="10"/>
<path d="M2438.2 531.211H2356.2" stroke="#222326" stroke-width="12" stroke-miterlimit="10"/>
<path d="M2192.2 482.5H2110.2" stroke="#222326" stroke-width="12" stroke-miterlimit="10"/>
</g>
<g clip-path="url(#clip3_1152_3906)">
<path d="M3102.98 353.478C3102.98 352.991 3102.98 352.574 3102.98 352.087C3102.98 343.746 3102.98 335.404 3103.05 327.132C3103.05 325.881 3103.12 324.63 3103.19 323.378C3103.33 323.378 3103.4 323.378 3103.4 323.17H3106.46C3106.46 323.17 3106.73 323.17 3106.8 323.17C3110 323.17 3113.27 323.1 3116.47 323.031C3116.68 323.1 3116.88 323.239 3117.09 323.309C3117.09 324.004 3117.16 324.699 3117.16 325.394C3117.16 331.303 3117.16 337.142 3117.16 343.051C3117.16 343.607 3117.16 344.232 3117.16 344.788C3117.16 345.136 3117.16 345.484 3117.16 345.831C3117.16 348.056 3117.16 350.21 3117.16 352.435C3117.16 353.547 3117.02 354.729 3117.16 355.841C3117.16 356.189 3117.79 356.467 3118.14 356.814C3118.27 356.814 3118.41 356.814 3118.55 356.814C3119.46 356.814 3120.36 356.814 3121.26 356.814C3124.05 356.814 3126.83 356.814 3129.61 356.814C3130.44 356.814 3131.35 356.884 3132.18 356.884C3137.81 356.884 3143.51 356.884 3149.14 356.884C3152.76 356.884 3154.85 358.622 3156.03 362.097C3156.17 362.584 3156.38 363.07 3156.51 363.557C3156.51 363.974 3156.51 364.461 3156.51 364.878C3156.51 365.503 3156.58 366.129 3156.65 366.755C3156.65 371.829 3156.65 376.834 3156.72 381.908C3156.72 383.438 3156.72 384.897 3156.72 386.427C3156.93 388.79 3156.31 390.876 3154.78 392.683C3154.36 393.17 3154.15 393.795 3153.87 394.282C3152.27 396.645 3150.67 398.939 3149.01 401.303C3146.92 404.222 3144.9 407.142 3142.82 410.061C3142.68 410.061 3142.54 410.061 3142.4 409.992C3142.4 409.783 3142.4 409.575 3142.4 409.297C3142.4 409.158 3142.4 409.019 3142.4 408.949C3142.4 408.601 3142.4 408.254 3142.4 407.976C3142.4 407.837 3142.4 407.698 3142.4 407.559C3142.4 397.827 3142.47 388.026 3142.54 378.294C3142.54 376.069 3142.54 373.775 3142.54 371.551C3142.47 371.412 3142.4 371.273 3142.26 371.064H3142.33C3142.33 371.064 3142.05 370.995 3141.84 370.856C3141.29 370.856 3140.66 370.786 3140.11 370.786C3115.49 370.786 3090.81 370.786 3066.2 370.786C3059.94 370.786 3053.75 370.786 3047.5 370.786C3046.87 370.786 3046.24 370.786 3045.62 370.786C3031.3 370.786 3017.04 370.786 3002.72 370.786C2997.44 370.786 2992.15 370.786 2986.8 370.786C2986.1 370.786 2985.41 370.786 2984.71 370.786C2970.74 370.786 2956.83 370.786 2942.86 370.786C2940.49 370.786 2938.13 370.786 2935.76 370.856C2935.63 370.925 2935.42 370.995 2935.28 371.064C2935.28 371.064 2935.14 371.551 2935.07 371.829C2935.07 372.316 2935.07 372.733 2935.07 373.219C2935.07 374.61 2935.07 376 2935.07 377.39C2935.07 379.475 2935.07 381.561 2935.07 383.646C2935.07 384.133 2935.07 384.55 2935.07 385.037C2935.07 385.593 2935.07 386.218 2935.07 386.774C2935.07 388.721 2935.07 390.737 2935.07 392.683C2935.07 394.282 2935.07 395.95 2935.07 397.549C2935.07 397.757 2935.07 398.035 2935.07 398.244C2935.07 398.731 2935.07 399.148 2935.07 399.634V400.677C2934.93 402.067 2934.72 403.388 2934.72 404.778C2934.72 406.516 2935 408.323 2935 410.061C2935 430.568 2935 451.074 2935 471.58C2935 481.59 2935 491.531 2935 501.541C2935 509.257 2935 516.973 2935 524.689C2935 531.57 2935 538.383 2935 545.264C2934.86 546.029 2934.58 546.794 2934.65 547.628C2934.65 550.061 2934.93 552.563 2934.93 554.996C2934.93 562.226 2934.93 569.455 2934.93 576.684C2934.93 577.24 2935.14 577.727 2935.28 578.283C2935.42 578.283 2935.56 578.283 2935.7 578.283C2942.65 578.283 2949.53 578.214 2956.48 578.144C2960.1 578.144 2963.65 578.144 2967.26 578.214C2968.1 578.214 2968.86 578.144 2969.69 578.075C2970.53 578.075 2971.29 578.075 2972.13 578.075C2972.68 578.492 2974.21 577.31 2973.87 579.187C2973.38 579.465 2972.82 579.743 2972.41 580.021C2969.97 581.759 2967.61 583.566 2965.11 585.235C2963.37 586.416 2961.56 587.459 2959.75 588.641C2958.92 589.197 2957.94 589.683 2957.18 590.309C2955.09 592.047 2952.66 592.672 2950.02 592.255C2949.88 592.255 2949.74 592.255 2949.6 592.255C2942.79 592.255 2935.97 592.255 2929.23 592.255C2929.09 592.255 2928.88 592.255 2928.74 592.255C2924.99 592.255 2922.42 590.587 2921.23 586.903C2921.16 586.694 2921.23 586.416 2921.23 586.138C2921.23 585.999 2921.23 585.93 2921.23 585.791C2921.16 582.802 2920.96 579.812 2920.96 576.823C2920.96 569.733 2920.96 562.643 2920.96 555.483C2920.96 552.911 2920.96 552.911 2918.38 552.911C2908.65 552.911 2898.85 552.911 2889.11 552.911C2888.28 552.911 2887.3 553.189 2887.17 551.868C2887.17 551.799 2887.17 551.66 2887.17 551.59C2887.17 547.558 2887.23 543.527 2887.3 539.425C2887.37 539.217 2887.51 539.008 2887.58 538.869C2888.07 538.869 2888.56 538.869 2889.04 538.869C2897.94 538.869 2906.77 538.869 2915.67 538.869C2916.85 538.869 2918.1 539.078 2919.29 538.869C2919.91 538.869 2920.47 538.244 2921.09 537.896C2921.09 537.896 2921.16 537.827 2921.16 537.757C2921.16 537.688 2921.16 537.618 2921.09 537.479C2921.09 529.972 2921.09 522.464 2921.09 514.957C2921.09 514.957 2921.16 514.887 2921.16 514.818C2921.16 514.748 2921.16 514.679 2921.09 514.54C2920.96 514.053 2920.82 513.636 2920.61 513.149C2920.12 513.149 2919.63 513.149 2919.22 513.08C2909.62 513.08 2900.1 513.08 2890.5 513.08C2890.36 513.08 2890.22 513.08 2890.09 513.08C2889.53 513.08 2888.97 513.08 2888.42 513.08C2888.07 513.01 2887.65 512.941 2887.3 512.871C2887.3 512.732 2887.3 512.593 2887.3 512.454C2887.23 510.299 2887.03 508.144 2887.03 505.989C2887.03 503.765 2887.23 501.541 2887.37 499.386C2887.58 499.247 2887.79 499.177 2888 499.038C2892.38 499.038 2896.76 499.038 2901.21 499.038C2907.68 499.038 2914.21 499.038 2920.68 499.038C2920.82 499.038 2920.89 499.038 2921.03 499.038C2921.03 498.76 2921.03 498.552 2921.03 498.274V473.666C2920.12 473.666 2919.43 473.666 2918.73 473.666C2908.86 473.666 2898.98 473.666 2889.11 473.666C2888.28 473.666 2887.3 473.944 2887.17 472.623C2887.17 472.554 2887.17 472.415 2887.17 472.345C2887.17 468.73 2887.17 465.185 2887.17 461.571C2887.17 461.501 2887.17 461.362 2887.17 461.292C2887.17 460.945 2887.23 460.597 2887.3 460.25C2887.37 460.111 2887.44 459.972 2887.51 459.833C2888.49 459.833 2889.39 459.694 2890.36 459.624C2890.5 459.624 2890.71 459.694 2890.85 459.694C2900.31 459.694 2909.76 459.833 2919.15 459.763C2919.77 459.763 2920.33 459.138 2920.96 458.79C2920.96 458.79 2921.03 458.721 2921.03 458.651C2921.03 458.581 2921.03 458.512 2920.96 458.373C2920.96 450.866 2920.96 443.358 2920.96 435.851C2920.96 435.851 2921.03 435.781 2921.03 435.712C2921.03 435.642 2921.03 435.573 2920.96 435.434C2920.96 434.46 2920.61 433.835 2919.5 433.974C2919.36 433.974 2919.22 433.974 2919.08 433.974C2915.67 433.974 2912.26 433.974 2908.86 433.974C2902.6 433.974 2896.27 434.043 2890.02 434.113C2889.46 434.113 2888.9 434.113 2888.35 434.043C2888 433.974 2887.65 433.904 2887.3 433.835C2887.3 433.696 2887.3 433.626 2887.3 433.487C2887.3 432.445 2887.3 431.402 2887.3 430.359C2887.3 430.012 2887.3 429.664 2887.3 429.316C2887.3 426.327 2887.37 423.338 2887.44 420.349C2887.51 420.28 2887.65 420.141 2887.72 420.071C2888.9 420.071 2890.02 420.071 2891.2 420.002C2901.07 420.002 2911.01 420.002 2920.89 420.002C2920.89 419.793 2921.03 419.585 2921.09 419.376C2921.09 411.243 2921.09 403.11 2921.09 394.768C2920.12 394.768 2919.5 394.768 2918.8 394.768C2908.93 394.768 2899.05 394.768 2889.18 394.768C2888.35 394.768 2887.37 394.977 2887.23 393.656C2887.23 393.587 2887.23 393.517 2887.23 393.378C2887.23 389.763 2887.23 386.149 2887.23 382.534C2887.23 382.186 2887.23 381.908 2887.23 381.561C2887.93 381.283 2888.69 380.727 2889.39 380.727C2897.18 380.727 2904.96 380.727 2912.75 380.727C2915.12 380.727 2917.48 380.588 2919.84 380.518C2919.98 380.518 2920.12 380.518 2920.26 380.518C2920.4 380.518 2920.47 380.518 2920.54 380.449C2920.61 380.379 2920.75 380.24 2920.82 380.171C2920.82 380.032 2920.89 379.962 2920.96 379.823C2920.96 379.823 2921.03 379.754 2921.03 379.684C2921.03 379.614 2921.03 379.545 2921.03 379.406C2921.03 374.54 2920.96 369.605 2921.09 364.739C2921.23 360.012 2923.25 357.718 2927.49 356.884C2927.63 356.884 2927.77 356.884 2927.91 356.884C2932.22 356.884 2936.53 356.953 2940.84 356.884C2942.16 356.884 2943.41 356.606 2944.73 356.467C2944.8 356.397 2944.87 356.258 2944.94 356.189C2944.94 345.623 2944.94 335.057 2944.87 324.491C2944.87 323.309 2945.22 322.892 2946.47 322.892C2950.37 322.961 2954.19 322.892 2958.08 322.892C2958.43 322.961 2958.71 323.1 2959.06 323.17C2959.06 333.736 2959.06 344.371 2959.13 354.937C2959.13 355.632 2958.71 356.745 2960.1 356.606C2960.24 356.606 2960.38 356.606 2960.52 356.606C2967.89 356.606 2975.26 356.536 2982.56 356.467C2982.97 356.467 2983.32 356.467 2983.74 356.467C2983.95 355.98 2984.36 355.563 2984.36 355.076C2984.36 349.376 2984.36 343.746 2984.36 338.046C2984.36 333.458 2984.36 328.8 2984.36 324.212C2984.5 323.795 2984.64 323.378 2984.78 322.892C2984.92 322.892 2984.99 322.892 2985.13 322.892H2985.27H2985.41C2989.16 322.892 2992.92 322.892 2996.74 322.892C2997.3 322.892 2997.85 323.031 2998.34 323.1C2998.34 323.239 2998.48 323.378 2998.55 323.517C2998.55 333.805 2998.55 344.024 2998.55 354.312C2998.55 354.937 2998.55 355.563 2998.55 356.189C2998.62 356.258 2998.69 356.328 2998.76 356.467H2998.9C2999.03 356.467 2999.24 356.606 2999.38 356.675C3006.2 356.675 3013.01 356.745 3019.89 356.745C3021.21 356.745 3022.47 356.467 3023.79 356.328C3023.86 356.119 3024 355.91 3024.06 355.702C3024.06 346.874 3024 338.046 3024 329.217C3024 327.202 3024 325.186 3024.06 323.17C3024.2 323.17 3024.27 323.1 3024.27 322.961C3025.32 322.961 3026.36 322.961 3027.33 322.961C3027.47 322.961 3027.61 322.961 3027.68 322.961C3030.88 322.961 3034.15 322.961 3037.34 322.961C3037.55 323.031 3037.76 323.17 3037.97 323.239C3037.97 330.538 3037.97 337.837 3038.04 345.205C3038.04 348.612 3038.04 352.018 3038.04 355.424C3038.04 356.119 3037.97 356.884 3039.01 356.745C3039.15 356.745 3039.29 356.745 3039.43 356.745C3046.8 356.745 3054.17 356.675 3061.47 356.606C3061.89 356.606 3062.24 356.606 3062.65 356.606C3062.86 355.841 3063.28 355.076 3063.28 354.312C3063.28 344.093 3063.28 333.875 3063.28 323.587C3063.49 323.378 3063.7 323.17 3063.9 322.892C3067.73 322.892 3071.55 323.031 3075.31 322.892C3076.98 322.892 3077.32 323.517 3077.32 324.977C3077.32 334.987 3077.32 344.927 3077.32 354.937C3077.32 355.215 3077.32 355.493 3077.32 355.771L3078.16 356.536C3084.97 356.536 3091.72 356.536 3098.53 356.536C3099.71 356.536 3100.82 356.536 3102.01 356.536C3102.14 356.536 3102.21 356.536 3102.35 356.536C3102.35 356.536 3102.49 356.467 3102.56 356.467C3102.63 356.258 3102.77 356.05 3102.84 355.841C3102.84 355.632 3102.7 355.354 3102.7 355.146C3102.7 354.59 3102.7 353.964 3102.7 353.408L3102.98 353.478Z" fill="#FF9900"/>
<path d="M2890.15 593.646C2890.15 593.646 2890.09 593.854 2890.02 593.993C2887.1 601.431 2884.66 609.078 2884.59 617.211C2884.52 624.51 2888.63 628.68 2895.86 628.68C2904.69 628.68 2912.96 625.9 2921.03 622.494C2922.9 621.729 2924.71 620.895 2926.59 620.13C2927.14 619.852 2927.77 619.644 2928.33 619.366C2929.02 619.018 2929.79 618.67 2930.48 618.392C2930.69 618.323 2930.9 618.184 2931.11 618.114C2931.8 617.767 2932.57 617.419 2933.26 617.002C2933.47 616.933 2933.68 616.794 2933.89 616.724C2934.58 616.376 2935.35 615.959 2936.04 615.612C2936.25 615.542 2936.46 615.403 2936.67 615.334C2942.23 612.206 2947.86 609.217 2953.42 606.019C2955.93 604.629 2958.22 603.03 2960.66 601.431C2964.34 598.998 2968.03 596.565 2971.78 594.202C2971.99 594.063 2972.2 593.993 2972.41 593.924C2972.48 593.854 2972.61 593.785 2972.68 593.646C2972.82 593.576 2972.96 593.437 2973.1 593.368C2973.94 592.811 2974.77 592.186 2975.6 591.63C2977.06 590.448 2978.52 589.336 2980.05 588.154C2981.03 587.459 2982.07 586.764 2983.04 586.069C2985.89 584.122 2988.68 582.176 2991.53 580.23C2992.01 579.882 2992.43 579.534 2992.92 579.187C2995.7 577.032 2998.41 574.947 3001.19 572.792C3001.47 572.583 3001.68 572.375 3001.96 572.166C3002.16 572.027 3002.44 571.819 3002.65 571.679C3003 571.471 3003.35 571.262 3003.62 570.984C3009.88 565.91 3016.21 560.835 3022.33 555.622C3029.63 549.435 3036.72 542.971 3043.95 536.714C3045.48 535.394 3045.41 534.351 3044.51 532.752C3041.38 527.191 3039.57 521.213 3039.64 514.818C3039.64 511.968 3040.06 509.118 3040.33 506.268C3042 500.567 3043.81 495.006 3047.77 490.419C3050.55 487.777 3053.27 485.066 3056.05 482.425C3056.33 482.216 3056.67 482.007 3056.95 481.729C3059.04 480.617 3061.12 479.505 3063.21 478.393C3063.63 478.184 3064.11 478.045 3064.53 477.837C3065.36 477.559 3066.2 477.281 3067.03 477.002C3067.45 476.863 3067.94 476.724 3068.35 476.516C3070.09 476.168 3071.83 475.89 3073.57 475.543C3073.92 475.543 3074.19 475.404 3074.54 475.404C3077.18 475.404 3079.83 475.404 3082.54 475.473H3082.95C3088.52 476.377 3093.73 477.976 3098.46 481.034C3099.43 481.66 3099.92 481.034 3100.48 480.478C3105.27 474.987 3110.14 469.495 3114.94 463.934C3118.55 459.763 3122.03 455.453 3125.58 451.213C3125.71 451.074 3125.92 450.935 3126.06 450.726C3132.81 442.176 3139.69 433.765 3146.22 425.076C3150.81 419.028 3154.85 412.633 3159.16 406.377C3160.13 404.987 3161.03 403.597 3162.01 402.206C3163.4 399.982 3164.79 397.688 3166.18 395.464C3170.35 388.582 3174.45 381.7 3178.56 374.818C3179.04 373.984 3179.46 373.219 3179.95 372.385C3180.08 372.177 3180.15 371.899 3180.29 371.69C3180.5 371.134 3180.78 370.508 3180.99 369.952C3181.82 368.145 3182.66 366.337 3183.49 364.53C3183.98 363.418 3184.53 362.375 3185.02 361.263C3185.02 361.124 3185.16 360.915 3185.23 360.776C3185.51 360.29 3185.92 359.803 3186.13 359.317C3188.15 353.06 3190.37 346.874 3191.97 340.548C3192.88 336.864 3192.88 332.832 3192.81 329.009C3192.67 323.795 3188.36 320.181 3182.31 320.111C3171.95 320.042 3162.56 323.587 3153.25 327.619L3152.2 328.036C3151.16 328.244 3150.12 328.453 3149.08 328.661C3149.14 326.715 3149.21 324.769 3149.35 322.822C3149.35 320.181 3149.35 317.539 3149.56 314.828C3149.56 314.133 3150.26 313.09 3150.95 312.812C3152.83 311.909 3154.92 311.213 3156.93 310.449C3164.09 307.877 3171.39 306.278 3178.97 305.861C3181.54 305.722 3184.12 306.209 3186.69 306.487C3192.95 307.251 3198.37 309.754 3202.33 314.759C3204.91 318.026 3206.64 321.64 3206.78 325.95C3206.85 329.913 3207.62 333.875 3207.2 337.768C3206.3 346.943 3203.45 355.702 3199.83 364.113C3197.81 368.84 3195.59 373.428 3193.5 378.085C3193.36 378.294 3193.29 378.502 3193.16 378.78C3192.88 379.336 3192.53 379.962 3192.25 380.518C3192.11 380.866 3191.9 381.213 3191.77 381.491C3191.07 382.743 3190.37 384.063 3189.68 385.315C3186.13 391.293 3182.59 397.34 3178.97 403.318C3178.83 403.458 3178.69 403.527 3178.62 403.666C3167.36 421.461 3154.78 438.214 3141.57 454.55C3135.31 462.335 3128.77 469.843 3122.38 477.489C3118.69 481.521 3115.08 485.692 3111.32 489.654C3110.42 490.627 3110.28 491.253 3111.04 492.434C3117.44 502.444 3118.9 513.358 3115.7 524.689C3111.25 540.607 3096.3 551.938 3079.83 552.355C3071.69 552.563 3064.11 550.2 3057.16 546.029C3056.33 545.543 3055.77 545.334 3054.94 546.099C3051.18 549.574 3047.36 553.05 3043.46 556.387C3037.69 561.461 3031.85 566.396 3026.01 571.401C3019.48 576.545 3013.01 581.828 3006.47 586.903C2989.3 600.18 2971.43 612.553 2952.59 623.328C2950.92 624.301 2949.25 625.205 2947.65 626.108C2944.73 627.638 2941.81 629.375 2938.75 630.696C2934.51 632.643 2930.27 634.38 2925.96 636.118C2918.52 639.038 2910.87 641.401 2902.81 642.235C2896.34 642.931 2889.88 642.722 2883.9 639.941C2876.6 636.535 2872.08 630.835 2870.9 622.772C2869.85 616.029 2870.27 609.356 2872.08 602.821C2873.61 597.26 2875.41 591.838 2877.15 586.277C2877.64 584.748 2878.61 584.331 2880.14 584.609C2881.19 584.748 2882.3 584.817 2883.34 584.887H2893.56C2892.52 587.528 2891.48 590.24 2890.36 592.951C2890.36 593.09 2890.36 593.159 2890.29 593.298L2890.15 593.646ZM3078.44 489.654C3066.62 488.959 3053.2 499.664 3053.96 514.818C3054.66 528.373 3063.77 538.105 3077.95 538.383C3092.41 538.661 3103.47 527.052 3102.63 512.315C3101.87 498.83 3089.7 489.028 3078.44 489.654Z" fill="#FF9900"/>
<path d="M3063.42 624.162C3063.42 618.809 3063.42 613.526 3063.42 608.174C3063.42 602.96 3063.42 597.816 3063.42 592.603C3063.35 592.464 3063.28 592.325 3063.14 592.186C3058.27 592.186 3053.41 592.186 3048.54 592.186C3046.24 592.186 3043.95 592.116 3041.66 592.047C3041.52 592.047 3041.38 592.047 3041.17 592.047C3040.89 592.047 3040.54 592.047 3040.26 592.047C3040.13 592.047 3039.99 592.047 3039.85 592.047C3039.43 592.047 3039.01 592.047 3038.53 592.047C3038.39 592.047 3038.32 592.186 3038.18 592.186C3038.18 601.153 3038.18 610.051 3038.18 619.018C3038.18 620.686 3038.18 622.355 3038.18 624.023C3038.18 624.231 3038.18 624.509 3038.11 624.718C3037.07 624.857 3036.02 625.066 3034.98 625.205C3033.59 625.205 3032.27 625.274 3030.88 625.344C3029.42 625.344 3027.89 625.344 3026.43 625.344C3026.29 625.344 3026.15 625.344 3026.01 625.344C3024.76 625.552 3024 625.344 3024 623.745C3024 613.457 3024 603.169 3024 592.881C3024 592.881 3024.06 592.742 3024 592.742C3024 592.672 3023.86 592.603 3023.86 592.533C3022.33 592.325 3020.87 592.186 3018.99 591.977C3019.68 591.213 3020.24 590.587 3020.87 590.1C3024.76 586.972 3028.65 583.844 3032.55 580.716C3033.31 580.091 3034.01 579.395 3034.84 578.909C3035.68 578.492 3036.58 578.005 3037.48 578.005C3071.97 578.005 3106.52 578.005 3141.01 578.005C3141.36 578.005 3141.71 578.005 3142.05 577.936C3142.19 577.38 3142.47 576.823 3142.47 576.337C3142.47 559.167 3142.47 542.067 3142.47 524.897C3142.47 515.096 3142.47 505.294 3142.47 495.423C3142.47 494.589 3142.54 493.686 3142.47 492.851C3142.33 486.387 3142.19 479.853 3142.12 473.388C3142.12 472.554 3142.47 471.58 3142.96 470.885C3146.43 466.436 3150.05 462.127 3153.59 457.747C3154.43 456.705 3155.4 455.731 3156.24 454.689C3156.38 454.689 3156.51 454.758 3156.72 454.828V458.999C3156.72 458.999 3156.93 459.207 3157 459.346C3157 459.346 3157.21 459.485 3157.35 459.555C3157.56 459.555 3157.84 459.624 3158.04 459.624C3168.2 459.624 3178.35 459.624 3188.5 459.555L3189.54 459.694C3189.68 461.64 3189.82 463.656 3189.89 465.602C3189.89 467.201 3189.89 468.869 3189.89 470.468C3189.89 471.163 3189.89 471.858 3189.89 472.554C3189.82 473.944 3188.78 473.596 3187.94 473.596C3177.72 473.596 3167.5 473.596 3157.21 473.596C3156.86 473.944 3156.58 474.222 3156.24 474.57C3156.31 475.265 3156.45 475.89 3156.51 476.585C3156.51 478.81 3156.51 481.034 3156.51 483.259C3156.51 488.333 3156.51 493.408 3156.45 498.482V498.621C3156.45 498.621 3156.58 498.76 3156.65 498.76C3161.8 498.76 3167.01 498.83 3172.16 498.899C3177.37 498.899 3182.66 498.899 3187.87 498.899C3188.43 498.899 3188.91 499.108 3189.47 499.177C3189.47 499.316 3189.61 499.386 3189.68 499.525C3189.68 503.209 3189.82 506.963 3189.82 510.647C3189.82 511.342 3189.61 512.107 3189.54 512.802C3178.9 512.802 3168.33 512.802 3157.7 512.871C3157.56 512.871 3157.42 512.871 3157.28 512.871C3157 513.497 3156.72 514.123 3156.51 514.679C3156.51 514.679 3156.45 514.748 3156.45 514.818C3156.45 514.887 3156.45 514.957 3156.51 515.096C3156.51 515.93 3156.51 516.695 3156.51 517.529C3156.51 524.341 3156.51 531.153 3156.58 537.966C3156.65 538.105 3156.79 538.244 3156.86 538.383C3157.21 538.452 3157.56 538.591 3157.84 538.591C3168.06 538.591 3178.21 538.591 3188.43 538.522L3189.47 538.73C3189.61 541.163 3189.75 543.596 3189.89 545.96C3189.89 547.211 3189.89 548.532 3189.89 549.783C3189.89 550.13 3189.82 550.478 3189.75 550.826C3189.75 550.826 3189.68 550.895 3189.68 550.965C3189.68 551.034 3189.68 551.173 3189.75 551.243C3189.75 551.451 3189.82 551.66 3189.89 551.938C3189.26 552.146 3188.64 552.633 3187.94 552.633C3178.14 552.633 3168.26 552.633 3158.46 552.633C3157.84 552.633 3157.14 552.841 3156.51 552.98C3156.51 553.328 3156.51 553.676 3156.51 554.023C3156.51 564.103 3156.51 574.112 3156.45 584.192L3156.38 584.261C3156.38 584.331 3156.38 584.4 3156.38 584.539C3155.82 589.614 3153.39 591.838 3148.38 591.908C3142.82 591.977 3137.33 591.908 3131.76 591.977C3131.14 591.977 3130.51 591.977 3129.89 592.047C3126.34 592.047 3122.72 591.977 3119.18 591.908C3119.04 591.908 3118.9 591.908 3118.69 591.908C3118.27 591.908 3117.86 591.908 3117.37 591.908C3117.23 591.908 3117.16 592.047 3117.02 592.116C3117.02 601.848 3117.02 611.58 3117.02 621.381C3117.02 622.494 3117.02 623.606 3117.02 624.649C3116.88 624.857 3116.74 624.996 3116.61 625.205C3116.4 625.205 3116.19 625.205 3116.05 625.274C3115.28 625.274 3114.59 625.205 3113.82 625.135C3110.97 625.135 3108.12 625.205 3105.27 625.274C3105.13 625.274 3104.99 625.274 3104.86 625.274C3104.51 625.274 3104.23 625.274 3103.88 625.274C3103.6 625.205 3103.4 625.135 3103.12 624.996C3103.05 624.579 3102.84 624.092 3102.84 623.675C3102.84 613.387 3102.84 603.03 3102.91 592.742C3102.84 592.533 3102.77 592.325 3102.63 592.116C3102.42 592.116 3102.21 591.977 3102.01 591.908C3101.66 591.908 3101.38 591.908 3101.03 591.908C3100.75 591.908 3100.55 591.908 3100.27 591.908C3093.04 591.908 3085.74 591.908 3078.5 591.908C3078.37 591.908 3078.23 591.908 3078.09 591.908C3077.88 592.047 3077.6 592.186 3077.39 592.325C3077.39 592.464 3077.39 592.533 3077.32 592.672C3077.32 593.02 3077.32 593.368 3077.32 593.715C3077.32 593.715 3077.25 593.785 3077.25 593.854C3077.25 593.924 3077.25 593.993 3077.32 594.132C3077.32 603.517 3077.32 612.831 3077.39 622.216C3077.39 623.05 3077.39 623.814 3077.39 624.649C3077.25 624.788 3077.11 624.857 3077.04 624.996C3076.49 625.066 3075.93 625.135 3075.38 625.274C3072.25 625.274 3069.12 625.274 3065.99 625.274C3065.78 625.274 3065.5 625.274 3065.29 625.274C3064.81 625.274 3064.39 625.274 3063.9 625.274C3063.7 625.205 3063.42 625.066 3063.21 624.996C3063.21 624.857 3063.21 624.788 3063.14 624.649C3063.14 624.44 3063.14 624.231 3063.14 623.953L3063.42 624.162Z" fill="#FF9900"/>
</g>
<path d="M3363.2 274L4248.2 -612L4248.2 274L3363.2 274Z" fill="#A965EE"/>
</g>
<defs>
<clipPath id="clip0_1152_3906">
<rect width="4097" height="965" fill="white"/>
</clipPath>
<clipPath id="clip1_1152_3906">
<rect width="797" height="448" fill="white" transform="translate(1160.2 258)"/>
</clipPath>
<clipPath id="clip2_1152_3906">
<rect width="328" height="175" fill="white" transform="translate(2110.2 395)"/>
</clipPath>
<clipPath id="clip3_1152_3906">
<rect width="337" height="337" fill="white" transform="translate(2870.2 306)"/>
</clipPath>
</defs>
</svg>
