<svg viewBox="0 0 4097 965" fill="none" xmlns="http://www.w3.org/2000/svg">
<g clip-path="url(#clip0_1135_3675)">
<rect width="4097" height="965" fill="#EAEBF3"/>
<path d="M500.542 554.279L1516.03 1569.93H500.542V554.279Z" fill="#4541F4"/>
<path d="M988.285 -104.304C988.285 165.116 769.912 383.519 500.542 383.519C231.173 383.519 12.7998 165.116 12.7998 -104.304C12.7998 -373.724 231.173 -592.127 500.542 -592.127C769.912 -592.127 988.285 -373.724 988.285 -104.304Z" stroke="#8965EE" stroke-width="40"/>
<mask id="mask0_1135_3675" style="mask-type:luminance" maskUnits="userSpaceOnUse" x="2462" y="362" width="772" height="241">
<path d="M3233.52 362H2462V602.744H3233.52V362Z" fill="white"/>
</mask>
<g mask="url(#mask0_1135_3675)">
<path d="M2839.9 578.063H2820.14C2804.58 578.063 2797.39 569.516 2797.39 555.843V545.245C2766.26 541.263 2746.5 516.479 2746.5 473.732C2746.5 426.797 2770.25 401.62 2806.58 401.62C2842.91 401.62 2866.65 426.797 2866.65 473.732C2866.65 515.283 2848.1 539.861 2818.55 544.852V559.227H2839.46L2839.9 578.063ZM2842.5 484.773V462.844C2842.5 437.479 2828.14 421.823 2806.63 421.823C2785.13 421.823 2770.77 437.411 2770.77 462.844V484.773C2770.77 510.138 2785.13 525.795 2806.63 525.795C2828.14 525.795 2842.5 510.138 2842.5 484.773Z" fill="#010101"/>
<path d="M2882.69 413.721V410.303C2882.69 403.705 2886.69 398.919 2895.67 398.919C2904.65 398.919 2908.44 403.705 2908.44 410.303V413.721C2908.44 420.302 2904.65 425.104 2895.67 425.104C2886.69 425.104 2882.69 420.302 2882.69 413.721Z" fill="#010101"/>
<path d="M2906.45 439.633H2884.69V543.502H2906.45V439.633Z" fill="#010101"/>
<path d="M2924.6 526.324L2938.52 513.539C2946.11 522.735 2955.48 528.324 2967.87 528.324C2980.25 528.324 2986.82 523.197 2986.82 514.343C2986.82 507.745 2982.83 502.754 2972.05 501.353L2962.47 500.156C2941.31 497.558 2928.31 488.363 2928.31 469.185C2928.31 449.016 2944.07 437.223 2966.82 437.223C2985.61 437.223 2996.17 443.427 3005.56 453.802L2992.19 466.587C2989.07 462.889 2985.19 459.919 2980.81 457.884C2976.43 455.85 2971.65 454.8 2966.82 454.811C2954.87 454.811 2949.27 459.938 2949.27 467.784C2949.27 475.629 2954.25 479.372 2965.23 481.184L2974.82 482.38C2997.57 485.799 3007.75 495.764 3007.75 512.531C3007.75 532.512 2991.59 545.895 2966.64 545.895C2947.15 545.895 2934.37 538.511 2924.6 526.324Z" fill="#010101"/>
<path d="M3022.59 395.672H3044.42V486.363H3045.41L3059.79 467.784L3084.74 439.633H3110.09L3073.69 479.782L3114.44 543.502H3088.46L3058.71 493.935L3044.42 509.54V543.502H3022.59V395.672Z" fill="#010101"/>
<path d="M3129.54 413.721V410.303C3129.54 403.705 3133.54 398.919 3142.52 398.919C3151.51 398.919 3155.28 403.705 3155.28 410.303V413.721C3155.28 420.302 3151.49 425.104 3142.52 425.104C3133.55 425.104 3129.54 420.302 3129.54 413.721Z" fill="#010101"/>
<path d="M3153.3 439.633H3131.54V543.502H3153.3V439.633Z" fill="#010101"/>
<path d="M3210.57 543.502C3195.59 543.502 3187.61 535.11 3187.61 520.923V457.409H3171.44V439.633H3180.23C3187.41 439.633 3189.8 436.625 3189.8 429.377V411.26H3209.37V439.633H3231.13V457.409H3209.37V525.778H3229.53V543.553L3210.57 543.502Z" fill="#010101"/>
<path d="M2685.98 538.289C2685.74 516.155 2633.84 503.66 2584.97 503.113C2533.14 503.113 2479.51 516.24 2479.34 538.221V538.357C2479.54 560.44 2531.48 572.918 2580.34 573.465C2632.18 573.465 2685.81 560.338 2685.98 538.357V538.289ZM2580.33 565.397C2525.67 564.782 2487.53 550.647 2487.4 538.306C2487.62 525.487 2529.23 511.198 2584.97 511.198C2639.63 511.813 2677.77 525.948 2677.9 538.289C2677.75 551.091 2636.06 565.397 2580.33 565.397Z" fill="url(#paint0_radial_1135_3675)"/>
<path d="M2582.87 601.872C2561.7 601.937 2540.9 596.375 2522.58 585.757C2504.27 575.14 2489.09 559.846 2478.62 541.439C2468.14 523.031 2462.74 502.171 2462.96 480.988C2463.18 459.806 2469.01 439.062 2479.87 420.875C2490.72 402.689 2506.21 387.713 2524.74 377.477C2543.27 367.241 2564.19 362.112 2585.35 362.615C2606.51 363.119 2627.16 369.235 2645.18 380.34C2663.21 391.445 2677.97 407.141 2687.95 425.822C2697.7 444.021 2702.57 464.437 2702.09 485.081C2701.61 505.724 2695.8 525.892 2685.22 543.62C2674.64 561.348 2659.65 576.03 2641.72 586.239C2623.78 596.449 2603.51 601.834 2582.87 601.872ZM2582.5 370.82C2558.14 370.871 2534.47 378.913 2515.11 393.714C2495.76 408.514 2481.78 429.256 2475.33 452.763C2468.88 476.27 2470.31 501.245 2479.4 523.862C2488.49 546.478 2504.73 565.489 2525.65 577.984C2546.57 590.478 2571 595.765 2595.21 593.035C2619.41 590.306 2642.06 579.708 2659.67 562.869C2677.28 546.03 2688.89 523.877 2692.72 499.804C2696.55 475.73 2692.39 451.063 2680.88 429.583C2671.32 411.799 2657.13 396.941 2639.8 386.593C2622.48 376.245 2602.67 370.793 2582.5 370.82Z" fill="#010101"/>
<path d="M2613.48 585.788C2613.36 576.644 2600.16 569.739 2582.74 569.739C2565.31 569.739 2551.99 576.575 2551.99 585.788V585.908C2552.11 595.052 2565.31 601.957 2582.74 601.957C2600.16 601.957 2613.48 595.12 2613.48 585.908V585.788ZM2582.74 594.334C2568.92 594.334 2560.11 589.343 2560 585.788C2559.9 582.233 2568.92 577.242 2582.74 577.242C2596.55 577.242 2605.35 582.25 2605.45 585.788C2605.55 589.326 2596.49 594.266 2582.68 594.266L2582.74 594.334Z" fill="url(#paint1_radial_1135_3675)"/>
<path d="M2702.17 482.346C2701.83 458.673 2641.85 445.171 2585.42 444.589C2525.64 444.589 2463.52 458.776 2463.18 482.346C2463.18 482.346 2463.18 482.346 2463.18 482.449C2463.52 506.121 2523.49 519.624 2579.94 520.205C2639.71 520.205 2701.83 506.019 2702.17 482.449C2702.17 482.449 2702.17 482.38 2702.17 482.346ZM2579.97 512.121C2516.06 511.454 2471.48 495.917 2471.26 482.363C2471.48 468.296 2520.22 452.589 2585.38 452.589C2649.3 453.255 2693.87 468.792 2694.1 482.346C2693.87 496.413 2645.13 512.121 2579.97 512.121Z" fill="url(#paint2_radial_1135_3675)"/>
<path d="M2584.97 390.852C2533.12 390.852 2479.49 404.03 2479.49 426.044C2479.49 448.059 2531.39 460.707 2580.26 461.254C2632.11 461.254 2685.74 448.076 2685.74 426.044C2685.74 404.013 2633.91 391.399 2584.97 390.852ZM2580.38 453.17C2525.72 452.589 2487.62 438.385 2487.62 426.044C2487.62 413.277 2529.29 398.936 2584.97 398.936C2639.63 399.551 2677.7 413.721 2677.7 426.044C2677.73 438.915 2636.08 453.17 2580.38 453.17Z" fill="url(#paint3_radial_1135_3675)"/>
<path d="M2582.27 362.632C2573.58 362.632 2553.38 363.949 2553.38 376.118C2553.38 388.288 2573.58 389.604 2582.27 389.604C2590.97 389.604 2611.17 388.288 2611.17 376.118C2611.17 363.949 2590.97 362.632 2582.27 362.632ZM2582.27 370.82C2594.49 370.82 2602.99 373.623 2602.99 376.118C2602.99 378.614 2594.45 381.417 2582.27 381.417C2570.1 381.417 2561.56 378.631 2561.56 376.118C2561.56 373.606 2570.06 370.82 2582.27 370.82Z" fill="black"/>
<path d="M2632.8 554.817C2632.3 554.822 2631.81 554.862 2631.33 554.937L2586.39 477.287L2545.49 406.542C2546.94 404.719 2547.73 402.453 2547.73 400.119C2547.73 397.784 2546.93 395.521 2545.46 393.703C2544 391.885 2541.96 390.62 2539.68 390.119C2537.4 389.618 2535.02 389.91 2532.93 390.947C2530.84 391.984 2529.17 393.703 2528.19 395.821C2527.21 397.939 2526.98 400.328 2527.53 402.595C2528.09 404.861 2529.41 406.869 2531.26 408.286C2533.12 409.703 2535.4 410.444 2537.73 410.388C2538.18 410.37 2538.63 410.324 2539.08 410.251L2579.99 480.996L2598.47 512.975L2624.84 558.56C2623.36 560.36 2622.54 562.611 2622.51 564.941C2622.48 567.27 2623.24 569.542 2624.67 571.379C2626.1 573.217 2628.12 574.511 2630.38 575.049C2632.65 575.589 2635.03 575.34 2637.14 574.343C2639.24 573.347 2640.94 571.663 2641.96 569.568C2642.98 567.474 2643.26 565.095 2642.75 562.821C2642.24 560.548 2640.97 558.516 2639.15 557.061C2637.33 555.607 2635.07 554.815 2632.75 554.817H2632.8Z" fill="url(#paint4_radial_1135_3675)"/>
</g>
<path d="M3501 1061.82C3501 792.403 3719.37 574 3988.74 574C4258.11 574 4476.49 792.403 4476.49 1061.82C4476.49 1331.24 4258.11 1549.65 3988.74 1549.65C3719.37 1549.65 3501 1331.24 3501 1061.82Z" stroke="#9CCDE2" stroke-width="40"/>
<g clip-path="url(#clip1_1135_3675)">
<path d="M1256.97 269.985C1285.98 269.985 1309.72 293.715 1309.72 322.719C1309.72 351.723 1285.98 375.453 1256.97 375.453C1227.96 375.453 1204.22 351.723 1204.22 322.719C1204.22 293.715 1227.96 269.985 1256.97 269.985ZM1256.97 258C1221.25 258 1192.23 287.004 1192.23 322.719C1192.23 358.434 1221.25 387.438 1256.97 387.438C1292.7 387.438 1321.71 358.434 1321.71 322.719C1321.71 287.004 1292.7 258 1256.97 258Z" fill="#5552FF"/>
<path d="M1408.03 420.996C1437.04 420.996 1460.78 444.727 1460.78 473.73C1460.78 502.734 1437.04 526.465 1408.03 526.465C1379.01 526.465 1355.28 502.734 1355.28 473.73C1355.28 444.727 1379.01 420.996 1408.03 420.996ZM1408.03 409.011C1372.3 409.011 1343.29 438.015 1343.29 473.73C1343.29 509.446 1372.3 538.45 1408.03 538.45C1443.75 538.45 1472.77 509.446 1472.77 473.73C1472.77 438.015 1443.75 409.011 1408.03 409.011Z" fill="#5552FF"/>
<path d="M1343.29 258L1472.77 387.438H1343.29V258Z" fill="#5552FF"/>
<path d="M1321.71 409.011H1192.23V538.45H1321.71V409.011Z" fill="#5552FF"/>
<path d="M1707.74 671.483C1713.98 671.483 1719.01 676.516 1719.01 682.748C1719.01 688.981 1713.98 694.014 1707.74 694.014C1701.51 694.014 1696.47 688.981 1696.47 682.748C1696.47 676.516 1701.51 671.483 1707.74 671.483ZM1707.74 659.498C1694.79 659.498 1684.48 669.805 1684.48 682.748C1684.48 695.692 1694.79 705.999 1707.74 705.999C1720.69 705.999 1731 695.692 1731 682.748C1731 669.805 1720.45 659.498 1707.74 659.498Z" fill="#5552FF"/>
<path d="M933.999 639.603C933.999 602.449 960.854 573.685 999.697 573.685C1030.15 573.685 1051.49 590.225 1057.96 612.756L1033.26 622.344C1027.75 607.004 1017.44 596.457 999.217 596.457C976.439 596.457 962.532 612.277 962.532 639.603C962.532 666.929 976.199 682.989 999.217 682.989C1017.2 682.989 1028.47 672.202 1033.98 656.861L1058.2 666.689C1049.09 691.138 1029.91 706 999.457 706C959.895 706 933.999 678.195 933.999 639.603Z" fill="#08081A"/>
<path d="M1068.03 658.06C1068.03 629.056 1087.93 610.12 1115.51 610.12C1143.08 610.12 1162.98 629.056 1162.98 658.06C1162.98 687.543 1143.08 706 1115.51 706C1087.93 706 1068.03 685.865 1068.03 658.06ZM1136.37 658.3C1136.37 639.603 1127.97 630.255 1115.51 630.255C1103.28 630.255 1094.65 639.603 1094.65 658.3C1094.65 676.996 1103.04 685.625 1115.51 685.625C1127.97 685.625 1136.37 676.996 1136.37 658.3Z" fill="#08081A"/>
<path d="M1195.59 703.124L1160.82 612.756H1187.68L1200.15 649.67C1204.94 664.292 1205.66 671.243 1206.14 687.303H1215.73C1216.21 671.243 1216.45 663.333 1221.01 649.67L1232.99 612.756H1259.13L1226.28 703.124H1195.59Z" fill="#08081A"/>
<path d="M1262.01 679.872C1262.01 654.704 1288.86 647.273 1318.83 644.397V641.041C1318.83 633.371 1314.28 628.577 1303.97 628.577C1292.22 628.577 1286.22 634.329 1284.06 642.959L1261.05 637.925C1262.49 623.783 1277.59 610.359 1303.97 610.359C1329.38 610.359 1344.25 621.625 1344.25 645.356V678.434C1344.25 682.989 1344.73 683.947 1349.76 683.947H1357.67V703.363H1347.12C1331.3 703.363 1327.7 697.85 1327.46 684.666H1319.07C1315.48 696.412 1307.08 706.24 1291.5 706.24C1274.23 706 1262.01 695.932 1262.01 679.872ZM1318.83 665.97V660.217C1302.29 662.135 1288.14 665.49 1288.14 677.475C1288.14 683.468 1292.22 687.303 1299.89 687.303C1309.72 687.303 1318.83 680.592 1318.83 665.97Z" fill="#08081A"/>
<path d="M1368.94 703.123V573.685H1394.6V703.123H1368.94Z" fill="#08081A"/>
<path d="M1405.87 657.82C1405.87 629.536 1425.29 610.12 1451.67 610.12C1482.12 610.12 1497.94 633.85 1495.3 664.052H1431.52C1432.24 679.873 1440.64 686.345 1451.67 686.345C1463.17 686.345 1468.93 679.154 1472.53 670.524L1495.54 679.393C1490.51 690.899 1479 705.76 1451.67 705.76C1423.85 706 1405.87 687.303 1405.87 657.82ZM1469.89 646.075C1468.69 634.809 1462.22 628.577 1451.43 628.577C1441.12 628.577 1434.16 634.809 1432.24 646.075H1469.89Z" fill="#08081A"/>
<path d="M1506.33 703.124V612.757H1529.35C1529.11 618.749 1525.28 626.42 1520.48 633.611H1531.75C1535.83 620.667 1544.94 610.12 1559.32 610.12C1579.22 610.12 1590.01 623.303 1590.01 643.438V703.124H1564.6V648.232C1564.6 636.247 1559.08 631.214 1550.21 631.214C1532.23 631.214 1532.23 650.629 1532.23 660.217V703.124H1506.33Z" fill="#08081A"/>
<path d="M1643.24 703.123C1628.62 703.123 1620.22 693.535 1620.22 679.393V632.172H1601.28V612.756H1620.22V584.472H1645.88V612.756H1669.38V632.172H1645.88V674.599C1645.88 680.112 1648.28 682.509 1653.79 682.509H1673.21V702.884H1643.24V703.123Z" fill="#08081A"/>
</g>
<g clip-path="url(#clip2_1135_3675)">
<path d="M2048 563.685C2002.26 563.685 1965.27 526.52 1966 481.056C1966.73 436.675 2004.45 401.314 2049.28 401.314H2129.45C2129.64 401.314 2130 401.495 2130 401.855V433.788V563.144C2130 563.325 2129.82 563.685 2129.45 563.685H2048Z" stroke="#222326" stroke-width="12" stroke-miterlimit="10"/>
<path d="M2212 433.788H2130" stroke="#222326" stroke-width="12" stroke-miterlimit="10"/>
<path d="M2212 531.211H2130" stroke="#222326" stroke-width="12" stroke-miterlimit="10"/>
<path d="M1966 482.5H1884" stroke="#222326" stroke-width="12" stroke-miterlimit="10"/>
</g>
<path d="M3137 274L4022 -612L4022 274L3137 274Z" fill="#A965EE"/>
</g>
<defs>
<radialGradient id="paint0_radial_1135_3675" cx="0" cy="0" r="1" gradientUnits="userSpaceOnUse" gradientTransform="translate(2622.55 485.011) rotate(12.3479) scale(109.05 71.664)">
<stop offset="0.16" stop-color="#010101" stop-opacity="0"/>
<stop offset="1" stop-color="#010101"/>
</radialGradient>
<radialGradient id="paint1_radial_1135_3675" cx="0" cy="0" r="1" gradientUnits="userSpaceOnUse" gradientTransform="translate(2583.2 556.482) scale(58.6167 35.9141)">
<stop stop-color="#010101" stop-opacity="0"/>
<stop offset="1" stop-color="#010101"/>
</radialGradient>
<radialGradient id="paint2_radial_1135_3675" cx="0" cy="0" r="1" gradientUnits="userSpaceOnUse" gradientTransform="translate(2583.76 416.49) scale(100.897 77.2738)">
<stop offset="0.2" stop-color="#010101" stop-opacity="0"/>
<stop offset="1" stop-color="#010101"/>
</radialGradient>
<radialGradient id="paint3_radial_1135_3675" cx="0" cy="0" r="1" gradientUnits="userSpaceOnUse" gradientTransform="translate(2521.32 365.651) rotate(65.8147) scale(67.8371 96.0977)">
<stop offset="0.36" stop-color="#010101" stop-opacity="0"/>
<stop offset="1" stop-color="#010101"/>
</radialGradient>
<radialGradient id="paint4_radial_1135_3675" cx="0" cy="0" r="1" gradientUnits="userSpaceOnUse" gradientTransform="translate(1826 -1649.36) scale(1789.2 1790.51)">
<stop stop-color="#010101" stop-opacity="0"/>
<stop offset="0.37" stop-color="#010101"/>
</radialGradient>
<clipPath id="clip0_1135_3675">
<rect width="4097" height="965" fill="white"/>
</clipPath>
<clipPath id="clip1_1135_3675">
<rect width="797" height="448" fill="white" transform="translate(934 258)"/>
</clipPath>
<clipPath id="clip2_1135_3675">
<rect width="328" height="175" fill="white" transform="translate(1884 395)"/>
</clipPath>
</defs>
</svg>
