<svg width="18" height="18" viewBox="0 0 18 18" fill="none" xmlns="http://www.w3.org/2000/svg">
<g clip-path="url(#clip0_187_269)">
<path d="M3.9375 15.75C3.83625 15.75 3.74062 15.7219 3.65062 15.6712C3.48187 15.57 3.375 15.3844 3.375 15.1875V2.81248C3.375 2.61561 3.48187 2.42998 3.65062 2.32873C3.81937 2.22748 4.03312 2.22186 4.2075 2.31748L15.4575 8.50498C15.6375 8.60623 15.75 8.79186 15.75 8.99998C15.75 9.20811 15.6375 9.39373 15.4575 9.49498L4.2075 15.6825C4.12313 15.7275 4.0275 15.75 3.9375 15.75ZM4.5 3.76311V14.2369L14.0175 8.99998L4.5 3.76311Z" fill="#5552FF
"/>
</g>
<defs>
<clipPath id="clip0_187_269">
<rect width="18" height="18" fill="white"/>
</clipPath>
</defs>
</svg>
