<svg width="38" height="38" viewBox="0 0 38 38" fill="none" xmlns="http://www.w3.org/2000/svg">
<path fill-rule="evenodd" clip-rule="evenodd" d="M19.0068 0.0139124C8.51233 0.0139124 0 8.737 0 19.4913C0 28.0892 5.4441 35.3932 12.9925 37.967C13.9429 38.1479 14.2959 37.5496 14.2959 37.0349C14.2959 36.5758 14.2823 35.3515 14.2687 33.7237C8.98751 34.9063 7.86064 31.1082 7.86064 31.1082C6.99176 28.8544 5.75633 28.2561 5.75633 28.2561C4.03214 27.0458 5.89214 27.0736 5.89214 27.0736C7.79282 27.2127 8.7974 29.077 8.7974 29.077C10.4944 32.0542 13.2504 31.1917 14.323 30.6908C14.4995 29.4387 14.9882 28.5761 15.5313 28.0892C11.309 27.6023 6.8696 25.9328 6.8696 18.4618C6.8696 16.3332 7.61629 14.5941 8.82458 13.2307C8.63452 12.7438 7.98287 10.7543 9.01467 8.06921C9.01467 8.06921 10.6166 7.54053 14.2415 10.0726C15.7621 9.64131 17.3776 9.41871 18.9932 9.41871C20.6088 9.41871 22.2379 9.64131 23.7449 10.0726C27.3698 7.55445 28.9718 8.06921 28.9718 8.06921C30.0036 10.7543 29.3519 12.7299 29.1618 13.2307C30.3837 14.5941 31.1168 16.3332 31.1168 18.4618C31.1168 25.9467 26.6774 27.5883 22.4416 28.0753C23.1204 28.6735 23.7313 29.87 23.7313 31.6786C23.7313 34.2802 23.7042 36.381 23.7042 37.021C23.7042 37.5357 24.0436 38.1479 25.0075 37.9531C32.5559 35.3793 38 28.0753 38 19.4774C38 8.72309 29.4877 0 18.9932 0L19.0068 0.0139124Z" fill="white"/>
</svg>
