<svg width="34" height="32" viewBox="0 0 34 32" fill="none" xmlns="http://www.w3.org/2000/svg">
<path d="M7.06302 19.7417C7.06302 21.5506 5.47944 23.0212 3.53151 23.0212C1.58357 23.0212 0 21.5506 0 19.7417C0 17.9328 1.58357 16.4622 3.53151 16.4622H7.06302V19.7417Z" fill="white"/>
<path d="M8.84277 19.7417C8.84277 17.9328 10.4263 16.4622 12.3743 16.4622C14.3222 16.4622 15.9058 17.9328 15.9058 19.7417V27.9534C15.9058 29.7623 14.3222 31.2328 12.3743 31.2328C10.4263 31.2328 8.84277 29.7623 8.84277 27.9534V19.7417Z" fill="white"/>
<path d="M12.3743 6.55892C10.4263 6.55892 8.84277 5.08837 8.84277 3.27946C8.84277 1.47055 10.4263 0 12.3743 0C14.3222 0 15.9058 1.47055 15.9058 3.27946V6.55892H12.3743Z" fill="white"/>
<path d="M12.3743 8.21175C14.3222 8.21175 15.9058 9.6823 15.9058 11.4912C15.9058 13.3001 14.3222 14.7707 12.3743 14.7707H3.53151C1.58357 14.7707 0 13.3001 0 11.4912C0 9.6823 1.58357 8.21175 3.53151 8.21175H12.3743Z" fill="white"/>
<path d="M26.5703 11.4912C26.5703 9.6823 28.1539 8.21175 30.1018 8.21175C32.0498 8.21175 33.6333 9.6823 33.6333 11.4912C33.6333 13.3001 32.0498 14.7707 30.1018 14.7707H26.5703V11.4912Z" fill="white"/>
<path d="M24.7906 11.4911C24.7906 13.3 23.207 14.7706 21.259 14.7706C19.3111 14.7706 17.7275 13.3 17.7275 11.4911V3.27946C17.7275 1.47055 19.3111 0 21.259 0C23.207 0 24.7906 1.47055 24.7906 3.27946V11.4911Z" fill="white"/>
<path d="M21.259 24.674C23.207 24.674 24.7906 26.1445 24.7906 27.9534C24.7906 29.7624 23.207 31.2329 21.259 31.2329C19.3111 31.2329 17.7275 29.7624 17.7275 27.9534V24.674H21.259Z" fill="white"/>
<path d="M21.259 23.0212C19.3111 23.0212 17.7275 21.5506 17.7275 19.7417C17.7275 17.9328 19.3111 16.4622 21.259 16.4622H30.1018C32.0498 16.4622 33.6333 17.9328 33.6333 19.7417C33.6333 21.5506 32.0498 23.0212 30.1018 23.0212H21.259Z" fill="white"/>
</svg>
