<svg width="82" height="84" viewBox="0 0 82 84" fill="none" xmlns="http://www.w3.org/2000/svg">
<path d="M19.1146 4.40592C27.4567 4.40592 34.282 11.4283 34.282 20.0112C34.282 28.5942 27.4567 35.6165 19.1146 35.6165C10.7725 35.6165 3.94715 28.5942 3.94715 20.0112C3.94715 11.4283 10.7725 4.40592 19.1146 4.40592ZM19.1146 0.859253C8.8421 0.859253 0.5 9.44218 0.5 20.0112C0.5 30.5803 8.8421 39.1632 19.1146 39.1632C29.3871 39.1632 37.7292 30.5803 37.7292 20.0112C37.7292 9.44218 29.3871 0.859253 19.1146 0.859253Z" fill="white"/>
<path d="M62.5487 49.0939C70.8908 49.0939 77.7161 56.1163 77.7161 64.6992C77.7161 73.2822 70.8908 80.3046 62.5487 80.3046C54.2066 80.3046 47.3812 73.2822 47.3812 64.6992C47.3812 56.1163 54.2066 49.0939 62.5487 49.0939ZM62.5487 45.5472C52.2762 45.5472 43.9341 54.1302 43.9341 64.6992C43.9341 75.2683 52.2762 83.8512 62.5487 83.8512C72.8212 83.8512 81.1633 75.2683 81.1633 64.6992C81.1633 54.1302 72.8212 45.5472 62.5487 45.5472Z" fill="white"/>
<path d="M43.9341 0.859253L81.1633 39.1632H43.9341V0.859253Z" fill="white"/>
<path d="M37.7292 45.5472H0.5V83.8512H37.7292V45.5472Z" fill="white"/>
</svg>
