<svg width="132" height="30" viewBox="0 0 132 30" fill="none" xmlns="http://www.w3.org/2000/svg">
<g clip-path="url(#clip0_315_2014)">
<path d="M129.441 10.5701C130.233 10.5701 130.874 11.2081 130.874 11.9961C130.874 12.7841 130.233 13.4221 129.441 13.4221C128.649 13.4221 128.009 12.7841 128.009 11.9961C128.009 11.2081 128.649 10.5701 129.441 10.5701ZM129.441 9.44434C128.021 9.44434 126.878 10.5951 126.878 11.9961C126.878 13.4096 128.034 14.5479 129.441 14.5479C130.861 14.5479 132.005 13.3971 132.005 11.9961C132.005 10.5951 130.861 9.44434 129.441 9.44434Z" fill="white"/>
<path d="M43.8796 7.2677C43.8796 3.16487 46.8326 0.0126953 51.1553 0.0126953C54.5104 0.0126953 56.8728 1.83895 57.6142 4.30315L54.8748 5.35388C54.2717 3.66521 53.1156 2.51442 51.1176 2.51442C48.6044 2.51442 47.0588 4.24061 47.0588 7.2677C47.0588 10.2948 48.5542 12.046 51.1176 12.046C53.1156 12.046 54.3596 10.8577 54.9502 9.18152L57.6268 10.2573C56.6089 12.9466 54.4853 14.5727 51.1176 14.5727C46.7321 14.5602 43.8796 11.4956 43.8796 7.2677Z" fill="white"/>
<path d="M58.7075 9.26906C58.7075 6.09187 60.9066 4.00293 63.9601 4.00293C67.0136 4.00293 69.2126 6.09187 69.2126 9.26906C69.2126 12.5088 67.0136 14.5602 63.9601 14.5602C60.9066 14.5602 58.7075 12.3337 58.7075 9.26906ZM66.2597 9.30659C66.2597 7.25517 65.3172 6.22946 63.9601 6.22946C62.603 6.22946 61.6605 7.26768 61.6605 9.30659C61.6605 11.3455 62.603 12.3087 63.9601 12.3087C65.3172 12.3087 66.2597 11.358 66.2597 9.30659Z" fill="white"/>
<path d="M72.7938 14.2471L68.9612 4.30273H71.9393L73.3216 8.38055C73.8619 9.99416 73.9373 10.7697 73.975 12.5334H75.0305C75.0682 10.7572 75.1059 9.89409 75.6086 8.38055L76.928 4.30273H79.8307L76.1992 14.2471H72.7938Z" fill="white"/>
<path d="M80.1576 11.6957C80.1576 8.90631 83.1106 8.09325 86.428 7.78053V7.40528C86.428 6.55469 85.9254 6.02933 84.7945 6.02933C83.5002 6.02933 82.8342 6.66727 82.5954 7.60541L80.032 7.04253C80.1953 5.49146 81.854 4.00293 84.7693 4.00293C87.5715 4.00293 89.2303 5.24128 89.2303 7.85559V11.4956C89.2303 11.9959 89.2931 12.096 89.8334 12.096H90.713V14.2475H89.5193C87.76 14.2475 87.3831 13.6471 87.3454 12.1836H86.4029C86.0008 13.472 85.0584 14.5727 83.3494 14.5727C81.5148 14.5602 80.1576 13.4469 80.1576 11.6957ZM86.428 10.1697V9.53174C84.5934 9.74439 83.0352 10.1071 83.0352 11.4205C83.0352 12.071 83.4751 12.4963 84.3295 12.4963C85.4353 12.4963 86.428 11.7708 86.428 10.1697Z" fill="white"/>
<path d="M91.9695 14.2473V0H94.8094V14.2473H91.9695Z" fill="white"/>
<path d="M96.0535 9.25655C96.0535 6.1294 98.2148 4.00293 101.105 4.00293C104.46 4.00293 106.219 6.62974 105.943 9.94453H98.8934C98.9688 11.6957 99.9112 12.4087 101.13 12.4087C102.412 12.4087 103.028 11.6082 103.442 10.6825L105.981 11.6582C105.415 12.9341 104.159 14.5602 101.13 14.5602C98.0515 14.5602 96.0535 12.5088 96.0535 9.25655ZM103.141 7.95565C103.015 6.7173 102.299 6.02933 101.105 6.02933C99.9615 6.02933 99.1824 6.70479 98.9813 7.95565H103.141Z" fill="white"/>
<path d="M107.162 14.2475V4.30314H109.725C109.7 4.95358 109.285 5.81668 108.745 6.59221H109.989C110.454 5.17874 111.447 4.00293 113.042 4.00293C115.242 4.00293 116.435 5.45393 116.435 7.66796V14.2475H113.595V8.19332C113.595 6.87991 112.98 6.32953 112 6.32953C110.027 6.32953 110.002 8.48102 110.002 9.53174V14.2475H107.162Z" fill="white"/>
<path d="M122.304 14.2473C120.683 14.2473 119.765 13.1966 119.765 11.6455V6.44191H117.667V4.30294H119.765V1.17578H122.605V4.30294H125.206V6.45442H122.605V11.1326C122.605 11.7331 122.869 12.0083 123.485 12.0083H125.646V14.2598H122.304V14.2473Z" fill="white"/>
<path d="M49.1246 18.4075H44.9646V29.6875H49.1246C52.1326 29.6875 55.2686 28.9035 55.2686 24.0395C55.2686 19.1915 52.1326 18.4075 49.1246 18.4075ZM49.1246 27.4475H47.5246V20.6475H49.1246C51.1246 20.6475 52.7086 20.8075 52.7086 24.0395C52.7086 27.2875 51.1246 27.4475 49.1246 27.4475ZM56.0665 25.6395C56.0665 28.4715 58.0825 29.8475 60.6265 29.8475C63.1545 29.8475 65.1705 28.4715 65.1705 25.6395C65.1705 22.8235 63.1545 21.4475 60.6265 21.4475C58.0825 21.4475 56.0665 22.8235 56.0665 25.6395ZM58.6265 25.6395C58.6265 24.2955 59.4105 23.6875 60.6265 23.6875C61.8265 23.6875 62.6105 24.2955 62.6105 25.6395C62.6105 26.9995 61.8265 27.6075 60.6265 27.6075C59.4105 27.6075 58.6265 26.9995 58.6265 25.6395ZM65.9728 25.6395C65.9728 28.3435 67.8128 29.8475 70.3888 29.8475C72.5968 29.8475 74.6128 28.6475 74.7248 26.3435H72.1648C72.0688 27.0635 71.4128 27.6075 70.3888 27.6075C69.1728 27.6075 68.5328 26.8875 68.5328 25.6395C68.5328 24.4075 69.1728 23.6875 70.3888 23.6875C71.4128 23.6875 72.0688 24.2315 72.1648 24.9515H74.7248C74.6128 22.6475 72.5968 21.4475 70.3888 21.4475C67.8128 21.4475 65.9728 22.9515 65.9728 25.6395ZM83.3756 27.4635C83.3756 25.7835 81.9356 25.3835 80.3676 24.8715C79.0876 24.4555 78.2876 24.2155 78.2876 23.8315C78.2876 23.5115 78.6236 23.3675 79.2316 23.3675C80.1116 23.3675 80.5436 23.7995 80.5436 24.3755H83.1036C83.1036 22.8075 81.9836 21.4475 79.2476 21.4475C77.0236 21.4475 75.7276 22.2795 75.7276 23.7195C75.7276 25.5275 77.5676 25.9275 79.0716 26.4235C80.3676 26.8555 80.8156 26.9675 80.8156 27.3835C80.8156 27.7675 80.3836 27.9275 79.6956 27.9275C78.3516 27.9275 77.9196 27.3835 77.9196 26.7595H75.3596C75.3596 28.6475 76.6396 29.8475 79.6156 29.8475C82.3996 29.8475 83.3756 28.8235 83.3756 27.4635Z" fill="white"/>
<path d="M6.49114 2.84134C8.87122 2.84134 10.8186 4.7798 10.8186 7.14903C10.8186 9.51825 8.87122 11.4567 6.49114 11.4567C4.11105 11.4567 2.16371 9.51825 2.16371 7.14903C2.16371 4.7798 4.11105 2.84134 6.49114 2.84134ZM6.49114 0.6875C2.90899 0.6875 0 3.58322 0 7.14903C0 10.7148 2.90899 13.6106 6.49114 13.6106C10.0733 13.6106 12.9823 10.7148 12.9823 7.14903C12.9823 3.58322 10.0733 0.6875 6.49114 0.6875Z" fill="white"/>
<path d="M21.6371 17.9185C24.0172 17.9185 25.9646 19.8569 25.9646 22.2262C25.9646 24.5954 24.0172 26.5339 21.6371 26.5339C19.257 26.5339 17.3097 24.5954 17.3097 22.2262C17.3097 19.8569 19.257 17.9185 21.6371 17.9185ZM21.6371 15.7646C18.055 15.7646 15.146 18.6604 15.146 22.2262C15.146 25.792 18.055 28.6877 21.6371 28.6877C25.2193 28.6877 28.1283 25.792 28.1283 22.2262C28.1283 18.6604 25.2193 15.7646 21.6371 15.7646Z" fill="white"/>
<path d="M14.7957 0.6875L28.0179 13.9097H14.7957V0.6875Z" fill="white"/>
<path d="M13.24 15.4653H0.0178223V28.6875H13.24V15.4653Z" fill="white"/>
</g>
<defs>
<clipPath id="clip0_315_2014">
<rect width="132" height="30" fill="white"/>
</clipPath>
</defs>
</svg>
