<svg width="180" height="200" viewBox="0 0 180 200" preserveAspectRatio="none" fill="none" xmlns="http://www.w3.org/2000/svg">
<path d="M0 10C0 4.47716 4.47715 0 10 0H180V200H10C4.47716 200 0 195.523 0 190V10Z" fill="#2F0E89"/>
<path d="M64 57C64 51.4772 68.4772 47 74 47H180V153H74C68.4772 153 64 148.523 64 143V57Z" fill="#4A1DCA"/>
<rect x="97.35" y="74.35" width="56.3" height="39.3" rx="1.65" fill="#0F0F32" stroke="#6D7CFF" stroke-width="0.7"/>
<path d="M152.75 118H100.25C98.8581 117.998 97.5237 117.448 96.5395 116.469C95.5552 115.49 95.0016 114.162 95 112.778V76.2222C95.0014 74.8376 95.555 73.5101 96.5392 72.5311C97.5235 71.552 98.858 71.0014 100.25 71H152.75C154.142 71.0016 155.476 71.5523 156.461 72.5313C157.445 73.5103 157.998 74.8377 158 76.2222V112.778C157.998 114.162 157.444 115.489 156.46 116.468C155.476 117.447 154.142 117.998 152.75 118ZM100.25 76.2222V112.778H152.75V76.2222H100.25Z" fill="#0F0F32"/>
<path d="M163 123H90V128H163V123Z" fill="#0F0F32"/>
<path d="M119 93H115C114.47 93 113.961 93.2107 113.586 93.5858C113.211 93.9609 113 94.4696 113 95V107H115V102H119V107H121V95C121 94.4696 120.789 93.9609 120.414 93.5858C120.039 93.2107 119.53 93 119 93ZM115 100V95H119V100H115Z" fill="#AEB6FF"/>
<path d="M133 95H136V105H133V107H141V105H138V95H141V93H133V95Z" fill="#AEB6FF"/>
<path d="M125 107H123V93H129C129.53 93 130.039 93.2107 130.414 93.5858C130.789 93.9609 131 94.4696 131 95V100C131 100.53 130.789 101.039 130.414 101.414C130.039 101.789 129.53 102 129 102H125V107ZM125 100H129V95H125V100Z" fill="#AEB6FF"/>
<path d="M124.318 78.7692C125.168 78.7692 125.864 79.4615 125.864 80.3077C125.864 81.1538 125.168 81.8462 124.318 81.8462C123.468 81.8462 122.773 81.1538 122.773 80.3077C122.773 79.4615 123.468 78.7692 124.318 78.7692ZM124.318 78C123.039 78 122 79.0342 122 80.3077C122 81.5812 123.039 82.6154 124.318 82.6154C125.598 82.6154 126.637 81.5812 126.637 80.3077C126.637 79.0342 125.598 78 124.318 78Z" fill="#AEB6FF"/>
<path d="M129.818 84.154C130.668 84.154 131.364 84.8463 131.364 85.6925C131.364 86.5386 130.668 87.2309 129.818 87.2309C128.968 87.2309 128.273 86.5386 128.273 85.6925C128.273 84.8463 128.968 84.154 129.818 84.154ZM129.818 83.3848C128.539 83.3848 127.5 84.419 127.5 85.6925C127.5 86.966 128.539 88.0002 129.818 88.0002C131.098 88.0002 132.137 86.966 132.137 85.6925C132.137 84.419 131.098 83.3848 129.818 83.3848Z" fill="#AEB6FF"/>
<path d="M127.5 77.5L132.5 82.5H127.5V77.5Z" fill="#AEB6FF"/>
<path d="M127 83H122V88H127V83Z" fill="#AEB6FF"/>
<path d="M88 34H87.5V34.5H88V34ZM135 34H135.5V33.5H135V34ZM134.5 43C134.5 43.2761 134.724 43.5 135 43.5C135.276 43.5 135.5 43.2761 135.5 43H134.5ZM87.5 27V34H88.5V27H87.5ZM88 34.5H135V33.5H88V34.5ZM134.5 34V43H135.5V34H134.5Z" fill="#6D7CFF"/>
<path d="M88 165.5H87.5V165H88V165.5ZM135 165.5H135.5V166H135V165.5ZM134.5 156.5C134.5 156.224 134.724 156 135 156C135.276 156 135.5 156.224 135.5 156.5H134.5ZM87.5 172.5V165.5H88.5V172.5H87.5ZM88 165H135V166H88V165ZM134.5 165.5V156.5H135.5V165.5H134.5Z" fill="#6D7CFF"/>
<path d="M51 45L51 44.5L51.5 44.5L51.5 45L51 45ZM51 92L51 92.5L50.5 92.5L50.5 92L51 92ZM60 91.5C60.2761 91.5 60.5 91.7239 60.5 92C60.5 92.2761 60.2761 92.5 60 92.5L60 91.5ZM44 44.5L51 44.5L51 45.5L44 45.5L44 44.5ZM51.5 45L51.5 92L50.5 92L50.5 45L51.5 45ZM51 91.5L60 91.5L60 92.5L51 92.5L51 91.5Z" fill="#6D7CFF"/>
<path d="M51 155.5L51 156L51.5 156L51.5 155.5L51 155.5ZM51 108.5L51 108L50.5 108L50.5 108.5L51 108.5ZM60 109C60.2761 109 60.5 108.776 60.5 108.5C60.5 108.224 60.2761 108 60 108L60 109ZM44 156L51 156L51 155L44 155L44 156ZM51.5 155.5L51.5 108.5L50.5 108.5L50.5 155.5L51.5 155.5ZM51 109L60 109L60 108L51 108L51 109Z" fill="#6D7CFF"/>
<path d="M132.5 45C132.5 43.6193 133.619 42.5 135 42.5C136.381 42.5 137.5 43.6193 137.5 45V45.5H132.5V45Z" fill="#6D7CFF"/>
<path d="M132.5 154.5C132.5 155.881 133.619 157 135 157C136.381 157 137.5 155.881 137.5 154.5V154H132.5V154.5Z" fill="#6D7CFF"/>
<path d="M62 94C60.6193 94 59.5 92.8807 59.5 91.5C59.5 90.1193 60.6193 89 62 89L62.5 89L62.5 94L62 94Z" fill="#6D7CFF"/>
<path d="M62 106C60.6193 106 59.5 107.119 59.5 108.5C59.5 109.881 60.6193 111 62 111L62.5 111L62.5 106L62 106Z" fill="#6D7CFF"/>
<g clip-path="url(#clip0_665_553)">
<path d="M34.9686 47.3571H31.8302V44.2143H30.2611V51.2857H17.7076V38.7143H24.7689V37.1429H21.6305V34H20.0613V37.1429H17.7076C16.8445 37.1429 16.1384 37.85 16.1384 38.7143V41.0714H13V42.6429H16.1384V47.3571H13V48.9286H16.1384V51.2857C16.1384 52.15 16.8445 52.8571 17.7076 52.8571H20.0613V56H21.6305V52.8571H26.3381V56H27.9073V52.8571H30.2611C31.1241 52.8571 31.8302 52.15 31.8302 51.2857V48.9286H34.9686V47.3571Z" fill="#AEB6FF"/>
<path d="M13.0314 47.3571H16.1697V44.2143H17.7389V51.2857H30.2924V38.7143H23.2311V37.1429H26.3695V34H27.9386V37.1429H30.2924C31.1555 37.1429 31.8616 37.85 31.8616 38.7143V41.0714H35V42.6429H31.8616V47.3571H35V48.9286H31.8616V51.2857C31.8616 52.15 31.1555 52.8571 30.2924 52.8571H27.9386V56H26.3695V52.8571H21.6619V56H20.0927V52.8571H17.7389C16.8759 52.8571 16.1697 52.15 16.1697 51.2857V48.9286H13.0314V47.3571Z" fill="#AEB6FF"/>
<path d="M27.9072 48.9284H20.0613V41.0713H27.9072V48.9284ZM21.6305 47.357H26.338V42.6427H21.6305V47.357Z" fill="#AEB6FF"/>
</g>
<g clip-path="url(#clip1_665_553)">
<path d="M30.2013 151.982C29.995 151.913 29.7888 151.845 29.5825 151.79C29.6169 151.652 29.6513 151.508 29.6788 151.363C30.1463 149.081 29.8438 147.245 28.7919 146.64C27.7882 146.056 26.145 146.661 24.4882 148.111C24.3232 148.256 24.165 148.4 24.0069 148.551C23.9038 148.448 23.7938 148.352 23.6838 148.256C21.9444 146.709 20.205 146.056 19.1532 146.661C18.1494 147.245 17.8538 148.971 18.2732 151.136C18.3144 151.35 18.3625 151.563 18.4175 151.776C18.1769 151.845 17.9363 151.92 17.7025 152.003C15.6675 152.718 14.3682 153.831 14.3682 154.986C14.3682 156.141 15.7638 157.379 17.8882 158.108C18.06 158.17 18.2319 158.218 18.4107 158.273C18.3557 158.5 18.3007 158.726 18.2594 158.96C17.8607 161.085 18.17 162.776 19.1738 163.353C20.205 163.951 21.9375 163.34 23.6288 161.855C23.7594 161.738 23.8969 161.614 24.0275 161.483C24.1994 161.648 24.3713 161.806 24.55 161.958C26.1863 163.367 27.8019 163.938 28.7988 163.36C29.83 162.762 30.1669 160.947 29.7338 158.747C29.6994 158.575 29.6582 158.403 29.6169 158.231C29.7407 158.197 29.8575 158.156 29.9744 158.121C32.1813 157.386 33.6182 156.203 33.6182 154.993C33.6182 153.831 32.2707 152.704 30.1944 151.989L30.2013 151.982ZM25.0244 148.73C26.4475 147.493 27.7744 147.005 28.3794 147.348C29.0257 147.72 29.2732 149.225 28.8675 151.191C28.84 151.322 28.8125 151.446 28.7782 151.576C27.9325 151.384 27.0663 151.246 26.2069 151.171C25.7119 150.456 25.1688 149.775 24.5775 149.136C24.7219 148.998 24.8663 148.861 25.0175 148.73H25.0244ZM20.0538 155.976C20.2257 156.313 20.4113 156.643 20.5969 156.973C20.7894 157.31 20.9888 157.64 21.2019 157.963C20.6038 157.901 20.0125 157.805 19.4282 157.681C19.6 157.131 19.8063 156.561 20.0538 155.976ZM20.0538 154.038C19.8132 153.467 19.6069 152.91 19.4419 152.367C19.9919 152.243 20.5763 152.14 21.1882 152.065C20.9819 152.381 20.7894 152.711 20.5969 153.034C20.4044 153.364 20.2257 153.694 20.0538 154.031V154.038ZM20.4869 155.007C20.7413 154.478 21.0163 153.962 21.305 153.453C21.5938 152.945 21.91 152.45 22.24 151.961C22.8107 151.92 23.4019 151.893 23.9932 151.893C24.5844 151.893 25.1757 151.913 25.7463 151.961C26.0694 152.443 26.3788 152.938 26.6744 153.446C26.97 153.955 27.245 154.471 27.5063 154.993C27.2519 155.523 26.97 156.045 26.6813 156.554C26.3925 157.063 26.0832 157.558 25.76 158.046C25.1894 158.087 24.5982 158.108 23.9932 158.108C23.3882 158.108 22.8107 158.087 22.2538 158.053C21.9238 157.565 21.6075 157.07 21.3119 156.554C21.0163 156.045 20.7413 155.523 20.4869 155V155.007ZM27.3894 156.966C27.5819 156.63 27.7675 156.293 27.9463 155.942C28.1938 156.492 28.4069 157.063 28.5925 157.64C28.0013 157.771 27.4032 157.874 26.7982 157.95C27.0044 157.626 27.1969 157.296 27.3894 156.966ZM27.9394 154.038C27.7607 153.701 27.575 153.364 27.3825 153.034C27.1969 152.711 27.0044 152.388 26.7982 152.071C27.41 152.147 28.0013 152.25 28.5513 152.381C28.3725 152.945 28.1663 153.495 27.9325 154.038H27.9394ZM24 149.727C24.3988 150.167 24.7769 150.621 25.1344 151.095C24.3782 151.061 23.6219 151.061 22.8588 151.095C23.23 150.6 23.615 150.14 24 149.727ZM19.5657 147.376C20.2119 147.005 21.635 147.534 23.1338 148.868C23.23 148.95 23.3263 149.04 23.4225 149.136C22.8313 149.775 22.2813 150.456 21.7863 151.171C20.92 151.246 20.0675 151.384 19.215 151.57C19.1669 151.37 19.1257 151.178 19.0844 150.978C18.72 149.122 18.9607 147.726 19.5657 147.376ZM18.6238 157.475C18.4657 157.427 18.3075 157.379 18.1494 157.324C17.2075 157.001 16.4375 156.588 15.9013 156.128C15.4269 155.722 15.1794 155.31 15.1794 154.98C15.1794 154.278 16.2244 153.378 17.9707 152.773C18.1907 152.697 18.4107 152.628 18.6307 152.566C18.8919 153.398 19.2013 154.21 19.5725 155C19.2013 155.805 18.885 156.63 18.6238 157.468V157.475ZM23.0788 161.229C22.3294 161.882 21.5869 162.35 20.9269 162.583C20.3357 162.79 19.8613 162.796 19.5794 162.631C18.9744 162.281 18.72 160.926 19.0638 159.105C19.105 158.891 19.1532 158.678 19.2082 158.465C20.0607 158.651 20.9269 158.775 21.8 158.843C22.3019 159.558 22.8588 160.246 23.45 160.892C23.3332 161.009 23.2094 161.119 23.0857 161.229H23.0788ZM24.0207 160.294C23.6288 159.875 23.2438 159.407 22.8657 158.905C23.2369 158.919 23.6082 158.926 23.9932 158.926C24.3782 158.926 24.77 158.919 25.155 158.898C24.7975 159.38 24.4263 159.847 24.0207 160.294ZM29.0119 161.442C28.895 162.061 28.6682 162.473 28.3794 162.638C27.7744 162.989 26.475 162.535 25.0794 161.325C24.9144 161.188 24.7563 161.036 24.5982 160.885C25.1825 160.239 25.7188 159.551 26.2138 158.83C27.0938 158.754 27.96 158.616 28.8194 158.424C28.8538 158.582 28.895 158.74 28.9225 158.891C29.115 159.868 29.1425 160.748 29.0119 161.435V161.442ZM29.7132 157.324C29.61 157.358 29.5 157.393 29.39 157.427C29.1219 156.588 28.7919 155.777 28.4138 154.986C28.7782 154.203 29.0944 153.398 29.3488 152.58C29.5413 152.635 29.7338 152.697 29.9194 152.759C31.7 153.371 32.7863 154.285 32.7863 154.98C32.7863 155.729 31.6107 156.691 29.7063 157.324H29.7132Z" fill="#AEB6FF"/>
<path d="M24 156.705C24.3438 156.705 24.6738 156.609 24.9625 156.416C25.2444 156.224 25.4713 155.956 25.6019 155.646C25.7325 155.33 25.7669 154.986 25.705 154.649C25.6363 154.312 25.4713 154.003 25.2375 153.762C24.9969 153.522 24.6875 153.357 24.3575 153.288C24.0207 153.219 23.6769 153.254 23.3607 153.384C23.0444 153.515 22.7763 153.735 22.5838 154.017C22.3913 154.299 22.295 154.636 22.295 154.972C22.295 155.199 22.3363 155.426 22.4257 155.632C22.5082 155.846 22.6388 156.031 22.7969 156.189C22.955 156.347 23.1475 156.478 23.3538 156.561C23.56 156.65 23.7869 156.691 24.0138 156.691L24 156.705Z" fill="#AEB6FF"/>
</g>
<path d="M96.25 174.597H79.75C78.9937 174.597 78.375 175.182 78.375 175.896V186.285C78.375 186.999 78.9937 187.583 79.75 187.583H85.25V190.181H82.5V191.479H93.5V190.181H90.75V187.583H96.25C97.0063 187.583 97.625 186.999 97.625 186.285V175.896C97.625 175.182 97.0063 174.597 96.25 174.597ZM89.375 190.181H86.625V187.583H89.375V190.181ZM96.25 186.285H79.75V175.896H96.25V186.285Z" fill="#AEB6FF"/>
<path d="M92.1257 14.563H83.8751V15.9381H92.1257V14.563Z" fill="#AEB6FF"/>
<path d="M89.3759 17.3135H83.8755V18.6886H89.3759V17.3135Z" fill="#AEB6FF"/>
<path d="M88.0004 8.3751C89.2796 8.37689 90.5184 8.82318 91.5048 9.63761C92.4913 10.452 93.164 11.584 93.4079 12.8397L93.586 13.7651L94.5134 13.9329C95.4427 14.1004 96.2758 14.6095 96.8488 15.36C97.4219 16.1105 97.6935 17.0483 97.6104 17.9889C97.5272 18.9295 97.0952 19.805 96.3994 20.4433C95.7035 21.0817 94.7941 21.4367 93.8498 21.4385H82.153C81.2085 21.4374 80.2986 21.0829 79.6021 20.4448C78.9057 19.8067 78.4732 18.9312 78.3897 17.9904C78.3061 17.0495 78.5775 16.1114 79.1506 15.3606C79.7237 14.6098 80.5569 14.1005 81.4865 13.9329L82.4138 13.7651L82.592 12.8397C82.8362 11.584 83.5091 10.4521 84.4957 9.63769C85.4822 8.82329 86.7211 8.37698 88.0004 8.3751ZM88.0004 7C86.4015 7.00175 84.8529 7.55934 83.6199 8.57728C82.387 9.59522 81.5462 11.0102 81.2418 12.5798C79.9746 12.8085 78.8388 13.503 78.0576 14.5266C77.2764 15.5503 76.9064 16.8291 77.0202 18.1117C77.134 19.3944 77.7235 20.588 78.6728 21.4581C79.622 22.3281 80.8624 22.8117 82.1501 22.8136H93.8498C95.1375 22.8117 96.3778 22.3282 97.3271 21.4581C98.2764 20.5881 98.8659 19.3944 98.9798 18.1118C99.0936 16.8292 98.7236 15.5503 97.9424 14.5266C97.1613 13.503 96.0254 12.8085 94.7582 12.5798C94.4537 11.0089 93.612 9.59284 92.3774 8.57473C91.1429 7.55661 89.5925 6.99986 87.9923 7H88.0004Z" fill="#AEB6FF"/>
<defs>
<clipPath id="clip0_665_553">
<rect width="22" height="22" fill="white" transform="translate(13 34)"/>
</clipPath>
<clipPath id="clip1_665_553">
<rect width="22" height="22" fill="white" transform="translate(13 144)"/>
</clipPath>
</defs>
</svg>
