<svg width="64" height="36" viewBox="0 0 44 26" fill="none" xmlns="http://www.w3.org/2000/svg">
<g clip-path="url(#clip0_218_5173)">
<path d="M12.2109 9.40314C12.1971 9.83674 12.2527 10.2697 12.3756 10.6858C12.5022 11.0422 12.6587 11.3872 12.8436 11.7171C12.9065 11.8159 12.9424 11.9295 12.9476 12.0465C12.9385 12.1342 12.9085 12.2185 12.8603 12.2924C12.8121 12.3662 12.7469 12.4275 12.6702 12.4711L11.8036 13.0778C11.6914 13.1566 11.5591 13.2017 11.4222 13.2078C11.3417 13.2049 11.2625 13.1858 11.1895 13.1515C11.1166 13.1173 11.0513 13.0686 10.9976 13.0085C10.7963 12.8093 10.6215 12.585 10.4776 12.3411C10.3331 12.0985 10.1858 11.8096 10.0356 11.4745C9.528 12.108 8.88222 12.6169 8.14766 12.9624C7.4131 13.3079 6.60923 13.4808 5.79758 13.4678C5.27343 13.4965 4.74883 13.4201 4.25467 13.243C3.76052 13.0658 3.3068 12.7916 2.92025 12.4365C2.56214 12.0722 2.28333 11.6378 2.10136 11.1605C1.91939 10.6832 1.83821 10.1734 1.86291 9.66314C1.83994 9.10861 1.9417 8.55598 2.16069 8.046C2.37968 7.53602 2.71032 7.08168 3.12825 6.71647C4.13175 5.92622 5.38884 5.52876 6.66425 5.59847C7.17471 5.59996 7.68443 5.63761 8.18958 5.71114C8.72113 5.78625 9.27291 5.89025 9.84491 6.02314V4.96581C9.92908 4.1372 9.68305 3.30882 9.16025 2.66047C8.49137 2.14612 7.65098 1.90733 6.81158 1.99314C6.28879 1.99579 5.76812 2.05978 5.26025 2.18381C4.73172 2.31019 4.21321 2.47531 3.70891 2.67781C3.54589 2.75272 3.37794 2.81643 3.20625 2.86847H2.98091C2.77869 2.86847 2.67758 2.71825 2.67758 2.41781V1.73314C2.66519 1.5592 2.70118 1.38522 2.78158 1.23047C2.8902 1.09726 3.03015 0.993037 3.18891 0.927142C3.76894 0.649268 4.37588 0.431468 5.00025 0.277142C5.73349 0.0888722 6.4879 -0.00433637 7.24491 -0.000191582C8.60651 -0.120866 9.96087 0.299453 11.0149 1.16981C11.4434 1.64918 11.7703 2.21043 11.9759 2.81967C12.1815 3.4289 12.2614 4.07348 12.2109 4.71447V9.40314ZM6.36091 11.5958C6.86915 11.5884 7.37274 11.4976 7.85158 11.3271C8.37942 11.1443 8.84906 10.8242 9.21225 10.3998C9.436 10.1503 9.60175 9.85431 9.69758 9.53314C9.79736 9.12485 9.84397 8.70538 9.83625 8.28514V7.67847C9.39896 7.57367 8.95631 7.49267 8.51025 7.43581C8.06186 7.37844 7.61029 7.3495 7.15825 7.34914C6.39929 7.29222 5.64375 7.49717 5.01758 7.92981C4.79142 8.12933 4.61261 8.37679 4.49416 8.65415C4.37572 8.93151 4.32064 9.2318 4.33291 9.53314C4.31242 9.81 4.34875 10.0881 4.43966 10.3504C4.53058 10.6127 4.67415 10.8537 4.86158 11.0585C5.06394 11.2421 5.30051 11.3841 5.55778 11.4763C5.81504 11.5685 6.08795 11.6091 6.36091 11.5958ZM17.9309 13.1558C17.7357 13.1737 17.5401 13.1248 17.3762 13.0171C17.2228 12.8626 17.1175 12.667 17.0729 12.4538L13.7016 1.30848C13.6362 1.12053 13.5925 0.925701 13.5716 0.727808C13.5642 0.679457 13.5684 0.630056 13.5836 0.583591C13.5989 0.537126 13.6248 0.494898 13.6594 0.460316C13.694 0.425734 13.7362 0.399766 13.7827 0.384508C13.8292 0.369249 13.8786 0.365127 13.9269 0.372475H15.3396C15.5377 0.352609 15.7366 0.401576 15.9029 0.511142C16.0463 0.67037 16.145 0.864737 16.1889 1.07448L18.6069 10.6078L20.8516 1.07448C20.8862 0.864118 20.9863 0.670034 21.1376 0.519808C21.3113 0.412611 21.5148 0.364005 21.7182 0.381142H22.8796C23.083 0.364005 23.2865 0.412611 23.4602 0.519808C23.61 0.673513 23.7071 0.87075 23.7376 1.08314L25.9996 10.7378L28.4956 1.08314C28.5416 0.872366 28.6434 0.677813 28.7902 0.519808C28.9565 0.410243 29.1554 0.361276 29.3536 0.381142H30.6882C30.7366 0.373794 30.786 0.377916 30.8325 0.393174C30.8789 0.408433 30.9212 0.434401 30.9557 0.468983C30.9903 0.503565 31.0163 0.545792 31.0315 0.592257C31.0468 0.638722 31.0509 0.688124 31.0436 0.736475C31.0508 0.811414 31.0508 0.88687 31.0436 0.961808C31.0159 1.08219 30.9812 1.20084 30.9396 1.31714L27.4729 12.4625C27.4284 12.6756 27.323 12.8713 27.1696 13.0258C27.0057 13.1334 26.8102 13.1823 26.6149 13.1645H25.3496C25.1447 13.1859 24.9388 13.1337 24.7689 13.0171C24.6202 12.8558 24.5236 12.6535 24.4916 12.4365L22.2469 3.15447L20.0282 12.4278C19.9962 12.6448 19.8996 12.8472 19.7509 13.0085C19.581 13.125 19.3752 13.1773 19.1702 13.1558H17.9309ZM36.4429 13.5371C35.6962 13.5384 34.9518 13.454 34.2242 13.2858C33.6456 13.1693 33.0857 12.9739 32.5602 12.7051C32.4022 12.6382 32.2676 12.5259 32.1735 12.3824C32.0794 12.2389 32.03 12.0707 32.0316 11.8991V11.1711C32.0316 10.8707 32.1414 10.7205 32.3609 10.7205C32.4528 10.7218 32.5438 10.7394 32.6296 10.7725L32.9936 10.9198C33.5023 11.1449 34.0341 11.3135 34.5796 11.4225C35.1499 11.5396 35.7307 11.5977 36.3129 11.5958C37.0459 11.6392 37.7761 11.474 38.4189 11.1191C38.6535 10.9797 38.8464 10.78 38.9775 10.5406C39.1086 10.3013 39.1731 10.0312 39.1642 9.75848C39.1692 9.57341 39.1372 9.38921 39.0703 9.21661C39.0033 9.04401 38.9027 8.88646 38.7742 8.75314C38.3368 8.38654 37.8208 8.12558 37.2662 7.99048L35.1776 7.33181C34.2981 7.08743 33.5146 6.57926 32.9329 5.87581C32.4683 5.27852 32.2153 4.54383 32.2136 3.78714C32.2015 3.22783 32.3359 2.67508 32.6036 2.18381C32.8626 1.72168 33.2136 1.31758 33.6349 0.996475C34.0767 0.660586 34.5759 0.408015 35.1082 0.251142C35.6969 0.081272 36.3069 -0.00336592 36.9196 -0.000191582C37.2441 -0.000477413 37.5683 0.0197854 37.8902 0.0604751C38.2196 0.10092 38.5316 0.155808 38.8262 0.225142C39.1209 0.294475 39.3954 0.369586 39.6496 0.450475C39.8588 0.51611 40.0619 0.600219 40.2562 0.701808C40.4204 0.790299 40.5649 0.911184 40.6809 1.05714C40.7725 1.19874 40.818 1.36529 40.8109 1.53381V2.21847C40.8109 2.51892 40.7011 2.66914 40.4816 2.66914C40.2873 2.64744 40.099 2.5886 39.9269 2.49581C39.0524 2.11592 38.1069 1.92683 37.1536 1.94114C36.4905 1.90667 35.8299 2.04714 35.2382 2.34847C35.0166 2.47795 34.8352 2.66641 34.7143 2.89288C34.5934 3.11934 34.5378 3.37492 34.5536 3.63114C34.5493 3.82178 34.5848 4.01121 34.6579 4.18732C34.7311 4.36342 34.8402 4.52231 34.9782 4.65381C35.4454 5.02747 35.9857 5.29909 36.5642 5.45114L38.6096 6.06647C39.4757 6.29159 40.2527 6.7753 40.8369 7.45314C41.2951 8.0479 41.5339 8.78264 41.5129 9.53314C41.5206 10.1131 41.3898 10.6865 41.1316 11.2058C40.8792 11.7019 40.5213 12.1368 40.0829 12.4798C39.6051 12.8488 39.0608 13.1225 38.4796 13.2858C37.8163 13.4671 37.1304 13.5517 36.4429 13.5371Z" fill="#CBCBD7"/>
<path fill-rule="evenodd" clip-rule="evenodd" d="M39.1647 20.6355C34.424 24.1369 27.5427 26.0002 21.6667 26.0002C13.7388 26.0524 6.07814 23.1372 0.190693 17.8275C-0.251307 17.4289 0.138693 16.8829 0.676026 17.1862C7.20717 20.9222 14.6018 22.8852 22.126 22.8802C27.745 22.85 33.3027 21.7102 38.48 19.5262C39.2774 19.1882 39.9534 20.0549 39.1647 20.6355Z" fill="#CBCBD7"/>
<path fill-rule="evenodd" clip-rule="evenodd" d="M41.1403 18.3818C40.5337 17.6018 37.1277 18.0178 35.6023 18.1998C35.143 18.2518 35.065 17.8531 35.481 17.5585C38.1937 15.6518 42.6483 16.1978 43.1597 16.8391C43.671 17.4805 43.021 21.9438 40.4817 24.0758C40.0917 24.4051 39.719 24.2318 39.8923 23.7985C40.4643 22.3598 41.747 19.1618 41.1403 18.3818Z" fill="#CBCBD7"/>
<path fill-rule="evenodd" clip-rule="evenodd" d="M39.1647 20.6355C34.424 24.1369 27.5427 26.0002 21.6667 26.0002C13.7388 26.0524 6.07814 23.1372 0.190693 17.8275C-0.251307 17.4289 0.138693 16.8829 0.676026 17.1862C7.20717 20.9222 14.6018 22.8852 22.126 22.8802C27.745 22.85 33.3027 21.7102 38.48 19.5262C39.2774 19.1882 39.9534 20.0549 39.1647 20.6355Z" fill="#CBCBD7"/>
<path fill-rule="evenodd" clip-rule="evenodd" d="M41.1403 18.3818C40.5337 17.6018 37.1277 18.0178 35.6023 18.1998C35.143 18.2518 35.065 17.8531 35.481 17.5585C38.1937 15.6518 42.6483 16.1978 43.1597 16.8391C43.671 17.4805 43.021 21.9438 40.4817 24.0758C40.0917 24.4051 39.719 24.2318 39.8923 23.7985C40.4643 22.3598 41.747 19.1618 41.1403 18.3818Z" fill="#CBCBD7"/>
</g>
<defs>
<clipPath id="clip0_218_5173">
<rect width="43.3333" height="26" fill="white"/>
</clipPath>
</defs>
</svg>
