<svg width="91" height="26" viewBox="0 0 91 26" fill="none" xmlns="http://www.w3.org/2000/svg">
<g clip-path="url(#clip0_218_5194)">
<path d="M15.8292 23.6125C20.1418 22.8506 23.7038 22.2202 23.7447 22.2115L23.8191 22.1958L19.7475 17.3528C17.5082 14.6891 15.676 12.4994 15.676 12.4868C15.676 12.4629 19.8802 0.885346 19.9038 0.844157C19.9118 0.830386 22.7729 5.77002 26.8394 12.8182C30.6465 19.4167 33.7853 24.8573 33.8145 24.9083L33.8675 25.001L20.9278 24.9993L7.98798 24.9976L15.8292 23.6125ZM65.4517 22.4412C63.482 22.3149 62.3364 21.1934 62.0328 19.094C61.9521 18.5355 61.9518 18.521 61.9435 14.8955L61.9355 11.3866H62.8072H63.679L63.6858 14.7806C63.692 17.8396 63.6959 18.1982 63.7252 18.4134C63.8438 19.2867 64.0801 19.874 64.4824 20.2956C64.8044 20.6329 65.1813 20.8305 65.703 20.9353C65.9492 20.9847 66.6494 20.9848 66.8738 20.9355C67.4027 20.8191 67.8266 20.5889 68.2006 20.2151C68.6269 19.789 68.9422 19.1844 69.0948 18.5008L69.1462 18.2704L69.1519 14.8477L69.1577 11.4249H70.0476H70.9376V16.8056V22.1862H70.0568H69.176V21.3325C69.176 20.7525 69.1696 20.481 69.1562 20.4855C69.1453 20.4891 69.1 20.5583 69.0556 20.6393C68.7521 21.1928 68.2464 21.6991 67.6922 22.004C67.028 22.3696 66.3618 22.4996 65.4517 22.4412ZM85.4442 22.4325C84.7489 22.3803 84.0168 22.1412 83.4184 21.7711C82.1572 20.9909 81.4109 19.705 81.1924 17.9353C81.1168 17.3229 81.1077 16.5003 81.1708 15.98C81.3118 14.8173 81.7687 13.6759 82.4193 12.861C82.5861 12.6521 82.9644 12.2738 83.1733 12.107C83.7374 11.6566 84.3972 11.3417 85.0977 11.1884C85.5059 11.0991 86.2246 11.0572 86.6583 11.0974C87.7476 11.1984 88.746 11.7113 89.4246 12.5185C90.1141 13.3387 90.493 14.4848 90.5414 15.896C90.549 16.1172 90.5508 16.5049 90.5455 16.7577L90.5358 17.2172L86.7205 17.2221L82.9052 17.2269V17.3972C82.9052 17.9155 83.0313 18.5058 83.2491 19.008C83.437 19.4412 83.7603 19.9141 84.0251 20.143C84.568 20.6123 85.2324 20.8932 85.9594 20.9608C86.229 20.9859 86.916 20.9595 87.2232 20.9123C88.0996 20.7776 88.9329 20.4338 89.6058 19.9293C89.685 19.87 89.7607 19.8145 89.7742 19.8061C89.7938 19.7937 89.7985 19.9488 89.798 20.6007L89.7974 21.4107L89.6171 21.5222C88.8558 21.993 87.9837 22.2953 87.0604 22.4085C86.7849 22.4423 85.7737 22.4573 85.4442 22.4325ZM88.7646 15.6012C88.7646 14.7331 88.3987 13.7686 87.881 13.272C87.5115 12.9176 87.0648 12.701 86.5338 12.6187C86.2826 12.5798 85.7531 12.5948 85.4883 12.6483C84.9284 12.7615 84.4653 13.0076 84.0613 13.4067C83.6362 13.8268 83.3175 14.337 83.1171 14.9183C83.045 15.1274 82.9607 15.4706 82.9345 15.6614L82.922 15.7524H85.8433H88.7646V15.6012ZM37.0111 22.1623C37.0155 22.1491 38.3111 18.7455 39.8901 14.5988L42.7611 7.05925L43.6835 7.05919L44.606 7.05913L44.6825 7.2554C44.9164 7.85519 50.4299 22.1698 50.4299 22.1773C50.4299 22.1822 49.9883 22.1861 49.4486 22.1861L48.4672 22.1858L47.6726 20.0702L46.8779 17.9545L43.6783 17.9544L40.4787 17.9544L40.4509 18.0262C40.4356 18.0657 40.0961 19.0177 39.6964 20.1417L38.9697 22.1855L37.9863 22.1858C37.208 22.1861 37.0046 22.1812 37.0111 22.1623ZM46.2939 16.3399C46.2939 16.3365 45.7592 14.8868 45.1055 13.1182C43.8828 9.80952 43.8144 9.61044 43.7177 9.07925C43.6724 8.83017 43.6495 8.82325 43.6226 9.05053C43.6034 9.21299 43.5201 9.57652 43.4558 9.77816C43.4239 9.87821 42.8733 11.3895 42.2322 13.1367C41.591 14.8838 41.0665 16.3206 41.0665 16.3296C41.0665 16.3386 42.2426 16.346 43.6802 16.346C45.1177 16.346 46.2939 16.3433 46.2939 16.3399ZM51.0235 21.9106V21.6351L54.2113 17.2528L57.3991 12.8706L54.5129 12.861L51.6267 12.8514L51.6217 12.119L51.6167 11.3866H55.7912H59.9657V11.634V11.8814L56.7775 16.2875C55.0241 18.7109 53.5894 20.6977 53.5894 20.7027C53.5894 20.7077 55.0068 20.7118 56.7393 20.7118H59.8891V21.449V22.1862H55.4563H51.0235V21.9106ZM74.4162 22.1734C74.4092 22.1664 74.4034 19.7365 74.4034 16.7736V11.3866H75.2747H76.1459V12.4972C76.1459 13.108 76.1534 13.6078 76.1624 13.6078C76.1715 13.6078 76.2139 13.5078 76.2567 13.3856C76.4526 12.8256 76.7923 12.3024 77.2299 11.8865C77.6242 11.5119 78.0748 11.2878 78.6065 11.2021C78.7558 11.178 78.8822 11.1734 79.1809 11.1812C79.5561 11.191 79.7522 11.2184 79.9804 11.293L80.0522 11.3164V12.2208V13.1251L79.8463 13.0221C79.4827 12.8401 79.1239 12.768 78.6926 12.7905C78.412 12.8051 78.2277 12.8411 78.0033 12.9253C77.5416 13.0986 77.1671 13.4045 76.9054 13.822C76.5265 14.4264 76.2563 15.2033 76.1766 15.9173C76.1623 16.0455 76.1539 17.0891 76.1505 19.1464L76.1456 22.1862H75.2873C74.8152 22.1862 74.4232 22.1804 74.4162 22.1734ZM0.299988 22.1356C0.299988 22.1288 2.21849 18.7984 4.56333 14.7348L8.82666 7.34634L13.7951 3.17682C16.5277 0.883584 18.7709 -0.995502 18.7799 -0.998929C18.7889 -1.00236 18.7529 -0.911881 18.7 -0.797873C18.6471 -0.683866 16.2193 4.52342 13.305 10.7739L8.0062 22.1383L4.15309 22.1432C2.03389 22.1458 0.299988 22.1424 0.299988 22.1356Z" fill="#CBCBD7"/>
</g>
<defs>
<clipPath id="clip0_218_5194">
<rect width="90.2486" height="26" fill="white" transform="translate(0.299377)"/>
</clipPath>
</defs>
</svg>
