<svg viewBox="0 0 502 388" fill="none" xmlns="http://www.w3.org/2000/svg">
<line x1="178.422" y1="185.5" x2="114.916" y2="185.5" stroke="#AEB6FF" stroke-dasharray="5 5"/>
<path d="M225.799 261L225.799 235" stroke="#AEB6FF" stroke-dasharray="5 5"/>
<path d="M226.303 147L226.303 111" stroke="#AEB6FF" stroke-dasharray="5 5"/>
<path d="M226.303 106L223.248 111.25L229.359 111.25L226.303 106Z" fill="#AEB6FF"/>
<path d="M226.303 266L223.248 260.75L229.359 260.75L226.303 266Z" fill="#AEB6FF"/>
<path d="M183.462 185.5L178.17 188.531L178.17 182.469L183.462 185.5Z" fill="#AEB6FF"/>
<path d="M299.153 218.648L293.142 219.739L295.194 214.03L299.153 218.648Z" fill="#AEB6FF"/>
<path d="M299.153 151.297L293.142 150.205L295.194 155.915L299.153 151.297Z" fill="#AEB6FF"/>
<path d="M259.969 165.002L294.178 153.012" stroke="#AEB6FF" stroke-dasharray="5 5"/>
<path d="M259.969 204.544L294.178 216.534" stroke="#AEB6FF" stroke-dasharray="5 5"/>
<path d="M230.715 26.1951C185.4 24.004 143.997 40.41 113.544 68.3589C109.525 72.0462 110.226 78.5124 114.973 81.2378L167.868 111.485C170.43 112.954 173.613 112.927 176.122 111.378C191.227 101.999 209.407 97.0559 228.854 98.3919C272.038 101.358 307.023 136.013 310.044 178.792C313.604 229.559 273.09 271.83 222.596 271.83C205.037 271.83 188.691 266.726 174.989 257.909C172.453 256.279 169.216 256.226 166.627 257.722L113.948 287.862C109.309 290.507 108.446 296.893 112.33 300.554C141.083 327.487 179.871 344 222.569 344C313.766 344 387.187 268.65 382.871 177.376C379.041 96.1474 312.66 30.203 230.715 26.1951Z" fill="#4A1DCA"/>
<path d="M185.55 227.144C184.702 227.144 183.974 226.964 183.366 226.604C182.758 226.236 182.29 225.728 181.962 225.08C181.634 224.424 181.47 223.668 181.47 222.812C181.47 221.956 181.634 221.2 181.962 220.544C182.29 219.888 182.758 219.376 183.366 219.008C183.974 218.64 184.702 218.456 185.55 218.456C186.558 218.456 187.382 218.708 188.022 219.212C188.67 219.708 189.074 220.408 189.234 221.312H187.542C187.438 220.856 187.214 220.5 186.87 220.244C186.534 219.98 186.086 219.848 185.526 219.848C184.75 219.848 184.142 220.112 183.702 220.64C183.262 221.168 183.042 221.892 183.042 222.812C183.042 223.732 183.262 224.456 183.702 224.984C184.142 225.504 184.75 225.764 185.526 225.764C186.086 225.764 186.534 225.644 186.87 225.404C187.214 225.156 187.438 224.816 187.542 224.384H189.234C189.074 225.248 188.67 225.924 188.022 226.412C187.382 226.9 186.558 227.144 185.55 227.144ZM194.529 227.144C193.689 227.144 192.953 226.96 192.321 226.592C191.697 226.224 191.205 225.716 190.845 225.068C190.493 224.412 190.317 223.656 190.317 222.8C190.317 221.944 190.493 221.192 190.845 220.544C191.205 219.888 191.697 219.376 192.321 219.008C192.953 218.64 193.689 218.456 194.529 218.456C195.361 218.456 196.093 218.64 196.725 219.008C197.357 219.376 197.849 219.888 198.201 220.544C198.553 221.192 198.729 221.944 198.729 222.8C198.729 223.656 198.553 224.412 198.201 225.068C197.849 225.716 197.357 226.224 196.725 226.592C196.093 226.96 195.361 227.144 194.529 227.144ZM194.529 225.764C195.329 225.764 195.965 225.5 196.437 224.972C196.917 224.444 197.157 223.72 197.157 222.8C197.157 221.88 196.917 221.156 196.437 220.628C195.965 220.1 195.329 219.836 194.529 219.836C193.729 219.836 193.089 220.1 192.609 220.628C192.129 221.156 191.889 221.88 191.889 222.8C191.889 223.72 192.129 224.444 192.609 224.972C193.089 225.5 193.729 225.764 194.529 225.764ZM204.022 227.144C203.182 227.144 202.446 226.96 201.814 226.592C201.19 226.224 200.698 225.716 200.338 225.068C199.986 224.412 199.81 223.656 199.81 222.8C199.81 221.944 199.986 221.192 200.338 220.544C200.698 219.888 201.19 219.376 201.814 219.008C202.446 218.64 203.182 218.456 204.022 218.456C204.854 218.456 205.586 218.64 206.218 219.008C206.85 219.376 207.342 219.888 207.694 220.544C208.046 221.192 208.222 221.944 208.222 222.8C208.222 223.656 208.046 224.412 207.694 225.068C207.342 225.716 206.85 226.224 206.218 226.592C205.586 226.96 204.854 227.144 204.022 227.144ZM204.022 225.764C204.822 225.764 205.458 225.5 205.93 224.972C206.41 224.444 206.65 223.72 206.65 222.8C206.65 221.88 206.41 221.156 205.93 220.628C205.458 220.1 204.822 219.836 204.022 219.836C203.222 219.836 202.582 220.1 202.102 220.628C201.622 221.156 201.382 221.88 201.382 222.8C201.382 223.72 201.622 224.444 202.102 224.972C202.582 225.5 203.222 225.764 204.022 225.764ZM209.578 227V218.6H212.662C213.334 218.6 213.886 218.716 214.318 218.948C214.758 219.172 215.086 219.48 215.302 219.872C215.518 220.256 215.626 220.684 215.626 221.156C215.626 221.668 215.49 222.136 215.218 222.56C214.954 222.984 214.538 223.292 213.97 223.484L215.71 227H213.946L212.386 223.688H211.114V227H209.578ZM211.114 222.56H212.566C213.078 222.56 213.454 222.436 213.694 222.188C213.934 221.94 214.054 221.612 214.054 221.204C214.054 220.804 213.934 220.484 213.694 220.244C213.462 220.004 213.082 219.884 212.554 219.884H211.114V222.56ZM217.054 227V218.6H219.922C220.906 218.6 221.714 218.776 222.346 219.128C222.986 219.472 223.458 219.96 223.762 220.592C224.074 221.216 224.23 221.952 224.23 222.8C224.23 223.648 224.074 224.388 223.762 225.02C223.458 225.644 222.986 226.132 222.346 226.484C221.714 226.828 220.906 227 219.922 227H217.054ZM218.59 225.68H219.85C220.554 225.68 221.11 225.568 221.518 225.344C221.926 225.112 222.218 224.784 222.394 224.36C222.57 223.928 222.658 223.408 222.658 222.8C222.658 222.2 222.57 221.684 222.394 221.252C222.218 220.82 221.926 220.488 221.518 220.256C221.11 220.024 220.554 219.908 219.85 219.908H218.59V225.68ZM225.586 227V218.6H227.122V227H225.586ZM228.75 227V218.6H230.286L234.234 224.516V218.6H235.77V227H234.234L230.286 221.096V227H228.75ZM236.858 227L239.93 218.6H241.658L244.73 227H243.098L242.426 225.056H239.15L238.466 227H236.858ZM239.57 223.856H242.006L240.782 220.364L239.57 223.856ZM246.878 227V219.836H244.43V218.6H250.874V219.836H248.414V227H246.878ZM252.011 227V218.6H257.495V219.836H253.547V222.14H257.135V223.34H253.547V225.764H257.495V227H252.011Z" fill="#AEB6FF"/>
<path d="M388.98 244V235.6H389.988V243.196H393.9V244H388.98ZM397.205 244.144C396.709 244.144 396.297 244.06 395.969 243.892C395.641 243.724 395.397 243.5 395.237 243.22C395.077 242.94 394.997 242.636 394.997 242.308C394.997 241.7 395.229 241.232 395.693 240.904C396.157 240.576 396.789 240.412 397.589 240.412H399.197V240.34C399.197 239.82 399.061 239.428 398.789 239.164C398.517 238.892 398.153 238.756 397.697 238.756C397.305 238.756 396.965 238.856 396.677 239.056C396.397 239.248 396.221 239.532 396.149 239.908H395.117C395.157 239.476 395.301 239.112 395.549 238.816C395.805 238.52 396.121 238.296 396.497 238.144C396.873 237.984 397.273 237.904 397.697 237.904C398.529 237.904 399.153 238.128 399.569 238.576C399.993 239.016 400.205 239.604 400.205 240.34V244H399.305L399.245 242.932C399.077 243.268 398.829 243.556 398.501 243.796C398.181 244.028 397.749 244.144 397.205 244.144ZM397.361 243.292C397.745 243.292 398.073 243.192 398.345 242.992C398.625 242.792 398.837 242.532 398.981 242.212C399.125 241.892 399.197 241.556 399.197 241.204V241.192H397.673C397.081 241.192 396.661 241.296 396.413 241.504C396.173 241.704 396.053 241.956 396.053 242.26C396.053 242.572 396.165 242.824 396.389 243.016C396.621 243.2 396.945 243.292 397.361 243.292ZM401.717 246.64V238.048H402.629L402.725 239.032C402.917 238.744 403.189 238.484 403.541 238.252C403.901 238.02 404.357 237.904 404.909 237.904C405.501 237.904 406.017 238.04 406.457 238.312C406.897 238.584 407.237 238.956 407.477 239.428C407.725 239.9 407.849 240.436 407.849 241.036C407.849 241.636 407.725 242.172 407.477 242.644C407.237 243.108 406.893 243.476 406.445 243.748C406.005 244.012 405.489 244.144 404.897 244.144C404.409 244.144 403.973 244.044 403.589 243.844C403.213 243.644 402.925 243.364 402.725 243.004V246.64H401.717ZM404.789 243.268C405.189 243.268 405.541 243.176 405.845 242.992C406.149 242.8 406.389 242.536 406.565 242.2C406.741 241.864 406.829 241.472 406.829 241.024C406.829 240.576 406.741 240.184 406.565 239.848C406.389 239.512 406.149 239.252 405.845 239.068C405.541 238.876 405.189 238.78 404.789 238.78C404.389 238.78 404.037 238.876 403.733 239.068C403.429 239.252 403.189 239.512 403.013 239.848C402.837 240.184 402.749 240.576 402.749 241.024C402.749 241.472 402.837 241.864 403.013 242.2C403.189 242.536 403.429 242.8 403.733 242.992C404.037 243.176 404.389 243.268 404.789 243.268ZM411.37 244C410.826 244 410.398 243.868 410.086 243.604C409.774 243.34 409.618 242.864 409.618 242.176V238.9H408.586V238.048H409.618L409.75 236.62H410.626V238.048H412.378V238.9H410.626V242.176C410.626 242.552 410.702 242.808 410.854 242.944C411.006 243.072 411.274 243.136 411.658 243.136H412.282V244H411.37ZM416.207 244.144C415.647 244.144 415.143 244.016 414.695 243.76C414.247 243.504 413.891 243.144 413.627 242.68C413.371 242.208 413.243 241.656 413.243 241.024C413.243 240.392 413.375 239.844 413.639 239.38C413.903 238.908 414.259 238.544 414.707 238.288C415.163 238.032 415.671 237.904 416.231 237.904C416.791 237.904 417.295 238.032 417.743 238.288C418.191 238.544 418.543 238.908 418.799 239.38C419.063 239.844 419.195 240.392 419.195 241.024C419.195 241.656 419.063 242.208 418.799 242.68C418.535 243.144 418.175 243.504 417.719 243.76C417.271 244.016 416.767 244.144 416.207 244.144ZM416.207 243.28C416.551 243.28 416.871 243.196 417.167 243.028C417.463 242.86 417.703 242.608 417.887 242.272C418.071 241.936 418.163 241.52 418.163 241.024C418.163 240.528 418.071 240.112 417.887 239.776C417.711 239.44 417.475 239.188 417.179 239.02C416.883 238.852 416.567 238.768 416.231 238.768C415.887 238.768 415.567 238.852 415.271 239.02C414.975 239.188 414.735 239.44 414.551 239.776C414.367 240.112 414.275 240.528 414.275 241.024C414.275 241.52 414.367 241.936 414.551 242.272C414.735 242.608 414.971 242.86 415.259 243.028C415.555 243.196 415.871 243.28 416.207 243.28ZM420.596 246.64V238.048H421.508L421.604 239.032C421.796 238.744 422.068 238.484 422.42 238.252C422.78 238.02 423.236 237.904 423.788 237.904C424.38 237.904 424.896 238.04 425.336 238.312C425.776 238.584 426.116 238.956 426.356 239.428C426.604 239.9 426.728 240.436 426.728 241.036C426.728 241.636 426.604 242.172 426.356 242.644C426.116 243.108 425.772 243.476 425.324 243.748C424.884 244.012 424.368 244.144 423.776 244.144C423.288 244.144 422.852 244.044 422.468 243.844C422.092 243.644 421.804 243.364 421.604 243.004V246.64H420.596ZM423.668 243.268C424.068 243.268 424.42 243.176 424.724 242.992C425.028 242.8 425.268 242.536 425.444 242.2C425.62 241.864 425.708 241.472 425.708 241.024C425.708 240.576 425.62 240.184 425.444 239.848C425.268 239.512 425.028 239.252 424.724 239.068C424.42 238.876 424.068 238.78 423.668 238.78C423.268 238.78 422.916 238.876 422.612 239.068C422.308 239.252 422.068 239.512 421.892 239.848C421.716 240.184 421.628 240.576 421.628 241.024C421.628 241.472 421.716 241.864 421.892 242.2C422.068 242.536 422.308 242.8 422.612 242.992C422.916 243.176 423.268 243.268 423.668 243.268Z" fill="#E5E7F3"/>
<path d="M195.469 364V355.6H196.477V359.308H200.833V355.6H201.841V364H200.833V360.136H196.477V364H195.469ZM203.613 364V355.6H206.373C207.029 355.6 207.569 355.708 207.993 355.924C208.417 356.14 208.729 356.432 208.929 356.8C209.137 357.168 209.241 357.584 209.241 358.048C209.241 358.504 209.141 358.916 208.941 359.284C208.741 359.652 208.429 359.948 208.005 360.172C207.581 360.388 207.037 360.496 206.373 360.496H204.621V364H203.613ZM204.621 359.644H206.349C207.021 359.644 207.497 359.504 207.777 359.224C208.065 358.936 208.209 358.544 208.209 358.048C208.209 357.544 208.065 357.152 207.777 356.872C207.497 356.584 207.021 356.44 206.349 356.44H204.621V359.644ZM214.247 364.144C213.423 364.144 212.711 363.964 212.111 363.604C211.519 363.236 211.059 362.728 210.731 362.08C210.403 361.424 210.239 360.664 210.239 359.8C210.239 358.944 210.403 358.192 210.731 357.544C211.059 356.888 211.519 356.376 212.111 356.008C212.711 355.64 213.423 355.456 214.247 355.456C215.207 355.456 215.987 355.688 216.587 356.152C217.195 356.608 217.583 357.248 217.751 358.072H216.635C216.507 357.552 216.243 357.136 215.843 356.824C215.451 356.504 214.919 356.344 214.247 356.344C213.647 356.344 213.123 356.484 212.675 356.764C212.227 357.036 211.879 357.432 211.631 357.952C211.391 358.464 211.271 359.08 211.271 359.8C211.271 360.52 211.391 361.14 211.631 361.66C211.879 362.172 212.227 362.568 212.675 362.848C213.123 363.12 213.647 363.256 214.247 363.256C214.919 363.256 215.451 363.104 215.843 362.8C216.243 362.488 216.507 362.076 216.635 361.564H217.751C217.583 362.372 217.195 363.004 216.587 363.46C215.987 363.916 215.207 364.144 214.247 364.144ZM226.059 364.144C225.235 364.144 224.523 363.964 223.923 363.604C223.331 363.236 222.871 362.728 222.543 362.08C222.215 361.424 222.051 360.664 222.051 359.8C222.051 358.944 222.215 358.192 222.543 357.544C222.871 356.888 223.331 356.376 223.923 356.008C224.523 355.64 225.235 355.456 226.059 355.456C227.019 355.456 227.799 355.688 228.399 356.152C229.007 356.608 229.395 357.248 229.563 358.072H228.447C228.319 357.552 228.055 357.136 227.655 356.824C227.263 356.504 226.731 356.344 226.059 356.344C225.459 356.344 224.935 356.484 224.487 356.764C224.039 357.036 223.691 357.432 223.443 357.952C223.203 358.464 223.083 359.08 223.083 359.8C223.083 360.52 223.203 361.14 223.443 361.66C223.691 362.172 224.039 362.568 224.487 362.848C224.935 363.12 225.459 363.256 226.059 363.256C226.731 363.256 227.263 363.104 227.655 362.8C228.055 362.488 228.319 362.076 228.447 361.564H229.563C229.395 362.372 229.007 363.004 228.399 363.46C227.799 363.916 227.019 364.144 226.059 364.144ZM230.952 364V355.36H231.96V364H230.952ZM235.784 364.144C235.08 364.144 234.52 363.932 234.104 363.508C233.688 363.076 233.48 362.416 233.48 361.528V358.048H234.488V361.42C234.488 362.66 234.996 363.28 236.012 363.28C236.532 363.28 236.96 363.096 237.296 362.728C237.64 362.352 237.812 361.82 237.812 361.132V358.048H238.82V364H237.908L237.836 362.932C237.652 363.308 237.376 363.604 237.008 363.82C236.648 364.036 236.24 364.144 235.784 364.144ZM242.759 364.144C242.047 364.144 241.455 363.964 240.983 363.604C240.511 363.244 240.235 362.756 240.155 362.14H241.187C241.251 362.452 241.415 362.724 241.679 362.956C241.951 363.18 242.315 363.292 242.771 363.292C243.195 363.292 243.507 363.204 243.707 363.028C243.907 362.844 244.007 362.628 244.007 362.38C244.007 362.02 243.875 361.78 243.611 361.66C243.355 361.54 242.991 361.432 242.519 361.336C242.199 361.272 241.879 361.18 241.559 361.06C241.239 360.94 240.971 360.772 240.755 360.556C240.539 360.332 240.431 360.04 240.431 359.68C240.431 359.16 240.623 358.736 241.007 358.408C241.399 358.072 241.927 357.904 242.591 357.904C243.223 357.904 243.739 358.064 244.139 358.384C244.547 358.696 244.783 359.144 244.847 359.728H243.851C243.811 359.424 243.679 359.188 243.455 359.02C243.239 358.844 242.947 358.756 242.579 358.756C242.219 358.756 241.939 358.832 241.739 358.984C241.547 359.136 241.451 359.336 241.451 359.584C241.451 359.824 241.575 360.012 241.823 360.148C242.079 360.284 242.423 360.4 242.855 360.496C243.223 360.576 243.571 360.676 243.899 360.796C244.235 360.908 244.507 361.08 244.715 361.312C244.931 361.536 245.039 361.864 245.039 362.296C245.047 362.832 244.843 363.276 244.427 363.628C244.019 363.972 243.463 364.144 242.759 364.144ZM248.562 364C248.018 364 247.59 363.868 247.278 363.604C246.966 363.34 246.81 362.864 246.81 362.176V358.9H245.778V358.048H246.81L246.942 356.62H247.818V358.048H249.57V358.9H247.818V362.176C247.818 362.552 247.894 362.808 248.046 362.944C248.198 363.072 248.466 363.136 248.85 363.136H249.474V364H248.562ZM253.362 364.144C252.794 364.144 252.29 364.016 251.85 363.76C251.41 363.496 251.062 363.132 250.806 362.668C250.558 362.204 250.434 361.656 250.434 361.024C250.434 360.4 250.558 359.856 250.806 359.392C251.054 358.92 251.398 358.556 251.838 358.3C252.286 358.036 252.802 357.904 253.386 357.904C253.962 357.904 254.458 358.036 254.874 358.3C255.298 358.556 255.622 358.896 255.846 359.32C256.07 359.744 256.182 360.2 256.182 360.688C256.182 360.776 256.178 360.864 256.17 360.952C256.17 361.04 256.17 361.14 256.17 361.252H251.43C251.454 361.708 251.558 362.088 251.742 362.392C251.934 362.688 252.17 362.912 252.45 363.064C252.738 363.216 253.042 363.292 253.362 363.292C253.778 363.292 254.126 363.196 254.406 363.004C254.686 362.812 254.89 362.552 255.018 362.224H256.014C255.854 362.776 255.546 363.236 255.09 363.604C254.642 363.964 254.066 364.144 253.362 364.144ZM253.362 358.756C252.882 358.756 252.454 358.904 252.078 359.2C251.71 359.488 251.498 359.912 251.442 360.472H255.186C255.162 359.936 254.978 359.516 254.634 359.212C254.29 358.908 253.866 358.756 253.362 358.756ZM257.518 364V358.048H258.43L258.514 359.188C258.698 358.796 258.978 358.484 259.354 358.252C259.73 358.02 260.194 357.904 260.746 357.904V358.96H260.47C260.118 358.96 259.794 359.024 259.498 359.152C259.202 359.272 258.966 359.48 258.79 359.776C258.614 360.072 258.526 360.48 258.526 361V364H257.518ZM197.106 381.74C196.674 381.324 196.274 380.828 195.906 380.252C195.538 379.684 195.242 379.044 195.018 378.332C194.802 377.612 194.694 376.836 194.694 376.004C194.694 375.172 194.802 374.4 195.018 373.688C195.242 372.968 195.538 372.324 195.906 371.756C196.274 371.18 196.674 370.684 197.106 370.268H198.138V370.364C197.402 371.084 196.81 371.928 196.362 372.896C195.922 373.856 195.702 374.892 195.702 376.004C195.702 377.116 195.926 378.156 196.374 379.124C196.822 380.084 197.41 380.924 198.138 381.644V381.74H197.106ZM199.483 380V371.6H202.435C203.027 371.6 203.515 371.696 203.899 371.888C204.291 372.072 204.583 372.328 204.775 372.656C204.967 372.976 205.063 373.336 205.063 373.736C205.063 374.28 204.915 374.708 204.619 375.02C204.331 375.332 203.983 375.548 203.575 375.668C203.887 375.724 204.171 375.848 204.427 376.04C204.683 376.232 204.883 376.472 205.027 376.76C205.179 377.048 205.255 377.364 205.255 377.708C205.255 378.132 205.151 378.52 204.943 378.872C204.735 379.216 204.427 379.492 204.019 379.7C203.611 379.9 203.115 380 202.531 380H199.483ZM200.491 375.272H202.363C202.899 375.272 203.311 375.148 203.599 374.9C203.887 374.644 204.031 374.292 204.031 373.844C204.031 373.42 203.887 373.08 203.599 372.824C203.319 372.568 202.895 372.44 202.327 372.44H200.491V375.272ZM200.491 379.16H202.423C202.999 379.16 203.443 379.028 203.755 378.764C204.067 378.492 204.223 378.116 204.223 377.636C204.223 377.164 204.059 376.788 203.731 376.508C203.403 376.22 202.959 376.076 202.399 376.076H200.491V379.16ZM208.621 380.144C208.125 380.144 207.713 380.06 207.385 379.892C207.057 379.724 206.813 379.5 206.653 379.22C206.493 378.94 206.413 378.636 206.413 378.308C206.413 377.7 206.645 377.232 207.109 376.904C207.573 376.576 208.205 376.412 209.005 376.412H210.613V376.34C210.613 375.82 210.477 375.428 210.205 375.164C209.933 374.892 209.569 374.756 209.113 374.756C208.721 374.756 208.381 374.856 208.093 375.056C207.813 375.248 207.637 375.532 207.565 375.908H206.533C206.573 375.476 206.717 375.112 206.965 374.816C207.221 374.52 207.537 374.296 207.913 374.144C208.289 373.984 208.689 373.904 209.113 373.904C209.945 373.904 210.569 374.128 210.985 374.576C211.409 375.016 211.621 375.604 211.621 376.34V380H210.721L210.661 378.932C210.493 379.268 210.245 379.556 209.917 379.796C209.597 380.028 209.165 380.144 208.621 380.144ZM208.777 379.292C209.161 379.292 209.489 379.192 209.761 378.992C210.041 378.792 210.253 378.532 210.397 378.212C210.541 377.892 210.613 377.556 210.613 377.204V377.192H209.089C208.497 377.192 208.077 377.296 207.829 377.504C207.589 377.704 207.469 377.956 207.469 378.26C207.469 378.572 207.581 378.824 207.805 379.016C208.037 379.2 208.361 379.292 208.777 379.292ZM213.134 380V374.048H214.046L214.13 375.188C214.314 374.796 214.594 374.484 214.97 374.252C215.346 374.02 215.81 373.904 216.362 373.904V374.96H216.086C215.734 374.96 215.41 375.024 215.114 375.152C214.818 375.272 214.582 375.48 214.406 375.776C214.23 376.072 214.142 376.48 214.142 377V380H213.134ZM219.946 380.144C219.378 380.144 218.874 380.016 218.434 379.76C217.994 379.496 217.646 379.132 217.39 378.668C217.142 378.204 217.018 377.656 217.018 377.024C217.018 376.4 217.142 375.856 217.39 375.392C217.638 374.92 217.982 374.556 218.422 374.3C218.87 374.036 219.386 373.904 219.97 373.904C220.546 373.904 221.042 374.036 221.458 374.3C221.882 374.556 222.206 374.896 222.43 375.32C222.654 375.744 222.766 376.2 222.766 376.688C222.766 376.776 222.762 376.864 222.754 376.952C222.754 377.04 222.754 377.14 222.754 377.252H218.014C218.038 377.708 218.142 378.088 218.326 378.392C218.518 378.688 218.754 378.912 219.034 379.064C219.322 379.216 219.626 379.292 219.946 379.292C220.362 379.292 220.71 379.196 220.99 379.004C221.27 378.812 221.474 378.552 221.602 378.224H222.598C222.438 378.776 222.13 379.236 221.674 379.604C221.226 379.964 220.65 380.144 219.946 380.144ZM219.946 374.756C219.466 374.756 219.038 374.904 218.662 375.2C218.294 375.488 218.082 375.912 218.026 376.472H221.77C221.746 375.936 221.562 375.516 221.218 375.212C220.874 374.908 220.45 374.756 219.946 374.756ZM227.338 380V371.6H228.514L231.538 377.456L234.538 371.6H235.726V380H234.718V373.4L231.91 378.8H231.154L228.346 373.412V380H227.338ZM240.114 380.144C239.546 380.144 239.042 380.016 238.602 379.76C238.162 379.496 237.814 379.132 237.558 378.668C237.31 378.204 237.186 377.656 237.186 377.024C237.186 376.4 237.31 375.856 237.558 375.392C237.806 374.92 238.15 374.556 238.59 374.3C239.038 374.036 239.554 373.904 240.138 373.904C240.714 373.904 241.21 374.036 241.626 374.3C242.05 374.556 242.374 374.896 242.598 375.32C242.822 375.744 242.934 376.2 242.934 376.688C242.934 376.776 242.93 376.864 242.922 376.952C242.922 377.04 242.922 377.14 242.922 377.252H238.182C238.206 377.708 238.31 378.088 238.494 378.392C238.686 378.688 238.922 378.912 239.202 379.064C239.49 379.216 239.794 379.292 240.114 379.292C240.53 379.292 240.878 379.196 241.158 379.004C241.438 378.812 241.642 378.552 241.77 378.224H242.766C242.606 378.776 242.298 379.236 241.842 379.604C241.394 379.964 240.818 380.144 240.114 380.144ZM240.114 374.756C239.634 374.756 239.206 374.904 238.83 375.2C238.462 375.488 238.25 375.912 238.194 376.472H241.938C241.914 375.936 241.73 375.516 241.386 375.212C241.042 374.908 240.618 374.756 240.114 374.756ZM246.423 380C245.879 380 245.451 379.868 245.139 379.604C244.827 379.34 244.671 378.864 244.671 378.176V374.9H243.639V374.048H244.671L244.803 372.62H245.679V374.048H247.431V374.9H245.679V378.176C245.679 378.552 245.755 378.808 245.907 378.944C246.059 379.072 246.327 379.136 246.711 379.136H247.335V380H246.423ZM250.692 380.144C250.196 380.144 249.784 380.06 249.456 379.892C249.128 379.724 248.884 379.5 248.724 379.22C248.564 378.94 248.484 378.636 248.484 378.308C248.484 377.7 248.716 377.232 249.18 376.904C249.644 376.576 250.276 376.412 251.076 376.412H252.684V376.34C252.684 375.82 252.548 375.428 252.276 375.164C252.004 374.892 251.64 374.756 251.184 374.756C250.792 374.756 250.452 374.856 250.164 375.056C249.884 375.248 249.708 375.532 249.636 375.908H248.604C248.644 375.476 248.788 375.112 249.036 374.816C249.292 374.52 249.608 374.296 249.984 374.144C250.36 373.984 250.76 373.904 251.184 373.904C252.016 373.904 252.64 374.128 253.056 374.576C253.48 375.016 253.692 375.604 253.692 376.34V380H252.792L252.732 378.932C252.564 379.268 252.316 379.556 251.988 379.796C251.668 380.028 251.236 380.144 250.692 380.144ZM250.848 379.292C251.232 379.292 251.56 379.192 251.832 378.992C252.112 378.792 252.324 378.532 252.468 378.212C252.612 377.892 252.684 377.556 252.684 377.204V377.192H251.16C250.568 377.192 250.148 377.296 249.9 377.504C249.66 377.704 249.54 377.956 249.54 378.26C249.54 378.572 249.652 378.824 249.876 379.016C250.108 379.2 250.432 379.292 250.848 379.292ZM255.204 380V371.36H256.212V380H255.204ZM257.492 381.74V381.644C258.22 380.924 258.808 380.084 259.256 379.124C259.712 378.156 259.94 377.116 259.94 376.004C259.94 374.892 259.716 373.856 259.268 372.896C258.82 371.928 258.232 371.084 257.504 370.364V370.268H258.524C258.964 370.684 259.364 371.18 259.724 371.756C260.092 372.324 260.384 372.968 260.6 373.688C260.824 374.4 260.936 375.172 260.936 376.004C260.936 376.836 260.824 377.612 260.6 378.332C260.384 379.044 260.092 379.684 259.724 380.252C259.364 380.828 258.964 381.324 258.524 381.74H257.492Z" fill="#E5E7F3"/>
<path d="M187.537 12.144C186.713 12.144 185.989 11.964 185.365 11.604C184.749 11.236 184.265 10.724 183.913 10.068C183.569 9.412 183.397 8.656 183.397 7.8C183.397 6.944 183.569 6.192 183.913 5.544C184.265 4.888 184.749 4.376 185.365 4.008C185.989 3.64 186.713 3.456 187.537 3.456C188.369 3.456 189.093 3.64 189.709 4.008C190.333 4.376 190.817 4.888 191.161 5.544C191.505 6.192 191.677 6.944 191.677 7.8C191.677 8.656 191.505 9.412 191.161 10.068C190.817 10.716 190.345 11.22 189.745 11.58L191.869 13.62H190.561L188.857 11.964C188.449 12.084 188.009 12.144 187.537 12.144ZM187.537 11.256C188.153 11.256 188.693 11.12 189.157 10.848C189.629 10.568 189.993 10.172 190.249 9.66C190.513 9.14 190.645 8.52 190.645 7.8C190.645 7.08 190.513 6.464 190.249 5.952C189.993 5.44 189.629 5.048 189.157 4.776C188.693 4.496 188.153 4.356 187.537 4.356C186.921 4.356 186.377 4.496 185.905 4.776C185.441 5.048 185.077 5.44 184.813 5.952C184.557 6.464 184.429 7.08 184.429 7.8C184.429 8.52 184.557 9.14 184.813 9.66C185.077 10.172 185.441 10.568 185.905 10.848C186.377 11.12 186.921 11.256 187.537 11.256ZM195.337 12.144C194.633 12.144 194.073 11.932 193.657 11.508C193.241 11.076 193.033 10.416 193.033 9.528V6.048H194.041V9.42C194.041 10.66 194.549 11.28 195.565 11.28C196.085 11.28 196.513 11.096 196.849 10.728C197.193 10.352 197.365 9.82 197.365 9.132V6.048H198.373V12H197.461L197.389 10.932C197.205 11.308 196.929 11.604 196.561 11.82C196.201 12.036 195.793 12.144 195.337 12.144ZM202.012 12.144C201.516 12.144 201.104 12.06 200.776 11.892C200.448 11.724 200.204 11.5 200.044 11.22C199.884 10.94 199.804 10.636 199.804 10.308C199.804 9.7 200.036 9.232 200.5 8.904C200.964 8.576 201.596 8.412 202.396 8.412H204.004V8.34C204.004 7.82 203.868 7.428 203.596 7.164C203.324 6.892 202.96 6.756 202.504 6.756C202.112 6.756 201.772 6.856 201.484 7.056C201.204 7.248 201.028 7.532 200.956 7.908H199.924C199.964 7.476 200.108 7.112 200.356 6.816C200.612 6.52 200.928 6.296 201.304 6.144C201.68 5.984 202.08 5.904 202.504 5.904C203.336 5.904 203.96 6.128 204.376 6.576C204.8 7.016 205.012 7.604 205.012 8.34V12H204.112L204.052 10.932C203.884 11.268 203.636 11.556 203.308 11.796C202.988 12.028 202.556 12.144 202.012 12.144ZM202.168 11.292C202.552 11.292 202.88 11.192 203.152 10.992C203.432 10.792 203.644 10.532 203.788 10.212C203.932 9.892 204.004 9.556 204.004 9.204V9.192H202.48C201.888 9.192 201.468 9.296 201.22 9.504C200.98 9.704 200.86 9.956 200.86 10.26C200.86 10.572 200.972 10.824 201.196 11.016C201.428 11.2 201.752 11.292 202.168 11.292ZM206.524 12V6.048H207.436L207.496 7.116C207.688 6.74 207.964 6.444 208.324 6.228C208.684 6.012 209.092 5.904 209.548 5.904C210.252 5.904 210.812 6.12 211.228 6.552C211.652 6.976 211.864 7.632 211.864 8.52V12H210.856V8.628C210.856 7.388 210.344 6.768 209.32 6.768C208.808 6.768 208.38 6.956 208.036 7.332C207.7 7.7 207.532 8.228 207.532 8.916V12H206.524ZM215.743 12C215.199 12 214.771 11.868 214.459 11.604C214.147 11.34 213.991 10.864 213.991 10.176V6.9H212.959V6.048H213.991L214.123 4.62H214.999V6.048H216.751V6.9H214.999V10.176C214.999 10.552 215.075 10.808 215.227 10.944C215.379 11.072 215.647 11.136 216.031 11.136H216.655V12H215.743ZM220.204 12.144C219.5 12.144 218.94 11.932 218.524 11.508C218.108 11.076 217.9 10.416 217.9 9.528V6.048H218.908V9.42C218.908 10.66 219.416 11.28 220.432 11.28C220.952 11.28 221.38 11.096 221.716 10.728C222.06 10.352 222.232 9.82 222.232 9.132V6.048H223.24V12H222.328L222.256 10.932C222.072 11.308 221.796 11.604 221.428 11.82C221.068 12.036 220.66 12.144 220.204 12.144ZM224.899 12V6.048H225.811L225.883 6.912C226.075 6.592 226.331 6.344 226.651 6.168C226.971 5.992 227.331 5.904 227.731 5.904C228.203 5.904 228.607 6 228.943 6.192C229.287 6.384 229.551 6.676 229.735 7.068C229.943 6.708 230.227 6.424 230.587 6.216C230.955 6.008 231.351 5.904 231.775 5.904C232.487 5.904 233.055 6.12 233.479 6.552C233.903 6.976 234.115 7.632 234.115 8.52V12H233.119V8.628C233.119 8.012 232.995 7.548 232.747 7.236C232.499 6.924 232.143 6.768 231.679 6.768C231.199 6.768 230.799 6.956 230.479 7.332C230.167 7.7 230.011 8.228 230.011 8.916V12H229.003V8.628C229.003 8.012 228.879 7.548 228.631 7.236C228.383 6.924 228.027 6.768 227.563 6.768C227.091 6.768 226.695 6.956 226.375 7.332C226.063 7.7 225.907 8.228 225.907 8.916V12H224.899ZM242.553 12.144C241.729 12.144 241.017 11.964 240.417 11.604C239.825 11.236 239.365 10.728 239.037 10.08C238.709 9.424 238.545 8.664 238.545 7.8C238.545 6.944 238.709 6.192 239.037 5.544C239.365 4.888 239.825 4.376 240.417 4.008C241.017 3.64 241.729 3.456 242.553 3.456C243.513 3.456 244.293 3.688 244.893 4.152C245.501 4.608 245.889 5.248 246.057 6.072H244.941C244.813 5.552 244.549 5.136 244.149 4.824C243.757 4.504 243.225 4.344 242.553 4.344C241.953 4.344 241.429 4.484 240.981 4.764C240.533 5.036 240.185 5.432 239.937 5.952C239.697 6.464 239.577 7.08 239.577 7.8C239.577 8.52 239.697 9.14 239.937 9.66C240.185 10.172 240.533 10.568 240.981 10.848C241.429 11.12 241.953 11.256 242.553 11.256C243.225 11.256 243.757 11.104 244.149 10.8C244.549 10.488 244.813 10.076 244.941 9.564H246.057C245.889 10.372 245.501 11.004 244.893 11.46C244.293 11.916 243.513 12.144 242.553 12.144ZM247.446 12V3.36H248.454V12H247.446ZM252.818 12.144C252.258 12.144 251.754 12.016 251.306 11.76C250.858 11.504 250.502 11.144 250.238 10.68C249.982 10.208 249.854 9.656 249.854 9.024C249.854 8.392 249.986 7.844 250.25 7.38C250.514 6.908 250.87 6.544 251.318 6.288C251.774 6.032 252.282 5.904 252.842 5.904C253.402 5.904 253.906 6.032 254.354 6.288C254.802 6.544 255.154 6.908 255.41 7.38C255.674 7.844 255.806 8.392 255.806 9.024C255.806 9.656 255.674 10.208 255.41 10.68C255.146 11.144 254.786 11.504 254.33 11.76C253.882 12.016 253.378 12.144 252.818 12.144ZM252.818 11.28C253.162 11.28 253.482 11.196 253.778 11.028C254.074 10.86 254.314 10.608 254.498 10.272C254.682 9.936 254.774 9.52 254.774 9.024C254.774 8.528 254.682 8.112 254.498 7.776C254.322 7.44 254.086 7.188 253.79 7.02C253.494 6.852 253.178 6.768 252.842 6.768C252.498 6.768 252.178 6.852 251.882 7.02C251.586 7.188 251.346 7.44 251.162 7.776C250.978 8.112 250.886 8.528 250.886 9.024C250.886 9.52 250.978 9.936 251.162 10.272C251.346 10.608 251.582 10.86 251.87 11.028C252.166 11.196 252.482 11.28 252.818 11.28ZM259.379 12.144C258.675 12.144 258.115 11.932 257.699 11.508C257.283 11.076 257.075 10.416 257.075 9.528V6.048H258.083V9.42C258.083 10.66 258.591 11.28 259.607 11.28C260.127 11.28 260.555 11.096 260.891 10.728C261.235 10.352 261.407 9.82 261.407 9.132V6.048H262.415V12H261.503L261.431 10.932C261.247 11.308 260.971 11.604 260.603 11.82C260.243 12.036 259.835 12.144 259.379 12.144ZM266.775 12.144C266.183 12.144 265.663 12.008 265.215 11.736C264.775 11.464 264.431 11.092 264.183 10.62C263.943 10.148 263.823 9.612 263.823 9.012C263.823 8.412 263.947 7.88 264.195 7.416C264.443 6.944 264.787 6.576 265.227 6.312C265.667 6.04 266.187 5.904 266.787 5.904C267.275 5.904 267.707 6.004 268.083 6.204C268.459 6.404 268.751 6.684 268.959 7.044V3.36H269.967V12H269.055L268.959 11.016C268.767 11.304 268.491 11.564 268.131 11.796C267.771 12.028 267.319 12.144 266.775 12.144ZM266.883 11.268C267.283 11.268 267.635 11.176 267.939 10.992C268.251 10.8 268.491 10.536 268.659 10.2C268.835 9.864 268.923 9.472 268.923 9.024C268.923 8.576 268.835 8.184 268.659 7.848C268.491 7.512 268.251 7.252 267.939 7.068C267.635 6.876 267.283 6.78 266.883 6.78C266.491 6.78 266.139 6.876 265.827 7.068C265.523 7.252 265.283 7.512 265.107 7.848C264.939 8.184 264.855 8.576 264.855 9.024C264.855 9.472 264.939 9.864 265.107 10.2C265.283 10.536 265.523 10.8 265.827 10.992C266.139 11.176 266.491 11.268 266.883 11.268Z" fill="#E5E7F3"/>
<path d="M58.8242 227.144C57.9762 227.144 57.2482 226.964 56.6402 226.604C56.0322 226.236 55.5642 225.728 55.2362 225.08C54.9082 224.424 54.7442 223.668 54.7442 222.812C54.7442 221.956 54.9082 221.2 55.2362 220.544C55.5642 219.888 56.0322 219.376 56.6402 219.008C57.2482 218.64 57.9762 218.456 58.8242 218.456C59.8322 218.456 60.6562 218.708 61.2962 219.212C61.9442 219.708 62.3482 220.408 62.5082 221.312H60.8162C60.7122 220.856 60.4882 220.5 60.1442 220.244C59.8082 219.98 59.3602 219.848 58.8002 219.848C58.0242 219.848 57.4162 220.112 56.9762 220.64C56.5362 221.168 56.3162 221.892 56.3162 222.812C56.3162 223.732 56.5362 224.456 56.9762 224.984C57.4162 225.504 58.0242 225.764 58.8002 225.764C59.3602 225.764 59.8082 225.644 60.1442 225.404C60.4882 225.156 60.7122 224.816 60.8162 224.384H62.5082C62.3482 225.248 61.9442 225.924 61.2962 226.412C60.6562 226.9 59.8322 227.144 58.8242 227.144ZM63.8678 227V218.6H66.9518C67.6238 218.6 68.1758 218.716 68.6078 218.948C69.0478 219.172 69.3758 219.48 69.5918 219.872C69.8078 220.256 69.9158 220.684 69.9158 221.156C69.9158 221.668 69.7798 222.136 69.5078 222.56C69.2438 222.984 68.8278 223.292 68.2598 223.484L69.9998 227H68.2358L66.6758 223.688H65.4038V227H63.8678ZM65.4038 222.56H66.8558C67.3678 222.56 67.7438 222.436 67.9838 222.188C68.2238 221.94 68.3438 221.612 68.3438 221.204C68.3438 220.804 68.2238 220.484 67.9838 220.244C67.7518 220.004 67.3718 219.884 66.8438 219.884H65.4038V222.56ZM71.3444 227V218.6H76.8284V219.836H72.8804V222.14H76.4684V223.34H72.8804V225.764H76.8284V227H71.3444ZM77.7419 227L80.8139 218.6H82.5419L85.6139 227H83.9819L83.3099 225.056H80.0339L79.3499 227H77.7419ZM80.4539 223.856H82.8899L81.6659 220.364L80.4539 223.856ZM87.7613 227V219.836H85.3133V218.6H91.7573V219.836H89.2973V227H87.7613ZM92.8952 227V218.6H98.3792V219.836H94.4312V222.14H98.0192V223.34H94.4312V225.764H98.3792V227H92.8952Z" fill="#AEB6FF"/>
<path d="M392.664 119.144C391.84 119.144 391.128 118.964 390.528 118.604C389.936 118.236 389.476 117.728 389.148 117.08C388.82 116.424 388.656 115.664 388.656 114.8C388.656 113.944 388.82 113.192 389.148 112.544C389.476 111.888 389.936 111.376 390.528 111.008C391.128 110.64 391.84 110.456 392.664 110.456C393.624 110.456 394.404 110.688 395.004 111.152C395.612 111.608 396 112.248 396.168 113.072H395.052C394.924 112.552 394.66 112.136 394.26 111.824C393.868 111.504 393.336 111.344 392.664 111.344C392.064 111.344 391.54 111.484 391.092 111.764C390.644 112.036 390.296 112.432 390.048 112.952C389.808 113.464 389.688 114.08 389.688 114.8C389.688 115.52 389.808 116.14 390.048 116.66C390.296 117.172 390.644 117.568 391.092 117.848C391.54 118.12 392.064 118.256 392.664 118.256C393.336 118.256 393.868 118.104 394.26 117.8C394.66 117.488 394.924 117.076 395.052 116.564H396.168C396 117.372 395.612 118.004 395.004 118.46C394.404 118.916 393.624 119.144 392.664 119.144ZM397.557 119V110.36H398.565V119H397.557ZM402.197 119.144C401.701 119.144 401.289 119.06 400.961 118.892C400.633 118.724 400.389 118.5 400.229 118.22C400.069 117.94 399.989 117.636 399.989 117.308C399.989 116.7 400.221 116.232 400.685 115.904C401.149 115.576 401.781 115.412 402.581 115.412H404.189V115.34C404.189 114.82 404.053 114.428 403.781 114.164C403.509 113.892 403.145 113.756 402.689 113.756C402.297 113.756 401.957 113.856 401.669 114.056C401.389 114.248 401.213 114.532 401.141 114.908H400.109C400.149 114.476 400.293 114.112 400.541 113.816C400.797 113.52 401.113 113.296 401.489 113.144C401.865 112.984 402.265 112.904 402.689 112.904C403.521 112.904 404.145 113.128 404.561 113.576C404.985 114.016 405.197 114.604 405.197 115.34V119H404.297L404.237 117.932C404.069 118.268 403.821 118.556 403.493 118.796C403.173 119.028 402.741 119.144 402.197 119.144ZM402.353 118.292C402.737 118.292 403.065 118.192 403.337 117.992C403.617 117.792 403.829 117.532 403.973 117.212C404.117 116.892 404.189 116.556 404.189 116.204V116.192H402.665C402.073 116.192 401.653 116.296 401.405 116.504C401.165 116.704 401.045 116.956 401.045 117.26C401.045 117.572 401.157 117.824 401.381 118.016C401.613 118.2 401.937 118.292 402.353 118.292ZM408.989 119.144C408.277 119.144 407.685 118.964 407.213 118.604C406.741 118.244 406.465 117.756 406.385 117.14H407.417C407.481 117.452 407.645 117.724 407.909 117.956C408.181 118.18 408.545 118.292 409.001 118.292C409.425 118.292 409.737 118.204 409.937 118.028C410.137 117.844 410.237 117.628 410.237 117.38C410.237 117.02 410.105 116.78 409.841 116.66C409.585 116.54 409.221 116.432 408.749 116.336C408.429 116.272 408.109 116.18 407.789 116.06C407.469 115.94 407.201 115.772 406.985 115.556C406.769 115.332 406.661 115.04 406.661 114.68C406.661 114.16 406.853 113.736 407.237 113.408C407.629 113.072 408.157 112.904 408.821 112.904C409.453 112.904 409.969 113.064 410.369 113.384C410.777 113.696 411.013 114.144 411.077 114.728H410.081C410.041 114.424 409.909 114.188 409.685 114.02C409.469 113.844 409.177 113.756 408.809 113.756C408.449 113.756 408.169 113.832 407.969 113.984C407.777 114.136 407.681 114.336 407.681 114.584C407.681 114.824 407.805 115.012 408.053 115.148C408.309 115.284 408.653 115.4 409.085 115.496C409.453 115.576 409.801 115.676 410.129 115.796C410.465 115.908 410.737 116.08 410.945 116.312C411.161 116.536 411.269 116.864 411.269 117.296C411.277 117.832 411.073 118.276 410.657 118.628C410.249 118.972 409.693 119.144 408.989 119.144ZM414.989 119.144C414.277 119.144 413.685 118.964 413.213 118.604C412.741 118.244 412.465 117.756 412.385 117.14H413.417C413.481 117.452 413.645 117.724 413.909 117.956C414.181 118.18 414.545 118.292 415.001 118.292C415.425 118.292 415.737 118.204 415.937 118.028C416.137 117.844 416.237 117.628 416.237 117.38C416.237 117.02 416.105 116.78 415.841 116.66C415.585 116.54 415.221 116.432 414.749 116.336C414.429 116.272 414.109 116.18 413.789 116.06C413.469 115.94 413.201 115.772 412.985 115.556C412.769 115.332 412.661 115.04 412.661 114.68C412.661 114.16 412.853 113.736 413.237 113.408C413.629 113.072 414.157 112.904 414.821 112.904C415.453 112.904 415.969 113.064 416.369 113.384C416.777 113.696 417.013 114.144 417.077 114.728H416.081C416.041 114.424 415.909 114.188 415.685 114.02C415.469 113.844 415.177 113.756 414.809 113.756C414.449 113.756 414.169 113.832 413.969 113.984C413.777 114.136 413.681 114.336 413.681 114.584C413.681 114.824 413.805 115.012 414.053 115.148C414.309 115.284 414.653 115.4 415.085 115.496C415.453 115.576 415.801 115.676 416.129 115.796C416.465 115.908 416.737 116.08 416.945 116.312C417.161 116.536 417.269 116.864 417.269 117.296C417.277 117.832 417.073 118.276 416.657 118.628C416.249 118.972 415.693 119.144 414.989 119.144ZM419.321 111.728C419.121 111.728 418.953 111.664 418.817 111.536C418.689 111.4 418.625 111.232 418.625 111.032C418.625 110.84 418.689 110.68 418.817 110.552C418.953 110.424 419.121 110.36 419.321 110.36C419.513 110.36 419.677 110.424 419.813 110.552C419.949 110.68 420.017 110.84 420.017 111.032C420.017 111.232 419.949 111.4 419.813 111.536C419.677 111.664 419.513 111.728 419.321 111.728ZM418.817 119V113.048H419.825V119H418.817ZM424.317 119.144C423.749 119.144 423.237 119.016 422.781 118.76C422.333 118.496 421.977 118.132 421.713 117.668C421.457 117.196 421.329 116.648 421.329 116.024C421.329 115.4 421.457 114.856 421.713 114.392C421.977 113.92 422.333 113.556 422.781 113.3C423.237 113.036 423.749 112.904 424.317 112.904C425.021 112.904 425.613 113.088 426.093 113.456C426.581 113.824 426.889 114.316 427.017 114.932H425.985C425.905 114.564 425.709 114.28 425.397 114.08C425.085 113.872 424.721 113.768 424.305 113.768C423.969 113.768 423.653 113.852 423.357 114.02C423.061 114.188 422.821 114.44 422.637 114.776C422.453 115.112 422.361 115.528 422.361 116.024C422.361 116.52 422.453 116.936 422.637 117.272C422.821 117.608 423.061 117.864 423.357 118.04C423.653 118.208 423.969 118.292 424.305 118.292C424.721 118.292 425.085 118.192 425.397 117.992C425.709 117.784 425.905 117.492 425.985 117.116H427.017C426.897 117.716 426.593 118.204 426.105 118.58C425.617 118.956 425.021 119.144 424.317 119.144ZM430.404 119.144C429.908 119.144 429.496 119.06 429.168 118.892C428.84 118.724 428.596 118.5 428.436 118.22C428.276 117.94 428.196 117.636 428.196 117.308C428.196 116.7 428.428 116.232 428.892 115.904C429.356 115.576 429.988 115.412 430.788 115.412H432.396V115.34C432.396 114.82 432.26 114.428 431.988 114.164C431.716 113.892 431.352 113.756 430.896 113.756C430.504 113.756 430.164 113.856 429.876 114.056C429.596 114.248 429.42 114.532 429.348 114.908H428.316C428.356 114.476 428.5 114.112 428.748 113.816C429.004 113.52 429.32 113.296 429.696 113.144C430.072 112.984 430.472 112.904 430.896 112.904C431.728 112.904 432.352 113.128 432.768 113.576C433.192 114.016 433.404 114.604 433.404 115.34V119H432.504L432.444 117.932C432.276 118.268 432.028 118.556 431.7 118.796C431.38 119.028 430.948 119.144 430.404 119.144ZM430.56 118.292C430.944 118.292 431.272 118.192 431.544 117.992C431.824 117.792 432.036 117.532 432.18 117.212C432.324 116.892 432.396 116.556 432.396 116.204V116.192H430.872C430.28 116.192 429.86 116.296 429.612 116.504C429.372 116.704 429.252 116.956 429.252 117.26C429.252 117.572 429.364 117.824 429.588 118.016C429.82 118.2 430.144 118.292 430.56 118.292ZM434.917 119V110.36H435.925V119H434.917ZM388.98 135V126.6H391.74C392.396 126.6 392.936 126.708 393.36 126.924C393.784 127.14 394.096 127.432 394.296 127.8C394.504 128.168 394.608 128.584 394.608 129.048C394.608 129.504 394.508 129.916 394.308 130.284C394.108 130.652 393.796 130.948 393.372 131.172C392.948 131.388 392.404 131.496 391.74 131.496H389.988V135H388.98ZM389.988 130.644H391.716C392.388 130.644 392.864 130.504 393.144 130.224C393.432 129.936 393.576 129.544 393.576 129.048C393.576 128.544 393.432 128.152 393.144 127.872C392.864 127.584 392.388 127.44 391.716 127.44H389.988V130.644ZM398.042 135.144C397.338 135.144 396.778 134.932 396.362 134.508C395.946 134.076 395.738 133.416 395.738 132.528V129.048H396.746V132.42C396.746 133.66 397.254 134.28 398.27 134.28C398.79 134.28 399.218 134.096 399.554 133.728C399.898 133.352 400.07 132.82 400.07 132.132V129.048H401.078V135H400.166L400.094 133.932C399.91 134.308 399.634 134.604 399.266 134.82C398.906 135.036 398.498 135.144 398.042 135.144ZM405.917 135.144C405.429 135.144 404.993 135.044 404.609 134.844C404.233 134.644 403.945 134.364 403.745 134.004L403.649 135H402.737V126.36H403.745V130.032C403.937 129.744 404.209 129.484 404.561 129.252C404.921 129.02 405.377 128.904 405.929 128.904C406.521 128.904 407.037 129.04 407.477 129.312C407.917 129.584 408.257 129.956 408.497 130.428C408.745 130.9 408.869 131.436 408.869 132.036C408.869 132.636 408.745 133.172 408.497 133.644C408.257 134.108 407.913 134.476 407.465 134.748C407.025 135.012 406.509 135.144 405.917 135.144ZM405.809 134.268C406.209 134.268 406.561 134.176 406.865 133.992C407.169 133.8 407.409 133.536 407.585 133.2C407.761 132.864 407.849 132.472 407.849 132.024C407.849 131.576 407.761 131.184 407.585 130.848C407.409 130.512 407.169 130.252 406.865 130.068C406.561 129.876 406.209 129.78 405.809 129.78C405.409 129.78 405.057 129.876 404.753 130.068C404.449 130.252 404.209 130.512 404.033 130.848C403.857 131.184 403.769 131.576 403.769 132.024C403.769 132.472 403.857 132.864 404.033 133.2C404.209 133.536 404.449 133.8 404.753 133.992C405.057 134.176 405.409 134.268 405.809 134.268ZM410.272 135V126.36H411.28V135H410.272ZM413.544 127.728C413.344 127.728 413.176 127.664 413.04 127.536C412.912 127.4 412.848 127.232 412.848 127.032C412.848 126.84 412.912 126.68 413.04 126.552C413.176 126.424 413.344 126.36 413.544 126.36C413.736 126.36 413.9 126.424 414.036 126.552C414.172 126.68 414.24 126.84 414.24 127.032C414.24 127.232 414.172 127.4 414.036 127.536C413.9 127.664 413.736 127.728 413.544 127.728ZM413.04 135V129.048H414.048V135H413.04ZM418.539 135.144C417.971 135.144 417.459 135.016 417.003 134.76C416.555 134.496 416.199 134.132 415.935 133.668C415.679 133.196 415.551 132.648 415.551 132.024C415.551 131.4 415.679 130.856 415.935 130.392C416.199 129.92 416.555 129.556 417.003 129.3C417.459 129.036 417.971 128.904 418.539 128.904C419.243 128.904 419.835 129.088 420.315 129.456C420.803 129.824 421.111 130.316 421.239 130.932H420.207C420.127 130.564 419.931 130.28 419.619 130.08C419.307 129.872 418.943 129.768 418.527 129.768C418.191 129.768 417.875 129.852 417.579 130.02C417.283 130.188 417.043 130.44 416.859 130.776C416.675 131.112 416.583 131.528 416.583 132.024C416.583 132.52 416.675 132.936 416.859 133.272C417.043 133.608 417.283 133.864 417.579 134.04C417.875 134.208 418.191 134.292 418.527 134.292C418.943 134.292 419.307 134.192 419.619 133.992C419.931 133.784 420.127 133.492 420.207 133.116H421.239C421.119 133.716 420.815 134.204 420.327 134.58C419.839 134.956 419.243 135.144 418.539 135.144ZM429.567 135.144C428.743 135.144 428.031 134.964 427.431 134.604C426.839 134.236 426.379 133.728 426.051 133.08C425.723 132.424 425.559 131.664 425.559 130.8C425.559 129.944 425.723 129.192 426.051 128.544C426.379 127.888 426.839 127.376 427.431 127.008C428.031 126.64 428.743 126.456 429.567 126.456C430.527 126.456 431.307 126.688 431.907 127.152C432.515 127.608 432.903 128.248 433.071 129.072H431.955C431.827 128.552 431.563 128.136 431.163 127.824C430.771 127.504 430.239 127.344 429.567 127.344C428.967 127.344 428.443 127.484 427.995 127.764C427.547 128.036 427.199 128.432 426.951 128.952C426.711 129.464 426.591 130.08 426.591 130.8C426.591 131.52 426.711 132.14 426.951 132.66C427.199 133.172 427.547 133.568 427.995 133.848C428.443 134.12 428.967 134.256 429.567 134.256C430.239 134.256 430.771 134.104 431.163 133.8C431.563 133.488 431.827 133.076 431.955 132.564H433.071C432.903 133.372 432.515 134.004 431.907 134.46C431.307 134.916 430.527 135.144 429.567 135.144ZM434.459 135V126.36H435.467V135H434.459ZM439.832 135.144C439.272 135.144 438.768 135.016 438.32 134.76C437.872 134.504 437.516 134.144 437.252 133.68C436.996 133.208 436.868 132.656 436.868 132.024C436.868 131.392 437 130.844 437.264 130.38C437.528 129.908 437.884 129.544 438.332 129.288C438.788 129.032 439.296 128.904 439.856 128.904C440.416 128.904 440.92 129.032 441.368 129.288C441.816 129.544 442.168 129.908 442.424 130.38C442.688 130.844 442.82 131.392 442.82 132.024C442.82 132.656 442.688 133.208 442.424 133.68C442.16 134.144 441.8 134.504 441.344 134.76C440.896 135.016 440.392 135.144 439.832 135.144ZM439.832 134.28C440.176 134.28 440.496 134.196 440.792 134.028C441.088 133.86 441.328 133.608 441.512 133.272C441.696 132.936 441.788 132.52 441.788 132.024C441.788 131.528 441.696 131.112 441.512 130.776C441.336 130.44 441.1 130.188 440.804 130.02C440.508 129.852 440.192 129.768 439.856 129.768C439.512 129.768 439.192 129.852 438.896 130.02C438.6 130.188 438.36 130.44 438.176 130.776C437.992 131.112 437.9 131.528 437.9 132.024C437.9 132.52 437.992 132.936 438.176 133.272C438.36 133.608 438.596 133.86 438.884 134.028C439.18 134.196 439.496 134.28 439.832 134.28ZM446.393 135.144C445.689 135.144 445.129 134.932 444.713 134.508C444.297 134.076 444.089 133.416 444.089 132.528V129.048H445.097V132.42C445.097 133.66 445.605 134.28 446.621 134.28C447.141 134.28 447.569 134.096 447.905 133.728C448.249 133.352 448.421 132.82 448.421 132.132V129.048H449.429V135H448.517L448.445 133.932C448.261 134.308 447.985 134.604 447.617 134.82C447.257 135.036 446.849 135.144 446.393 135.144ZM453.788 135.144C453.196 135.144 452.676 135.008 452.228 134.736C451.788 134.464 451.444 134.092 451.196 133.62C450.956 133.148 450.836 132.612 450.836 132.012C450.836 131.412 450.96 130.88 451.208 130.416C451.456 129.944 451.8 129.576 452.24 129.312C452.68 129.04 453.2 128.904 453.8 128.904C454.288 128.904 454.72 129.004 455.096 129.204C455.472 129.404 455.764 129.684 455.972 130.044V126.36H456.98V135H456.068L455.972 134.016C455.78 134.304 455.504 134.564 455.144 134.796C454.784 135.028 454.332 135.144 453.788 135.144ZM453.896 134.268C454.296 134.268 454.648 134.176 454.952 133.992C455.264 133.8 455.504 133.536 455.672 133.2C455.848 132.864 455.936 132.472 455.936 132.024C455.936 131.576 455.848 131.184 455.672 130.848C455.504 130.512 455.264 130.252 454.952 130.068C454.648 129.876 454.296 129.78 453.896 129.78C453.504 129.78 453.152 129.876 452.84 130.068C452.536 130.252 452.296 130.512 452.12 130.848C451.952 131.184 451.868 131.576 451.868 132.024C451.868 132.472 451.952 132.864 452.12 133.2C452.296 133.536 452.536 133.8 452.84 133.992C453.152 134.176 453.504 134.268 453.896 134.268ZM460.904 135.144C460.192 135.144 459.6 134.964 459.128 134.604C458.656 134.244 458.38 133.756 458.3 133.14H459.332C459.396 133.452 459.56 133.724 459.824 133.956C460.096 134.18 460.46 134.292 460.916 134.292C461.34 134.292 461.652 134.204 461.852 134.028C462.052 133.844 462.152 133.628 462.152 133.38C462.152 133.02 462.02 132.78 461.756 132.66C461.5 132.54 461.136 132.432 460.664 132.336C460.344 132.272 460.024 132.18 459.704 132.06C459.384 131.94 459.116 131.772 458.9 131.556C458.684 131.332 458.576 131.04 458.576 130.68C458.576 130.16 458.768 129.736 459.152 129.408C459.544 129.072 460.072 128.904 460.736 128.904C461.368 128.904 461.884 129.064 462.284 129.384C462.692 129.696 462.928 130.144 462.992 130.728H461.996C461.956 130.424 461.824 130.188 461.6 130.02C461.384 129.844 461.092 129.756 460.724 129.756C460.364 129.756 460.084 129.832 459.884 129.984C459.692 130.136 459.596 130.336 459.596 130.584C459.596 130.824 459.72 131.012 459.968 131.148C460.224 131.284 460.568 131.4 461 131.496C461.368 131.576 461.716 131.676 462.044 131.796C462.38 131.908 462.652 132.08 462.86 132.312C463.076 132.536 463.184 132.864 463.184 133.296C463.192 133.832 462.988 134.276 462.572 134.628C462.164 134.972 461.608 135.144 460.904 135.144Z" fill="#E5E7F3"/>
<rect x="195.387" y="56" width="62.2964" height="11" fill="#B5B7C2"/>
<rect width="43.2394" height="43.2383" rx="10" transform="matrix(0.83409 0.551629 -0.832195 0.554483 226.505 43)" fill="#B5B7C2"/>
<rect width="43.2394" height="43.2383" rx="10" transform="matrix(0.83409 0.551629 -0.832195 0.554483 226.501 32)" fill="#A965EE"/>
<g clip-path="url(#clip0_189_1383)">
<path d="M237.152 57.9349C237.004 57.7391 236.856 57.5434 236.693 57.3574C236.878 57.2836 237.069 57.2048 237.254 57.1212C240.205 55.8223 241.849 54.2954 241.367 53.1151C240.914 51.9837 238.499 51.2478 235.161 51.1065C234.829 51.0923 234.504 51.0831 234.172 51.0787C234.172 50.9317 234.157 50.7847 234.142 50.6377C233.931 48.2954 232.762 46.5919 230.982 46.2764C229.276 45.9804 227.107 47.0034 225.235 48.8494C225.051 49.031 224.874 49.2176 224.704 49.409C224.372 49.287 224.032 49.17 223.692 49.0627C220.738 48.1268 218.146 47.9989 216.907 48.8244C215.668 49.6498 215.841 51.5266 217.343 53.5579C217.462 53.7243 217.595 53.8809 217.728 54.0473C217.426 54.1703 217.123 54.2934 216.828 54.4311C214.121 55.6659 212.639 57.0945 213.099 58.221C213.566 59.3817 216.085 60.1762 219.496 60.3174C219.762 60.3268 220.043 60.3361 220.323 60.3356C220.331 60.5758 220.346 60.811 220.376 61.0462C220.623 63.2169 221.748 64.7734 223.44 65.0695C225.19 65.3753 227.499 64.3176 229.393 62.4374C229.54 62.2901 229.68 62.1379 229.82 61.9858C229.99 62.0492 230.16 62.1028 230.323 62.1613C233.484 63.2047 236.298 63.3813 237.595 62.5165C238.842 61.6861 238.602 59.9222 237.137 57.9349L237.152 57.9349ZM235.074 51.93C237.932 52.0574 239.882 52.652 240.164 53.3278C240.46 54.0527 239.111 55.3047 236.566 56.4215C236.396 56.4953 236.234 56.5642 236.057 56.6331C235.354 55.8943 234.571 55.1801 233.728 54.515C233.962 53.6521 234.109 52.7795 234.159 51.9021C234.462 51.9065 234.764 51.9109 235.067 51.9251L235.074 51.93ZM221.958 53.5745C221.781 53.9375 221.627 54.3053 221.472 54.6731C221.318 55.0508 221.178 55.4284 221.061 55.8109C220.484 55.3414 219.952 54.8522 219.456 54.3482C220.231 54.0774 221.065 53.8162 221.958 53.5745ZM224.037 52.1889C224.391 51.61 224.766 51.0654 225.172 50.5599C225.896 50.8625 226.634 51.2043 227.373 51.5853C226.812 51.6647 226.252 51.7637 225.698 51.8577C225.137 51.9567 224.591 52.0655 224.045 52.184L224.037 52.1889ZM223.463 53.1897C224.305 52.9922 225.153 52.8192 226.009 52.6609C226.866 52.5027 227.737 52.3737 228.615 52.2595C229.273 52.6358 229.938 53.0365 230.573 53.4569C231.209 53.8773 231.823 54.3124 232.384 54.7526C232.216 55.3263 232.017 55.9 231.789 56.4738C231.562 57.0476 231.304 57.6116 231.025 58.1708C230.183 58.3683 229.32 58.5413 228.464 58.6996C227.607 58.8579 226.744 58.9916 225.873 59.1108C225.215 58.7345 224.557 58.3289 223.907 57.8987C223.257 57.4685 222.658 57.0432 222.096 56.6226C222.265 56.0391 222.456 55.4605 222.691 54.8818C222.919 54.308 223.184 53.7391 223.471 53.1848L223.463 53.1897ZM228.782 59.4979C229.351 59.394 229.912 59.2852 230.48 59.1617C230.156 59.7308 229.773 60.2901 229.353 60.8348C228.577 60.5078 227.824 60.1562 227.092 59.7801C227.661 59.6958 228.222 59.5968 228.782 59.4979ZM232.515 57.7958C232.684 57.4279 232.846 57.0552 232.993 56.6825C233.14 56.3196 233.28 55.9518 233.397 55.5791C233.974 56.0682 234.499 56.5623 234.95 57.0467C234.153 57.3225 233.342 57.5689 232.508 57.7909L232.515 57.7958ZM232.904 51.9141C232.86 52.512 232.78 53.1052 232.656 53.6984C231.88 53.1361 231.067 52.5984 230.209 52.0804C231.139 51.9906 232.047 51.9351 232.904 51.9141ZM230.658 47.0807C231.751 47.2749 232.714 48.6651 232.894 50.684C232.909 50.8113 232.917 50.9437 232.917 51.0809C231.596 51.1174 230.274 51.2128 228.975 51.3719C227.963 50.81 226.899 50.3021 225.783 49.8286C225.945 49.6519 226.107 49.485 226.277 49.3132C227.876 47.7275 229.632 46.9011 230.658 47.0807ZM218.813 53.6289C218.694 53.4821 218.576 53.3352 218.465 53.1835C217.799 52.2829 217.414 51.4406 217.331 50.7301C217.256 50.1029 217.433 49.6321 217.787 49.3963C218.539 48.8951 220.628 48.9944 223.155 49.8037C223.472 49.9061 223.783 50.0134 224.085 50.1256C223.474 50.9058 222.936 51.7056 222.488 52.5346C221.226 52.8455 220.001 53.2103 218.82 53.624L218.813 53.6289ZM219.576 59.4793C218.07 59.4132 216.77 59.2194 215.81 58.9172C214.953 58.6442 214.435 58.3118 214.309 57.9935C214.035 57.3127 215.214 56.1639 217.538 55.1062C217.811 54.9832 218.091 54.8651 218.379 54.7519C219.097 55.4907 219.895 56.1951 220.76 56.8651C220.533 57.7329 220.394 58.6202 220.336 59.5025C220.085 59.5029 219.834 59.4935 219.583 59.4841L219.576 59.4793ZM221.592 59.4807C221.62 58.9024 221.708 58.2945 221.839 57.667C222.224 57.9408 222.616 58.2096 223.029 58.4834C223.443 58.7571 223.872 59.0309 224.308 59.2899C223.408 59.3796 222.507 59.4498 221.592 59.4807ZM225.726 63.8502C224.937 64.2093 224.25 64.3428 223.763 64.2554C222.736 64.0758 221.826 62.8276 221.624 60.9705C221.594 60.7549 221.586 60.5344 221.578 60.3139C222.9 60.2675 224.214 60.1575 225.52 59.9935C226.547 60.5652 227.626 61.0828 228.756 61.5563C228.624 61.6937 228.499 61.8361 228.366 61.9637C227.526 62.7983 226.611 63.4468 225.733 63.8453L225.726 63.8502ZM230.897 61.4056C230.75 61.3569 230.594 61.3032 230.439 61.2496C231.051 60.4595 231.566 59.6451 232.008 58.8111C233.24 58.5101 234.443 58.1601 235.594 57.7562C235.742 57.9324 235.882 58.1135 236.016 58.2897C237.274 59.9931 237.461 61.4189 236.716 61.9152C235.912 62.4508 233.616 62.3027 230.89 61.4007L230.897 61.4056Z" fill="white"/>
<path d="M225.419 56.9012C225.788 57.1456 226.246 57.3115 226.763 57.3792C227.273 57.442 227.804 57.4117 228.277 57.2835C228.756 57.1504 229.162 56.9291 229.457 56.6444C229.744 56.3547 229.899 56.0163 229.905 55.6781C229.905 55.3351 229.749 54.9972 229.468 54.7134C229.18 54.4247 228.773 54.2049 228.293 54.0734C227.813 53.9419 227.289 53.9085 226.78 53.9731C226.27 54.0376 225.805 54.21 225.444 54.4507C225.201 54.6129 225.002 54.8043 224.877 55.0153C224.737 55.2263 224.678 55.4518 224.678 55.6772C224.679 55.9027 224.746 56.1329 224.879 56.3385C225.005 56.5491 225.204 56.7398 225.448 56.9012L225.419 56.9012Z" fill="white"/>
</g>
<rect x="195.387" y="181" width="62.2964" height="11" fill="#B5B7C2"/>
<rect width="43.2394" height="43.2383" rx="10" transform="matrix(0.83409 0.551629 -0.832195 0.554483 226.505 168)" fill="#B5B7C2"/>
<rect width="43.2394" height="43.2383" rx="10" transform="matrix(0.83409 0.551629 -0.832195 0.554483 226.501 157)" fill="#5552FF"/>
<g clip-path="url(#clip1_189_1383)">
<path d="M230.888 169.836C232.899 171.165 232.91 173.342 230.913 174.672C228.917 176.003 225.638 176.003 223.628 174.674C221.617 173.344 221.606 171.168 223.603 169.837C225.599 168.507 228.878 168.506 230.888 169.836ZM232.704 168.626C229.678 166.625 224.78 166.626 221.775 168.628C218.77 170.631 218.786 173.882 221.812 175.883C224.838 177.884 229.736 177.883 232.741 175.881C235.746 173.879 235.73 170.628 232.704 168.626Z" fill="white"/>
<path d="M230.976 186.764C232.987 188.093 232.998 190.27 231.001 191.6C229.004 192.93 225.726 192.931 223.715 191.601C221.705 190.272 221.693 188.095 223.69 186.765C225.687 185.435 228.966 185.434 230.976 186.764ZM232.791 185.554C229.765 183.553 224.868 183.554 221.862 185.556C218.857 187.558 218.874 190.81 221.9 192.811C224.926 194.812 229.824 194.811 232.829 192.809C235.834 190.807 235.817 187.555 232.791 185.554Z" fill="white"/>
<path d="M240.015 173.461L240.09 187.971L229.123 180.718L240.015 173.461Z" fill="white"/>
<path d="M225.48 180.719L214.514 173.466L203.623 180.723L214.589 187.976L225.48 180.719Z" fill="white"/>
</g>
<path d="M324.457 186.144C323.609 186.144 322.881 185.964 322.273 185.604C321.665 185.236 321.197 184.728 320.869 184.08C320.541 183.424 320.377 182.668 320.377 181.812C320.377 180.956 320.541 180.2 320.869 179.544C321.197 178.888 321.665 178.376 322.273 178.008C322.881 177.64 323.609 177.456 324.457 177.456C325.465 177.456 326.289 177.708 326.929 178.212C327.577 178.708 327.981 179.408 328.141 180.312H326.449C326.345 179.856 326.121 179.5 325.777 179.244C325.441 178.98 324.993 178.848 324.433 178.848C323.657 178.848 323.049 179.112 322.609 179.64C322.169 180.168 321.949 180.892 321.949 181.812C321.949 182.732 322.169 183.456 322.609 183.984C323.049 184.504 323.657 184.764 324.433 184.764C324.993 184.764 325.441 184.644 325.777 184.404C326.121 184.156 326.345 183.816 326.449 183.384H328.141C327.981 184.248 327.577 184.924 326.929 185.412C326.289 185.9 325.465 186.144 324.457 186.144ZM333.437 186.144C332.597 186.144 331.861 185.96 331.229 185.592C330.605 185.224 330.113 184.716 329.753 184.068C329.401 183.412 329.225 182.656 329.225 181.8C329.225 180.944 329.401 180.192 329.753 179.544C330.113 178.888 330.605 178.376 331.229 178.008C331.861 177.64 332.597 177.456 333.437 177.456C334.269 177.456 335.001 177.64 335.633 178.008C336.265 178.376 336.757 178.888 337.109 179.544C337.461 180.192 337.637 180.944 337.637 181.8C337.637 182.656 337.461 183.412 337.109 184.068C336.757 184.716 336.265 185.224 335.633 185.592C335.001 185.96 334.269 186.144 333.437 186.144ZM333.437 184.764C334.237 184.764 334.873 184.5 335.345 183.972C335.825 183.444 336.065 182.72 336.065 181.8C336.065 180.88 335.825 180.156 335.345 179.628C334.873 179.1 334.237 178.836 333.437 178.836C332.637 178.836 331.997 179.1 331.517 179.628C331.037 180.156 330.797 180.88 330.797 181.8C330.797 182.72 331.037 183.444 331.517 183.972C331.997 184.5 332.637 184.764 333.437 184.764ZM338.993 186V177.6H340.817L343.493 182.928L346.133 177.6H347.957V186H346.421V180.204L344.081 184.8H342.869L340.529 180.204V186H338.993ZM349.587 186V177.6H352.695C353.367 177.6 353.923 177.712 354.363 177.936C354.803 178.16 355.131 178.468 355.347 178.86C355.563 179.252 355.671 179.692 355.671 180.18C355.671 180.644 355.567 181.072 355.359 181.464C355.151 181.848 354.827 182.16 354.387 182.4C353.947 182.632 353.383 182.748 352.695 182.748H351.123V186H349.587ZM351.123 181.5H352.599C353.135 181.5 353.519 181.384 353.751 181.152C353.991 180.912 354.111 180.588 354.111 180.18C354.111 179.764 353.991 179.44 353.751 179.208C353.519 178.968 353.135 178.848 352.599 178.848H351.123V181.5ZM360.116 186.144C359.5 186.144 358.944 186.024 358.448 185.784C357.952 185.536 357.556 185.164 357.26 184.668C356.972 184.172 356.828 183.544 356.828 182.784V177.6H358.364V182.796C358.364 183.452 358.52 183.94 358.832 184.26C359.152 184.58 359.592 184.74 360.152 184.74C360.704 184.74 361.14 184.58 361.46 184.26C361.78 183.94 361.94 183.452 361.94 182.796V177.6H363.476V182.784C363.476 183.544 363.324 184.172 363.02 184.668C362.716 185.164 362.308 185.536 361.796 185.784C361.292 186.024 360.732 186.144 360.116 186.144ZM367 186V178.836H364.552V177.6H370.996V178.836H368.536V186H367ZM372.134 186V177.6H377.618V178.836H373.67V181.14H377.258V182.34H373.67V184.764H377.618V186H372.134Z" fill="#AEB6FF"/>
<rect x="299.214" y="122" width="62.2964" height="11" fill="#B5B7C2"/>
<rect width="43.2394" height="43.2383" rx="10" transform="matrix(0.83409 0.551629 -0.832195 0.554483 330.332 109)" fill="#B5B7C2"/>
<rect width="43.2394" height="43.2383" rx="10" transform="matrix(0.83409 0.551629 -0.832195 0.554483 330.328 98)" fill="#8965EE"/>
<g clip-path="url(#clip2_189_1383)">
<path d="M338.28 124.369C338.715 123.943 339.047 123.486 339.275 123.013C340.04 121.46 339.705 119.726 338.27 118.329C337.989 118.059 337.667 117.801 337.329 117.569L337.289 117.543C336.772 117.201 336.193 116.909 335.574 116.682C332.976 115.702 329.647 115.719 327.001 116.91C324.593 115.803 321.327 115.999 319.249 117.376C318.745 117.711 318.345 118.093 318.065 118.508C317.79 118.873 317.613 119.273 317.534 119.676C317.272 120.886 317.847 122.156 319.247 123.089L329.006 129.543C329.086 129.596 329.167 129.65 329.253 129.691C331.341 130.928 334.447 131.059 336.766 129.987C337.069 129.845 337.35 129.689 337.602 129.521C339.639 128.163 339.991 125.995 338.28 124.369ZM335.836 129.106C334.164 129.877 331.929 129.797 330.397 128.929C330.317 128.883 330.231 128.834 330.151 128.781L320.392 122.327C319.715 121.879 319.302 121.324 319.152 120.746C319.03 120.271 319.081 119.788 319.31 119.331C319.515 118.889 319.875 118.482 320.391 118.138C321.919 117.128 324.308 116.983 326.086 117.794L326.998 118.215L327.92 117.799C330.302 116.722 333.465 116.83 335.662 118.017C335.828 118.105 335.989 118.203 336.144 118.306C336.436 118.499 336.695 118.708 336.93 118.94C336.959 118.966 336.982 118.989 337.005 119.019C338.428 120.47 338.409 122.326 336.944 123.767L336.813 123.893L336.813 123.9L336.321 124.38L336.476 124.528L336.694 124.733L336.958 124.984C337.629 125.633 337.894 126.417 337.684 127.197C337.473 127.977 336.821 128.655 335.836 129.106Z" fill="white"/>
</g>
<rect x="299.214" y="240" width="62.2964" height="11" fill="#B5B7C2"/>
<rect width="43.2394" height="43.2383" rx="10" transform="matrix(0.83409 0.551629 -0.832195 0.554483 330.332 227)" fill="#B5B7C2"/>
<rect width="43.2394" height="43.2383" rx="10" transform="matrix(0.83409 0.551629 -0.832195 0.554483 330.328 216)" fill="#7CA7E9"/>
<g clip-path="url(#clip3_189_1383)">
<path d="M348.794 239.652L331.055 227.921C330.242 227.383 328.913 227.385 328.101 227.926L316.302 235.787C315.491 236.328 315.493 237.21 316.306 237.747L322.219 241.658L319.269 243.623L316.313 241.668L314.838 242.651L326.664 250.472L328.139 249.489L325.182 247.534L328.132 245.569L334.045 249.479C334.858 250.017 336.187 250.015 336.998 249.474L348.797 241.613C349.608 241.072 349.607 240.19 348.794 239.652ZM323.704 246.556L320.747 244.601L323.697 242.636L326.654 244.591L323.704 246.556ZM335.52 248.497L317.781 236.765L329.58 228.903L347.319 240.635L335.52 248.497Z" fill="white"/>
</g>
<rect x="45.1902" y="181" width="62.2964" height="11" fill="#B5B7C2"/>
<rect width="43.2394" height="43.2383" rx="10" transform="matrix(0.83409 0.551629 -0.832195 0.554483 76.3082 168)" fill="#B5B7C2"/>
<rect width="43.2394" height="43.2383" rx="10" transform="matrix(0.83409 0.551629 -0.832195 0.554483 76.304 157)" fill="#7CA7E9"/>
<g clip-path="url(#clip4_189_1383)">
<path d="M94.7697 180.652L77.0305 168.921C76.2175 168.383 74.8886 168.385 74.0774 168.926L62.2784 176.787C61.4672 177.328 61.4687 178.21 62.2818 178.747L68.1949 182.658L65.2451 184.623L62.2886 182.668L60.8137 183.651L72.6399 191.472L74.1147 190.489L71.1582 188.534L74.1079 186.569L80.021 190.479C80.834 191.017 82.163 191.015 82.9741 190.474L94.7731 182.613C95.5843 182.072 95.5828 181.19 94.7697 180.652ZM69.6799 187.556L66.7234 185.601L69.6731 183.636L72.6297 185.591L69.6799 187.556ZM81.4959 189.497L63.7567 177.765L75.5556 169.903L93.2949 181.635L81.4959 189.497Z" fill="white"/>
</g>
<rect x="195.387" y="301" width="62.2964" height="11" fill="#B5B7C2"/>
<rect width="43.2394" height="43.2383" rx="10" transform="matrix(0.83409 0.551629 -0.832195 0.554483 226.505 288)" fill="#B5B7C2"/>
<rect width="43.2394" height="43.2383" rx="10" transform="matrix(0.83409 0.551629 -0.832195 0.554483 226.501 277)" fill="#96C8DE"/>
<g clip-path="url(#clip5_189_1383)">
<path d="M236.512 310.166L233.138 307.935L236.509 305.689L234.822 304.573L227.237 309.627L213.74 300.701L227.225 291.716L234.817 296.737L236.502 295.614L233.128 293.383L236.499 291.137L234.812 290.021L231.441 292.267L228.91 290.593C227.983 289.98 226.465 289.983 225.538 290.601L223.009 292.285L219.635 290.054L217.95 291.177L221.324 293.408L216.267 296.778L212.893 294.546L211.208 295.669L214.582 297.901L212.053 299.585C211.126 300.203 211.127 301.21 212.055 301.824L214.585 303.498L211.214 305.744L212.901 306.86L216.272 304.613L221.333 307.961L217.962 310.207L219.649 311.323L223.021 309.076L225.551 310.75C226.479 311.364 227.997 311.36 228.924 310.743L231.452 309.058L234.826 311.289L236.512 310.166Z" fill="white"/>
<path d="M212.927 294.569L216.301 296.8L219.672 294.554L221.359 295.67L213.774 300.724L227.27 309.649L240.755 300.665L233.163 295.644L234.849 294.521L238.223 296.752L241.594 294.506L243.281 295.622L239.91 297.868L242.44 299.542C243.368 300.155 243.369 301.163 242.442 301.78L239.914 303.465L243.288 305.697L241.602 306.82L238.228 304.588L233.171 307.957L236.545 310.189L234.86 311.312L231.486 309.08L228.957 310.765C228.03 311.383 226.513 311.386 225.585 310.772L223.054 309.099L219.683 311.345L217.996 310.229L221.367 307.983L216.306 304.636L212.935 306.882L211.248 305.766L214.619 303.52L212.088 301.847C211.161 301.233 211.16 300.225 212.087 299.608L214.615 297.923L211.241 295.692L212.927 294.569Z" fill="white"/>
<path d="M227.234 306.269L218.799 300.69L227.227 295.075L235.662 300.653L227.234 306.269ZM222.172 300.683L227.233 304.03L232.29 300.661L227.229 297.314L222.172 300.683Z" fill="white"/>
</g>
<defs>
<clipPath id="clip0_189_1383">
<rect width="28.357" height="28.3563" fill="white" transform="matrix(0.83409 0.551629 -0.832195 0.554483 227.22 40)"/>
</clipPath>
<clipPath id="clip1_189_1383">
<rect width="28.357" height="28.3563" fill="white" transform="matrix(0.83409 0.551629 -0.832195 0.554483 227.22 165)"/>
</clipPath>
<clipPath id="clip2_189_1383">
<rect width="28.357" height="28.3563" fill="white" transform="matrix(0.83409 0.551629 -0.832195 0.554483 331.048 106)"/>
</clipPath>
<clipPath id="clip3_189_1383">
<rect width="28.357" height="28.3563" fill="white" transform="matrix(0.83409 0.551629 -0.832195 0.554483 331.048 224)"/>
</clipPath>
<clipPath id="clip4_189_1383">
<rect width="28.357" height="28.3563" fill="white" transform="matrix(0.83409 0.551629 -0.832195 0.554483 77.0237 165)"/>
</clipPath>
<clipPath id="clip5_189_1383">
<rect width="28.357" height="28.3563" fill="white" transform="matrix(0.83409 0.551629 -0.832195 0.554483 227.22 285)"/>
</clipPath>
</defs>
</svg>
