<svg width="291" height="85" viewBox="0 0 291 85" fill="none" xmlns="http://www.w3.org/2000/svg">
<mask id="mask0_3_38" style="mask-type:luminance" maskUnits="userSpaceOnUse" x="0" y="0" width="65" height="65">
<path d="M65 0H0V65H65V0Z" fill="white"/>
</mask>
<g mask="url(#mask0_3_38)">
<path d="M27.4336 47.6471L15.626 35.8396L37.736 13.7296C38.3218 13.1438 39.2715 13.1438 39.8573 13.7296L49.5435 23.4159C50.1293 24.0017 50.1293 24.9514 49.5435 25.5372L27.4336 47.6471Z" stroke="#F1F1F6" stroke-width="3"/>
<path d="M22.1063 42.0993L44.3338 19.8718" stroke="#F1F1F6" stroke-width="3"/>
<path d="M26.2965 48.6314L14.2183 49.0158L14.6027 36.9375" stroke="#F1F1F6" stroke-width="3" stroke-linecap="round"/>
<path d="M11.4361 50.508C11.9946 51.1198 12.9434 51.163 13.5552 50.6045C14.167 50.046 14.2102 49.0972 13.6517 48.4854L11.4361 50.508ZM13.6517 48.4854C3.41643 37.2734 4.20822 19.887 15.4202 9.65171L13.3976 7.43608C0.961952 18.7884 0.0837431 38.0724 11.4361 50.508L13.6517 48.4854ZM15.4202 9.65171C26.6322 -0.583542 44.0186 0.208252 54.2539 11.4202L56.4695 9.39762C45.1172 -3.03803 25.8332 -3.91624 13.3976 7.43608L15.4202 9.65171Z" fill="#F1F1F6"/>
<path d="M54.508 52.4696C53.8962 53.0282 52.9474 52.985 52.3889 52.3731C51.8304 51.7613 51.8736 50.8125 52.4854 50.254L54.508 52.4696ZM52.4854 50.254C63.6974 40.0187 64.4892 22.6323 54.2539 11.4203L56.4695 9.39771C67.8219 21.8334 66.9437 41.1173 54.508 52.4696L52.4854 50.254Z" fill="#F1F1F6"/>
</g>
<path d="M107.128 23.1919C106.019 23.1919 105.059 22.9519 104.248 22.4719C103.448 21.9812 102.829 21.3039 102.392 20.4399C101.955 19.5652 101.736 18.5572 101.736 17.4159C101.736 16.2639 101.955 15.2559 102.392 14.3919C102.829 13.5172 103.448 12.8346 104.248 12.3439C105.059 11.8532 106.019 11.6079 107.128 11.6079C108.44 11.6079 109.512 11.9279 110.344 12.5679C111.176 13.2079 111.704 14.1039 111.928 15.2559H110.04C109.891 14.6052 109.571 14.0879 109.08 13.7039C108.589 13.3199 107.933 13.1279 107.112 13.1279C105.992 13.1279 105.107 13.5119 104.456 14.2799C103.805 15.0372 103.48 16.0826 103.48 17.4159C103.48 18.7386 103.805 19.7786 104.456 20.5359C105.107 21.2932 105.992 21.6719 107.112 21.6719C107.933 21.6719 108.589 21.4906 109.08 21.1279C109.571 20.7652 109.891 20.2692 110.04 19.6399H111.928C111.704 20.7492 111.176 21.6186 110.344 22.2479C109.512 22.8772 108.44 23.1919 107.128 23.1919ZM113.728 22.9999V15.0639H115.248L115.392 16.5679C115.67 16.0452 116.054 15.6346 116.544 15.3359C117.046 15.0266 117.648 14.8719 118.352 14.8719V16.6479H117.888C117.419 16.6479 116.998 16.7279 116.624 16.8879C116.262 17.0372 115.968 17.2986 115.744 17.6719C115.531 18.0346 115.424 18.5412 115.424 19.1919V22.9999H113.728ZM123.3 23.1919C122.521 23.1919 121.828 23.0212 121.22 22.6799C120.622 22.3279 120.153 21.8426 119.812 21.2239C119.47 20.6052 119.3 19.8852 119.3 19.0639C119.3 18.2319 119.465 17.5012 119.796 16.8719C120.137 16.2426 120.606 15.7519 121.204 15.3999C121.812 15.0479 122.516 14.8719 123.316 14.8719C124.094 14.8719 124.772 15.0479 125.348 15.3999C125.924 15.7412 126.372 16.1999 126.692 16.7759C127.012 17.3519 127.172 17.9866 127.172 18.6799C127.172 18.7866 127.166 18.9039 127.156 19.0319C127.156 19.1492 127.15 19.2826 127.14 19.4319H120.964C121.017 20.1999 121.268 20.7866 121.716 21.1919C122.174 21.5866 122.702 21.7839 123.3 21.7839C123.78 21.7839 124.18 21.6772 124.5 21.4639C124.83 21.2399 125.076 20.9412 125.236 20.5679H126.932C126.718 21.3146 126.292 21.9386 125.652 22.4399C125.022 22.9412 124.238 23.1919 123.3 23.1919ZM123.3 16.2639C122.734 16.2639 122.233 16.4346 121.796 16.7759C121.358 17.1066 121.092 17.6079 120.996 18.2799H125.476C125.444 17.6612 125.225 17.1706 124.82 16.8079C124.414 16.4452 123.908 16.2639 123.3 16.2639ZM131.619 23.1919C130.947 23.1919 130.393 23.0799 129.955 22.8559C129.518 22.6319 129.193 22.3386 128.979 21.9759C128.766 21.6026 128.659 21.1972 128.659 20.7599C128.659 19.9919 128.958 19.3839 129.555 18.9359C130.153 18.4879 131.006 18.2639 132.115 18.2639H134.195V18.1199C134.195 17.5012 134.025 17.0372 133.683 16.7279C133.353 16.4186 132.921 16.2639 132.387 16.2639C131.918 16.2639 131.507 16.3812 131.155 16.6159C130.814 16.8399 130.606 17.1759 130.531 17.6239H128.835C128.889 17.0479 129.081 16.5572 129.411 16.1519C129.753 15.7359 130.179 15.4212 130.691 15.2079C131.214 14.9839 131.785 14.8719 132.403 14.8719C133.513 14.8719 134.371 15.1652 134.979 15.7519C135.587 16.3279 135.891 17.1172 135.891 18.1199V22.9999H134.419L134.275 21.6399C134.051 22.0772 133.726 22.4452 133.299 22.7439C132.873 23.0426 132.313 23.1919 131.619 23.1919ZM131.955 21.8159C132.414 21.8159 132.798 21.7092 133.107 21.4959C133.427 21.2719 133.673 20.9786 133.843 20.6159C134.025 20.2532 134.137 19.8532 134.179 19.4159H132.291C131.619 19.4159 131.139 19.5332 130.851 19.7679C130.574 20.0026 130.435 20.2959 130.435 20.6479C130.435 21.0106 130.569 21.2986 130.835 21.5119C131.113 21.7146 131.486 21.8159 131.955 21.8159ZM141.041 22.9999C140.262 22.9999 139.643 22.8132 139.185 22.4399C138.726 22.0559 138.497 21.3786 138.497 20.4079V16.4879H137.137V15.0639H138.497L138.705 13.0479H140.193V15.0639H142.433V16.4879H140.193V20.4079C140.193 20.8452 140.283 21.1492 140.465 21.3199C140.657 21.4799 140.982 21.5599 141.441 21.5599H142.353V22.9999H141.041ZM147.69 23.1919C146.912 23.1919 146.218 23.0212 145.61 22.6799C145.013 22.3279 144.544 21.8426 144.202 21.2239C143.861 20.6052 143.69 19.8852 143.69 19.0639C143.69 18.2319 143.856 17.5012 144.186 16.8719C144.528 16.2426 144.997 15.7519 145.594 15.3999C146.202 15.0479 146.906 14.8719 147.706 14.8719C148.485 14.8719 149.162 15.0479 149.738 15.3999C150.314 15.7412 150.762 16.1999 151.082 16.7759C151.402 17.3519 151.562 17.9866 151.562 18.6799C151.562 18.7866 151.557 18.9039 151.546 19.0319C151.546 19.1492 151.541 19.2826 151.53 19.4319H145.354C145.408 20.1999 145.658 20.7866 146.106 21.1919C146.565 21.5866 147.093 21.7839 147.69 21.7839C148.17 21.7839 148.57 21.6772 148.89 21.4639C149.221 21.2399 149.466 20.9412 149.626 20.5679H151.322C151.109 21.3146 150.682 21.9386 150.042 22.4399C149.413 22.9412 148.629 23.1919 147.69 23.1919ZM147.69 16.2639C147.125 16.2639 146.624 16.4346 146.186 16.7759C145.749 17.1066 145.482 17.6079 145.386 18.2799H149.866C149.834 17.6612 149.616 17.1706 149.21 16.8079C148.805 16.4452 148.298 16.2639 147.69 16.2639Z" fill="#E5E7F3"/>
<path d="M103.036 47V37.2H106.2C106.965 37.2 107.591 37.326 108.076 37.578C108.561 37.83 108.921 38.1753 109.154 38.614C109.387 39.0527 109.504 39.538 109.504 40.07C109.504 40.686 109.336 41.2413 109 41.736C108.673 42.2307 108.16 42.5807 107.46 42.786L109.602 47H108.216L106.228 42.954H106.144H104.212V47H103.036ZM104.212 42.03H106.116C106.872 42.03 107.423 41.848 107.768 41.484C108.113 41.12 108.286 40.6533 108.286 40.084C108.286 39.5053 108.113 39.048 107.768 38.712C107.432 38.3667 106.877 38.194 106.102 38.194H104.212V42.03ZM113.799 47.168C112.977 47.168 112.324 46.9207 111.839 46.426C111.353 45.922 111.111 45.152 111.111 44.116V40.056H112.287V43.99C112.287 45.4367 112.879 46.16 114.065 46.16C114.671 46.16 115.171 45.9453 115.563 45.516C115.964 45.0773 116.165 44.4567 116.165 43.654V40.056H117.341V47H116.277L116.193 45.754C115.978 46.1927 115.656 46.538 115.227 46.79C114.807 47.042 114.331 47.168 113.799 47.168ZM119.277 47V40.056H120.341L120.411 41.302C120.635 40.8633 120.957 40.518 121.377 40.266C121.797 40.014 122.273 39.888 122.805 39.888C123.626 39.888 124.279 40.14 124.765 40.644C125.259 41.1387 125.507 41.904 125.507 42.94V47H124.331V43.066C124.331 41.6193 123.733 40.896 122.539 40.896C121.941 40.896 121.442 41.1153 121.041 41.554C120.649 41.9833 120.453 42.5993 120.453 43.402V47H119.277ZM131.749 50.08L133.471 46.328H133.065L130.307 40.056H131.581L133.877 45.46L136.313 40.056H137.531L132.981 50.08H131.749ZM141.28 47.168C140.627 47.168 140.039 47.0187 139.516 46.72C138.994 46.4213 138.578 46.0013 138.27 45.46C137.972 44.9093 137.822 44.2653 137.822 43.528C137.822 42.7907 137.976 42.1513 138.284 41.61C138.592 41.0593 139.008 40.6347 139.53 40.336C140.062 40.0373 140.655 39.888 141.308 39.888C141.962 39.888 142.55 40.0373 143.072 40.336C143.595 40.6347 144.006 41.0593 144.304 41.61C144.612 42.1513 144.766 42.7907 144.766 43.528C144.766 44.2653 144.612 44.9093 144.304 45.46C143.996 46.0013 143.576 46.4213 143.044 46.72C142.522 47.0187 141.934 47.168 141.28 47.168ZM141.28 46.16C141.682 46.16 142.055 46.062 142.4 45.866C142.746 45.67 143.026 45.376 143.24 44.984C143.455 44.592 143.562 44.1067 143.562 43.528C143.562 42.9493 143.455 42.464 143.24 42.072C143.035 41.68 142.76 41.386 142.414 41.19C142.069 40.994 141.7 40.896 141.308 40.896C140.907 40.896 140.534 40.994 140.188 41.19C139.843 41.386 139.563 41.68 139.348 42.072C139.134 42.464 139.026 42.9493 139.026 43.528C139.026 44.1067 139.134 44.592 139.348 44.984C139.563 45.376 139.838 45.67 140.174 45.866C140.52 46.062 140.888 46.16 141.28 46.16ZM148.936 47.168C148.114 47.168 147.461 46.9207 146.976 46.426C146.49 45.922 146.248 45.152 146.248 44.116V40.056H147.424V43.99C147.424 45.4367 148.016 46.16 149.202 46.16C149.808 46.16 150.308 45.9453 150.7 45.516C151.101 45.0773 151.302 44.4567 151.302 43.654V40.056H152.478V47H151.414L151.33 45.754C151.115 46.1927 150.793 46.538 150.364 46.79C149.944 47.042 149.468 47.168 148.936 47.168ZM154.413 47V40.056H155.477L155.575 41.386C155.79 40.9287 156.117 40.5647 156.555 40.294C156.994 40.0233 157.535 39.888 158.179 39.888V41.12H157.857C157.447 41.12 157.069 41.1947 156.723 41.344C156.378 41.484 156.103 41.7267 155.897 42.072C155.692 42.4173 155.589 42.8933 155.589 43.5V47H154.413ZM163.582 47V41.05H162.532V40.056H163.582V38.852C163.582 38.18 163.75 37.69 164.086 37.382C164.422 37.074 164.912 36.92 165.556 36.92H166.256V37.928H165.738C165.384 37.928 165.132 38.0027 164.982 38.152C164.833 38.292 164.758 38.5347 164.758 38.88V40.056H169.07V47H167.894V41.05H164.758V47H163.582ZM168.496 38.726C168.272 38.726 168.081 38.6513 167.922 38.502C167.764 38.3433 167.684 38.1473 167.684 37.914C167.684 37.69 167.764 37.5033 167.922 37.354C168.081 37.2047 168.272 37.13 168.496 37.13C168.73 37.13 168.921 37.2047 169.07 37.354C169.229 37.5033 169.308 37.69 169.308 37.914C169.308 38.1473 169.229 38.3433 169.07 38.502C168.921 38.6513 168.73 38.726 168.496 38.726ZM171.148 47V40.056H172.212L172.31 41.386C172.524 40.9287 172.851 40.5647 173.29 40.294C173.728 40.0233 174.27 39.888 174.914 39.888V41.12H174.592C174.181 41.12 173.803 41.1947 173.458 41.344C173.112 41.484 172.837 41.7267 172.632 42.072C172.426 42.4173 172.324 42.8933 172.324 43.5V47H171.148ZM178.894 47.168C178.063 47.168 177.372 46.958 176.822 46.538C176.271 46.118 175.949 45.5487 175.856 44.83H177.06C177.134 45.194 177.326 45.5113 177.634 45.782C177.951 46.0433 178.376 46.174 178.908 46.174C179.402 46.174 179.766 46.0713 180 45.866C180.233 45.6513 180.35 45.3993 180.35 45.11C180.35 44.69 180.196 44.41 179.888 44.27C179.589 44.13 179.164 44.004 178.614 43.892C178.24 43.8173 177.867 43.71 177.494 43.57C177.12 43.43 176.808 43.234 176.556 42.982C176.304 42.7207 176.178 42.38 176.178 41.96C176.178 41.3533 176.402 40.8587 176.85 40.476C177.307 40.084 177.923 39.888 178.698 39.888C179.435 39.888 180.037 40.0747 180.504 40.448C180.98 40.812 181.255 41.3347 181.33 42.016H180.168C180.121 41.6613 179.967 41.386 179.706 41.19C179.454 40.9847 179.113 40.882 178.684 40.882C178.264 40.882 177.937 40.9707 177.704 41.148C177.48 41.3253 177.368 41.5587 177.368 41.848C177.368 42.128 177.512 42.3473 177.802 42.506C178.1 42.6647 178.502 42.8 179.006 42.912C179.435 43.0053 179.841 43.122 180.224 43.262C180.616 43.3927 180.933 43.5933 181.176 43.864C181.428 44.1253 181.554 44.508 181.554 45.012C181.563 45.6373 181.325 46.1553 180.84 46.566C180.364 46.9673 179.715 47.168 178.894 47.168ZM185.663 47C185.028 47 184.529 46.846 184.165 46.538C183.801 46.23 183.619 45.6747 183.619 44.872V41.05H182.415V40.056H183.619L183.773 38.39H184.795V40.056H186.839V41.05H184.795V44.872C184.795 45.3107 184.884 45.6093 185.061 45.768C185.238 45.9173 185.551 45.992 185.999 45.992H186.727V47H185.663ZM193.438 47L191.408 40.056H192.584L194.054 45.502L195.678 40.056H197.008L198.646 45.502L200.102 40.056H201.292L199.262 47H198.058L196.35 41.274L194.642 47H193.438ZM205.497 47.168C204.844 47.168 204.256 47.0187 203.733 46.72C203.211 46.4213 202.795 46.0013 202.487 45.46C202.189 44.9093 202.039 44.2653 202.039 43.528C202.039 42.7907 202.193 42.1513 202.501 41.61C202.809 41.0593 203.225 40.6347 203.747 40.336C204.279 40.0373 204.872 39.888 205.525 39.888C206.179 39.888 206.767 40.0373 207.289 40.336C207.812 40.6347 208.223 41.0593 208.521 41.61C208.829 42.1513 208.983 42.7907 208.983 43.528C208.983 44.2653 208.829 44.9093 208.521 45.46C208.213 46.0013 207.793 46.4213 207.261 46.72C206.739 47.0187 206.151 47.168 205.497 47.168ZM205.497 46.16C205.899 46.16 206.272 46.062 206.617 45.866C206.963 45.67 207.243 45.376 207.457 44.984C207.672 44.592 207.779 44.1067 207.779 43.528C207.779 42.9493 207.672 42.464 207.457 42.072C207.252 41.68 206.977 41.386 206.631 41.19C206.286 40.994 205.917 40.896 205.525 40.896C205.124 40.896 204.751 40.994 204.405 41.19C204.06 41.386 203.78 41.68 203.565 42.072C203.351 42.464 203.243 42.9493 203.243 43.528C203.243 44.1067 203.351 44.592 203.565 44.984C203.78 45.376 204.055 45.67 204.391 45.866C204.737 46.062 205.105 46.16 205.497 46.16ZM210.618 47V40.056H211.682L211.78 41.386C211.995 40.9287 212.322 40.5647 212.76 40.294C213.199 40.0233 213.74 39.888 214.384 39.888V41.12H214.062C213.652 41.12 213.274 41.1947 212.928 41.344C212.583 41.484 212.308 41.7267 212.102 42.072C211.897 42.4173 211.794 42.8933 211.794 43.5V47H210.618ZM215.704 47V36.92H216.88V42.982L219.722 40.056H221.164L218.084 43.192L221.556 47H220.058L216.88 43.402V47H215.704ZM223.137 47V41.05H222.087V40.056H223.137V38.852C223.137 38.18 223.305 37.69 223.641 37.382C223.977 37.074 224.467 36.92 225.111 36.92H225.811V37.928H225.293C224.938 37.928 224.686 38.0027 224.537 38.152C224.388 38.292 224.313 38.5347 224.313 38.88V40.056H226.021V41.05H224.313V47H223.137ZM227.421 47V36.92H228.597V47H227.421ZM233.689 47.168C233.035 47.168 232.447 47.0187 231.925 46.72C231.402 46.4213 230.987 46.0013 230.679 45.46C230.38 44.9093 230.231 44.2653 230.231 43.528C230.231 42.7907 230.385 42.1513 230.693 41.61C231.001 41.0593 231.416 40.6347 231.939 40.336C232.471 40.0373 233.063 39.888 233.717 39.888C234.37 39.888 234.958 40.0373 235.481 40.336C236.003 40.6347 236.414 41.0593 236.713 41.61C237.021 42.1513 237.175 42.7907 237.175 43.528C237.175 44.2653 237.021 44.9093 236.713 45.46C236.405 46.0013 235.985 46.4213 235.453 46.72C234.93 47.0187 234.342 47.168 233.689 47.168ZM233.689 46.16C234.09 46.16 234.463 46.062 234.809 45.866C235.154 45.67 235.434 45.376 235.649 44.984C235.863 44.592 235.971 44.1067 235.971 43.528C235.971 42.9493 235.863 42.464 235.649 42.072C235.443 41.68 235.168 41.386 234.823 41.19C234.477 40.994 234.109 40.896 233.717 40.896C233.315 40.896 232.942 40.994 232.597 41.19C232.251 41.386 231.971 41.68 231.757 42.072C231.542 42.464 231.435 42.9493 231.435 43.528C231.435 44.1067 231.542 44.592 231.757 44.984C231.971 45.376 232.247 45.67 232.583 45.866C232.928 46.062 233.297 46.16 233.689 46.16ZM239.95 47L237.92 40.056H239.096L240.566 45.502L242.19 40.056H243.52L245.158 45.502L246.614 40.056H247.804L245.774 47H244.57L242.862 41.274L241.154 47H239.95ZM253.524 38.516C253.29 38.516 253.094 38.4413 252.936 38.292C252.786 38.1333 252.712 37.9373 252.712 37.704C252.712 37.48 252.786 37.2933 252.936 37.144C253.094 36.9947 253.29 36.92 253.524 36.92C253.748 36.92 253.939 36.9947 254.098 37.144C254.256 37.2933 254.336 37.48 254.336 37.704C254.336 37.9373 254.256 38.1333 254.098 38.292C253.939 38.4413 253.748 38.516 253.524 38.516ZM252.936 47V40.056H254.112V47H252.936ZM256.159 47V40.056H257.223L257.293 41.302C257.517 40.8633 257.839 40.518 258.259 40.266C258.679 40.014 259.155 39.888 259.687 39.888C260.509 39.888 261.162 40.14 261.647 40.644C262.142 41.1387 262.389 41.904 262.389 42.94V47H261.213V43.066C261.213 41.6193 260.616 40.896 259.421 40.896C258.824 40.896 258.325 41.1153 257.923 41.554C257.531 41.9833 257.335 42.5993 257.335 43.402V47H256.159ZM102.966 65V54.92H104.142V65H102.966ZM109.192 65.168C108.529 65.168 107.941 65.0187 107.428 64.72C106.914 64.412 106.508 63.9873 106.21 63.446C105.92 62.9047 105.776 62.2653 105.776 61.528C105.776 60.8 105.92 60.1653 106.21 59.624C106.499 59.0733 106.9 58.6487 107.414 58.35C107.936 58.042 108.538 57.888 109.22 57.888C109.892 57.888 110.47 58.042 110.956 58.35C111.45 58.6487 111.828 59.0453 112.09 59.54C112.351 60.0347 112.482 60.5667 112.482 61.136C112.482 61.2387 112.477 61.3413 112.468 61.444C112.468 61.5467 112.468 61.6633 112.468 61.794H106.938C106.966 62.326 107.087 62.7693 107.302 63.124C107.526 63.4693 107.801 63.7307 108.128 63.908C108.464 64.0853 108.818 64.174 109.192 64.174C109.677 64.174 110.083 64.062 110.41 63.838C110.736 63.614 110.974 63.3107 111.124 62.928H112.286C112.099 63.572 111.74 64.1087 111.208 64.538C110.685 64.958 110.013 65.168 109.192 65.168ZM109.192 58.882C108.632 58.882 108.132 59.0547 107.694 59.4C107.264 59.736 107.017 60.2307 106.952 60.884H111.32C111.292 60.2587 111.077 59.7687 110.676 59.414C110.274 59.0593 109.78 58.882 109.192 58.882ZM116.7 65.168C115.87 65.168 115.179 64.958 114.628 64.538C114.078 64.118 113.756 63.5487 113.662 62.83H114.866C114.941 63.194 115.132 63.5113 115.44 63.782C115.758 64.0433 116.182 64.174 116.714 64.174C117.209 64.174 117.573 64.0713 117.806 63.866C118.04 63.6513 118.156 63.3993 118.156 63.11C118.156 62.69 118.002 62.41 117.694 62.27C117.396 62.13 116.971 62.004 116.42 61.892C116.047 61.8173 115.674 61.71 115.3 61.57C114.927 61.43 114.614 61.234 114.362 60.982C114.11 60.7207 113.984 60.38 113.984 59.96C113.984 59.3533 114.208 58.8587 114.656 58.476C115.114 58.084 115.73 57.888 116.504 57.888C117.242 57.888 117.844 58.0747 118.31 58.448C118.786 58.812 119.062 59.3347 119.136 60.016H117.974C117.928 59.6613 117.774 59.386 117.512 59.19C117.26 58.9847 116.92 58.882 116.49 58.882C116.07 58.882 115.744 58.9707 115.51 59.148C115.286 59.3253 115.174 59.5587 115.174 59.848C115.174 60.128 115.319 60.3473 115.608 60.506C115.907 60.6647 116.308 60.8 116.812 60.912C117.242 61.0053 117.648 61.122 118.03 61.262C118.422 61.3927 118.74 61.5933 118.982 61.864C119.234 62.1253 119.36 62.508 119.36 63.012C119.37 63.6373 119.132 64.1553 118.646 64.566C118.17 64.9673 117.522 65.168 116.7 65.168ZM123.7 65.168C122.87 65.168 122.179 64.958 121.628 64.538C121.078 64.118 120.756 63.5487 120.662 62.83H121.866C121.941 63.194 122.132 63.5113 122.44 63.782C122.758 64.0433 123.182 64.174 123.714 64.174C124.209 64.174 124.573 64.0713 124.806 63.866C125.04 63.6513 125.156 63.3993 125.156 63.11C125.156 62.69 125.002 62.41 124.694 62.27C124.396 62.13 123.971 62.004 123.42 61.892C123.047 61.8173 122.674 61.71 122.3 61.57C121.927 61.43 121.614 61.234 121.362 60.982C121.11 60.7207 120.984 60.38 120.984 59.96C120.984 59.3533 121.208 58.8587 121.656 58.476C122.114 58.084 122.73 57.888 123.504 57.888C124.242 57.888 124.844 58.0747 125.31 58.448C125.786 58.812 126.062 59.3347 126.136 60.016H124.974C124.928 59.6613 124.774 59.386 124.512 59.19C124.26 58.9847 123.92 58.882 123.49 58.882C123.07 58.882 122.744 58.9707 122.51 59.148C122.286 59.3253 122.174 59.5587 122.174 59.848C122.174 60.128 122.319 60.3473 122.608 60.506C122.907 60.6647 123.308 60.8 123.812 60.912C124.242 61.0053 124.648 61.122 125.03 61.262C125.422 61.3927 125.74 61.5933 125.982 61.864C126.234 62.1253 126.36 62.508 126.36 63.012C126.37 63.6373 126.132 64.1553 125.646 64.566C125.17 64.9673 124.522 65.168 123.7 65.168ZM134.489 65C133.855 65 133.355 64.846 132.991 64.538C132.627 64.23 132.445 63.6747 132.445 62.872V59.05H131.241V58.056H132.445L132.599 56.39H133.621V58.056H135.665V59.05H133.621V62.872C133.621 63.3107 133.71 63.6093 133.887 63.768C134.065 63.9173 134.377 63.992 134.825 63.992H135.553V65H134.489ZM137.159 65V54.92H138.335V59.246C138.569 58.8167 138.9 58.4853 139.329 58.252C139.759 58.0093 140.225 57.888 140.729 57.888C141.532 57.888 142.176 58.14 142.661 58.644C143.147 59.1387 143.389 59.904 143.389 60.94V65H142.227V61.066C142.227 59.6193 141.644 58.896 140.477 58.896C139.871 58.896 139.362 59.1153 138.951 59.554C138.541 59.9833 138.335 60.5993 138.335 61.402V65H137.159ZM147.481 65.168C146.902 65.168 146.422 65.07 146.039 64.874C145.656 64.678 145.372 64.4167 145.185 64.09C144.998 63.7633 144.905 63.4087 144.905 63.026C144.905 62.3167 145.176 61.7707 145.717 61.388C146.258 61.0053 146.996 60.814 147.929 60.814H149.805V60.73C149.805 60.1233 149.646 59.666 149.329 59.358C149.012 59.0407 148.587 58.882 148.055 58.882C147.598 58.882 147.201 58.9987 146.865 59.232C146.538 59.456 146.333 59.7873 146.249 60.226H145.045C145.092 59.722 145.26 59.2973 145.549 58.952C145.848 58.6067 146.216 58.3453 146.655 58.168C147.094 57.9813 147.56 57.888 148.055 57.888C149.026 57.888 149.754 58.1493 150.239 58.672C150.734 59.1853 150.981 59.8713 150.981 60.73V65H149.931L149.861 63.754C149.665 64.146 149.376 64.482 148.993 64.762C148.62 65.0327 148.116 65.168 147.481 65.168ZM147.663 64.174C148.111 64.174 148.494 64.0573 148.811 63.824C149.138 63.5907 149.385 63.2873 149.553 62.914C149.721 62.5407 149.805 62.1487 149.805 61.738V61.724H148.027C147.336 61.724 146.846 61.8453 146.557 62.088C146.277 62.3213 146.137 62.6153 146.137 62.97C146.137 63.334 146.268 63.628 146.529 63.852C146.8 64.0667 147.178 64.174 147.663 64.174ZM152.745 65V58.056H153.809L153.879 59.302C154.103 58.8633 154.425 58.518 154.845 58.266C155.265 58.014 155.741 57.888 156.273 57.888C157.095 57.888 157.748 58.14 158.233 58.644C158.728 59.1387 158.975 59.904 158.975 60.94V65H157.799V61.066C157.799 59.6193 157.202 58.896 156.007 58.896C155.41 58.896 154.911 59.1153 154.509 59.554C154.117 59.9833 153.921 60.5993 153.921 61.402V65H152.745ZM167.206 65C166.571 65 166.072 64.846 165.708 64.538C165.344 64.23 165.162 63.6747 165.162 62.872V59.05H163.958V58.056H165.162L165.316 56.39H166.338V58.056H168.382V59.05H166.338V62.872C166.338 63.3107 166.427 63.6093 166.604 63.768C166.781 63.9173 167.094 63.992 167.542 63.992H168.27V65H167.206ZM171.276 65L169.246 58.056H170.422L171.892 63.502L173.516 58.056H174.846L176.484 63.502L177.94 58.056H179.13L177.1 65H175.896L174.188 59.274L172.48 65H171.276ZM183.335 65.168C182.682 65.168 182.094 65.0187 181.571 64.72C181.048 64.4213 180.633 64.0013 180.325 63.46C180.026 62.9093 179.877 62.2653 179.877 61.528C179.877 60.7907 180.031 60.1513 180.339 59.61C180.647 59.0593 181.062 58.6347 181.585 58.336C182.117 58.0373 182.71 57.888 183.363 57.888C184.016 57.888 184.604 58.0373 185.127 58.336C185.65 58.6347 186.06 59.0593 186.359 59.61C186.667 60.1513 186.821 60.7907 186.821 61.528C186.821 62.2653 186.667 62.9093 186.359 63.46C186.051 64.0013 185.631 64.4213 185.099 64.72C184.576 65.0187 183.988 65.168 183.335 65.168ZM183.335 64.16C183.736 64.16 184.11 64.062 184.455 63.866C184.8 63.67 185.08 63.376 185.295 62.984C185.51 62.592 185.617 62.1067 185.617 61.528C185.617 60.9493 185.51 60.464 185.295 60.072C185.09 59.68 184.814 59.386 184.469 59.19C184.124 58.994 183.755 58.896 183.363 58.896C182.962 58.896 182.588 58.994 182.243 59.19C181.898 59.386 181.618 59.68 181.403 60.072C181.188 60.464 181.081 60.9493 181.081 61.528C181.081 62.1067 181.188 62.592 181.403 62.984C181.618 63.376 181.893 63.67 182.229 63.866C182.574 64.062 182.943 64.16 183.335 64.16ZM192.161 65V58.056H193.225L193.309 59.064C193.533 58.6907 193.832 58.4013 194.205 58.196C194.579 57.9907 194.999 57.888 195.465 57.888C196.016 57.888 196.487 58 196.879 58.224C197.281 58.448 197.589 58.7887 197.803 59.246C198.046 58.826 198.377 58.4947 198.797 58.252C199.227 58.0093 199.689 57.888 200.183 57.888C201.014 57.888 201.677 58.14 202.171 58.644C202.666 59.1387 202.913 59.904 202.913 60.94V65H201.751V61.066C201.751 60.3473 201.607 59.806 201.317 59.442C201.028 59.078 200.613 58.896 200.071 58.896C199.511 58.896 199.045 59.1153 198.671 59.554C198.307 59.9833 198.125 60.5993 198.125 61.402V65H196.949V61.066C196.949 60.3473 196.805 59.806 196.515 59.442C196.226 59.078 195.811 58.896 195.269 58.896C194.719 58.896 194.257 59.1153 193.883 59.554C193.519 59.9833 193.337 60.5993 193.337 61.402V65H192.161ZM205.399 56.516C205.165 56.516 204.969 56.4413 204.811 56.292C204.661 56.1333 204.587 55.9373 204.587 55.704C204.587 55.48 204.661 55.2933 204.811 55.144C204.969 54.9947 205.165 54.92 205.399 54.92C205.623 54.92 205.814 54.9947 205.973 55.144C206.131 55.2933 206.211 55.48 206.211 55.704C206.211 55.9373 206.131 56.1333 205.973 56.292C205.814 56.4413 205.623 56.516 205.399 56.516ZM204.811 65V58.056H205.987V65H204.811ZM208.034 65V58.056H209.098L209.168 59.302C209.392 58.8633 209.714 58.518 210.134 58.266C210.554 58.014 211.03 57.888 211.562 57.888C212.384 57.888 213.037 58.14 213.522 58.644C214.017 59.1387 214.264 59.904 214.264 60.94V65H213.088V61.066C213.088 59.6193 212.491 58.896 211.296 58.896C210.699 58.896 210.2 59.1153 209.798 59.554C209.406 59.9833 209.21 60.5993 209.21 61.402V65H208.034ZM218.58 65.168C217.759 65.168 217.105 64.9207 216.62 64.426C216.135 63.922 215.892 63.152 215.892 62.116V58.056H217.068V61.99C217.068 63.4367 217.661 64.16 218.846 64.16C219.453 64.16 219.952 63.9453 220.344 63.516C220.745 63.0773 220.946 62.4567 220.946 61.654V58.056H222.122V65H221.058L220.974 63.754C220.759 64.1927 220.437 64.538 220.008 64.79C219.588 65.042 219.112 65.168 218.58 65.168ZM226.802 65C226.167 65 225.668 64.846 225.304 64.538C224.94 64.23 224.758 63.6747 224.758 62.872V59.05H223.554V58.056H224.758L224.912 56.39H225.934V58.056H227.978V59.05H225.934V62.872C225.934 63.3107 226.022 63.6093 226.2 63.768C226.377 63.9173 226.69 63.992 227.138 63.992H227.866V65H226.802ZM232.402 65.168C231.74 65.168 231.152 65.0187 230.638 64.72C230.125 64.412 229.719 63.9873 229.42 63.446C229.131 62.9047 228.986 62.2653 228.986 61.528C228.986 60.8 229.131 60.1653 229.42 59.624C229.71 59.0733 230.111 58.6487 230.624 58.35C231.147 58.042 231.749 57.888 232.43 57.888C233.102 57.888 233.681 58.042 234.166 58.35C234.661 58.6487 235.039 59.0453 235.3 59.54C235.562 60.0347 235.692 60.5667 235.692 61.136C235.692 61.2387 235.688 61.3413 235.678 61.444C235.678 61.5467 235.678 61.6633 235.678 61.794H230.148C230.176 62.326 230.298 62.7693 230.512 63.124C230.736 63.4693 231.012 63.7307 231.338 63.908C231.674 64.0853 232.029 64.174 232.402 64.174C232.888 64.174 233.294 64.062 233.62 63.838C233.947 63.614 234.185 63.3107 234.334 62.928H235.496C235.31 63.572 234.95 64.1087 234.418 64.538C233.896 64.958 233.224 65.168 232.402 65.168ZM232.402 58.882C231.842 58.882 231.343 59.0547 230.904 59.4C230.475 59.736 230.228 60.2307 230.162 60.884H234.53C234.502 60.2587 234.288 59.7687 233.886 59.414C233.485 59.0593 232.99 58.882 232.402 58.882ZM239.911 65.168C239.08 65.168 238.39 64.958 237.839 64.538C237.288 64.118 236.966 63.5487 236.873 62.83H238.077C238.152 63.194 238.343 63.5113 238.651 63.782C238.968 64.0433 239.393 64.174 239.925 64.174C240.42 64.174 240.784 64.0713 241.017 63.866C241.25 63.6513 241.367 63.3993 241.367 63.11C241.367 62.69 241.213 62.41 240.905 62.27C240.606 62.13 240.182 62.004 239.631 61.892C239.258 61.8173 238.884 61.71 238.511 61.57C238.138 61.43 237.825 61.234 237.573 60.982C237.321 60.7207 237.195 60.38 237.195 59.96C237.195 59.3533 237.419 58.8587 237.867 58.476C238.324 58.084 238.94 57.888 239.715 57.888C240.452 57.888 241.054 58.0747 241.521 58.448C241.997 58.812 242.272 59.3347 242.347 60.016H241.185C241.138 59.6613 240.984 59.386 240.723 59.19C240.471 58.9847 240.13 58.882 239.701 58.882C239.281 58.882 238.954 58.9707 238.721 59.148C238.497 59.3253 238.385 59.5587 238.385 59.848C238.385 60.128 238.53 60.3473 238.819 60.506C239.118 60.6647 239.519 60.8 240.023 60.912C240.452 61.0053 240.858 61.122 241.241 61.262C241.633 61.3927 241.95 61.5933 242.193 61.864C242.445 62.1253 242.571 62.508 242.571 63.012C242.58 63.6373 242.342 64.1553 241.857 64.566C241.381 64.9673 240.732 65.168 239.911 65.168Z" fill="#AEB6FF"/>
</svg>
