<svg width="64" height="36" viewBox="0 0 18 21" fill="none" xmlns="http://www.w3.org/2000/svg">
<path d="M4.43569 6.60993L10.0969 3.35286C10.1529 3.32055 10.1874 3.2613 10.1874 3.19667L10.188 1.24364C10.188 0.954829 10.0692 0.668034 9.83764 0.493669C9.53854 0.268138 9.15438 0.245922 8.8384 0.427693L0.919463 4.98342C0.641297 5.14364 0.469131 5.43986 0.469131 5.76032L0.466431 16.0499C0.466431 16.3387 0.585259 16.6248 0.816163 16.7999C1.11526 17.0261 1.5001 17.0483 1.81607 16.8665L3.49317 15.9018C3.54921 15.8695 3.58364 15.8102 3.58364 15.7456L3.58567 8.07689C3.58567 7.47166 3.90974 6.91221 4.43569 6.60993Z" fill="white"/>
<path d="M18.0064 5.13357C17.8653 5.05211 17.7107 5.01172 17.5561 5.01172C17.4015 5.01172 17.2468 5.05211 17.1064 5.13357L9.18747 9.68997C8.90998 9.84952 8.73714 10.1471 8.73714 10.4669L8.73444 20.7955C8.73444 21.12 8.90255 21.4108 9.18409 21.5731C9.46563 21.7353 9.80254 21.7353 10.0841 21.5731L18.003 17.0167C18.2805 16.8571 18.4534 16.5596 18.4534 16.2398L18.4567 5.91115C18.4561 5.58598 18.2879 5.29582 18.0064 5.13357Z" fill="white"/>
<path d="M8.78774 8.9977L14.0135 5.99107C14.0695 5.95875 14.1039 5.89951 14.1039 5.83488L14.1046 3.56005C14.1046 3.27056 13.9851 2.98444 13.7542 2.81007C13.4551 2.58454 13.0709 2.56233 12.755 2.7441L10.587 3.99159L4.83536 7.30049C4.55719 7.46072 4.38502 7.75694 4.38502 8.0774L4.383 15.8498L4.38232 18.367C4.38232 18.6558 4.50115 18.9426 4.73206 19.117C5.03115 19.3432 5.41599 19.3654 5.73197 19.1836L7.84454 17.9684C7.90058 17.9361 7.93501 17.8769 7.93501 17.8123L7.93704 10.466C7.93704 9.8601 8.26111 9.30065 8.78774 8.9977Z" fill="white"/>
</svg>
