<svg viewBox="0 0 396 117" fill="none" xmlns="http://www.w3.org/2000/svg">
<path d="M11.28 30.02L7.5 16H9.78L12.56 27.6L15.76 16H18.1L21.2 27.6L23.98 16H26.26L22.42 30H19.94L16.88 19.02L13.72 30L11.28 30.02ZM31.73 30.24C30.7567 30.24 29.89 30.0267 29.13 29.6C28.3833 29.16 27.7967 28.5533 27.37 27.78C26.9433 27.0067 26.73 26.1067 26.73 25.08C26.73 24.04 26.9367 23.1267 27.35 22.34C27.7767 21.5533 28.3633 20.94 29.11 20.5C29.87 20.06 30.75 19.84 31.75 19.84C32.7233 19.84 33.57 20.06 34.29 20.5C35.01 20.9267 35.57 21.5 35.97 22.22C36.37 22.94 36.57 23.7333 36.57 24.6C36.57 24.7333 36.5633 24.88 36.55 25.04C36.55 25.1867 36.5433 25.3533 36.53 25.54H28.81C28.8767 26.5 29.19 27.2333 29.75 27.74C30.3233 28.2333 30.9833 28.48 31.73 28.48C32.33 28.48 32.83 28.3467 33.23 28.08C33.6433 27.8 33.95 27.4267 34.15 26.96H36.27C36.0033 27.8933 35.47 28.6733 34.67 29.3C33.8833 29.9267 32.9033 30.24 31.73 30.24ZM31.73 21.58C31.0233 21.58 30.3967 21.7933 29.85 22.22C29.3033 22.6333 28.97 23.26 28.85 24.1H34.45C34.41 23.3267 34.1367 22.7133 33.63 22.26C33.1233 21.8067 32.49 21.58 31.73 21.58ZM38.7697 30V15.6H40.8897V30H38.7697ZM48.2744 30.24C47.301 30.24 46.4277 30.02 45.6544 29.58C44.8944 29.14 44.2944 28.5333 43.8544 27.76C43.4277 26.9733 43.2144 26.0667 43.2144 25.04C43.2144 24.0133 43.4277 23.1133 43.8544 22.34C44.2944 21.5533 44.8944 20.94 45.6544 20.5C46.4277 20.06 47.301 19.84 48.2744 19.84C49.501 19.84 50.5277 20.16 51.3544 20.8C52.1944 21.44 52.7344 22.3067 52.9744 23.4H50.7544C50.621 22.8533 50.3277 22.4267 49.8744 22.12C49.421 21.8133 48.8877 21.66 48.2744 21.66C47.7544 21.66 47.2744 21.7933 46.8344 22.06C46.3944 22.3133 46.041 22.6933 45.7744 23.2C45.5077 23.6933 45.3744 24.3067 45.3744 25.04C45.3744 25.7733 45.5077 26.3933 45.7744 26.9C46.041 27.3933 46.3944 27.7733 46.8344 28.04C47.2744 28.3067 47.7544 28.44 48.2744 28.44C48.8877 28.44 49.421 28.2867 49.8744 27.98C50.3277 27.6733 50.621 27.24 50.7544 26.68H52.9744C52.7477 27.7467 52.2144 28.6067 51.3744 29.26C50.5344 29.9133 49.501 30.24 48.2744 30.24ZM59.9136 30.24C58.9669 30.24 58.1136 30.0267 57.3536 29.6C56.6069 29.16 56.0136 28.5533 55.5736 27.78C55.1336 26.9933 54.9136 26.08 54.9136 25.04C54.9136 24 55.1336 23.0933 55.5736 22.32C56.0269 21.5333 56.6336 20.9267 57.3936 20.5C58.1536 20.06 59.0003 19.84 59.9336 19.84C60.8803 19.84 61.7269 20.06 62.4736 20.5C63.2336 20.9267 63.8336 21.5333 64.2736 22.32C64.7269 23.0933 64.9536 24 64.9536 25.04C64.9536 26.08 64.7269 26.9933 64.2736 27.78C63.8336 28.5533 63.2336 29.16 62.4736 29.6C61.7136 30.0267 60.8603 30.24 59.9136 30.24ZM59.9136 28.42C60.4203 28.42 60.8869 28.2933 61.3136 28.04C61.7536 27.7867 62.1069 27.4133 62.3736 26.92C62.6403 26.4133 62.7736 25.7867 62.7736 25.04C62.7736 24.2933 62.6403 23.6733 62.3736 23.18C62.1203 22.6733 61.7736 22.2933 61.3336 22.04C60.9069 21.7867 60.4403 21.66 59.9336 21.66C59.4269 21.66 58.9536 21.7867 58.5136 22.04C58.0869 22.2933 57.7403 22.6733 57.4736 23.18C57.2069 23.6733 57.0736 24.2933 57.0736 25.04C57.0736 25.7867 57.2069 26.4133 57.4736 26.92C57.7403 27.4133 58.0869 27.7867 58.5136 28.04C58.9403 28.2933 59.4069 28.42 59.9136 28.42ZM67.2463 30V20.08H69.1263L69.3063 21.48C69.6263 20.9733 70.0463 20.5733 70.5663 20.28C71.0996 19.9867 71.7129 19.84 72.4063 19.84C73.9796 19.84 75.0729 20.46 75.6863 21.7C76.0463 21.1267 76.5263 20.6733 77.1263 20.34C77.7396 20.0067 78.3996 19.84 79.1063 19.84C80.3463 19.84 81.3196 20.2133 82.0263 20.96C82.7329 21.7067 83.0863 22.82 83.0863 24.3V30H80.9663V24.52C80.9663 22.6 80.2329 21.64 78.7663 21.64C78.0196 21.64 77.4063 21.92 76.9262 22.48C76.4596 23.04 76.2263 23.84 76.2263 24.88V30H74.1063V24.52C74.1063 22.6 73.3663 21.64 71.8863 21.64C71.1529 21.64 70.5463 21.92 70.0663 22.48C69.5996 23.04 69.3663 23.84 69.3663 24.88V30H67.2463ZM90.2066 30.24C89.2332 30.24 88.3666 30.0267 87.6066 29.6C86.8599 29.16 86.2732 28.5533 85.8466 27.78C85.4199 27.0067 85.2066 26.1067 85.2066 25.08C85.2066 24.04 85.4132 23.1267 85.8266 22.34C86.2532 21.5533 86.8399 20.94 87.5866 20.5C88.3466 20.06 89.2266 19.84 90.2266 19.84C91.1999 19.84 92.0466 20.06 92.7666 20.5C93.4866 20.9267 94.0466 21.5 94.4466 22.22C94.8466 22.94 95.0466 23.7333 95.0466 24.6C95.0466 24.7333 95.0399 24.88 95.0266 25.04C95.0266 25.1867 95.0199 25.3533 95.0066 25.54H87.2866C87.3532 26.5 87.6666 27.2333 88.2266 27.74C88.7999 28.2333 89.4599 28.48 90.2066 28.48C90.8066 28.48 91.3066 28.3467 91.7066 28.08C92.1199 27.8 92.4266 27.4267 92.6266 26.96H94.7466C94.4799 27.8933 93.9466 28.6733 93.1466 29.3C92.3599 29.9267 91.3799 30.24 90.2066 30.24ZM90.2066 21.58C89.4999 21.58 88.8732 21.7933 88.3266 22.22C87.7799 22.6333 87.4466 23.26 87.3266 24.1H92.9266C92.8866 23.3267 92.6132 22.7133 92.1066 22.26C91.5999 21.8067 90.9666 21.58 90.2066 21.58ZM106.445 30C105.472 30 104.699 29.7667 104.125 29.3C103.552 28.82 103.265 27.9733 103.265 26.76V21.86H101.565V20.08H103.265L103.525 17.56H105.385V20.08H108.185V21.86H105.385V26.76C105.385 27.3067 105.499 27.6867 105.725 27.9C105.965 28.1 106.372 28.2 106.945 28.2H108.085V30H106.445ZM114.757 30.24C113.811 30.24 112.957 30.0267 112.197 29.6C111.451 29.16 110.857 28.5533 110.417 27.78C109.977 26.9933 109.757 26.08 109.757 25.04C109.757 24 109.977 23.0933 110.417 22.32C110.871 21.5333 111.477 20.9267 112.237 20.5C112.997 20.06 113.844 19.84 114.777 19.84C115.724 19.84 116.571 20.06 117.317 20.5C118.077 20.9267 118.677 21.5333 119.117 22.32C119.571 23.0933 119.797 24 119.797 25.04C119.797 26.08 119.571 26.9933 119.117 27.78C118.677 28.5533 118.077 29.16 117.317 29.6C116.557 30.0267 115.704 30.24 114.757 30.24ZM114.757 28.42C115.264 28.42 115.731 28.2933 116.157 28.04C116.597 27.7867 116.951 27.4133 117.217 26.92C117.484 26.4133 117.617 25.7867 117.617 25.04C117.617 24.2933 117.484 23.6733 117.217 23.18C116.964 22.6733 116.617 22.2933 116.177 22.04C115.751 21.7867 115.284 21.66 114.777 21.66C114.271 21.66 113.797 21.7867 113.357 22.04C112.931 22.2933 112.584 22.6733 112.317 23.18C112.051 23.6733 111.917 24.2933 111.917 25.04C111.917 25.7867 112.051 26.4133 112.317 26.92C112.584 27.4133 112.931 27.7867 113.357 28.04C113.784 28.2933 114.251 28.42 114.757 28.42ZM131.289 30C130.316 30 129.542 29.7667 128.969 29.3C128.396 28.82 128.109 27.9733 128.109 26.76V21.86H126.409V20.08H128.109L128.369 17.56H130.229V20.08H133.029V21.86H130.229V26.76C130.229 27.3067 130.342 27.6867 130.569 27.9C130.809 28.1 131.216 28.2 131.789 28.2H132.929V30H131.289ZM135.215 30V15.6H137.335V21.68C137.668 21.1067 138.128 20.66 138.715 20.34C139.315 20.0067 139.975 19.84 140.695 19.84C141.882 19.84 142.815 20.2133 143.495 20.96C144.175 21.7067 144.515 22.82 144.515 24.3V30H142.415V24.52C142.415 22.6 141.648 21.64 140.115 21.64C139.315 21.64 138.648 21.92 138.115 22.48C137.595 23.04 137.335 23.84 137.335 24.88V30H135.215ZM151.652 30.24C150.679 30.24 149.812 30.0267 149.052 29.6C148.305 29.16 147.719 28.5533 147.292 27.78C146.865 27.0067 146.652 26.1067 146.652 25.08C146.652 24.04 146.859 23.1267 147.272 22.34C147.699 21.5533 148.285 20.94 149.032 20.5C149.792 20.06 150.672 19.84 151.672 19.84C152.645 19.84 153.492 20.06 154.212 20.5C154.932 20.9267 155.492 21.5 155.892 22.22C156.292 22.94 156.492 23.7333 156.492 24.6C156.492 24.7333 156.485 24.88 156.472 25.04C156.472 25.1867 156.465 25.3533 156.452 25.54H148.732C148.799 26.5 149.112 27.2333 149.672 27.74C150.245 28.2333 150.905 28.48 151.652 28.48C152.252 28.48 152.752 28.3467 153.152 28.08C153.565 27.8 153.872 27.4267 154.072 26.96H156.192C155.925 27.8933 155.392 28.6733 154.592 29.3C153.805 29.9267 152.825 30.24 151.652 30.24ZM151.652 21.58C150.945 21.58 150.319 21.7933 149.772 22.22C149.225 22.6333 148.892 23.26 148.772 24.1H154.372C154.332 23.3267 154.059 22.7133 153.552 22.26C153.045 21.8067 152.412 21.58 151.652 21.58ZM170.051 30.24C168.664 30.24 167.464 29.94 166.451 29.34C165.451 28.7267 164.677 27.88 164.131 26.8C163.584 25.7067 163.311 24.4467 163.311 23.02C163.311 21.58 163.584 20.32 164.131 19.24C164.677 18.1467 165.451 17.2933 166.451 16.68C167.464 16.0667 168.664 15.76 170.051 15.76C171.691 15.76 173.031 16.16 174.071 16.96C175.111 17.76 175.771 18.88 176.051 20.32H173.691C173.504 19.5067 173.104 18.86 172.491 18.38C171.877 17.9 171.057 17.66 170.031 17.66C168.631 17.66 167.524 18.14 166.711 19.1C165.897 20.0467 165.491 21.3533 165.491 23.02C165.491 24.6733 165.897 25.9733 166.711 26.92C167.524 27.8667 168.631 28.34 170.031 28.34C171.057 28.34 171.877 28.1133 172.491 27.66C173.104 27.2067 173.504 26.5867 173.691 25.8H176.051C175.771 27.1867 175.111 28.2733 174.071 29.06C173.031 29.8467 171.691 30.24 170.051 30.24ZM182.941 30.24C181.994 30.24 181.141 30.0267 180.381 29.6C179.634 29.16 179.041 28.5533 178.601 27.78C178.161 26.9933 177.941 26.08 177.941 25.04C177.941 24 178.161 23.0933 178.601 22.32C179.054 21.5333 179.661 20.9267 180.421 20.5C181.181 20.06 182.028 19.84 182.961 19.84C183.908 19.84 184.754 20.06 185.501 20.5C186.261 20.9267 186.861 21.5333 187.301 22.32C187.754 23.0933 187.981 24 187.981 25.04C187.981 26.08 187.754 26.9933 187.301 27.78C186.861 28.5533 186.261 29.16 185.501 29.6C184.741 30.0267 183.888 30.24 182.941 30.24ZM182.941 28.42C183.448 28.42 183.914 28.2933 184.341 28.04C184.781 27.7867 185.134 27.4133 185.401 26.92C185.668 26.4133 185.801 25.7867 185.801 25.04C185.801 24.2933 185.668 23.6733 185.401 23.18C185.148 22.6733 184.801 22.2933 184.361 22.04C183.934 21.7867 183.468 21.66 182.961 21.66C182.454 21.66 181.981 21.7867 181.541 22.04C181.114 22.2933 180.768 22.6733 180.501 23.18C180.234 23.6733 180.101 24.2933 180.101 25.04C180.101 25.7867 180.234 26.4133 180.501 26.92C180.768 27.4133 181.114 27.7867 181.541 28.04C181.968 28.2933 182.434 28.42 182.941 28.42ZM192.546 30L188.826 20.08H191.046L193.806 27.98L196.566 20.08H198.766L195.066 30H192.546ZM203.302 30.24C202.462 30.24 201.768 30.1 201.222 29.82C200.675 29.54 200.268 29.1733 200.002 28.72C199.735 28.2533 199.602 27.7467 199.602 27.2C199.602 26.24 199.975 25.48 200.722 24.92C201.468 24.36 202.535 24.08 203.922 24.08H206.522V23.9C206.522 23.1267 206.308 22.5467 205.882 22.16C205.468 21.7733 204.928 21.58 204.262 21.58C203.675 21.58 203.162 21.7267 202.722 22.02C202.295 22.3 202.035 22.72 201.942 23.28H199.822C199.888 22.56 200.128 21.9467 200.542 21.44C200.968 20.92 201.502 20.5267 202.142 20.26C202.795 19.98 203.508 19.84 204.282 19.84C205.668 19.84 206.742 20.2067 207.502 20.94C208.262 21.66 208.642 22.6467 208.642 23.9V30H206.802L206.622 28.3C206.342 28.8467 205.935 29.3067 205.402 29.68C204.868 30.0533 204.168 30.24 203.302 30.24ZM203.722 28.52C204.295 28.52 204.775 28.3867 205.162 28.12C205.562 27.84 205.868 27.4733 206.082 27.02C206.308 26.5667 206.448 26.0667 206.502 25.52H204.142C203.302 25.52 202.702 25.6667 202.342 25.96C201.995 26.2533 201.822 26.62 201.822 27.06C201.822 27.5133 201.988 27.8733 202.322 28.14C202.668 28.3933 203.135 28.52 203.722 28.52ZM211.113 30V15.6H213.233V30H211.113ZM220.558 30.24C219.585 30.24 218.718 30.0267 217.958 29.6C217.211 29.16 216.625 28.5533 216.198 27.78C215.771 27.0067 215.558 26.1067 215.558 25.08C215.558 24.04 215.765 23.1267 216.178 22.34C216.605 21.5533 217.191 20.94 217.938 20.5C218.698 20.06 219.578 19.84 220.578 19.84C221.551 19.84 222.398 20.06 223.118 20.5C223.838 20.9267 224.398 21.5 224.798 22.22C225.198 22.94 225.398 23.7333 225.398 24.6C225.398 24.7333 225.391 24.88 225.378 25.04C225.378 25.1867 225.371 25.3533 225.358 25.54H217.638C217.705 26.5 218.018 27.2333 218.578 27.74C219.151 28.2333 219.811 28.48 220.558 28.48C221.158 28.48 221.658 28.3467 222.058 28.08C222.471 27.8 222.778 27.4267 222.978 26.96H225.098C224.831 27.8933 224.298 28.6733 223.498 29.3C222.711 29.9267 221.731 30.24 220.558 30.24ZM220.558 21.58C219.851 21.58 219.225 21.7933 218.678 22.22C218.131 22.6333 217.798 23.26 217.678 24.1H223.278C223.238 23.3267 222.965 22.7133 222.458 22.26C221.951 21.8067 221.318 21.58 220.558 21.58ZM227.598 30V20.08H229.478L229.638 21.82C229.944 21.2067 230.391 20.7267 230.978 20.38C231.578 20.02 232.264 19.84 233.038 19.84C234.238 19.84 235.178 20.2133 235.858 20.96C236.551 21.7067 236.898 22.82 236.898 24.3V30H234.798V24.52C234.798 22.6 234.011 21.64 232.438 21.64C231.651 21.64 230.998 21.92 230.478 22.48C229.971 23.04 229.718 23.84 229.718 24.88V30H227.598ZM243.555 30C242.581 30 241.808 29.7667 241.235 29.3C240.661 28.82 240.375 27.9733 240.375 26.76V21.86H238.675V20.08H240.375L240.635 17.56H242.495V20.08H245.295V21.86H242.495V26.76C242.495 27.3067 242.608 27.6867 242.835 27.9C243.075 28.1 243.481 28.2 244.055 28.2H245.195V30H243.555ZM252.6 30V16H257.14C258.78 16 260.126 16.2867 261.18 16.86C262.246 17.4333 263.033 18.2467 263.54 19.3C264.06 20.34 264.32 21.58 264.32 23.02C264.32 24.4467 264.06 25.6867 263.54 26.74C263.033 27.78 262.246 28.5867 261.18 29.16C260.126 29.72 258.78 30 257.14 30H252.6ZM254.72 28.2H257.06C258.326 28.2 259.326 27.9933 260.06 27.58C260.806 27.1667 261.34 26.5733 261.66 25.8C261.993 25.0267 262.16 24.1 262.16 23.02C262.16 21.94 261.993 21.0067 261.66 20.22C261.34 19.4333 260.806 18.8333 260.06 18.42C259.326 17.9933 258.326 17.78 257.06 17.78H254.72V28.2ZM271.222 30.24C270.276 30.24 269.422 30.0267 268.662 29.6C267.916 29.16 267.322 28.5533 266.882 27.78C266.442 26.9933 266.222 26.08 266.222 25.04C266.222 24 266.442 23.0933 266.882 22.32C267.336 21.5333 267.942 20.9267 268.702 20.5C269.462 20.06 270.309 19.84 271.242 19.84C272.189 19.84 273.036 20.06 273.782 20.5C274.542 20.9267 275.142 21.5333 275.582 22.32C276.036 23.0933 276.262 24 276.262 25.04C276.262 26.08 276.036 26.9933 275.582 27.78C275.142 28.5533 274.542 29.16 273.782 29.6C273.022 30.0267 272.169 30.24 271.222 30.24ZM271.222 28.42C271.729 28.42 272.196 28.2933 272.622 28.04C273.062 27.7867 273.416 27.4133 273.682 26.92C273.949 26.4133 274.082 25.7867 274.082 25.04C274.082 24.2933 273.949 23.6733 273.682 23.18C273.429 22.6733 273.082 22.2933 272.642 22.04C272.216 21.7867 271.749 21.66 271.242 21.66C270.736 21.66 270.262 21.7867 269.822 22.04C269.396 22.2933 269.049 22.6733 268.782 23.18C268.516 23.6733 268.382 24.2933 268.382 25.04C268.382 25.7867 268.516 26.4133 268.782 26.92C269.049 27.4133 269.396 27.7867 269.822 28.04C270.249 28.2933 270.716 28.42 271.222 28.42ZM283.255 30.24C282.282 30.24 281.408 30.02 280.635 29.58C279.875 29.14 279.275 28.5333 278.835 27.76C278.408 26.9733 278.195 26.0667 278.195 25.04C278.195 24.0133 278.408 23.1133 278.835 22.34C279.275 21.5533 279.875 20.94 280.635 20.5C281.408 20.06 282.282 19.84 283.255 19.84C284.482 19.84 285.508 20.16 286.335 20.8C287.175 21.44 287.715 22.3067 287.955 23.4H285.735C285.602 22.8533 285.308 22.4267 284.855 22.12C284.402 21.8133 283.868 21.66 283.255 21.66C282.735 21.66 282.255 21.7933 281.815 22.06C281.375 22.3133 281.022 22.6933 280.755 23.2C280.488 23.6933 280.355 24.3067 280.355 25.04C280.355 25.7733 280.488 26.3933 280.755 26.9C281.022 27.3933 281.375 27.7733 281.815 28.04C282.255 28.3067 282.735 28.44 283.255 28.44C283.868 28.44 284.402 28.2867 284.855 27.98C285.308 27.6733 285.602 27.24 285.735 26.68H287.955C287.728 27.7467 287.195 28.6067 286.355 29.26C285.515 29.9133 284.482 30.24 283.255 30.24ZM294.214 30.24C292.961 30.24 291.927 29.9333 291.114 29.32C290.301 28.7067 289.834 27.8933 289.714 26.88H291.854C291.961 27.3333 292.214 27.7267 292.614 28.06C293.014 28.38 293.541 28.54 294.194 28.54C294.834 28.54 295.301 28.4067 295.594 28.14C295.887 27.8733 296.034 27.5667 296.034 27.22C296.034 26.7133 295.827 26.3733 295.414 26.2C295.014 26.0133 294.454 25.8467 293.734 25.7C293.174 25.58 292.614 25.42 292.054 25.22C291.507 25.02 291.047 24.74 290.674 24.38C290.314 24.0067 290.134 23.5067 290.134 22.88C290.134 22.0133 290.467 21.2933 291.134 20.72C291.801 20.1333 292.734 19.84 293.934 19.84C295.041 19.84 295.934 20.1067 296.614 20.64C297.307 21.1733 297.714 21.9267 297.834 22.9H295.794C295.727 22.4733 295.527 22.14 295.194 21.9C294.874 21.66 294.441 21.54 293.894 21.54C293.361 21.54 292.947 21.6533 292.654 21.88C292.361 22.0933 292.214 22.3733 292.214 22.72C292.214 23.0667 292.414 23.34 292.814 23.54C293.227 23.74 293.767 23.92 294.434 24.08C295.101 24.2267 295.714 24.4 296.274 24.6C296.847 24.7867 297.307 25.0667 297.654 25.44C298.001 25.8133 298.174 26.36 298.174 27.08C298.187 27.9867 297.834 28.74 297.114 29.34C296.407 29.94 295.441 30.24 294.214 30.24Z" fill="#AEB6FF"/>
<circle cx="385" cy="101" r="2.5" stroke="#5552FF"/>
<rect y="77" width="192" height="34" rx="17" fill="#6D7CFF" fill-opacity="0.58"/>
<path d="M9.336 69V46.44H23.32V48.68H11.96V56.584H21.72V58.824H11.96V66.76H23.32V69H9.336ZM26.4073 69V66.76H30.8873V47.432L27.5913 47.72V45.48L31.3033 45.16C32.7753 45.032 33.4792 45.864 33.4792 47.368V66.76H37.9273V69H26.4073ZM39.7273 60.84C39.7273 55.72 42.9273 52.776 47.4392 52.776C51.9193 52.776 54.8633 55.624 54.8633 60.52V61.544H42.2873C42.4473 64.552 43.8873 67.144 47.8233 67.144C50.4473 67.144 52.2073 65.864 52.7833 63.432H55.4073C54.7993 65.896 52.8793 69.32 47.8233 69.32C42.1273 69.32 39.7273 65.416 39.7273 60.84ZM42.2873 59.56H52.3033C52.3033 57 50.6073 54.984 47.4392 54.984C44.3033 54.984 42.2873 57 42.2873 59.56ZM70.327 53.096H72.855L67.671 69H62.359L57.111 53.096H59.671L64.631 68.264H65.399L70.327 53.096ZM74.9148 64.584C74.9148 62.056 76.4188 60.328 80.1308 59.944L86.4668 59.336C86.3068 56.424 84.7388 54.984 81.9868 54.984C79.6828 54.984 77.5388 56.008 77.5388 59.016H74.9788C74.9788 55.72 77.4748 52.776 81.9868 52.776C86.4348 52.776 89.0908 55.72 89.0908 59.976V66.76H91.4268V69H88.6108C87.3948 69 86.7228 68.328 86.7228 67.144V66.28L87.1388 64.616H86.3708C85.7628 67.048 84.0668 69.32 80.2268 69.32C75.6188 69.32 74.9148 66.248 74.9148 64.584ZM77.5388 64.264C77.5388 66.088 78.6908 67.08 80.5468 67.08C84.1628 67.08 86.4668 64.584 86.4668 61.288L80.5788 61.896C78.5628 62.088 77.5388 62.696 77.5388 64.264ZM97.973 67.112L103.573 66.76V69L97.557 69.32C96.053 69.416 95.381 68.616 95.381 67.144V55.336H91.861V53.096H95.381V49L97.973 48.2V53.096H102.933V55.336H97.973V67.112ZM105.696 60.84C105.696 55.72 108.896 52.776 113.408 52.776C117.888 52.776 120.832 55.624 120.832 60.52V61.544H108.256C108.416 64.552 109.856 67.144 113.792 67.144C116.416 67.144 118.176 65.864 118.752 63.432H121.376C120.768 65.896 118.848 69.32 113.792 69.32C108.096 69.32 105.696 65.416 105.696 60.84ZM108.256 59.56H118.272C118.272 57 116.576 54.984 113.408 54.984C110.272 54.984 108.256 57 108.256 59.56ZM150.904 46.44H153.72L145.528 60.584V69H142.936V60.584L134.743 46.44H137.56L143.864 57.448V59.272H144.6V57.448L150.904 46.44ZM151.915 61.032C151.915 56.424 155.243 52.776 160.331 52.776C165.387 52.776 168.683 56.424 168.683 61.032C168.683 65.672 165.387 69.32 160.331 69.32C155.243 69.32 151.915 65.672 151.915 61.032ZM154.539 61.032C154.539 64.36 156.555 67.08 160.331 67.08C164.075 67.08 166.091 64.36 166.091 61.032C166.091 57.736 164.075 55.016 160.331 55.016C156.555 55.016 154.539 57.736 154.539 61.032ZM178.672 67.08C182.032 67.08 184.4 64.424 184.4 60.168V53.096H186.992V69H184.4V66.248L184.816 64.424H184.08C183.44 67.304 181.424 69.32 177.968 69.32C174.352 69.32 172.016 67.24 172.016 62.824V53.096H174.64V62.472C174.64 65.8 175.92 67.08 178.672 67.08ZM191.211 69V54.984C191.211 53.48 191.915 52.744 193.419 52.808L202.251 53.096V55.336L193.835 55.048V69H191.211ZM232.025 69L229.177 60.168H220.121L217.305 69H214.681L221.977 46.44H227.353L234.617 69H232.025ZM220.857 57.928H228.473L225.017 47.176H224.281L220.857 57.928ZM253.625 69H251.001V66.664L251.449 64.872H250.681C250.009 67.336 247.865 69.32 244.249 69.32C239.641 69.32 236.665 65.768 236.665 61.032C236.665 56.328 239.641 52.776 244.249 52.776C247.865 52.776 250.009 54.76 250.681 57.256H251.449L251.001 55.432V45.48H253.625V69ZM251.001 61.032C251.001 56.808 248.313 55.016 245.017 55.016C241.721 55.016 239.289 56.808 239.289 61.032C239.289 65.288 241.721 67.08 245.017 67.08C248.313 67.08 251.001 65.288 251.001 61.032ZM269.89 53.096H272.418L267.234 69H261.922L256.674 53.096H259.234L264.194 68.264H264.962L269.89 53.096ZM274.477 64.584C274.477 62.056 275.981 60.328 279.693 59.944L286.029 59.336C285.869 56.424 284.301 54.984 281.549 54.984C279.245 54.984 277.101 56.008 277.101 59.016H274.541C274.541 55.72 277.037 52.776 281.549 52.776C285.997 52.776 288.653 55.72 288.653 59.976V66.76H290.989V69H288.173C286.957 69 286.285 68.328 286.285 67.144V66.28L286.701 64.616H285.933C285.325 67.048 283.629 69.32 279.789 69.32C275.181 69.32 274.477 66.248 274.477 64.584ZM277.101 64.264C277.101 66.088 278.253 67.08 280.109 67.08C283.725 67.08 286.029 64.584 286.029 61.288L280.141 61.896C278.125 62.088 277.101 62.696 277.101 64.264ZM302.344 55.016C298.984 55.016 296.616 57.672 296.616 61.96V69H293.992V53.096H296.616V55.848L296.2 57.672H296.936C297.576 54.792 299.592 52.776 303.048 52.776C306.632 52.776 308.968 54.856 308.968 59.272V69H306.376V59.624C306.376 56.296 305.064 55.016 302.344 55.016ZM312.571 61.032C312.571 56.456 315.547 52.776 320.699 52.776C323.771 52.776 327.707 54.504 328.123 59.112H325.467C325.019 56.072 323.003 55.016 320.699 55.016C316.923 55.016 315.195 57.768 315.195 61.032C315.195 64.328 316.923 67.08 320.699 67.08C323.003 67.08 325.019 66.024 325.467 62.984H328.123C327.707 67.592 323.771 69.32 320.699 69.32C315.547 69.32 312.571 65.64 312.571 61.032ZM331.102 60.84C331.102 55.72 334.302 52.776 338.814 52.776C343.294 52.776 346.238 55.624 346.238 60.52V61.544H333.662C333.822 64.552 335.262 67.144 339.198 67.144C341.822 67.144 343.582 65.864 344.158 63.432H346.782C346.174 65.896 344.254 69.32 339.198 69.32C333.502 69.32 331.102 65.416 331.102 60.84ZM333.662 59.56H343.678C343.678 57 341.982 54.984 338.814 54.984C335.678 54.984 333.662 57 333.662 59.56ZM366.719 69H364.095V66.664L364.543 64.872H363.775C363.103 67.336 360.959 69.32 357.343 69.32C352.735 69.32 349.759 65.768 349.759 61.032C349.759 56.328 352.735 52.776 357.343 52.776C360.959 52.776 363.103 54.76 363.775 57.256H364.543L364.095 55.432V45.48H366.719V69ZM364.095 61.032C364.095 56.808 361.407 55.016 358.111 55.016C354.815 55.016 352.383 56.808 352.383 61.032C352.383 65.288 354.815 67.08 358.111 67.08C361.407 67.08 364.095 65.288 364.095 61.032ZM9.016 92.704C9.016 86.144 12.952 81.12 19.576 81.12C25.336 81.12 29.112 84.576 29.784 90.144H27.16C26.648 85.824 23.992 83.36 19.576 83.36C14.328 83.36 11.64 87.264 11.64 92.704C11.64 98.176 14.328 102.08 19.576 102.08C23.992 102.08 26.648 99.584 27.16 95.264H29.784C29.112 100.864 25.336 104.32 19.576 104.32C12.952 104.32 9.016 99.296 9.016 92.704ZM32.7585 96.032C32.7585 91.424 36.0865 87.776 41.1745 87.776C46.2305 87.776 49.5265 91.424 49.5265 96.032C49.5265 100.672 46.2305 104.32 41.1745 104.32C36.0865 104.32 32.7585 100.672 32.7585 96.032ZM35.3825 96.032C35.3825 99.36 37.3985 102.08 41.1745 102.08C44.9185 102.08 46.9345 99.36 46.9345 96.032C46.9345 92.736 44.9185 90.016 41.1745 90.016C37.3985 90.016 35.3825 92.736 35.3825 96.032ZM72.7638 87.776C76.0918 87.776 77.6918 90.432 77.6918 93.984V104H75.0678V94.592C75.0678 91.52 74.3958 90.016 71.8038 90.016C68.6358 90.016 66.7478 92.832 66.7478 96.992V104H64.1238V94.592C64.1238 91.52 63.4518 90.016 60.8598 90.016C57.6918 90.016 55.8038 92.832 55.8038 96.992V104H53.1798V88.096H55.8038V90.816L55.3878 92.608H56.1238C56.7638 89.728 58.4278 87.776 61.8198 87.776C64.6998 87.776 66.2358 89.76 66.5878 92.608H67.0678C67.7078 89.728 69.3718 87.776 72.7638 87.776ZM81.8985 88.096H84.5225V90.432L84.1065 92.256H84.8425C85.5145 89.76 87.6265 87.776 91.2745 87.776C95.8825 87.776 98.8585 91.328 98.8585 96.064C98.8585 100.768 95.8825 104.32 91.2745 104.32C87.6265 104.32 85.5145 102.336 84.8425 99.872H84.1065L84.5225 101.664V109.824H81.8985V88.096ZM84.5225 96.064C84.5225 100.288 87.2425 102.08 90.5065 102.08C93.8025 102.08 96.2345 100.224 96.2345 96.064C96.2345 91.872 93.8025 90.016 90.5065 90.016C87.2425 90.016 84.5225 91.808 84.5225 96.064ZM108.828 102.08C112.188 102.08 114.556 99.424 114.556 95.168V88.096H117.148V104H114.556V101.248L114.972 99.424H114.236C113.596 102.304 111.58 104.32 108.124 104.32C104.508 104.32 102.172 102.24 102.172 97.824V88.096H104.796V97.472C104.796 100.8 106.076 102.08 108.828 102.08ZM126.036 102.112L131.636 101.76V104L125.62 104.32C124.116 104.416 123.444 103.616 123.444 102.144V90.336H119.924V88.096H123.444V84L126.036 83.2V88.096H130.996V90.336H126.036V102.112ZM139.727 85.568C138.415 85.568 137.423 84.608 137.423 83.328C137.423 82.112 138.415 81.12 139.727 81.12C141.007 81.12 142.031 82.112 142.031 83.328C142.031 84.608 141.007 85.568 139.727 85.568ZM134.415 104V101.76H138.895V90.048L135.599 90.336V88.096L139.279 87.776C140.783 87.648 141.359 88.48 141.359 89.696V101.76H145.839V104H134.415ZM157.501 90.016C154.141 90.016 151.773 92.672 151.773 96.96V104H149.149V88.096H151.773V90.848L151.357 92.672H152.093C152.733 89.792 154.749 87.776 158.205 87.776C161.789 87.776 164.125 89.856 164.125 94.272V104H161.533V94.624C161.533 91.296 160.221 90.016 157.501 90.016ZM184.695 88.096H186.103V90.336H184.759C183.863 90.336 183.287 90.528 182.679 90.976C183.351 91.808 183.767 92.96 183.767 94.336C183.767 97.76 181.079 99.904 176.279 101.664C179.991 101.056 183.575 101.568 183.575 105.088C183.575 109.312 179.223 109.856 168.567 109.856V107.616C177.687 107.616 180.951 107.392 180.951 104.896C180.951 101.376 173.943 103.072 170.007 104.256L169.463 102.432C172.023 101.728 174.551 100.992 177.015 100.224V99.488C171.895 100.8 167.415 99.136 167.415 94.208C167.415 89.824 170.999 87.776 175.575 87.776C177.495 87.776 179.479 88.256 180.983 89.312C182.647 88.256 183.255 88.096 184.695 88.096ZM175.607 98.56C178.967 98.56 181.143 97.376 181.143 94.272C181.143 91.2 178.967 90.016 175.607 90.016C172.279 90.016 170.039 91.2 170.039 94.272C170.039 97.376 172.279 98.56 175.607 98.56ZM199.805 104V81.44H213.789V83.68H202.429V91.584H212.189V93.824H202.429V101.76H213.789V104H199.805ZM216.501 104L222.485 96.416V95.648L216.501 88.096H219.605L224.437 94.496L229.269 88.096H232.373L226.389 95.648V96.416L232.373 104H229.269L224.437 97.568L219.605 104H216.501ZM235.992 88.096H238.616V90.432L238.2 92.256H238.936C239.608 89.76 241.72 87.776 245.368 87.776C249.976 87.776 252.952 91.328 252.952 96.064C252.952 100.768 249.976 104.32 245.368 104.32C241.72 104.32 239.608 102.336 238.936 99.872H238.2L238.616 101.664V109.824H235.992V88.096ZM238.616 96.064C238.616 100.288 241.336 102.08 244.6 102.08C247.896 102.08 250.328 100.224 250.328 96.064C250.328 91.872 247.896 90.016 244.6 90.016C241.336 90.016 238.616 91.808 238.616 96.064ZM255.946 95.84C255.946 90.72 259.146 87.776 263.658 87.776C268.138 87.776 271.082 90.624 271.082 95.52V96.544H258.506C258.666 99.552 260.106 102.144 264.042 102.144C266.666 102.144 268.426 100.864 269.002 98.432H271.626C271.018 100.896 269.098 104.32 264.042 104.32C258.346 104.32 255.946 100.416 255.946 95.84ZM258.506 94.56H268.522C268.522 92 266.826 89.984 263.658 89.984C260.522 89.984 258.506 92 258.506 94.56ZM275.242 104V89.984C275.242 88.48 275.946 87.744 277.45 87.808L286.282 88.096V90.336L277.866 90.048V104H275.242ZM294.039 85.568C292.727 85.568 291.735 84.608 291.735 83.328C291.735 82.112 292.727 81.12 294.039 81.12C295.319 81.12 296.343 82.112 296.343 83.328C296.343 84.608 295.319 85.568 294.039 85.568ZM288.727 104V101.76H293.207V90.048L289.911 90.336V88.096L293.591 87.776C295.095 87.648 295.671 88.48 295.671 89.696V101.76H300.151V104H288.727ZM301.946 95.84C301.946 90.72 305.146 87.776 309.658 87.776C314.138 87.776 317.082 90.624 317.082 95.52V96.544H304.506C304.666 99.552 306.106 102.144 310.042 102.144C312.666 102.144 314.426 100.864 315.002 98.432H317.626C317.018 100.896 315.098 104.32 310.042 104.32C304.346 104.32 301.946 100.416 301.946 95.84ZM304.506 94.56H314.522C314.522 92 312.826 89.984 309.658 89.984C306.522 89.984 304.506 92 304.506 94.56ZM329.594 90.016C326.234 90.016 323.866 92.672 323.866 96.96V104H321.242V88.096H323.866V90.848L323.45 92.672H324.186C324.826 89.792 326.842 87.776 330.298 87.776C333.882 87.776 336.218 89.856 336.218 94.272V104H333.626V94.624C333.626 91.296 332.314 90.016 329.594 90.016ZM339.821 96.032C339.821 91.456 342.797 87.776 347.949 87.776C351.021 87.776 354.957 89.504 355.373 94.112H352.717C352.269 91.072 350.253 90.016 347.949 90.016C344.173 90.016 342.445 92.768 342.445 96.032C342.445 99.328 344.173 102.08 347.949 102.08C350.253 102.08 352.269 101.024 352.717 97.984H355.373C354.957 102.592 351.021 104.32 347.949 104.32C342.797 104.32 339.821 100.64 339.821 96.032ZM358.352 95.84C358.352 90.72 361.552 87.776 366.064 87.776C370.544 87.776 373.488 90.624 373.488 95.52V96.544H360.912C361.072 99.552 362.512 102.144 366.448 102.144C369.072 102.144 370.832 100.864 371.408 98.432H374.032C373.424 100.896 371.504 104.32 366.448 104.32C360.752 104.32 358.352 100.416 358.352 95.84ZM360.912 94.56H370.928C370.928 92 369.232 89.984 366.064 89.984C362.928 89.984 360.912 92 360.912 94.56Z" fill="#E5E7F3"/>
</svg>
