<svg width="291" height="87" viewBox="0 0 291 87" fill="none" xmlns="http://www.w3.org/2000/svg">
<g clip-path="url(#clip0_107_35)">
<path d="M32.7643 43.748H28.0082V61.7155H32.7643V43.748Z" fill="#F1F1F6"/>
<path d="M16.3821 7.81299C20.5853 7.81763 24.615 9.47549 27.5872 12.4228C30.5593 15.3702 32.2311 19.3663 32.2358 23.5345V30.2723H27.7061V23.5345C27.7061 21.3135 27.042 19.1424 25.7977 17.2957C24.5534 15.449 22.7848 14.0096 20.7156 13.1597C18.6464 12.3097 16.3695 12.0873 14.1729 12.5206C11.9762 12.9539 9.95849 14.0235 8.3748 15.594C6.7911 17.1645 5.71259 19.1654 5.27565 21.3437C4.83871 23.5221 5.06296 25.78 5.92005 27.8319C6.77714 29.8839 8.22857 31.6377 10.0908 32.8717C11.953 34.1056 14.1424 34.7642 16.3821 34.7642H55.2732L44.8868 24.4646L48.0894 21.2886L63.9431 37.0102L48.0894 52.7317L44.8868 49.5557L55.2732 39.2561H16.3821C12.1775 39.2561 8.14501 37.5997 5.17187 34.6514C2.19873 31.703 0.528442 27.7042 0.528442 23.5345C0.528442 19.3649 2.19873 15.3661 5.17187 12.4177C8.14501 9.46936 12.1775 7.81299 16.3821 7.81299Z" fill="#F1F1F6"/>
</g>
<path d="M102.136 16V4.8H103.832V16H102.136ZM109.369 16C108.59 16 107.971 15.8133 107.513 15.44C107.054 15.056 106.825 14.3787 106.825 13.408V9.488H105.465V8.064H106.825L107.033 6.048H108.521V8.064H110.761V9.488H108.521V13.408C108.521 13.8453 108.611 14.1493 108.793 14.32C108.985 14.48 109.31 14.56 109.769 14.56H110.681V16H109.369ZM116.018 16.192C115.24 16.192 114.546 16.0213 113.938 15.68C113.341 15.328 112.872 14.8427 112.53 14.224C112.189 13.6053 112.018 12.8853 112.018 12.064C112.018 11.232 112.184 10.5013 112.514 9.872C112.856 9.24267 113.325 8.752 113.922 8.4C114.53 8.048 115.234 7.872 116.034 7.872C116.813 7.872 117.49 8.048 118.066 8.4C118.642 8.74133 119.09 9.2 119.41 9.776C119.73 10.352 119.89 10.9867 119.89 11.68C119.89 11.7867 119.885 11.904 119.874 12.032C119.874 12.1493 119.869 12.2827 119.858 12.432H113.682C113.736 13.2 113.986 13.7867 114.434 14.192C114.893 14.5867 115.421 14.784 116.018 14.784C116.498 14.784 116.898 14.6773 117.218 14.464C117.549 14.24 117.794 13.9413 117.954 13.568H119.65C119.437 14.3147 119.01 14.9387 118.37 15.44C117.741 15.9413 116.957 16.192 116.018 16.192ZM116.018 9.264C115.453 9.264 114.952 9.43467 114.514 9.776C114.077 10.1067 113.81 10.608 113.714 11.28H118.194C118.162 10.6613 117.944 10.1707 117.538 9.808C117.133 9.44533 116.626 9.264 116.018 9.264ZM121.65 16V8.064H123.17L123.314 9.568C123.591 9.04533 123.975 8.63467 124.466 8.336C124.967 8.02667 125.57 7.872 126.274 7.872V9.648H125.81C125.341 9.648 124.919 9.728 124.546 9.888C124.183 10.0373 123.89 10.2987 123.666 10.672C123.453 11.0347 123.346 11.5413 123.346 12.192V16H121.65ZM130.416 16.192C129.744 16.192 129.19 16.08 128.752 15.856C128.315 15.632 127.99 15.3387 127.776 14.976C127.563 14.6027 127.456 14.1973 127.456 13.76C127.456 12.992 127.755 12.384 128.352 11.936C128.95 11.488 129.803 11.264 130.912 11.264H132.992V11.12C132.992 10.5013 132.822 10.0373 132.48 9.728C132.15 9.41867 131.718 9.264 131.184 9.264C130.715 9.264 130.304 9.38133 129.952 9.616C129.611 9.84 129.403 10.176 129.328 10.624H127.632C127.686 10.048 127.878 9.55733 128.208 9.152C128.55 8.736 128.976 8.42133 129.488 8.208C130.011 7.984 130.582 7.872 131.2 7.872C132.31 7.872 133.168 8.16533 133.776 8.752C134.384 9.328 134.688 10.1173 134.688 11.12V16H133.216L133.072 14.64C132.848 15.0773 132.523 15.4453 132.096 15.744C131.67 16.0427 131.11 16.192 130.416 16.192ZM130.752 14.816C131.211 14.816 131.595 14.7093 131.904 14.496C132.224 14.272 132.47 13.9787 132.64 13.616C132.822 13.2533 132.934 12.8533 132.976 12.416H131.088C130.416 12.416 129.936 12.5333 129.648 12.768C129.371 13.0027 129.232 13.296 129.232 13.648C129.232 14.0107 129.366 14.2987 129.632 14.512C129.91 14.7147 130.283 14.816 130.752 14.816ZM139.838 16C139.059 16 138.44 15.8133 137.982 15.44C137.523 15.056 137.294 14.3787 137.294 13.408V9.488H135.934V8.064H137.294L137.502 6.048H138.99V8.064H141.23V9.488H138.99V13.408C138.99 13.8453 139.08 14.1493 139.262 14.32C139.454 14.48 139.779 14.56 140.238 14.56H141.15V16H139.838ZM146.487 16.192C145.708 16.192 145.015 16.0213 144.407 15.68C143.81 15.328 143.34 14.8427 142.999 14.224C142.658 13.6053 142.487 12.8853 142.487 12.064C142.487 11.232 142.652 10.5013 142.983 9.872C143.324 9.24267 143.794 8.752 144.391 8.4C144.999 8.048 145.703 7.872 146.503 7.872C147.282 7.872 147.959 8.048 148.535 8.4C149.111 8.74133 149.559 9.2 149.879 9.776C150.199 10.352 150.359 10.9867 150.359 11.68C150.359 11.7867 150.354 11.904 150.343 12.032C150.343 12.1493 150.338 12.2827 150.327 12.432H144.151C144.204 13.2 144.455 13.7867 144.903 14.192C145.362 14.5867 145.89 14.784 146.487 14.784C146.967 14.784 147.367 14.6773 147.687 14.464C148.018 14.24 148.263 13.9413 148.423 13.568H150.119C149.906 14.3147 149.479 14.9387 148.839 15.44C148.21 15.9413 147.426 16.192 146.487 16.192ZM146.487 9.264C145.922 9.264 145.42 9.43467 144.983 9.776C144.546 10.1067 144.279 10.608 144.183 11.28H148.663C148.631 10.6613 148.412 10.1707 148.007 9.808C147.602 9.44533 147.095 9.264 146.487 9.264Z" fill="#E5E7F3"/>
<path d="M102.036 39V29.2H105.046C106.773 29.2 108.042 29.6387 108.854 30.516C109.675 31.3933 110.086 32.5973 110.086 34.128C110.086 35.6307 109.675 36.8207 108.854 37.698C108.042 38.566 106.773 39 105.046 39H102.036ZM103.212 38.02H105.018C105.97 38.02 106.726 37.866 107.286 37.558C107.855 37.2407 108.261 36.7927 108.504 36.214C108.747 35.626 108.868 34.9307 108.868 34.128C108.868 33.3067 108.747 32.602 108.504 32.014C108.261 31.426 107.855 30.9733 107.286 30.656C106.726 30.3387 105.97 30.18 105.018 30.18H103.212V38.02ZM112.428 30.516C112.195 30.516 111.999 30.4413 111.84 30.292C111.691 30.1333 111.616 29.9373 111.616 29.704C111.616 29.48 111.691 29.2933 111.84 29.144C111.999 28.9947 112.195 28.92 112.428 28.92C112.652 28.92 112.843 28.9947 113.002 29.144C113.161 29.2933 113.24 29.48 113.24 29.704C113.24 29.9373 113.161 30.1333 113.002 30.292C112.843 30.4413 112.652 30.516 112.428 30.516ZM111.84 39V32.056H113.016V39H111.84ZM117.724 39.168C116.893 39.168 116.202 38.958 115.652 38.538C115.101 38.118 114.779 37.5487 114.686 36.83H115.89C115.964 37.194 116.156 37.5113 116.464 37.782C116.781 38.0433 117.206 38.174 117.738 38.174C118.232 38.174 118.596 38.0713 118.83 37.866C119.063 37.6513 119.18 37.3993 119.18 37.11C119.18 36.69 119.026 36.41 118.718 36.27C118.419 36.13 117.994 36.004 117.444 35.892C117.07 35.8173 116.697 35.71 116.324 35.57C115.95 35.43 115.638 35.234 115.386 34.982C115.134 34.7207 115.008 34.38 115.008 33.96C115.008 33.3533 115.232 32.8587 115.68 32.476C116.137 32.084 116.753 31.888 117.528 31.888C118.265 31.888 118.867 32.0747 119.334 32.448C119.81 32.812 120.085 33.3347 120.16 34.016H118.998C118.951 33.6613 118.797 33.386 118.536 33.19C118.284 32.9847 117.943 32.882 117.514 32.882C117.094 32.882 116.767 32.9707 116.534 33.148C116.31 33.3253 116.198 33.5587 116.198 33.848C116.198 34.128 116.342 34.3473 116.632 34.506C116.93 34.6647 117.332 34.8 117.836 34.912C118.265 35.0053 118.671 35.122 119.054 35.262C119.446 35.3927 119.763 35.5933 120.006 35.864C120.258 36.1253 120.384 36.508 120.384 37.012C120.393 37.6373 120.155 38.1553 119.67 38.566C119.194 38.9673 118.545 39.168 117.724 39.168ZM125.256 39.168C124.593 39.168 123.996 39.0187 123.464 38.72C122.941 38.412 122.526 37.9873 122.218 37.446C121.919 36.8953 121.77 36.256 121.77 35.528C121.77 34.8 121.919 34.1653 122.218 33.624C122.526 33.0733 122.941 32.6487 123.464 32.35C123.996 32.042 124.593 31.888 125.256 31.888C126.077 31.888 126.768 32.1027 127.328 32.532C127.897 32.9613 128.256 33.5353 128.406 34.254H127.202C127.108 33.8247 126.88 33.4933 126.516 33.26C126.152 33.0173 125.727 32.896 125.242 32.896C124.85 32.896 124.481 32.994 124.136 33.19C123.79 33.386 123.51 33.68 123.296 34.072C123.081 34.464 122.974 34.9493 122.974 35.528C122.974 36.1067 123.081 36.592 123.296 36.984C123.51 37.376 123.79 37.6747 124.136 37.88C124.481 38.076 124.85 38.174 125.242 38.174C125.727 38.174 126.152 38.0573 126.516 37.824C126.88 37.5813 127.108 37.2407 127.202 36.802H128.406C128.266 37.502 127.911 38.0713 127.342 38.51C126.772 38.9487 126.077 39.168 125.256 39.168ZM133.212 39.168C132.559 39.168 131.971 39.0187 131.448 38.72C130.925 38.4213 130.51 38.0013 130.202 37.46C129.903 36.9093 129.754 36.2653 129.754 35.528C129.754 34.7907 129.908 34.1513 130.216 33.61C130.524 33.0593 130.939 32.6347 131.462 32.336C131.994 32.0373 132.587 31.888 133.24 31.888C133.893 31.888 134.481 32.0373 135.004 32.336C135.527 32.6347 135.937 33.0593 136.236 33.61C136.544 34.1513 136.698 34.7907 136.698 35.528C136.698 36.2653 136.544 36.9093 136.236 37.46C135.928 38.0013 135.508 38.4213 134.976 38.72C134.453 39.0187 133.865 39.168 133.212 39.168ZM133.212 38.16C133.613 38.16 133.987 38.062 134.332 37.866C134.677 37.67 134.957 37.376 135.172 36.984C135.387 36.592 135.494 36.1067 135.494 35.528C135.494 34.9493 135.387 34.464 135.172 34.072C134.967 33.68 134.691 33.386 134.346 33.19C134.001 32.994 133.632 32.896 133.24 32.896C132.839 32.896 132.465 32.994 132.12 33.19C131.775 33.386 131.495 33.68 131.28 34.072C131.065 34.464 130.958 34.9493 130.958 35.528C130.958 36.1067 131.065 36.592 131.28 36.984C131.495 37.376 131.77 37.67 132.106 37.866C132.451 38.062 132.82 38.16 133.212 38.16ZM139.98 39L137.348 32.056H138.58L140.666 37.866L142.766 32.056H143.97L141.338 39H139.98ZM148.045 39.168C147.382 39.168 146.794 39.0187 146.281 38.72C145.768 38.412 145.362 37.9873 145.063 37.446C144.774 36.9047 144.629 36.2653 144.629 35.528C144.629 34.8 144.774 34.1653 145.063 33.624C145.352 33.0733 145.754 32.6487 146.267 32.35C146.79 32.042 147.392 31.888 148.073 31.888C148.745 31.888 149.324 32.042 149.809 32.35C150.304 32.6487 150.682 33.0453 150.943 33.54C151.204 34.0347 151.335 34.5667 151.335 35.136C151.335 35.2387 151.33 35.3413 151.321 35.444C151.321 35.5467 151.321 35.6633 151.321 35.794H145.791C145.819 36.326 145.94 36.7693 146.155 37.124C146.379 37.4693 146.654 37.7307 146.981 37.908C147.317 38.0853 147.672 38.174 148.045 38.174C148.53 38.174 148.936 38.062 149.263 37.838C149.59 37.614 149.828 37.3107 149.977 36.928H151.139C150.952 37.572 150.593 38.1087 150.061 38.538C149.538 38.958 148.866 39.168 148.045 39.168ZM148.045 32.882C147.485 32.882 146.986 33.0547 146.547 33.4C146.118 33.736 145.87 34.2307 145.805 34.884H150.173C150.145 34.2587 149.93 33.7687 149.529 33.414C149.128 33.0593 148.633 32.882 148.045 32.882ZM152.894 39V32.056H153.958L154.056 33.386C154.27 32.9287 154.597 32.5647 155.036 32.294C155.474 32.0233 156.016 31.888 156.66 31.888V33.12H156.338C155.927 33.12 155.549 33.1947 155.204 33.344C154.858 33.484 154.583 33.7267 154.378 34.072C154.172 34.4173 154.07 34.8933 154.07 35.5V39H152.894ZM162.063 39V33.05H161.013V32.056H162.063V30.852C162.063 30.18 162.231 29.69 162.567 29.382C162.903 29.074 163.393 28.92 164.037 28.92H164.737V29.928H164.219C163.864 29.928 163.612 30.0027 163.463 30.152C163.313 30.292 163.239 30.5347 163.239 30.88V32.056H164.947V33.05H163.239V39H162.063ZM169.195 39.168C168.533 39.168 167.945 39.0187 167.431 38.72C166.918 38.412 166.512 37.9873 166.213 37.446C165.924 36.9047 165.779 36.2653 165.779 35.528C165.779 34.8 165.924 34.1653 166.213 33.624C166.503 33.0733 166.904 32.6487 167.417 32.35C167.94 32.042 168.542 31.888 169.223 31.888C169.895 31.888 170.474 32.042 170.959 32.35C171.454 32.6487 171.832 33.0453 172.093 33.54C172.355 34.0347 172.485 34.5667 172.485 35.136C172.485 35.2387 172.481 35.3413 172.471 35.444C172.471 35.5467 172.471 35.6633 172.471 35.794H166.941C166.969 36.326 167.091 36.7693 167.305 37.124C167.529 37.4693 167.805 37.7307 168.131 37.908C168.467 38.0853 168.822 38.174 169.195 38.174C169.681 38.174 170.087 38.062 170.413 37.838C170.74 37.614 170.978 37.3107 171.127 36.928H172.289C172.103 37.572 171.743 38.1087 171.211 38.538C170.689 38.958 170.017 39.168 169.195 39.168ZM169.195 32.882C168.635 32.882 168.136 33.0547 167.697 33.4C167.268 33.736 167.021 34.2307 166.955 34.884H171.323C171.295 34.2587 171.081 33.7687 170.679 33.414C170.278 33.0593 169.783 32.882 169.195 32.882ZM176.354 39.168C175.775 39.168 175.295 39.07 174.912 38.874C174.529 38.678 174.245 38.4167 174.058 38.09C173.871 37.7633 173.778 37.4087 173.778 37.026C173.778 36.3167 174.049 35.7707 174.59 35.388C175.131 35.0053 175.869 34.814 176.802 34.814H178.678V34.73C178.678 34.1233 178.519 33.666 178.202 33.358C177.885 33.0407 177.46 32.882 176.928 32.882C176.471 32.882 176.074 32.9987 175.738 33.232C175.411 33.456 175.206 33.7873 175.122 34.226H173.918C173.965 33.722 174.133 33.2973 174.422 32.952C174.721 32.6067 175.089 32.3453 175.528 32.168C175.967 31.9813 176.433 31.888 176.928 31.888C177.899 31.888 178.627 32.1493 179.112 32.672C179.607 33.1853 179.854 33.8713 179.854 34.73V39H178.804L178.734 37.754C178.538 38.146 178.249 38.482 177.866 38.762C177.493 39.0327 176.989 39.168 176.354 39.168ZM176.536 38.174C176.984 38.174 177.367 38.0573 177.684 37.824C178.011 37.5907 178.258 37.2873 178.426 36.914C178.594 36.5407 178.678 36.1487 178.678 35.738V35.724H176.9C176.209 35.724 175.719 35.8453 175.43 36.088C175.15 36.3213 175.01 36.6153 175.01 36.97C175.01 37.334 175.141 37.628 175.402 37.852C175.673 38.0667 176.051 38.174 176.536 38.174ZM184.171 39C183.536 39 183.037 38.846 182.673 38.538C182.309 38.23 182.127 37.6747 182.127 36.872V33.05H180.923V32.056H182.127L182.281 30.39H183.303V32.056H185.347V33.05H183.303V36.872C183.303 37.3107 183.392 37.6093 183.569 37.768C183.746 37.9173 184.059 37.992 184.507 37.992H185.235V39H184.171ZM189.375 39.168C188.554 39.168 187.9 38.9207 187.415 38.426C186.93 37.922 186.687 37.152 186.687 36.116V32.056H187.863V35.99C187.863 37.4367 188.456 38.16 189.641 38.16C190.248 38.16 190.747 37.9453 191.139 37.516C191.54 37.0773 191.741 36.4567 191.741 35.654V32.056H192.917V39H191.853L191.769 37.754C191.554 38.1927 191.232 38.538 190.803 38.79C190.383 39.042 189.907 39.168 189.375 39.168ZM194.853 39V32.056H195.917L196.015 33.386C196.229 32.9287 196.556 32.5647 196.995 32.294C197.433 32.0233 197.975 31.888 198.619 31.888V33.12H198.297C197.886 33.12 197.508 33.1947 197.163 33.344C196.817 33.484 196.542 33.7267 196.337 34.072C196.131 34.4173 196.029 34.8933 196.029 35.5V39H194.853ZM202.801 39.168C202.138 39.168 201.55 39.0187 201.037 38.72C200.524 38.412 200.118 37.9873 199.819 37.446C199.53 36.9047 199.385 36.2653 199.385 35.528C199.385 34.8 199.53 34.1653 199.819 33.624C200.108 33.0733 200.51 32.6487 201.023 32.35C201.546 32.042 202.148 31.888 202.829 31.888C203.501 31.888 204.08 32.042 204.565 32.35C205.06 32.6487 205.438 33.0453 205.699 33.54C205.96 34.0347 206.091 34.5667 206.091 35.136C206.091 35.2387 206.086 35.3413 206.077 35.444C206.077 35.5467 206.077 35.6633 206.077 35.794H200.547C200.575 36.326 200.696 36.7693 200.911 37.124C201.135 37.4693 201.41 37.7307 201.737 37.908C202.073 38.0853 202.428 38.174 202.801 38.174C203.286 38.174 203.692 38.062 204.019 37.838C204.346 37.614 204.584 37.3107 204.733 36.928H205.895C205.708 37.572 205.349 38.1087 204.817 38.538C204.294 38.958 203.622 39.168 202.801 39.168ZM202.801 32.882C202.241 32.882 201.742 33.0547 201.303 33.4C200.874 33.736 200.626 34.2307 200.561 34.884H204.929C204.901 34.2587 204.686 33.7687 204.285 33.414C203.884 33.0593 203.389 32.882 202.801 32.882ZM210.31 39.168C209.479 39.168 208.788 38.958 208.238 38.538C207.687 38.118 207.365 37.5487 207.272 36.83H208.476C208.55 37.194 208.742 37.5113 209.05 37.782C209.367 38.0433 209.792 38.174 210.324 38.174C210.818 38.174 211.182 38.0713 211.416 37.866C211.649 37.6513 211.766 37.3993 211.766 37.11C211.766 36.69 211.612 36.41 211.304 36.27C211.005 36.13 210.58 36.004 210.03 35.892C209.656 35.8173 209.283 35.71 208.91 35.57C208.536 35.43 208.224 35.234 207.972 34.982C207.72 34.7207 207.594 34.38 207.594 33.96C207.594 33.3533 207.818 32.8587 208.266 32.476C208.723 32.084 209.339 31.888 210.114 31.888C210.851 31.888 211.453 32.0747 211.92 32.448C212.396 32.812 212.671 33.3347 212.746 34.016H211.584C211.537 33.6613 211.383 33.386 211.122 33.19C210.87 32.9847 210.529 32.882 210.1 32.882C209.68 32.882 209.353 32.9707 209.12 33.148C208.896 33.3253 208.784 33.5587 208.784 33.848C208.784 34.128 208.928 34.3473 209.218 34.506C209.516 34.6647 209.918 34.8 210.422 34.912C210.851 35.0053 211.257 35.122 211.64 35.262C212.032 35.3927 212.349 35.5933 212.592 35.864C212.844 36.1253 212.97 36.508 212.97 37.012C212.979 37.6373 212.741 38.1553 212.256 38.566C211.78 38.9673 211.131 39.168 210.31 39.168ZM218.355 39V28.92H219.531V39H218.355ZM222.172 30.516C221.939 30.516 221.743 30.4413 221.584 30.292C221.435 30.1333 221.36 29.9373 221.36 29.704C221.36 29.48 221.435 29.2933 221.584 29.144C221.743 28.9947 221.939 28.92 222.172 28.92C222.396 28.92 222.588 28.9947 222.746 29.144C222.905 29.2933 222.984 29.48 222.984 29.704C222.984 29.9373 222.905 30.1333 222.746 30.292C222.588 30.4413 222.396 30.516 222.172 30.516ZM221.584 39V32.056H222.76V39H221.584ZM224.808 39V28.92H225.984V34.982L228.826 32.056H230.268L227.188 35.192L230.66 39H229.162L225.984 35.402V39H224.808ZM234.479 39.168C233.816 39.168 233.228 39.0187 232.715 38.72C232.201 38.412 231.795 37.9873 231.497 37.446C231.207 36.9047 231.063 36.2653 231.063 35.528C231.063 34.8 231.207 34.1653 231.497 33.624C231.786 33.0733 232.187 32.6487 232.701 32.35C233.223 32.042 233.825 31.888 234.507 31.888C235.179 31.888 235.757 32.042 236.243 32.35C236.737 32.6487 237.115 33.0453 237.377 33.54C237.638 34.0347 237.769 34.5667 237.769 35.136C237.769 35.2387 237.764 35.3413 237.755 35.444C237.755 35.5467 237.755 35.6633 237.755 35.794H232.225C232.253 36.326 232.374 36.7693 232.589 37.124C232.813 37.4693 233.088 37.7307 233.415 37.908C233.751 38.0853 234.105 38.174 234.479 38.174C234.964 38.174 235.37 38.062 235.697 37.838C236.023 37.614 236.261 37.3107 236.411 36.928H237.573C237.386 37.572 237.027 38.1087 236.495 38.538C235.972 38.958 235.3 39.168 234.479 39.168ZM234.479 32.882C233.919 32.882 233.419 33.0547 232.981 33.4C232.551 33.736 232.304 34.2307 232.239 34.884H236.607C236.579 34.2587 236.364 33.7687 235.963 33.414C235.561 33.0593 235.067 32.882 234.479 32.882ZM105.116 57.168C104.425 57.168 103.819 57.0093 103.296 56.692C102.783 56.3747 102.381 55.9407 102.092 55.39C101.812 54.8393 101.672 54.214 101.672 53.514C101.672 52.814 101.817 52.1933 102.106 51.652C102.395 51.1013 102.797 50.672 103.31 50.364C103.823 50.0467 104.43 49.888 105.13 49.888C105.699 49.888 106.203 50.0047 106.642 50.238C107.081 50.4713 107.421 50.798 107.664 51.218V46.92H108.84V57H107.776L107.664 55.852C107.44 56.188 107.118 56.4913 106.698 56.762C106.278 57.0327 105.751 57.168 105.116 57.168ZM105.242 56.146C105.709 56.146 106.119 56.0387 106.474 55.824C106.838 55.6 107.118 55.292 107.314 54.9C107.519 54.508 107.622 54.0507 107.622 53.528C107.622 53.0053 107.519 52.548 107.314 52.156C107.118 51.764 106.838 51.4607 106.474 51.246C106.119 51.022 105.709 50.91 105.242 50.91C104.785 50.91 104.374 51.022 104.01 51.246C103.655 51.4607 103.375 51.764 103.17 52.156C102.974 52.548 102.876 53.0053 102.876 53.528C102.876 54.0507 102.974 54.508 103.17 54.9C103.375 55.292 103.655 55.6 104.01 55.824C104.374 56.0387 104.785 56.146 105.242 56.146ZM111.513 60.08L113.235 56.328H112.829L110.071 50.056H111.345L113.641 55.46L116.077 50.056H117.295L112.745 60.08H111.513ZM118.536 57V50.056H119.6L119.67 51.302C119.894 50.8633 120.216 50.518 120.636 50.266C121.056 50.014 121.532 49.888 122.064 49.888C122.886 49.888 123.539 50.14 124.024 50.644C124.519 51.1387 124.766 51.904 124.766 52.94V57H123.59V53.066C123.59 51.6193 122.993 50.896 121.798 50.896C121.201 50.896 120.702 51.1153 120.3 51.554C119.908 51.9833 119.712 52.5993 119.712 53.402V57H118.536ZM128.858 57.168C128.279 57.168 127.799 57.07 127.416 56.874C127.033 56.678 126.749 56.4167 126.562 56.09C126.375 55.7633 126.282 55.4087 126.282 55.026C126.282 54.3167 126.553 53.7707 127.094 53.388C127.635 53.0053 128.373 52.814 129.306 52.814H131.182V52.73C131.182 52.1233 131.023 51.666 130.706 51.358C130.389 51.0407 129.964 50.882 129.432 50.882C128.975 50.882 128.578 50.9987 128.242 51.232C127.915 51.456 127.71 51.7873 127.626 52.226H126.422C126.469 51.722 126.637 51.2973 126.926 50.952C127.225 50.6067 127.593 50.3453 128.032 50.168C128.471 49.9813 128.937 49.888 129.432 49.888C130.403 49.888 131.131 50.1493 131.616 50.672C132.111 51.1853 132.358 51.8713 132.358 52.73V57H131.308L131.238 55.754C131.042 56.146 130.753 56.482 130.37 56.762C129.997 57.0327 129.493 57.168 128.858 57.168ZM129.04 56.174C129.488 56.174 129.871 56.0573 130.188 55.824C130.515 55.5907 130.762 55.2873 130.93 54.914C131.098 54.5407 131.182 54.1487 131.182 53.738V53.724H129.404C128.713 53.724 128.223 53.8453 127.934 54.088C127.654 54.3213 127.514 54.6153 127.514 54.97C127.514 55.334 127.645 55.628 127.906 55.852C128.177 56.0667 128.555 56.174 129.04 56.174ZM134.122 57V50.056H135.186L135.27 51.064C135.494 50.6907 135.793 50.4013 136.166 50.196C136.54 49.9907 136.96 49.888 137.426 49.888C137.977 49.888 138.448 50 138.84 50.224C139.242 50.448 139.55 50.7887 139.764 51.246C140.007 50.826 140.338 50.4947 140.758 50.252C141.188 50.0093 141.65 49.888 142.144 49.888C142.975 49.888 143.638 50.14 144.132 50.644C144.627 51.1387 144.874 51.904 144.874 52.94V57H143.712V53.066C143.712 52.3473 143.568 51.806 143.278 51.442C142.989 51.078 142.574 50.896 142.032 50.896C141.472 50.896 141.006 51.1153 140.632 51.554C140.268 51.9833 140.086 52.5993 140.086 53.402V57H138.91V53.066C138.91 52.3473 138.766 51.806 138.476 51.442C138.187 51.078 137.772 50.896 137.23 50.896C136.68 50.896 136.218 51.1153 135.844 51.554C135.48 51.9833 135.298 52.5993 135.298 53.402V57H134.122ZM147.36 48.516C147.126 48.516 146.93 48.4413 146.772 48.292C146.622 48.1333 146.548 47.9373 146.548 47.704C146.548 47.48 146.622 47.2933 146.772 47.144C146.93 46.9947 147.126 46.92 147.36 46.92C147.584 46.92 147.775 46.9947 147.934 47.144C148.092 47.2933 148.172 47.48 148.172 47.704C148.172 47.9373 148.092 48.1333 147.934 48.292C147.775 48.4413 147.584 48.516 147.36 48.516ZM146.772 57V50.056H147.948V57H146.772ZM153.187 57.168C152.525 57.168 151.927 57.0187 151.395 56.72C150.873 56.412 150.457 55.9873 150.149 55.446C149.851 54.8953 149.701 54.256 149.701 53.528C149.701 52.8 149.851 52.1653 150.149 51.624C150.457 51.0733 150.873 50.6487 151.395 50.35C151.927 50.042 152.525 49.888 153.187 49.888C154.009 49.888 154.699 50.1027 155.259 50.532C155.829 50.9613 156.188 51.5353 156.337 52.254H155.133C155.04 51.8247 154.811 51.4933 154.447 51.26C154.083 51.0173 153.659 50.896 153.173 50.896C152.781 50.896 152.413 50.994 152.067 51.19C151.722 51.386 151.442 51.68 151.227 52.072C151.013 52.464 150.905 52.9493 150.905 53.528C150.905 54.1067 151.013 54.592 151.227 54.984C151.442 55.376 151.722 55.6747 152.067 55.88C152.413 56.076 152.781 56.174 153.173 56.174C153.659 56.174 154.083 56.0573 154.447 55.824C154.811 55.5813 155.04 55.2407 155.133 54.802H156.337C156.197 55.502 155.843 56.0713 155.273 56.51C154.704 56.9487 154.009 57.168 153.187 57.168ZM163.085 57L161.055 50.056H162.231L163.701 55.502L165.325 50.056H166.655L168.293 55.502L169.749 50.056H170.939L168.909 57H167.705L165.997 51.274L164.289 57H163.085ZM175.144 57.168C174.49 57.168 173.902 57.0187 173.38 56.72C172.857 56.4213 172.442 56.0013 172.134 55.46C171.835 54.9093 171.686 54.2653 171.686 53.528C171.686 52.7907 171.84 52.1513 172.148 51.61C172.456 51.0593 172.871 50.6347 173.394 50.336C173.926 50.0373 174.518 49.888 175.172 49.888C175.825 49.888 176.413 50.0373 176.936 50.336C177.458 50.6347 177.869 51.0593 178.168 51.61C178.476 52.1513 178.63 52.7907 178.63 53.528C178.63 54.2653 178.476 54.9093 178.168 55.46C177.86 56.0013 177.44 56.4213 176.908 56.72C176.385 57.0187 175.797 57.168 175.144 57.168ZM175.144 56.16C175.545 56.16 175.918 56.062 176.264 55.866C176.609 55.67 176.889 55.376 177.104 54.984C177.318 54.592 177.426 54.1067 177.426 53.528C177.426 52.9493 177.318 52.464 177.104 52.072C176.898 51.68 176.623 51.386 176.278 51.19C175.932 50.994 175.564 50.896 175.172 50.896C174.77 50.896 174.397 50.994 174.052 51.19C173.706 51.386 173.426 51.68 173.212 52.072C172.997 52.464 172.89 52.9493 172.89 53.528C172.89 54.1067 172.997 54.592 173.212 54.984C173.426 55.376 173.702 55.67 174.038 55.866C174.383 56.062 174.752 56.16 175.144 56.16ZM180.265 57V50.056H181.329L181.427 51.386C181.641 50.9287 181.968 50.5647 182.407 50.294C182.845 50.0233 183.387 49.888 184.031 49.888V51.12H183.709C183.298 51.12 182.92 51.1947 182.575 51.344C182.229 51.484 181.954 51.7267 181.749 52.072C181.543 52.4173 181.441 52.8933 181.441 53.5V57H180.265ZM185.351 57V46.92H186.527V52.982L189.369 50.056H190.811L187.731 53.192L191.203 57H189.705L186.527 53.402V57H185.351ZM192.783 57V51.05H191.733V50.056H192.783V48.852C192.783 48.18 192.951 47.69 193.287 47.382C193.623 47.074 194.113 46.92 194.757 46.92H195.457V47.928H194.939C194.585 47.928 194.333 48.0027 194.183 48.152C194.034 48.292 193.959 48.5347 193.959 48.88V50.056H195.667V51.05H193.959V57H192.783ZM197.067 57V46.92H198.243V57H197.067ZM203.335 57.168C202.682 57.168 202.094 57.0187 201.571 56.72C201.048 56.4213 200.633 56.0013 200.325 55.46C200.026 54.9093 199.877 54.2653 199.877 53.528C199.877 52.7907 200.031 52.1513 200.339 51.61C200.647 51.0593 201.062 50.6347 201.585 50.336C202.117 50.0373 202.71 49.888 203.363 49.888C204.016 49.888 204.604 50.0373 205.127 50.336C205.65 50.6347 206.06 51.0593 206.359 51.61C206.667 52.1513 206.821 52.7907 206.821 53.528C206.821 54.2653 206.667 54.9093 206.359 55.46C206.051 56.0013 205.631 56.4213 205.099 56.72C204.576 57.0187 203.988 57.168 203.335 57.168ZM203.335 56.16C203.736 56.16 204.11 56.062 204.455 55.866C204.8 55.67 205.08 55.376 205.295 54.984C205.51 54.592 205.617 54.1067 205.617 53.528C205.617 52.9493 205.51 52.464 205.295 52.072C205.09 51.68 204.814 51.386 204.469 51.19C204.124 50.994 203.755 50.896 203.363 50.896C202.962 50.896 202.588 50.994 202.243 51.19C201.898 51.386 201.618 51.68 201.403 52.072C201.188 52.464 201.081 52.9493 201.081 53.528C201.081 54.1067 201.188 54.592 201.403 54.984C201.618 55.376 201.893 55.67 202.229 55.866C202.574 56.062 202.943 56.16 203.335 56.16ZM209.596 57L207.566 50.056H208.742L210.212 55.502L211.836 50.056H213.166L214.804 55.502L216.26 50.056H217.45L215.42 57H214.216L212.508 51.274L210.8 57H209.596ZM221.411 57.168C220.58 57.168 219.89 56.958 219.339 56.538C218.788 56.118 218.466 55.5487 218.373 54.83H219.577C219.652 55.194 219.843 55.5113 220.151 55.782C220.468 56.0433 220.893 56.174 221.425 56.174C221.92 56.174 222.284 56.0713 222.517 55.866C222.75 55.6513 222.867 55.3993 222.867 55.11C222.867 54.69 222.713 54.41 222.405 54.27C222.106 54.13 221.682 54.004 221.131 53.892C220.758 53.8173 220.384 53.71 220.011 53.57C219.638 53.43 219.325 53.234 219.073 52.982C218.821 52.7207 218.695 52.38 218.695 51.96C218.695 51.3533 218.919 50.8587 219.367 50.476C219.824 50.084 220.44 49.888 221.215 49.888C221.952 49.888 222.554 50.0747 223.021 50.448C223.497 50.812 223.772 51.3347 223.847 52.016H222.685C222.638 51.6613 222.484 51.386 222.223 51.19C221.971 50.9847 221.63 50.882 221.201 50.882C220.781 50.882 220.454 50.9707 220.221 51.148C219.997 51.3253 219.885 51.5587 219.885 51.848C219.885 52.128 220.03 52.3473 220.319 52.506C220.618 52.6647 221.019 52.8 221.523 52.912C221.952 53.0053 222.358 53.122 222.741 53.262C223.133 53.3927 223.45 53.5933 223.693 53.864C223.945 54.1253 224.071 54.508 224.071 55.012C224.08 55.6373 223.842 56.1553 223.357 56.566C222.881 56.9673 222.232 57.168 221.411 57.168ZM224.813 58.666L225.625 55.572H226.843L225.625 58.666H224.813ZM231.945 57V50.056H233.009L233.107 51.386C233.321 50.9287 233.648 50.5647 234.087 50.294C234.525 50.0233 235.067 49.888 235.711 49.888V51.12H235.389C234.978 51.12 234.6 51.1947 234.255 51.344C233.909 51.484 233.634 51.7267 233.429 52.072C233.223 52.4173 233.121 52.8933 233.121 53.5V57H231.945ZM239.893 57.168C239.23 57.168 238.642 57.0187 238.129 56.72C237.615 56.412 237.209 55.9873 236.911 55.446C236.621 54.9047 236.477 54.2653 236.477 53.528C236.477 52.8 236.621 52.1653 236.911 51.624C237.2 51.0733 237.601 50.6487 238.115 50.35C238.637 50.042 239.239 49.888 239.921 49.888C240.593 49.888 241.171 50.042 241.657 50.35C242.151 50.6487 242.529 51.0453 242.791 51.54C243.052 52.0347 243.183 52.5667 243.183 53.136C243.183 53.2387 243.178 53.3413 243.169 53.444C243.169 53.5467 243.169 53.6633 243.169 53.794H237.639C237.667 54.326 237.788 54.7693 238.003 55.124C238.227 55.4693 238.502 55.7307 238.829 55.908C239.165 56.0853 239.519 56.174 239.893 56.174C240.378 56.174 240.784 56.062 241.111 55.838C241.437 55.614 241.675 55.3107 241.825 54.928H242.987C242.8 55.572 242.441 56.1087 241.909 56.538C241.386 56.958 240.714 57.168 239.893 57.168ZM239.893 50.882C239.333 50.882 238.833 51.0547 238.395 51.4C237.965 51.736 237.718 52.2307 237.653 52.884H242.021C241.993 52.2587 241.778 51.7687 241.377 51.414C240.975 51.0593 240.481 50.882 239.893 50.882ZM244.601 53.43V52.436H250.145V53.43H244.601ZM105.116 75.168C104.425 75.168 103.819 75.0093 103.296 74.692C102.783 74.3747 102.381 73.9407 102.092 73.39C101.812 72.8393 101.672 72.214 101.672 71.514C101.672 70.814 101.817 70.1933 102.106 69.652C102.395 69.1013 102.797 68.672 103.31 68.364C103.823 68.0467 104.43 67.888 105.13 67.888C105.699 67.888 106.203 68.0047 106.642 68.238C107.081 68.4713 107.421 68.798 107.664 69.218V64.92H108.84V75H107.776L107.664 73.852C107.44 74.188 107.118 74.4913 106.698 74.762C106.278 75.0327 105.751 75.168 105.116 75.168ZM105.242 74.146C105.709 74.146 106.119 74.0387 106.474 73.824C106.838 73.6 107.118 73.292 107.314 72.9C107.519 72.508 107.622 72.0507 107.622 71.528C107.622 71.0053 107.519 70.548 107.314 70.156C107.118 69.764 106.838 69.4607 106.474 69.246C106.119 69.022 105.709 68.91 105.242 68.91C104.785 68.91 104.374 69.022 104.01 69.246C103.655 69.4607 103.375 69.764 103.17 70.156C102.974 70.548 102.876 71.0053 102.876 71.528C102.876 72.0507 102.974 72.508 103.17 72.9C103.375 73.292 103.655 73.6 104.01 73.824C104.374 74.0387 104.785 74.146 105.242 74.146ZM111.471 66.516C111.238 66.516 111.042 66.4413 110.883 66.292C110.734 66.1333 110.659 65.9373 110.659 65.704C110.659 65.48 110.734 65.2933 110.883 65.144C111.042 64.9947 111.238 64.92 111.471 64.92C111.695 64.92 111.886 64.9947 112.045 65.144C112.204 65.2933 112.283 65.48 112.283 65.704C112.283 65.9373 112.204 66.1333 112.045 66.292C111.886 66.4413 111.695 66.516 111.471 66.516ZM110.883 75V68.056H112.059V75H110.883ZM116.767 75.168C115.936 75.168 115.245 74.958 114.695 74.538C114.144 74.118 113.822 73.5487 113.729 72.83H114.933C115.007 73.194 115.199 73.5113 115.507 73.782C115.824 74.0433 116.249 74.174 116.781 74.174C117.275 74.174 117.639 74.0713 117.873 73.866C118.106 73.6513 118.223 73.3993 118.223 73.11C118.223 72.69 118.069 72.41 117.761 72.27C117.462 72.13 117.037 72.004 116.487 71.892C116.113 71.8173 115.74 71.71 115.367 71.57C114.993 71.43 114.681 71.234 114.429 70.982C114.177 70.7207 114.051 70.38 114.051 69.96C114.051 69.3533 114.275 68.8587 114.723 68.476C115.18 68.084 115.796 67.888 116.571 67.888C117.308 67.888 117.91 68.0747 118.377 68.448C118.853 68.812 119.128 69.3347 119.203 70.016H118.041C117.994 69.6613 117.84 69.386 117.579 69.19C117.327 68.9847 116.986 68.882 116.557 68.882C116.137 68.882 115.81 68.9707 115.577 69.148C115.353 69.3253 115.241 69.5587 115.241 69.848C115.241 70.128 115.385 70.3473 115.675 70.506C115.973 70.6647 116.375 70.8 116.879 70.912C117.308 71.0053 117.714 71.122 118.097 71.262C118.489 71.3927 118.806 71.5933 119.049 71.864C119.301 72.1253 119.427 72.508 119.427 73.012C119.436 73.6373 119.198 74.1553 118.713 74.566C118.237 74.9673 117.588 75.168 116.767 75.168ZM121.107 78.08V68.056H122.171L122.283 69.204C122.507 68.868 122.824 68.5647 123.235 68.294C123.655 68.0233 124.187 67.888 124.831 67.888C125.521 67.888 126.123 68.0467 126.637 68.364C127.15 68.6813 127.547 69.1153 127.827 69.666C128.116 70.2167 128.261 70.842 128.261 71.542C128.261 72.242 128.116 72.8673 127.827 73.418C127.547 73.9593 127.145 74.3887 126.623 74.706C126.109 75.014 125.507 75.168 124.817 75.168C124.247 75.168 123.739 75.0513 123.291 74.818C122.852 74.5847 122.516 74.258 122.283 73.838V78.08H121.107ZM124.691 74.146C125.157 74.146 125.568 74.0387 125.923 73.824C126.277 73.6 126.557 73.292 126.763 72.9C126.968 72.508 127.071 72.0507 127.071 71.528C127.071 71.0053 126.968 70.548 126.763 70.156C126.557 69.764 126.277 69.4607 125.923 69.246C125.568 69.022 125.157 68.91 124.691 68.91C124.224 68.91 123.813 69.022 123.459 69.246C123.104 69.4607 122.824 69.764 122.619 70.156C122.413 70.548 122.311 71.0053 122.311 71.528C122.311 72.0507 122.413 72.508 122.619 72.9C122.824 73.292 123.104 73.6 123.459 73.824C123.813 74.0387 124.224 74.146 124.691 74.146ZM132.208 75.168C131.629 75.168 131.148 75.07 130.766 74.874C130.383 74.678 130.098 74.4167 129.912 74.09C129.725 73.7633 129.632 73.4087 129.632 73.026C129.632 72.3167 129.902 71.7707 130.444 71.388C130.985 71.0053 131.722 70.814 132.656 70.814H134.532V70.73C134.532 70.1233 134.373 69.666 134.056 69.358C133.738 69.0407 133.314 68.882 132.782 68.882C132.324 68.882 131.928 68.9987 131.592 69.232C131.265 69.456 131.06 69.7873 130.976 70.226H129.772C129.818 69.722 129.986 69.2973 130.276 68.952C130.574 68.6067 130.943 68.3453 131.382 68.168C131.82 67.9813 132.287 67.888 132.782 67.888C133.752 67.888 134.48 68.1493 134.966 68.672C135.46 69.1853 135.708 69.8713 135.708 70.73V75H134.658L134.588 73.754C134.392 74.146 134.102 74.482 133.72 74.762C133.346 75.0327 132.842 75.168 132.208 75.168ZM132.39 74.174C132.838 74.174 133.22 74.0573 133.538 73.824C133.864 73.5907 134.112 73.2873 134.28 72.914C134.448 72.5407 134.532 72.1487 134.532 71.738V71.724H132.754C132.063 71.724 131.573 71.8453 131.284 72.088C131.004 72.3213 130.864 72.6153 130.864 72.97C130.864 73.334 130.994 73.628 131.256 73.852C131.526 74.0667 131.904 74.174 132.39 74.174ZM140.024 75C139.39 75 138.89 74.846 138.526 74.538C138.162 74.23 137.98 73.6747 137.98 72.872V69.05H136.776V68.056H137.98L138.134 66.39H139.156V68.056H141.2V69.05H139.156V72.872C139.156 73.3107 139.245 73.6093 139.422 73.768C139.6 73.9173 139.912 73.992 140.36 73.992H141.088V75H140.024ZM145.695 75.168C145.032 75.168 144.435 75.0187 143.903 74.72C143.38 74.412 142.965 73.9873 142.657 73.446C142.358 72.8953 142.209 72.256 142.209 71.528C142.209 70.8 142.358 70.1653 142.657 69.624C142.965 69.0733 143.38 68.6487 143.903 68.35C144.435 68.042 145.032 67.888 145.695 67.888C146.516 67.888 147.207 68.1027 147.767 68.532C148.336 68.9613 148.696 69.5353 148.845 70.254H147.641C147.548 69.8247 147.319 69.4933 146.955 69.26C146.591 69.0173 146.166 68.896 145.681 68.896C145.289 68.896 144.92 68.994 144.575 69.19C144.23 69.386 143.95 69.68 143.735 70.072C143.52 70.464 143.413 70.9493 143.413 71.528C143.413 72.1067 143.52 72.592 143.735 72.984C143.95 73.376 144.23 73.6747 144.575 73.88C144.92 74.076 145.289 74.174 145.681 74.174C146.166 74.174 146.591 74.0573 146.955 73.824C147.319 73.5813 147.548 73.2407 147.641 72.802H148.845C148.705 73.502 148.35 74.0713 147.781 74.51C147.212 74.9487 146.516 75.168 145.695 75.168ZM150.487 75V64.92H151.663V69.246C151.897 68.8167 152.228 68.4853 152.657 68.252C153.087 68.0093 153.553 67.888 154.057 67.888C154.86 67.888 155.504 68.14 155.989 68.644C156.475 69.1387 156.717 69.904 156.717 70.94V75H155.555V71.066C155.555 69.6193 154.972 68.896 153.805 68.896C153.199 68.896 152.69 69.1153 152.279 69.554C151.869 69.9833 151.663 70.5993 151.663 71.402V75H150.487ZM164.514 75.168C163.936 75.168 163.455 75.07 163.072 74.874C162.69 74.678 162.405 74.4167 162.218 74.09C162.032 73.7633 161.938 73.4087 161.938 73.026C161.938 72.3167 162.209 71.7707 162.75 71.388C163.292 71.0053 164.029 70.814 164.962 70.814H166.838V70.73C166.838 70.1233 166.68 69.666 166.362 69.358C166.045 69.0407 165.62 68.882 165.088 68.882C164.631 68.882 164.234 68.9987 163.898 69.232C163.572 69.456 163.366 69.7873 163.282 70.226H162.078C162.125 69.722 162.293 69.2973 162.582 68.952C162.881 68.6067 163.25 68.3453 163.688 68.168C164.127 67.9813 164.594 67.888 165.088 67.888C166.059 67.888 166.787 68.1493 167.272 68.672C167.767 69.1853 168.014 69.8713 168.014 70.73V75H166.964L166.894 73.754C166.698 74.146 166.409 74.482 166.026 74.762C165.653 75.0327 165.149 75.168 164.514 75.168ZM164.696 74.174C165.144 74.174 165.527 74.0573 165.844 73.824C166.171 73.5907 166.418 73.2873 166.586 72.914C166.754 72.5407 166.838 72.1487 166.838 71.738V71.724H165.06C164.37 71.724 163.88 71.8453 163.59 72.088C163.31 72.3213 163.17 72.6153 163.17 72.97C163.17 73.334 163.301 73.628 163.562 73.852C163.833 74.0667 164.211 74.174 164.696 74.174ZM169.779 75V68.056H170.843L170.913 69.302C171.137 68.8633 171.459 68.518 171.879 68.266C172.299 68.014 172.775 67.888 173.307 67.888C174.128 67.888 174.781 68.14 175.267 68.644C175.761 69.1387 176.008 69.904 176.008 70.94V75H174.833V71.066C174.833 69.6193 174.235 68.896 173.041 68.896C172.443 68.896 171.944 69.1153 171.543 69.554C171.151 69.9833 170.955 70.5993 170.955 71.402V75H169.779ZM180.94 75.168C180.25 75.168 179.643 75.0093 179.12 74.692C178.607 74.3747 178.206 73.9407 177.916 73.39C177.636 72.8393 177.496 72.214 177.496 71.514C177.496 70.814 177.641 70.1933 177.93 69.652C178.22 69.1013 178.621 68.672 179.134 68.364C179.648 68.0467 180.254 67.888 180.954 67.888C181.524 67.888 182.028 68.0047 182.466 68.238C182.905 68.4713 183.246 68.798 183.488 69.218V64.92H184.664V75H183.6L183.488 73.852C183.264 74.188 182.942 74.4913 182.522 74.762C182.102 75.0327 181.575 75.168 180.94 75.168ZM181.066 74.146C181.533 74.146 181.944 74.0387 182.298 73.824C182.662 73.6 182.942 73.292 183.138 72.9C183.344 72.508 183.446 72.0507 183.446 71.528C183.446 71.0053 183.344 70.548 183.138 70.156C182.942 69.764 182.662 69.4607 182.298 69.246C181.944 69.022 181.533 68.91 181.066 68.91C180.609 68.91 180.198 69.022 179.834 69.246C179.48 69.4607 179.2 69.764 178.994 70.156C178.798 70.548 178.7 71.0053 178.7 71.528C178.7 72.0507 178.798 72.508 178.994 72.9C179.2 73.292 179.48 73.6 179.834 73.824C180.198 74.0387 180.609 74.146 181.066 74.146ZM190.286 75V68.056H191.35L191.434 69.064C191.658 68.6907 191.957 68.4013 192.33 68.196C192.704 67.9907 193.124 67.888 193.59 67.888C194.141 67.888 194.612 68 195.004 68.224C195.406 68.448 195.714 68.7887 195.928 69.246C196.171 68.826 196.502 68.4947 196.922 68.252C197.352 68.0093 197.814 67.888 198.308 67.888C199.139 67.888 199.802 68.14 200.296 68.644C200.791 69.1387 201.038 69.904 201.038 70.94V75H199.876V71.066C199.876 70.3473 199.732 69.806 199.442 69.442C199.153 69.078 198.738 68.896 198.196 68.896C197.636 68.896 197.17 69.1153 196.796 69.554C196.432 69.9833 196.25 70.5993 196.25 71.402V75H195.074V71.066C195.074 70.3473 194.93 69.806 194.64 69.442C194.351 69.078 193.936 68.896 193.394 68.896C192.844 68.896 192.382 69.1153 192.008 69.554C191.644 69.9833 191.462 70.5993 191.462 71.402V75H190.286ZM205.974 75.168C205.32 75.168 204.732 75.0187 204.21 74.72C203.687 74.4213 203.272 74.0013 202.964 73.46C202.665 72.9093 202.516 72.2653 202.516 71.528C202.516 70.7907 202.67 70.1513 202.978 69.61C203.286 69.0593 203.701 68.6347 204.224 68.336C204.756 68.0373 205.348 67.888 206.002 67.888C206.655 67.888 207.243 68.0373 207.766 68.336C208.288 68.6347 208.699 69.0593 208.998 69.61C209.306 70.1513 209.46 70.7907 209.46 71.528C209.46 72.2653 209.306 72.9093 208.998 73.46C208.69 74.0013 208.27 74.4213 207.738 74.72C207.215 75.0187 206.627 75.168 205.974 75.168ZM205.974 74.16C206.375 74.16 206.748 74.062 207.094 73.866C207.439 73.67 207.719 73.376 207.934 72.984C208.148 72.592 208.256 72.1067 208.256 71.528C208.256 70.9493 208.148 70.464 207.934 70.072C207.728 69.68 207.453 69.386 207.108 69.19C206.762 68.994 206.394 68.896 206.002 68.896C205.6 68.896 205.227 68.994 204.882 69.19C204.536 69.386 204.256 69.68 204.042 70.072C203.827 70.464 203.72 70.9493 203.72 71.528C203.72 72.1067 203.827 72.592 204.042 72.984C204.256 73.376 204.532 73.67 204.868 73.866C205.213 74.062 205.582 74.16 205.974 74.16ZM211.095 75V68.056H212.159L212.257 69.386C212.472 68.9287 212.798 68.5647 213.237 68.294C213.676 68.0233 214.217 67.888 214.861 67.888V69.12H214.539C214.128 69.12 213.75 69.1947 213.405 69.344C213.06 69.484 212.784 69.7267 212.579 70.072C212.374 70.4173 212.271 70.8933 212.271 71.5V75H211.095ZM219.043 75.168C218.38 75.168 217.792 75.0187 217.279 74.72C216.766 74.412 216.36 73.9873 216.061 73.446C215.772 72.9047 215.627 72.2653 215.627 71.528C215.627 70.8 215.772 70.1653 216.061 69.624C216.35 69.0733 216.752 68.6487 217.265 68.35C217.788 68.042 218.39 67.888 219.071 67.888C219.743 67.888 220.322 68.042 220.807 68.35C221.302 68.6487 221.68 69.0453 221.941 69.54C222.202 70.0347 222.333 70.5667 222.333 71.136C222.333 71.2387 222.328 71.3413 222.319 71.444C222.319 71.5467 222.319 71.6633 222.319 71.794H216.789C216.817 72.326 216.938 72.7693 217.153 73.124C217.377 73.4693 217.652 73.7307 217.979 73.908C218.315 74.0853 218.67 74.174 219.043 74.174C219.528 74.174 219.934 74.062 220.261 73.838C220.588 73.614 220.826 73.3107 220.975 72.928H222.137C221.95 73.572 221.591 74.1087 221.059 74.538C220.536 74.958 219.864 75.168 219.043 75.168ZM219.043 68.882C218.483 68.882 217.984 69.0547 217.545 69.4C217.116 69.736 216.868 70.2307 216.803 70.884H221.171C221.143 70.2587 220.928 69.7687 220.527 69.414C220.126 69.0593 219.631 68.882 219.043 68.882Z" fill="#AEB6FF"/>
<defs>
<clipPath id="clip0_107_35">
<rect width="65" height="65" fill="white" transform="translate(0 2)"/>
</clipPath>
</defs>
</svg>
