<svg width="105" height="26" viewBox="0 0 105 26" fill="none" xmlns="http://www.w3.org/2000/svg">
<g clip-path="url(#clip0_218_5203)">
<path d="M33.4352 16.4485C33.6299 16.2245 33.8246 16.0006 34.0437 15.7767C34.2473 15.5452 34.4501 15.313 34.6523 15.0803C34.847 14.8312 35.0418 14.6073 35.2123 14.408C35.3829 14.2088 35.5531 14.0102 35.6747 13.861H38.036C37.5734 14.4083 37.1109 14.9557 36.6485 15.4531C36.2103 15.9508 35.7235 16.4733 35.188 17.0206C35.4815 17.3016 35.7579 17.6007 36.0156 17.9163C36.3076 18.2645 36.5754 18.6127 36.8433 18.9609C37.1087 19.31 37.3526 19.6757 37.5734 20.0559C37.7925 20.429 37.9875 20.7523 38.1335 21.0509H35.8453C35.699 20.8019 35.5287 20.5533 35.3583 20.2795C35.1802 19.978 34.9851 19.6873 34.7739 19.409C34.5761 19.1105 34.3564 18.8278 34.1169 18.5631C33.9229 18.3149 33.7024 18.0896 33.4596 17.8914V21.026H31.4636V10.7513L33.4596 10.4277V16.4485" fill="white"/>
<path d="M45.071 20.8019C44.6398 20.9248 44.2006 21.0163 43.7567 21.0756C43.2015 21.1683 42.6392 21.2099 42.0768 21.1999C41.5627 21.219 41.0499 21.1346 40.5677 20.9514C40.2048 20.8112 39.8837 20.5769 39.6362 20.2716C39.3887 19.9663 39.2231 19.6003 39.1559 19.2098C39.0565 18.7692 39.0074 18.3184 39.0097 17.8663V13.8608H41.0059V17.6174C41.0059 18.2643 41.079 18.7371 41.2494 19.0357C41.4197 19.3343 41.7361 19.4835 42.1986 19.4835C42.3532 19.487 42.5078 19.4787 42.6612 19.4586C42.8315 19.4337 42.9534 19.4337 43.0994 19.4088V13.8608H45.0954L45.071 20.8019Z" fill="white"/>
<path d="M51.4733 17.3937C51.4733 16.0753 51.0107 15.4285 50.0612 15.4285C49.8562 15.4287 49.6519 15.4537 49.4527 15.503C49.282 15.5452 49.1181 15.6122 48.966 15.702V19.409C49.0632 19.4339 49.1851 19.4339 49.331 19.4588C49.477 19.4588 49.6474 19.4837 49.818 19.4837C50.0544 19.4946 50.2899 19.4485 50.5056 19.349C50.7213 19.2496 50.911 19.0997 51.0595 18.9113C51.3506 18.4628 51.4955 17.9315 51.4733 17.3937ZM53.4937 17.4435C53.5039 17.9766 53.4215 18.5073 53.2502 19.011C53.1036 19.4572 52.8627 19.8649 52.5444 20.2051C52.2127 20.532 51.8248 20.7935 51.4002 20.9765C50.8994 21.1533 50.3718 21.2375 49.8421 21.225C49.5989 21.225 49.3554 21.2001 49.0876 21.1755C48.8197 21.1508 48.5765 21.1257 48.3087 21.1005C48.0652 21.0758 47.8217 21.026 47.5783 20.9762C47.3701 20.9397 47.1662 20.8813 46.9697 20.8021V10.751L48.966 10.4277V14.0102C49.1926 13.9096 49.4292 13.8345 49.6718 13.7863C49.9285 13.7357 50.1894 13.7108 50.4509 13.7118C50.9033 13.7033 51.352 13.7966 51.7652 13.9851C52.1424 14.1529 52.476 14.4087 52.7391 14.7318C53.0191 15.0799 53.2188 15.4881 53.3233 15.9259C53.4336 16.424 53.4907 16.9328 53.4937 17.4435Z" fill="white"/>
<path d="M54.6866 17.518C54.6735 16.948 54.7728 16.3811 54.9786 15.8512C55.1546 15.4081 55.4106 15.0028 55.7334 14.6566C56.0318 14.3359 56.3981 14.0892 56.8043 13.9355C57.2057 13.767 57.6361 13.6823 58.0701 13.6864C58.5066 13.666 58.9423 13.7396 59.3492 13.9025C59.756 14.0654 60.1247 14.3139 60.4314 14.6319C61.0156 15.2539 61.3076 16.1747 61.3076 17.3686C61.311 17.5018 61.3029 17.6351 61.2834 17.7668C61.2834 17.8911 61.2591 18.0154 61.2591 18.14H56.7309C56.7507 18.3395 56.8134 18.5322 56.9144 18.7042C57.0154 18.8762 57.1523 19.0233 57.3153 19.135C57.7207 19.4013 58.1971 19.5317 58.6784 19.5081C59.0379 19.5132 59.3969 19.4799 59.7495 19.4088C60.0494 19.3571 60.3431 19.2737 60.6259 19.1597L60.8935 20.8268C60.7963 20.8766 60.6503 20.9264 60.4556 21.0009C60.2586 21.0686 60.054 21.1104 59.8468 21.1254C59.6139 21.174 59.3781 21.2071 59.141 21.2246C58.8975 21.2497 58.6299 21.2746 58.3862 21.2746C57.8206 21.2879 57.258 21.1865 56.7309 20.9762C56.2959 20.7995 55.899 20.5375 55.5626 20.2048C55.2619 19.8556 55.0305 19.4501 54.8811 19.0107C54.7534 18.5238 54.6879 18.0221 54.6862 17.518M59.3845 16.7219C59.3779 16.5518 59.345 16.3839 59.287 16.2243C59.2388 16.0636 59.1647 15.9123 59.0679 15.7764C58.9524 15.6278 58.8037 15.5095 58.6343 15.4316C58.4649 15.3537 58.2797 15.3184 58.0942 15.3286C57.8932 15.3288 57.6943 15.3711 57.5098 15.4529C57.3573 15.517 57.2233 15.6197 57.1206 15.7515C57.0112 15.8829 56.9284 16.0351 56.8769 16.1994C56.825 16.3621 56.7843 16.5284 56.7553 16.697H59.3845" fill="white"/>
<path d="M67.077 15.6524C66.87 15.5919 66.6582 15.5503 66.4441 15.5279C66.1874 15.4771 65.9266 15.452 65.6652 15.4529C65.5102 15.461 65.3558 15.4777 65.2026 15.503C65.0716 15.521 64.9416 15.5459 64.8131 15.5777V21.0756H62.8169V14.2341C63.2312 14.0909 63.654 13.9746 64.0827 13.8859C64.6176 13.7613 65.1652 13.7029 65.7137 13.7118C65.8439 13.7091 65.9742 13.7173 66.1031 13.7365C66.2582 13.742 66.4128 13.7587 66.5657 13.7863C66.7119 13.8112 66.8579 13.8361 67.0282 13.861C67.1742 13.8859 67.3204 13.9357 67.4177 13.9602L67.077 15.6524Z" fill="white"/>
<path d="M68.4888 14.1098C69.466 13.8463 70.4724 13.7125 71.483 13.7118C71.9894 13.6902 72.4948 13.7748 72.968 13.9604C73.3399 14.0885 73.669 14.3214 73.9172 14.6321C74.1464 14.9435 74.312 15.2987 74.4041 15.6768C74.5062 16.117 74.5552 16.5682 74.5501 17.0206V21.0758H72.5539V17.2694C72.5539 16.6225 72.481 16.1498 72.3107 15.876C72.1403 15.6023 71.8237 15.478 71.3612 15.478C71.2066 15.4745 71.052 15.4829 70.8986 15.5029C70.7514 15.5058 70.6048 15.5225 70.4606 15.5527V21.1007H68.4888V14.1098Z" fill="white"/>
<path d="M76.0351 17.518C76.0219 16.948 76.1212 16.3811 76.3271 15.8512C76.503 15.4081 76.7591 15.0028 77.0818 14.6566C77.3803 14.3358 77.7467 14.0892 78.153 13.9355C78.5544 13.767 78.9848 13.6823 79.4188 13.6864C79.8553 13.666 80.291 13.7396 80.6978 13.9025C81.1047 14.0654 81.4734 14.3139 81.7801 14.6319C82.3641 15.2539 82.6563 16.1747 82.6563 17.3686C82.6596 17.5018 82.6514 17.6351 82.6319 17.7668C82.6319 17.8911 82.6075 18.0154 82.6075 18.14H78.0798C78.0997 18.3395 78.1623 18.5322 78.2633 18.7042C78.3643 18.8762 78.5012 19.0233 78.6643 19.135C79.0695 19.4012 79.5459 19.5317 80.0271 19.5081C80.3866 19.5133 80.7457 19.48 81.0985 19.4088C81.3982 19.3571 81.6918 19.2737 81.9746 19.1597L82.2424 20.8268C82.1452 20.8766 81.999 20.9264 81.8042 21.0009C81.6074 21.0685 81.4029 21.1104 81.1957 21.1254C80.9627 21.174 80.7269 21.2071 80.4897 21.2246C80.2464 21.2497 79.9786 21.2746 79.7351 21.2746C79.1695 21.2879 78.6069 21.1865 78.0798 20.9762C77.6448 20.7995 77.2479 20.5375 76.9115 20.2048C76.6107 19.8557 76.3792 19.4501 76.2298 19.0107C76.1022 18.5238 76.0367 18.0221 76.0351 17.518ZM80.7331 16.7219C80.7267 16.5518 80.6939 16.3839 80.6359 16.2243C80.5877 16.0636 80.5137 15.9123 80.4168 15.7764C80.3013 15.6277 80.1526 15.5094 79.9831 15.4315C79.8137 15.3536 79.6285 15.3183 79.4429 15.3286C79.2419 15.3288 79.0431 15.3711 78.8588 15.4529C78.7062 15.5169 78.5721 15.6197 78.4693 15.7515C78.36 15.8829 78.2772 16.0351 78.2258 16.1994C78.1739 16.3621 78.1332 16.5284 78.1042 16.697H80.7331" fill="white"/>
<path d="M84.1412 12.0699L86.1372 11.7466V13.8613H88.5229V15.5528H86.1372V18.0904C86.1206 18.4442 86.1962 18.7962 86.3563 19.1103C86.5025 19.3594 86.8188 19.4837 87.257 19.4837C87.4769 19.4795 87.6963 19.4629 87.9143 19.4339C88.1296 19.3938 88.3414 19.3356 88.5473 19.2598L88.8392 20.8519C88.5811 20.9643 88.3117 21.0477 88.0359 21.1007C87.6759 21.1777 87.3082 21.2109 86.9405 21.1999C86.4765 21.2129 86.0143 21.1372 85.5776 20.9764C85.2496 20.8403 84.9577 20.6272 84.7254 20.3542C84.4998 20.0624 84.3417 19.7222 84.2628 19.3592C84.1813 18.9414 84.1406 18.5164 84.1412 18.0904V12.0699Z" fill="white"/>
<path d="M89.5453 17.518C89.5322 16.948 89.6315 16.3811 89.8375 15.8512C90.0134 15.4081 90.2693 15.0028 90.592 14.6566C90.8905 14.3358 91.2569 14.0892 91.6631 13.9355C92.0646 13.767 92.495 13.6823 92.929 13.6864C93.3654 13.666 93.8012 13.7396 94.208 13.9025C94.6148 14.0654 94.9836 14.3139 95.2903 14.6319C95.8745 15.2539 96.1664 16.1747 96.1664 17.3686C96.1697 17.5018 96.1616 17.6351 96.1421 17.7668C96.1421 17.8911 96.1177 18.0154 96.1177 18.14H91.59C91.6098 18.3395 91.6725 18.5322 91.7735 18.7042C91.8745 18.8762 92.0114 19.0233 92.1744 19.135C92.5797 19.4012 93.0561 19.5317 93.5373 19.5081C93.8968 19.5133 94.2559 19.48 94.6086 19.4088C94.9084 19.3571 95.202 19.2737 95.4848 19.1597L95.7526 20.8268C95.6554 20.8766 95.5092 20.9264 95.3144 21.0009C95.1176 21.0685 94.9131 21.1104 94.7059 21.1254C94.473 21.174 94.2372 21.2071 94.0001 21.2246C93.7564 21.2497 93.489 21.2746 93.2453 21.2746C92.6797 21.2879 92.1171 21.1865 91.59 20.9762C91.155 20.7995 90.7581 20.5375 90.4217 20.2048C90.121 19.8556 89.8896 19.4501 89.7402 19.0107C89.6007 18.5263 89.5349 18.0229 89.5453 17.518ZM94.2192 16.7219C94.2127 16.5518 94.1798 16.3839 94.1217 16.2243C94.0735 16.0636 93.9995 15.9123 93.9026 15.7764C93.7871 15.6278 93.6384 15.5095 93.4691 15.4316C93.2997 15.3537 93.1145 15.3184 92.929 15.3286C92.7279 15.3288 92.529 15.3711 92.3446 15.4529C92.192 15.5169 92.0579 15.6197 91.9551 15.7515C91.8459 15.8829 91.7632 16.0351 91.7119 16.1994C91.6598 16.3621 91.6191 16.5284 91.59 16.697H94.2192" fill="white"/>
<path d="M99.6961 19.583C99.9597 19.6028 100.225 19.569 100.475 19.4836C100.548 19.4426 100.608 19.3806 100.647 19.3054C100.686 19.2302 100.702 19.1451 100.694 19.0604C100.694 18.8863 100.597 18.762 100.402 18.6377C100.118 18.464 99.8156 18.3221 99.5014 18.2145C99.1851 18.0902 98.8929 17.9659 98.6496 17.8414C98.4166 17.7274 98.2029 17.5762 98.0165 17.3936C97.8376 17.2084 97.6969 16.9884 97.6026 16.7467C97.4989 16.4604 97.4494 16.1565 97.4567 15.8513C97.4432 15.5453 97.5026 15.2405 97.6298 14.9632C97.757 14.6858 97.9481 14.4441 98.1868 14.2589C98.6738 13.8609 99.3554 13.6616 100.207 13.6616C100.624 13.6649 101.04 13.7066 101.449 13.7862C101.765 13.8354 102.075 13.9188 102.374 14.0352L102.033 15.6273C101.79 15.5524 101.546 15.4779 101.278 15.4034C100.984 15.3294 100.681 15.2959 100.378 15.3038C99.7449 15.3038 99.4527 15.4779 99.4527 15.8261C99.4572 15.903 99.4736 15.9787 99.5014 16.0503C99.5356 16.1337 99.5954 16.2035 99.6718 16.2493C99.7449 16.2991 99.8665 16.3736 99.9883 16.4483C100.134 16.5228 100.305 16.5726 100.524 16.6722C100.901 16.8099 101.267 16.9762 101.619 17.1696C101.875 17.2894 102.1 17.4682 102.277 17.692C102.445 17.8628 102.563 18.0783 102.617 18.3142C102.69 18.5727 102.723 18.8413 102.715 19.1102C102.73 19.4253 102.667 19.7391 102.53 20.0221C102.394 20.3051 102.189 20.5479 101.936 20.7275C101.425 21.1006 100.694 21.2747 99.7205 21.2747C99.1958 21.2912 98.6715 21.2326 98.1627 21.1006C97.8704 21.0388 97.585 20.9471 97.3107 20.8269L97.6514 19.16C97.9921 19.2939 98.3419 19.4019 98.6981 19.4833C99.0261 19.5546 99.3609 19.588 99.6961 19.583Z" fill="white"/>
<path d="M15.1506 17.6514C15.12 17.6452 15.0888 17.6428 15.0576 17.6442C15.0037 17.6471 14.951 17.6611 14.9026 17.6853C14.8086 17.7316 14.7357 17.8133 14.6992 17.9132C14.6626 18.0131 14.6652 18.1236 14.7065 18.2216L14.7036 18.2257L15.6311 20.5157C16.5185 19.937 17.1917 19.0725 17.5445 18.0589L15.1546 17.6466L15.1506 17.6514ZM11.4318 17.9757C11.4117 17.8854 11.3626 17.8047 11.2922 17.7464C11.2218 17.6881 11.1344 17.6556 11.0438 17.6541C11.0171 17.6538 10.9903 17.6562 10.9641 17.6613L10.9601 17.6563L8.59092 18.0674C8.9467 19.0728 9.61721 19.9302 10.4984 20.5065L11.4165 18.2393L11.4094 18.2303C11.4433 18.1501 11.4511 18.0609 11.4318 17.9757ZM13.416 18.8649C13.3814 18.7989 13.3299 18.7438 13.2671 18.7055C13.2042 18.6671 13.1324 18.6469 13.0592 18.647C12.986 18.6471 12.9142 18.6675 12.8514 18.706C12.7887 18.7446 12.7373 18.7998 12.7029 18.8658H12.701L11.5359 21.0189C12.3701 21.3092 13.2669 21.3563 14.1258 21.1551C14.2851 21.118 14.4408 21.0736 14.5927 21.0219L13.4248 18.8649H13.416ZM17.1042 13.8636L15.3117 15.5031L15.3126 15.5085C15.2576 15.5577 15.2166 15.6212 15.194 15.6923C15.1714 15.7634 15.1681 15.8394 15.1844 15.9123C15.2006 15.9851 15.2359 16.0521 15.2865 16.1062C15.337 16.1602 15.4009 16.1992 15.4714 16.2192L15.4735 16.2288L17.7956 16.9127C17.896 15.8464 17.6532 14.7761 17.1042 13.8636ZM13.774 14.0472C13.7774 14.1219 13.8005 14.1942 13.8408 14.2566C13.8812 14.3189 13.9374 14.3689 14.0033 14.4013C14.0693 14.4336 14.1426 14.4471 14.2154 14.4404C14.2883 14.4336 14.358 14.4068 14.4171 14.3627L14.4242 14.3659L16.3857 12.9445C15.639 12.197 14.6728 11.7209 13.6356 11.5894L13.7719 14.0462L13.774 14.0472ZM11.6968 14.3719C11.756 14.4159 11.8257 14.4426 11.8986 14.4493C11.9715 14.456 12.0448 14.4424 12.1106 14.4099C12.1765 14.3774 12.2326 14.3272 12.2728 14.2648C12.313 14.2023 12.3359 14.1299 12.339 14.0551L12.3489 14.0503L12.4852 11.5896C12.3207 11.6097 12.1573 11.6385 11.9957 11.6757C11.1359 11.8732 10.3473 12.3124 9.71882 12.9438L11.6931 14.3741L11.6968 14.3719ZM10.6444 16.2312C10.7151 16.2115 10.7792 16.1726 10.8299 16.1186C10.8806 16.0645 10.916 15.9974 10.9323 15.9245C10.9487 15.8515 10.9453 15.7753 10.9226 15.7042C10.8999 15.633 10.8587 15.5694 10.8034 15.5203L10.8053 15.5106L9.00285 13.8629C8.45295 14.7776 8.21693 15.8535 8.33207 16.9207L10.6425 16.2392L10.6444 16.2312ZM12.3951 16.955L13.0599 17.2815L13.7229 16.9557L13.8876 16.2242L13.4288 15.6378H12.6903L12.2301 16.223L12.3951 16.955Z" fill="white"/>
<path d="M24.0519 18.3959L22.1572 9.98487C22.1062 9.76729 22.0086 9.56398 21.8715 9.3896C21.7343 9.21523 21.561 9.07413 21.3641 8.9765L13.6947 5.23417C13.496 5.13722 13.2785 5.08691 13.0583 5.08691C12.838 5.08691 12.6206 5.13722 12.4218 5.23417L4.75411 8.97844C4.55708 9.07601 4.38371 9.21708 4.24651 9.39146C4.10931 9.56585 4.01172 9.76919 3.96077 9.98681L2.0691 18.3976C2.02245 18.6102 2.02229 18.8307 2.06863 19.0433C2.08231 19.1081 2.10017 19.1719 2.1221 19.2343C2.1591 19.3408 2.20809 19.4424 2.26809 19.5373C2.29412 19.5779 2.32156 19.6171 2.35138 19.6556L7.65891 26.3998C7.6821 26.4288 7.70765 26.4559 7.73297 26.4832C7.81625 26.5738 7.91028 26.6534 8.01287 26.7202C8.14268 26.8036 8.28412 26.8664 8.43238 26.9064C8.55389 26.9405 8.67925 26.9582 8.80527 26.9591H8.88784L17.3167 26.9572C17.3679 26.957 17.4191 26.9539 17.47 26.948C17.543 26.9395 17.6153 26.9255 17.6863 26.9059C17.7371 26.8922 17.7873 26.8759 17.8365 26.8568C17.875 26.8424 17.9129 26.8263 17.9501 26.8085C18.0055 26.7814 18.0592 26.751 18.111 26.7173C18.2445 26.6315 18.3634 26.5239 18.463 26.3988L18.6249 26.1933L23.7687 19.6534C23.8673 19.527 23.9448 19.3848 23.9979 19.2326C24.0202 19.1701 24.0383 19.1061 24.0524 19.0411C24.0988 18.8285 24.0987 18.608 24.0519 18.3955V18.3959ZM16.097 21.6672C16.1185 21.7319 16.144 21.7952 16.1734 21.8566C16.1265 21.9404 16.1138 22.0398 16.1379 22.1332C16.2495 22.3944 16.3858 22.6439 16.5449 22.878C16.6339 22.9977 16.716 23.1225 16.7909 23.2518C16.8094 23.2869 16.8335 23.3411 16.851 23.3781C16.8841 23.4345 16.9053 23.4974 16.9132 23.5627C16.9211 23.628 16.9155 23.6942 16.8968 23.7572C16.8781 23.8202 16.8467 23.8784 16.8046 23.9282C16.7626 23.9781 16.7108 24.0183 16.6526 24.0464C16.5944 24.0746 16.5311 24.0899 16.4667 24.0915C16.4024 24.0931 16.3384 24.0809 16.2789 24.0557C16.2195 24.0305 16.1658 23.9929 16.1214 23.9452C16.0771 23.8976 16.0429 23.8409 16.0213 23.779C16.0038 23.7422 15.9794 23.6934 15.9645 23.6588C15.912 23.5182 15.8676 23.3747 15.8313 23.2289C15.7517 22.9561 15.6462 22.6919 15.5163 22.4401C15.4599 22.3622 15.3758 22.31 15.2821 22.2947C15.2674 22.2689 15.213 22.1671 15.1839 22.1143C13.8187 22.6427 12.3108 22.6388 10.9482 22.1032L10.8443 22.2957C10.7702 22.3074 10.7013 22.3417 10.6465 22.3941C10.49 22.6566 10.3704 22.9403 10.2911 23.2368C10.2552 23.3827 10.2109 23.5262 10.1586 23.6668C10.144 23.7011 10.1194 23.7495 10.1019 23.786V23.787L10.1012 23.7879C10.0795 23.85 10.0454 23.9066 10.001 23.9543C9.95657 24.0021 9.90287 24.0397 9.84334 24.0649C9.78382 24.0901 9.71979 24.1022 9.65538 24.1006C9.59098 24.0989 9.52763 24.0835 9.46943 24.0552C9.41123 24.027 9.35946 23.9866 9.31748 23.9367C9.27549 23.8867 9.24421 23.8283 9.22566 23.7653C9.20711 23.7022 9.2017 23.6359 9.20978 23.5706C9.21786 23.5053 9.23924 23.4424 9.27256 23.386C9.28983 23.3488 9.31302 23.2949 9.33124 23.2598C9.40613 23.1301 9.48829 23.005 9.57731 22.885C9.73926 22.6447 9.87839 22.3892 9.99279 22.1218C10.0049 22.0312 9.9907 21.939 9.95186 21.8566L10.0354 21.652C8.77914 20.8943 7.83764 19.6929 7.38847 18.2745L7.18854 18.3094C7.11095 18.2531 7.01947 18.2202 6.92449 18.2143C6.65083 18.2679 6.38292 18.3484 6.12452 18.4549C5.99033 18.5167 5.85279 18.5705 5.71259 18.6162C5.67947 18.6254 5.63168 18.6349 5.59382 18.6433C5.59074 18.6443 5.58814 18.6457 5.58506 18.6465L5.57797 18.6472C5.51704 18.6677 5.4526 18.6749 5.38877 18.6685C5.32493 18.6621 5.26312 18.6421 5.20728 18.6098C5.15144 18.5776 5.10281 18.5338 5.0645 18.4812C5.02619 18.4286 4.99904 18.3684 4.98479 18.3045C4.97055 18.2406 4.96952 18.1744 4.98177 18.11C4.99403 18.0457 5.0193 17.9846 5.05596 17.9309C5.09262 17.8771 5.13987 17.8317 5.19468 17.7976C5.24949 17.7636 5.31065 17.7416 5.37425 17.7331L5.38087 17.7314L5.3849 17.7302C5.42323 17.721 5.47244 17.708 5.50746 17.7012C5.65343 17.6805 5.80045 17.6684 5.94778 17.6649C6.22575 17.6464 6.50128 17.6001 6.77046 17.5269C6.85024 17.4749 6.91766 17.4055 6.96779 17.3235L7.15991 17.2662C6.95138 15.7858 7.28495 14.2789 8.09663 13.0344L7.94946 12.9004C7.9441 12.8031 7.91213 12.7093 7.85719 12.6296C7.64581 12.4439 7.41719 12.2797 7.17458 12.1394C7.0436 12.0712 6.91657 11.9953 6.79412 11.9121C6.7662 11.8909 6.72929 11.8589 6.699 11.8338L6.69214 11.829C6.58774 11.7523 6.51726 11.6365 6.49612 11.507C6.47497 11.3774 6.50487 11.2445 6.57928 11.1374C6.62325 11.0824 6.67928 11.0387 6.74283 11.01C6.80639 10.9812 6.87567 10.9682 6.94507 10.972C7.06186 10.9771 7.17396 11.0203 7.26496 11.0953C7.2962 11.1204 7.33902 11.1538 7.3667 11.1782C7.47357 11.2815 7.57453 11.391 7.66909 11.5061C7.85665 11.7167 8.06387 11.9081 8.28781 12.0775C8.37171 12.1227 8.46955 12.1324 8.56038 12.1046C8.58664 12.1245 8.67537 12.1893 8.726 12.2248C9.53254 11.3487 10.5769 10.7389 11.725 10.4738C11.9982 10.4105 12.2755 10.3669 12.5548 10.3432L12.5656 10.145C12.6369 10.0803 12.6886 9.99612 12.7147 9.90241C12.7247 9.61782 12.7076 9.33291 12.6636 9.05171C12.6344 8.90433 12.6135 8.75537 12.6009 8.60556C12.5997 8.57146 12.6016 8.52431 12.6021 8.48537C12.6021 8.48102 12.6009 8.47667 12.6009 8.47232C12.5943 8.40671 12.6013 8.34043 12.6214 8.27776C12.6414 8.21508 12.6741 8.1574 12.7174 8.10844C12.7606 8.05949 12.8134 8.02035 12.8724 7.99354C12.9313 7.96674 12.9951 7.95288 13.0596 7.95284C13.1242 7.95281 13.188 7.96661 13.247 7.99335C13.306 8.02009 13.3588 8.05917 13.4021 8.10808C13.4454 8.15699 13.4781 8.21464 13.4982 8.27729C13.5184 8.33995 13.5254 8.40622 13.5189 8.47183C13.5189 8.51294 13.5213 8.56759 13.5199 8.60532C13.5073 8.75507 13.4863 8.90395 13.4569 9.05122C13.4126 9.33248 13.3952 9.61747 13.4049 9.90217C13.423 9.99737 13.4769 10.0815 13.5549 10.1367C13.5565 10.1706 13.562 10.2838 13.566 10.3461C15.017 10.481 16.3707 11.1495 17.3758 12.2275L17.5504 12.1C17.6443 12.1165 17.7407 12.1058 17.8289 12.0691C18.0528 11.8993 18.2601 11.7077 18.4477 11.4969C18.5424 11.3817 18.6436 11.2723 18.7507 11.169C18.7789 11.1444 18.8215 11.111 18.8525 11.0861C18.8985 11.0397 18.9536 11.0037 19.0142 10.9804C19.0748 10.9572 19.1394 10.9472 19.204 10.9511C19.2686 10.9551 19.3316 10.9729 19.389 11.0033C19.4465 11.0338 19.497 11.0763 19.5373 11.128C19.5776 11.1797 19.6068 11.2395 19.6231 11.3035C19.6393 11.3675 19.6422 11.4342 19.6315 11.4995C19.6209 11.5647 19.597 11.6269 19.5613 11.682C19.5256 11.7371 19.4789 11.784 19.4244 11.8195C19.3936 11.8449 19.3529 11.8805 19.3233 11.903C19.2006 11.9862 19.0732 12.0621 18.9419 12.1303C18.6994 12.2706 18.4708 12.4348 18.2593 12.6204C18.1977 12.6941 18.1668 12.7895 18.1732 12.8862C18.1476 12.9101 18.058 12.9914 18.0104 13.0354C18.8243 14.2754 19.1646 15.7776 18.9665 17.257L19.1518 17.3121C19.1981 17.3974 19.2667 17.4679 19.3498 17.5157C19.6191 17.589 19.8947 17.6354 20.1727 17.654C20.32 17.6575 20.4669 17.6695 20.6128 17.6901C20.6514 17.6973 20.7072 17.7131 20.7465 17.7222C20.8101 17.7308 20.8711 17.7529 20.9259 17.787C20.9806 17.8211 21.0277 17.8665 21.0643 17.9203C21.1009 17.9741 21.1261 18.0351 21.1383 18.0994C21.1505 18.1637 21.1494 18.2299 21.1351 18.2938C21.1209 18.3576 21.0937 18.4178 21.0554 18.4703C21.0171 18.5228 20.9685 18.5666 20.9127 18.5988C20.8569 18.6311 20.7952 18.651 20.7314 18.6575C20.6676 18.664 20.6032 18.6567 20.5423 18.6363L20.5357 18.6353C20.5326 18.6346 20.5298 18.6329 20.5267 18.6322C20.4888 18.6237 20.4413 18.6153 20.4082 18.6063C20.268 18.5603 20.1305 18.506 19.9965 18.4438C19.7379 18.3372 19.4697 18.2567 19.1958 18.2032C19.101 18.2001 19.0087 18.2351 18.9388 18.3007C18.8737 18.2878 18.8083 18.2761 18.7427 18.2656C18.2989 19.6928 17.3573 20.9034 16.097 21.6672Z" fill="white"/>
</g>
<defs>
<clipPath id="clip0_218_5203">
<rect width="104.703" height="26" fill="white"/>
</clipPath>
</defs>
</svg>
