<svg width="64" height="36" viewBox="0 0 23 21" fill="none" xmlns="http://www.w3.org/2000/svg">
<path d="M22.0519 13.3959L20.1572 4.98487C20.1062 4.76729 20.0086 4.56398 19.8715 4.3896C19.7343 4.21523 19.561 4.07413 19.3641 3.9765L11.6947 0.234166C11.496 0.137224 11.2785 0.0869141 11.0583 0.0869141C10.838 0.0869141 10.6206 0.137224 10.4218 0.234166L2.75411 3.97844C2.55708 4.07601 2.38371 4.21708 2.24651 4.39146C2.10931 4.56585 2.01172 4.76919 1.96077 4.98681L0.0691048 13.3976C0.022454 13.6102 0.0222925 13.8307 0.0686316 14.0433C0.0823071 14.1081 0.10017 14.1719 0.122104 14.2343C0.159103 14.3408 0.208094 14.4424 0.26809 14.5373C0.294117 14.5779 0.321563 14.6171 0.351375 14.6556L5.65891 21.3998C5.6821 21.4288 5.70765 21.4559 5.73297 21.4832C5.81625 21.5738 5.91028 21.6534 6.01287 21.7202C6.14268 21.8036 6.28412 21.8664 6.43238 21.9064C6.55389 21.9405 6.67925 21.9582 6.80527 21.9591H6.88784L15.3167 21.9572C15.3679 21.957 15.4191 21.9539 15.47 21.948C15.543 21.9395 15.6153 21.9255 15.6863 21.9059C15.7371 21.8922 15.7873 21.8759 15.8365 21.8568C15.875 21.8424 15.9129 21.8263 15.9501 21.8085C16.0055 21.7814 16.0592 21.751 16.111 21.7173C16.2445 21.6315 16.3634 21.5239 16.463 21.3988L16.6249 21.1933L21.7687 14.6534C21.8673 14.527 21.9448 14.3848 21.9979 14.2326C22.0202 14.1701 22.0383 14.1061 22.0524 14.0411C22.0988 13.8285 22.0987 13.608 22.0519 13.3955V13.3959ZM14.097 16.6672C14.1185 16.7319 14.144 16.7952 14.1734 16.8566C14.1265 16.9404 14.1138 17.0398 14.1379 17.1332C14.2495 17.3944 14.3858 17.6439 14.5449 17.878C14.6339 17.9977 14.716 18.1225 14.7909 18.2518C14.8094 18.2869 14.8335 18.3411 14.851 18.3781C14.8841 18.4345 14.9053 18.4974 14.9132 18.5627C14.9211 18.628 14.9155 18.6942 14.8968 18.7572C14.8781 18.8202 14.8467 18.8784 14.8046 18.9282C14.7626 18.9781 14.7108 19.0183 14.6526 19.0464C14.5944 19.0746 14.5311 19.0899 14.4667 19.0915C14.4024 19.0931 14.3384 19.0809 14.2789 19.0557C14.2195 19.0305 14.1658 18.9929 14.1214 18.9452C14.0771 18.8976 14.0429 18.8409 14.0213 18.779C14.0038 18.7422 13.9794 18.6934 13.9645 18.6588C13.912 18.5182 13.8676 18.3747 13.8313 18.2289C13.7517 17.9561 13.6462 17.6919 13.5163 17.4401C13.4599 17.3622 13.3758 17.31 13.2821 17.2947C13.2674 17.2689 13.213 17.1671 13.1839 17.1143C11.8187 17.6427 10.3108 17.6388 8.9482 17.1032L8.84433 17.2957C8.77022 17.3074 8.70128 17.3417 8.64653 17.3941C8.49002 17.6566 8.37039 17.9403 8.29115 18.2368C8.25518 18.3827 8.21093 18.5262 8.15865 18.6668C8.14398 18.7011 8.11937 18.7495 8.10186 18.786V18.787L8.10115 18.7879C8.07951 18.85 8.04538 18.9066 8.00097 18.9543C7.95657 19.0021 7.90287 19.0397 7.84334 19.0649C7.78382 19.0901 7.71979 19.1022 7.65538 19.1006C7.59098 19.0989 7.52763 19.0835 7.46943 19.0552C7.41123 19.027 7.35946 18.9866 7.31748 18.9367C7.27549 18.8867 7.24421 18.8283 7.22566 18.7653C7.20711 18.7022 7.2017 18.6359 7.20978 18.5706C7.21786 18.5053 7.23924 18.4424 7.27256 18.386C7.28983 18.3488 7.31302 18.2949 7.33124 18.2598C7.40613 18.1301 7.48829 18.005 7.57731 17.885C7.73926 17.6447 7.87839 17.3892 7.99279 17.1218C8.00494 17.0312 7.9907 16.939 7.95186 16.8566L8.03538 16.652C6.77914 15.8943 5.83764 14.6929 5.38847 13.2745L5.18854 13.3094C5.11095 13.2531 5.01947 13.2202 4.92449 13.2143C4.65083 13.2679 4.38292 13.3484 4.12452 13.4549C3.99033 13.5167 3.85279 13.5705 3.71259 13.6162C3.67947 13.6254 3.63168 13.6349 3.59382 13.6433C3.59074 13.6443 3.58814 13.6457 3.58506 13.6465L3.57797 13.6472C3.51704 13.6677 3.4526 13.6749 3.38877 13.6685C3.32493 13.6621 3.26312 13.6421 3.20728 13.6098C3.15144 13.5776 3.10281 13.5338 3.0645 13.4812C3.02619 13.4286 2.99904 13.3684 2.98479 13.3045C2.97055 13.2406 2.96952 13.1744 2.98177 13.11C2.99403 13.0457 3.0193 12.9846 3.05596 12.9309C3.09262 12.8771 3.13987 12.8317 3.19468 12.7976C3.24949 12.7636 3.31065 12.7416 3.37425 12.7331L3.38087 12.7314L3.3849 12.7302C3.42323 12.721 3.47244 12.708 3.50746 12.7012C3.65343 12.6805 3.80045 12.6684 3.94778 12.6649C4.22575 12.6464 4.50128 12.6001 4.77046 12.5269C4.85024 12.4749 4.91766 12.4055 4.96779 12.3235L5.15991 12.2662C4.95138 10.7858 5.28495 9.27888 6.09663 8.03441L5.94946 7.90044C5.9441 7.80312 5.91213 7.70929 5.85719 7.62961C5.64581 7.4439 5.41719 7.27973 5.17458 7.13945C5.0436 7.0712 4.91657 6.99531 4.79412 6.91214C4.7662 6.89086 4.72929 6.85894 4.699 6.83379L4.69214 6.82896C4.58774 6.75231 4.51726 6.63654 4.49612 6.50696C4.47497 6.37737 4.50487 6.24449 4.57928 6.13736C4.62325 6.08236 4.67928 6.03872 4.74283 6.00998C4.80639 5.98124 4.87567 5.96822 4.94507 5.97196C5.06186 5.97709 5.17396 6.02031 5.26496 6.09529C5.2962 6.12044 5.33902 6.15381 5.3667 6.17823C5.47357 6.28152 5.57453 6.391 5.66909 6.50613C5.85665 6.71672 6.06387 6.9081 6.28781 7.07754C6.37171 7.12265 6.46955 7.13237 6.56038 7.10463C6.58664 7.12446 6.67537 7.18926 6.726 7.22481C7.53254 6.34868 8.57689 5.73892 9.72498 5.47382C9.99824 5.41051 10.2755 5.36687 10.5548 5.34324L10.5656 5.14495C10.6369 5.08027 10.6886 4.99612 10.7147 4.90241C10.7247 4.61782 10.7076 4.33291 10.6636 4.05171C10.6344 3.90433 10.6135 3.75537 10.6009 3.60556C10.5997 3.57146 10.6016 3.52431 10.6021 3.48537C10.6021 3.48102 10.6009 3.47667 10.6009 3.47232C10.5943 3.40671 10.6013 3.34043 10.6214 3.27776C10.6414 3.21508 10.6741 3.1574 10.7174 3.10844C10.7606 3.05949 10.8134 3.02035 10.8724 2.99354C10.9313 2.96674 10.9951 2.95288 11.0596 2.95284C11.1242 2.95281 11.188 2.96661 11.247 2.99335C11.306 3.02009 11.3588 3.05917 11.4021 3.10808C11.4454 3.15699 11.4781 3.21464 11.4982 3.27729C11.5184 3.33995 11.5254 3.40622 11.5189 3.47183C11.5189 3.51294 11.5213 3.56759 11.5199 3.60532C11.5073 3.75507 11.4863 3.90395 11.4569 4.05122C11.4126 4.33248 11.3952 4.61747 11.4049 4.90217C11.423 4.99737 11.4769 5.08154 11.5549 5.13673C11.5565 5.17059 11.562 5.28376 11.566 5.34615C13.017 5.48099 14.3707 6.14949 15.3758 7.22747L15.5504 7.10003C15.6443 7.11648 15.7407 7.10575 15.8289 7.06908C16.0528 6.89932 16.2601 6.70771 16.4477 6.49695C16.5424 6.38175 16.6436 6.27226 16.7507 6.16904C16.7789 6.14438 16.8215 6.11101 16.8525 6.0861C16.8985 6.03967 16.9536 6.00367 17.0142 5.98041C17.0748 5.95716 17.1394 5.94719 17.204 5.95114C17.2686 5.95508 17.3316 5.97287 17.389 6.00333C17.4465 6.03379 17.497 6.07626 17.5373 6.12796C17.5776 6.17967 17.6068 6.23946 17.6231 6.30346C17.6393 6.36746 17.6422 6.43424 17.6315 6.49945C17.6209 6.56467 17.597 6.62686 17.5613 6.68201C17.5256 6.73715 17.4789 6.784 17.4244 6.81953C17.3936 6.84492 17.3529 6.88046 17.3233 6.90295C17.2006 6.98618 17.0732 7.06207 16.9419 7.13026C16.6994 7.27062 16.4708 7.43478 16.2593 7.62042C16.1977 7.69411 16.1668 7.78949 16.1732 7.88618C16.1476 7.91012 16.058 7.99136 16.0104 8.03537C16.8243 9.27538 17.1646 10.7776 16.9665 12.257L17.1518 12.3121C17.1981 12.3974 17.2667 12.4679 17.3498 12.5157C17.6191 12.589 17.8947 12.6354 18.1727 12.654C18.32 12.6575 18.4669 12.6695 18.6128 12.6901C18.6514 12.6973 18.7072 12.7131 18.7465 12.7222C18.8101 12.7308 18.8711 12.7529 18.9259 12.787C18.9806 12.8211 19.0277 12.8665 19.0643 12.9203C19.1009 12.9741 19.1261 13.0351 19.1383 13.0994C19.1505 13.1637 19.1494 13.2299 19.1351 13.2938C19.1209 13.3576 19.0937 13.4178 19.0554 13.4703C19.0171 13.5228 18.9685 13.5666 18.9127 13.5988C18.8569 13.6311 18.7952 13.651 18.7314 13.6575C18.6676 13.664 18.6032 13.6567 18.5423 13.6363L18.5357 13.6353C18.5326 13.6346 18.5298 13.6329 18.5267 13.6322C18.4888 13.6237 18.4413 13.6153 18.4082 13.6063C18.268 13.5603 18.1305 13.506 17.9965 13.4438C17.7379 13.3372 17.4697 13.2567 17.1958 13.2032C17.101 13.2001 17.0087 13.2351 16.9388 13.3007C16.8737 13.2878 16.8083 13.2761 16.7427 13.2656C16.2989 14.6928 15.3573 15.9034 14.097 16.6672Z" fill="white"/>
</svg>
