<svg width="291" height="85" viewBox="0 0 291 85" fill="none" xmlns="http://www.w3.org/2000/svg">
<g clip-path="url(#clip0_106_19)">
<path d="M56.875 8.125H8.125C7.04756 8.125 6.01425 8.55301 5.25238 9.31488C4.49051 10.0767 4.0625 11.1101 4.0625 12.1875V44.6875C4.0625 45.7649 4.49051 46.7983 5.25238 47.5601C6.01425 48.322 7.04756 48.75 8.125 48.75H24.375V56.875H16.25V60.9375H48.75V56.875H40.625V48.75H56.875C57.9524 48.75 58.9858 48.322 59.7476 47.5601C60.5095 46.7983 60.9375 45.7649 60.9375 44.6875V12.1875C60.9375 11.1101 60.5095 10.0767 59.7476 9.31488C58.9858 8.55301 57.9524 8.125 56.875 8.125ZM36.5625 56.875H28.4375V48.75H36.5625V56.875ZM56.875 44.6875H8.125V12.1875H56.875V44.6875Z" fill="#F1F1F6"/>
<path d="M15.3636 36.0452L26.5909 24.227L34.2727 36.0452L48.4546 17.7271" stroke="#F1F1F6" stroke-width="2"/>
<ellipse cx="15.9545" cy="34.8635" rx="1.77273" ry="1.77273" fill="#F1F1F6"/>
<ellipse cx="26.591" cy="24.2273" rx="1.77273" ry="1.77273" fill="#F1F1F6"/>
<ellipse cx="34.8637" cy="36.0457" rx="1.77273" ry="1.77273" fill="#F1F1F6"/>
<ellipse cx="47.8637" cy="18.3181" rx="1.77273" ry="1.77273" fill="#F1F1F6"/>
</g>
<path d="M102.136 23V11.8H104.136L107.928 19.256L111.704 11.8H113.704V23H112.008V14.728L108.584 21.4H107.272L103.832 14.744V23H102.136ZM119.628 23.192C118.87 23.192 118.188 23.0213 117.58 22.68C116.982 22.328 116.508 21.8427 116.156 21.224C115.804 20.5947 115.628 19.864 115.628 19.032C115.628 18.2 115.804 17.4747 116.156 16.856C116.518 16.2267 117.004 15.7413 117.612 15.4C118.22 15.048 118.897 14.872 119.644 14.872C120.401 14.872 121.078 15.048 121.676 15.4C122.284 15.7413 122.764 16.2267 123.116 16.856C123.478 17.4747 123.66 18.2 123.66 19.032C123.66 19.864 123.478 20.5947 123.116 21.224C122.764 21.8427 122.284 22.328 121.676 22.68C121.068 23.0213 120.385 23.192 119.628 23.192ZM119.628 21.736C120.033 21.736 120.406 21.6347 120.748 21.432C121.1 21.2293 121.382 20.9307 121.596 20.536C121.809 20.1307 121.916 19.6293 121.916 19.032C121.916 18.4347 121.809 17.9387 121.596 17.544C121.393 17.1387 121.116 16.8347 120.764 16.632C120.422 16.4293 120.049 16.328 119.644 16.328C119.238 16.328 118.86 16.4293 118.508 16.632C118.166 16.8347 117.889 17.1387 117.676 17.544C117.462 17.9387 117.356 18.4347 117.356 19.032C117.356 19.6293 117.462 20.1307 117.676 20.536C117.889 20.9307 118.166 21.2293 118.508 21.432C118.849 21.6347 119.222 21.736 119.628 21.736ZM125.494 23V15.064H126.998L127.126 16.456C127.371 15.9653 127.729 15.5813 128.198 15.304C128.678 15.016 129.227 14.872 129.846 14.872C130.806 14.872 131.558 15.1707 132.102 15.768C132.657 16.3653 132.934 17.256 132.934 18.44V23H131.254V18.616C131.254 17.08 130.625 16.312 129.366 16.312C128.737 16.312 128.214 16.536 127.798 16.984C127.393 17.432 127.19 18.072 127.19 18.904V23H125.494ZM135.891 13.56C135.571 13.56 135.305 13.464 135.091 13.272C134.889 13.0693 134.787 12.8187 134.787 12.52C134.787 12.2213 134.889 11.976 135.091 11.784C135.305 11.5813 135.571 11.48 135.891 11.48C136.211 11.48 136.473 11.5813 136.675 11.784C136.889 11.976 136.995 12.2213 136.995 12.52C136.995 12.8187 136.889 13.0693 136.675 13.272C136.473 13.464 136.211 13.56 135.891 13.56ZM135.043 23V15.064H136.739V23H135.043ZM142.306 23C141.528 23 140.909 22.8133 140.45 22.44C139.992 22.056 139.762 21.3787 139.762 20.408V16.488H138.402V15.064H139.762L139.97 13.048H141.458V15.064H143.698V16.488H141.458V20.408C141.458 20.8453 141.549 21.1493 141.73 21.32C141.922 21.48 142.248 21.56 142.706 21.56H143.618V23H142.306ZM148.956 23.192C148.199 23.192 147.516 23.0213 146.908 22.68C146.311 22.328 145.836 21.8427 145.484 21.224C145.132 20.5947 144.956 19.864 144.956 19.032C144.956 18.2 145.132 17.4747 145.484 16.856C145.847 16.2267 146.332 15.7413 146.94 15.4C147.548 15.048 148.225 14.872 148.972 14.872C149.729 14.872 150.407 15.048 151.004 15.4C151.612 15.7413 152.092 16.2267 152.444 16.856C152.807 17.4747 152.988 18.2 152.988 19.032C152.988 19.864 152.807 20.5947 152.444 21.224C152.092 21.8427 151.612 22.328 151.004 22.68C150.396 23.0213 149.713 23.192 148.956 23.192ZM148.956 21.736C149.361 21.736 149.735 21.6347 150.076 21.432C150.428 21.2293 150.711 20.9307 150.924 20.536C151.137 20.1307 151.244 19.6293 151.244 19.032C151.244 18.4347 151.137 17.9387 150.924 17.544C150.721 17.1387 150.444 16.8347 150.092 16.632C149.751 16.4293 149.377 16.328 148.972 16.328C148.567 16.328 148.188 16.4293 147.836 16.632C147.495 16.8347 147.217 17.1387 147.004 17.544C146.791 17.9387 146.684 18.4347 146.684 19.032C146.684 19.6293 146.791 20.1307 147.004 20.536C147.217 20.9307 147.495 21.2293 147.836 21.432C148.177 21.6347 148.551 21.736 148.956 21.736ZM154.822 23V15.064H156.342L156.486 16.568C156.763 16.0453 157.147 15.6347 157.638 15.336C158.139 15.0267 158.742 14.872 159.446 14.872V16.648H158.982C158.513 16.648 158.091 16.728 157.718 16.888C157.355 17.0373 157.062 17.2987 156.838 17.672C156.625 18.0347 156.518 18.5413 156.518 19.192V23H154.822Z" fill="#E5E7F3"/>
<path d="M102.036 46V36.2H103.212V45.062H107.776V46H102.036ZM112.143 46.168C111.48 46.168 110.892 46.0187 110.379 45.72C109.865 45.412 109.459 44.9873 109.161 44.446C108.871 43.9047 108.727 43.2653 108.727 42.528C108.727 41.8 108.871 41.1653 109.161 40.624C109.45 40.0733 109.851 39.6487 110.365 39.35C110.887 39.042 111.489 38.888 112.171 38.888C112.843 38.888 113.421 39.042 113.907 39.35C114.401 39.6487 114.779 40.0453 115.041 40.54C115.302 41.0347 115.433 41.5667 115.433 42.136C115.433 42.2387 115.428 42.3413 115.419 42.444C115.419 42.5467 115.419 42.6633 115.419 42.794H109.889C109.917 43.326 110.038 43.7693 110.253 44.124C110.477 44.4693 110.752 44.7307 111.079 44.908C111.415 45.0853 111.769 45.174 112.143 45.174C112.628 45.174 113.034 45.062 113.361 44.838C113.687 44.614 113.925 44.3107 114.075 43.928H115.237C115.05 44.572 114.691 45.1087 114.159 45.538C113.636 45.958 112.964 46.168 112.143 46.168ZM112.143 39.882C111.583 39.882 111.083 40.0547 110.645 40.4C110.215 40.736 109.968 41.2307 109.903 41.884H114.271C114.243 41.2587 114.028 40.7687 113.627 40.414C113.225 40.0593 112.731 39.882 112.143 39.882ZM119.301 46.168C118.723 46.168 118.242 46.07 117.859 45.874C117.477 45.678 117.192 45.4167 117.005 45.09C116.819 44.7633 116.725 44.4087 116.725 44.026C116.725 43.3167 116.996 42.7707 117.537 42.388C118.079 42.0053 118.816 41.814 119.749 41.814H121.625V41.73C121.625 41.1233 121.467 40.666 121.149 40.358C120.832 40.0407 120.407 39.882 119.875 39.882C119.418 39.882 119.021 39.9987 118.685 40.232C118.359 40.456 118.153 40.7873 118.069 41.226H116.865C116.912 40.722 117.08 40.2973 117.369 39.952C117.668 39.6067 118.037 39.3453 118.475 39.168C118.914 38.9813 119.381 38.888 119.875 38.888C120.846 38.888 121.574 39.1493 122.059 39.672C122.554 40.1853 122.801 40.8713 122.801 41.73V46H121.751L121.681 44.754C121.485 45.146 121.196 45.482 120.813 45.762C120.44 46.0327 119.936 46.168 119.301 46.168ZM119.483 45.174C119.931 45.174 120.314 45.0573 120.631 44.824C120.958 44.5907 121.205 44.2873 121.373 43.914C121.541 43.5407 121.625 43.1487 121.625 42.738V42.724H119.847C119.157 42.724 118.667 42.8453 118.377 43.088C118.097 43.3213 117.957 43.6153 117.957 43.97C117.957 44.334 118.088 44.628 118.349 44.852C118.62 45.0667 118.998 45.174 119.483 45.174ZM124.566 46V39.056H125.63L125.728 40.386C125.942 39.9287 126.269 39.5647 126.708 39.294C127.146 39.0233 127.688 38.888 128.332 38.888V40.12H128.01C127.599 40.12 127.221 40.1947 126.876 40.344C126.53 40.484 126.255 40.7267 126.05 41.072C125.844 41.4173 125.742 41.8933 125.742 42.5V46H124.566ZM129.652 46V39.056H130.716L130.786 40.302C131.01 39.8633 131.332 39.518 131.752 39.266C132.172 39.014 132.648 38.888 133.18 38.888C134.001 38.888 134.654 39.14 135.14 39.644C135.634 40.1387 135.882 40.904 135.882 41.94V46H134.706V42.066C134.706 40.6193 134.108 39.896 132.914 39.896C132.316 39.896 131.817 40.1153 131.416 40.554C131.024 40.9833 130.828 41.5993 130.828 42.402V46H129.652ZM141.368 46V35.92H142.544V40.246C142.778 39.8167 143.109 39.4853 143.538 39.252C143.968 39.0093 144.434 38.888 144.938 38.888C145.741 38.888 146.385 39.14 146.87 39.644C147.356 40.1387 147.598 40.904 147.598 41.94V46H146.436V42.066C146.436 40.6193 145.853 39.896 144.686 39.896C144.08 39.896 143.571 40.1153 143.16 40.554C142.75 40.9833 142.544 41.5993 142.544 42.402V46H141.368ZM152.544 46.168C151.891 46.168 151.303 46.0187 150.78 45.72C150.257 45.4213 149.842 45.0013 149.534 44.46C149.235 43.9093 149.086 43.2653 149.086 42.528C149.086 41.7907 149.24 41.1513 149.548 40.61C149.856 40.0593 150.271 39.6347 150.794 39.336C151.326 39.0373 151.919 38.888 152.572 38.888C153.225 38.888 153.813 39.0373 154.336 39.336C154.859 39.6347 155.269 40.0593 155.568 40.61C155.876 41.1513 156.03 41.7907 156.03 42.528C156.03 43.2653 155.876 43.9093 155.568 44.46C155.26 45.0013 154.84 45.4213 154.308 45.72C153.785 46.0187 153.197 46.168 152.544 46.168ZM152.544 45.16C152.945 45.16 153.319 45.062 153.664 44.866C154.009 44.67 154.289 44.376 154.504 43.984C154.719 43.592 154.826 43.1067 154.826 42.528C154.826 41.9493 154.719 41.464 154.504 41.072C154.299 40.68 154.023 40.386 153.678 40.19C153.333 39.994 152.964 39.896 152.572 39.896C152.171 39.896 151.797 39.994 151.452 40.19C151.107 40.386 150.827 40.68 150.612 41.072C150.397 41.464 150.29 41.9493 150.29 42.528C150.29 43.1067 150.397 43.592 150.612 43.984C150.827 44.376 151.102 44.67 151.438 44.866C151.783 45.062 152.152 45.16 152.544 45.16ZM158.805 46L156.775 39.056H157.951L159.421 44.502L161.045 39.056H162.375L164.013 44.502L165.469 39.056H166.659L164.629 46H163.425L161.717 40.274L160.009 46H158.805ZM174.409 46C173.775 46 173.275 45.846 172.911 45.538C172.547 45.23 172.365 44.6747 172.365 43.872V40.05H171.161V39.056H172.365L172.519 37.39H173.541V39.056H175.585V40.05H173.541V43.872C173.541 44.3107 173.63 44.6093 173.807 44.768C173.985 44.9173 174.297 44.992 174.745 44.992H175.473V46H174.409ZM180.052 46.168C179.399 46.168 178.811 46.0187 178.288 45.72C177.765 45.4213 177.35 45.0013 177.042 44.46C176.743 43.9093 176.594 43.2653 176.594 42.528C176.594 41.7907 176.748 41.1513 177.056 40.61C177.364 40.0593 177.779 39.6347 178.302 39.336C178.834 39.0373 179.427 38.888 180.08 38.888C180.733 38.888 181.321 39.0373 181.844 39.336C182.367 39.6347 182.777 40.0593 183.076 40.61C183.384 41.1513 183.538 41.7907 183.538 42.528C183.538 43.2653 183.384 43.9093 183.076 44.46C182.768 45.0013 182.348 45.4213 181.816 45.72C181.293 46.0187 180.705 46.168 180.052 46.168ZM180.052 45.16C180.453 45.16 180.827 45.062 181.172 44.866C181.517 44.67 181.797 44.376 182.012 43.984C182.227 43.592 182.334 43.1067 182.334 42.528C182.334 41.9493 182.227 41.464 182.012 41.072C181.807 40.68 181.531 40.386 181.186 40.19C180.841 39.994 180.472 39.896 180.08 39.896C179.679 39.896 179.305 39.994 178.96 40.19C178.615 40.386 178.335 40.68 178.12 41.072C177.905 41.464 177.798 41.9493 177.798 42.528C177.798 43.1067 177.905 43.592 178.12 43.984C178.335 44.376 178.61 44.67 178.946 44.866C179.291 45.062 179.66 45.16 180.052 45.16ZM188.878 46V39.056H189.942L190.026 40.064C190.25 39.6907 190.549 39.4013 190.922 39.196C191.295 38.9907 191.715 38.888 192.182 38.888C192.733 38.888 193.204 39 193.596 39.224C193.997 39.448 194.305 39.7887 194.52 40.246C194.763 39.826 195.094 39.4947 195.514 39.252C195.943 39.0093 196.405 38.888 196.9 38.888C197.731 38.888 198.393 39.14 198.888 39.644C199.383 40.1387 199.63 40.904 199.63 41.94V46H198.468V42.066C198.468 41.3473 198.323 40.806 198.034 40.442C197.745 40.078 197.329 39.896 196.788 39.896C196.228 39.896 195.761 40.1153 195.388 40.554C195.024 40.9833 194.842 41.5993 194.842 42.402V46H193.666V42.066C193.666 41.3473 193.521 40.806 193.232 40.442C192.943 40.078 192.527 39.896 191.986 39.896C191.435 39.896 190.973 40.1153 190.6 40.554C190.236 40.9833 190.054 41.5993 190.054 42.402V46H188.878ZM204.566 46.168C203.912 46.168 203.324 46.0187 202.802 45.72C202.279 45.4213 201.864 45.0013 201.556 44.46C201.257 43.9093 201.108 43.2653 201.108 42.528C201.108 41.7907 201.262 41.1513 201.57 40.61C201.878 40.0593 202.293 39.6347 202.816 39.336C203.348 39.0373 203.94 38.888 204.594 38.888C205.247 38.888 205.835 39.0373 206.358 39.336C206.88 39.6347 207.291 40.0593 207.59 40.61C207.898 41.1513 208.052 41.7907 208.052 42.528C208.052 43.2653 207.898 43.9093 207.59 44.46C207.282 45.0013 206.862 45.4213 206.33 45.72C205.807 46.0187 205.219 46.168 204.566 46.168ZM204.566 45.16C204.967 45.16 205.34 45.062 205.686 44.866C206.031 44.67 206.311 44.376 206.526 43.984C206.74 43.592 206.848 43.1067 206.848 42.528C206.848 41.9493 206.74 41.464 206.526 41.072C206.32 40.68 206.045 40.386 205.7 40.19C205.354 39.994 204.986 39.896 204.594 39.896C204.192 39.896 203.819 39.994 203.474 40.19C203.128 40.386 202.848 40.68 202.634 41.072C202.419 41.464 202.312 41.9493 202.312 42.528C202.312 43.1067 202.419 43.592 202.634 43.984C202.848 44.376 203.124 44.67 203.46 44.866C203.805 45.062 204.174 45.16 204.566 45.16ZM209.687 46V39.056H210.751L210.821 40.302C211.045 39.8633 211.367 39.518 211.787 39.266C212.207 39.014 212.683 38.888 213.215 38.888C214.036 38.888 214.689 39.14 215.175 39.644C215.669 40.1387 215.917 40.904 215.917 41.94V46H214.741V42.066C214.741 40.6193 214.143 39.896 212.949 39.896C212.351 39.896 211.852 40.1153 211.451 40.554C211.059 40.9833 210.863 41.5993 210.863 42.402V46H209.687ZM218.412 37.516C218.179 37.516 217.983 37.4413 217.824 37.292C217.675 37.1333 217.6 36.9373 217.6 36.704C217.6 36.48 217.675 36.2933 217.824 36.144C217.983 35.9947 218.179 35.92 218.412 35.92C218.636 35.92 218.828 35.9947 218.986 36.144C219.145 36.2933 219.224 36.48 219.224 36.704C219.224 36.9373 219.145 37.1333 218.986 37.292C218.828 37.4413 218.636 37.516 218.412 37.516ZM217.824 46V39.056H219V46H217.824ZM223.792 46C223.157 46 222.658 45.846 222.294 45.538C221.93 45.23 221.748 44.6747 221.748 43.872V40.05H220.544V39.056H221.748L221.902 37.39H222.924V39.056H224.968V40.05H222.924V43.872C222.924 44.3107 223.013 44.6093 223.19 44.768C223.367 44.9173 223.68 44.992 224.128 44.992H224.856V46H223.792ZM229.435 46.168C228.781 46.168 228.193 46.0187 227.671 45.72C227.148 45.4213 226.733 45.0013 226.425 44.46C226.126 43.9093 225.977 43.2653 225.977 42.528C225.977 41.7907 226.131 41.1513 226.439 40.61C226.747 40.0593 227.162 39.6347 227.685 39.336C228.217 39.0373 228.809 38.888 229.463 38.888C230.116 38.888 230.704 39.0373 231.227 39.336C231.749 39.6347 232.16 40.0593 232.459 40.61C232.767 41.1513 232.921 41.7907 232.921 42.528C232.921 43.2653 232.767 43.9093 232.459 44.46C232.151 45.0013 231.731 45.4213 231.199 45.72C230.676 46.0187 230.088 46.168 229.435 46.168ZM229.435 45.16C229.836 45.16 230.209 45.062 230.555 44.866C230.9 44.67 231.18 44.376 231.395 43.984C231.609 43.592 231.717 43.1067 231.717 42.528C231.717 41.9493 231.609 41.464 231.395 41.072C231.189 40.68 230.914 40.386 230.569 40.19C230.223 39.994 229.855 39.896 229.463 39.896C229.061 39.896 228.688 39.994 228.343 40.19C227.997 40.386 227.717 40.68 227.503 41.072C227.288 41.464 227.181 41.9493 227.181 42.528C227.181 43.1067 227.288 43.592 227.503 43.984C227.717 44.376 227.993 44.67 228.329 44.866C228.674 45.062 229.043 45.16 229.435 45.16ZM234.556 46V39.056H235.62L235.718 40.386C235.933 39.9287 236.259 39.5647 236.698 39.294C237.137 39.0233 237.678 38.888 238.322 38.888V40.12H238C237.589 40.12 237.211 40.1947 236.866 40.344C236.521 40.484 236.245 40.7267 236.04 41.072C235.835 41.4173 235.732 41.8933 235.732 42.5V46H234.556ZM244.117 37.516C243.893 37.516 243.702 37.4413 243.543 37.292C243.384 37.1333 243.305 36.9373 243.305 36.704C243.305 36.48 243.384 36.2933 243.543 36.144C243.702 35.9947 243.893 35.92 244.117 35.92C244.341 35.92 244.528 35.9947 244.677 36.144C244.836 36.2933 244.915 36.48 244.915 36.704C244.915 36.9373 244.836 37.1333 244.677 37.292C244.528 37.4413 244.341 37.516 244.117 37.516ZM241.989 49.08V48.072H242.535C242.88 48.072 243.128 47.9973 243.277 47.848C243.436 47.708 243.515 47.4653 243.515 47.12V39.056H244.691V47.148C244.691 47.82 244.523 48.31 244.187 48.618C243.851 48.926 243.361 49.08 242.717 49.08H241.989ZM249.901 46.168C249.248 46.168 248.66 46.0187 248.137 45.72C247.615 45.4213 247.199 45.0013 246.891 44.46C246.593 43.9093 246.443 43.2653 246.443 42.528C246.443 41.7907 246.597 41.1513 246.905 40.61C247.213 40.0593 247.629 39.6347 248.151 39.336C248.683 39.0373 249.276 38.888 249.929 38.888C250.583 38.888 251.171 39.0373 251.693 39.336C252.216 39.6347 252.627 40.0593 252.925 40.61C253.233 41.1513 253.387 41.7907 253.387 42.528C253.387 43.2653 253.233 43.9093 252.925 44.46C252.617 45.0013 252.197 45.4213 251.665 45.72C251.143 46.0187 250.555 46.168 249.901 46.168ZM249.901 45.16C250.303 45.16 250.676 45.062 251.021 44.866C251.367 44.67 251.647 44.376 251.861 43.984C252.076 43.592 252.183 43.1067 252.183 42.528C252.183 41.9493 252.076 41.464 251.861 41.072C251.656 40.68 251.381 40.386 251.035 40.19C250.69 39.994 250.321 39.896 249.929 39.896C249.528 39.896 249.155 39.994 248.809 40.19C248.464 40.386 248.184 40.68 247.969 41.072C247.755 41.464 247.647 41.9493 247.647 42.528C247.647 43.1067 247.755 43.592 247.969 43.984C248.184 44.376 248.459 44.67 248.795 44.866C249.141 45.062 249.509 45.16 249.901 45.16ZM258.733 46.168C258.163 46.168 257.655 46.0513 257.207 45.818C256.768 45.5847 256.432 45.258 256.199 44.838L256.087 46H255.023V35.92H256.199V40.204C256.423 39.868 256.74 39.5647 257.151 39.294C257.571 39.0233 258.103 38.888 258.747 38.888C259.437 38.888 260.039 39.0467 260.553 39.364C261.066 39.6813 261.463 40.1153 261.743 40.666C262.032 41.2167 262.177 41.842 262.177 42.542C262.177 43.242 262.032 43.8673 261.743 44.418C261.463 44.9593 261.061 45.3887 260.539 45.706C260.025 46.014 259.423 46.168 258.733 46.168ZM258.607 45.146C259.073 45.146 259.484 45.0387 259.839 44.824C260.193 44.6 260.473 44.292 260.679 43.9C260.884 43.508 260.987 43.0507 260.987 42.528C260.987 42.0053 260.884 41.548 260.679 41.156C260.473 40.764 260.193 40.4607 259.839 40.246C259.484 40.022 259.073 39.91 258.607 39.91C258.14 39.91 257.729 40.022 257.375 40.246C257.02 40.4607 256.74 40.764 256.535 41.156C256.329 41.548 256.227 42.0053 256.227 42.528C256.227 43.0507 256.329 43.508 256.535 43.9C256.74 44.292 257.02 44.6 257.375 44.824C257.729 45.0387 258.14 45.146 258.607 45.146ZM101.966 67.08V57.056H103.03L103.142 58.204C103.366 57.868 103.683 57.5647 104.094 57.294C104.514 57.0233 105.046 56.888 105.69 56.888C106.381 56.888 106.983 57.0467 107.496 57.364C108.009 57.6813 108.406 58.1153 108.686 58.666C108.975 59.2167 109.12 59.842 109.12 60.542C109.12 61.242 108.975 61.8673 108.686 62.418C108.406 62.9593 108.005 63.3887 107.482 63.706C106.969 64.014 106.367 64.168 105.676 64.168C105.107 64.168 104.598 64.0513 104.15 63.818C103.711 63.5847 103.375 63.258 103.142 62.838V67.08H101.966ZM105.55 63.146C106.017 63.146 106.427 63.0387 106.782 62.824C107.137 62.6 107.417 62.292 107.622 61.9C107.827 61.508 107.93 61.0507 107.93 60.528C107.93 60.0053 107.827 59.548 107.622 59.156C107.417 58.764 107.137 58.4607 106.782 58.246C106.427 58.022 106.017 57.91 105.55 57.91C105.083 57.91 104.673 58.022 104.318 58.246C103.963 58.4607 103.683 58.764 103.478 59.156C103.273 59.548 103.17 60.0053 103.17 60.528C103.17 61.0507 103.273 61.508 103.478 61.9C103.683 62.292 103.963 62.6 104.318 62.824C104.673 63.0387 105.083 63.146 105.55 63.146ZM110.757 64V57.056H111.821L111.919 58.386C112.134 57.9287 112.46 57.5647 112.899 57.294C113.338 57.0233 113.879 56.888 114.523 56.888V58.12H114.201C113.79 58.12 113.412 58.1947 113.067 58.344C112.722 58.484 112.446 58.7267 112.241 59.072C112.036 59.4173 111.933 59.8933 111.933 60.5V64H110.757ZM118.747 64.168C118.094 64.168 117.506 64.0187 116.983 63.72C116.461 63.4213 116.045 63.0013 115.737 62.46C115.439 61.9093 115.289 61.2653 115.289 60.528C115.289 59.7907 115.443 59.1513 115.751 58.61C116.059 58.0593 116.475 57.6347 116.997 57.336C117.529 57.0373 118.122 56.888 118.775 56.888C119.429 56.888 120.017 57.0373 120.539 57.336C121.062 57.6347 121.473 58.0593 121.771 58.61C122.079 59.1513 122.233 59.7907 122.233 60.528C122.233 61.2653 122.079 61.9093 121.771 62.46C121.463 63.0013 121.043 63.4213 120.511 63.72C119.989 64.0187 119.401 64.168 118.747 64.168ZM118.747 63.16C119.149 63.16 119.522 63.062 119.867 62.866C120.213 62.67 120.493 62.376 120.707 61.984C120.922 61.592 121.029 61.1067 121.029 60.528C121.029 59.9493 120.922 59.464 120.707 59.072C120.502 58.68 120.227 58.386 119.881 58.19C119.536 57.994 119.167 57.896 118.775 57.896C118.374 57.896 118.001 57.994 117.655 58.19C117.31 58.386 117.03 58.68 116.815 59.072C116.601 59.464 116.493 59.9493 116.493 60.528C116.493 61.1067 116.601 61.592 116.815 61.984C117.03 62.376 117.305 62.67 117.641 62.866C117.987 63.062 118.355 63.16 118.747 63.16ZM126.312 61.816C125.92 61.816 125.56 61.7647 125.234 61.662L124.534 62.32C124.636 62.3947 124.762 62.46 124.912 62.516C125.07 62.5627 125.294 62.6093 125.584 62.656C125.873 62.6933 126.279 62.7353 126.802 62.782C127.735 62.8473 128.402 63.062 128.804 63.426C129.205 63.79 129.406 64.266 129.406 64.854C129.406 65.2553 129.294 65.638 129.07 66.002C128.855 66.366 128.519 66.6647 128.062 66.898C127.614 67.1313 127.035 67.248 126.326 67.248C125.7 67.248 125.145 67.164 124.66 66.996C124.174 66.8373 123.796 66.59 123.526 66.254C123.255 65.9273 123.12 65.512 123.12 65.008C123.12 64.7467 123.19 64.462 123.33 64.154C123.47 63.8553 123.731 63.5707 124.114 63.3C123.908 63.216 123.731 63.1273 123.582 63.034C123.442 62.9313 123.311 62.8193 123.19 62.698V62.376L124.38 61.2C123.829 60.7333 123.554 60.1173 123.554 59.352C123.554 58.8947 123.661 58.4793 123.876 58.106C124.09 57.7327 124.403 57.4387 124.814 57.224C125.224 57 125.724 56.888 126.312 56.888C126.713 56.888 127.077 56.944 127.404 57.056H129.966V57.938L128.664 57.994C128.934 58.386 129.07 58.8387 129.07 59.352C129.07 59.8093 128.958 60.2247 128.734 60.598C128.519 60.9713 128.206 61.27 127.796 61.494C127.394 61.7087 126.9 61.816 126.312 61.816ZM126.312 60.85C126.806 60.85 127.198 60.724 127.488 60.472C127.786 60.2107 127.936 59.8373 127.936 59.352C127.936 58.876 127.786 58.512 127.488 58.26C127.198 57.9987 126.806 57.868 126.312 57.868C125.808 57.868 125.406 57.9987 125.108 58.26C124.818 58.512 124.674 58.876 124.674 59.352C124.674 59.8373 124.818 60.2107 125.108 60.472C125.406 60.724 125.808 60.85 126.312 60.85ZM124.268 64.896C124.268 65.3627 124.464 65.708 124.856 65.932C125.248 66.1653 125.738 66.282 126.326 66.282C126.904 66.282 127.366 66.156 127.712 65.904C128.066 65.652 128.244 65.316 128.244 64.896C128.244 64.5973 128.122 64.336 127.88 64.112C127.637 63.8973 127.189 63.7713 126.536 63.734C126.022 63.6967 125.579 63.65 125.206 63.594C124.823 63.7993 124.571 64.0187 124.45 64.252C124.328 64.4947 124.268 64.7093 124.268 64.896ZM131.292 64V57.056H132.356L132.454 58.386C132.669 57.9287 132.996 57.5647 133.434 57.294C133.873 57.0233 134.414 56.888 135.058 56.888V58.12H134.736C134.326 58.12 133.948 58.1947 133.602 58.344C133.257 58.484 132.982 58.7267 132.776 59.072C132.571 59.4173 132.468 59.8933 132.468 60.5V64H131.292ZM139.24 64.168C138.578 64.168 137.99 64.0187 137.476 63.72C136.963 63.412 136.557 62.9873 136.258 62.446C135.969 61.9047 135.824 61.2653 135.824 60.528C135.824 59.8 135.969 59.1653 136.258 58.624C136.548 58.0733 136.949 57.6487 137.462 57.35C137.985 57.042 138.587 56.888 139.268 56.888C139.94 56.888 140.519 57.042 141.004 57.35C141.499 57.6487 141.877 58.0453 142.138 58.54C142.4 59.0347 142.53 59.5667 142.53 60.136C142.53 60.2387 142.526 60.3413 142.516 60.444C142.516 60.5467 142.516 60.6633 142.516 60.794H136.986C137.014 61.326 137.136 61.7693 137.35 62.124C137.574 62.4693 137.85 62.7307 138.176 62.908C138.512 63.0853 138.867 63.174 139.24 63.174C139.726 63.174 140.132 63.062 140.458 62.838C140.785 62.614 141.023 62.3107 141.172 61.928H142.334C142.148 62.572 141.788 63.1087 141.256 63.538C140.734 63.958 140.062 64.168 139.24 64.168ZM139.24 57.882C138.68 57.882 138.181 58.0547 137.742 58.4C137.313 58.736 137.066 59.2307 137 59.884H141.368C141.34 59.2587 141.126 58.7687 140.724 58.414C140.323 58.0593 139.828 57.882 139.24 57.882ZM146.749 64.168C145.918 64.168 145.228 63.958 144.677 63.538C144.126 63.118 143.804 62.5487 143.711 61.83H144.915C144.99 62.194 145.181 62.5113 145.489 62.782C145.806 63.0433 146.231 63.174 146.763 63.174C147.258 63.174 147.622 63.0713 147.855 62.866C148.088 62.6513 148.205 62.3993 148.205 62.11C148.205 61.69 148.051 61.41 147.743 61.27C147.444 61.13 147.02 61.004 146.469 60.892C146.096 60.8173 145.722 60.71 145.349 60.57C144.976 60.43 144.663 60.234 144.411 59.982C144.159 59.7207 144.033 59.38 144.033 58.96C144.033 58.3533 144.257 57.8587 144.705 57.476C145.162 57.084 145.778 56.888 146.553 56.888C147.29 56.888 147.892 57.0747 148.359 57.448C148.835 57.812 149.11 58.3347 149.185 59.016H148.023C147.976 58.6613 147.822 58.386 147.561 58.19C147.309 57.9847 146.968 57.882 146.539 57.882C146.119 57.882 145.792 57.9707 145.559 58.148C145.335 58.3253 145.223 58.5587 145.223 58.848C145.223 59.128 145.368 59.3473 145.657 59.506C145.956 59.6647 146.357 59.8 146.861 59.912C147.29 60.0053 147.696 60.122 148.079 60.262C148.471 60.3927 148.788 60.5933 149.031 60.864C149.283 61.1253 149.409 61.508 149.409 62.012C149.418 62.6373 149.18 63.1553 148.695 63.566C148.219 63.9673 147.57 64.168 146.749 64.168ZM153.749 64.168C152.918 64.168 152.228 63.958 151.677 63.538C151.126 63.118 150.804 62.5487 150.711 61.83H151.915C151.99 62.194 152.181 62.5113 152.489 62.782C152.806 63.0433 153.231 63.174 153.763 63.174C154.258 63.174 154.622 63.0713 154.855 62.866C155.088 62.6513 155.205 62.3993 155.205 62.11C155.205 61.69 155.051 61.41 154.743 61.27C154.444 61.13 154.02 61.004 153.469 60.892C153.096 60.8173 152.722 60.71 152.349 60.57C151.976 60.43 151.663 60.234 151.411 59.982C151.159 59.7207 151.033 59.38 151.033 58.96C151.033 58.3533 151.257 57.8587 151.705 57.476C152.162 57.084 152.778 56.888 153.553 56.888C154.29 56.888 154.892 57.0747 155.359 57.448C155.835 57.812 156.11 58.3347 156.185 59.016H155.023C154.976 58.6613 154.822 58.386 154.561 58.19C154.309 57.9847 153.968 57.882 153.539 57.882C153.119 57.882 152.792 57.9707 152.559 58.148C152.335 58.3253 152.223 58.5587 152.223 58.848C152.223 59.128 152.368 59.3473 152.657 59.506C152.956 59.6647 153.357 59.8 153.861 59.912C154.29 60.0053 154.696 60.122 155.079 60.262C155.471 60.3927 155.788 60.5933 156.031 60.864C156.283 61.1253 156.409 61.508 156.409 62.012C156.418 62.6373 156.18 63.1553 155.695 63.566C155.219 63.9673 154.57 64.168 153.749 64.168ZM157.151 65.666L157.963 62.572H159.181L157.963 65.666H157.151ZM167.474 64.168C166.812 64.168 166.214 64.0187 165.682 63.72C165.16 63.412 164.744 62.9873 164.436 62.446C164.138 61.8953 163.988 61.256 163.988 60.528C163.988 59.8 164.138 59.1653 164.436 58.624C164.744 58.0733 165.16 57.6487 165.682 57.35C166.214 57.042 166.812 56.888 167.474 56.888C168.296 56.888 168.986 57.1027 169.546 57.532C170.116 57.9613 170.475 58.5353 170.624 59.254H169.42C169.327 58.8247 169.098 58.4933 168.734 58.26C168.37 58.0173 167.946 57.896 167.46 57.896C167.068 57.896 166.7 57.994 166.354 58.19C166.009 58.386 165.729 58.68 165.514 59.072C165.3 59.464 165.192 59.9493 165.192 60.528C165.192 61.1067 165.3 61.592 165.514 61.984C165.729 62.376 166.009 62.6747 166.354 62.88C166.7 63.076 167.068 63.174 167.46 63.174C167.946 63.174 168.37 63.0573 168.734 62.824C169.098 62.5813 169.327 62.2407 169.42 61.802H170.624C170.484 62.502 170.13 63.0713 169.56 63.51C168.991 63.9487 168.296 64.168 167.474 64.168ZM175.431 64.168C174.777 64.168 174.189 64.0187 173.667 63.72C173.144 63.4213 172.729 63.0013 172.421 62.46C172.122 61.9093 171.973 61.2653 171.973 60.528C171.973 59.7907 172.127 59.1513 172.435 58.61C172.743 58.0593 173.158 57.6347 173.681 57.336C174.213 57.0373 174.805 56.888 175.459 56.888C176.112 56.888 176.7 57.0373 177.223 57.336C177.745 57.6347 178.156 58.0593 178.455 58.61C178.763 59.1513 178.917 59.7907 178.917 60.528C178.917 61.2653 178.763 61.9093 178.455 62.46C178.147 63.0013 177.727 63.4213 177.195 63.72C176.672 64.0187 176.084 64.168 175.431 64.168ZM175.431 63.16C175.832 63.16 176.205 63.062 176.551 62.866C176.896 62.67 177.176 62.376 177.391 61.984C177.605 61.592 177.713 61.1067 177.713 60.528C177.713 59.9493 177.605 59.464 177.391 59.072C177.185 58.68 176.91 58.386 176.565 58.19C176.219 57.994 175.851 57.896 175.459 57.896C175.057 57.896 174.684 57.994 174.339 58.19C173.993 58.386 173.713 58.68 173.499 59.072C173.284 59.464 173.177 59.9493 173.177 60.528C173.177 61.1067 173.284 61.592 173.499 61.984C173.713 62.376 173.989 62.67 174.325 62.866C174.67 63.062 175.039 63.16 175.431 63.16ZM183.212 64.168C182.381 64.168 181.691 63.958 181.14 63.538C180.589 63.118 180.267 62.5487 180.174 61.83H181.378C181.453 62.194 181.644 62.5113 181.952 62.782C182.269 63.0433 182.694 63.174 183.226 63.174C183.721 63.174 184.085 63.0713 184.318 62.866C184.551 62.6513 184.668 62.3993 184.668 62.11C184.668 61.69 184.514 61.41 184.206 61.27C183.907 61.13 183.483 61.004 182.932 60.892C182.559 60.8173 182.185 60.71 181.812 60.57C181.439 60.43 181.126 60.234 180.874 59.982C180.622 59.7207 180.496 59.38 180.496 58.96C180.496 58.3533 180.72 57.8587 181.168 57.476C181.625 57.084 182.241 56.888 183.016 56.888C183.753 56.888 184.355 57.0747 184.822 57.448C185.298 57.812 185.573 58.3347 185.648 59.016H184.486C184.439 58.6613 184.285 58.386 184.024 58.19C183.772 57.9847 183.431 57.882 183.002 57.882C182.582 57.882 182.255 57.9707 182.022 58.148C181.798 58.3253 181.686 58.5587 181.686 58.848C181.686 59.128 181.831 59.3473 182.12 59.506C182.419 59.6647 182.82 59.8 183.324 59.912C183.753 60.0053 184.159 60.122 184.542 60.262C184.934 60.3927 185.251 60.5933 185.494 60.864C185.746 61.1253 185.872 61.508 185.872 62.012C185.881 62.6373 185.643 63.1553 185.158 63.566C184.682 63.9673 184.033 64.168 183.212 64.168ZM189.981 64C189.347 64 188.847 63.846 188.483 63.538C188.119 63.23 187.937 62.6747 187.937 61.872V58.05H186.733V57.056H187.937L188.091 55.39H189.113V57.056H191.157V58.05H189.113V61.872C189.113 62.3107 189.202 62.6093 189.379 62.768C189.557 62.9173 189.869 62.992 190.317 62.992H191.045V64H189.981ZM195.312 64.168C194.481 64.168 193.79 63.958 193.24 63.538C192.689 63.118 192.367 62.5487 192.274 61.83H193.478C193.552 62.194 193.744 62.5113 194.052 62.782C194.369 63.0433 194.794 63.174 195.326 63.174C195.82 63.174 196.184 63.0713 196.418 62.866C196.651 62.6513 196.768 62.3993 196.768 62.11C196.768 61.69 196.614 61.41 196.306 61.27C196.007 61.13 195.582 61.004 195.032 60.892C194.658 60.8173 194.285 60.71 193.912 60.57C193.538 60.43 193.226 60.234 192.974 59.982C192.722 59.7207 192.596 59.38 192.596 58.96C192.596 58.3533 192.82 57.8587 193.268 57.476C193.725 57.084 194.341 56.888 195.116 56.888C195.853 56.888 196.455 57.0747 196.922 57.448C197.398 57.812 197.673 58.3347 197.748 59.016H196.586C196.539 58.6613 196.385 58.386 196.124 58.19C195.872 57.9847 195.531 57.882 195.102 57.882C194.682 57.882 194.355 57.9707 194.122 58.148C193.898 58.3253 193.786 58.5587 193.786 58.848C193.786 59.128 193.93 59.3473 194.22 59.506C194.518 59.6647 194.92 59.8 195.424 59.912C195.853 60.0053 196.259 60.122 196.642 60.262C197.034 60.3927 197.351 60.5933 197.594 60.864C197.846 61.1253 197.972 61.508 197.972 62.012C197.981 62.6373 197.743 63.1553 197.258 63.566C196.782 63.9673 196.133 64.168 195.312 64.168ZM198.714 65.666L199.526 62.572H200.744L199.526 65.666H198.714ZM208.155 64.168C207.576 64.168 207.096 64.07 206.713 63.874C206.33 63.678 206.046 63.4167 205.859 63.09C205.672 62.7633 205.579 62.4087 205.579 62.026C205.579 61.3167 205.85 60.7707 206.391 60.388C206.932 60.0053 207.67 59.814 208.603 59.814H210.479V59.73C210.479 59.1233 210.32 58.666 210.003 58.358C209.686 58.0407 209.261 57.882 208.729 57.882C208.272 57.882 207.875 57.9987 207.539 58.232C207.212 58.456 207.007 58.7873 206.923 59.226H205.719C205.766 58.722 205.934 58.2973 206.223 57.952C206.522 57.6067 206.89 57.3453 207.329 57.168C207.768 56.9813 208.234 56.888 208.729 56.888C209.7 56.888 210.428 57.1493 210.913 57.672C211.408 58.1853 211.655 58.8713 211.655 59.73V64H210.605L210.535 62.754C210.339 63.146 210.05 63.482 209.667 63.762C209.294 64.0327 208.79 64.168 208.155 64.168ZM208.337 63.174C208.785 63.174 209.168 63.0573 209.485 62.824C209.812 62.5907 210.059 62.2873 210.227 61.914C210.395 61.5407 210.479 61.1487 210.479 60.738V60.724H208.701C208.01 60.724 207.52 60.8453 207.231 61.088C206.951 61.3213 206.811 61.6153 206.811 61.97C206.811 62.334 206.942 62.628 207.203 62.852C207.474 63.0667 207.852 63.174 208.337 63.174ZM213.419 64V57.056H214.483L214.553 58.302C214.777 57.8633 215.099 57.518 215.519 57.266C215.939 57.014 216.415 56.888 216.947 56.888C217.768 56.888 218.422 57.14 218.907 57.644C219.402 58.1387 219.649 58.904 219.649 59.94V64H218.473V60.066C218.473 58.6193 217.876 57.896 216.681 57.896C216.084 57.896 215.584 58.1153 215.183 58.554C214.791 58.9833 214.595 59.5993 214.595 60.402V64H213.419ZM224.581 64.168C223.89 64.168 223.284 64.0093 222.761 63.692C222.248 63.3747 221.846 62.9407 221.557 62.39C221.277 61.8393 221.137 61.214 221.137 60.514C221.137 59.814 221.282 59.1933 221.571 58.652C221.86 58.1013 222.262 57.672 222.775 57.364C223.288 57.0467 223.895 56.888 224.595 56.888C225.164 56.888 225.668 57.0047 226.107 57.238C226.546 57.4713 226.886 57.798 227.129 58.218V53.92H228.305V64H227.241L227.129 62.852C226.905 63.188 226.583 63.4913 226.163 63.762C225.743 64.0327 225.216 64.168 224.581 64.168ZM224.707 63.146C225.174 63.146 225.584 63.0387 225.939 62.824C226.303 62.6 226.583 62.292 226.779 61.9C226.984 61.508 227.087 61.0507 227.087 60.528C227.087 60.0053 226.984 59.548 226.779 59.156C226.583 58.764 226.303 58.4607 225.939 58.246C225.584 58.022 225.174 57.91 224.707 57.91C224.25 57.91 223.839 58.022 223.475 58.246C223.12 58.4607 222.84 58.764 222.635 59.156C222.439 59.548 222.341 60.0053 222.341 60.528C222.341 61.0507 222.439 61.508 222.635 61.9C222.84 62.292 223.12 62.6 223.475 62.824C223.839 63.0387 224.25 63.146 224.707 63.146ZM233.927 64V57.056H234.991L235.075 58.064C235.299 57.6907 235.598 57.4013 235.971 57.196C236.344 56.9907 236.764 56.888 237.231 56.888C237.782 56.888 238.253 57 238.645 57.224C239.046 57.448 239.354 57.7887 239.569 58.246C239.812 57.826 240.143 57.4947 240.563 57.252C240.992 57.0093 241.454 56.888 241.949 56.888C242.78 56.888 243.442 57.14 243.937 57.644C244.432 58.1387 244.679 58.904 244.679 59.94V64H243.517V60.066C243.517 59.3473 243.372 58.806 243.083 58.442C242.794 58.078 242.378 57.896 241.837 57.896C241.277 57.896 240.81 58.1153 240.437 58.554C240.073 58.9833 239.891 59.5993 239.891 60.402V64H238.715V60.066C238.715 59.3473 238.57 58.806 238.281 58.442C237.992 58.078 237.576 57.896 237.035 57.896C236.484 57.896 236.022 58.1153 235.649 58.554C235.285 58.9833 235.103 59.5993 235.103 60.402V64H233.927ZM249.614 64.168C248.961 64.168 248.373 64.0187 247.85 63.72C247.328 63.4213 246.912 63.0013 246.604 62.46C246.306 61.9093 246.156 61.2653 246.156 60.528C246.156 59.7907 246.31 59.1513 246.618 58.61C246.926 58.0593 247.342 57.6347 247.864 57.336C248.396 57.0373 248.989 56.888 249.642 56.888C250.296 56.888 250.884 57.0373 251.406 57.336C251.929 57.6347 252.34 58.0593 252.638 58.61C252.946 59.1513 253.1 59.7907 253.1 60.528C253.1 61.2653 252.946 61.9093 252.638 62.46C252.33 63.0013 251.91 63.4213 251.378 63.72C250.856 64.0187 250.268 64.168 249.614 64.168ZM249.614 63.16C250.016 63.16 250.389 63.062 250.734 62.866C251.08 62.67 251.36 62.376 251.574 61.984C251.789 61.592 251.896 61.1067 251.896 60.528C251.896 59.9493 251.789 59.464 251.574 59.072C251.369 58.68 251.094 58.386 250.748 58.19C250.403 57.994 250.034 57.896 249.642 57.896C249.241 57.896 248.868 57.994 248.522 58.19C248.177 58.386 247.897 58.68 247.682 59.072C247.468 59.464 247.36 59.9493 247.36 60.528C247.36 61.1067 247.468 61.592 247.682 61.984C247.897 62.376 248.172 62.67 248.508 62.866C248.854 63.062 249.222 63.16 249.614 63.16ZM254.736 64V57.056H255.8L255.898 58.386C256.112 57.9287 256.439 57.5647 256.878 57.294C257.316 57.0233 257.858 56.888 258.502 56.888V58.12H258.18C257.769 58.12 257.391 58.1947 257.046 58.344C256.7 58.484 256.425 58.7267 256.22 59.072C256.014 59.4173 255.912 59.8933 255.912 60.5V64H254.736ZM262.684 64.168C262.021 64.168 261.433 64.0187 260.92 63.72C260.406 63.412 260 62.9873 259.702 62.446C259.412 61.9047 259.268 61.2653 259.268 60.528C259.268 59.8 259.412 59.1653 259.702 58.624C259.991 58.0733 260.392 57.6487 260.906 57.35C261.428 57.042 262.03 56.888 262.712 56.888C263.384 56.888 263.962 57.042 264.448 57.35C264.942 57.6487 265.32 58.0453 265.582 58.54C265.843 59.0347 265.974 59.5667 265.974 60.136C265.974 60.2387 265.969 60.3413 265.96 60.444C265.96 60.5467 265.96 60.6633 265.96 60.794H260.43C260.458 61.326 260.579 61.7693 260.794 62.124C261.018 62.4693 261.293 62.7307 261.62 62.908C261.956 63.0853 262.31 63.174 262.684 63.174C263.169 63.174 263.575 63.062 263.902 62.838C264.228 62.614 264.466 62.3107 264.616 61.928H265.778C265.591 62.572 265.232 63.1087 264.7 63.538C264.177 63.958 263.505 64.168 262.684 64.168ZM262.684 57.882C262.124 57.882 261.624 58.0547 261.186 58.4C260.756 58.736 260.509 59.2307 260.444 59.884H264.812C264.784 59.2587 264.569 58.7687 264.168 58.414C263.766 58.0593 263.272 57.882 262.684 57.882Z" fill="#AEB6FF"/>
<defs>
<clipPath id="clip0_106_19">
<rect width="65" height="65" fill="white"/>
</clipPath>
</defs>
</svg>
