<svg width="25" height="26" viewBox="0 0 25 26" fill="none" xmlns="http://www.w3.org/2000/svg">
<ellipse cx="12.5" cy="13" rx="12.5" ry="13" fill="#5552FF"/>
<path d="M16.1458 19.067L14.7917 17.6587L14.0625 18.417L16.1458 20.5837L19.7917 16.792L19.0625 16.0337L16.1458 19.067Z" fill="white"/>
<path d="M14.5834 14.0835H10.4167V15.1668H14.5834V14.0835Z" fill="white"/>
<path d="M14.5834 11.375H10.4167V12.4583H14.5834V11.375Z" fill="white"/>
<path d="M14.5834 8.66699H10.4167V9.75033H14.5834V8.66699Z" fill="white"/>
<path d="M12.5 19.5003H7.29171V17.3337H8.33337V16.2503H7.29171V13.542H8.33337V12.4587H7.29171V9.75033H8.33337V8.66699H7.29171V6.50033H16.6667V15.167H17.7084V6.50033C17.7084 5.90449 17.2396 5.41699 16.6667 5.41699H7.29171C6.71879 5.41699 6.25004 5.90449 6.25004 6.50033V8.66699H5.20837V9.75033H6.25004V12.4587H5.20837V13.542H6.25004V16.2503H5.20837V17.3337H6.25004V19.5003C6.25004 20.0962 6.71879 20.5837 7.29171 20.5837H12.5V19.5003Z" fill="white"/>
</svg>
