<svg width="180" height="200" viewBox="0 0 180 200" preserveAspectRatio="none" fill="none" xmlns="http://www.w3.org/2000/svg">
<path d="M0 10C0 4.47716 4.47715 0 10 0H180V200H10C4.47716 200 0 195.523 0 190V10Z" fill="#2F0E89"/>
<path d="M30 25C30 22.2386 32.2386 20 35 20H180V167H35C32.2386 167 30 164.761 30 162V25Z" fill="#4A1DCA"/>
<path d="M30 176C30 173.791 31.7909 172 34 172H180V180H34C31.7909 180 30 178.209 30 176Z" fill="#4A1DCA"/>
<rect x="54.35" y="32.35" width="48.3" height="17.3" rx="8.65" fill="#AD7BFF" stroke="#AD7BFF" stroke-width="0.7"/>
<rect x="109.35" y="32.35" width="46.3" height="17.3" rx="1.65" fill="#6D7CFF" stroke="#6D7CFF" stroke-width="0.7"/>
<rect x="73.35" y="60.35" width="47.3" height="15.3" rx="7.65" fill="#5552FF" stroke="#5552FF" stroke-width="0.7"/>
<path d="M134.35 68C134.35 63.775 137.775 60.35 142 60.35H179.65V75.65H142C137.775 75.65 134.35 72.225 134.35 68Z" fill="#AD7BFF" stroke="#AD7BFF" stroke-width="0.7"/>
<path d="M160 76V85.1429C160 86.2474 159.105 87.1429 158 87.1429H96.9275V87.1429C96.4153 87.1429 96 87.5581 96 88.0704V89" stroke="#6D7CFF" stroke-linejoin="round"/>
<path d="M77 50V55.6667C77 56.219 77.4477 56.6667 78 56.6667H96.1304M96.1304 56.6667V60M96.1304 56.6667H131C131.552 56.6667 132 56.219 132 55.6667V50" stroke="#6D7CFF" stroke-linejoin="round"/>
<path d="M95.6464 111.354C95.8417 111.549 96.1583 111.549 96.3536 111.354L99.5355 108.172C99.7308 107.976 99.7308 107.66 99.5355 107.464C99.3403 107.269 99.0237 107.269 98.8284 107.464L96 110.293L93.1716 107.464C92.9763 107.269 92.6597 107.269 92.4645 107.464C92.2692 107.66 92.2692 107.976 92.4645 108.172L95.6464 111.354ZM95.5 76L95.5 111L96.5 111L96.5 76L95.5 76Z" fill="#6D7CFF"/>
<rect x="9" y="94" width="122.128" height="82" rx="2" fill="#5552FF"/>
<path d="M9 104.468H131.128V174C131.128 175.105 130.232 176 129.128 176H11C9.89543 176 9 175.105 9 174V104.468Z" fill="#0F0F32"/>
<circle cx="15.979" cy="99.2339" r="1.74468" fill="#D9D9D9"/>
<circle cx="22.9574" cy="99.2339" r="1.74468" fill="#AEB6FF"/>
<circle cx="29.9365" cy="99.2339" r="1.74468" fill="#DAC3FF"/>
<path d="M40 118.827L45.4903 124.5L40 130.173L42.7451 133L51 124.5L42.7451 116L40 118.827Z" fill="#6D7CFF"/>
<path d="M29 134L38 115" stroke="#6D7CFF" stroke-linejoin="round"/>
<path d="M27 118.827L21.5097 124.5L27 130.173L24.2549 133L16 124.5L24.2549 116L27 118.827Z" fill="#6D7CFF"/>
</svg>
