<svg width="180" height="200" viewBox="0 0 180 200" preserveAspectRatio="none" fill="none" xmlns="http://www.w3.org/2000/svg">
<path d="M0 10C0 4.47716 4.47715 0 10 0H180V200H10C4.47716 200 0 195.523 0 190V10Z" fill="#2F0E89"/>
<rect x="11" y="48" width="122.128" height="82" rx="2" fill="#0F0F32"/>
<path d="M11 58.4683H133.128V128C133.128 129.105 132.232 130 131.128 130H13C11.8954 130 11 129.105 11 128V58.4683Z" fill="#0F0F32"/>
<path d="M49 53.9956C49 52.891 49.8954 51.9956 51 51.9956H127.097C128.202 51.9956 129.097 52.891 129.097 53.9956V122.996C129.097 124.1 128.202 124.996 127.097 124.996H51C49.8954 124.996 49 124.1 49 122.996V53.9956Z" fill="#4A1DCA"/>
<circle cx="17.7446" cy="56.7403" r="1.74468" transform="rotate(90 17.7446 56.7403)" fill="#5552FF"/>
<circle cx="17.7446" cy="77.7403" r="1.74468" transform="rotate(90 17.7446 77.7403)" fill="#5552FF"/>
<circle cx="17.7446" cy="98.7403" r="1.74468" transform="rotate(90 17.7446 98.7403)" fill="#5552FF"/>
<circle cx="17.7446" cy="63.7188" r="1.74468" transform="rotate(90 17.7446 63.7188)" fill="#5552FF"/>
<circle cx="17.7446" cy="84.7188" r="1.74468" transform="rotate(90 17.7446 84.7188)" fill="#5552FF"/>
<circle cx="17.7446" cy="105.719" r="1.74468" transform="rotate(90 17.7446 105.719)" fill="#5552FF"/>
<circle cx="17.7446" cy="70.6978" r="1.74468" transform="rotate(90 17.7446 70.6978)" fill="#5552FF"/>
<circle cx="17.7446" cy="91.6978" r="1.74468" transform="rotate(90 17.7446 91.6978)" fill="#5552FF"/>
<circle cx="17.7446" cy="112.698" r="1.74468" transform="rotate(90 17.7446 112.698)" fill="#5552FF"/>
<rect x="54" y="54.9956" width="6" height="3" fill="#5552FF"/>
<rect x="63" y="54.9956" width="12" height="3" rx="1.5" fill="#6D7CFF"/>
<rect x="21" y="54.9956" width="12" height="2" rx="1" fill="#5552FF"/>
<rect x="76" y="54.9956" width="32" height="3" rx="1.5" fill="#5552FF"/>
<rect x="54" y="61.9956" width="6" height="3" fill="#5552FF"/>
<rect x="69" y="61.9956" width="12" height="3" rx="1.5" fill="#6D7CFF"/>
<rect x="27" y="61.9956" width="12" height="2" rx="1" fill="#5552FF"/>
<rect x="82" y="61.9956" width="32" height="3" rx="1.5" fill="#5552FF"/>
<rect x="54" y="68.9956" width="6" height="3" fill="#5552FF"/>
<rect x="69" y="68.9956" width="12" height="3" rx="1.5" fill="#6D7CFF"/>
<rect x="27" y="68.9956" width="12" height="2" rx="1" fill="#5552FF"/>
<rect x="82" y="68.9956" width="32" height="3" rx="1.5" fill="#5552FF"/>
<rect x="54" y="75.9956" width="6" height="3" fill="#5552FF"/>
<rect x="74" y="75.9956" width="12" height="3" rx="1.5" fill="#6D7CFF"/>
<rect x="32" y="75.9956" width="12" height="2" rx="1" fill="#5552FF"/>
<rect x="87" y="75.9956" width="32" height="3" rx="1.5" fill="#5552FF"/>
<rect x="54" y="82.9956" width="6" height="3" fill="#5552FF"/>
<rect x="67" y="82.9956" width="12" height="3" rx="1.5" fill="#6D7CFF"/>
<rect x="25" y="82.9956" width="12" height="2" rx="1" fill="#5552FF"/>
<rect x="80" y="82.9956" width="32" height="3" rx="1.5" fill="#5552FF"/>
<rect x="54" y="89.9956" width="6" height="3" fill="#5552FF"/>
<rect x="71" y="89.9956" width="12" height="3" rx="1.5" fill="#6D7CFF"/>
<rect x="29" y="89.9956" width="12" height="2" rx="1" fill="#5552FF"/>
<rect x="84" y="89.9956" width="32" height="3" rx="1.5" fill="#5552FF"/>
<rect x="54" y="96.9956" width="6" height="3" fill="#5552FF"/>
<rect x="69" y="96.9956" width="12" height="3" rx="1.5" fill="#6D7CFF"/>
<rect x="27" y="96.9956" width="12" height="2" rx="1" fill="#5552FF"/>
<rect x="82" y="96.9956" width="32" height="3" rx="1.5" fill="#5552FF"/>
<rect x="54" y="103.996" width="6" height="3" fill="#5552FF"/>
<rect x="77" y="103.996" width="12" height="3" rx="1.5" fill="#6D7CFF"/>
<rect x="35" y="103.996" width="12" height="2" rx="1" fill="#5552FF"/>
<rect x="90" y="103.996" width="32" height="3" rx="1.5" fill="#5552FF"/>
<rect x="54" y="110.996" width="6" height="3" fill="#5552FF"/>
<rect x="77" y="110.996" width="12" height="3" rx="1.5" fill="#6D7CFF"/>
<rect x="35" y="110.996" width="12" height="2" rx="1" fill="#5552FF"/>
<rect x="90" y="110.996" width="32" height="3" rx="1.5" fill="#5552FF"/>
<rect x="98.35" y="156.088" width="70.1615" height="12.3154" rx="1.65" fill="#6D7CFF" stroke="#6D7CFF" stroke-width="0.7"/>
<rect x="98.35" y="157.535" width="51.3615" height="9.42308" rx="1.65" fill="#6D7CFF" stroke="#6D7CFF" stroke-width="0.7"/>
<path d="M98 148.508C98 144.914 100.914 142 104.508 142H168.862V155.015H104.508C100.914 155.015 98 152.102 98 148.508Z" fill="#5552FF"/>
<path d="M116.077 148.508C116.077 145.712 118.343 143.446 121.138 143.446H168.862V153.569H121.138C118.343 153.569 116.077 151.303 116.077 148.508Z" fill="#6D7CFF"/>
<path d="M107.027 179.6C107.027 174.602 111.079 170.55 116.077 170.55H168.512V188.65H116.077C111.079 188.65 107.027 184.598 107.027 179.6Z" fill="#5552FF" stroke="#5552FF" stroke-width="0.7"/>
<path d="M108.846 179.6C108.846 175.606 112.083 172.369 116.077 172.369H168.862V186.831H116.077C112.083 186.831 108.846 183.593 108.846 179.6Z" fill="#6D7CFF"/>
<path d="M117.523 174.762C117.247 174.762 117.023 174.986 117.023 175.262C117.023 175.538 117.247 175.762 117.523 175.762L117.523 174.762ZM117.523 175.762L163.077 175.762L163.077 174.762L117.523 174.762L117.523 175.762Z" fill="#CBCBD7"/>
<path d="M121.138 145.838C120.862 145.838 120.638 146.062 120.638 146.338C120.638 146.615 120.862 146.838 121.138 146.838L121.138 145.838ZM121.138 146.838L166.692 146.838L166.692 145.838L121.138 145.838L121.138 146.838Z" fill="#CBCBD7"/>
<path d="M116.077 179.1C115.801 179.1 115.577 179.324 115.577 179.6C115.577 179.876 115.801 180.1 116.077 180.1L116.077 179.1ZM116.077 180.1L163.077 180.1L163.077 179.1L116.077 179.1L116.077 180.1Z" fill="#CBCBD7"/>
<path d="M119.692 148.008C119.416 148.008 119.192 148.232 119.192 148.508C119.192 148.784 119.416 149.008 119.692 149.008L119.692 148.008ZM119.692 149.008L166.692 149.008L166.692 148.008L119.692 148.008L119.692 149.008Z" fill="#CBCBD7"/>
<path d="M117.523 183.438C117.247 183.438 117.023 183.662 117.023 183.938C117.023 184.215 117.247 184.438 117.523 184.438L117.523 183.438ZM117.523 184.438L163.077 184.438L163.077 183.438L117.523 183.438L117.523 184.438Z" fill="#CBCBD7"/>
<path d="M121.138 150.177C120.862 150.177 120.638 150.401 120.638 150.677C120.638 150.953 120.862 151.177 121.138 151.177L121.138 150.177ZM121.138 151.177L166.692 151.177L166.692 150.177L121.138 150.177L121.138 151.177Z" fill="#CBCBD7"/>
<rect x="151.508" y="155.738" width="5.06154" height="13.0154" fill="#5552FF"/>
<rect x="160.908" y="155.738" width="5.06154" height="13.0154" fill="#5552FF"/>
<circle cx="110.292" cy="148.508" r="2.16923" fill="#D9D9D9"/>
<path d="M89 130V139.143C89 140.247 88.1046 141.143 87 141.143H25.9275V141.143C25.4153 141.143 25 141.558 25 142.07V143" stroke="#6D7CFF" stroke-linejoin="round"/>
<path d="M58 48V38.8571C58 37.7526 58.8954 36.8571 60 36.8571H121.072V36.8571C121.585 36.8571 122 36.4419 122 35.9296V35" stroke="#6D7CFF" stroke-linejoin="round"/>
<path d="M24.6464 165.354C24.8417 165.549 25.1583 165.549 25.3536 165.354L28.5355 162.172C28.7308 161.976 28.7308 161.66 28.5355 161.464C28.3403 161.269 28.0237 161.269 27.8284 161.464L25 164.293L22.1716 161.464C21.9763 161.269 21.6597 161.269 21.4645 161.464C21.2692 161.66 21.2692 161.976 21.4645 162.172L24.6464 165.354ZM24.5 130L24.5 165L25.5 165L25.5 130L24.5 130Z" fill="#6D7CFF"/>
<path d="M122.354 12.6464C122.158 12.4512 121.842 12.4512 121.646 12.6464L118.464 15.8284C118.269 16.0237 118.269 16.3403 118.464 16.5355C118.66 16.7308 118.976 16.7308 119.172 16.5355L122 13.7071L124.828 16.5355C125.024 16.7308 125.34 16.7308 125.536 16.5355C125.731 16.3403 125.731 16.0237 125.536 15.8284L122.354 12.6464ZM122.5 48L122.5 13L121.5 13L121.5 48L122.5 48Z" fill="#6D7CFF"/>
<circle cx="122.17" cy="7.17" r="3.17" fill="#6473FF"/>
<circle cx="25.17" cy="170.17" r="3.17" fill="#6473FF"/>
<circle cx="81.17" cy="170.17" r="3.17" fill="#6473FF"/>
<circle cx="45.17" cy="190.17" r="3.17" fill="#AD7BFF"/>
<path d="M26 175V180.667C26 181.219 26.4477 181.667 27 181.667H45.1304M45.1304 181.667V185M45.1304 181.667H80C80.5523 181.667 81 181.219 81 180.667V175" stroke="#6D7CFF" stroke-linejoin="round"/>
</svg>
