<svg width="22" height="21" viewBox="0 0 22 21" fill="none" xmlns="http://www.w3.org/2000/svg">
<path d="M10.5992 0C4.78672 0 0 4.71834 0 10.5992C0 15.2491 3.04299 19.2153 7.28266 20.6513C7.82971 20.7539 8.00067 20.412 8.00067 20.1726C8.00067 19.9333 8.00067 19.2495 7.96648 18.3263C5.02606 19.0101 4.41062 16.8903 4.41062 16.8903C3.93195 15.6936 3.21394 15.3517 3.21394 15.3517C2.2566 14.6679 3.24813 14.6679 3.24813 14.6679C4.30805 14.7021 4.8893 15.762 4.8893 15.762C5.81245 17.4032 7.38523 16.9245 7.96648 16.6168C8.06905 15.933 8.34258 15.4543 8.65029 15.1808C6.32531 14.9414 3.82938 14.0183 3.82938 9.98374C3.82938 8.82125 4.27386 7.8981 4.92349 7.18009C4.82091 6.94075 4.44482 5.84664 5.02606 4.37644C5.02606 4.37644 5.94921 4.10291 7.96648 5.47054C8.82125 5.23121 9.71021 5.09444 10.6334 5.09444C11.5565 5.09444 12.4797 5.19702 13.3003 5.47054C15.3175 4.1371 16.2065 4.37644 16.2065 4.37644C16.7877 5.81245 16.4458 6.94075 16.3091 7.18009C16.9929 7.8981 17.4032 8.85544 17.4032 9.98374C17.4032 14.0183 14.9072 14.9414 12.5822 15.1808C12.9583 15.5227 13.3003 16.2065 13.3003 17.1638C13.3003 18.5998 13.2661 19.7281 13.2661 20.0701C13.2661 20.3436 13.4712 20.6513 13.9841 20.5487C18.1554 19.1469 21.1984 15.2149 21.1984 10.5308C21.1642 4.71834 16.4116 0 10.5992 0Z" fill="white"/>
</svg>
