<svg width="100" height="22" viewBox="0 0 100 22" fill="none" xmlns="http://www.w3.org/2000/svg">
<g clip-path="url(#clip0_1246_2314)">
<path d="M22.1051 -0.73584C21.3027 -0.73584 20.6525 -0.0777767 20.6525 0.734239V3.56377C20.6525 4.37521 21.3027 5.03406 22.1051 5.03406H24.9905C25.7929 5.03406 26.4442 4.37521 26.4442 3.56377V0.734239C26.4442 -0.0777767 25.7929 -0.73584 24.9905 -0.73584H22.1051ZM29.1971 3.74128C28.5944 3.74128 28.1056 4.24453 28.1056 4.86364V7.02279C28.1056 7.64254 28.5944 8.14544 29.1971 8.14544H31.365C31.9678 8.14544 32.4561 7.64254 32.4561 7.02279V4.86364C32.4561 4.24453 31.9678 3.74128 31.365 3.74128H29.1971ZM15.7306 3.74128C15.128 3.74128 14.6392 4.24453 14.6392 4.86364V7.02279C14.6392 7.64254 15.128 8.14544 15.7306 8.14544H17.8982C18.5007 8.14544 18.9898 7.64254 18.9898 7.02279V4.86364C18.9898 4.24453 18.5007 3.74128 17.8982 3.74128H15.7306ZM22.1051 6.21786C21.3027 6.21786 20.6525 6.87557 20.6525 7.68808V10.5174C20.6525 11.3293 21.3027 11.9879 22.1051 11.9879H24.9905C25.7929 11.9879 26.4442 11.3293 26.4442 10.5174V7.68808C26.4442 6.87557 25.7929 6.21786 24.9905 6.21786H22.1051ZM34.7738 7.5443C34.3255 7.5443 33.9622 7.91794 33.9622 8.37937V9.98558C33.9622 10.446 34.3255 10.8199 34.7738 10.8199H36.3865C36.8345 10.8199 37.1981 10.446 37.1981 9.98558V8.37937C37.1981 7.91794 36.8345 7.5443 36.3865 7.5443H34.7738ZM10.7803 7.5443C10.3322 7.5443 9.9684 7.91794 9.9684 8.37937V9.98558C9.9684 10.446 10.3322 10.8199 10.7803 10.8199H12.3925C12.8412 10.8199 13.2045 10.446 13.2045 9.98558V8.37937C13.2045 7.91794 12.8412 7.5443 12.3925 7.5443H10.7803ZM29.1971 9.23479C28.5944 9.23479 28.1056 9.73725 28.1056 10.3564V12.5163C28.1056 13.1355 28.5944 13.6382 29.1971 13.6382H31.365C31.9678 13.6382 32.4561 13.1355 32.4561 12.5163V10.3564C32.4561 9.73725 31.9678 9.23479 31.365 9.23479H29.1971ZM15.7306 9.23479C15.128 9.23479 14.6392 9.73725 14.6392 10.3564V12.5163C14.6392 13.1355 15.128 13.6382 15.7306 13.6382H17.8982C18.5007 13.6382 18.9898 13.1355 18.9898 12.5163V10.3564C18.9898 9.73725 18.5007 9.23479 17.8982 9.23479H15.7306ZM34.7738 11.9556C34.3255 11.9556 33.9622 12.329 33.9622 12.7899V14.3962C33.9622 14.8567 34.3255 15.2307 34.7738 15.2307H36.3865C36.8345 15.2307 37.1981 14.8567 37.1981 14.3962V12.7899C37.1981 12.329 36.8345 11.9556 36.3865 11.9556H34.7738ZM10.7803 11.9556C10.3322 11.9556 9.9684 12.329 9.9684 12.7899V14.3962C9.9684 14.8567 10.3322 15.2307 10.7803 15.2307H12.3925C12.8412 15.2307 13.2045 14.8567 13.2045 14.3962V12.7899C13.2045 12.329 12.8412 11.9556 12.3925 11.9556H10.7803ZM22.1051 13.1111C21.3027 13.1111 20.6525 13.7694 20.6525 14.5815V17.411C20.6525 18.223 21.3027 18.8808 22.1051 18.8808H24.9905C25.7929 18.8808 26.4442 18.223 26.4442 17.411V14.5815C26.4442 13.7694 25.7929 13.1111 24.9905 13.1111H22.1051ZM39.5398 14.3199C39.2064 14.3199 38.9368 14.5976 38.9368 14.9397V16.132C38.9368 16.4741 39.2064 16.7512 39.5398 16.7512H40.7368C41.0691 16.7512 41.3386 16.4741 41.3386 16.132V14.9397C41.3386 14.5976 41.0691 14.3199 40.7368 14.3199H39.5398ZM6.43026 14.3199C6.09741 14.3199 5.82775 14.5976 5.82775 14.9397V16.132C5.82775 16.4741 6.09741 16.7512 6.43026 16.7512H7.62679C7.95985 16.7512 8.22944 16.4741 8.22944 16.132V14.9397C8.22944 14.5976 7.95985 14.3199 7.62679 14.3199H6.43026ZM29.1971 14.7293C28.5944 14.7293 28.1056 15.2314 28.1056 15.8507V18.0102C28.1056 18.6299 28.5944 19.1324 29.1971 19.1324H31.365C31.9678 19.1324 32.4561 18.6299 32.4561 18.0102V15.8507C32.4561 15.2314 31.9678 14.7293 31.365 14.7293H29.1971ZM15.7306 14.7293C15.128 14.7293 14.6392 15.2314 14.6392 15.8507V18.0102C14.6392 18.6299 15.128 19.1324 15.7306 19.1324H17.8982C18.5007 19.1324 18.9898 18.6299 18.9898 18.0102V15.8507C18.9898 15.2314 18.5007 14.7293 17.8982 14.7293H15.7306ZM34.7738 16.3999C34.3255 16.3999 33.9622 16.7743 33.9622 17.2356V18.8414C33.9622 19.3028 34.3255 19.6758 34.7738 19.6758H36.3865C36.8345 19.6758 37.1981 19.3028 37.1981 18.8414V17.2356C37.1981 16.7743 36.8345 16.3999 36.3865 16.3999H34.7738ZM10.7803 16.3999C10.3322 16.3999 9.9684 16.7743 9.9684 17.2356V18.8414C9.9684 19.3028 10.3322 19.6758 10.7803 19.6758H12.3925C12.8412 19.6758 13.2045 19.3028 13.2045 18.8414V17.2356C13.2045 16.7743 12.8412 16.3999 12.3925 16.3999H10.7803ZM39.5398 17.9514C39.2064 17.9514 38.9368 18.2288 38.9368 18.5708V19.7632C38.9368 20.1046 39.2064 20.3829 39.5398 20.3829H40.7368C41.0691 20.3829 41.3386 20.1046 41.3386 19.7632V18.5708C41.3386 18.2288 41.0691 17.9514 40.7368 17.9514H39.5398ZM6.43026 17.9514C6.09741 17.9514 5.82775 18.2288 5.82775 18.5708V19.7632C5.82775 20.1046 6.09741 20.3829 6.43026 20.3829H7.62679C7.95985 20.3829 8.22944 20.1046 8.22944 19.7632V18.5708C8.22944 18.2288 7.95985 17.9514 7.62679 17.9514H6.43026ZM43.4916 19.1428C43.2404 19.1428 43.0362 19.352 43.0362 19.6102V20.5097C43.0362 20.7671 43.2404 20.9768 43.4916 20.9768H44.3945C44.6448 20.9768 44.8488 20.7671 44.8488 20.5097V19.6102C44.8488 19.352 44.6448 19.1428 44.3945 19.1428H43.4916ZM2.7726 19.1428C2.52148 19.1428 2.31763 19.352 2.31763 19.6102V20.5097C2.31763 20.7671 2.52148 20.9768 2.7726 20.9768H3.67492C3.92611 20.9768 4.1294 20.7671 4.1294 20.5097V19.6102C4.1294 19.352 3.92611 19.1428 3.67492 19.1428H2.7726Z" fill="white"/>
<path d="M61.5769 16.946V21.0316H61.9013V19.6304C62.0944 19.7724 62.8772 20.3427 63.3456 20.6774C63.6993 20.9126 63.6885 21.0014 63.6931 21.0316H64.1256C64.1256 20.8194 63.8896 20.7136 63.6236 20.5278C63.462 20.4142 62.2643 19.5596 62.2643 19.5596C62.2643 19.5596 63.4305 18.7752 63.5927 18.6622C63.8581 18.4761 64.0715 18.3709 64.0715 18.1583H63.6545C63.6508 18.1876 63.669 18.2771 63.3147 18.5126C62.8717 18.8309 62.1407 19.3618 61.9013 19.536V16.946H61.5769ZM64.6199 16.946V21.0316H64.9443V16.946H64.6199ZM74.3048 16.946V20.3783V20.3862V20.4255C74.305 20.4765 74.2965 20.5691 74.2662 20.6302C74.23 20.691 74.2158 20.7199 74.1194 20.7246H72.5284C72.4327 20.7199 72.4182 20.691 72.3817 20.6302C72.3591 20.5845 72.3468 20.5241 72.3431 20.4727V18.796V18.7881V18.7566C72.3421 18.704 72.3511 18.6052 72.3817 18.5441C72.4182 18.483 72.4318 18.4562 72.5284 18.4496H74.1194V18.119H72.5284C72.3091 18.1133 72.1457 18.2619 72.0882 18.4024C72.0243 18.5416 72.0196 18.6776 72.0187 18.7566V18.8117V20.3625V20.4255V20.4806V20.5357H72.0264C72.0338 20.6059 72.0493 20.6944 72.0882 20.7797C72.1457 20.9192 72.3091 21.0609 72.5284 21.0553H74.1194H74.1349C74.3471 21.0553 74.5022 20.9164 74.5596 20.7797C74.623 20.6402 74.6288 20.5036 74.6291 20.4255V20.3625V16.946H74.3048ZM59.7543 18.1347C59.5758 18.1609 59.4498 18.2879 59.399 18.4102C59.3351 18.5494 59.331 18.6858 59.3295 18.7645V18.8275V21.0316H59.6539V18.8117V18.8038V18.7645C59.6534 18.7116 59.6622 18.6127 59.6925 18.5519C59.7283 18.4908 59.7354 18.4713 59.8315 18.4653H61.0363V18.1347H59.8315C59.8041 18.1339 59.7798 18.131 59.7543 18.1347ZM77.3786 18.1347C77.1599 18.1291 76.9974 18.2783 76.9384 18.4181C76.8748 18.5576 76.8698 18.694 76.8689 18.7724V18.8275V21.0395H77.201V18.8117L77.1933 18.8038V18.7724C77.1933 18.7201 77.2016 18.6215 77.2319 18.5598C77.2671 18.4987 77.2829 18.4786 77.3786 18.4732H78.6298V21.0395H78.9542V18.4732H80.2208C80.3168 18.4785 80.3239 18.4984 80.3598 18.5598C80.3897 18.6215 80.3993 18.7201 80.3984 18.7724V18.8038V18.8117V21.0395H80.7228V18.8275V18.7724C80.7218 18.694 80.7172 18.5573 80.6533 18.4181C80.5958 18.2783 80.4404 18.1291 80.2208 18.1347H77.3786ZM85.1636 18.1347C84.944 18.1293 84.7818 18.2786 84.7234 18.4181C84.6597 18.5576 84.6545 18.694 84.6539 18.7724V18.8275V21.0395H84.986V18.8117L84.9783 18.8038V18.7724C84.9763 18.7201 84.9875 18.6215 85.0169 18.5598C85.053 18.499 85.0666 18.471 85.1636 18.4653L86.7005 18.4732C86.7975 18.4786 86.8121 18.4984 86.8473 18.5598C86.8775 18.6215 86.8871 18.7201 86.8859 18.7724V18.8039V18.8117V21.0395H87.2103V18.8275V18.7724C87.2093 18.694 87.2047 18.5573 87.1408 18.4181C87.0836 18.2786 86.9193 18.1294 86.7005 18.1347L85.1636 18.1347ZM97.9378 18.1347C97.7596 18.1607 97.6325 18.2876 97.5825 18.4102C97.5176 18.5494 97.5139 18.6855 97.513 18.7645V18.8275V21.0316H97.8374V18.8117V18.8038V18.7645C97.8359 18.7113 97.8448 18.6127 97.876 18.5519C97.91 18.4905 97.9263 18.471 98.0227 18.4653H99.2276V18.1347H98.0227C97.9954 18.1339 97.9632 18.131 97.9378 18.1347ZM51.6604 18.1583V20.3625C51.6594 20.3726 51.6604 20.3968 51.6604 20.4255C51.6608 20.5036 51.6653 20.6402 51.7299 20.7797C51.7867 20.9164 51.9424 21.0552 52.1546 21.0552H52.1701H55.0045C55.2241 21.0609 55.3866 20.9192 55.4447 20.7797C55.5084 20.6402 55.5136 20.5036 55.5142 20.4255V20.3625V18.1583H55.1899V20.3782V20.3861V20.4255C55.1908 20.4765 55.1809 20.5691 55.1512 20.6302C55.1151 20.6913 55.1012 20.7199 55.0045 20.7246H53.7611V18.1583H53.4367V20.7246H52.1701C52.0737 20.7199 52.0598 20.6913 52.0233 20.6302C51.9931 20.5691 51.9838 20.4765 51.9847 20.4255V20.3861V20.3782V18.1583H51.6604ZM56.5105 18.1583C56.3323 18.1836 56.2058 18.3107 56.1553 18.4339C56.0907 18.573 56.0861 18.7097 56.0857 18.7881V18.8432V20.3625V20.4255C56.086 20.5036 56.0907 20.6402 56.1553 20.7797C56.2115 20.9164 56.3675 21.0552 56.58 21.0552H56.5955H58.2019C58.4212 21.0609 58.584 20.9192 58.6421 20.7797C58.7064 20.6402 58.711 20.5036 58.7116 20.4255L58.7039 20.3704V18.8432L58.7116 18.7881C58.7111 18.7097 58.7064 18.573 58.6421 18.4339C58.584 18.2931 58.4212 18.152 58.2019 18.1583H56.5955C56.5681 18.1575 56.536 18.1548 56.5105 18.1583ZM65.9637 18.1583C65.7853 18.1836 65.659 18.3107 65.6085 18.4339C65.5442 18.573 65.5325 18.7097 65.5312 18.7881L65.5389 18.8432V20.3625L65.5312 20.4255C65.5325 20.5036 65.5442 20.6402 65.6085 20.7797C65.6656 20.9164 65.8201 21.0552 66.0332 21.0552H66.0409H67.6551C67.8729 21.0609 68.0295 20.9192 68.0876 20.7797C68.1515 20.6402 68.1562 20.5036 68.1571 20.4255V20.3704V18.8432V18.7881C68.1561 18.7097 68.1515 18.573 68.0876 18.4339C68.0295 18.2931 67.8729 18.152 67.6551 18.1583H66.0409C66.0136 18.1575 65.9892 18.1548 65.9637 18.1583ZM68.775 18.1583V18.489H70.9375C71.0338 18.4944 71.0487 18.5145 71.0842 18.5756C71.1142 18.6366 71.1244 18.7368 71.1228 18.7881V18.8275V18.8353V20.3783V20.3862V20.4255C71.1238 20.4765 71.1142 20.5691 71.0842 20.6302C71.0487 20.6913 71.0338 20.7196 70.9375 20.7247H69.2075C69.0978 20.7199 69.0898 20.6935 69.0607 20.6538C69.0357 20.6116 69.0221 20.5354 69.0221 20.4964V20.4728V20.4649V19.8587V19.8508V19.8115C69.0221 19.7601 69.0301 19.6603 69.0607 19.5989C69.0959 19.5378 69.1108 19.518 69.2075 19.5123H70.9375V19.1817H69.2075C68.9878 19.1761 68.8263 19.3177 68.7672 19.4572C68.7033 19.597 68.6984 19.7328 68.6977 19.8115V19.8744V20.4491V20.4963C68.6982 20.5662 68.7061 20.6922 68.775 20.8191C68.8405 20.9479 69.0011 21.0606 69.2075 21.0553H70.9375H70.9529C71.1661 21.0553 71.3212 20.9161 71.3777 20.7797C71.4416 20.6399 71.4466 20.5036 71.4472 20.4255V20.3625V18.8432V18.7881C71.4467 18.7097 71.4416 18.573 71.3777 18.4339C71.3196 18.2934 71.1565 18.1524 70.9375 18.1583L68.775 18.1583ZM81.3792 18.1583V18.489H83.5495C83.6446 18.4944 83.6526 18.5145 83.6885 18.5756C83.7187 18.6366 83.7271 18.7371 83.7271 18.7881V18.8275V18.8353V20.3783V20.3862V20.4255C83.7271 20.4765 83.7188 20.5691 83.6885 20.6302C83.6526 20.6913 83.6446 20.7196 83.5495 20.7247H81.8117C81.715 20.7196 81.7011 20.6913 81.665 20.6302C81.6353 20.5688 81.6264 20.4765 81.6264 20.4255V20.3862V20.3783V19.8587V19.8508V19.8429V19.8115C81.6254 19.7601 81.6353 19.6603 81.665 19.5989C81.7011 19.5378 81.715 19.518 81.8117 19.5123H83.5495V19.1817H81.8117C81.593 19.176 81.4296 19.3177 81.3715 19.4572C81.3085 19.597 81.302 19.7327 81.302 19.8115V19.8744V20.3625V20.4255C81.3025 20.5036 81.3085 20.6399 81.3715 20.7797C81.4296 20.9189 81.593 21.0609 81.8117 21.0552H83.5495H83.5572C83.7694 21.0552 83.9254 20.9161 83.9819 20.7797C84.0459 20.6399 84.0508 20.5036 84.0515 20.4255V20.3704V18.8432V18.7881C84.051 18.7094 84.0459 18.5733 83.9819 18.4338C83.9248 18.2934 83.7682 18.1523 83.5494 18.1583H81.3792ZM87.8899 18.1583V18.489H90.0524C90.1482 18.4944 90.1633 18.5145 90.1991 18.5756C90.2294 18.6366 90.2387 18.7371 90.2377 18.7881V18.8275V18.8353V20.3783V20.3862V20.4255C90.2387 20.4765 90.2294 20.5691 90.1991 20.6302C90.1633 20.6913 90.1482 20.7196 90.0524 20.7247H88.3147C88.2059 20.7199 88.1957 20.6935 88.1679 20.6538C88.1423 20.6116 88.137 20.5354 88.137 20.4964V20.4728V20.4649V19.8587V19.8508V19.843V19.8115C88.137 19.7601 88.1442 19.6603 88.1757 19.5989C88.2106 19.5378 88.218 19.518 88.3147 19.5123H90.0524V19.1817H88.3147C88.095 19.1761 87.9403 19.3177 87.8822 19.4572C87.8182 19.597 87.8133 19.7327 87.8127 19.8115V19.8744V20.4491V20.4963C87.8127 20.5662 87.821 20.6919 87.8899 20.8191C87.9551 20.9472 88.116 21.0606 88.3224 21.0552H90.0524H90.0678C90.2791 21.0552 90.4361 20.9161 90.4926 20.7797C90.5563 20.6399 90.5615 20.5036 90.5621 20.4255V20.3704V18.8432V18.7881C90.5614 18.7094 90.5562 18.5733 90.4926 18.4339C90.4342 18.2934 90.2711 18.1523 90.0524 18.1583H87.8899ZM91.4271 18.1583C91.2486 18.1842 91.1221 18.311 91.0719 18.4339C91.0326 18.5195 91.0172 18.5998 91.0101 18.67H91.0024V18.733V18.7881V18.8432V20.1814V20.2366C91.0036 20.3153 91.0082 20.4437 91.0719 20.5829C91.1287 20.7202 91.2844 20.8663 91.4966 20.8663H91.5121H93.188V20.5357H91.5121C91.4163 20.5303 91.4015 20.5023 91.3653 20.4412C91.3351 20.3801 91.3261 20.2891 91.3267 20.2366V20.1972V20.1893V18.7408C91.3308 18.6892 91.344 18.6218 91.3653 18.5755C91.4015 18.5148 91.4163 18.4946 91.5121 18.4889H93.2421C93.3388 18.4946 93.3527 18.5148 93.3888 18.5755C93.4191 18.6373 93.4281 18.7368 93.4274 18.7881V18.8274V18.8353V21.3229V21.3308V21.3701C93.4279 21.4221 93.4191 21.5216 93.3888 21.5827C93.3527 21.6435 93.3388 21.6639 93.2421 21.6693H91.6897V21.9999H93.2421H93.2575C93.4695 21.9999 93.6248 21.8607 93.6823 21.7244C93.7459 21.5843 93.7506 21.4485 93.7518 21.3701V21.315V18.8432V18.7881C93.7518 18.7097 93.7459 18.5734 93.6823 18.4339C93.6239 18.2934 93.4614 18.1524 93.2421 18.1583H91.5121C91.4847 18.1575 91.4526 18.1546 91.4271 18.1583ZM94.7095 18.1583C94.5314 18.1838 94.4058 18.311 94.3542 18.4339C94.2912 18.573 94.2856 18.7097 94.2847 18.7881V18.8432V20.3625V20.4255C94.2847 20.5036 94.2912 20.6399 94.3542 20.7797C94.4126 20.9189 94.576 21.0609 94.7944 21.0552H96.9569V20.7246H94.7944C94.698 20.7196 94.6838 20.6913 94.6477 20.6302C94.6183 20.5691 94.6078 20.4765 94.6091 20.4255V20.3861V20.3782V18.8353V18.8274V18.8195V18.7881C94.6078 18.7374 94.6183 18.6372 94.6477 18.5755C94.6838 18.5144 94.698 18.4943 94.7944 18.4889H96.5244C96.6202 18.4943 96.635 18.5144 96.6712 18.5755C96.6971 18.6297 96.7079 18.71 96.7098 18.7644V19.3548V19.3627V19.3706V19.3863C96.7103 19.4185 96.7011 19.4786 96.6789 19.5123C96.6551 19.5435 96.639 19.5709 96.5244 19.5753H94.7944V19.9138H96.5244H96.5399C96.7351 19.9138 96.8883 19.8133 96.9569 19.6934C97.028 19.5728 97.0335 19.4522 97.0342 19.3863V19.3391V18.8432V18.7881C97.0337 18.7094 97.0286 18.5733 96.9647 18.4338C96.9072 18.2934 96.7428 18.1523 96.5244 18.1583H94.7944C94.7671 18.1575 94.7349 18.1547 94.7095 18.1583ZM56.5955 18.489H58.2019C58.2974 18.4943 58.3131 18.5142 58.3486 18.5756C58.378 18.6366 58.3879 18.7368 58.3873 18.7881L58.3795 18.8275V18.8353V20.3783V20.3862L58.3873 20.4255C58.3878 20.4765 58.378 20.5691 58.3486 20.6302C58.3131 20.6913 58.2974 20.7199 58.2019 20.7247H56.5955C56.4994 20.7199 56.4846 20.6913 56.4487 20.6302C56.4191 20.5691 56.4092 20.4765 56.4101 20.4255V20.3862V20.3783V18.8353V18.8275V18.7881C56.4091 18.7368 56.4191 18.6366 56.4487 18.5756C56.4846 18.5142 56.4988 18.4943 56.5955 18.489ZM66.041 18.489H67.6551C67.7506 18.4943 67.7583 18.5142 67.7941 18.5756C67.8244 18.6366 67.8334 18.7368 67.8327 18.7881V18.8275V18.8353V20.3783V20.3862V20.4255C67.8332 20.4765 67.8244 20.5691 67.7941 20.6302C67.7583 20.6913 67.7506 20.7199 67.6551 20.7247H66.041C65.9446 20.7199 65.9381 20.6913 65.9019 20.6302C65.8726 20.5691 65.8624 20.4765 65.8633 20.4255V20.3862V20.3783V18.8353V18.8275V18.7881C65.8623 18.7368 65.8726 18.6366 65.9019 18.5756C65.9381 18.5142 65.9446 18.4943 66.041 18.489Z" fill="white"/>
<path d="M98.7562 4.66498C98.3963 4.36962 97.7142 4.30381 97.3197 4.2909C97.1377 4.28586 97.0157 4.2909 97.0157 4.2909H87.7537C87.7537 4.2909 87.4729 4.26886 87.1294 4.2909C86.7948 4.31294 86.4009 4.37686 86.1544 4.54753C85.5279 4.97798 85.4491 5.68111 85.4491 6.31906V14.4238H87.7537V7.3081C87.7537 6.28694 88.6119 6.39872 88.6119 6.39872H91.2872V14.4141H93.4837V6.39872H96.2214C96.9585 6.39872 97.0132 7.05211 97.0157 7.19853V7.22907V14.4238H99.3222V6.39872V6.34173C99.3188 6.09171 99.2743 5.08944 98.7562 4.66498ZM79.2687 4.2909C78.9335 4.31294 78.5396 4.37686 78.2925 4.54753C77.666 4.97798 77.5881 5.68111 77.5881 6.31906V14.4238H79.8924V7.3081C79.8924 6.28694 80.7509 6.39872 80.7509 6.39872H83.8081V4.2909H79.8924C79.8924 4.2909 79.6116 4.26886 79.2687 4.2909ZM73.3957 11.3975C73.3957 12.4183 72.5378 12.3072 72.5378 12.3072H69.3904C68.6546 12.3072 68.599 11.6529 68.5965 11.5058V11.4765V4.2802H66.291V12.3072V12.3642C66.2937 12.6123 66.3385 13.6158 66.8566 14.0406C67.2162 14.3356 67.898 14.4018 68.2925 14.4141C68.4748 14.42 68.5965 14.4141 68.5965 14.4141H73.3957C73.3957 14.4141 73.6768 14.4367 74.0194 14.4141C74.3546 14.3923 74.7482 14.3275 74.9953 14.1574C75.6212 13.726 75.7006 13.0248 75.7006 12.3862V4.2802H73.3957V11.3975ZM61.9796 14.4141H64.2842V0H61.9796V14.4141ZM59.9335 9.78906C59.9335 9.78906 59.9545 9.04436 59.4982 8.72287C59.0781 8.4294 58.4741 8.4294 58.4741 8.4294H54.2774C54.2774 8.4294 53.6456 8.47254 53.6456 7.78547V7.06376C53.6456 7.06376 53.59 6.30142 54.3932 6.30142H59.8356V4.2802H53.9474C53.9474 4.2802 52.9718 4.26664 52.5844 4.36018C52.0716 4.48393 51.5125 4.75157 51.5125 5.94057V8.80883C51.5125 10.3666 52.9694 10.2031 52.9694 10.2031H56.8813C57.8084 10.2031 57.7426 10.9009 57.7426 10.9009V11.5905C57.7426 12.5021 56.729 12.3569 56.729 12.3569H51.5125V14.4141H58.2696C58.2696 14.4141 59.1544 14.4449 59.5613 13.966C59.9687 13.487 59.9335 12.7008 59.9335 12.7008V9.78906Z" fill="white"/>
</g>
<defs>
<clipPath id="clip0_1246_2314">
<rect width="99.6471" height="22" fill="white"/>
</clipPath>
</defs>
</svg>
