<svg width="782" height="486" viewBox="0 0 782 486" fill="none" xmlns="http://www.w3.org/2000/svg">
<g clip-path="url(#clip0_1074_3480)">
<rect width="782" height="486" rx="34" fill="#323266"/>
<line x1="284" y1="67" x2="284" y2="399" stroke="#8F91A4" stroke-width="4" stroke-linecap="round"/>
<g filter="url(#filter0_d_1074_3480)">
<rect x="40" y="167" width="484" height="120" rx="60" fill="url(#paint0_linear_1074_3480)"/>
<path fill-rule="evenodd" clip-rule="evenodd" d="M149.465 206.409C151.046 206.138 152.648 206.002 154.253 206C156.001 205.99 157.747 206.127 159.473 206.409C160.789 206.544 162.015 207.142 162.932 208.096C163.849 209.049 164.399 210.297 164.483 211.618V221.158C164.489 221.822 164.363 222.48 164.115 223.095C163.866 223.71 163.498 224.27 163.033 224.743C162.568 225.216 162.014 225.592 161.403 225.851C160.792 226.109 160.136 226.245 159.473 226.25H149.465C147.819 226.277 146.248 226.941 145.081 228.102C143.914 229.262 143.242 230.83 143.205 232.475V237.053H139.76C136.848 237.053 135.147 234.94 134.435 231.973C133.494 228.644 133.494 225.119 134.435 221.79C134.712 220.341 135.492 219.037 136.637 218.107C137.783 217.178 139.22 216.683 140.694 216.71H154.475V215.436H144.455V211.617C144.455 208.726 145.225 207.158 149.465 206.409ZM149.902 209.379C149.585 209.173 149.213 209.066 148.834 209.072C148.331 209.077 147.851 209.282 147.498 209.641C147.146 210 146.95 210.484 146.954 210.987C146.955 211.366 147.069 211.735 147.281 212.049C147.492 212.363 147.793 212.607 148.144 212.75C148.494 212.893 148.88 212.928 149.251 212.851C149.621 212.774 149.961 212.589 150.226 212.319C150.492 212.049 150.671 211.706 150.74 211.333C150.81 210.961 150.768 210.577 150.619 210.229C150.469 209.881 150.22 209.585 149.902 209.379ZM165.732 221.159V216.71L169.493 216.709C172.409 216.709 173.783 218.89 174.503 221.789C175.531 225.105 175.531 228.655 174.503 231.972C173.49 235.021 172.405 237.052 169.493 237.052H154.475V238.325H164.483V242.145C164.483 245.037 161.995 246.506 159.473 247.237C156.215 248.256 152.723 248.256 149.465 247.237C146.816 246.458 144.455 244.86 144.455 242.145V232.604C144.46 231.269 144.987 229.989 145.923 229.038C146.859 228.086 148.13 227.539 149.465 227.512H159.473C161.136 227.469 162.717 226.783 163.884 225.598C165.051 224.414 165.714 222.823 165.732 221.159ZM161.173 241.179C160.855 240.973 160.483 240.865 160.104 240.871C159.855 240.873 159.609 240.923 159.38 241.02C159.151 241.116 158.944 241.257 158.769 241.434C158.594 241.61 158.456 241.82 158.363 242.05C158.269 242.28 158.222 242.526 158.223 242.775C158.222 243.154 158.334 243.525 158.544 243.84C158.755 244.156 159.054 244.402 159.405 244.546C159.756 244.691 160.141 244.728 160.513 244.652C160.884 244.577 161.225 244.393 161.492 244.123C161.758 243.853 161.938 243.51 162.009 243.137C162.08 242.765 162.038 242.38 161.889 242.031C161.74 241.682 161.491 241.386 161.173 241.179Z" fill="#CBCBD7"/>
<path d="M207 212.562C204.145 212.562 201.353 213.409 198.979 214.996C196.605 216.582 194.754 218.837 193.661 221.475C192.569 224.113 192.283 227.016 192.84 229.817C193.397 232.617 194.772 235.19 196.791 237.209C198.81 239.228 201.383 240.603 204.183 241.16C206.984 241.717 209.887 241.431 212.525 240.339C215.163 239.246 217.418 237.395 219.004 235.021C220.591 232.647 221.438 229.855 221.438 227C221.438 223.171 219.916 219.499 217.209 216.791C214.501 214.084 210.829 212.562 207 212.562ZM204.938 232.766L199.781 227.609L201.422 225.969L204.938 229.484L212.579 221.844L214.225 223.479L204.938 232.766Z" fill="#55D899"/>
<path d="M230.584 241V221.16H233.624L233.864 224.04C234.504 222.973 235.358 222.147 236.424 221.56C237.491 220.973 238.691 220.68 240.024 220.68C241.598 220.68 242.944 221 244.064 221.64C245.211 222.28 246.091 223.253 246.704 224.56C247.398 223.36 248.344 222.413 249.544 221.72C250.771 221.027 252.091 220.68 253.504 220.68C255.878 220.68 257.771 221.4 259.184 222.84C260.598 224.253 261.304 226.44 261.304 229.4V241H257.984V229.76C257.984 227.707 257.571 226.16 256.744 225.12C255.918 224.08 254.731 223.56 253.184 223.56C251.584 223.56 250.251 224.187 249.184 225.44C248.144 226.667 247.624 228.427 247.624 230.72V241H244.264V229.76C244.264 227.707 243.851 226.16 243.024 225.12C242.198 224.08 241.011 223.56 239.464 223.56C237.891 223.56 236.571 224.187 235.504 225.44C234.464 226.667 233.944 228.427 233.944 230.72V241H230.584ZM267.94 249.8L272.86 239.08H271.7L263.82 221.16H267.46L274.02 236.6L280.98 221.16H284.46L271.46 249.8H267.94ZM287.606 245.6V242.44H308.566V245.6H287.606ZM321.51 241C319.697 241 318.27 240.56 317.23 239.68C316.19 238.8 315.67 237.213 315.67 234.92V224H312.23V221.16H315.67L316.11 216.4H319.03V221.16H324.87V224H319.03V234.92C319.03 236.173 319.283 237.027 319.79 237.48C320.297 237.907 321.19 238.12 322.47 238.12H324.55V241H321.51ZM335.739 241.48C334.086 241.48 332.712 241.2 331.619 240.64C330.526 240.08 329.712 239.333 329.179 238.4C328.646 237.467 328.379 236.453 328.379 235.36C328.379 233.333 329.152 231.773 330.699 230.68C332.246 229.587 334.352 229.04 337.019 229.04H342.379V228.8C342.379 227.067 341.926 225.76 341.019 224.88C340.112 223.973 338.899 223.52 337.379 223.52C336.072 223.52 334.939 223.853 333.979 224.52C333.046 225.16 332.459 226.107 332.219 227.36H328.779C328.912 225.92 329.392 224.707 330.219 223.72C331.072 222.733 332.126 221.987 333.379 221.48C334.632 220.947 335.966 220.68 337.379 220.68C340.152 220.68 342.232 221.427 343.619 222.92C345.032 224.387 345.739 226.347 345.739 228.8V241H342.739L342.539 237.44C341.979 238.56 341.152 239.52 340.059 240.32C338.992 241.093 337.552 241.48 335.739 241.48ZM336.259 238.64C337.539 238.64 338.632 238.307 339.539 237.64C340.472 236.973 341.179 236.107 341.659 235.04C342.139 233.973 342.379 232.853 342.379 231.68V231.64H337.299C335.326 231.64 333.926 231.987 333.099 232.68C332.299 233.347 331.899 234.187 331.899 235.2C331.899 236.24 332.272 237.08 333.019 237.72C333.792 238.333 334.872 238.64 336.259 238.64ZM358.38 241.48C356.006 241.48 354.033 240.88 352.46 239.68C350.886 238.48 349.966 236.853 349.7 234.8H353.14C353.353 235.84 353.9 236.747 354.78 237.52C355.686 238.267 356.9 238.64 358.42 238.64C359.833 238.64 360.873 238.347 361.54 237.76C362.206 237.147 362.54 236.427 362.54 235.6C362.54 234.4 362.1 233.6 361.22 233.2C360.366 232.8 359.153 232.44 357.58 232.12C356.513 231.907 355.446 231.6 354.38 231.2C353.313 230.8 352.42 230.24 351.7 229.52C350.98 228.773 350.62 227.8 350.62 226.6C350.62 224.867 351.26 223.453 352.54 222.36C353.846 221.24 355.606 220.68 357.82 220.68C359.926 220.68 361.646 221.213 362.98 222.28C364.34 223.32 365.126 224.813 365.34 226.76H362.02C361.886 225.747 361.446 224.96 360.7 224.4C359.98 223.813 359.006 223.52 357.78 223.52C356.58 223.52 355.646 223.773 354.98 224.28C354.34 224.787 354.02 225.453 354.02 226.28C354.02 227.08 354.433 227.707 355.26 228.16C356.113 228.613 357.26 229 358.7 229.32C359.926 229.587 361.086 229.92 362.18 230.32C363.3 230.693 364.206 231.267 364.9 232.04C365.62 232.787 365.98 233.88 365.98 235.32C366.006 237.107 365.326 238.587 363.94 239.76C362.58 240.907 360.726 241.48 358.38 241.48ZM370.78 241V212.2H374.14V229.52L382.26 221.16H386.38L377.58 230.12L387.5 241H383.22L374.14 230.72V241H370.78Z" fill="#CBCBD7"/>
<path d="M422.5 227C422.5 229.761 420.261 232 417.5 232C414.739 232 412.5 229.761 412.5 227C412.5 224.239 414.739 222 417.5 222C420.261 222 422.5 224.239 422.5 227Z" stroke="#CBCBD7" stroke-width="2"/>
<path fill-rule="evenodd" clip-rule="evenodd" d="M409.722 238.641C412.024 240.179 414.731 241 417.5 241C421.212 240.996 424.77 239.519 427.395 236.895C430.019 234.27 431.496 230.712 431.5 227C431.5 224.231 430.679 221.524 429.141 219.222C427.602 216.92 425.416 215.125 422.858 214.066C420.299 213.006 417.484 212.729 414.769 213.269C412.053 213.809 409.558 215.143 407.601 217.101C405.643 219.058 404.309 221.553 403.769 224.269C403.229 226.984 403.506 229.799 404.566 232.358C405.625 234.916 407.42 237.102 409.722 238.641ZM410.833 217.022C412.807 215.704 415.127 215 417.5 215C420.681 215.004 423.732 216.269 425.981 218.519C428.231 220.768 429.496 223.819 429.5 227C429.5 229.373 428.796 231.693 427.478 233.667C426.159 235.64 424.285 237.178 422.092 238.087C419.899 238.995 417.487 239.232 415.159 238.769C412.831 238.306 410.693 237.164 409.015 235.485C407.336 233.807 406.194 231.669 405.731 229.341C405.268 227.013 405.505 224.601 406.413 222.408C407.322 220.215 408.86 218.341 410.833 217.022ZM425.5 227C425.5 231.418 421.918 235 417.5 235C413.082 235 409.5 231.418 409.5 227C409.5 222.582 413.082 219 417.5 219C421.918 219 425.5 222.582 425.5 227ZM417.5 237C423.023 237 427.5 232.523 427.5 227C427.5 221.477 423.023 217 417.5 217C411.977 217 407.5 221.477 407.5 227C407.5 232.523 411.977 237 417.5 237Z" fill="#CBCBD7"/>
<rect x="40.5" y="167.5" width="483" height="119" rx="59.5" stroke="#1B2632" stroke-opacity="0.6"/>
</g>
<path d="M222 287H342V322C342 326.418 338.418 330 334 330H230C225.582 330 222 326.418 222 322V287Z" fill="#1C1C46"/>
<path d="M255.023 319.36C253.443 319.36 252.043 318.92 250.823 318.04C249.623 317.16 248.683 315.91 248.003 314.29C247.343 312.67 247.013 310.74 247.013 308.5C247.013 306.26 247.343 304.33 248.003 302.71C248.683 301.09 249.623 299.84 250.823 298.96C252.043 298.08 253.443 297.64 255.023 297.64C256.623 297.64 258.023 298.08 259.223 298.96C260.423 299.84 261.353 301.09 262.013 302.71C262.693 304.33 263.033 306.26 263.033 308.5C263.033 310.74 262.693 312.67 262.013 314.29C261.353 315.91 260.423 317.16 259.223 318.04C258.023 318.92 256.623 319.36 255.023 319.36ZM249.593 308.5C249.593 309.86 249.733 311.09 250.013 312.19C250.313 313.27 250.723 314.18 251.243 314.92L257.063 300.49C256.443 300.15 255.763 299.98 255.023 299.98C253.963 299.98 253.023 300.33 252.203 301.03C251.383 301.71 250.743 302.69 250.283 303.97C249.823 305.23 249.593 306.74 249.593 308.5ZM255.023 317.05C256.083 317.05 257.023 316.71 257.843 316.03C258.663 315.33 259.303 314.34 259.763 313.06C260.223 311.78 260.453 310.26 260.453 308.5C260.453 307.14 260.303 305.92 260.003 304.84C259.723 303.74 259.323 302.82 258.803 302.08L252.953 316.54C253.593 316.88 254.283 317.05 255.023 317.05ZM273.012 319.36C271.432 319.36 270.032 318.92 268.812 318.04C267.612 317.16 266.672 315.91 265.992 314.29C265.332 312.67 265.002 310.74 265.002 308.5C265.002 306.26 265.332 304.33 265.992 302.71C266.672 301.09 267.612 299.84 268.812 298.96C270.032 298.08 271.432 297.64 273.012 297.64C274.612 297.64 276.012 298.08 277.212 298.96C278.412 299.84 279.342 301.09 280.002 302.71C280.682 304.33 281.022 306.26 281.022 308.5C281.022 310.74 280.682 312.67 280.002 314.29C279.342 315.91 278.412 317.16 277.212 318.04C276.012 318.92 274.612 319.36 273.012 319.36ZM267.582 308.5C267.582 309.86 267.722 311.09 268.002 312.19C268.302 313.27 268.712 314.18 269.232 314.92L275.052 300.49C274.432 300.15 273.752 299.98 273.012 299.98C271.952 299.98 271.012 300.33 270.192 301.03C269.372 301.71 268.732 302.69 268.272 303.97C267.812 305.23 267.582 306.74 267.582 308.5ZM273.012 317.05C274.072 317.05 275.012 316.71 275.832 316.03C276.652 315.33 277.292 314.34 277.752 313.06C278.212 311.78 278.442 310.26 278.442 308.5C278.442 307.14 278.292 305.92 277.992 304.84C277.712 303.74 277.312 302.82 276.792 302.08L270.942 316.54C271.582 316.88 272.272 317.05 273.012 317.05ZM283.23 319L289.56 308.5L283.23 298H286.11L291.06 306.22L295.89 298H298.77L292.41 308.47L298.77 319H295.89L290.91 310.75L286.11 319H283.23ZM301.218 319L307.548 308.5L301.218 298H304.098L309.048 306.22L313.878 298H316.758L310.398 308.47L316.758 319H313.878L308.898 310.75L304.098 319H301.218Z" fill="#86869A"/>
<g filter="url(#filter1_d_1074_3480)">
<path d="M191 145C191 133.686 191 128.029 194.515 124.515C198.029 121 203.686 121 215 121H349C360.314 121 365.971 121 369.485 124.515C373 128.029 373 133.686 373 145V167H191V145Z" fill="url(#paint1_linear_1074_3480)"/>
<path d="M227.252 154V134.4H239.376V136.332H229.604V143.164H238.536V145.068H229.604V152.068H239.376V154H227.252ZM241.516 154L246.332 147.056L241.516 140.112H244.064L247.956 145.852L251.876 140.112H254.396L249.58 147.056L254.396 154H251.876L247.956 148.26L244.064 154H241.516ZM262.504 154.336C261.179 154.336 260.003 154.037 258.976 153.44C257.949 152.824 257.137 151.975 256.54 150.892C255.961 149.809 255.672 148.531 255.672 147.056C255.672 145.6 255.961 144.331 256.54 143.248C257.119 142.147 257.921 141.297 258.948 140.7C259.993 140.084 261.197 139.776 262.56 139.776C263.904 139.776 265.061 140.084 266.032 140.7C267.021 141.297 267.777 142.091 268.3 143.08C268.823 144.069 269.084 145.133 269.084 146.272C269.084 146.477 269.075 146.683 269.056 146.888C269.056 147.093 269.056 147.327 269.056 147.588H257.996C258.052 148.652 258.295 149.539 258.724 150.248C259.172 150.939 259.723 151.461 260.376 151.816C261.048 152.171 261.757 152.348 262.504 152.348C263.475 152.348 264.287 152.124 264.94 151.676C265.593 151.228 266.069 150.621 266.368 149.856H268.692C268.319 151.144 267.6 152.217 266.536 153.076C265.491 153.916 264.147 154.336 262.504 154.336ZM262.504 141.764C261.384 141.764 260.385 142.109 259.508 142.8C258.649 143.472 258.155 144.461 258.024 145.768H266.76C266.704 144.517 266.275 143.537 265.472 142.828C264.669 142.119 263.68 141.764 262.504 141.764ZM278.586 154.336C277.26 154.336 276.066 154.037 275.002 153.44C273.956 152.824 273.126 151.975 272.51 150.892C271.912 149.791 271.614 148.512 271.614 147.056C271.614 145.6 271.912 144.331 272.51 143.248C273.126 142.147 273.956 141.297 275.002 140.7C276.066 140.084 277.26 139.776 278.586 139.776C280.228 139.776 281.61 140.205 282.73 141.064C283.868 141.923 284.587 143.071 284.886 144.508H282.478C282.291 143.649 281.834 142.987 281.106 142.52C280.378 142.035 279.528 141.792 278.558 141.792C277.774 141.792 277.036 141.988 276.346 142.38C275.655 142.772 275.095 143.36 274.666 144.144C274.236 144.928 274.022 145.899 274.022 147.056C274.022 148.213 274.236 149.184 274.666 149.968C275.095 150.752 275.655 151.349 276.346 151.76C277.036 152.152 277.774 152.348 278.558 152.348C279.528 152.348 280.378 152.115 281.106 151.648C281.834 151.163 282.291 150.481 282.478 149.604H284.886C284.606 151.004 283.896 152.143 282.758 153.02C281.619 153.897 280.228 154.336 278.586 154.336ZM293.238 154.336C291.596 154.336 290.289 153.841 289.318 152.852C288.348 151.844 287.862 150.304 287.862 148.232V140.112H290.214V147.98C290.214 150.873 291.4 152.32 293.77 152.32C294.984 152.32 295.982 151.891 296.766 151.032C297.569 150.155 297.97 148.913 297.97 147.308V140.112H300.322V154H298.194L298.026 151.508C297.597 152.385 296.953 153.076 296.094 153.58C295.254 154.084 294.302 154.336 293.238 154.336ZM309.682 154C308.412 154 307.414 153.692 306.686 153.076C305.958 152.46 305.594 151.349 305.594 149.744V142.1H303.186V140.112H305.594L305.902 136.78H307.946V140.112H312.034V142.1H307.946V149.744C307.946 150.621 308.123 151.219 308.478 151.536C308.832 151.835 309.458 151.984 310.354 151.984H311.81V154H309.682ZM320.883 154.336C319.558 154.336 318.382 154.037 317.355 153.44C316.328 152.824 315.516 151.975 314.919 150.892C314.34 149.809 314.051 148.531 314.051 147.056C314.051 145.6 314.34 144.331 314.919 143.248C315.498 142.147 316.3 141.297 317.327 140.7C318.372 140.084 319.576 139.776 320.939 139.776C322.283 139.776 323.44 140.084 324.411 140.7C325.4 141.297 326.156 142.091 326.679 143.08C327.202 144.069 327.463 145.133 327.463 146.272C327.463 146.477 327.454 146.683 327.435 146.888C327.435 147.093 327.435 147.327 327.435 147.588H316.375C316.431 148.652 316.674 149.539 317.103 150.248C317.551 150.939 318.102 151.461 318.755 151.816C319.427 152.171 320.136 152.348 320.883 152.348C321.854 152.348 322.666 152.124 323.319 151.676C323.972 151.228 324.448 150.621 324.747 149.856H327.071C326.698 151.144 325.979 152.217 324.915 153.076C323.87 153.916 322.526 154.336 320.883 154.336ZM320.883 141.764C319.763 141.764 318.764 142.109 317.887 142.8C317.028 143.472 316.534 144.461 316.403 145.768H325.139C325.083 144.517 324.654 143.537 323.851 142.828C323.048 142.119 322.059 141.764 320.883 141.764ZM330.58 154V140.112H332.708L332.904 142.772C333.334 141.857 333.987 141.129 334.864 140.588C335.742 140.047 336.824 139.776 338.112 139.776V142.24H337.468C336.647 142.24 335.891 142.389 335.2 142.688C334.51 142.968 333.959 143.453 333.548 144.144C333.138 144.835 332.932 145.787 332.932 147V154H330.58Z" fill="#86869A"/>
</g>
<line x1="417" y1="245" x2="417" y2="321" stroke="#8F91A4" stroke-width="4" stroke-linecap="round"/>
<g filter="url(#filter2_d_1074_3480)">
<rect x="446" y="65" width="325" height="81" rx="40.5" fill="url(#paint2_linear_1074_3480)" shape-rendering="crispEdges"/>
<rect x="554" y="85" width="40" height="41" rx="8" fill="#1D1D47"/>
<path fill-rule="evenodd" clip-rule="evenodd" d="M571.222 100.795C570.934 100.603 570.596 100.5 570.25 100.5C569.786 100.5 569.341 100.684 569.013 101.013C568.684 101.341 568.5 101.786 568.5 102.25C568.5 102.596 568.603 102.934 568.795 103.222C568.987 103.51 569.261 103.734 569.58 103.867C569.9 103.999 570.252 104.034 570.591 103.966C570.931 103.899 571.243 103.732 571.487 103.487C571.732 103.243 571.899 102.931 571.966 102.591C572.034 102.252 571.999 101.9 571.867 101.58C571.734 101.261 571.51 100.987 571.222 100.795ZM568.722 99.9635C569.174 99.6613 569.706 99.5 570.25 99.5C570.979 99.5 571.679 99.7897 572.195 100.305C572.71 100.821 573 101.521 573 102.25C573 102.794 572.839 103.326 572.537 103.778C572.234 104.23 571.805 104.583 571.302 104.791C570.8 104.999 570.247 105.053 569.714 104.947C569.18 104.841 568.69 104.579 568.305 104.195C567.921 103.81 567.659 103.32 567.553 102.786C567.447 102.253 567.501 101.7 567.709 101.198C567.917 100.695 568.27 100.266 568.722 99.9635ZM578.5 99.5V104H580V105H576V104H577.5V101.5H576V100.5H577.5V99.5H578.5ZM570.25 107.5C570.596 107.5 570.934 107.603 571.222 107.795C571.51 107.987 571.734 108.261 571.867 108.58C571.999 108.9 572.034 109.252 571.966 109.591C571.899 109.931 571.732 110.243 571.487 110.487C571.243 110.732 570.931 110.899 570.591 110.966C570.252 111.034 569.9 110.999 569.58 110.867C569.261 110.734 568.987 110.51 568.795 110.222C568.603 109.934 568.5 109.596 568.5 109.25C568.5 108.786 568.684 108.341 569.013 108.013C569.341 107.684 569.786 107.5 570.25 107.5ZM570.25 106.5C569.706 106.5 569.174 106.661 568.722 106.963C568.27 107.266 567.917 107.695 567.709 108.198C567.501 108.7 567.447 109.253 567.553 109.786C567.659 110.32 567.921 110.81 568.305 111.195C568.69 111.579 569.18 111.841 569.714 111.947C570.247 112.053 570.8 111.999 571.302 111.791C571.805 111.583 572.234 111.23 572.537 110.778C572.839 110.326 573 109.794 573 109.25C573 108.521 572.71 107.821 572.195 107.305C571.679 106.79 570.979 106.5 570.25 106.5ZM578.722 107.795C578.434 107.603 578.096 107.5 577.75 107.5C577.286 107.5 576.841 107.684 576.513 108.013C576.184 108.341 576 108.786 576 109.25C576 109.596 576.103 109.934 576.295 110.222C576.487 110.51 576.761 110.734 577.08 110.867C577.4 110.999 577.752 111.034 578.091 110.966C578.431 110.899 578.743 110.732 578.987 110.487C579.232 110.243 579.399 109.931 579.466 109.591C579.534 109.252 579.499 108.9 579.367 108.58C579.234 108.261 579.01 107.987 578.722 107.795ZM576.222 106.963C576.674 106.661 577.206 106.5 577.75 106.5C578.479 106.5 579.179 106.79 579.695 107.305C580.21 107.821 580.5 108.521 580.5 109.25C580.5 109.794 580.339 110.326 580.037 110.778C579.734 111.23 579.305 111.583 578.802 111.791C578.3 111.999 577.747 112.053 577.214 111.947C576.68 111.841 576.19 111.579 575.805 111.195C575.421 110.81 575.159 110.32 575.053 109.786C574.947 109.253 575.001 108.7 575.209 108.198C575.417 107.695 575.77 107.266 576.222 106.963Z" fill="#6D7CFF"/>
<rect x="481" y="85" width="40" height="41" rx="8" fill="#1D1D47"/>
<path fill-rule="evenodd" clip-rule="evenodd" d="M498.222 100.795C497.934 100.603 497.596 100.5 497.25 100.5C496.786 100.5 496.341 100.684 496.013 101.013C495.684 101.341 495.5 101.786 495.5 102.25C495.5 102.596 495.603 102.934 495.795 103.222C495.987 103.51 496.261 103.734 496.58 103.867C496.9 103.999 497.252 104.034 497.591 103.966C497.931 103.899 498.243 103.732 498.487 103.487C498.732 103.243 498.899 102.931 498.966 102.591C499.034 102.252 498.999 101.9 498.867 101.58C498.734 101.261 498.51 100.987 498.222 100.795ZM495.722 99.9635C496.174 99.6613 496.706 99.5 497.25 99.5C497.979 99.5 498.679 99.7897 499.195 100.305C499.71 100.821 500 101.521 500 102.25C500 102.794 499.839 103.326 499.537 103.778C499.234 104.23 498.805 104.583 498.302 104.791C497.8 104.999 497.247 105.053 496.714 104.947C496.18 104.841 495.69 104.579 495.305 104.195C494.921 103.81 494.659 103.32 494.553 102.786C494.447 102.253 494.501 101.7 494.709 101.198C494.917 100.695 495.27 100.266 495.722 99.9635ZM505.5 99.5V104H507V105H503V104H504.5V101.5H503V100.5H504.5V99.5H505.5ZM497.25 107.5C497.596 107.5 497.934 107.603 498.222 107.795C498.51 107.987 498.734 108.261 498.867 108.58C498.999 108.9 499.034 109.252 498.966 109.591C498.899 109.931 498.732 110.243 498.487 110.487C498.243 110.732 497.931 110.899 497.591 110.966C497.252 111.034 496.9 110.999 496.58 110.867C496.261 110.734 495.987 110.51 495.795 110.222C495.603 109.934 495.5 109.596 495.5 109.25C495.5 108.786 495.684 108.341 496.013 108.013C496.341 107.684 496.786 107.5 497.25 107.5ZM497.25 106.5C496.706 106.5 496.174 106.661 495.722 106.963C495.27 107.266 494.917 107.695 494.709 108.198C494.501 108.7 494.447 109.253 494.553 109.786C494.659 110.32 494.921 110.81 495.305 111.195C495.69 111.579 496.18 111.841 496.714 111.947C497.247 112.053 497.8 111.999 498.302 111.791C498.805 111.583 499.234 111.23 499.537 110.778C499.839 110.326 500 109.794 500 109.25C500 108.521 499.71 107.821 499.195 107.305C498.679 106.79 497.979 106.5 497.25 106.5ZM505.722 107.795C505.434 107.603 505.096 107.5 504.75 107.5C504.286 107.5 503.841 107.684 503.513 108.013C503.184 108.341 503 108.786 503 109.25C503 109.596 503.103 109.934 503.295 110.222C503.487 110.51 503.761 110.734 504.08 110.867C504.4 110.999 504.752 111.034 505.091 110.966C505.431 110.899 505.743 110.732 505.987 110.487C506.232 110.243 506.399 109.931 506.466 109.591C506.534 109.252 506.499 108.9 506.367 108.58C506.234 108.261 506.01 107.987 505.722 107.795ZM503.222 106.963C503.674 106.661 504.206 106.5 504.75 106.5C505.479 106.5 506.179 106.79 506.695 107.305C507.21 107.821 507.5 108.521 507.5 109.25C507.5 109.794 507.339 110.326 507.037 110.778C506.734 111.23 506.305 111.583 505.802 111.791C505.3 111.999 504.747 112.053 504.214 111.947C503.68 111.841 503.19 111.579 502.805 111.195C502.421 110.81 502.159 110.32 502.053 109.786C501.947 109.253 502.001 108.7 502.209 108.198C502.417 107.695 502.77 107.266 503.222 106.963Z" fill="#6D7CFF"/>
<rect x="624" y="85" width="40" height="41" rx="8" fill="#1D1D47"/>
<g clip-path="url(#clip1_1074_3480)">
<path d="M648.5 103.3C648.35 103.25 648.2 103.2 648.05 103.15C648.05 103.05 648.1 102.95 648.1 102.85C648.45 101.2 648.2 99.85 647.45 99.4C646.7 99 645.5 99.4 644.3 100.45C644.2 100.55 644.05 100.65 643.95 100.75C643.85 100.7 643.8 100.6 643.7 100.55C642.5 99.45 641.25 99 640.5 99.45C639.75 99.85 639.55 101.15 639.85 102.7C639.9 102.85 639.9 103 639.95 103.15C639.75 103.2 639.6 103.25 639.45 103.3C637.95 103.8 637 104.65 637 105.45C637 106.3 638 107.2 639.55 107.7C639.65 107.75 639.8 107.8 639.95 107.8C639.9 107.95 639.85 108.15 639.85 108.3C639.55 109.85 639.8 111.05 640.5 111.5C641.25 111.95 642.5 111.5 643.75 110.4C643.85 110.3 643.95 110.2 644.05 110.15C644.15 110.25 644.3 110.4 644.45 110.5C645.65 111.55 646.8 111.95 647.55 111.5C648.3 111.05 648.55 109.75 648.25 108.15C648.25 108.05 648.2 107.9 648.15 107.75C648.25 107.7 648.35 107.7 648.4 107.65C650 107.1 651.05 106.25 651.05 105.4C651 104.65 650 103.85 648.5 103.3ZM644.75 100.95C645.8 100.05 646.75 99.7 647.2 99.95C647.65 100.2 647.85 101.3 647.55 102.75C647.55 102.85 647.5 102.95 647.5 103.05C646.9 102.9 646.25 102.8 645.65 102.75C645.3 102.25 644.9 101.75 644.45 101.25C644.55 101.15 644.65 101.05 644.75 100.95ZM641.15 106.2C641.3 106.45 641.4 106.7 641.55 106.95C641.7 107.2 641.85 107.45 642 107.65C641.55 107.6 641.15 107.55 640.7 107.45C640.8 107.05 640.95 106.65 641.15 106.2ZM641.15 104.8C640.95 104.4 640.85 104 640.7 103.6C641.1 103.5 641.55 103.45 641.95 103.4C641.8 103.65 641.65 103.85 641.5 104.1C641.4 104.3 641.25 104.55 641.15 104.8ZM641.45 105.5C641.65 105.1 641.85 104.75 642.05 104.35C642.25 104 642.5 103.6 642.75 103.25C643.15 103.2 643.6 103.2 644.05 103.2C644.5 103.2 644.9 103.2 645.35 103.25C645.6 103.6 645.8 103.95 646 104.35C646.2 104.7 646.4 105.1 646.6 105.5C646.4 105.9 646.2 106.25 646 106.65C645.8 107 645.55 107.4 645.35 107.75C644.95 107.8 644.5 107.8 644.05 107.8C643.6 107.8 643.2 107.8 642.8 107.75C642.55 107.4 642.35 107.05 642.1 106.65C641.85 106.25 641.65 105.9 641.45 105.5ZM646.45 106.95C646.6 106.7 646.75 106.45 646.85 106.2C647.05 106.6 647.2 107 647.3 107.45C646.85 107.55 646.45 107.6 646 107.65C646.2 107.4 646.35 107.15 646.45 106.95ZM646.85 104.8C646.7 104.55 646.6 104.3 646.45 104.05C646.3 103.8 646.15 103.6 646.05 103.35C646.5 103.4 646.9 103.5 647.35 103.55C647.2 104 647.05 104.4 646.85 104.8ZM644 101.65C644.3 101.95 644.55 102.3 644.8 102.65C644.25 102.6 643.7 102.6 643.15 102.65C643.45 102.3 643.75 101.95 644 101.65ZM640.8 99.95C641.25 99.7 642.3 100.05 643.4 101.05C643.45 101.1 643.55 101.2 643.6 101.25C643.15 101.7 642.75 102.2 642.4 102.75C641.75 102.8 641.15 102.9 640.55 103.05C640.5 102.9 640.5 102.75 640.45 102.6C640.15 101.25 640.35 100.2 640.8 99.95ZM640.1 107.3C640 107.25 639.85 107.25 639.75 107.2C639.05 106.95 638.5 106.65 638.1 106.35C637.75 106.05 637.6 105.75 637.6 105.5C637.6 105 638.35 104.35 639.65 103.9C639.8 103.85 639.95 103.8 640.15 103.75C640.3 104.35 640.5 104.95 640.8 105.5C640.5 106.1 640.3 106.7 640.1 107.3ZM643.35 110.05C642.8 110.55 642.25 110.85 641.8 111.05C641.35 111.2 641.05 111.2 640.8 111.1C640.35 110.85 640.15 109.85 640.4 108.55C640.45 108.35 640.5 108.2 640.5 108C641.1 108.15 641.75 108.25 642.4 108.25C642.75 108.75 643.15 109.25 643.6 109.75C643.5 109.85 643.45 109.95 643.35 110.05ZM644 109.35C643.7 109.05 643.45 108.7 643.15 108.35C643.4 108.35 643.7 108.35 643.95 108.35C644.25 108.35 644.5 108.35 644.8 108.35C644.6 108.7 644.3 109.05 644 109.35ZM647.65 110.2C647.55 110.65 647.4 110.95 647.2 111.05C646.75 111.3 645.8 110.95 644.8 110.1C644.7 110 644.55 109.9 644.45 109.8C644.85 109.35 645.25 108.85 645.6 108.3C646.25 108.25 646.85 108.15 647.5 108C647.55 108.1 647.55 108.25 647.6 108.35C647.75 109.05 647.75 109.7 647.65 110.2ZM648.15 107.2C648.05 107.2 648 107.25 647.9 107.25C647.7 106.65 647.45 106.05 647.2 105.45C647.45 104.9 647.7 104.3 647.9 103.7C648.05 103.75 648.2 103.8 648.3 103.85C649.6 104.3 650.4 104.95 650.4 105.45C650.4 106.05 649.55 106.75 648.15 107.2Z" fill="#FBFBFB"/>
<path d="M644 106.75C644.25 106.75 644.5 106.7 644.7 106.55C644.9 106.4 645.05 106.2 645.15 106C645.25 105.75 645.25 105.5 645.2 105.25C645.15 105 645.05 104.8 644.85 104.6C644.7 104.4 644.45 104.3 644.2 104.25C643.95 104.2 643.7 104.25 643.45 104.3C643.2 104.4 643 104.55 642.9 104.75C642.75 104.95 642.7 105.2 642.7 105.45C642.7 105.6 642.75 105.8 642.8 105.95C642.85 106.1 642.95 106.25 643.05 106.35C643.15 106.45 643.3 106.55 643.45 106.6C643.65 106.7 643.85 106.75 644 106.75Z" fill="#FBFBFB"/>
</g>
<rect x="694" y="85" width="40" height="41" rx="8" fill="#1D1D47"/>
<path fill-rule="evenodd" clip-rule="evenodd" d="M720.293 100L721 100.707L719.195 102.512C719.856 103.654 720.121 104.982 719.949 106.29C719.777 107.598 719.179 108.813 718.246 109.746C717.313 110.679 716.098 111.277 714.79 111.449C713.482 111.621 712.154 111.356 711.012 110.695L709.207 112.5L708.5 111.793L710.175 110.118C709.887 109.879 709.621 109.613 709.382 109.325L707.707 111L707 110.293L708.805 108.488C708.144 107.346 707.879 106.018 708.051 104.71C708.223 103.402 708.821 102.187 709.754 101.254C710.687 100.321 711.902 99.7226 713.21 99.5509C714.518 99.3792 715.846 99.6442 716.988 100.305L718.793 98.5L719.5 99.207L717.825 100.882C718.113 101.121 718.379 101.387 718.618 101.675L720.293 100ZM711.222 109.657C712.044 110.207 713.011 110.5 714 110.5C715.326 110.498 716.597 109.971 717.534 109.034C718.471 108.097 718.998 106.826 719 105.5C719 104.511 718.707 103.544 718.157 102.722C717.608 101.9 716.827 101.259 715.913 100.881C715 100.502 713.994 100.403 713.025 100.596C712.055 100.789 711.164 101.265 710.464 101.964C709.765 102.664 709.289 103.555 709.096 104.525C708.903 105.494 709.002 106.5 709.381 107.413C709.759 108.327 710.4 109.108 711.222 109.657ZM717 104H711V105H717V104ZM717 106.5H711V107.5H717V106.5Z" fill="#CBCBD7"/>
<g clip-path="url(#clip2_1074_3480)">
<path fill-rule="evenodd" clip-rule="evenodd" d="M590.656 83.8436L590.844 84.4374C591.216 84.312 591.607 84.2486 592 84.2499V83.6249C591.543 83.6186 591.088 83.6927 590.656 83.8436ZM588.469 85.4374C588.732 85.0701 589.048 84.7437 589.406 84.4686L589.781 84.9686C589.472 85.21 589.198 85.4941 588.969 85.8124L588.469 85.4374ZM587.844 86.6561L588.437 86.8436C588.312 87.2162 588.249 87.6068 588.25 87.9999H587.625C587.619 87.5426 587.693 87.0878 587.844 86.6561ZM587.844 89.3749C587.989 89.8106 588.199 90.2216 588.469 90.5936L588.969 90.2186C588.743 89.9023 588.564 89.555 588.437 89.1874L587.844 89.3749ZM590.656 92.1561C590.22 92.0112 589.809 91.8004 589.437 91.5311L589.812 91.0311C590.129 91.257 590.476 91.436 590.844 91.5624L590.656 92.1561ZM595.531 90.5624C595.257 90.9305 594.93 91.2568 594.562 91.5311L594.187 91.0311C594.514 90.7987 594.799 90.5136 595.031 90.1874L595.531 90.5624ZM595.562 89.1561L596.156 89.3436C596.292 88.9083 596.366 88.4559 596.375 87.9999H595.75C595.751 88.393 595.688 88.7836 595.562 89.1561ZM595.5 85.4061C595.769 85.7781 595.98 86.1891 596.125 86.6249L595.531 86.8124C595.405 86.4448 595.226 86.0974 595 85.7811L595.5 85.4061ZM594.531 84.4374C594.159 84.1681 593.748 83.9573 593.312 83.8124L593.125 84.4061C593.492 84.5325 593.84 84.7115 594.156 84.9374L594.531 84.4374ZM593.156 91.5624L593.344 92.1561C592.904 92.2745 592.454 92.3478 592 92.3749V91.7499C592.393 91.7512 592.784 91.6878 593.156 91.5624Z" fill="#B1B9FF"/>
</g>
<g clip-path="url(#clip3_1074_3480)">
<path fill-rule="evenodd" clip-rule="evenodd" d="M517.656 83.8436L517.844 84.4374C518.216 84.312 518.607 84.2486 519 84.2499V83.6249C518.543 83.6186 518.088 83.6927 517.656 83.8436ZM515.469 85.4374C515.732 85.0701 516.048 84.7437 516.406 84.4686L516.781 84.9686C516.472 85.21 516.198 85.4941 515.969 85.8124L515.469 85.4374ZM514.844 86.6561L515.437 86.8436C515.312 87.2162 515.249 87.6068 515.25 87.9999H514.625C514.619 87.5426 514.693 87.0878 514.844 86.6561ZM514.844 89.3749C514.989 89.8106 515.199 90.2216 515.469 90.5936L515.969 90.2186C515.743 89.9023 515.564 89.555 515.437 89.1874L514.844 89.3749ZM517.656 92.1561C517.22 92.0112 516.809 91.8004 516.437 91.5311L516.812 91.0311C517.129 91.257 517.476 91.436 517.844 91.5624L517.656 92.1561ZM522.531 90.5624C522.257 90.9305 521.93 91.2568 521.562 91.5311L521.187 91.0311C521.514 90.7987 521.799 90.5136 522.031 90.1874L522.531 90.5624ZM522.562 89.1561L523.156 89.3436C523.292 88.9083 523.366 88.4559 523.375 87.9999H522.75C522.751 88.393 522.688 88.7836 522.562 89.1561ZM522.5 85.4061C522.769 85.7781 522.98 86.1891 523.125 86.6249L522.531 86.8124C522.405 86.4448 522.226 86.0974 522 85.7811L522.5 85.4061ZM521.531 84.4374C521.159 84.1681 520.748 83.9573 520.312 83.8124L520.125 84.4061C520.492 84.5325 520.84 84.7115 521.156 84.9374L521.531 84.4374ZM520.156 91.5624L520.344 92.1561C519.904 92.2745 519.454 92.3478 519 92.3749V91.7499C519.393 91.7512 519.784 91.6878 520.156 91.5624Z" fill="#B1B9FF"/>
</g>
<g clip-path="url(#clip4_1074_3480)">
<path fill-rule="evenodd" clip-rule="evenodd" d="M660.656 83.8436L660.844 84.4374C661.216 84.312 661.607 84.2486 662 84.2499V83.6249C661.543 83.6186 661.088 83.6927 660.656 83.8436ZM658.469 85.4374C658.732 85.0701 659.048 84.7437 659.406 84.4686L659.781 84.9686C659.472 85.21 659.198 85.4941 658.969 85.8124L658.469 85.4374ZM657.844 86.6561L658.437 86.8436C658.312 87.2162 658.249 87.6068 658.25 87.9999H657.625C657.619 87.5426 657.693 87.0878 657.844 86.6561ZM657.844 89.3749C657.989 89.8106 658.199 90.2216 658.469 90.5936L658.969 90.2186C658.743 89.9023 658.564 89.555 658.437 89.1874L657.844 89.3749ZM660.656 92.1561C660.22 92.0112 659.809 91.8004 659.437 91.5311L659.812 91.0311C660.129 91.257 660.476 91.436 660.844 91.5624L660.656 92.1561ZM665.531 90.5624C665.257 90.9305 664.93 91.2568 664.562 91.5311L664.187 91.0311C664.514 90.7987 664.799 90.5136 665.031 90.1874L665.531 90.5624ZM665.562 89.1561L666.156 89.3436C666.292 88.9083 666.366 88.4559 666.375 87.9999H665.75C665.751 88.393 665.688 88.7836 665.562 89.1561ZM665.5 85.4061C665.769 85.7781 665.98 86.1891 666.125 86.6249L665.531 86.8124C665.405 86.4448 665.226 86.0974 665 85.7811L665.5 85.4061ZM664.531 84.4374C664.159 84.1681 663.748 83.9573 663.312 83.8124L663.125 84.4061C663.492 84.5325 663.84 84.7115 664.156 84.9374L664.531 84.4374ZM663.156 91.5624L663.344 92.1561C662.904 92.2745 662.454 92.3478 662 92.3749V91.7499C662.393 91.7512 662.784 91.6878 663.156 91.5624Z" fill="white"/>
</g>
<g clip-path="url(#clip5_1074_3480)">
<path fill-rule="evenodd" clip-rule="evenodd" d="M729.569 91.6377C730.289 92.1184 731.135 92.375 732 92.375C733.16 92.3737 734.272 91.9123 735.092 91.0922C735.912 90.272 736.374 89.1599 736.375 88C736.375 87.1347 736.118 86.2888 735.638 85.5694C735.157 84.8499 734.474 84.2892 733.674 83.958C732.875 83.6269 731.995 83.5403 731.146 83.7091C730.298 83.8779 729.518 84.2946 728.906 84.9064C728.295 85.5183 727.878 86.2978 727.709 87.1465C727.54 87.9951 727.627 88.8748 727.958 89.6742C728.289 90.4737 728.85 91.157 729.569 91.6377ZM729.917 84.882C730.533 84.4699 731.258 84.25 732 84.25C732.994 84.2511 733.947 84.6466 734.65 85.3496C735.353 86.0526 735.749 87.0058 735.75 88C735.75 88.7417 735.53 89.4667 735.118 90.0834C734.706 90.7001 734.12 91.1807 733.435 91.4646C732.75 91.7484 731.996 91.8226 731.268 91.6779C730.541 91.5333 729.873 91.1761 729.348 90.6517C728.824 90.1272 728.467 89.459 728.322 88.7316C728.177 88.0042 728.252 87.2502 728.535 86.5649C728.819 85.8797 729.3 85.294 729.917 84.882ZM730.438 88C730.438 88.3452 730.158 88.625 729.813 88.625C729.467 88.625 729.188 88.3452 729.188 88C729.188 87.6548 729.467 87.375 729.813 87.375C730.158 87.375 730.438 87.6548 730.438 88ZM734.813 88C734.813 88.3452 734.533 88.625 734.188 88.625C733.842 88.625 733.563 88.3452 733.563 88C733.563 87.6548 733.842 87.375 734.188 87.375C734.533 87.375 734.813 87.6548 734.813 88ZM732 88.625C732.345 88.625 732.625 88.3452 732.625 88C732.625 87.6548 732.345 87.375 732 87.375C731.655 87.375 731.375 87.6548 731.375 88C731.375 88.3452 731.655 88.625 732 88.625Z" fill="#B1B9FF"/>
</g>
</g>
<g filter="url(#filter3_d_1074_3480)">
<rect x="349" y="326" width="325" height="81" rx="40.5" fill="url(#paint3_linear_1074_3480)" shape-rendering="crispEdges"/>
<line x1="627" y1="411" x2="627" y2="433" stroke="#8F91A4" stroke-width="4" stroke-linecap="round"/>
<line x1="627" y1="158" x2="627" y2="324" stroke="#8F91A4" stroke-width="4" stroke-linecap="round"/>
<rect x="457" y="346" width="40" height="41" rx="8" fill="#1D1D47"/>
<path fill-rule="evenodd" clip-rule="evenodd" d="M474.222 361.795C473.934 361.603 473.596 361.5 473.25 361.5C472.786 361.5 472.341 361.684 472.013 362.013C471.684 362.341 471.5 362.786 471.5 363.25C471.5 363.596 471.603 363.934 471.795 364.222C471.987 364.51 472.261 364.734 472.58 364.867C472.9 364.999 473.252 365.034 473.591 364.966C473.931 364.899 474.243 364.732 474.487 364.487C474.732 364.243 474.899 363.931 474.966 363.591C475.034 363.252 474.999 362.9 474.867 362.58C474.734 362.261 474.51 361.987 474.222 361.795ZM471.722 360.963C472.174 360.661 472.706 360.5 473.25 360.5C473.979 360.5 474.679 360.79 475.195 361.305C475.71 361.821 476 362.521 476 363.25C476 363.794 475.839 364.326 475.537 364.778C475.234 365.23 474.805 365.583 474.302 365.791C473.8 365.999 473.247 366.053 472.714 365.947C472.18 365.841 471.69 365.579 471.305 365.195C470.921 364.81 470.659 364.32 470.553 363.786C470.447 363.253 470.501 362.7 470.709 362.198C470.917 361.695 471.27 361.266 471.722 360.963ZM481.5 360.5V365H483V366H479V365H480.5V362.5H479V361.5H480.5V360.5H481.5ZM473.25 368.5C473.596 368.5 473.934 368.603 474.222 368.795C474.51 368.987 474.734 369.261 474.867 369.58C474.999 369.9 475.034 370.252 474.966 370.591C474.899 370.931 474.732 371.243 474.487 371.487C474.243 371.732 473.931 371.899 473.591 371.966C473.252 372.034 472.9 371.999 472.58 371.867C472.261 371.734 471.987 371.51 471.795 371.222C471.603 370.934 471.5 370.596 471.5 370.25C471.5 369.786 471.684 369.341 472.013 369.013C472.341 368.684 472.786 368.5 473.25 368.5ZM473.25 367.5C472.706 367.5 472.174 367.661 471.722 367.963C471.27 368.266 470.917 368.695 470.709 369.198C470.501 369.7 470.447 370.253 470.553 370.786C470.659 371.32 470.921 371.81 471.305 372.195C471.69 372.579 472.18 372.841 472.714 372.947C473.247 373.053 473.8 372.999 474.302 372.791C474.805 372.583 475.234 372.23 475.537 371.778C475.839 371.326 476 370.794 476 370.25C476 369.521 475.71 368.821 475.195 368.305C474.679 367.79 473.979 367.5 473.25 367.5ZM481.722 368.795C481.434 368.603 481.096 368.5 480.75 368.5C480.286 368.5 479.841 368.684 479.513 369.013C479.184 369.341 479 369.786 479 370.25C479 370.596 479.103 370.934 479.295 371.222C479.487 371.51 479.761 371.734 480.08 371.867C480.4 371.999 480.752 372.034 481.091 371.966C481.431 371.899 481.743 371.732 481.987 371.487C482.232 371.243 482.399 370.931 482.466 370.591C482.534 370.252 482.499 369.9 482.367 369.58C482.234 369.261 482.01 368.987 481.722 368.795ZM479.222 367.963C479.674 367.661 480.206 367.5 480.75 367.5C481.479 367.5 482.179 367.79 482.695 368.305C483.21 368.821 483.5 369.521 483.5 370.25C483.5 370.794 483.339 371.326 483.037 371.778C482.734 372.23 482.305 372.583 481.802 372.791C481.3 372.999 480.747 373.053 480.214 372.947C479.68 372.841 479.19 372.579 478.805 372.195C478.421 371.81 478.159 371.32 478.053 370.786C477.947 370.253 478.001 369.7 478.209 369.198C478.417 368.695 478.77 368.266 479.222 367.963Z" fill="#6D7CFF"/>
<rect x="384" y="346" width="40" height="41" rx="8" fill="#1D1D47"/>
<path fill-rule="evenodd" clip-rule="evenodd" d="M401.222 361.795C400.934 361.603 400.596 361.5 400.25 361.5C399.786 361.5 399.341 361.684 399.013 362.013C398.684 362.341 398.5 362.786 398.5 363.25C398.5 363.596 398.603 363.934 398.795 364.222C398.987 364.51 399.261 364.734 399.58 364.867C399.9 364.999 400.252 365.034 400.591 364.966C400.931 364.899 401.243 364.732 401.487 364.487C401.732 364.243 401.899 363.931 401.966 363.591C402.034 363.252 401.999 362.9 401.867 362.58C401.734 362.261 401.51 361.987 401.222 361.795ZM398.722 360.963C399.174 360.661 399.706 360.5 400.25 360.5C400.979 360.5 401.679 360.79 402.195 361.305C402.71 361.821 403 362.521 403 363.25C403 363.794 402.839 364.326 402.537 364.778C402.234 365.23 401.805 365.583 401.302 365.791C400.8 365.999 400.247 366.053 399.714 365.947C399.18 365.841 398.69 365.579 398.305 365.195C397.921 364.81 397.659 364.32 397.553 363.786C397.447 363.253 397.501 362.7 397.709 362.198C397.917 361.695 398.27 361.266 398.722 360.963ZM408.5 360.5V365H410V366H406V365H407.5V362.5H406V361.5H407.5V360.5H408.5ZM400.25 368.5C400.596 368.5 400.934 368.603 401.222 368.795C401.51 368.987 401.734 369.261 401.867 369.58C401.999 369.9 402.034 370.252 401.966 370.591C401.899 370.931 401.732 371.243 401.487 371.487C401.243 371.732 400.931 371.899 400.591 371.966C400.252 372.034 399.9 371.999 399.58 371.867C399.261 371.734 398.987 371.51 398.795 371.222C398.603 370.934 398.5 370.596 398.5 370.25C398.5 369.786 398.684 369.341 399.013 369.013C399.341 368.684 399.786 368.5 400.25 368.5ZM400.25 367.5C399.706 367.5 399.174 367.661 398.722 367.963C398.27 368.266 397.917 368.695 397.709 369.198C397.501 369.7 397.447 370.253 397.553 370.786C397.659 371.32 397.921 371.81 398.305 372.195C398.69 372.579 399.18 372.841 399.714 372.947C400.247 373.053 400.8 372.999 401.302 372.791C401.805 372.583 402.234 372.23 402.537 371.778C402.839 371.326 403 370.794 403 370.25C403 369.521 402.71 368.821 402.195 368.305C401.679 367.79 400.979 367.5 400.25 367.5ZM408.722 368.795C408.434 368.603 408.096 368.5 407.75 368.5C407.286 368.5 406.841 368.684 406.513 369.013C406.184 369.341 406 369.786 406 370.25C406 370.596 406.103 370.934 406.295 371.222C406.487 371.51 406.761 371.734 407.08 371.867C407.4 371.999 407.752 372.034 408.091 371.966C408.431 371.899 408.743 371.732 408.987 371.487C409.232 371.243 409.399 370.931 409.466 370.591C409.534 370.252 409.499 369.9 409.367 369.58C409.234 369.261 409.01 368.987 408.722 368.795ZM406.222 367.963C406.674 367.661 407.206 367.5 407.75 367.5C408.479 367.5 409.179 367.79 409.695 368.305C410.21 368.821 410.5 369.521 410.5 370.25C410.5 370.794 410.339 371.326 410.037 371.778C409.734 372.23 409.305 372.583 408.802 372.791C408.3 372.999 407.747 373.053 407.214 372.947C406.68 372.841 406.19 372.579 405.805 372.195C405.421 371.81 405.159 371.32 405.053 370.786C404.947 370.253 405.001 369.7 405.209 369.198C405.417 368.695 405.77 368.266 406.222 367.963Z" fill="#6D7CFF"/>
<rect x="527" y="346" width="40" height="41" rx="8" fill="#1D1D47"/>
<g clip-path="url(#clip6_1074_3480)">
<path d="M551.5 364.3C551.35 364.25 551.2 364.2 551.05 364.15C551.05 364.05 551.1 363.95 551.1 363.85C551.45 362.2 551.2 360.85 550.45 360.4C549.7 360 548.5 360.4 547.3 361.45C547.2 361.55 547.05 361.65 546.95 361.75C546.85 361.7 546.8 361.6 546.7 361.55C545.5 360.45 544.25 360 543.5 360.45C542.75 360.85 542.55 362.15 542.85 363.7C542.9 363.85 542.9 364 542.95 364.15C542.75 364.2 542.6 364.25 542.45 364.3C540.95 364.8 540 365.65 540 366.45C540 367.3 541 368.2 542.55 368.7C542.65 368.75 542.8 368.8 542.95 368.8C542.9 368.95 542.85 369.15 542.85 369.3C542.55 370.85 542.8 372.05 543.5 372.5C544.25 372.95 545.5 372.5 546.75 371.4C546.85 371.3 546.95 371.2 547.05 371.15C547.15 371.25 547.3 371.4 547.45 371.5C548.65 372.55 549.8 372.95 550.55 372.5C551.3 372.05 551.55 370.75 551.25 369.15C551.25 369.05 551.2 368.9 551.15 368.75C551.25 368.7 551.35 368.7 551.4 368.65C553 368.1 554.05 367.25 554.05 366.4C554 365.65 553 364.85 551.5 364.3ZM547.75 361.95C548.8 361.05 549.75 360.7 550.2 360.95C550.65 361.2 550.85 362.3 550.55 363.75C550.55 363.85 550.5 363.95 550.5 364.05C549.9 363.9 549.25 363.8 548.65 363.75C548.3 363.25 547.9 362.75 547.45 362.25C547.55 362.15 547.65 362.05 547.75 361.95ZM544.15 367.2C544.3 367.45 544.4 367.7 544.55 367.95C544.7 368.2 544.85 368.45 545 368.65C544.55 368.6 544.15 368.55 543.7 368.45C543.8 368.05 543.95 367.65 544.15 367.2ZM544.15 365.8C543.95 365.4 543.85 365 543.7 364.6C544.1 364.5 544.55 364.45 544.95 364.4C544.8 364.65 544.65 364.85 544.5 365.1C544.4 365.3 544.25 365.55 544.15 365.8ZM544.45 366.5C544.65 366.1 544.85 365.75 545.05 365.35C545.25 365 545.5 364.6 545.75 364.25C546.15 364.2 546.6 364.2 547.05 364.2C547.5 364.2 547.9 364.2 548.35 364.25C548.6 364.6 548.8 364.95 549 365.35C549.2 365.7 549.4 366.1 549.6 366.5C549.4 366.9 549.2 367.25 549 367.65C548.8 368 548.55 368.4 548.35 368.75C547.95 368.8 547.5 368.8 547.05 368.8C546.6 368.8 546.2 368.8 545.8 368.75C545.55 368.4 545.35 368.05 545.1 367.65C544.85 367.25 544.65 366.9 544.45 366.5ZM549.45 367.95C549.6 367.7 549.75 367.45 549.85 367.2C550.05 367.6 550.2 368 550.3 368.45C549.85 368.55 549.45 368.6 549 368.65C549.2 368.4 549.35 368.15 549.45 367.95ZM549.85 365.8C549.7 365.55 549.6 365.3 549.45 365.05C549.3 364.8 549.15 364.6 549.05 364.35C549.5 364.4 549.9 364.5 550.35 364.55C550.2 365 550.05 365.4 549.85 365.8ZM547 362.65C547.3 362.95 547.55 363.3 547.8 363.65C547.25 363.6 546.7 363.6 546.15 363.65C546.45 363.3 546.75 362.95 547 362.65ZM543.8 360.95C544.25 360.7 545.3 361.05 546.4 362.05C546.45 362.1 546.55 362.2 546.6 362.25C546.15 362.7 545.75 363.2 545.4 363.75C544.75 363.8 544.15 363.9 543.55 364.05C543.5 363.9 543.5 363.75 543.45 363.6C543.15 362.25 543.35 361.2 543.8 360.95ZM543.1 368.3C543 368.25 542.85 368.25 542.75 368.2C542.05 367.95 541.5 367.65 541.1 367.35C540.75 367.05 540.6 366.75 540.6 366.5C540.6 366 541.35 365.35 542.65 364.9C542.8 364.85 542.95 364.8 543.15 364.75C543.3 365.35 543.5 365.95 543.8 366.5C543.5 367.1 543.3 367.7 543.1 368.3ZM546.35 371.05C545.8 371.55 545.25 371.85 544.8 372.05C544.35 372.2 544.05 372.2 543.8 372.1C543.35 371.85 543.15 370.85 543.4 369.55C543.45 369.35 543.5 369.2 543.5 369C544.1 369.15 544.75 369.25 545.4 369.25C545.75 369.75 546.15 370.25 546.6 370.75C546.5 370.85 546.45 370.95 546.35 371.05ZM547 370.35C546.7 370.05 546.45 369.7 546.15 369.35C546.4 369.35 546.7 369.35 546.95 369.35C547.25 369.35 547.5 369.35 547.8 369.35C547.6 369.7 547.3 370.05 547 370.35ZM550.65 371.2C550.55 371.65 550.4 371.95 550.2 372.05C549.75 372.3 548.8 371.95 547.8 371.1C547.7 371 547.55 370.9 547.45 370.8C547.85 370.35 548.25 369.85 548.6 369.3C549.25 369.25 549.85 369.15 550.5 369C550.55 369.1 550.55 369.25 550.6 369.35C550.75 370.05 550.75 370.7 550.65 371.2ZM551.15 368.2C551.05 368.2 551 368.25 550.9 368.25C550.7 367.65 550.45 367.05 550.2 366.45C550.45 365.9 550.7 365.3 550.9 364.7C551.05 364.75 551.2 364.8 551.3 364.85C552.6 365.3 553.4 365.95 553.4 366.45C553.4 367.05 552.55 367.75 551.15 368.2Z" fill="#FBFBFB"/>
<path d="M547 367.75C547.25 367.75 547.5 367.7 547.7 367.55C547.9 367.4 548.05 367.2 548.15 367C548.25 366.75 548.25 366.5 548.2 366.25C548.15 366 548.05 365.8 547.85 365.6C547.7 365.4 547.45 365.3 547.2 365.25C546.95 365.2 546.7 365.25 546.45 365.3C546.2 365.4 546 365.55 545.9 365.75C545.75 365.95 545.7 366.2 545.7 366.45C545.7 366.6 545.75 366.8 545.8 366.95C545.85 367.1 545.95 367.25 546.05 367.35C546.15 367.45 546.3 367.55 546.45 367.6C546.65 367.7 546.85 367.75 547 367.75Z" fill="#FBFBFB"/>
</g>
<rect x="597" y="346" width="40" height="41" rx="8" fill="#1D1D47"/>
<path fill-rule="evenodd" clip-rule="evenodd" d="M623.293 361L624 361.707L622.195 363.512C622.856 364.654 623.121 365.982 622.949 367.29C622.777 368.598 622.179 369.813 621.246 370.746C620.313 371.679 619.098 372.277 617.79 372.449C616.482 372.621 615.154 372.356 614.012 371.695L612.207 373.5L611.5 372.793L613.175 371.118C612.887 370.879 612.621 370.613 612.382 370.325L610.707 372L610 371.293L611.805 369.488C611.144 368.346 610.879 367.018 611.051 365.71C611.223 364.402 611.821 363.187 612.754 362.254C613.687 361.321 614.902 360.723 616.21 360.551C617.518 360.379 618.846 360.644 619.988 361.305L621.793 359.5L622.5 360.207L620.825 361.882C621.113 362.121 621.379 362.387 621.618 362.675L623.293 361ZM614.222 370.657C615.044 371.207 616.011 371.5 617 371.5C618.326 371.498 619.597 370.971 620.534 370.034C621.471 369.097 621.998 367.826 622 366.5C622 365.511 621.707 364.544 621.157 363.722C620.608 362.9 619.827 362.259 618.913 361.881C618 361.502 616.994 361.403 616.025 361.596C615.055 361.789 614.164 362.265 613.464 362.964C612.765 363.664 612.289 364.555 612.096 365.525C611.903 366.494 612.002 367.5 612.381 368.413C612.759 369.327 613.4 370.108 614.222 370.657ZM620 365H614V366H620V365ZM620 367.5H614V368.5H620V367.5Z" fill="#CBCBD7"/>
<g clip-path="url(#clip7_1074_3480)">
<path fill-rule="evenodd" clip-rule="evenodd" d="M493.656 344.844L493.844 345.437C494.216 345.312 494.607 345.249 495 345.25V344.625C494.543 344.619 494.088 344.693 493.656 344.844ZM491.469 346.437C491.732 346.07 492.048 345.744 492.406 345.469L492.781 345.969C492.472 346.21 492.198 346.494 491.969 346.812L491.469 346.437ZM490.844 347.656L491.437 347.844C491.312 348.216 491.249 348.607 491.25 349H490.625C490.619 348.543 490.693 348.088 490.844 347.656ZM490.844 350.375C490.989 350.811 491.199 351.222 491.469 351.594L491.969 351.219C491.743 350.902 491.564 350.555 491.437 350.187L490.844 350.375ZM493.656 353.156C493.22 353.011 492.809 352.8 492.437 352.531L492.812 352.031C493.129 352.257 493.476 352.436 493.844 352.562L493.656 353.156ZM498.531 351.562C498.257 351.93 497.93 352.257 497.562 352.531L497.187 352.031C497.514 351.799 497.799 351.514 498.031 351.187L498.531 351.562ZM498.562 350.156L499.156 350.344C499.292 349.908 499.366 349.456 499.375 349H498.75C498.751 349.393 498.688 349.784 498.562 350.156ZM498.5 346.406C498.769 346.778 498.98 347.189 499.125 347.625L498.531 347.812C498.405 347.445 498.226 347.097 498 346.781L498.5 346.406ZM497.531 345.437C497.159 345.168 496.748 344.957 496.312 344.812L496.125 345.406C496.492 345.533 496.84 345.711 497.156 345.937L497.531 345.437ZM496.156 352.562L496.344 353.156C495.904 353.275 495.454 353.348 495 353.375V352.75C495.393 352.751 495.784 352.688 496.156 352.562Z" fill="#B1B9FF"/>
</g>
<g clip-path="url(#clip8_1074_3480)">
<path fill-rule="evenodd" clip-rule="evenodd" d="M420.656 344.844L420.844 345.437C421.216 345.312 421.607 345.249 422 345.25V344.625C421.543 344.619 421.088 344.693 420.656 344.844ZM418.469 346.437C418.732 346.07 419.048 345.744 419.406 345.469L419.781 345.969C419.472 346.21 419.198 346.494 418.969 346.812L418.469 346.437ZM417.844 347.656L418.437 347.844C418.312 348.216 418.249 348.607 418.25 349H417.625C417.619 348.543 417.693 348.088 417.844 347.656ZM417.844 350.375C417.989 350.811 418.199 351.222 418.469 351.594L418.969 351.219C418.743 350.902 418.564 350.555 418.437 350.187L417.844 350.375ZM420.656 353.156C420.22 353.011 419.809 352.8 419.437 352.531L419.812 352.031C420.129 352.257 420.476 352.436 420.844 352.562L420.656 353.156ZM425.531 351.562C425.257 351.93 424.93 352.257 424.562 352.531L424.187 352.031C424.514 351.799 424.799 351.514 425.031 351.187L425.531 351.562ZM425.562 350.156L426.156 350.344C426.292 349.908 426.366 349.456 426.375 349H425.75C425.751 349.393 425.688 349.784 425.562 350.156ZM425.5 346.406C425.769 346.778 425.98 347.189 426.125 347.625L425.531 347.812C425.405 347.445 425.226 347.097 425 346.781L425.5 346.406ZM424.531 345.437C424.159 345.168 423.748 344.957 423.312 344.812L423.125 345.406C423.492 345.533 423.84 345.711 424.156 345.937L424.531 345.437ZM423.156 352.562L423.344 353.156C422.904 353.275 422.454 353.348 422 353.375V352.75C422.393 352.751 422.784 352.688 423.156 352.562Z" fill="#B1B9FF"/>
</g>
<g clip-path="url(#clip9_1074_3480)">
<path fill-rule="evenodd" clip-rule="evenodd" d="M563.656 344.844L563.844 345.437C564.216 345.312 564.607 345.249 565 345.25V344.625C564.543 344.619 564.088 344.693 563.656 344.844ZM561.469 346.437C561.732 346.07 562.048 345.744 562.406 345.469L562.781 345.969C562.472 346.21 562.198 346.494 561.969 346.812L561.469 346.437ZM560.844 347.656L561.437 347.844C561.312 348.216 561.249 348.607 561.25 349H560.625C560.619 348.543 560.693 348.088 560.844 347.656ZM560.844 350.375C560.989 350.811 561.199 351.222 561.469 351.594L561.969 351.219C561.743 350.902 561.564 350.555 561.437 350.187L560.844 350.375ZM563.656 353.156C563.22 353.011 562.809 352.8 562.437 352.531L562.812 352.031C563.129 352.257 563.476 352.436 563.844 352.562L563.656 353.156ZM568.531 351.562C568.257 351.93 567.93 352.257 567.562 352.531L567.187 352.031C567.514 351.799 567.799 351.514 568.031 351.187L568.531 351.562ZM568.562 350.156L569.156 350.344C569.292 349.908 569.366 349.456 569.375 349H568.75C568.751 349.393 568.688 349.784 568.562 350.156ZM568.5 346.406C568.769 346.778 568.98 347.189 569.125 347.625L568.531 347.812C568.405 347.445 568.226 347.097 568 346.781L568.5 346.406ZM567.531 345.437C567.159 345.168 566.748 344.957 566.312 344.812L566.125 345.406C566.492 345.533 566.84 345.711 567.156 345.937L567.531 345.437ZM566.156 352.562L566.344 353.156C565.904 353.275 565.454 353.348 565 353.375V352.75C565.393 352.751 565.784 352.688 566.156 352.562Z" fill="white"/>
</g>
<g clip-path="url(#clip10_1074_3480)">
<path fill-rule="evenodd" clip-rule="evenodd" d="M632.569 352.638C633.289 353.118 634.135 353.375 635 353.375C636.16 353.374 637.272 352.912 638.092 352.092C638.912 351.272 639.374 350.16 639.375 349C639.375 348.135 639.118 347.289 638.638 346.569C638.157 345.85 637.474 345.289 636.674 344.958C635.875 344.627 634.995 344.54 634.146 344.709C633.298 344.878 632.518 345.295 631.906 345.906C631.295 346.518 630.878 347.298 630.709 348.146C630.54 348.995 630.627 349.875 630.958 350.674C631.289 351.474 631.85 352.157 632.569 352.638ZM632.917 345.882C633.533 345.47 634.258 345.25 635 345.25C635.994 345.251 636.947 345.647 637.65 346.35C638.353 347.053 638.749 348.006 638.75 349C638.75 349.742 638.53 350.467 638.118 351.083C637.706 351.7 637.12 352.181 636.435 352.465C635.75 352.748 634.996 352.823 634.268 352.678C633.541 352.533 632.873 352.176 632.348 351.652C631.824 351.127 631.467 350.459 631.322 349.732C631.177 349.004 631.252 348.25 631.535 347.565C631.819 346.88 632.3 346.294 632.917 345.882ZM633.438 349C633.438 349.345 633.158 349.625 632.813 349.625C632.467 349.625 632.188 349.345 632.188 349C632.188 348.655 632.467 348.375 632.813 348.375C633.158 348.375 633.438 348.655 633.438 349ZM637.813 349C637.813 349.345 637.533 349.625 637.188 349.625C636.842 349.625 636.563 349.345 636.563 349C636.563 348.655 636.842 348.375 637.188 348.375C637.533 348.375 637.813 348.655 637.813 349ZM635 349.625C635.345 349.625 635.625 349.345 635.625 349C635.625 348.655 635.345 348.375 635 348.375C634.655 348.375 634.375 348.655 634.375 349C634.375 349.345 634.655 349.625 635 349.625Z" fill="#B1B9FF"/>
</g>
</g>
</g>
<defs>
<filter id="filter0_d_1074_3480" x="-10" y="133" width="584" height="220" filterUnits="userSpaceOnUse" color-interpolation-filters="sRGB">
<feFlood flood-opacity="0" result="BackgroundImageFix"/>
<feColorMatrix in="SourceAlpha" type="matrix" values="0 0 0 0 0 0 0 0 0 0 0 0 0 0 0 0 0 0 127 0" result="hardAlpha"/>
<feOffset dy="16"/>
<feGaussianBlur stdDeviation="25"/>
<feComposite in2="hardAlpha" operator="out"/>
<feColorMatrix type="matrix" values="0 0 0 0 0 0 0 0 0 0 0 0 0 0 0 0 0 0 0.2 0"/>
<feBlend mode="normal" in2="BackgroundImageFix" result="effect1_dropShadow_1074_3480"/>
<feBlend mode="normal" in="SourceGraphic" in2="effect1_dropShadow_1074_3480" result="shape"/>
</filter>
<filter id="filter1_d_1074_3480" x="141" y="87" width="282" height="146" filterUnits="userSpaceOnUse" color-interpolation-filters="sRGB">
<feFlood flood-opacity="0" result="BackgroundImageFix"/>
<feColorMatrix in="SourceAlpha" type="matrix" values="0 0 0 0 0 0 0 0 0 0 0 0 0 0 0 0 0 0 127 0" result="hardAlpha"/>
<feOffset dy="16"/>
<feGaussianBlur stdDeviation="25"/>
<feComposite in2="hardAlpha" operator="out"/>
<feColorMatrix type="matrix" values="0 0 0 0 0 0 0 0 0 0 0 0 0 0 0 0 0 0 0.2 0"/>
<feBlend mode="normal" in2="BackgroundImageFix" result="effect1_dropShadow_1074_3480"/>
<feBlend mode="normal" in="SourceGraphic" in2="effect1_dropShadow_1074_3480" result="shape"/>
</filter>
<filter id="filter2_d_1074_3480" x="423" y="46" width="371" height="127" filterUnits="userSpaceOnUse" color-interpolation-filters="sRGB">
<feFlood flood-opacity="0" result="BackgroundImageFix"/>
<feColorMatrix in="SourceAlpha" type="matrix" values="0 0 0 0 0 0 0 0 0 0 0 0 0 0 0 0 0 0 127 0" result="hardAlpha"/>
<feOffset dy="4"/>
<feGaussianBlur stdDeviation="11.5"/>
<feComposite in2="hardAlpha" operator="out"/>
<feColorMatrix type="matrix" values="0 0 0 0 0 0 0 0 0 0 0 0 0 0 0 0 0 0 0.3 0"/>
<feBlend mode="normal" in2="BackgroundImageFix" result="effect1_dropShadow_1074_3480"/>
<feBlend mode="normal" in="SourceGraphic" in2="effect1_dropShadow_1074_3480" result="shape"/>
</filter>
<filter id="filter3_d_1074_3480" x="326" y="137" width="371" height="325" filterUnits="userSpaceOnUse" color-interpolation-filters="sRGB">
<feFlood flood-opacity="0" result="BackgroundImageFix"/>
<feColorMatrix in="SourceAlpha" type="matrix" values="0 0 0 0 0 0 0 0 0 0 0 0 0 0 0 0 0 0 127 0" result="hardAlpha"/>
<feOffset dy="4"/>
<feGaussianBlur stdDeviation="11.5"/>
<feComposite in2="hardAlpha" operator="out"/>
<feColorMatrix type="matrix" values="0 0 0 0 0 0 0 0 0 0 0 0 0 0 0 0 0 0 0.3 0"/>
<feBlend mode="normal" in2="BackgroundImageFix" result="effect1_dropShadow_1074_3480"/>
<feBlend mode="normal" in="SourceGraphic" in2="effect1_dropShadow_1074_3480" result="shape"/>
</filter>
<linearGradient id="paint0_linear_1074_3480" x1="0.500002" y1="257" x2="425" y2="194" gradientUnits="userSpaceOnUse">
<stop stop-color="#36366F"/>
<stop offset="1" stop-color="#1C1C46"/>
</linearGradient>
<linearGradient id="paint1_linear_1074_3480" x1="294" y1="144" x2="81.5" y2="179.5" gradientUnits="userSpaceOnUse">
<stop stop-color="#1C1C46"/>
<stop offset="1" stop-color="#383872"/>
</linearGradient>
<linearGradient id="paint2_linear_1074_3480" x1="446" y1="114.5" x2="826.206" y2="75.0237" gradientUnits="userSpaceOnUse">
<stop stop-color="#2F2F64"/>
<stop offset="1" stop-color="#1D1D47" stop-opacity="0.7"/>
</linearGradient>
<linearGradient id="paint3_linear_1074_3480" x1="349" y1="375.5" x2="729.206" y2="336.024" gradientUnits="userSpaceOnUse">
<stop stop-color="#2F2F64"/>
<stop offset="1" stop-color="#1D1D47" stop-opacity="0.7"/>
</linearGradient>
<clipPath id="clip0_1074_3480">
<rect width="782" height="486" rx="34" fill="white"/>
</clipPath>
<clipPath id="clip1_1074_3480">
<rect width="16" height="16" fill="white" transform="translate(636 97.5)"/>
</clipPath>
<clipPath id="clip2_1074_3480">
<rect width="10" height="10" fill="white" transform="translate(587 83)"/>
</clipPath>
<clipPath id="clip3_1074_3480">
<rect width="10" height="10" fill="white" transform="translate(514 83)"/>
</clipPath>
<clipPath id="clip4_1074_3480">
<rect width="10" height="10" fill="white" transform="translate(657 83)"/>
</clipPath>
<clipPath id="clip5_1074_3480">
<rect width="10" height="10" fill="white" transform="translate(727 83)"/>
</clipPath>
<clipPath id="clip6_1074_3480">
<rect width="16" height="16" fill="white" transform="translate(539 358.5)"/>
</clipPath>
<clipPath id="clip7_1074_3480">
<rect width="10" height="10" fill="white" transform="translate(490 344)"/>
</clipPath>
<clipPath id="clip8_1074_3480">
<rect width="10" height="10" fill="white" transform="translate(417 344)"/>
</clipPath>
<clipPath id="clip9_1074_3480">
<rect width="10" height="10" fill="white" transform="translate(560 344)"/>
</clipPath>
<clipPath id="clip10_1074_3480">
<rect width="10" height="10" fill="white" transform="translate(630 344)"/>
</clipPath>
</defs>
</svg>

